<?xml version="1.0" encoding="UTF-8"?>
<svg xmlns="http://www.w3.org/2000/svg" xmlns:xlink="http://www.w3.org/1999/xlink" version="1.2" >
<font id="Breul Grotesk B Black Italic">
<font-face  font-family="Breul Grotesk B" units-per-em="1000" ascent="750" descent="-250" font-style="italic" font-weight="900" font-stretch="normal" cap-height="585" x-height="425" underline-position="-91" underline-thickness="35" />
<missing-glyph  horiz-adv-x="567" d="" />
<glyph glyph-name="space" unicode="&#x20;" horiz-adv-x="189" d="" />
<glyph glyph-name="exclam" unicode="&#x21;" horiz-adv-x="294" d="M62 89 Q65 109 80.5 122 Q96 135 116 135 L214 135 Q234 135 246.5 122 Q259 109 256 89 L250 46 Q247 26 231.5 13 Q216 0 196 0 L98 0 Q78 0 65.5 13 Q53 26 56 46 L62 89 Z M127 539 Q130 559 146 572 Q162 585 182 585 L275 585 Q295 585 307 572 Q319 559 316 539 L258 240 Q256 220 240 207 Q224 194 204 194 L144 194 Q124 194 112 207 Q100 220 102 240 L127 539 Z " />
<glyph glyph-name="quotedbl" unicode="&#x22;" horiz-adv-x="467" d="M257 370 Q255 354 242 343.5 Q229 333 212 333 L135 333 Q118 333 109 343.5 Q100 354 102 370 L127 548 Q129 564 141.5 574.5 Q154 585 171 585 L248 585 Q265 585 274.5 574.5 Q284 564 282 548 L257 370 Z M469 370 Q467 354 454 343.5 Q441 333 424 333 L347 333 Q330 333 321 343.5 Q312 354 314 370 L339 548 Q341 564 353.5 574.5 Q366 585 383 585 L460 585 Q477 585 486.5 574.5 Q496 564 494 548 L469 370 Z " />
<glyph glyph-name="numbersign" unicode="&#x23;" horiz-adv-x="804" d="M362 240 L468 240 L520 342 L414 342 L362 240 Z M682 342 L630 240 L686 240 Q701 240 710.5 228.5 Q720 217 718 202 L710 143 Q708 128 695 116.5 Q682 105 667 105 L561 105 L528 40 Q520 24 509.5 12 Q499 0 481 0 L406 0 Q389 0 378 11.5 Q367 23 369 40 L401 105 L294 105 L261 40 Q253 24 242.5 12 Q232 0 214 0 L139 0 Q122 0 111 11.5 Q100 23 102 40 L134 105 L101 105 Q86 105 77 116.5 Q68 128 70 143 L78 202 Q80 217 92.5 228.5 Q105 240 120 240 L202 240 L254 342 L199 342 Q184 342 174.5 353.5 Q165 365 167 380 L175 439 Q177 454 190 465.5 Q203 477 218 477 L322 477 L356 545 Q364 561 375 573 Q386 585 404 585 L479 585 Q496 585 506.5 573.5 Q517 562 515 545 L482 477 L588 477 L623 545 Q631 561 642 573 Q653 585 671 585 L746 585 Q763 585 773.5 573.5 Q784 562 782 545 L750 477 L784 477 Q799 477 808 465.5 Q817 454 815 439 L807 380 Q805 365 792.5 353.5 Q780 342 765 342 L682 342 Z " />
<glyph glyph-name="dollar" unicode="&#x24;" horiz-adv-x="669" d="M645 188 Q635 114 578 60 Q521 6 409 -8 L397 -94 Q395 -110 382.5 -120.5 Q370 -131 353 -131 L276 -131 Q259 -131 249.5 -120.5 Q240 -110 242 -94 L255 -7 Q184 4 134 39 Q84 74 76 138 Q80 167 98.5 175 Q117 183 141 183 L239 183 Q272 183 284 155 Q292 137 313.5 131 Q335 125 373 125 Q397 125 411.5 127.5 Q426 130 433.5 135.5 Q441 141 444.5 148.5 Q448 156 449 165 Q451 176 440.5 183 Q430 190 412.5 195 Q395 200 371.5 204 Q348 208 322 213 Q278 221 236.5 234 Q195 247 163.5 267 Q132 287 115 317 Q98 347 104 390 Q109 428 125 462 Q141 496 169.5 523 Q198 550 240 569 Q282 588 339 595 L352 686 Q354 702 366.5 712.5 Q379 723 396 723 L473 723 Q490 723 499.5 712.5 Q509 702 507 686 L494 592 Q561 580 606.5 546 Q652 512 660 452 Q656 423 637.5 415 Q619 407 595 407 L491 407 Q458 407 446 435 Q438 446 420.5 453.5 Q403 461 377 461 Q353 461 338.5 456 Q324 451 316 444.5 Q308 438 305 431.5 Q302 425 302 421 Q300 407 324.5 395.5 Q349 384 382.5 375.5 Q416 367 449 361 Q482 355 497 352 Q533 345 563 332 Q593 319 613 299.5 Q633 280 641.5 252.5 Q650 225 645 188 Z " />
<glyph glyph-name="percent" unicode="&#x25;" horiz-adv-x="848" d="M278 585 Q308 585 332.5 574 Q357 563 373.5 543.5 Q390 524 398 497.5 Q406 471 401 441 Q397 411 382 384 Q367 357 344.5 337.5 Q322 318 294.5 306.5 Q267 295 237 295 Q207 295 182 306.5 Q157 318 139.5 337.5 Q122 357 114.5 384 Q107 411 111 441 Q116 471 131 497.5 Q146 524 168.5 543.5 Q191 563 219.5 574 Q248 585 278 585 Z M252 404 Q266 404 278 414.5 Q290 425 292 440 Q294 455 285 465 Q276 475 262 475 Q247 475 235 465 Q223 455 221 440 Q219 425 228 414.5 Q237 404 252 404 Z M694 290 Q724 290 748.5 279 Q773 268 790 248.5 Q807 229 814.5 202.5 Q822 176 818 146 Q814 116 799 89 Q784 62 761.5 42.5 Q739 23 711.5 11.5 Q684 0 654 0 Q624 0 599 11.5 Q574 23 556.5 42.5 Q539 62 531.5 89 Q524 116 528 146 Q532 176 547 202.5 Q562 229 584.5 248.5 Q607 268 635.5 279 Q664 290 694 290 Z M669 109 Q683 109 695 119.5 Q707 130 709 145 Q711 160 702 170 Q693 180 679 180 Q664 180 652 170 Q640 160 638 145 Q636 130 645 119.5 Q654 109 669 109 Z M564 548 Q573 563 585.5 574 Q598 585 614 585 L693 585 Q709 585 718.5 574.5 Q728 564 726 548 L364 37 Q354 22 342 11 Q330 0 314 0 L235 0 Q219 0 209.5 10.5 Q200 21 202 37 L564 548 Z " />
<glyph glyph-name="ampersand" unicode="&#x26;" horiz-adv-x="711" d="M228 139 Q226 125 244.5 118.5 Q263 112 288 112 Q330 112 369 129 L290 206 Q265 191 248 174.5 Q231 158 228 139 Z M408 431 Q412 458 401.5 466 Q391 474 373 474 Q367 474 359.5 473 Q352 472 345.5 468 Q339 464 333.5 455.5 Q328 447 326 432 Q324 416 328.5 401.5 Q333 387 348 367 Q373 382 389.5 398 Q406 414 408 431 Z M667 43 Q664 25 649.5 12.5 Q635 0 616 0 L530 0 Q520 0 507 4 Q494 8 489 14 L462 39 Q422 15 380 1 Q338 -13 296 -13 Q175 -13 116.5 25.5 Q58 64 71 156 Q74 179 87 198.5 Q100 218 119 235 Q138 252 162.5 267.5 Q187 283 213 297 Q187 335 176 368.5 Q165 402 170 437 Q173 461 185.5 489 Q198 517 223.5 541.5 Q249 566 289.5 582.5 Q330 599 391 599 Q451 599 488.5 584.5 Q526 570 545.5 545 Q565 520 569.5 488.5 Q574 457 569 422 Q566 398 553.5 377.5 Q541 357 522 339.5 Q503 322 480 307 Q457 292 431 278 Q442 267 455.5 254 Q469 241 483 226 Q489 234 494.5 244 Q500 254 504 262 Q509 274 521 282.5 Q533 291 547 291 L620 291 Q637 291 646.5 280.5 Q656 270 654 254 Q643 226 622 193.5 Q601 161 576 134 L667 43 Z " />
<glyph glyph-name="quotesingle" unicode="&#x27;" horiz-adv-x="255" d="M257 370 Q255 354 242 343.5 Q229 333 212 333 L135 333 Q118 333 109 343.5 Q100 354 102 370 L127 548 Q129 564 141.5 574.5 Q154 585 171 585 L248 585 Q265 585 274.5 574.5 Q284 564 282 548 L257 370 Z " />
<glyph glyph-name="parenleft" unicode="&#x28;" horiz-adv-x="355" d="M121 -147 Q94 -32 85.5 81.5 Q77 195 93 310 Q109 422 149 534 Q189 646 248 758 Q255 769 266 775.5 Q277 782 304 782 L366 782 Q386 782 398.5 769 Q411 756 408 736 Q354 630 316.5 523 Q279 416 264 310 Q249 201 255.5 93 Q262 -15 287 -124 Q284 -144 268 -157.5 Q252 -171 232 -171 L170 -171 Q143 -171 134 -164.5 Q125 -158 121 -147 Z " />
<glyph glyph-name="parenright" unicode="&#x29;" horiz-adv-x="355" d="M192 -147 Q185 -158 173.5 -164.5 Q162 -171 135 -171 L73 -171 Q53 -171 41 -157.5 Q29 -144 32 -124 Q87 -15 124.5 93 Q162 201 177 310 Q192 416 184.5 523 Q177 630 153 736 Q156 756 171.5 769 Q187 782 207 782 L269 782 Q296 782 305.5 775.5 Q315 769 319 758 Q346 646 355 534 Q364 422 348 310 Q332 195 291.5 81.5 Q251 -32 192 -147 Z " />
<glyph glyph-name="asterisk" unicode="&#x2a;" horiz-adv-x="562" d="M399 585 Q415 585 424.5 574.5 Q434 564 432 548 L407 443 L498 487 Q506 490 513 490 Q526 490 536 483 Q546 476 550 464 L566 407 Q568 398 566 389 Q564 377 557 366.5 Q550 356 538 351 L426 318 L482 232 Q487 221 486 212 Q485 203 479 194.5 Q473 186 464 180 L399 141 Q388 133 376 133 Q358 133 348 149 L314 235 L254 149 Q241 133 222 133 Q212 133 201 141 L148 180 Q132 193 134 212 Q135 222 144 232 L224 318 L122 351 Q111 356 106.5 366.5 Q102 377 104 389 Q106 398 110 407 L142 464 Q149 476 160.5 483 Q172 490 185 490 Q193 490 200 487 L279 443 L284 548 Q286 564 298.5 574.5 Q311 585 328 585 L399 585 Z " />
<glyph glyph-name="plus" unicode="&#x2b;" horiz-adv-x="494" d="M223 358 Q225 373 237 382.5 Q249 392 265 392 L339 392 Q355 392 364 382 Q373 372 371 357 L358 268 L441 268 Q457 268 467 255.5 Q477 243 475 226 L466 162 Q464 145 450 132.5 Q436 120 420 120 L337 120 L325 35 Q323 20 311.5 10 Q300 0 284 0 L210 0 Q194 0 184.5 10 Q175 20 177 35 L189 120 L106 120 Q90 120 80 132.5 Q70 145 72 162 L81 226 Q83 243 97 255.5 Q111 268 127 268 L210 268 L223 358 Z " />
<glyph glyph-name="comma" unicode="&#x2c;" horiz-adv-x="304" d="M209 -50 Q204 -70 189.5 -83 Q175 -96 155 -96 L82 -96 Q62 -96 51 -83 Q40 -70 42 -50 L92 106 Q99 126 113 139 Q127 152 147 152 L229 152 Q249 152 260 139 Q271 126 268 106 L209 -50 Z " />
<glyph glyph-name="hyphen" unicode="&#x2d;" horiz-adv-x="494" d="M107 120 Q90 120 80 133 Q70 146 72 163 L81 225 Q83 242 97 255 Q111 268 128 268 L440 268 Q457 268 467 255 Q477 242 475 225 L466 163 Q464 146 450 133 Q436 120 419 120 L107 120 Z " />
<glyph glyph-name="period" unicode="&#x2e;" horiz-adv-x="278" d="M234 46 Q231 26 215.5 13 Q200 0 180 0 L98 0 Q78 0 65.5 13 Q53 26 56 46 L68 129 Q70 149 86 162 Q102 175 122 175 L204 175 Q224 175 236 162 Q248 149 246 129 L234 46 Z " />
<glyph glyph-name="slash" unicode="&#x2f;" horiz-adv-x="486" d="M153 -128 Q145 -145 132.5 -158 Q120 -171 101 -171 L20 -171 Q2 -171 -9 -158.5 Q-20 -146 -17 -128 L418 739 Q426 756 438 769 Q450 782 469 782 L550 782 Q569 782 580.5 769.5 Q592 757 589 739 L153 -128 Z " />
<glyph glyph-name="zero" unicode="0" horiz-adv-x="624" d="M376 461 Q349 461 329 447 Q309 433 295 409 Q281 385 272.5 353.5 Q264 322 259 287 Q255 255 255 225.5 Q255 196 262.5 173.5 Q270 151 286 138 Q302 125 329 125 Q356 125 376 138 Q396 151 410 173.5 Q424 196 432.5 225.5 Q441 255 445 287 Q450 322 450 353.5 Q450 385 442.5 409 Q435 433 419 447 Q403 461 376 461 Z M310 -13 Q226 -13 175 16.5 Q124 46 97.5 91 Q71 136 65 188.5 Q59 241 65 287 Q72 336 93 391 Q114 446 153.5 492 Q193 538 252.5 568.5 Q312 599 396 599 Q480 599 531 568.5 Q582 538 608.5 492 Q635 446 640.5 391 Q646 336 639 287 Q633 241 612 188.5 Q591 136 552 91 Q513 46 453.5 16.5 Q394 -13 310 -13 Z " />
<glyph glyph-name="one" unicode="1" horiz-adv-x="433" d="M422 585 Q442 585 454 572 Q466 559 463 539 L394 46 Q391 26 375.5 13 Q360 0 340 0 L242 0 Q222 0 209.5 13 Q197 26 200 46 L252 418 Q215 394 176.5 380 Q138 366 101 359 Q84 359 74 372 Q64 385 66 402 L76 474 Q78 491 90.5 501.5 Q103 512 123 517 Q155 524 192.5 540 Q230 556 265 578 Q273 585 287 585 L422 585 Z " />
<glyph glyph-name="two" unicode="2" horiz-adv-x="561" d="M271 424 Q265 410 251 400 Q237 390 221 390 L129 390 Q110 390 99 402.5 Q88 415 90 433 Q115 514 180.5 556.5 Q246 599 346 599 Q420 599 469.5 584.5 Q519 570 547 544.5 Q575 519 584.5 484.5 Q594 450 588 410 Q582 368 558.5 335.5 Q535 303 495.5 273.5 Q456 244 401.5 215 Q347 186 279 151 L502 151 Q519 151 529 138 Q539 125 537 108 L528 43 Q525 26 511.5 13 Q498 0 481 0 L80 0 Q63 0 52.5 13 Q42 26 45 43 Q50 79 52.5 99 Q55 119 57 130 Q59 142 59 145 Q64 180 88.5 206.5 Q113 233 148 254.5 Q183 276 222.5 294 Q262 312 296.5 329.5 Q331 347 355 365.5 Q379 384 382 406 Q385 431 373.5 446 Q362 461 335 461 Q309 461 294 450.5 Q279 440 271 424 Z " />
<glyph glyph-name="three" unicode="3" horiz-adv-x="547" d="M260 230 Q246 230 237.5 241 Q229 252 231 266 L238 319 Q240 333 251.5 344 Q263 355 277 355 L316 355 Q342 357 356 372 Q370 387 373 411 Q381 461 326 461 Q303 461 289 455.5 Q275 450 267 440 Q256 420 246 412.5 Q236 405 218 405 L119 405 Q101 405 90 412.5 Q79 420 81 441 Q104 526 169 562.5 Q234 599 337 599 Q411 599 460.5 586.5 Q510 574 538.5 550.5 Q567 527 576.5 493 Q586 459 580 416 Q577 398 569 377.5 Q561 357 545 339.5 Q529 322 505 309 Q481 296 447 293 Q475 287 495 274 Q515 261 527 244 Q539 227 543.5 208 Q548 189 546 171 Q540 128 521 94 Q502 60 467 36.5 Q432 13 378.5 0.5 Q325 -12 251 -12 Q148 -12 93 24.5 Q38 61 40 146 Q43 167 56.5 174.5 Q70 182 88 182 L187 182 Q205 182 212.5 174 Q220 166 226 146 Q231 136 243.5 130.5 Q256 125 279 125 Q332 125 340 175 Q343 198 333.5 213 Q324 228 299 230 L260 230 Z " />
<glyph glyph-name="four" unicode="4" horiz-adv-x="582" d="M342 266 L364 425 L229 266 L342 266 Z M298 566 Q315 585 340 585 L533 585 Q553 585 565 572 Q577 559 574 539 L536 266 L578 266 Q595 266 605 253 Q615 240 613 223 L604 158 Q601 141 587.5 128 Q574 115 557 115 L515 115 L505 46 Q502 26 486.5 13 Q471 0 451 0 L353 0 Q333 0 320.5 13 Q308 26 311 46 L321 115 L67 115 Q50 115 39.5 128 Q29 141 32 158 L46 259 Q47 273 59 285 L298 566 Z " />
<glyph glyph-name="five" unicode="5" horiz-adv-x="566" d="M116 219 Q99 219 89 232 Q79 245 81 262 L121 542 Q123 559 137 572 Q151 585 168 585 L561 585 Q578 585 588 572 Q598 559 596 542 L587 477 Q584 460 570 447 Q556 434 539 434 L294 434 L283 353 Q294 364 309.5 371 Q325 378 339.5 382 Q354 386 366.5 388 Q379 390 384 390 Q448 390 488 372.5 Q528 355 549.5 325.5 Q571 296 576.5 258.5 Q582 221 576 182 Q570 142 550.5 106 Q531 70 495.5 44 Q460 18 408 2.5 Q356 -13 286 -13 Q235 -13 197 -2 Q159 9 132.5 28 Q106 47 91.5 72.5 Q77 98 72 126 Q75 144 89.5 156.5 Q104 169 123 169 L216 169 Q231 169 242 161.5 Q253 154 256 141 Q260 122 272 117 Q284 112 303 112 Q320 112 335 114 Q350 116 361 123.5 Q372 131 380 144.5 Q388 158 391 182 Q396 220 382.5 232 Q369 244 334 244 L328 244 Q310 244 295 240.5 Q280 237 270 228 Q263 219 250 219 L116 219 Z " />
<glyph glyph-name="six" unicode="6" horiz-adv-x="561" d="M586 449 Q583 429 567 416 Q551 403 531 403 L442 403 Q426 403 416.5 411.5 Q407 420 402 433 Q399 446 386.5 453.5 Q374 461 347 461 Q320 461 304.5 446 Q289 431 286 406 L277 344 Q288 355 302 361 Q316 367 329 370 Q342 373 353 374 Q364 375 369 375 Q433 375 473 358.5 Q513 342 534 314.5 Q555 287 560.5 251 Q566 215 560 176 Q554 136 536.5 101 Q519 66 486 41 Q453 16 403.5 1.5 Q354 -13 284 -13 Q224 -13 178 -1 Q132 11 103.5 43 Q75 75 65.5 131 Q56 187 68 276 L72 301 Q83 382 103 439 Q123 496 156.5 531.5 Q190 567 241.5 583 Q293 599 367 599 Q467 599 524.5 563.5 Q582 528 586 449 Z M312 235 Q290 235 268.5 221.5 Q247 208 241 169 Q238 151 243 139.5 Q248 128 257 122 Q266 116 278 114 Q290 112 302 112 Q331 112 350.5 123.5 Q370 135 375 174 Q380 206 366.5 220.5 Q353 235 318 235 L312 235 Z " />
<glyph glyph-name="seven" unicode="7" horiz-adv-x="505" d="M337 434 L111 434 Q94 434 84 447 Q74 460 77 477 L86 542 Q88 559 102 572 Q116 585 133 585 L526 585 Q543 585 553 572 Q563 559 561 542 L546 439 Q545 432 542 425.5 Q539 419 535 413 L291 34 Q276 17 263.5 8.5 Q251 0 220 0 L134 0 Q114 0 101.5 13 Q89 26 92 46 L337 434 Z " />
<glyph glyph-name="eight" unicode="8" horiz-adv-x="556" d="M293 112 Q318 112 338 123.5 Q358 135 365 172 Q369 209 352 220.5 Q335 232 310 232 Q285 232 265.5 220.5 Q246 209 239 172 Q235 135 251.5 123.5 Q268 112 293 112 Z M327 354 Q349 355 370.5 367 Q392 379 399 414 Q403 451 386 462.5 Q369 474 344 474 Q319 474 299.5 462.5 Q280 451 273 414 Q269 380 287 367.5 Q305 355 327 354 Z M276 -13 Q155 -13 98.5 36 Q42 85 54 172 Q56 189 63.5 207 Q71 225 83 241.5 Q95 258 112 271.5 Q129 285 150 293 Q111 318 97 349 Q83 380 88 414 Q101 507 171 553 Q241 599 362 599 Q483 599 540 553 Q597 507 584 414 Q579 380 556 349 Q533 318 488 293 Q507 285 520 271.5 Q533 258 540.5 241.5 Q548 225 550 207 Q552 189 550 172 Q538 85 467.5 36 Q397 -13 276 -13 Z " />
<glyph glyph-name="nine" unicode="9" horiz-adv-x="561" d="M331 351 Q353 351 374.5 364.5 Q396 378 401 417 Q404 435 399.5 446.5 Q395 458 386 464 Q377 470 364.5 472 Q352 474 340 474 Q311 474 292 462.5 Q273 451 267 412 Q263 380 276.5 365.5 Q290 351 325 351 L331 351 Z M239 153 Q244 140 256 132.5 Q268 125 295 125 Q322 125 337.5 140 Q353 155 357 180 L366 242 Q355 232 341 225.5 Q327 219 313.5 216 Q300 213 289 212 Q278 211 273 211 Q209 211 169 227.5 Q129 244 108 271.5 Q87 299 81.5 335 Q76 371 82 410 Q88 451 105.5 485.5 Q123 520 156 545 Q189 570 239 584.5 Q289 599 359 599 Q419 599 465 587 Q511 575 539.5 543 Q568 511 577 455 Q586 399 574 310 L571 285 Q559 204 539.5 147 Q520 90 486 54.5 Q452 19 401 3 Q350 -13 276 -13 Q176 -13 118 22.5 Q60 58 57 137 Q59 157 75 170 Q91 183 111 183 L200 183 Q216 183 225 174.5 Q234 166 239 153 Z " />
<glyph glyph-name="colon" unicode="&#x3a;" horiz-adv-x="278" d="M234 46 Q231 26 215.5 13 Q200 0 180 0 L98 0 Q78 0 65.5 13 Q53 26 56 46 L68 129 Q70 149 86 162 Q102 175 122 175 L204 175 Q224 175 236 162 Q248 149 246 129 L234 46 Z M269 296 Q266 276 250.5 263 Q235 250 215 250 L133 250 Q113 250 100.5 263 Q88 276 91 296 L103 379 Q105 399 121 412 Q137 425 157 425 L239 425 Q259 425 271 412 Q283 399 281 379 L269 296 Z " />
<glyph glyph-name="semicolon" unicode="&#x3b;" horiz-adv-x="314" d="M209 -50 Q204 -70 189.5 -83 Q175 -96 155 -96 L82 -96 Q62 -96 51 -83 Q40 -70 42 -50 L92 106 Q99 126 113 139 Q127 152 147 152 L229 152 Q249 152 260 139 Q271 126 268 106 L209 -50 Z M305 296 Q302 276 286.5 263 Q271 250 251 250 L169 250 Q149 250 136.5 263 Q124 276 127 296 L139 379 Q141 399 157 412 Q173 425 193 425 L275 425 Q295 425 307 412 Q319 399 317 379 L305 296 Z " />
<glyph glyph-name="less" unicode="&#x3c;" horiz-adv-x="424" d="M254 232 L359 186 Q375 179 385.5 170 Q396 161 394 144 L383 65 Q380 47 366 33.5 Q352 20 335 20 L99 155 Q88 162 81.5 173 Q75 184 77 198 L87 266 Q89 280 98.5 291 Q108 302 121 309 L395 444 Q412 444 422 430.5 Q432 417 430 399 L418 317 Q416 300 402.5 291 Q389 282 371 275 L254 232 Z " />
<glyph glyph-name="equal" unicode="&#x3d;" horiz-adv-x="413" d="M91 31 Q76 31 66.5 42.5 Q57 54 59 70 L67 127 Q69 143 82 154.5 Q95 166 110 166 L349 166 Q364 166 373 154.5 Q382 143 380 127 L372 70 Q370 54 357.5 42.5 Q345 31 330 31 L91 31 Z M117 220 Q102 220 93 231.5 Q84 243 86 259 L94 316 Q96 332 108.5 343.5 Q121 355 136 355 L375 355 Q390 355 399.5 343.5 Q409 332 407 316 L399 259 Q397 243 384 231.5 Q371 220 356 220 L117 220 Z " />
<glyph glyph-name="greater" unicode="&#x3e;" horiz-adv-x="424" d="M129 275 Q112 282 102 291 Q92 300 94 317 L106 399 Q108 417 122 430.5 Q136 444 153 444 L389 309 Q400 302 406.5 291 Q413 280 411 266 L401 198 Q399 184 390 173 Q381 162 367 155 L93 20 Q76 20 66 33.5 Q56 47 59 65 L70 144 Q72 161 85 170 Q98 179 117 186 L234 232 L129 275 Z " />
<glyph glyph-name="question" unicode="&#x3f;" horiz-adv-x="601" d="M179 76 Q182 96 198 109 Q214 122 234 122 L332 122 Q352 122 364 109 Q376 96 373 76 L367 33 Q364 13 348.5 0 Q333 -13 313 -13 L215 -13 Q195 -13 182.5 0 Q170 13 173 33 L179 76 Z M290 422 Q283 409 270 399.5 Q257 390 242 390 L149 390 Q130 390 119 402.5 Q108 415 110 433 Q135 514 200.5 556.5 Q266 599 366 599 Q440 599 489.5 584.5 Q539 570 567 544.5 Q595 519 604.5 484.5 Q614 450 608 410 Q603 376 586.5 348 Q570 320 542 295 Q514 270 476 246.5 Q438 223 390 198 Q387 175 371 161.5 Q355 148 335 148 L237 148 Q217 148 205 161 Q193 174 196 194 L203 247 Q205 260 212.5 270 Q220 280 231 286 Q244 292 271 304 Q298 316 326 332.5 Q354 349 376.5 368 Q399 387 402 406 Q405 431 393.5 446 Q382 461 355 461 Q327 461 312.5 450 Q298 439 290 422 Z " />
<glyph glyph-name="at" unicode="&#x40;" horiz-adv-x="821" d="M616 189 Q619 209 603.5 223 Q588 237 568 237 Q548 237 529 223 Q510 209 507 186 L504 166 Q501 145 516 131 Q531 117 551 117 Q574 117 592 131 Q610 145 613 166 L616 189 Z M316 -227 Q232 -227 178.5 -200 Q125 -173 96 -130.5 Q67 -88 59.5 -36 Q52 16 59 65 L93 307 Q100 356 126 408 Q152 460 197.5 502.5 Q243 545 307.5 572 Q372 599 456 599 L534 599 Q618 599 675 571.5 Q732 544 765 501.5 Q798 459 809.5 407 Q821 355 814 306 L777 46 Q774 26 758.5 13 Q743 0 723 0 L638 0 Q618 0 606 14.5 Q594 29 596 49 Q568 18 535 2 Q502 -14 470 -14 Q392 -14 355 37.5 Q318 89 331 180 Q344 271 394.5 320 Q445 369 523 369 Q555 369 581 356 Q607 343 632 305 Q637 340 628.5 366.5 Q620 393 603 411 Q586 429 562.5 438 Q539 447 513 447 L460 447 Q435 447 404.5 438 Q374 429 347 411.5 Q320 394 300 368 Q280 342 275 307 L241 65 Q231 -5 258.5 -40 Q286 -75 337 -75 L384 -75 Q401 -75 411 -88 Q421 -101 419 -118 L410 -184 Q407 -201 393.5 -214 Q380 -227 363 -227 L316 -227 Z " />
<glyph glyph-name="A" unicode="A" horiz-adv-x="607" d="M469 585 Q489 585 500.5 571.5 Q512 558 515 539 L608 46 Q605 26 589.5 13 Q574 0 554 0 L450 0 Q430 0 420 13.5 Q410 27 408 46 L399 125 L243 125 L211 46 Q203 27 190 13.5 Q177 0 157 0 L53 0 Q33 0 20.5 13 Q8 26 11 46 L240 539 Q249 558 264.5 571.5 Q280 585 300 585 L469 585 Z M293 250 L385 250 L363 426 L293 250 Z " />
<glyph glyph-name="B" unicode="B" horiz-adv-x="584" d="M287 347 L346 347 Q373 347 391.5 361 Q410 375 413 396 Q416 417 401.5 432 Q387 447 360 447 L301 447 L287 347 Z M343 139 Q370 139 388.5 151.5 Q407 164 410 185 Q412 206 397.5 217 Q383 228 356 228 L271 228 L258 139 L343 139 Z M380 585 Q450 585 494.5 569 Q539 553 564 527 Q589 501 596.5 468.5 Q604 436 599 402 Q595 375 576.5 347.5 Q558 320 515 305 Q541 299 558 286 Q575 273 584 256.5 Q593 240 595 221.5 Q597 203 595 186 Q590 152 573.5 119 Q557 86 524.5 59.5 Q492 33 443 16.5 Q394 0 324 0 L93 0 Q73 0 60.5 13 Q48 26 51 46 L120 539 Q123 559 139 572 Q155 585 175 585 L380 585 Z " />
<glyph glyph-name="C" unicode="C" horiz-adv-x="630" d="M628 166 Q598 85 519 36 Q440 -13 321 -13 Q237 -13 184 16.5 Q131 46 102.5 91 Q74 136 66.5 188.5 Q59 241 65 287 Q72 336 94.5 391 Q117 446 158.5 492 Q200 538 261.5 568.5 Q323 599 407 599 Q526 599 591 547.5 Q656 496 663 415 Q660 392 646 386 Q632 380 613 380 L493 380 Q474 380 467 388 Q460 396 453 417 Q447 436 427 448.5 Q407 461 387 461 Q362 461 340.5 447 Q319 433 302.5 409 Q286 385 275 353.5 Q264 322 259 287 Q255 255 257.5 225.5 Q260 196 269.5 173.5 Q279 151 297 138 Q315 125 340 125 Q360 125 381.5 134.5 Q403 144 418 164 Q430 185 439 193 Q448 201 467 201 L587 201 Q606 201 618.5 195 Q631 189 628 166 Z " />
<glyph glyph-name="D" unicode="D" horiz-adv-x="604" d="M299 434 L260 151 L302 151 Q353 151 385 189.5 Q417 228 426 293 Q446 434 341 434 L299 434 Z M363 585 Q447 585 500 558 Q553 531 582 488.5 Q611 446 619 394 Q627 342 620 293 Q613 247 591 195.5 Q569 144 528 100.5 Q487 57 426 28.5 Q365 0 281 0 L93 0 Q73 0 60.5 13 Q48 26 51 46 L120 539 Q123 559 139 572 Q155 585 175 585 L363 585 Z " />
<glyph glyph-name="E" unicode="E" horiz-adv-x="525" d="M444 359 Q459 359 468 347.5 Q477 336 475 320 L467 262 Q465 246 452.5 234.5 Q440 223 425 223 L270 223 L260 151 L475 151 Q492 151 502 138 Q512 125 510 108 L501 43 Q498 26 484.5 13 Q471 0 454 0 L93 0 Q73 0 60.5 13 Q48 26 51 46 L120 539 Q123 559 139 572 Q155 585 175 585 L536 585 Q553 585 563 572 Q573 559 571 542 L562 477 Q559 460 545 447 Q531 434 514 434 L299 434 L289 359 L444 359 Z " />
<glyph glyph-name="F" unicode="F" horiz-adv-x="515" d="M93 0 Q73 0 60.5 13 Q48 26 51 46 L120 539 Q123 559 139 572 Q155 585 175 585 L536 585 Q553 585 563 572 Q573 559 571 542 L562 477 Q559 460 545 447 Q531 434 514 434 L299 434 L286 340 L470 340 Q485 340 494.5 328.5 Q504 317 502 301 L492 228 Q490 212 477 200.5 Q464 189 449 189 L265 189 L245 46 Q242 26 226.5 13 Q211 0 191 0 L93 0 Z " />
<glyph glyph-name="G" unicode="G" horiz-adv-x="651" d="M618 325 Q635 325 644 314 Q653 303 651 286 L616 39 Q614 22 600.5 11 Q587 0 570 0 L531 0 Q514 0 503.5 11 Q493 22 495 39 L496 54 Q464 17 418.5 2 Q373 -13 323 -13 Q239 -13 186 17 Q133 47 104 92.5 Q75 138 67 192 Q59 246 66 294 Q72 340 95 393.5 Q118 447 159 492.5 Q200 538 261.5 568.5 Q323 599 407 599 Q526 599 591 547.5 Q656 496 663 415 Q660 392 646 386 Q632 380 613 380 L493 380 Q474 380 467 388 Q460 396 453 417 Q447 436 427 448.5 Q407 461 387 461 Q362 461 340.5 447 Q319 433 302.5 410 Q286 387 275.5 356.5 Q265 326 260 294 Q255 261 258.5 230.5 Q262 200 273 176.5 Q284 153 302.5 139 Q321 125 347 125 Q405 125 437.5 146.5 Q470 168 489 207 L429 207 Q413 207 404 218 Q395 229 397 246 L403 286 Q405 303 417 314 Q429 325 445 325 L618 325 Z " />
<glyph glyph-name="H" unicode="H" horiz-adv-x="619" d="M430 358 L455 539 Q458 559 474 572 Q490 585 510 585 L608 585 Q628 585 640 572 Q652 559 649 539 L580 46 Q577 26 561.5 13 Q546 0 526 0 L428 0 Q408 0 395.5 13 Q383 26 386 46 L408 206 L267 206 L245 46 Q242 26 226.5 13 Q211 0 191 0 L93 0 Q73 0 60.5 13 Q48 26 51 46 L120 539 Q123 559 139 572 Q155 585 175 585 L273 585 Q293 585 305 572 Q317 559 314 539 L289 358 L430 358 Z " />
<glyph glyph-name="I" unicode="I" horiz-adv-x="284" d="M245 46 Q242 26 226.5 13 Q211 0 191 0 L93 0 Q73 0 60.5 13 Q48 26 51 46 L120 539 Q123 559 139 572 Q155 585 175 585 L273 585 Q293 585 305 572 Q317 559 314 539 L245 46 Z " />
<glyph glyph-name="J" unicode="J" horiz-adv-x="541" d="M220 182 Q223 150 236 137.5 Q249 125 269 125 Q294 125 309.5 142.5 Q325 160 333 214 L378 539 Q381 559 397 572 Q413 585 433 585 L530 585 Q550 585 562 572 Q574 559 571 539 L526 214 Q520 174 502.5 133 Q485 92 452 60 Q419 28 369.5 7.5 Q320 -13 250 -13 Q188 -13 146.5 3.5 Q105 20 79.5 47.5 Q54 75 44 110 Q34 145 35 182 Q38 202 54 215 Q70 228 90 228 L179 228 Q199 228 208.5 215 Q218 202 220 182 Z " />
<glyph glyph-name="K" unicode="K" horiz-adv-x="630" d="M346 241 L261 163 L245 46 Q242 26 226.5 13 Q211 0 191 0 L93 0 Q73 0 60.5 13 Q48 26 51 46 L120 539 Q123 559 139 572 Q155 585 175 585 L273 585 Q293 585 305 572 Q317 559 314 539 L294 393 L480 565 Q500 585 525 585 L629 585 Q649 585 661 572 Q673 559 670 539 L499 381 L631 46 Q628 26 612.5 13 Q597 0 577 0 L476 0 Q451 0 436 20 L346 241 Z " />
<glyph glyph-name="L" unicode="L" horiz-adv-x="515" d="M475 151 Q492 151 502 138 Q512 125 510 108 L501 43 Q498 26 484.5 13 Q471 0 454 0 L93 0 Q73 0 60.5 13 Q48 26 51 46 L120 539 Q123 559 139 572 Q155 585 175 585 L273 585 Q293 585 305 572 Q317 559 314 539 L260 151 L475 151 Z " />
<glyph glyph-name="M" unicode="M" horiz-adv-x="834" d="M368 0 Q348 0 338 13.5 Q328 27 326 46 L280 350 L219 46 Q211 27 198 13.5 Q185 0 165 0 L83 0 Q63 0 50.5 13 Q38 26 41 46 L141 539 Q144 559 160 572 Q176 585 196 585 L372 585 Q392 585 402 573.5 Q412 562 415 539 L452 256 L569 539 Q587 585 626 585 L802 585 Q822 585 834 572 Q846 559 843 539 L805 46 Q802 26 786.5 13 Q771 0 751 0 L669 0 Q649 0 639 13.5 Q629 27 627 46 L652 350 L520 46 Q512 27 499 13.5 Q486 0 466 0 L368 0 Z " />
<glyph glyph-name="N" unicode="N" horiz-adv-x="662" d="M465 301 L498 539 Q501 559 517 572 Q533 585 553 585 L651 585 Q671 585 683 572 Q695 559 692 539 L623 46 Q620 26 604.5 13 Q589 0 569 0 L460 0 Q425 0 415 29 L278 281 L245 46 Q242 26 226.5 13 Q211 0 191 0 L93 0 Q73 0 60.5 13 Q48 26 51 46 L120 539 Q123 559 139 572 Q155 585 175 585 L284 585 Q319 585 330 556 L465 301 Z " />
<glyph glyph-name="O" unicode="O" horiz-adv-x="658" d="M346 125 Q373 125 395.5 138 Q418 151 435 173.5 Q452 196 463.5 225.5 Q475 255 479 287 Q484 322 481.5 353.5 Q479 385 468.5 409 Q458 433 439 447 Q420 461 393 461 Q366 461 343.5 447 Q321 433 303.5 409 Q286 385 275 353.5 Q264 322 259 287 Q255 255 257.5 225.5 Q260 196 270.5 173.5 Q281 151 300 138 Q319 125 346 125 Z M327 -14 Q243 -14 189 15.5 Q135 45 105.5 90 Q76 135 67.5 188 Q59 241 65 287 Q72 336 95.5 391 Q119 446 161.5 492 Q204 538 266.5 568.5 Q329 599 413 599 Q497 599 550.5 568.5 Q604 538 633.5 492 Q663 446 671.5 391 Q680 336 673 287 Q667 241 643.5 188 Q620 135 577.5 90 Q535 45 473 15.5 Q411 -14 327 -14 Z " />
<glyph glyph-name="P" unicode="P" horiz-adv-x="574" d="M282 309 L353 309 Q380 309 400.5 325 Q421 341 426 371 Q430 401 413.5 417.5 Q397 434 370 434 L299 434 L282 309 Z M396 585 Q466 585 510 564.5 Q554 544 578 512.5 Q602 481 609 443.5 Q616 406 611 372 Q606 338 588.5 300.5 Q571 263 538 231.5 Q505 200 455.5 179 Q406 158 336 158 L261 158 L245 46 Q242 26 226.5 13 Q211 0 191 0 L93 0 Q73 0 60.5 13 Q48 26 51 46 L120 539 Q123 559 139 572 Q155 585 175 585 L396 585 Z " />
<glyph glyph-name="Q" unicode="Q" horiz-adv-x="669" d="M639 125 Q654 125 663.5 113.5 Q673 102 671 86 L664 39 Q662 23 649.5 11.5 Q637 0 622 0 L440 0 Q414 -8 386.5 -11 Q359 -14 327 -14 Q243 -14 189 15.5 Q135 45 105.5 90 Q76 135 67.5 188 Q59 241 65 287 Q72 336 95.5 391 Q119 446 161.5 492 Q204 538 266.5 568.5 Q329 599 413 599 Q497 599 550.5 568.5 Q604 538 633.5 492 Q663 446 671.5 391 Q680 336 673 287 Q668 249 651.5 207 Q635 165 606 125 L639 125 Z M346 125 Q373 125 395.5 138 Q418 151 435 173.5 Q452 196 463.5 225.5 Q475 255 479 287 Q484 322 481.5 353.5 Q479 385 468.5 409 Q458 433 439 447 Q420 461 393 461 Q366 461 343.5 447 Q321 433 303.5 409 Q286 385 275 353.5 Q264 322 259 287 Q255 255 257.5 225.5 Q260 196 270.5 173.5 Q281 151 300 138 Q319 125 346 125 Z " />
<glyph glyph-name="R" unicode="R" horiz-adv-x="588" d="M620 372 Q613 328 585 278.5 Q557 229 501 196 L551 46 Q548 26 532.5 13 Q517 0 497 0 L406 0 Q386 0 374.5 13.5 Q363 27 358 46 L320 158 L261 158 L245 47 Q242 27 226.5 13.5 Q211 0 191 0 L93 0 Q73 0 60.5 13 Q48 26 51 46 L120 539 Q123 559 139 572 Q155 585 175 585 L405 585 Q475 585 519 564.5 Q563 544 587 512.5 Q611 481 618 443.5 Q625 406 620 372 Z M362 309 Q389 309 409.5 325 Q430 341 435 371 Q439 401 422.5 417.5 Q406 434 379 434 L299 434 L282 309 L362 309 Z " />
<glyph glyph-name="S" unicode="S" horiz-adv-x="629" d="M56 138 Q60 167 78.5 175 Q97 183 121 183 L219 183 Q252 183 264 155 Q272 137 293.5 131 Q315 125 353 125 Q377 125 391.5 127.5 Q406 130 413.5 135.5 Q421 141 424.5 148.5 Q428 156 429 165 Q431 176 420.5 183 Q410 190 392.5 195 Q375 200 351.5 204 Q328 208 302 213 Q258 221 216.5 234 Q175 247 143.5 267 Q112 287 95 317 Q78 347 84 390 Q90 433 110 471 Q130 509 166.5 537.5 Q203 566 257.5 582.5 Q312 599 386 599 Q435 599 479 591 Q523 583 557.5 565 Q592 547 614 519 Q636 491 640 452 Q636 423 617.5 415 Q599 407 575 407 L471 407 Q438 407 426 435 Q418 446 400.5 453.5 Q383 461 357 461 Q333 461 318.5 456 Q304 451 296 444.5 Q288 438 285 431.5 Q282 425 282 421 Q280 407 304.5 395.5 Q329 384 362.5 375.5 Q396 367 429 361 Q462 355 477 352 Q513 345 543 332 Q573 319 593 299.5 Q613 280 621.5 252.5 Q630 225 625 188 Q619 145 598 108.5 Q577 72 539 45 Q501 18 445.5 2.5 Q390 -13 315 -13 Q266 -13 221.5 -4.5 Q177 4 142 22 Q107 40 84 68.5 Q61 97 56 138 Z " />
<glyph glyph-name="T" unicode="T" horiz-adv-x="527" d="M558 585 Q575 585 585 572 Q595 559 593 542 L584 477 Q581 460 567 447 Q553 434 536 434 L420 434 L366 46 Q363 26 347.5 13 Q332 0 312 0 L215 0 Q195 0 182.5 13 Q170 26 173 46 L227 434 L111 434 Q94 434 84 447 Q74 460 77 477 L86 542 Q88 559 102 572 Q116 585 133 585 L558 585 Z " />
<glyph glyph-name="U" unicode="U" horiz-adv-x="659" d="M115 539 Q118 559 134 572 Q150 585 170 585 L268 585 Q288 585 300 572 Q312 559 309 539 L270 261 Q261 196 276 160.5 Q291 125 346 125 Q401 125 426.5 160.5 Q452 196 461 261 L500 539 Q503 559 519 572 Q535 585 555 585 L653 585 Q673 585 685 572 Q697 559 694 539 L655 261 Q649 215 628.5 166 Q608 117 569 77 Q530 37 470.5 11.5 Q411 -14 327 -14 Q243 -14 191 11.5 Q139 37 111 77 Q83 117 76.5 166 Q70 215 76 261 L115 539 Z " />
<glyph glyph-name="V" unicode="V" horiz-adv-x="607" d="M218 0 Q198 0 186 13.5 Q174 27 171 46 L80 539 Q83 559 99 572 Q115 585 135 585 L239 585 Q259 585 268.5 571.5 Q278 558 280 539 L326 159 L477 539 Q485 558 498.5 571.5 Q512 585 532 585 L636 585 Q656 585 668 572 Q680 559 677 539 L446 46 Q437 27 422 13.5 Q407 0 387 0 L218 0 Z " />
<glyph glyph-name="W" unicode="W" horiz-adv-x="792" d="M521 585 Q541 585 550.5 571.5 Q560 558 562 539 L598 246 L686 539 Q694 558 707.5 571.5 Q721 585 741 585 L821 585 Q841 585 853 572 Q865 559 862 539 L692 46 Q689 26 673.5 13 Q658 0 638 0 L518 0 Q498 0 488 11.5 Q478 23 474 46 L439 306 L330 46 Q320 23 307 11.5 Q294 0 274 0 L154 0 Q134 0 121.5 13 Q109 26 112 46 L80 539 Q83 559 99 572 Q115 585 135 585 L215 585 Q235 585 244.5 571.5 Q254 558 256 539 L262 246 L380 539 Q388 558 401.5 571.5 Q415 585 435 585 L521 585 Z " />
<glyph glyph-name="X" unicode="X" horiz-adv-x="602" d="M206 24 Q197 14 186.5 7 Q176 0 149 0 L63 0 Q43 0 30.5 13 Q18 26 21 46 L242 294 L90 539 Q93 559 109 572 Q125 585 145 585 L231 585 Q258 585 266.5 578 Q275 571 281 561 L362 440 L477 561 Q486 571 497 578 Q508 585 535 585 L621 585 Q641 585 653 572 Q665 559 662 539 L442 294 L593 46 Q590 26 574.5 13 Q559 0 539 0 L453 0 Q426 0 417 7 Q408 14 402 24 L321 147 L206 24 Z " />
<glyph glyph-name="Y" unicode="Y" horiz-adv-x="612" d="M409 46 Q406 26 390.5 13 Q375 0 355 0 L257 0 Q237 0 224.5 13 Q212 26 215 46 L235 188 L85 539 Q88 559 104 572 Q120 585 140 585 L239 585 Q259 585 268.5 571 Q278 557 284 539 L355 350 L478 539 Q490 557 503.5 571 Q517 585 537 585 L636 585 Q656 585 668 572 Q680 559 677 539 L429 189 L409 46 Z " />
<glyph glyph-name="Z" unicode="Z" horiz-adv-x="508" d="M458 151 Q475 151 485 138 Q495 125 493 108 L484 43 Q481 26 467.5 13 Q454 0 437 0 L71 0 Q54 0 43.5 13 Q33 26 36 43 L45 113 Q48 134 64 150 L299 434 L131 434 Q114 434 104 447 Q94 460 97 477 L106 542 Q108 559 122 572 Q136 585 153 585 L519 585 Q536 585 546 572 Q556 559 554 542 L544 472 Q541 453 526 436 L291 151 L458 151 Z " />
<glyph glyph-name="bracketleft" unicode="&#x5b;" horiz-adv-x="403" d="M153 736 Q156 756 171.5 769 Q187 782 207 782 L421 782 Q438 782 448.5 769 Q459 756 456 739 L448 679 Q446 662 432 649 Q418 636 401 636 L311 636 L218 -25 L308 -25 Q325 -25 335 -38 Q345 -51 343 -68 L335 -128 Q332 -145 318 -158 Q304 -171 287 -171 L73 -171 Q53 -171 41 -158 Q29 -145 32 -125 L153 736 Z " />
<glyph glyph-name="backslash" unicode="&#x5c;" horiz-adv-x="487" d="M469 -125 Q466 -145 450 -158 Q434 -171 414 -171 L352 -171 Q325 -171 314.5 -161 Q304 -151 298 -137 L103 736 Q106 756 121.5 769 Q137 782 157 782 L219 782 Q246 782 257 772 Q268 762 274 748 L469 -125 Z " />
<glyph glyph-name="bracketright" unicode="&#x5d;" horiz-adv-x="403" d="M335 -125 Q332 -145 316 -158 Q300 -171 280 -171 L66 -171 Q49 -171 39 -158 Q29 -145 32 -128 L40 -68 Q42 -51 56 -38 Q70 -25 87 -25 L177 -25 L270 636 L180 636 Q163 636 153 649 Q143 662 145 679 L153 739 Q156 756 169.5 769 Q183 782 200 782 L414 782 Q434 782 446.5 769 Q459 756 456 736 L335 -125 Z " />
<glyph glyph-name="asciicircum" unicode="&#x5e;" horiz-adv-x="500" d="M498 347 Q496 327 480 314 Q464 301 444 301 L369 301 Q349 301 339.5 315 Q330 329 323 347 L307 406 L273 347 Q262 329 248.5 315 Q235 301 215 301 L140 301 Q120 301 108 314 Q96 327 98 347 L240 559 Q248 570 258.5 577.5 Q269 585 281 585 L383 585 Q395 585 403 577.5 Q411 570 416 559 L498 347 Z " />
<glyph glyph-name="underscore" unicode="&#x5f;" horiz-adv-x="413" d="M66 -148 Q51 -148 41.5 -136.5 Q32 -125 34 -109 L42 -52 Q44 -36 57 -24.5 Q70 -13 85 -13 L324 -13 Q339 -13 348 -24.5 Q357 -36 355 -52 L347 -109 Q345 -125 332.5 -136.5 Q320 -148 305 -148 L66 -148 Z " />
<glyph glyph-name="grave" unicode="&#x60;" horiz-adv-x="359" d="M362 381 Q360 362 345 349.5 Q330 337 310 337 L224 337 Q204 337 195 350.5 Q186 364 180 381 L126 541 Q128 560 143 572.5 Q158 585 178 585 L274 585 Q294 585 302.5 571.5 Q311 558 318 541 L362 381 Z " />
<glyph glyph-name="a" unicode="a" horiz-adv-x="518" d="M226 143 Q224 126 236 121.5 Q248 117 264 117 Q273 117 286 120 Q299 123 311 128 L318 172 Q308 172 293 170.5 Q278 169 263.5 166 Q249 163 238 157.5 Q227 152 226 143 Z M237 304 Q226 289 217.5 285.5 Q209 282 195 282 L112 282 Q98 282 90 286.5 Q82 291 84 307 Q99 345 123 370.5 Q147 396 176.5 411.5 Q206 427 239.5 433.5 Q273 440 309 440 Q377 440 421 426.5 Q465 413 489.5 385.5 Q514 358 520 316 Q526 274 518 216 L494 46 Q491 26 475.5 13 Q460 0 440 0 L342 0 Q322 0 309.5 13 Q297 26 300 46 Q258 7 226.5 -3 Q195 -13 170 -13 Q146 -13 121 -4.5 Q96 4 77 21.5 Q58 39 48 66.5 Q38 94 43 133 Q50 180 79.5 205.5 Q109 231 150.5 243.5 Q192 256 240 258.5 Q288 261 330 261 Q333 291 323.5 306.5 Q314 322 286 322 Q269 322 257 319 Q245 316 237 304 Z " />
<glyph glyph-name="b" unicode="b" horiz-adv-x="567" d="M384 257 Q387 280 372 294 Q357 308 337 308 Q317 308 297.5 294 Q278 280 275 260 L262 166 Q259 145 273 131 Q287 117 310 117 Q330 117 349 131 Q368 145 371 166 L384 257 Z M245 49 Q242 28 226.5 14 Q211 0 191 0 L93 0 Q73 0 60.5 13 Q48 26 51 46 L120 539 Q123 559 139 572 Q155 585 175 585 L273 585 Q293 585 305 572 Q317 559 314 539 L291 376 Q328 414 357 427 Q386 440 418 440 Q457 440 488 421 Q519 402 539.5 370.5 Q560 339 568.5 297.5 Q577 256 571 211 Q565 166 544.5 125 Q524 84 494.5 53 Q465 22 429 3.5 Q393 -15 354 -15 Q322 -15 293.5 1.5 Q265 18 245 49 Z " />
<glyph glyph-name="c" unicode="c" horiz-adv-x="525" d="M526 152 Q515 121 494.5 91.5 Q474 62 442.5 38.5 Q411 15 369 1 Q327 -13 274 -13 Q204 -13 159 7.5 Q114 28 89 60 Q64 92 56.5 133 Q49 174 55 214 Q60 253 78.5 293.5 Q97 334 131.5 366.5 Q166 399 216.5 419.5 Q267 440 337 440 Q387 440 426 426 Q465 412 491 388.5 Q517 365 530.5 335.5 Q544 306 543 275 Q540 252 526 246.5 Q512 241 493 241 L402 241 Q383 241 376 248.5 Q369 256 364 278 Q359 298 347 307 Q335 316 320 316 Q285 316 265.5 289 Q246 262 240 214 Q233 166 244.5 139 Q256 112 291 112 Q327 112 345 149 Q357 171 366.5 178.5 Q376 186 395 186 L486 186 Q505 186 517 180.5 Q529 175 526 152 Z " />
<glyph glyph-name="d" unicode="d" horiz-adv-x="567" d="M242 166 Q239 145 254 131 Q269 117 289 117 Q312 117 330 131 Q348 145 351 166 L364 260 Q367 280 351.5 294 Q336 308 316 308 Q296 308 277 294 Q258 280 255 257 L242 166 Z M334 49 Q306 18 272.5 1.5 Q239 -15 207 -15 Q168 -15 137 3.5 Q106 22 85.5 53 Q65 84 56.5 125 Q48 166 54 211 Q60 256 80.5 297.5 Q101 339 130.5 370.5 Q160 402 196 421 Q232 440 271 440 Q303 440 329 427 Q355 414 380 376 L403 539 Q406 559 422 572 Q438 585 458 585 L556 585 Q576 585 588 572 Q600 559 597 539 L528 46 Q525 26 509.5 13 Q494 0 474 0 L376 0 Q356 0 343.5 14 Q331 28 334 49 Z " />
<glyph glyph-name="e" unicode="e" horiz-adv-x="519" d="M305 320 Q285 320 267 310 Q249 300 238 265 L360 265 Q358 300 341.5 310 Q325 320 305 320 Z M530 226 Q528 206 512 193 Q496 180 476 180 L234 180 Q229 151 242 134 Q255 117 281 117 Q293 117 305.5 119 Q318 121 328 128 Q336 134 345 136 Q354 138 365 138 L458 138 Q477 138 489 132.5 Q501 127 498 104 Q468 55 411 21 Q354 -13 264 -13 Q194 -13 151 9 Q108 31 84.5 64.5 Q61 98 55.5 138 Q50 178 55 214 Q60 252 76.5 292 Q93 332 125 365 Q157 398 205.5 419 Q254 440 324 440 Q390 440 432 421.5 Q474 403 497 372.5 Q520 342 527 303.5 Q534 265 530 226 Z " />
<glyph glyph-name="f" unicode="f" horiz-adv-x="384" d="M394 482 Q366 482 353 471.5 Q340 461 338 447 L335 425 L386 425 Q402 425 411 414 Q420 403 418 386 L411 336 Q409 319 396.5 308 Q384 297 368 297 L317 297 L282 46 Q279 26 263.5 13 Q248 0 228 0 L130 0 Q110 0 97.5 13 Q85 26 88 46 L123 297 L93 297 Q77 297 68.5 308 Q60 319 62 336 L69 386 Q71 403 83 414 Q95 425 111 425 L141 425 Q155 515 204 569 Q253 623 334 623 Q348 623 370 622.5 Q392 622 412 619 Q428 619 437.5 607.5 Q447 596 445 579 L437 521 Q435 504 422.5 493 Q410 482 394 482 Z " />
<glyph glyph-name="g" unicode="g" horiz-adv-x="567" d="M242 168 Q239 145 254 131 Q269 117 289 117 Q309 117 328.5 131 Q348 145 351 165 L364 261 Q367 282 353 296 Q339 310 316 310 Q296 310 277 296 Q258 282 255 261 L242 168 Z M217 -61 Q225 -70 236.5 -73.5 Q248 -77 261 -77 Q293 -77 307.5 -57 Q322 -37 326 -8 L334 46 Q297 14 268.5 0.5 Q240 -13 208 -13 Q169 -13 138 5.5 Q107 24 86.5 55 Q66 86 57.5 127.5 Q49 169 55 214 Q61 259 81.5 300 Q102 341 131 372 Q160 403 196 421.5 Q232 440 271 440 Q303 440 331.5 423.5 Q360 407 380 376 Q383 398 399 411.5 Q415 425 435 425 L533 425 Q553 425 565 412 Q577 399 575 379 L525 28 Q518 -25 499 -67.5 Q480 -110 446 -139.5 Q412 -169 362 -185 Q312 -201 242 -201 Q198 -201 165.5 -193 Q133 -185 109.5 -170.5 Q86 -156 70 -135 Q54 -114 42 -88 Q41 -86 41 -81 Q43 -72 52 -64 Q59 -58 68.5 -54 Q78 -50 87 -50 L185 -50 Q198 -50 205 -53 Q212 -56 217 -61 Z " />
<glyph glyph-name="h" unicode="h" horiz-adv-x="577" d="M291 376 Q328 414 367 427 Q406 440 438 440 Q516 440 552 384 Q588 328 571 211 L548 46 Q545 26 529.5 13 Q514 0 494 0 L396 0 Q376 0 363.5 13 Q351 26 354 46 L384 259 Q387 282 372 296 Q357 310 337 310 Q317 310 297.5 296 Q278 282 275 262 L245 46 Q242 26 226.5 13 Q211 0 191 0 L93 0 Q73 0 60.5 13 Q48 26 51 46 L120 539 Q123 559 139 572 Q155 585 175 585 L273 585 Q293 585 305 572 Q317 559 314 539 L291 376 Z " />
<glyph glyph-name="i" unicode="i" horiz-adv-x="294" d="M250 46 Q247 26 231.5 13 Q216 0 196 0 L98 0 Q78 0 65.5 13 Q53 26 56 46 L103 379 Q105 399 121 412 Q137 425 157 425 L255 425 Q275 425 287 412 Q299 399 297 379 L250 46 Z M315 507 Q312 487 296 474 Q280 461 260 461 L162 461 Q142 461 130 474 Q118 487 121 507 L128 558 Q131 578 146.5 591 Q162 604 182 604 L280 604 Q300 604 312.5 591 Q325 578 322 558 L315 507 Z " />
<glyph glyph-name="j" unicode="j" horiz-adv-x="292" d="M-29 -209 Q-43 -209 -52 -198.5 Q-61 -188 -59 -173 L-50 -109 Q-48 -93 -35 -81.5 Q-22 -70 -8 -70 L-3 -70 Q22 -70 34 -59.5 Q46 -49 48 -35 L106 379 Q108 399 124 412 Q140 425 160 425 L258 425 Q278 425 290 412 Q302 399 300 379 L244 -21 Q231 -112 182.5 -162.5 Q134 -213 52 -213 Q38 -213 15 -212.5 Q-8 -212 -29 -209 Z M318 507 Q315 487 299 474 Q283 461 263 461 L165 461 Q145 461 133 474 Q121 487 124 507 L131 558 Q134 578 149.5 591 Q165 604 185 604 L283 604 Q303 604 315.5 591 Q328 578 325 558 L318 507 Z " />
<glyph glyph-name="k" unicode="k" horiz-adv-x="518" d="M260 152 L245 46 Q242 26 226.5 13 Q211 0 191 0 L93 0 Q73 0 60.5 13 Q48 26 51 46 L120 539 Q123 559 139 572 Q155 585 175 585 L273 585 Q293 585 305 572 Q317 559 314 539 L280 295 L296 295 L389 404 Q405 425 431 425 L526 425 Q544 425 557 417.5 Q570 410 566 383 L419 212 L518 42 Q514 15 499.5 7.5 Q485 0 467 0 L372 0 Q346 0 335 21 L260 152 Z " />
<glyph glyph-name="l" unicode="l" horiz-adv-x="314" d="M251 -11 Q237 -13 224 -13 Q211 -13 203 -13 Q121 -13 86.5 40 Q52 93 65 184 L115 539 Q118 559 134 572 Q150 585 170 585 L268 585 Q288 585 300 572 Q312 559 309 539 L257 165 Q254 149 271 141 Q286 141 295.5 129.5 Q305 118 303 101 L292 26 Q290 10 278 -0.5 Q266 -11 251 -11 Z " />
<glyph glyph-name="m" unicode="m" horiz-adv-x="806" d="M291 376 Q308 399 325 411.5 Q342 424 358 430.5 Q374 437 388.5 438.5 Q403 440 414 440 Q463 440 486.5 425.5 Q510 411 524 376 Q546 399 568.5 412 Q591 425 611.5 431 Q632 437 649 438.5 Q666 440 677 440 Q759 440 788 386 Q817 332 804 241 L777 46 Q774 26 758.5 13 Q743 0 723 0 L625 0 Q605 0 592.5 13 Q580 26 583 46 L613 261 Q616 282 608.5 296 Q601 310 581 310 Q558 310 548 296 Q538 282 535 261 L505 46 Q502 26 486.5 13 Q471 0 451 0 L365 0 Q345 0 332.5 13 Q320 26 323 46 L353 261 Q356 282 348.5 296 Q341 310 321 310 Q298 310 288 296 Q278 282 275 261 L245 46 Q242 26 226.5 13 Q211 0 191 0 L93 0 Q73 0 60.5 13 Q48 26 51 46 L98 379 Q100 399 116 412 Q132 425 152 425 L250 425 Q270 425 282 411.5 Q294 398 291 376 Z " />
<glyph glyph-name="n" unicode="n" horiz-adv-x="577" d="M291 376 Q328 414 367 427 Q406 440 438 440 Q516 440 552 384 Q588 328 571 211 L548 46 Q545 26 529.5 13 Q514 0 494 0 L396 0 Q376 0 363.5 13 Q351 26 354 46 L384 259 Q387 282 372 296 Q357 310 337 310 Q317 310 297.5 296 Q278 282 275 262 L245 46 Q242 26 226.5 13 Q211 0 191 0 L93 0 Q73 0 60.5 13 Q48 26 51 46 L98 379 Q100 399 116 412 Q132 425 152 425 L250 425 Q270 425 282 411.5 Q294 398 291 376 Z " />
<glyph glyph-name="o" unicode="o" horiz-adv-x="538" d="M285 117 Q310 117 330 138.5 Q350 160 358 214 Q364 262 351.5 286 Q339 310 312 310 Q285 310 265.5 286 Q246 262 240 214 Q232 161 246 139 Q260 117 285 117 Z M55 214 Q60 253 77.5 293.5 Q95 334 128 366.5 Q161 399 210.5 419.5 Q260 440 330 440 Q400 440 444 419.5 Q488 399 511.5 366.5 Q535 334 541.5 293.5 Q548 253 543 214 Q537 174 519.5 133 Q502 92 469 60 Q436 28 386.5 7.5 Q337 -13 267 -13 Q197 -13 153 7.5 Q109 28 85 60 Q61 92 55 133 Q49 174 55 214 Z " />
<glyph glyph-name="p" unicode="p" horiz-adv-x="567" d="M384 261 Q387 282 372 296 Q357 310 337 310 Q314 310 296 296 Q278 282 275 261 L262 165 Q259 145 274.5 131 Q290 117 310 117 Q330 117 349 131 Q368 145 371 168 L384 261 Z M221 -123 Q219 -143 203 -156 Q187 -169 167 -169 L69 -169 Q49 -169 37 -156 Q25 -143 27 -123 L98 379 Q100 399 116 412 Q132 425 152 425 L250 425 Q270 425 282 411 Q294 397 291 376 Q320 407 353 423.5 Q386 440 418 440 Q457 440 488 421.5 Q519 403 540 372 Q561 341 569.5 300 Q578 259 572 214 Q566 169 545.5 127.5 Q525 86 495.5 55 Q466 24 430 5.5 Q394 -13 355 -13 Q323 -13 298 0.5 Q273 14 245 46 L221 -123 Z " />
<glyph glyph-name="q" unicode="q" horiz-adv-x="567" d="M242 168 Q239 145 254 131 Q269 117 289 117 Q309 117 328.5 131 Q348 145 351 165 L364 261 Q367 282 353 296 Q339 310 316 310 Q296 310 277 296 Q258 282 255 261 L242 168 Z M334 46 Q297 14 268.5 0.5 Q240 -13 208 -13 Q169 -13 138 5.5 Q107 24 86.5 55 Q66 86 57.5 127.5 Q49 169 55 214 Q61 259 81.5 300 Q102 341 131 372 Q160 403 196 421.5 Q232 440 271 440 Q303 440 331.5 423.5 Q360 407 380 376 Q383 397 399 411 Q415 425 435 425 L533 425 Q553 425 565 412 Q577 399 575 379 L504 -123 Q502 -143 486 -156 Q470 -169 450 -169 L352 -169 Q332 -169 320 -156 Q308 -143 310 -123 L334 46 Z " />
<glyph glyph-name="r" unicode="r" horiz-adv-x="412" d="M415 436 Q432 436 446 427 Q460 418 457 397 L449 335 Q447 319 435 308.5 Q423 298 408 298 Q398 300 388.5 300 Q379 300 372 300 Q334 300 304.5 278.5 Q275 257 271 229 L245 46 Q242 26 226.5 13 Q211 0 191 0 L93 0 Q73 0 60.5 13 Q48 26 51 46 L98 379 Q100 399 116 412 Q132 425 152 425 L250 425 Q270 425 282 410.5 Q294 396 291 376 Q306 399 323 411 Q340 423 356.5 428.5 Q373 434 388.5 435 Q404 436 415 436 Z " />
<glyph glyph-name="s" unicode="s" horiz-adv-x="466" d="M41 104 Q44 127 58 132.5 Q72 138 91 138 L165 138 Q179 138 186 132.5 Q193 127 199 117 Q204 109 216 104 Q228 99 245 99 Q283 99 293 107 Q303 115 304 122 Q306 133 280.5 138 Q255 143 215 151 Q187 156 158 166 Q129 176 107 192 Q85 208 73 231 Q61 254 65 285 Q70 317 84.5 345 Q99 373 125.5 394 Q152 415 192 427.5 Q232 440 287 440 Q361 440 410 413 Q459 386 471 322 Q468 299 454 293.5 Q440 288 421 288 L347 288 Q333 288 325.5 293 Q318 298 313 309 Q308 317 299.5 321.5 Q291 326 271 326 Q240 326 233.5 317 Q227 308 226 303 Q225 293 241 285.5 Q257 278 278.5 273 Q300 268 322.5 265 Q345 262 355 260 Q410 250 441.5 220 Q473 190 465 136 Q461 104 445 77 Q429 50 400.5 30 Q372 10 331 -1.5 Q290 -13 235 -13 Q198 -13 165.5 -7 Q133 -1 107.5 13 Q82 27 64.5 49.5 Q47 72 41 104 Z " />
<glyph glyph-name="t" unicode="t" horiz-adv-x="394" d="M345 135 Q361 135 370 124 Q379 113 377 96 L369 36 Q366 19 352.5 4.5 Q339 -10 323 -10 Q303 -10 281 -11.5 Q259 -13 245 -13 Q163 -13 128.5 40 Q94 93 107 184 L123 297 L93 297 Q77 297 68.5 308 Q60 319 62 336 L69 386 Q71 403 83 414 Q95 425 111 425 L141 425 L153 506 Q155 526 170.5 536.5 Q186 547 207 552 L308 574 Q328 574 340 559 Q352 544 349 524 L335 425 L386 425 Q402 425 411 414 Q420 403 418 386 L411 336 Q409 319 396.5 308 Q384 297 368 297 L317 297 L299 170 Q297 150 311 142.5 Q325 135 345 135 Z " />
<glyph glyph-name="u" unicode="u" horiz-adv-x="567" d="M334 46 Q295 10 259.5 -1.5 Q224 -13 202 -13 Q120 -13 83.5 40 Q47 93 60 184 L88 379 Q90 399 106 412 Q122 425 142 425 L240 425 Q260 425 272 412 Q284 399 282 379 L252 166 Q249 145 261.5 131 Q274 117 294 117 Q317 117 332.5 131 Q348 145 351 166 L381 379 Q383 399 399 412 Q415 425 435 425 L533 425 Q553 425 565 412 Q577 399 575 379 L528 46 Q525 26 509.5 13 Q494 0 474 0 L376 0 Q356 0 343.5 12 Q331 24 334 46 Z " />
<glyph glyph-name="v" unicode="v" horiz-adv-x="506" d="M172 0 Q152 0 140.5 13.5 Q129 27 125 46 L58 379 Q60 399 76 412 Q92 425 112 425 L205 425 Q225 425 235 411.5 Q245 398 247 379 L273 143 L365 379 Q372 398 385.5 411.5 Q399 425 419 425 L512 425 Q532 425 544 412 Q556 399 554 379 L393 46 Q383 27 368.5 13.5 Q354 0 334 0 L172 0 Z " />
<glyph glyph-name="w" unicode="w" horiz-adv-x="702" d="M377 188 L315 32 Q308 18 295 9 Q282 0 265 0 L133 0 Q113 0 103 13.5 Q93 27 91 46 L58 379 Q60 399 76 412 Q92 425 112 425 L188 425 Q208 425 218 411.5 Q228 398 230 379 L241 156 L335 386 Q340 403 352 414 Q364 425 381 425 L439 425 Q456 425 465.5 414 Q475 403 475 386 L503 156 L578 379 Q584 398 598 411.5 Q612 425 632 425 L708 425 Q728 425 740 412 Q752 399 750 379 L623 46 Q615 27 602 13.5 Q589 0 569 0 L437 0 Q420 0 408.5 9 Q397 18 395 32 L377 188 Z " />
<glyph glyph-name="x" unicode="x" horiz-adv-x="484" d="M194 28 Q183 17 170 8.5 Q157 0 126 0 L58 0 Q38 0 25.5 13 Q13 26 16 46 L169 212 L64 379 Q66 399 82 412 Q98 425 118 425 L194 425 Q221 425 230 418 Q239 411 245 401 L288 331 L351 401 Q360 411 370.5 418 Q381 425 408 425 L484 425 Q504 425 516 412 Q528 399 526 379 L373 212 L480 46 Q477 26 461.5 13 Q446 0 426 0 L358 0 Q327 0 315.5 8.5 Q304 17 296 28 L255 95 L194 28 Z " />
<glyph glyph-name="y" unicode="y" horiz-adv-x="499" d="M57 -40 Q91 -40 105 -29.5 Q119 -19 124 13 Q125 18 124 26.5 Q123 35 122 40 L59 379 Q61 399 77 412 Q93 425 113 425 L206 425 Q226 425 236 411.5 Q246 398 248 379 L268 129 L357 379 Q364 398 378 411.5 Q392 425 412 425 L505 425 Q525 425 537 412 Q549 399 547 379 L368 -13 Q339 -77 298.5 -111 Q258 -145 221 -161 Q177 -180 132 -183 Q93 -183 64 -180 Q35 -177 15 -173 Q-18 -165 -13 -134 L-5 -78 Q-3 -62 10 -51 Q23 -40 37 -40 L57 -40 Z " />
<glyph glyph-name="z" unicode="z" horiz-adv-x="453" d="M261 130 L404 130 Q420 130 428.5 119 Q437 108 435 91 L428 39 Q426 22 414 11 Q402 0 386 0 L67 0 Q51 0 42 11 Q33 22 35 39 L45 112 Q48 132 64 143 L251 295 L108 295 Q92 295 83 306 Q74 317 76 334 L84 386 Q86 403 98 414 Q110 425 126 425 L445 425 Q461 425 470 414 Q479 403 477 386 L466 313 Q465 294 448 282 L261 130 Z " />
<glyph glyph-name="braceleft" unicode="&#x7b;" horiz-adv-x="462" d="M116 239 Q101 240 93.5 249.5 Q86 259 88 273 L95 322 Q97 336 108 345.5 Q119 355 133 357 Q151 362 164 372 Q177 382 180 402 L207 592 Q212 631 228 666 Q244 701 274.5 726.5 Q305 752 353 767 Q401 782 471 782 L480 782 Q497 782 507.5 769 Q518 756 515 739 L507 679 Q505 662 491 649 Q477 636 460 636 L451 636 Q416 636 398 619 Q380 602 373 554 L353 408 Q351 395 345.5 378.5 Q340 362 329.5 346.5 Q319 331 303.5 318 Q288 305 267 297 Q286 290 298 276.5 Q310 263 316 248 Q322 233 323 217 Q324 201 322 187 L303 56 Q297 8 310 -9 Q323 -26 358 -26 L367 -26 Q384 -26 394 -39 Q404 -52 402 -69 L393 -129 Q391 -146 377 -159 Q363 -172 346 -172 L337 -172 Q267 -172 223.5 -157 Q180 -142 156.5 -116.5 Q133 -91 126.5 -56 Q120 -21 126 18 L151 193 Q153 213 143 223.5 Q133 234 116 239 Z " />
<glyph glyph-name="bar" unicode="&#x7c;" horiz-adv-x="272" d="M154 741 Q156 758 170 770 Q184 782 202 782 L288 782 Q306 782 317 770 Q328 758 326 741 L203 -130 Q201 -147 186.5 -159 Q172 -171 154 -171 L68 -171 Q50 -171 39.5 -159 Q29 -147 31 -130 L154 741 Z " />
<glyph glyph-name="braceright" unicode="&#x7d;" horiz-adv-x="462" d="M412 239 Q394 234 380.5 223.5 Q367 213 365 193 L340 18 Q334 -21 318 -56 Q302 -91 271.5 -116.5 Q241 -142 193 -157 Q145 -172 75 -172 L66 -172 Q49 -172 39 -159 Q29 -146 31 -129 L40 -69 Q42 -52 56 -39 Q70 -26 87 -26 L96 -26 Q131 -26 149 -9 Q167 8 173 56 L192 187 Q194 201 199.5 217 Q205 233 215 248 Q225 263 240.5 276.5 Q256 290 277 297 Q258 305 246.5 318 Q235 331 229 346.5 Q223 362 222 378.5 Q221 395 223 408 L243 554 Q250 602 237 619 Q224 636 189 636 L180 636 Q163 636 153 649 Q143 662 145 679 L153 739 Q156 756 169.5 769 Q183 782 200 782 L209 782 Q279 782 322.5 767 Q366 752 390 726.5 Q414 701 420 666 Q426 631 421 592 L394 402 Q391 382 401.5 372 Q412 362 429 357 Q442 355 450.5 345.5 Q459 336 457 322 L450 273 Q448 259 437.5 249.5 Q427 240 412 239 Z " />
<glyph glyph-name="asciitilde" unicode="&#x7e;" horiz-adv-x="447" d="M306 120 Q289 120 273.5 125.5 Q258 131 242.5 137 Q227 143 211.5 148.5 Q196 154 178 154 Q172 154 161.5 152 Q151 150 139 147 Q133 144 127 144 Q116 144 106.5 150.5 Q97 157 94 168 L83 217 Q81 226 82 230 Q84 241 90.5 250 Q97 259 107 263 Q133 274 157 278 Q181 282 196 282 Q213 282 228.5 276.5 Q244 271 259.5 265 Q275 259 290.5 253.5 Q306 248 324 248 Q330 248 341 250 Q352 252 363 255 Q371 258 376 258 Q387 258 396 251.5 Q405 245 408 234 L420 185 Q421 182 421 178.5 Q421 175 421 172 Q419 161 412.5 152 Q406 143 395 139 Q370 128 345.5 124 Q321 120 306 120 Z " />
<glyph glyph-name="uni00A0" unicode="&#xa0;" horiz-adv-x="189" d="" />
<glyph glyph-name="exclamdown" unicode="&#xa1;" horiz-adv-x="294" d="M125 539 Q128 559 144 572 Q160 585 180 585 L278 585 Q298 585 310 572 Q322 559 319 539 L313 496 Q311 476 295 463 Q279 450 259 450 L161 450 Q141 450 129 463 Q117 476 119 496 L125 539 Z M117 345 Q120 365 135.5 378 Q151 391 171 391 L231 391 Q251 391 263.5 378 Q276 365 273 345 L247 46 Q244 26 228.5 13 Q213 0 193 0 L100 0 Q80 0 67.5 13 Q55 26 58 46 L117 345 Z " />
<glyph glyph-name="cent" unicode="&#xa2;" horiz-adv-x="680" d="M510 592 Q592 576 636.5 528.5 Q681 481 688 415 Q685 392 671 386 Q657 380 638 380 L518 380 Q499 380 492 388 Q485 396 478 417 Q472 436 452 448.5 Q432 461 412 461 Q387 461 365.5 447 Q344 433 327.5 409 Q311 385 300 353.5 Q289 322 284 287 Q280 255 282.5 225.5 Q285 196 294.5 173.5 Q304 151 322 138 Q340 125 365 125 Q385 125 406.5 134.5 Q428 144 443 164 Q455 185 464 193 Q473 201 492 201 L612 201 Q631 201 643.5 195 Q656 189 653 166 Q627 100 569.5 54.5 Q512 9 426 -6 L413 -94 Q411 -110 398.5 -120.5 Q386 -131 369 -131 L292 -131 Q275 -131 265.5 -120.5 Q256 -110 258 -94 L271 -5 Q211 8 173 40 Q135 72 115 113.5 Q95 155 89.5 201 Q84 247 90 287 Q96 330 114.5 378 Q133 426 165 468.5 Q197 511 244 544.5 Q291 578 355 591 L368 686 Q370 702 382.5 712.5 Q395 723 412 723 L489 723 Q506 723 515.5 712.5 Q525 702 523 686 L510 592 Z " />
<glyph glyph-name="sterling" unicode="&#xa3;" horiz-adv-x="656" d="M139 151 L148 216 L119 216 Q104 216 94 227.5 Q84 239 86 255 L93 304 Q95 321 108.5 332.5 Q122 344 137 344 L166 344 L170 372 Q176 413 193.5 453.5 Q211 494 244 526 Q277 558 327 578.5 Q377 599 447 599 Q511 599 553.5 581.5 Q596 564 620.5 535 Q645 506 654.5 469 Q664 432 661 393 Q658 370 644 364 Q630 358 611 358 L516 358 Q497 358 489 365 Q481 372 476 395 Q476 435 461.5 448 Q447 461 427 461 Q402 461 387 443.5 Q372 426 364 372 L360 344 L410 344 Q425 344 434.5 332.5 Q444 321 442 304 L435 255 Q433 239 420 227.5 Q407 216 392 216 L342 216 L333 151 L548 151 Q565 151 575 138 Q585 125 583 108 L574 43 Q571 26 557.5 13 Q544 0 527 0 L91 0 Q74 0 63.5 13 Q53 26 56 43 L65 108 Q67 125 81 138 Q95 151 112 151 L139 151 Z " />
<glyph glyph-name="currency" unicode="&#xa4;" horiz-adv-x="538" d="M296 193 Q313 193 327 205 Q341 217 343 234 Q346 251 335 263 Q324 275 307 275 Q290 275 276 263 Q262 251 259 234 Q257 217 268 205 Q279 193 296 193 Z M325 400 Q345 400 361 396.5 Q377 393 393 385 L451 436 Q462 446 478 446 Q485 446 491.5 443.5 Q498 441 503 436 L532 400 Q542 390 540 373 Q539 358 525 348 L465 295 Q473 265 468 234 Q466 220 461 203.5 Q456 187 448 173 L493 120 Q503 112 501 95 Q498 78 485 68 L446 32 Q435 22 419 22 Q403 22 394 32 L350 83 Q333 75 315.5 71.5 Q298 68 278 68 Q258 68 242 71.5 Q226 75 210 83 L152 32 Q141 22 125 22 Q118 22 111.5 24.5 Q105 27 100 32 L71 68 Q60 79 63 95 Q64 109 77 120 L138 173 Q133 187 132.5 203.5 Q132 220 134 234 Q136 248 141.5 264.5 Q147 281 155 295 L109 348 Q100 357 102 373 Q104 389 118 400 L157 436 Q168 446 184 446 Q200 446 209 436 L253 385 Q270 393 287.5 396.5 Q305 400 325 400 Z " />
<glyph glyph-name="yen" unicode="&#xa5;" horiz-adv-x="692" d="M449 45 Q445 25 430 12.5 Q415 0 395 0 L297 0 Q277 0 264.5 12.5 Q252 25 255 45 L167 45 Q153 45 144 56 Q135 67 137 82 L145 136 Q147 151 159 162 Q171 173 185 173 L273 173 L275 188 L269 202 L189 202 Q175 202 166 213 Q157 224 159 239 L167 293 Q169 308 181 319 Q193 330 207 330 L214 330 L125 539 Q128 559 144 572 Q160 585 180 585 L279 585 Q299 585 308.5 571 Q318 557 324 539 L395 350 L518 539 Q530 557 543.5 571 Q557 585 577 585 L676 585 Q696 585 708 572 Q720 559 717 539 L569 330 L577 330 Q591 330 600.5 319 Q610 308 608 293 L600 239 Q598 224 585.5 213 Q573 202 559 202 L478 202 L469 189 L467 173 L555 173 Q569 173 578.5 162 Q588 151 586 136 L578 82 Q576 67 563.5 56 Q551 45 537 45 L449 45 Z " />
<glyph glyph-name="brokenbar" unicode="&#xa6;" horiz-adv-x="272" d="M154 741 Q156 758 170 770 Q184 782 202 782 L288 782 Q306 782 317 770 Q328 758 326 741 L283 435 Q280 418 266 406 Q252 394 234 394 L148 394 Q130 394 119 406 Q108 418 111 435 L154 741 Z M74 177 Q77 194 91 206 Q105 218 123 218 L209 218 Q227 218 238 206 Q249 194 246 177 L203 -129 Q201 -146 187 -158 Q173 -170 155 -170 L69 -170 Q51 -170 40 -158 Q29 -146 31 -129 L74 177 Z " />
<glyph glyph-name="section" unicode="&#xa7;" horiz-adv-x="532" d="M248 284 Q247 276 255 270.5 Q263 265 277 260 Q283 258 289.5 258 Q296 258 304 258 Q342 258 351.5 266 Q361 274 362 281 Q364 290 343.5 295.5 Q323 301 289 307 Q262 306 255.5 297.5 Q249 289 248 284 Z M371 467 Q367 475 358.5 480 Q350 485 330 485 Q299 485 292 476 Q285 467 284 462 Q283 452 299 444.5 Q315 437 336.5 432 Q358 427 380.5 424 Q403 421 413 419 Q469 409 500 379 Q531 349 523 295 Q518 266 505 241 Q492 216 468 196 Q480 181 485.5 161.5 Q491 142 487 117 Q483 85 467 58 Q451 31 422.5 11 Q394 -9 353 -20.5 Q312 -32 257 -32 Q220 -32 187 -26 Q154 -20 128.5 -6.5 Q103 7 86 29.5 Q69 52 63 84 Q67 107 81 113 Q95 119 114 119 L188 119 Q202 119 209 113.5 Q216 108 222 98 Q228 90 239 85 Q250 80 268 80 Q306 80 315.5 88 Q325 96 326 103 Q328 114 303 119 Q278 124 237 132 Q209 137 180 147 Q151 157 129 173 Q107 189 95 212 Q83 235 87 266 Q92 296 105 323 Q118 350 143 371 Q117 400 123 444 Q128 476 142.5 504 Q157 532 184 553 Q211 574 251 586.5 Q291 599 346 599 Q420 599 469 571.5 Q518 544 529 481 Q526 458 512 452.5 Q498 447 479 447 L405 447 Q391 447 383.5 451.5 Q376 456 371 467 Z " />
<glyph glyph-name="dieresis" unicode="&#xa8;" horiz-adv-x="477" d="M280 466 Q278 448 263 435.5 Q248 423 229 423 L153 423 Q134 423 123.5 435.5 Q113 448 115 466 L126 542 Q128 560 142.5 572.5 Q157 585 176 585 L252 585 Q271 585 282 572.5 Q293 560 291 542 L280 466 Z M492 466 Q490 448 475 435.5 Q460 423 441 423 L365 423 Q346 423 335.5 435.5 Q325 448 327 466 L338 542 Q340 560 354.5 572.5 Q369 585 388 585 L464 585 Q483 585 494 572.5 Q505 560 503 542 L492 466 Z " />
<glyph glyph-name="copyright" unicode="&#xa9;" horiz-adv-x="703" d="M434 599 Q497 599 549 575.5 Q601 552 636 510.5 Q671 469 687 414 Q703 359 694 296 Q685 234 654 179.5 Q623 125 576 84 Q529 43 470.5 19 Q412 -5 349 -5 Q288 -5 236.5 19 Q185 43 150 84 Q115 125 98.5 179.5 Q82 234 91 296 Q100 359 131.5 414 Q163 469 210 510.5 Q257 552 315 575.5 Q373 599 434 599 Z M362 87 Q405 87 446 104 Q487 121 520 149.5 Q553 178 575 216 Q597 254 603 295 Q609 338 597.5 376.5 Q586 415 561 444 Q536 473 500 490 Q464 507 421 507 Q380 507 340 490 Q300 473 267 444 Q234 415 211.5 376.5 Q189 338 183 295 Q177 254 189 216 Q201 178 225.5 149.5 Q250 121 285.5 104 Q321 87 362 87 Z M530 249 Q523 231 509.5 213.5 Q496 196 476.5 182.5 Q457 169 432 160.5 Q407 152 375 152 Q332 152 303.5 165 Q275 178 259.5 198 Q244 218 239.5 243.5 Q235 269 239 294 Q242 318 254 343.5 Q266 369 287 389 Q308 409 340 422 Q372 435 415 435 Q447 435 470 426.5 Q493 418 508.5 404.5 Q524 391 532.5 373 Q541 355 543 337 Q541 326 531.5 318 Q522 310 511 310 L455 310 Q445 310 438.5 316.5 Q432 323 431 332 Q428 357 404 357 Q383 357 370.5 340 Q358 323 354 294 Q349 265 357 247.5 Q365 230 386 230 Q397 230 406 236.5 Q415 243 420 254 Q424 263 432 269.5 Q440 276 450 276 L506 276 Q517 276 524.5 268 Q532 260 530 249 Z " />
<glyph glyph-name="ordfeminine" unicode="&#xaa;" horiz-adv-x="435" d="M240 488 Q232 471 213 471 L157 471 Q146 471 138.5 478.5 Q131 486 133 497 Q155 546 198 565.5 Q241 585 293 585 Q391 585 423.5 545.5 Q456 506 444 423 L427 300 Q425 285 412.5 275.5 Q400 266 384 266 L321 266 Q305 266 295 275.5 Q285 285 287 300 Q256 271 232.5 264 Q209 257 192 257 Q175 257 157 263 Q139 269 125 282 Q111 295 103.5 314.5 Q96 334 100 362 Q105 396 126.5 415 Q148 434 178 443 Q208 452 243 454 Q278 456 309 456 Q311 478 303.5 489 Q296 500 276 500 Q265 500 255 497.5 Q245 495 240 488 Z M229 376 Q227 364 236.5 360.5 Q246 357 257 357 Q270 357 291 365 L295 396 Q288 396 277 395 Q266 394 256 392 Q246 390 238 386 Q230 382 229 376 Z " />
<glyph glyph-name="guillemotleft" unicode="&#xab;" horiz-adv-x="707" d="M213 378 Q232 400 253 412 Q274 424 294 424 L365 424 Q385 424 397 411 Q409 398 407 378 L263 212 L360 46 Q357 26 341.5 13 Q326 0 306 0 L235 0 Q215 0 197 12 Q179 24 166 46 L81 192 Q78 202 79 212 Q82 226 91 236 L213 378 Z M516 378 Q535 400 556 412 Q577 424 597 424 L668 424 Q688 424 700 411 Q712 398 710 378 L566 212 L663 46 Q660 26 644.5 13 Q629 0 609 0 L538 0 Q518 0 500 12 Q482 24 469 46 L384 192 Q381 202 382 212 Q385 226 394 236 L516 378 Z " />
<glyph glyph-name="logicalnot" unicode="&#xac;" horiz-adv-x="550" d="M117 185 Q100 185 89.5 198 Q79 211 82 228 L91 293 Q93 310 107 323 Q121 336 138 336 L499 336 Q519 336 531 323 Q543 310 540 290 L512 87 Q509 67 493 54 Q477 41 457 41 L359 41 Q339 41 327 54 Q315 67 318 87 L332 185 L117 185 Z " />
<glyph glyph-name="uni00AD" unicode="&#xad;" horiz-adv-x="189" d="" />
<glyph glyph-name="registered" unicode="&#xae;" horiz-adv-x="703" d="M434 599 Q497 599 549 575.5 Q601 552 636 510.5 Q671 469 687 414 Q703 359 694 296 Q685 234 654 179.5 Q623 125 576 84 Q529 43 470.5 19 Q412 -5 349 -5 Q288 -5 236.5 19 Q185 43 150 84 Q115 125 98.5 179.5 Q82 234 91 296 Q100 359 131.5 414 Q163 469 210 510.5 Q257 552 315 575.5 Q373 599 434 599 Z M362 87 Q405 87 446 104 Q487 121 520 149.5 Q553 178 575 216 Q597 254 603 295 Q609 338 597.5 376.5 Q586 415 561 444 Q536 473 500 490 Q464 507 421 507 Q380 507 340 490 Q300 473 267 444 Q234 415 211.5 376.5 Q189 338 183 295 Q177 254 189 216 Q201 178 225.5 149.5 Q250 121 285.5 104 Q321 87 362 87 Z M369 289 L407 289 Q421 289 431.5 297 Q442 305 444 322 Q446 337 438 345 Q430 353 416 353 L378 353 L369 289 Z M389 212 L358 212 L355 186 Q353 175 344 166.5 Q335 158 324 158 L278 158 Q267 158 260 166.5 Q253 175 255 186 L285 404 Q287 415 296 423.5 Q305 432 316 432 L433 432 Q469 432 492 421.5 Q515 411 527.5 394.5 Q540 378 543.5 358.5 Q547 339 545 322 Q542 299 527 273.5 Q512 248 482 231 L498 186 Q496 175 487 166.5 Q478 158 467 158 L429 158 Q418 158 410.5 166.5 Q403 175 398 186 L389 212 Z " />
<glyph glyph-name="macron" unicode="&#xaf;" horiz-adv-x="494" d="M152 437 Q135 437 125 450 Q115 463 117 480 L126 542 Q128 559 142 572 Q156 585 173 585 L485 585 Q502 585 512 572 Q522 559 520 542 L511 480 Q509 463 495 450 Q481 437 464 437 L152 437 Z " />
<glyph glyph-name="degree" unicode="&#xb0;" horiz-adv-x="390" d="M278 585 Q308 585 332.5 574 Q357 563 373.5 543.5 Q390 524 398 497.5 Q406 471 401 441 Q397 411 382 384 Q367 357 344.5 337.5 Q322 318 294.5 306.5 Q267 295 237 295 Q207 295 182 306.5 Q157 318 139.5 337.5 Q122 357 114.5 384 Q107 411 111 441 Q116 471 131 497.5 Q146 524 168.5 543.5 Q191 563 219.5 574 Q248 585 278 585 Z M252 404 Q266 404 278 414.5 Q290 425 292 440 Q294 455 285 465 Q276 475 262 475 Q247 475 235 465 Q223 455 221 440 Q219 425 228 414.5 Q237 404 252 404 Z " />
<glyph glyph-name="plusminus" unicode="&#xb1;" horiz-adv-x="494" d="M249 547 Q251 562 263 571.5 Q275 581 291 581 L365 581 Q381 581 390 571 Q399 561 397 546 L385 457 L468 457 Q484 457 494 444.5 Q504 432 502 415 L493 351 Q491 334 477 321.5 Q463 309 447 309 L364 309 L352 224 Q350 209 338 199 Q326 189 310 189 L236 189 Q220 189 211 199 Q202 209 204 224 L216 309 L133 309 Q117 309 107 321.5 Q97 334 99 351 L108 415 Q110 432 124 444.5 Q138 457 154 457 L237 457 L249 547 Z M91 0 Q74 0 63.5 13 Q53 26 56 43 L64 105 Q66 122 80 135 Q94 148 111 148 L423 148 Q440 148 450 135 Q460 122 458 105 L450 43 Q447 26 433.5 13 Q420 0 403 0 L91 0 Z " />
<glyph glyph-name="twosuperior" unicode="&#xb2;" horiz-adv-x="367" d="M226 493 Q216 476 198 476 L143 476 Q132 476 125 483.5 Q118 491 120 502 Q134 547 169 573 Q204 599 258 599 Q297 599 323 589.5 Q349 580 364 564.5 Q379 549 383.5 528.5 Q388 508 385 487 Q382 466 371 449.5 Q360 433 343.5 419.5 Q327 406 306 394.5 Q285 383 262 371 L333 371 Q346 371 353.5 362 Q361 353 359 340 L354 299 Q352 286 341.5 277 Q331 268 318 268 L122 268 Q109 268 101.5 277 Q94 286 96 299 L101 337 Q102 343 102 344 L102 345 Q106 373 130.5 391.5 Q155 410 184 425 Q213 440 237 453.5 Q261 467 264 485 Q266 499 262.5 502.5 Q259 506 249 506 Q231 506 226 493 Z " />
<glyph glyph-name="threesuperior" unicode="&#xb3;" horiz-adv-x="386" d="M252 461 Q266 461 273.5 466 Q281 471 283 485 Q284 493 277 499 Q270 505 255 505 Q241 505 233 501.5 Q225 498 221 493 Q211 481 195 481 L146 481 Q134 481 126.5 491 Q119 501 121 512 Q138 556 177 577.5 Q216 599 271 599 Q354 599 383 571.5 Q412 544 405 496 Q402 475 385 452.5 Q368 430 329 426 Q361 420 374.5 398.5 Q388 377 386 357 Q379 309 342 281.5 Q305 254 222 254 Q170 254 136 274 Q102 294 97 339 Q99 350 109 360 Q119 370 131 370 L180 370 Q195 370 202 358 Q206 352 212.5 349.5 Q219 347 233 347 Q248 347 256.5 353 Q265 359 266 368 Q269 391 242 391 L225 391 Q217 391 212.5 397 Q208 403 209 411 L213 441 Q215 449 221 455 Q227 461 235 461 L252 461 Z " />
<glyph glyph-name="acute" unicode="&#xb4;" horiz-adv-x="340" d="M260 416 Q251 405 240.5 398 Q230 391 216 391 L150 391 Q130 391 119 403.5 Q108 416 111 435 L174 541 Q185 558 197.5 571.5 Q210 585 230 585 L326 585 Q346 585 357 572.5 Q368 560 366 541 L260 416 Z " />
<glyph glyph-name="mu" unicode="&#xb5;" horiz-adv-x="567" d="M334 46 Q305 19 277 6.5 Q249 -6 227 -10 L211 -126 Q208 -146 192 -159 Q176 -172 156 -172 L58 -172 Q38 -172 26 -159 Q14 -146 17 -126 L88 379 Q90 399 106 412 Q122 425 142 425 L240 425 Q260 425 272 412 Q284 399 282 379 L251 162 Q250 142 262 129.5 Q274 117 294 117 Q317 117 332.5 131 Q348 145 351 166 L381 379 Q383 399 399 412 Q415 425 435 425 L533 425 Q553 425 565 412 Q577 399 575 379 L528 46 Q525 26 509.5 13 Q494 0 474 0 L376 0 Q356 0 343.5 12 Q331 24 334 46 Z " />
<glyph glyph-name="paragraph" unicode="&#xb6;" horiz-adv-x="773" d="M757 585 Q777 585 789 572 Q801 559 798 539 L729 46 Q726 26 710.5 13 Q695 0 675 0 L578 0 Q558 0 545.5 13 Q533 26 536 46 L590 434 L511 434 L457 46 Q454 26 438.5 13 Q423 0 403 0 L305 0 Q285 0 272.5 13 Q260 26 263 46 L288 224 Q229 224 192 241.5 Q155 259 134.5 286 Q114 313 108 345 Q102 377 106 405 Q110 434 125 465.5 Q140 497 168 523.5 Q196 550 238 567.5 Q280 585 339 585 L757 585 Z " />
<glyph glyph-name="periodcentered" unicode="&#xb7;" horiz-adv-x="278" d="M247 142 Q245 122 229 109 Q213 96 193 96 L111 96 Q91 96 79 109 Q67 122 69 142 L81 225 Q84 245 100 258 Q116 271 136 271 L218 271 Q238 271 250 258 Q262 245 259 225 L247 142 Z " />
<glyph glyph-name="cedilla" unicode="&#xb8;" horiz-adv-x="331" d="M192 -13 L188 -37 Q212 -38 230 -48 Q247 -57 257.5 -75.5 Q268 -94 263 -128 Q259 -154 244.5 -175 Q230 -196 208 -210.5 Q186 -225 159.5 -233 Q133 -241 106 -241 Q91 -241 73.5 -239 Q56 -237 44 -235 Q33 -235 26 -226 Q19 -217 21 -206 L26 -165 Q28 -154 37.5 -145 Q47 -136 58 -136 Q62 -137 67 -137 Q72 -137 76 -137 Q84 -137 93.5 -136 Q103 -135 112 -132.5 Q121 -130 127 -125.5 Q133 -121 134 -114 Q136 -100 120.5 -93 Q105 -86 88 -86 Q79 -86 74.5 -79.5 Q70 -73 71 -65 L88 -13 L192 -13 Z " />
<glyph glyph-name="onesuperior" unicode="&#xb9;" horiz-adv-x="321" d="M153 549 Q190 560 221 578 Q228 585 242 585 L315 585 Q331 585 340.5 574.5 Q350 564 348 549 L313 302 Q311 287 298.5 276.5 Q286 266 270 266 L225 266 Q209 266 199.5 276.5 Q190 287 192 302 L216 476 Q198 463 177.5 455.5 Q157 448 137 444 Q126 444 120 451.5 Q114 459 116 470 L123 521 Q125 532 133.5 539 Q142 546 153 549 Z " />
<glyph glyph-name="ordmasculine" unicode="&#xba;" horiz-adv-x="390" d="M278 585 Q308 585 332.5 574 Q357 563 373.5 543.5 Q390 524 398 497.5 Q406 471 401 441 Q397 411 382 384 Q367 357 344.5 337.5 Q322 318 294.5 306.5 Q267 295 237 295 Q207 295 182 306.5 Q157 318 139.5 337.5 Q122 357 114.5 384 Q107 411 111 441 Q116 471 131 497.5 Q146 524 168.5 543.5 Q191 563 219.5 574 Q248 585 278 585 Z M252 404 Q266 404 278 414.5 Q290 425 292 440 Q294 455 285 465 Q276 475 262 475 Q247 475 235 465 Q223 455 221 440 Q219 425 228 414.5 Q237 404 252 404 Z " />
<glyph glyph-name="guillemotright" unicode="&#xbb;" horiz-adv-x="707" d="M682 236 Q689 224 686 212 Q685 202 678 192 L553 46 Q534 24 513 12 Q492 0 472 0 L401 0 Q381 0 368.5 13 Q356 26 359 46 L502 212 L406 378 Q408 398 424 411 Q440 424 460 424 L531 424 Q551 424 569 412 Q587 400 600 378 L682 236 Z M379 236 Q386 224 383 212 Q382 202 375 192 L250 46 Q231 24 210 12 Q189 0 169 0 L98 0 Q78 0 65.5 13 Q53 26 56 46 L199 212 L103 378 Q105 398 121 411 Q137 424 157 424 L228 424 Q248 424 266 412 Q284 400 297 378 L379 236 Z " />
<glyph glyph-name="onequarter" unicode="&#xbc;" horiz-adv-x="854" d="M399 38 Q393 23 382 11.5 Q371 0 354 0 L293 0 Q276 0 265.5 11 Q255 22 257 38 L513 547 Q519 562 530.5 573.5 Q542 585 559 585 L620 585 Q637 585 647 574 Q657 563 655 547 L399 38 Z M672 144 L684 230 L611 144 L672 144 Z M153 549 Q190 560 221 578 Q228 585 242 585 L315 585 Q331 585 340.5 574.5 Q350 564 348 549 L313 302 Q311 287 298.5 276.5 Q286 266 270 266 L225 266 Q209 266 199.5 276.5 Q190 287 192 302 L216 476 Q198 463 177.5 455.5 Q157 448 137 444 Q126 444 120 451.5 Q114 459 116 470 L123 521 Q125 532 133.5 539 Q142 546 153 549 Z M502 134 Q505 150 515 160 L637 303 Q642 309 650.5 313.5 Q659 318 667 318 L779 318 Q795 318 804.5 307.5 Q814 297 812 282 L793 144 Q806 144 813.5 135 Q821 126 819 113 L814 72 Q812 59 801.5 50 Q791 41 778 41 L778 36 Q776 21 763.5 10.5 Q751 0 735 0 L690 0 Q674 0 664.5 10.5 Q655 21 657 36 L657 41 L520 41 Q507 41 499.5 50 Q492 59 494 72 L502 134 Z " />
<glyph glyph-name="onehalf" unicode="&#xbd;" horiz-adv-x="840" d="M399 38 Q393 23 382 11.5 Q371 0 354 0 L293 0 Q276 0 265.5 11 Q255 22 257 38 L513 547 Q519 562 530.5 573.5 Q542 585 559 585 L620 585 Q637 585 647 574 Q657 563 655 547 L399 38 Z M153 549 Q190 560 221 578 Q228 585 242 585 L315 585 Q331 585 340.5 574.5 Q350 564 348 549 L313 302 Q311 287 298.5 276.5 Q286 266 270 266 L225 266 Q209 266 199.5 276.5 Q190 287 192 302 L216 476 Q198 463 177.5 455.5 Q157 448 137 444 Q126 444 120 451.5 Q114 459 116 470 L123 521 Q125 532 133.5 539 Q142 546 153 549 Z M661 225 Q653 208 634 208 L579 208 Q568 208 560.5 215.5 Q553 223 555 234 Q569 279 604 305 Q639 331 693 331 Q732 331 758 321.5 Q784 312 799 296.5 Q814 281 818.5 260.5 Q823 240 820 219 Q817 198 806 181.5 Q795 165 778.5 151.5 Q762 138 741 126.5 Q720 115 697 103 L768 103 Q781 103 789 94 Q797 85 795 72 L789 31 Q787 18 777 9 Q767 0 754 0 L558 0 Q545 0 537 9 Q529 18 531 31 L536 69 Q537 75 537 76 L537 77 Q541 105 566 123.5 Q591 142 619.5 157 Q648 172 672 185.5 Q696 199 699 217 Q701 231 697.5 234.5 Q694 238 684 238 Q666 238 661 225 Z " />
<glyph glyph-name="threequarters" unicode="&#xbe;" horiz-adv-x="883" d="M428 38 Q422 23 411 11.5 Q400 0 383 0 L322 0 Q305 0 294.5 11 Q284 22 286 38 L542 547 Q548 562 559.5 573.5 Q571 585 588 585 L649 585 Q666 585 676 574 Q686 563 684 547 L428 38 Z M701 144 L713 230 L640 144 L701 144 Z M531 134 Q534 150 544 160 L666 303 Q671 309 679.5 313.5 Q688 318 696 318 L808 318 Q824 318 833.5 307.5 Q843 297 841 282 L822 144 Q835 144 842.5 135 Q850 126 848 113 L843 72 Q841 59 830.5 50 Q820 41 807 41 L807 36 Q805 21 792.5 10.5 Q780 0 764 0 L719 0 Q703 0 693.5 10.5 Q684 21 686 36 L686 41 L549 41 Q536 41 528.5 50 Q521 59 523 72 L531 134 Z M252 461 Q266 461 273.5 466 Q281 471 283 485 Q284 493 277 499 Q270 505 255 505 Q241 505 233 501.5 Q225 498 221 493 Q211 481 195 481 L146 481 Q134 481 126.5 491 Q119 501 121 512 Q138 556 177 577.5 Q216 599 271 599 Q354 599 383 571.5 Q412 544 405 496 Q402 475 385 452.5 Q368 430 329 426 Q361 420 374.5 398.5 Q388 377 386 357 Q379 309 342 281.5 Q305 254 222 254 Q170 254 136 274 Q102 294 97 339 Q99 350 109 360 Q119 370 131 370 L180 370 Q195 370 202 358 Q206 352 212.5 349.5 Q219 347 233 347 Q248 347 256.5 353 Q265 359 266 368 Q269 391 242 391 L225 391 Q217 391 212.5 397 Q208 403 209 411 L213 441 Q215 449 221 455 Q227 461 235 461 L252 461 Z " />
<glyph glyph-name="questiondown" unicode="&#xbf;" horiz-adv-x="601" d="M503 510 Q501 490 485 477 Q469 464 449 464 L351 464 Q331 464 319 477 Q307 490 309 510 L315 553 Q318 573 334 586 Q350 599 370 599 L468 599 Q488 599 500 586 Q512 573 509 553 L503 510 Z M393 164 Q399 177 412 186.5 Q425 196 440 196 L533 196 Q552 196 563 183.5 Q574 171 572 153 Q548 72 482.5 29.5 Q417 -13 317 -13 Q243 -13 193.5 1.5 Q144 16 115.5 41.5 Q87 67 77.5 101.5 Q68 136 74 176 Q79 210 96 238 Q113 266 140.5 291 Q168 316 206 339.5 Q244 363 292 388 Q295 411 311 424.5 Q327 438 347 438 L445 438 Q465 438 477 425 Q489 412 487 392 L479 339 Q477 326 470 316 Q463 306 452 300 Q439 294 411.5 282 Q384 270 356 253.5 Q328 237 306 218.5 Q284 200 281 180 Q277 155 288.5 140 Q300 125 327 125 Q355 125 370 136 Q385 147 393 164 Z " />
<glyph glyph-name="Agrave" unicode="&#xc0;" horiz-adv-x="607" d="M228 802 Q231 821 245.5 833.5 Q260 846 280 846 L376 846 Q396 846 404.5 832.5 Q413 819 420 802 L453 696 Q451 677 436 664.5 Q421 652 401 652 L335 652 Q321 652 313 659 Q305 666 299 677 L228 802 Z M469 585 Q489 585 500.5 571.5 Q512 558 515 539 L608 46 Q605 26 589.5 13 Q574 0 554 0 L450 0 Q430 0 420 13.5 Q410 27 408 46 L399 125 L243 125 L211 46 Q203 27 190 13.5 Q177 0 157 0 L53 0 Q33 0 20.5 13 Q8 26 11 46 L240 539 Q249 558 264.5 571.5 Q280 585 300 585 L469 585 Z M293 250 L385 250 L363 426 L293 250 Z " />
<glyph glyph-name="Aacute" unicode="&#xc1;" horiz-adv-x="607" d="M498 677 Q489 666 478.5 659 Q468 652 454 652 L388 652 Q368 652 357 664.5 Q346 677 348 696 L411 802 Q422 819 434.5 832.5 Q447 846 467 846 L563 846 Q583 846 594.5 833.5 Q606 821 603 802 L498 677 Z M469 585 Q489 585 500.5 571.5 Q512 558 515 539 L608 46 Q605 26 589.5 13 Q574 0 554 0 L450 0 Q430 0 420 13.5 Q410 27 408 46 L399 125 L243 125 L211 46 Q203 27 190 13.5 Q177 0 157 0 L53 0 Q33 0 20.5 13 Q8 26 11 46 L240 539 Q249 558 264.5 571.5 Q280 585 300 585 L469 585 Z M293 250 L385 250 L363 426 L293 250 Z " />
<glyph glyph-name="Acircumflex" unicode="&#xc2;" horiz-adv-x="607" d="M469 585 Q489 585 500.5 571.5 Q512 558 515 539 L608 46 Q605 26 589.5 13 Q574 0 554 0 L450 0 Q430 0 420 13.5 Q410 27 408 46 L399 125 L243 125 L211 46 Q203 27 190 13.5 Q177 0 157 0 L53 0 Q33 0 20.5 13 Q8 26 11 46 L240 539 Q249 558 264.5 571.5 Q280 585 300 585 L469 585 Z M293 250 L385 250 L363 426 L293 250 Z M575 685 Q573 671 561.5 661.5 Q550 652 536 652 L456 652 Q442 652 434 661.5 Q426 671 422 685 L407 734 L378 685 Q370 671 359 661.5 Q348 652 334 652 L254 652 Q240 652 231.5 661.5 Q223 671 225 685 L337 846 Q346 859 355.5 869 Q365 879 379 879 L475 879 Q489 879 495.5 869 Q502 859 507 846 L575 685 Z " />
<glyph glyph-name="Atilde" unicode="&#xc3;" horiz-adv-x="607" d="M469 585 Q489 585 500.5 571.5 Q512 558 515 539 L608 46 Q605 26 589.5 13 Q574 0 554 0 L450 0 Q430 0 420 13.5 Q410 27 408 46 L399 125 L243 125 L211 46 Q203 27 190 13.5 Q177 0 157 0 L53 0 Q33 0 20.5 13 Q8 26 11 46 L240 539 Q249 558 264.5 571.5 Q280 585 300 585 L469 585 Z M293 250 L385 250 L363 426 L293 250 Z M457 652 Q440 652 424.5 657.5 Q409 663 393.5 669 Q378 675 362.5 680.5 Q347 686 329 686 Q323 686 312 684 Q301 682 290 679 Q284 676 278 676 Q267 676 257.5 682.5 Q248 689 245 700 L234 749 Q231 755 233 762 Q235 773 241.5 782 Q248 791 258 795 Q283 806 307.5 810 Q332 814 347 814 Q364 814 379.5 808.5 Q395 803 410.5 797 Q426 791 441.5 785.5 Q457 780 475 780 Q481 780 492 782 Q503 784 514 787 Q520 790 527 790 Q538 790 547 783.5 Q556 777 559 766 L570 717 Q573 711 571 704 Q569 693 563 684 Q557 675 546 671 Q521 660 496.5 656 Q472 652 457 652 Z " />
<glyph glyph-name="Adieresis" unicode="&#xc4;" horiz-adv-x="607" d="M469 585 Q489 585 500.5 571.5 Q512 558 515 539 L608 46 Q605 26 589.5 13 Q574 0 554 0 L450 0 Q430 0 420 13.5 Q410 27 408 46 L399 125 L243 125 L211 46 Q203 27 190 13.5 Q177 0 157 0 L53 0 Q33 0 20.5 13 Q8 26 11 46 L240 539 Q249 558 264.5 571.5 Q280 585 300 585 L469 585 Z M293 250 L385 250 L363 426 L293 250 Z M377 695 Q375 677 360 664.5 Q345 652 326 652 L250 652 Q231 652 220.5 664.5 Q210 677 212 695 L223 771 Q225 789 239.5 801.5 Q254 814 273 814 L349 814 Q368 814 379 801.5 Q390 789 388 771 L377 695 Z M589 695 Q587 677 572 664.5 Q557 652 538 652 L462 652 Q443 652 432.5 664.5 Q422 677 424 695 L435 771 Q437 789 451.5 801.5 Q466 814 485 814 L561 814 Q580 814 591 801.5 Q602 789 600 771 L589 695 Z " />
<glyph glyph-name="Aring" unicode="&#xc5;" horiz-adv-x="607" d="M435 942 Q465 942 489.5 931 Q514 920 531 900.5 Q548 881 555.5 854.5 Q563 828 559 798 Q555 768 539.5 741 Q524 714 501.5 694.5 Q479 675 451.5 663.5 Q424 652 394 652 Q364 652 339 663.5 Q314 675 297 694.5 Q280 714 272.5 741 Q265 768 269 798 Q273 828 288 854.5 Q303 881 325.5 900.5 Q348 920 376.5 931 Q405 942 435 942 Z M409 761 Q423 761 435.5 771.5 Q448 782 450 797 Q452 812 442.5 822 Q433 832 419 832 Q404 832 392.5 822 Q381 812 379 797 Q377 782 385.5 771.5 Q394 761 409 761 Z M469 585 Q489 585 500.5 571.5 Q512 558 515 539 L608 46 Q605 26 589.5 13 Q574 0 554 0 L450 0 Q430 0 420 13.5 Q410 27 408 46 L399 125 L243 125 L211 46 Q203 27 190 13.5 Q177 0 157 0 L53 0 Q33 0 20.5 13 Q8 26 11 46 L240 539 Q249 558 264.5 571.5 Q280 585 300 585 L469 585 Z M293 250 L385 250 L363 426 L293 250 Z " />
<glyph glyph-name="AE" unicode="&#xc6;" horiz-adv-x="943" d="M499 261 L523 434 L385 261 L499 261 Z M193 22 Q185 12 175.5 6 Q166 0 152 0 L48 0 Q28 0 15.5 13 Q3 26 6 46 L405 559 Q411 570 423 577.5 Q435 585 447 585 L954 585 Q971 585 981 572 Q991 559 989 542 L980 477 Q977 460 963 447 Q949 434 932 434 L717 434 L707 359 L862 359 Q877 359 886 347.5 Q895 336 893 320 L885 262 Q883 246 870.5 234.5 Q858 223 843 223 L688 223 L678 151 L893 151 Q910 151 920 138 Q930 125 928 108 L919 43 Q916 26 902.5 13 Q889 0 872 0 L504 0 Q487 0 476.5 13 Q466 26 469 43 L481 134 L283 134 L193 22 Z " />
<glyph glyph-name="Ccedilla" unicode="&#xc7;" horiz-adv-x="630" d="M628 166 Q601 94 535.5 47 Q470 0 371 -10 L367 -37 Q391 -38 409 -48 Q426 -57 436.5 -75.5 Q447 -94 442 -128 Q438 -154 423.5 -175 Q409 -196 387 -210.5 Q365 -225 338.5 -233 Q312 -241 285 -241 Q270 -241 252.5 -239 Q235 -237 223 -235 Q212 -235 205 -226 Q198 -217 200 -206 L205 -165 Q207 -154 216.5 -145 Q226 -136 237 -136 Q241 -137 246 -137 Q251 -137 255 -137 Q263 -137 272.5 -136 Q282 -135 291 -132.5 Q300 -130 306 -125.5 Q312 -121 313 -114 Q315 -100 299.5 -93 Q284 -86 267 -86 Q258 -86 253.5 -79.5 Q249 -73 250 -65 L268 -9 Q201 0 158.5 31.5 Q116 63 93.5 106 Q71 149 65 197 Q59 245 65 287 Q72 336 94.5 391 Q117 446 158.5 492 Q200 538 261.5 568.5 Q323 599 407 599 Q526 599 591 547.5 Q656 496 663 415 Q660 392 646 386 Q632 380 613 380 L493 380 Q474 380 467 388 Q460 396 453 417 Q447 436 427 448.5 Q407 461 387 461 Q362 461 340.5 447 Q319 433 302.5 409 Q286 385 275 353.5 Q264 322 259 287 Q255 255 257.5 225.5 Q260 196 269.5 173.5 Q279 151 297 138 Q315 125 340 125 Q360 125 381.5 134.5 Q403 144 418 164 Q430 185 439 193 Q448 201 467 201 L587 201 Q606 201 618.5 195 Q631 189 628 166 Z " />
<glyph glyph-name="Egrave" unicode="&#xc8;" horiz-adv-x="525" d="M444 359 Q459 359 468 347.5 Q477 336 475 320 L467 262 Q465 246 452.5 234.5 Q440 223 425 223 L270 223 L260 151 L475 151 Q492 151 502 138 Q512 125 510 108 L501 43 Q498 26 484.5 13 Q471 0 454 0 L93 0 Q73 0 60.5 13 Q48 26 51 46 L120 539 Q123 559 139 572 Q155 585 175 585 L536 585 Q553 585 563 572 Q573 559 571 542 L562 477 Q559 460 545 447 Q531 434 514 434 L299 434 L289 359 L444 359 Z M238 802 Q241 821 255.5 833.5 Q270 846 290 846 L386 846 Q406 846 414.5 832.5 Q423 819 430 802 L463 696 Q461 677 446 664.5 Q431 652 411 652 L345 652 Q331 652 323 659 Q315 666 309 677 L238 802 Z " />
<glyph glyph-name="Eacute" unicode="&#xc9;" horiz-adv-x="525" d="M444 359 Q459 359 468 347.5 Q477 336 475 320 L467 262 Q465 246 452.5 234.5 Q440 223 425 223 L270 223 L260 151 L475 151 Q492 151 502 138 Q512 125 510 108 L501 43 Q498 26 484.5 13 Q471 0 454 0 L93 0 Q73 0 60.5 13 Q48 26 51 46 L120 539 Q123 559 139 572 Q155 585 175 585 L536 585 Q553 585 563 572 Q573 559 571 542 L562 477 Q559 460 545 447 Q531 434 514 434 L299 434 L289 359 L444 359 Z M437 677 Q428 666 417.5 659 Q407 652 393 652 L327 652 Q307 652 296 664.5 Q285 677 287 696 L350 802 Q361 819 373.5 832.5 Q386 846 406 846 L502 846 Q522 846 533.5 833.5 Q545 821 542 802 L437 677 Z " />
<glyph glyph-name="Ecircumflex" unicode="&#xca;" horiz-adv-x="525" d="M444 359 Q459 359 468 347.5 Q477 336 475 320 L467 262 Q465 246 452.5 234.5 Q440 223 425 223 L270 223 L260 151 L475 151 Q492 151 502 138 Q512 125 510 108 L501 43 Q498 26 484.5 13 Q471 0 454 0 L93 0 Q73 0 60.5 13 Q48 26 51 46 L120 539 Q123 559 139 572 Q155 585 175 585 L536 585 Q553 585 563 572 Q573 559 571 542 L562 477 Q559 460 545 447 Q531 434 514 434 L299 434 L289 359 L444 359 Z M544 685 Q542 671 530.5 661.5 Q519 652 505 652 L425 652 Q411 652 403 661.5 Q395 671 391 685 L376 734 L347 685 Q339 671 328 661.5 Q317 652 303 652 L223 652 Q209 652 200.5 661.5 Q192 671 194 685 L306 846 Q315 859 324.5 869 Q334 879 348 879 L444 879 Q458 879 464.5 869 Q471 859 476 846 L544 685 Z " />
<glyph glyph-name="Edieresis" unicode="&#xcb;" horiz-adv-x="525" d="M444 359 Q459 359 468 347.5 Q477 336 475 320 L467 262 Q465 246 452.5 234.5 Q440 223 425 223 L270 223 L260 151 L475 151 Q492 151 502 138 Q512 125 510 108 L501 43 Q498 26 484.5 13 Q471 0 454 0 L93 0 Q73 0 60.5 13 Q48 26 51 46 L120 539 Q123 559 139 572 Q155 585 175 585 L536 585 Q553 585 563 572 Q573 559 571 542 L562 477 Q559 460 545 447 Q531 434 514 434 L299 434 L289 359 L444 359 Z M349 695 Q347 677 332 664.5 Q317 652 298 652 L222 652 Q203 652 192.5 664.5 Q182 677 184 695 L195 771 Q197 789 211.5 801.5 Q226 814 245 814 L321 814 Q340 814 351 801.5 Q362 789 360 771 L349 695 Z M563 695 Q561 677 546 664.5 Q531 652 512 652 L436 652 Q417 652 406.5 664.5 Q396 677 398 695 L409 771 Q411 789 425.5 801.5 Q440 814 459 814 L535 814 Q554 814 565 801.5 Q576 789 574 771 L563 695 Z " />
<glyph glyph-name="Igrave" unicode="&#xcc;" horiz-adv-x="284" d="M245 46 Q242 26 226.5 13 Q211 0 191 0 L93 0 Q73 0 60.5 13 Q48 26 51 46 L120 539 Q123 559 139 572 Q155 585 175 585 L273 585 Q293 585 305 572 Q317 559 314 539 L245 46 Z M71 802 Q74 821 88.5 833.5 Q103 846 123 846 L219 846 Q239 846 247.5 832.5 Q256 819 263 802 L296 696 Q294 677 279 664.5 Q264 652 244 652 L178 652 Q164 652 156 659 Q148 666 142 677 L71 802 Z " />
<glyph glyph-name="Iacute" unicode="&#xcd;" horiz-adv-x="284" d="M245 46 Q242 26 226.5 13 Q211 0 191 0 L93 0 Q73 0 60.5 13 Q48 26 51 46 L120 539 Q123 559 139 572 Q155 585 175 585 L273 585 Q293 585 305 572 Q317 559 314 539 L245 46 Z M334 677 Q325 666 314.5 659 Q304 652 290 652 L224 652 Q204 652 193 664.5 Q182 677 184 696 L247 802 Q258 819 270.5 832.5 Q283 846 303 846 L399 846 Q419 846 430.5 833.5 Q442 821 439 802 L334 677 Z " />
<glyph glyph-name="Icircumflex" unicode="&#xce;" horiz-adv-x="284" d="M245 46 Q242 26 226.5 13 Q211 0 191 0 L93 0 Q73 0 60.5 13 Q48 26 51 46 L120 539 Q123 559 139 572 Q155 585 175 585 L273 585 Q293 585 305 572 Q317 559 314 539 L245 46 Z M414 685 Q412 671 400.5 661.5 Q389 652 375 652 L295 652 Q281 652 273 661.5 Q265 671 261 685 L246 734 L217 685 Q209 671 198 661.5 Q187 652 173 652 L93 652 Q79 652 70.5 661.5 Q62 671 64 685 L176 846 Q185 859 194.5 869 Q204 879 218 879 L314 879 Q328 879 334.5 869 Q341 859 346 846 L414 685 Z " />
<glyph glyph-name="Idieresis" unicode="&#xcf;" horiz-adv-x="284" d="M245 46 Q242 26 226.5 13 Q211 0 191 0 L93 0 Q73 0 60.5 13 Q48 26 51 46 L120 539 Q123 559 139 572 Q155 585 175 585 L273 585 Q293 585 305 572 Q317 559 314 539 L245 46 Z M216 695 Q214 677 199 664.5 Q184 652 165 652 L89 652 Q70 652 59.5 664.5 Q49 677 51 695 L62 771 Q64 789 78.5 801.5 Q93 814 112 814 L188 814 Q207 814 218 801.5 Q229 789 227 771 L216 695 Z M428 695 Q426 677 411 664.5 Q396 652 377 652 L301 652 Q282 652 271.5 664.5 Q261 677 263 695 L274 771 Q276 789 290.5 801.5 Q305 814 324 814 L400 814 Q419 814 430 801.5 Q441 789 439 771 L428 695 Z " />
<glyph glyph-name="Eth" unicode="&#xd0;" horiz-adv-x="624" d="M383 585 Q467 585 520 558 Q573 531 602 488.5 Q631 446 639 394 Q647 342 640 293 Q633 247 611 195.5 Q589 144 548 100.5 Q507 57 446 28.5 Q385 0 301 0 L113 0 Q93 0 80.5 13 Q68 26 71 46 L96 222 L72 222 Q55 222 45 235 Q35 248 37 265 L45 327 Q48 344 62 357 Q76 370 93 370 L117 370 L140 539 Q143 559 159 572 Q175 585 195 585 L383 585 Z M290 222 L280 151 L322 151 Q373 151 405 189.5 Q437 228 446 293 Q466 434 361 434 L319 434 L311 370 L342 370 Q359 370 369 357 Q379 344 376 327 L368 265 Q366 248 352 235 Q338 222 321 222 L290 222 Z " />
<glyph glyph-name="Ntilde" unicode="&#xd1;" horiz-adv-x="662" d="M465 301 L498 539 Q501 559 517 572 Q533 585 553 585 L651 585 Q671 585 683 572 Q695 559 692 539 L623 46 Q620 26 604.5 13 Q589 0 569 0 L460 0 Q425 0 415 29 L278 281 L245 46 Q242 26 226.5 13 Q211 0 191 0 L93 0 Q73 0 60.5 13 Q48 26 51 46 L120 539 Q123 559 139 572 Q155 585 175 585 L284 585 Q319 585 330 556 L465 301 Z M489 652 Q472 652 456.5 657.5 Q441 663 425.5 669 Q410 675 394.5 680.5 Q379 686 361 686 Q355 686 344 684 Q333 682 322 679 Q316 676 310 676 Q299 676 289.5 682.5 Q280 689 277 700 L266 749 Q263 755 265 762 Q267 773 273.5 782 Q280 791 290 795 Q315 806 339.5 810 Q364 814 379 814 Q396 814 411.5 808.5 Q427 803 442.5 797 Q458 791 473.5 785.5 Q489 780 507 780 Q513 780 524 782 Q535 784 546 787 Q552 790 559 790 Q570 790 579 783.5 Q588 777 591 766 L602 717 Q605 711 603 704 Q601 693 595 684 Q589 675 578 671 Q553 660 528.5 656 Q504 652 489 652 Z " />
<glyph glyph-name="Ograve" unicode="&#xd2;" horiz-adv-x="658" d="M346 125 Q373 125 395.5 138 Q418 151 435 173.5 Q452 196 463.5 225.5 Q475 255 479 287 Q484 322 481.5 353.5 Q479 385 468.5 409 Q458 433 439 447 Q420 461 393 461 Q366 461 343.5 447 Q321 433 303.5 409 Q286 385 275 353.5 Q264 322 259 287 Q255 255 257.5 225.5 Q260 196 270.5 173.5 Q281 151 300 138 Q319 125 346 125 Z M327 -14 Q243 -14 189 15.5 Q135 45 105.5 90 Q76 135 67.5 188 Q59 241 65 287 Q72 336 95.5 391 Q119 446 161.5 492 Q204 538 266.5 568.5 Q329 599 413 599 Q497 599 550.5 568.5 Q604 538 633.5 492 Q663 446 671.5 391 Q680 336 673 287 Q667 241 643.5 188 Q620 135 577.5 90 Q535 45 473 15.5 Q411 -14 327 -14 Z M261 802 Q264 821 278.5 833.5 Q293 846 313 846 L409 846 Q429 846 437.5 832.5 Q446 819 453 802 L486 696 Q484 677 469 664.5 Q454 652 434 652 L368 652 Q354 652 346 659 Q338 666 332 677 L261 802 Z " />
<glyph glyph-name="Oacute" unicode="&#xd3;" horiz-adv-x="658" d="M346 125 Q373 125 395.5 138 Q418 151 435 173.5 Q452 196 463.5 225.5 Q475 255 479 287 Q484 322 481.5 353.5 Q479 385 468.5 409 Q458 433 439 447 Q420 461 393 461 Q366 461 343.5 447 Q321 433 303.5 409 Q286 385 275 353.5 Q264 322 259 287 Q255 255 257.5 225.5 Q260 196 270.5 173.5 Q281 151 300 138 Q319 125 346 125 Z M327 -14 Q243 -14 189 15.5 Q135 45 105.5 90 Q76 135 67.5 188 Q59 241 65 287 Q72 336 95.5 391 Q119 446 161.5 492 Q204 538 266.5 568.5 Q329 599 413 599 Q497 599 550.5 568.5 Q604 538 633.5 492 Q663 446 671.5 391 Q680 336 673 287 Q667 241 643.5 188 Q620 135 577.5 90 Q535 45 473 15.5 Q411 -14 327 -14 Z M515 677 Q506 666 495.5 659 Q485 652 471 652 L405 652 Q385 652 374 664.5 Q363 677 365 696 L428 802 Q439 819 451.5 832.5 Q464 846 484 846 L580 846 Q600 846 611.5 833.5 Q623 821 620 802 L515 677 Z " />
<glyph glyph-name="Ocircumflex" unicode="&#xd4;" horiz-adv-x="658" d="M346 125 Q373 125 395.5 138 Q418 151 435 173.5 Q452 196 463.5 225.5 Q475 255 479 287 Q484 322 481.5 353.5 Q479 385 468.5 409 Q458 433 439 447 Q420 461 393 461 Q366 461 343.5 447 Q321 433 303.5 409 Q286 385 275 353.5 Q264 322 259 287 Q255 255 257.5 225.5 Q260 196 270.5 173.5 Q281 151 300 138 Q319 125 346 125 Z M327 -14 Q243 -14 189 15.5 Q135 45 105.5 90 Q76 135 67.5 188 Q59 241 65 287 Q72 336 95.5 391 Q119 446 161.5 492 Q204 538 266.5 568.5 Q329 599 413 599 Q497 599 550.5 568.5 Q604 538 633.5 492 Q663 446 671.5 391 Q680 336 673 287 Q667 241 643.5 188 Q620 135 577.5 90 Q535 45 473 15.5 Q411 -14 327 -14 Z M599 685 Q597 671 585.5 661.5 Q574 652 560 652 L480 652 Q466 652 458 661.5 Q450 671 446 685 L431 734 L402 685 Q394 671 383 661.5 Q372 652 358 652 L278 652 Q264 652 255.5 661.5 Q247 671 249 685 L361 846 Q370 859 379.5 869 Q389 879 403 879 L499 879 Q513 879 519.5 869 Q526 859 531 846 L599 685 Z " />
<glyph glyph-name="Otilde" unicode="&#xd5;" horiz-adv-x="658" d="M346 125 Q373 125 395.5 138 Q418 151 435 173.5 Q452 196 463.5 225.5 Q475 255 479 287 Q484 322 481.5 353.5 Q479 385 468.5 409 Q458 433 439 447 Q420 461 393 461 Q366 461 343.5 447 Q321 433 303.5 409 Q286 385 275 353.5 Q264 322 259 287 Q255 255 257.5 225.5 Q260 196 270.5 173.5 Q281 151 300 138 Q319 125 346 125 Z M327 -14 Q243 -14 189 15.5 Q135 45 105.5 90 Q76 135 67.5 188 Q59 241 65 287 Q72 336 95.5 391 Q119 446 161.5 492 Q204 538 266.5 568.5 Q329 599 413 599 Q497 599 550.5 568.5 Q604 538 633.5 492 Q663 446 671.5 391 Q680 336 673 287 Q667 241 643.5 188 Q620 135 577.5 90 Q535 45 473 15.5 Q411 -14 327 -14 Z M485 652 Q468 652 452.5 657.5 Q437 663 421.5 669 Q406 675 390.5 680.5 Q375 686 357 686 Q351 686 340 684 Q329 682 318 679 Q312 676 306 676 Q295 676 285.5 682.5 Q276 689 273 700 L262 749 Q259 755 261 762 Q263 773 269.5 782 Q276 791 286 795 Q311 806 335.5 810 Q360 814 375 814 Q392 814 407.5 808.5 Q423 803 438.5 797 Q454 791 469.5 785.5 Q485 780 503 780 Q509 780 520 782 Q531 784 542 787 Q548 790 555 790 Q566 790 575 783.5 Q584 777 587 766 L598 717 Q601 711 599 704 Q597 693 591 684 Q585 675 574 671 Q549 660 524.5 656 Q500 652 485 652 Z " />
<glyph glyph-name="Odieresis" unicode="&#xd6;" horiz-adv-x="658" d="M346 125 Q373 125 395.5 138 Q418 151 435 173.5 Q452 196 463.5 225.5 Q475 255 479 287 Q484 322 481.5 353.5 Q479 385 468.5 409 Q458 433 439 447 Q420 461 393 461 Q366 461 343.5 447 Q321 433 303.5 409 Q286 385 275 353.5 Q264 322 259 287 Q255 255 257.5 225.5 Q260 196 270.5 173.5 Q281 151 300 138 Q319 125 346 125 Z M327 -14 Q243 -14 189 15.5 Q135 45 105.5 90 Q76 135 67.5 188 Q59 241 65 287 Q72 336 95.5 391 Q119 446 161.5 492 Q204 538 266.5 568.5 Q329 599 413 599 Q497 599 550.5 568.5 Q604 538 633.5 492 Q663 446 671.5 391 Q680 336 673 287 Q667 241 643.5 188 Q620 135 577.5 90 Q535 45 473 15.5 Q411 -14 327 -14 Z M403 695 Q401 677 386 664.5 Q371 652 352 652 L276 652 Q257 652 246.5 664.5 Q236 677 238 695 L249 771 Q251 789 265.5 801.5 Q280 814 299 814 L375 814 Q394 814 405 801.5 Q416 789 414 771 L403 695 Z M615 695 Q613 677 598 664.5 Q583 652 564 652 L488 652 Q469 652 458.5 664.5 Q448 677 450 695 L461 771 Q463 789 477.5 801.5 Q492 814 511 814 L587 814 Q606 814 617 801.5 Q628 789 626 771 L615 695 Z " />
<glyph glyph-name="multiply" unicode="&#xd7;" horiz-adv-x="488" d="M220 59 Q206 42 191.5 39.5 Q177 37 169 37 L99 37 Q80 37 69 49 Q58 61 61 79 L171 211 L98 343 Q100 361 114.5 373 Q129 385 148 385 L218 385 Q226 385 240 382.5 Q254 380 263 363 L288 318 L327 363 Q341 380 355.5 382.5 Q370 385 378 385 L448 385 Q467 385 477.5 373 Q488 361 486 343 L375 211 L449 79 Q446 61 432 49 Q418 37 399 37 L329 37 Q321 37 307 39.5 Q293 42 284 59 L258 104 L220 59 Z " />
<glyph glyph-name="Oslash" unicode="&#xd8;" horiz-adv-x="658" d="M259 287 Q251 232 263 192 L399 461 L393 461 Q366 461 343.5 447 Q321 433 303.5 409 Q286 385 275 353.5 Q264 322 259 287 Z M346 125 Q373 125 395.5 138 Q418 151 435 173.5 Q452 196 463.5 225.5 Q475 255 479 287 Q487 345 475 388 L342 125 L346 125 Z M178 22 Q141 44 116.5 75.5 Q92 107 79 143 Q66 179 63 216.5 Q60 254 65 287 Q72 336 95.5 391 Q119 446 161.5 492 Q204 538 266.5 568.5 Q329 599 413 599 Q427 599 440 598 Q453 597 467 595 L496 651 Q502 663 510.5 673 Q519 683 533 683 L579 683 Q593 683 601.5 674 Q610 665 608 651 L562 561 Q599 539 623 506.5 Q647 474 659.5 437 Q672 400 675 361 Q678 322 673 287 Q667 241 643.5 188 Q620 135 577.5 90 Q535 45 473 15.5 Q411 -14 327 -14 Q313 -14 299.5 -13 Q286 -12 274 -10 L245 -69 Q239 -81 229.5 -91 Q220 -101 206 -101 L160 -101 Q146 -101 138 -92 Q130 -83 132 -69 L178 22 Z " />
<glyph glyph-name="Ugrave" unicode="&#xd9;" horiz-adv-x="659" d="M115 539 Q118 559 134 572 Q150 585 170 585 L268 585 Q288 585 300 572 Q312 559 309 539 L270 261 Q261 196 276 160.5 Q291 125 346 125 Q401 125 426.5 160.5 Q452 196 461 261 L500 539 Q503 559 519 572 Q535 585 555 585 L653 585 Q673 585 685 572 Q697 559 694 539 L655 261 Q649 215 628.5 166 Q608 117 569 77 Q530 37 470.5 11.5 Q411 -14 327 -14 Q243 -14 191 11.5 Q139 37 111 77 Q83 117 76.5 166 Q70 215 76 261 L115 539 Z M259 802 Q262 821 276.5 833.5 Q291 846 311 846 L407 846 Q427 846 435.5 832.5 Q444 819 451 802 L484 696 Q482 677 467 664.5 Q452 652 432 652 L366 652 Q352 652 344 659 Q336 666 330 677 L259 802 Z " />
<glyph glyph-name="Uacute" unicode="&#xda;" horiz-adv-x="659" d="M115 539 Q118 559 134 572 Q150 585 170 585 L268 585 Q288 585 300 572 Q312 559 309 539 L270 261 Q261 196 276 160.5 Q291 125 346 125 Q401 125 426.5 160.5 Q452 196 461 261 L500 539 Q503 559 519 572 Q535 585 555 585 L653 585 Q673 585 685 572 Q697 559 694 539 L655 261 Q649 215 628.5 166 Q608 117 569 77 Q530 37 470.5 11.5 Q411 -14 327 -14 Q243 -14 191 11.5 Q139 37 111 77 Q83 117 76.5 166 Q70 215 76 261 L115 539 Z M521 677 Q512 666 501.5 659 Q491 652 477 652 L411 652 Q391 652 380 664.5 Q369 677 371 696 L434 802 Q445 819 457.5 832.5 Q470 846 490 846 L586 846 Q606 846 617.5 833.5 Q629 821 626 802 L521 677 Z " />
<glyph glyph-name="Ucircumflex" unicode="&#xdb;" horiz-adv-x="659" d="M115 539 Q118 559 134 572 Q150 585 170 585 L268 585 Q288 585 300 572 Q312 559 309 539 L270 261 Q261 196 276 160.5 Q291 125 346 125 Q401 125 426.5 160.5 Q452 196 461 261 L500 539 Q503 559 519 572 Q535 585 555 585 L653 585 Q673 585 685 572 Q697 559 694 539 L655 261 Q649 215 628.5 166 Q608 117 569 77 Q530 37 470.5 11.5 Q411 -14 327 -14 Q243 -14 191 11.5 Q139 37 111 77 Q83 117 76.5 166 Q70 215 76 261 L115 539 Z M599 685 Q597 671 585.5 661.5 Q574 652 560 652 L480 652 Q466 652 458 661.5 Q450 671 446 685 L431 734 L402 685 Q394 671 383 661.5 Q372 652 358 652 L278 652 Q264 652 255.5 661.5 Q247 671 249 685 L361 846 Q370 859 379.5 869 Q389 879 403 879 L499 879 Q513 879 519.5 869 Q526 859 531 846 L599 685 Z " />
<glyph glyph-name="Udieresis" unicode="&#xdc;" horiz-adv-x="659" d="M115 539 Q118 559 134 572 Q150 585 170 585 L268 585 Q288 585 300 572 Q312 559 309 539 L270 261 Q261 196 276 160.5 Q291 125 346 125 Q401 125 426.5 160.5 Q452 196 461 261 L500 539 Q503 559 519 572 Q535 585 555 585 L653 585 Q673 585 685 572 Q697 559 694 539 L655 261 Q649 215 628.5 166 Q608 117 569 77 Q530 37 470.5 11.5 Q411 -14 327 -14 Q243 -14 191 11.5 Q139 37 111 77 Q83 117 76.5 166 Q70 215 76 261 L115 539 Z M401 695 Q399 677 384 664.5 Q369 652 350 652 L274 652 Q255 652 244.5 664.5 Q234 677 236 695 L247 771 Q249 789 263.5 801.5 Q278 814 297 814 L373 814 Q392 814 403 801.5 Q414 789 412 771 L401 695 Z M615 695 Q613 677 598 664.5 Q583 652 564 652 L488 652 Q469 652 458.5 664.5 Q448 677 450 695 L461 771 Q463 789 477.5 801.5 Q492 814 511 814 L587 814 Q606 814 617 801.5 Q628 789 626 771 L615 695 Z " />
<glyph glyph-name="Yacute" unicode="&#xdd;" horiz-adv-x="612" d="M409 46 Q406 26 390.5 13 Q375 0 355 0 L257 0 Q237 0 224.5 13 Q212 26 215 46 L235 188 L85 539 Q88 559 104 572 Q120 585 140 585 L239 585 Q259 585 268.5 571 Q278 557 284 539 L355 350 L478 539 Q490 557 503.5 571 Q517 585 537 585 L636 585 Q656 585 668 572 Q680 559 677 539 L429 189 L409 46 Z M494 677 Q485 666 474.5 659 Q464 652 450 652 L384 652 Q364 652 353 664.5 Q342 677 344 696 L407 802 Q418 819 430.5 832.5 Q443 846 463 846 L559 846 Q579 846 590.5 833.5 Q602 821 599 802 L494 677 Z " />
<glyph glyph-name="Thorn" unicode="&#xde;" horiz-adv-x="574" d="M343 236 Q370 236 390.5 252 Q411 268 415 298 Q420 328 403.5 344.5 Q387 361 360 361 L289 361 L272 236 L343 236 Z M120 539 Q123 559 139 572 Q155 585 175 585 L273 585 Q293 585 305 572 Q317 559 314 539 L310 512 L385 512 Q455 512 499 491.5 Q543 471 567 439.5 Q591 408 598.5 370.5 Q606 333 601 299 Q596 265 578.5 227.5 Q561 190 528 158.5 Q495 127 445 106 Q395 85 325 85 L250 85 L245 46 Q242 26 226.5 13 Q211 0 191 0 L93 0 Q73 0 60.5 13 Q48 26 51 46 L120 539 Z " />
<glyph glyph-name="germandbls" unicode="&#xdf;" horiz-adv-x="586" d="M347 228 Q333 228 324.5 238 Q316 248 318 263 L326 314 Q328 328 338.5 338 Q349 348 363 348 Q385 352 399 365 Q413 378 415 396 Q418 417 403.5 432 Q389 447 362 447 L354 447 Q327 447 309 432 Q291 417 288 396 L239 46 Q236 26 220.5 13 Q205 0 185 0 L88 0 Q68 0 55.5 13 Q43 26 46 46 L96 402 Q101 436 119 468.5 Q137 501 170.5 527 Q204 553 254 569 Q304 585 374 585 L382 585 Q452 585 496.5 569 Q541 553 566 527 Q591 501 598.5 468.5 Q606 436 601 402 Q597 375 578.5 347.5 Q560 320 517 305 Q543 299 560 286 Q577 273 586 256.5 Q595 240 597 221.5 Q599 203 597 186 Q592 152 575.5 119 Q559 86 526.5 59.5 Q494 33 445 16.5 Q396 0 326 0 L309 0 Q293 0 283.5 11.5 Q274 23 276 40 L284 99 Q287 116 299.5 127.5 Q312 139 328 139 L345 139 Q372 139 390.5 151.5 Q409 164 412 185 Q414 206 399.5 217 Q385 228 358 228 L347 228 Z " />
<glyph glyph-name="agrave" unicode="&#xe0;" horiz-adv-x="518" d="M226 143 Q224 126 236 121.5 Q248 117 264 117 Q273 117 286 120 Q299 123 311 128 L318 172 Q308 172 293 170.5 Q278 169 263.5 166 Q249 163 238 157.5 Q227 152 226 143 Z M237 304 Q226 289 217.5 285.5 Q209 282 195 282 L112 282 Q98 282 90 286.5 Q82 291 84 307 Q99 345 123 370.5 Q147 396 176.5 411.5 Q206 427 239.5 433.5 Q273 440 309 440 Q377 440 421 426.5 Q465 413 489.5 385.5 Q514 358 520 316 Q526 274 518 216 L494 46 Q491 26 475.5 13 Q460 0 440 0 L342 0 Q322 0 309.5 13 Q297 26 300 46 Q258 7 226.5 -3 Q195 -13 170 -13 Q146 -13 121 -4.5 Q96 4 77 21.5 Q58 39 48 66.5 Q38 94 43 133 Q50 180 79.5 205.5 Q109 231 150.5 243.5 Q192 256 240 258.5 Q288 261 330 261 Q333 291 323.5 306.5 Q314 322 286 322 Q269 322 257 319 Q245 316 237 304 Z M211 657 Q213 676 228 688.5 Q243 701 263 701 L359 701 Q379 701 387.5 687.5 Q396 674 403 657 L436 551 Q433 532 418.5 519.5 Q404 507 384 507 L318 507 Q304 507 295.5 514 Q287 521 281 532 L211 657 Z " />
<glyph glyph-name="aacute" unicode="&#xe1;" horiz-adv-x="518" d="M226 143 Q224 126 236 121.5 Q248 117 264 117 Q273 117 286 120 Q299 123 311 128 L318 172 Q308 172 293 170.5 Q278 169 263.5 166 Q249 163 238 157.5 Q227 152 226 143 Z M237 304 Q226 289 217.5 285.5 Q209 282 195 282 L112 282 Q98 282 90 286.5 Q82 291 84 307 Q99 345 123 370.5 Q147 396 176.5 411.5 Q206 427 239.5 433.5 Q273 440 309 440 Q377 440 421 426.5 Q465 413 489.5 385.5 Q514 358 520 316 Q526 274 518 216 L494 46 Q491 26 475.5 13 Q460 0 440 0 L342 0 Q322 0 309.5 13 Q297 26 300 46 Q258 7 226.5 -3 Q195 -13 170 -13 Q146 -13 121 -4.5 Q96 4 77 21.5 Q58 39 48 66.5 Q38 94 43 133 Q50 180 79.5 205.5 Q109 231 150.5 243.5 Q192 256 240 258.5 Q288 261 330 261 Q333 291 323.5 306.5 Q314 322 286 322 Q269 322 257 319 Q245 316 237 304 Z M428 532 Q419 521 409 514 Q399 507 385 507 L319 507 Q299 507 287.5 519.5 Q276 532 279 551 L342 657 Q353 674 365.5 687.5 Q378 701 398 701 L494 701 Q514 701 525 688.5 Q536 676 534 657 L428 532 Z " />
<glyph glyph-name="acircumflex" unicode="&#xe2;" horiz-adv-x="518" d="M226 143 Q224 126 236 121.5 Q248 117 264 117 Q273 117 286 120 Q299 123 311 128 L318 172 Q308 172 293 170.5 Q278 169 263.5 166 Q249 163 238 157.5 Q227 152 226 143 Z M237 304 Q226 289 217.5 285.5 Q209 282 195 282 L112 282 Q98 282 90 286.5 Q82 291 84 307 Q99 345 123 370.5 Q147 396 176.5 411.5 Q206 427 239.5 433.5 Q273 440 309 440 Q377 440 421 426.5 Q465 413 489.5 385.5 Q514 358 520 316 Q526 274 518 216 L494 46 Q491 26 475.5 13 Q460 0 440 0 L342 0 Q322 0 309.5 13 Q297 26 300 46 Q258 7 226.5 -3 Q195 -13 170 -13 Q146 -13 121 -4.5 Q96 4 77 21.5 Q58 39 48 66.5 Q38 94 43 133 Q50 180 79.5 205.5 Q109 231 150.5 243.5 Q192 256 240 258.5 Q288 261 330 261 Q333 291 323.5 306.5 Q314 322 286 322 Q269 322 257 319 Q245 316 237 304 Z M506 540 Q504 526 493 516.5 Q482 507 468 507 L388 507 Q374 507 366 516.5 Q358 526 353 540 L338 589 L309 540 Q301 526 290.5 516.5 Q280 507 266 507 L186 507 Q172 507 163 516.5 Q154 526 156 540 L269 701 Q277 714 287 724 Q297 734 311 734 L407 734 Q421 734 427.5 724 Q434 714 439 701 L506 540 Z " />
<glyph glyph-name="atilde" unicode="&#xe3;" horiz-adv-x="518" d="M226 143 Q224 126 236 121.5 Q248 117 264 117 Q273 117 286 120 Q299 123 311 128 L318 172 Q308 172 293 170.5 Q278 169 263.5 166 Q249 163 238 157.5 Q227 152 226 143 Z M237 304 Q226 289 217.5 285.5 Q209 282 195 282 L112 282 Q98 282 90 286.5 Q82 291 84 307 Q99 345 123 370.5 Q147 396 176.5 411.5 Q206 427 239.5 433.5 Q273 440 309 440 Q377 440 421 426.5 Q465 413 489.5 385.5 Q514 358 520 316 Q526 274 518 216 L494 46 Q491 26 475.5 13 Q460 0 440 0 L342 0 Q322 0 309.5 13 Q297 26 300 46 Q258 7 226.5 -3 Q195 -13 170 -13 Q146 -13 121 -4.5 Q96 4 77 21.5 Q58 39 48 66.5 Q38 94 43 133 Q50 180 79.5 205.5 Q109 231 150.5 243.5 Q192 256 240 258.5 Q288 261 330 261 Q333 291 323.5 306.5 Q314 322 286 322 Q269 322 257 319 Q245 316 237 304 Z M405 507 Q388 507 372.5 512.5 Q357 518 341.5 524 Q326 530 310.5 535.5 Q295 541 277 541 Q271 541 260 539 Q249 537 238 534 Q231 531 225 531 Q214 531 205 537.5 Q196 544 193 555 L181 604 Q180 607 180 610.5 Q180 614 180 617 Q182 628 188.5 637 Q195 646 206 650 Q231 661 255.5 665 Q280 669 295 669 Q312 669 327.5 663.5 Q343 658 358.5 652 Q374 646 389.5 640.5 Q405 635 423 635 Q429 635 439.5 637 Q450 639 462 642 Q468 645 474 645 Q485 645 494.5 638.5 Q504 632 507 621 L518 572 Q520 564 519 559 Q517 548 510.5 539 Q504 530 493 526 Q468 515 444 511 Q420 507 405 507 Z " />
<glyph glyph-name="adieresis" unicode="&#xe4;" horiz-adv-x="518" d="M226 143 Q224 126 236 121.5 Q248 117 264 117 Q273 117 286 120 Q299 123 311 128 L318 172 Q308 172 293 170.5 Q278 169 263.5 166 Q249 163 238 157.5 Q227 152 226 143 Z M237 304 Q226 289 217.5 285.5 Q209 282 195 282 L112 282 Q98 282 90 286.5 Q82 291 84 307 Q99 345 123 370.5 Q147 396 176.5 411.5 Q206 427 239.5 433.5 Q273 440 309 440 Q377 440 421 426.5 Q465 413 489.5 385.5 Q514 358 520 316 Q526 274 518 216 L494 46 Q491 26 475.5 13 Q460 0 440 0 L342 0 Q322 0 309.5 13 Q297 26 300 46 Q258 7 226.5 -3 Q195 -13 170 -13 Q146 -13 121 -4.5 Q96 4 77 21.5 Q58 39 48 66.5 Q38 94 43 133 Q50 180 79.5 205.5 Q109 231 150.5 243.5 Q192 256 240 258.5 Q288 261 330 261 Q333 291 323.5 306.5 Q314 322 286 322 Q269 322 257 319 Q245 316 237 304 Z M315 550 Q312 532 297.5 519.5 Q283 507 264 507 L188 507 Q169 507 158 519.5 Q147 532 150 550 L160 626 Q163 644 177.5 656.5 Q192 669 211 669 L287 669 Q306 669 317 656.5 Q328 644 325 626 L315 550 Z M529 550 Q526 532 511.5 519.5 Q497 507 478 507 L402 507 Q383 507 372 519.5 Q361 532 364 550 L374 626 Q377 644 391.5 656.5 Q406 669 425 669 L501 669 Q520 669 531 656.5 Q542 644 539 626 L529 550 Z " />
<glyph glyph-name="aring" unicode="&#xe5;" horiz-adv-x="518" d="M375 797 Q405 797 429.5 786 Q454 775 470.5 755.5 Q487 736 495 709.5 Q503 683 498 653 Q494 623 479 596 Q464 569 441.5 549.5 Q419 530 391.5 518.5 Q364 507 334 507 Q304 507 279 518.5 Q254 530 236.5 549.5 Q219 569 211.5 596 Q204 623 208 653 Q213 683 228 709.5 Q243 736 265.5 755.5 Q288 775 316.5 786 Q345 797 375 797 Z M349 616 Q363 616 375 626.5 Q387 637 389 652 Q391 667 382 677 Q373 687 359 687 Q344 687 332 677 Q320 667 318 652 Q316 637 325 626.5 Q334 616 349 616 Z M226 143 Q224 126 236 121.5 Q248 117 264 117 Q273 117 286 120 Q299 123 311 128 L318 172 Q308 172 293 170.5 Q278 169 263.5 166 Q249 163 238 157.5 Q227 152 226 143 Z M237 304 Q226 289 217.5 285.5 Q209 282 195 282 L112 282 Q98 282 90 286.5 Q82 291 84 307 Q99 345 123 370.5 Q147 396 176.5 411.5 Q206 427 239.5 433.5 Q273 440 309 440 Q377 440 421 426.5 Q465 413 489.5 385.5 Q514 358 520 316 Q526 274 518 216 L494 46 Q491 26 475.5 13 Q460 0 440 0 L342 0 Q322 0 309.5 13 Q297 26 300 46 Q258 7 226.5 -3 Q195 -13 170 -13 Q146 -13 121 -4.5 Q96 4 77 21.5 Q58 39 48 66.5 Q38 94 43 133 Q50 180 79.5 205.5 Q109 231 150.5 243.5 Q192 256 240 258.5 Q288 261 330 261 Q333 291 323.5 306.5 Q314 322 286 322 Q269 322 257 319 Q245 316 237 304 Z " />
<glyph glyph-name="ae" unicode="&#xe6;" horiz-adv-x="804" d="M590 320 Q570 320 552 310 Q534 300 523 265 L645 265 Q643 300 626.5 310 Q610 320 590 320 Z M226 143 Q224 126 236 121.5 Q248 117 264 117 Q273 117 286 120 Q299 123 311 128 L318 172 Q308 172 293 170.5 Q278 169 263.5 166 Q249 163 238 157.5 Q227 152 226 143 Z M519 180 Q514 151 527 134 Q540 117 566 117 Q578 117 590.5 119 Q603 121 613 128 Q621 134 630 136 Q639 138 650 138 L743 138 Q762 138 774 132.5 Q786 127 783 104 Q753 55 697 21 Q641 -13 549 -13 Q502 -13 470 -1 Q438 11 412 44 Q391 24 365 12.5 Q339 1 314.5 -4.5 Q290 -10 270 -11.5 Q250 -13 242 -13 Q191 -13 151.5 -6.5 Q112 0 85.5 16.5 Q59 33 48 61.5 Q37 90 43 133 Q50 180 79.5 205.5 Q109 231 150.5 243.5 Q192 256 240 258.5 Q288 261 330 261 Q333 291 323.5 306.5 Q314 322 286 322 Q269 322 257 318.5 Q245 315 236 304 Q225 289 216.5 285.5 Q208 282 194 282 L111 282 Q97 282 89.5 287 Q82 292 84 308 Q114 382 173.5 411 Q233 440 309 440 Q415 440 465 406 Q494 422 529 431 Q564 440 609 440 Q676 440 718.5 420 Q761 400 784.5 368.5 Q808 337 814 299.5 Q820 262 815 226 Q813 206 796 193 Q779 180 759 180 L519 180 Z " />
<glyph glyph-name="ccedilla" unicode="&#xe7;" horiz-adv-x="525" d="M526 152 Q516 124 498 96.5 Q480 69 453 47 Q426 25 391 9.5 Q356 -6 311 -11 L307 -37 Q331 -38 349 -48 Q366 -57 376.5 -75.5 Q387 -94 382 -128 Q378 -154 363.5 -175 Q349 -196 327 -210.5 Q305 -225 278.5 -233 Q252 -241 225 -241 Q210 -241 192.5 -239 Q175 -237 163 -235 Q152 -235 145 -226 Q138 -217 140 -206 L145 -165 Q147 -154 156.5 -145 Q166 -136 177 -136 Q181 -137 186 -137 Q191 -137 195 -137 Q203 -137 212.5 -136 Q222 -135 231 -132.5 Q240 -130 246 -125.5 Q252 -121 253 -114 Q255 -100 239.5 -93 Q224 -86 207 -86 Q198 -86 193.5 -79.5 Q189 -73 190 -65 L210 -7 Q160 2 127.5 24.5 Q95 47 77 77 Q59 107 54.5 142.5 Q50 178 55 214 Q60 253 78.5 293.5 Q97 334 131.5 366.5 Q166 399 216.5 419.5 Q267 440 337 440 Q387 440 426 426 Q465 412 491 388.5 Q517 365 530.5 335.5 Q544 306 543 275 Q540 252 526 246.5 Q512 241 493 241 L402 241 Q383 241 376 248.5 Q369 256 364 278 Q359 298 347 307 Q335 316 320 316 Q285 316 265.5 289 Q246 262 240 214 Q233 166 244.5 139 Q256 112 291 112 Q327 112 345 149 Q357 171 366.5 178.5 Q376 186 395 186 L486 186 Q505 186 517 180.5 Q529 175 526 152 Z " />
<glyph glyph-name="egrave" unicode="&#xe8;" horiz-adv-x="519" d="M305 320 Q285 320 267 310 Q249 300 238 265 L360 265 Q358 300 341.5 310 Q325 320 305 320 Z M530 226 Q528 206 512 193 Q496 180 476 180 L234 180 Q229 151 242 134 Q255 117 281 117 Q293 117 305.5 119 Q318 121 328 128 Q336 134 345 136 Q354 138 365 138 L458 138 Q477 138 489 132.5 Q501 127 498 104 Q468 55 411 21 Q354 -13 264 -13 Q194 -13 151 9 Q108 31 84.5 64.5 Q61 98 55.5 138 Q50 178 55 214 Q60 252 76.5 292 Q93 332 125 365 Q157 398 205.5 419 Q254 440 324 440 Q390 440 432 421.5 Q474 403 497 372.5 Q520 342 527 303.5 Q534 265 530 226 Z M181 657 Q183 676 198 688.5 Q213 701 233 701 L329 701 Q349 701 357.5 687.5 Q366 674 373 657 L406 551 Q403 532 388.5 519.5 Q374 507 354 507 L288 507 Q274 507 265.5 514 Q257 521 251 532 L181 657 Z " />
<glyph glyph-name="eacute" unicode="&#xe9;" horiz-adv-x="519" d="M305 320 Q285 320 267 310 Q249 300 238 265 L360 265 Q358 300 341.5 310 Q325 320 305 320 Z M530 226 Q528 206 512 193 Q496 180 476 180 L234 180 Q229 151 242 134 Q255 117 281 117 Q293 117 305.5 119 Q318 121 328 128 Q336 134 345 136 Q354 138 365 138 L458 138 Q477 138 489 132.5 Q501 127 498 104 Q468 55 411 21 Q354 -13 264 -13 Q194 -13 151 9 Q108 31 84.5 64.5 Q61 98 55.5 138 Q50 178 55 214 Q60 252 76.5 292 Q93 332 125 365 Q157 398 205.5 419 Q254 440 324 440 Q390 440 432 421.5 Q474 403 497 372.5 Q520 342 527 303.5 Q534 265 530 226 Z M423 532 Q414 521 404 514 Q394 507 380 507 L314 507 Q294 507 282.5 519.5 Q271 532 274 551 L337 657 Q348 674 360.5 687.5 Q373 701 393 701 L489 701 Q509 701 520 688.5 Q531 676 529 657 L423 532 Z " />
<glyph glyph-name="ecircumflex" unicode="&#xea;" horiz-adv-x="519" d="M305 320 Q285 320 267 310 Q249 300 238 265 L360 265 Q358 300 341.5 310 Q325 320 305 320 Z M530 226 Q528 206 512 193 Q496 180 476 180 L234 180 Q229 151 242 134 Q255 117 281 117 Q293 117 305.5 119 Q318 121 328 128 Q336 134 345 136 Q354 138 365 138 L458 138 Q477 138 489 132.5 Q501 127 498 104 Q468 55 411 21 Q354 -13 264 -13 Q194 -13 151 9 Q108 31 84.5 64.5 Q61 98 55.5 138 Q50 178 55 214 Q60 252 76.5 292 Q93 332 125 365 Q157 398 205.5 419 Q254 440 324 440 Q390 440 432 421.5 Q474 403 497 372.5 Q520 342 527 303.5 Q534 265 530 226 Z M519 540 Q517 526 506 516.5 Q495 507 481 507 L401 507 Q387 507 379 516.5 Q371 526 366 540 L351 589 L322 540 Q314 526 303.5 516.5 Q293 507 279 507 L199 507 Q185 507 176 516.5 Q167 526 169 540 L282 701 Q290 714 300 724 Q310 734 324 734 L420 734 Q434 734 440.5 724 Q447 714 452 701 L519 540 Z " />
<glyph glyph-name="edieresis" unicode="&#xeb;" horiz-adv-x="519" d="M305 320 Q285 320 267 310 Q249 300 238 265 L360 265 Q358 300 341.5 310 Q325 320 305 320 Z M530 226 Q528 206 512 193 Q496 180 476 180 L234 180 Q229 151 242 134 Q255 117 281 117 Q293 117 305.5 119 Q318 121 328 128 Q336 134 345 136 Q354 138 365 138 L458 138 Q477 138 489 132.5 Q501 127 498 104 Q468 55 411 21 Q354 -13 264 -13 Q194 -13 151 9 Q108 31 84.5 64.5 Q61 98 55.5 138 Q50 178 55 214 Q60 252 76.5 292 Q93 332 125 365 Q157 398 205.5 419 Q254 440 324 440 Q390 440 432 421.5 Q474 403 497 372.5 Q520 342 527 303.5 Q534 265 530 226 Z M326 550 Q323 532 308.5 519.5 Q294 507 275 507 L199 507 Q180 507 169 519.5 Q158 532 161 550 L171 626 Q174 644 188.5 656.5 Q203 669 222 669 L298 669 Q317 669 328 656.5 Q339 644 336 626 L326 550 Z M540 550 Q537 532 522.5 519.5 Q508 507 489 507 L413 507 Q394 507 383 519.5 Q372 532 375 550 L385 626 Q388 644 402.5 656.5 Q417 669 436 669 L512 669 Q531 669 542 656.5 Q553 644 550 626 L540 550 Z " />
<glyph glyph-name="igrave" unicode="&#xec;" horiz-adv-x="284" d="M245 46 Q242 26 226.5 13 Q211 0 191 0 L93 0 Q73 0 60.5 13 Q48 26 51 46 L98 379 Q100 399 116 412 Q132 425 152 425 L250 425 Q270 425 282 412 Q294 399 292 379 L245 46 Z M51 657 Q53 676 68 688.5 Q83 701 103 701 L199 701 Q219 701 227.5 687.5 Q236 674 243 657 L276 551 Q273 532 258.5 519.5 Q244 507 224 507 L158 507 Q144 507 135.5 514 Q127 521 121 532 L51 657 Z " />
<glyph glyph-name="iacute" unicode="&#xed;" horiz-adv-x="284" d="M245 46 Q242 26 226.5 13 Q211 0 191 0 L93 0 Q73 0 60.5 13 Q48 26 51 46 L98 379 Q100 399 116 412 Q132 425 152 425 L250 425 Q270 425 282 412 Q294 399 292 379 L245 46 Z M311 532 Q302 521 292 514 Q282 507 268 507 L202 507 Q182 507 170.5 519.5 Q159 532 162 551 L225 657 Q236 674 248.5 687.5 Q261 701 281 701 L377 701 Q397 701 408 688.5 Q419 676 417 657 L311 532 Z " />
<glyph glyph-name="icircumflex" unicode="&#xee;" horiz-adv-x="284" d="M245 46 Q242 26 226.5 13 Q211 0 191 0 L93 0 Q73 0 60.5 13 Q48 26 51 46 L98 379 Q100 399 116 412 Q132 425 152 425 L250 425 Q270 425 282 412 Q294 399 292 379 L245 46 Z M393 540 Q391 526 380 516.5 Q369 507 355 507 L275 507 Q261 507 253 516.5 Q245 526 240 540 L225 589 L196 540 Q188 526 177.5 516.5 Q167 507 153 507 L73 507 Q59 507 50 516.5 Q41 526 43 540 L156 701 Q164 714 174 724 Q184 734 198 734 L294 734 Q308 734 314.5 724 Q321 714 326 701 L393 540 Z " />
<glyph glyph-name="idieresis" unicode="&#xef;" horiz-adv-x="284" d="M245 46 Q242 26 226.5 13 Q211 0 191 0 L93 0 Q73 0 60.5 13 Q48 26 51 46 L98 379 Q100 399 116 412 Q132 425 152 425 L250 425 Q270 425 282 412 Q294 399 292 379 L245 46 Z M195 550 Q192 532 177.5 519.5 Q163 507 144 507 L68 507 Q49 507 38 519.5 Q27 532 30 550 L40 626 Q43 644 57.5 656.5 Q72 669 91 669 L167 669 Q186 669 197 656.5 Q208 644 205 626 L195 550 Z M409 550 Q406 532 391.5 519.5 Q377 507 358 507 L282 507 Q263 507 252 519.5 Q241 532 244 550 L254 626 Q257 644 271.5 656.5 Q286 669 305 669 L381 669 Q400 669 411 656.5 Q422 644 419 626 L409 550 Z " />
<glyph glyph-name="eth" unicode="&#xf0;" horiz-adv-x="556" d="M309 235 Q243 235 234 174 Q229 135 244.5 123.5 Q260 112 289 112 Q301 112 314 114 Q327 116 337.5 122 Q348 128 355.5 139.5 Q363 151 366 169 Q369 189 365.5 201.5 Q362 214 354.5 221.5 Q347 229 336.5 232 Q326 235 315 235 L309 235 Z M496 582 Q548 534 566.5 462 Q585 390 573 301 L569 276 Q557 187 531.5 131 Q506 75 469 43 Q432 11 382.5 -1 Q333 -13 273 -13 Q203 -13 157.5 1.5 Q112 16 86 41 Q60 66 51.5 101 Q43 136 49 176 Q55 215 70 251 Q85 287 114 314.5 Q143 342 187.5 358.5 Q232 375 296 375 Q301 375 317 373 Q333 371 351.5 366 Q370 361 387.5 354 Q405 347 413 336 Q418 377 406 411.5 Q394 446 371 472 L306 415 Q296 406 283 406 Q276 406 269.5 408.5 Q263 411 259 416 L230 450 Q221 459 223 474 Q225 487 235 496 L277 533 Q265 537 250 539 Q235 541 223 541 Q208 541 199 551.5 Q190 562 192 578 L199 627 Q201 643 213 653.5 Q225 664 240 664 Q287 664 326 657.5 Q365 651 398 640 L447 683 Q458 692 471 692 Q486 692 494 681 L524 648 Q532 637 530 623 Q528 610 518 601 L496 582 Z " />
<glyph glyph-name="ntilde" unicode="&#xf1;" horiz-adv-x="577" d="M291 376 Q328 414 367 427 Q406 440 438 440 Q516 440 552 384 Q588 328 571 211 L548 46 Q545 26 529.5 13 Q514 0 494 0 L396 0 Q376 0 363.5 13 Q351 26 354 46 L384 259 Q387 282 372 296 Q357 310 337 310 Q317 310 297.5 296 Q278 282 275 262 L245 46 Q242 26 226.5 13 Q211 0 191 0 L93 0 Q73 0 60.5 13 Q48 26 51 46 L98 379 Q100 399 116 412 Q132 425 152 425 L250 425 Q270 425 282 411.5 Q294 398 291 376 Z M424 507 Q407 507 391.5 512.5 Q376 518 360.5 524 Q345 530 329.5 535.5 Q314 541 296 541 Q290 541 279 539 Q268 537 257 534 Q250 531 244 531 Q233 531 224 537.5 Q215 544 212 555 L200 604 Q199 607 199 610.5 Q199 614 199 617 Q201 628 207.5 637 Q214 646 225 650 Q250 661 274.5 665 Q299 669 314 669 Q331 669 346.5 663.5 Q362 658 377.5 652 Q393 646 408.5 640.5 Q424 635 442 635 Q448 635 458.5 637 Q469 639 481 642 Q487 645 493 645 Q504 645 513.5 638.5 Q523 632 526 621 L537 572 Q539 564 538 559 Q536 548 529.5 539 Q523 530 512 526 Q487 515 463 511 Q439 507 424 507 Z " />
<glyph glyph-name="ograve" unicode="&#xf2;" horiz-adv-x="538" d="M285 117 Q310 117 330 138.5 Q350 160 358 214 Q364 262 351.5 286 Q339 310 312 310 Q285 310 265.5 286 Q246 262 240 214 Q232 161 246 139 Q260 117 285 117 Z M55 214 Q60 253 77.5 293.5 Q95 334 128 366.5 Q161 399 210.5 419.5 Q260 440 330 440 Q400 440 444 419.5 Q488 399 511.5 366.5 Q535 334 541.5 293.5 Q548 253 543 214 Q537 174 519.5 133 Q502 92 469 60 Q436 28 386.5 7.5 Q337 -13 267 -13 Q197 -13 153 7.5 Q109 28 85 60 Q61 92 55 133 Q49 174 55 214 Z M190 657 Q192 676 207 688.5 Q222 701 242 701 L338 701 Q358 701 366.5 687.5 Q375 674 382 657 L415 551 Q412 532 397.5 519.5 Q383 507 363 507 L297 507 Q283 507 274.5 514 Q266 521 260 532 L190 657 Z " />
<glyph glyph-name="oacute" unicode="&#xf3;" horiz-adv-x="538" d="M285 117 Q310 117 330 138.5 Q350 160 358 214 Q364 262 351.5 286 Q339 310 312 310 Q285 310 265.5 286 Q246 262 240 214 Q232 161 246 139 Q260 117 285 117 Z M55 214 Q60 253 77.5 293.5 Q95 334 128 366.5 Q161 399 210.5 419.5 Q260 440 330 440 Q400 440 444 419.5 Q488 399 511.5 366.5 Q535 334 541.5 293.5 Q548 253 543 214 Q537 174 519.5 133 Q502 92 469 60 Q436 28 386.5 7.5 Q337 -13 267 -13 Q197 -13 153 7.5 Q109 28 85 60 Q61 92 55 133 Q49 174 55 214 Z M459 532 Q450 521 440 514 Q430 507 416 507 L350 507 Q330 507 318.5 519.5 Q307 532 310 551 L373 657 Q384 674 396.5 687.5 Q409 701 429 701 L525 701 Q545 701 556 688.5 Q567 676 565 657 L459 532 Z " />
<glyph glyph-name="ocircumflex" unicode="&#xf4;" horiz-adv-x="538" d="M285 117 Q310 117 330 138.5 Q350 160 358 214 Q364 262 351.5 286 Q339 310 312 310 Q285 310 265.5 286 Q246 262 240 214 Q232 161 246 139 Q260 117 285 117 Z M55 214 Q60 253 77.5 293.5 Q95 334 128 366.5 Q161 399 210.5 419.5 Q260 440 330 440 Q400 440 444 419.5 Q488 399 511.5 366.5 Q535 334 541.5 293.5 Q548 253 543 214 Q537 174 519.5 133 Q502 92 469 60 Q436 28 386.5 7.5 Q337 -13 267 -13 Q197 -13 153 7.5 Q109 28 85 60 Q61 92 55 133 Q49 174 55 214 Z M519 540 Q517 526 506 516.5 Q495 507 481 507 L401 507 Q387 507 379 516.5 Q371 526 366 540 L351 589 L322 540 Q314 526 303.5 516.5 Q293 507 279 507 L199 507 Q185 507 176 516.5 Q167 526 169 540 L282 701 Q290 714 300 724 Q310 734 324 734 L420 734 Q434 734 440.5 724 Q447 714 452 701 L519 540 Z " />
<glyph glyph-name="otilde" unicode="&#xf5;" horiz-adv-x="538" d="M285 117 Q310 117 330 138.5 Q350 160 358 214 Q364 262 351.5 286 Q339 310 312 310 Q285 310 265.5 286 Q246 262 240 214 Q232 161 246 139 Q260 117 285 117 Z M55 214 Q60 253 77.5 293.5 Q95 334 128 366.5 Q161 399 210.5 419.5 Q260 440 330 440 Q400 440 444 419.5 Q488 399 511.5 366.5 Q535 334 541.5 293.5 Q548 253 543 214 Q537 174 519.5 133 Q502 92 469 60 Q436 28 386.5 7.5 Q337 -13 267 -13 Q197 -13 153 7.5 Q109 28 85 60 Q61 92 55 133 Q49 174 55 214 Z M405 507 Q388 507 372.5 512.5 Q357 518 341.5 524 Q326 530 310.5 535.5 Q295 541 277 541 Q271 541 260 539 Q249 537 238 534 Q231 531 225 531 Q214 531 205 537.5 Q196 544 193 555 L181 604 Q180 607 180 610.5 Q180 614 180 617 Q182 628 188.5 637 Q195 646 206 650 Q231 661 255.5 665 Q280 669 295 669 Q312 669 327.5 663.5 Q343 658 358.5 652 Q374 646 389.5 640.5 Q405 635 423 635 Q429 635 439.5 637 Q450 639 462 642 Q468 645 474 645 Q485 645 494.5 638.5 Q504 632 507 621 L518 572 Q520 564 519 559 Q517 548 510.5 539 Q504 530 493 526 Q468 515 444 511 Q420 507 405 507 Z " />
<glyph glyph-name="odieresis" unicode="&#xf6;" horiz-adv-x="538" d="M285 117 Q310 117 330 138.5 Q350 160 358 214 Q364 262 351.5 286 Q339 310 312 310 Q285 310 265.5 286 Q246 262 240 214 Q232 161 246 139 Q260 117 285 117 Z M55 214 Q60 253 77.5 293.5 Q95 334 128 366.5 Q161 399 210.5 419.5 Q260 440 330 440 Q400 440 444 419.5 Q488 399 511.5 366.5 Q535 334 541.5 293.5 Q548 253 543 214 Q537 174 519.5 133 Q502 92 469 60 Q436 28 386.5 7.5 Q337 -13 267 -13 Q197 -13 153 7.5 Q109 28 85 60 Q61 92 55 133 Q49 174 55 214 Z M322 550 Q319 532 304.5 519.5 Q290 507 271 507 L195 507 Q176 507 165 519.5 Q154 532 157 550 L167 626 Q170 644 184.5 656.5 Q199 669 218 669 L294 669 Q313 669 324 656.5 Q335 644 332 626 L322 550 Z M536 550 Q533 532 518.5 519.5 Q504 507 485 507 L409 507 Q390 507 379 519.5 Q368 532 371 550 L381 626 Q384 644 398.5 656.5 Q413 669 432 669 L508 669 Q527 669 538 656.5 Q549 644 546 626 L536 550 Z " />
<glyph glyph-name="divide" unicode="&#xf7;" horiz-adv-x="439" d="M106 139 Q91 139 82 150.5 Q73 162 75 178 L83 235 Q85 251 97.5 262.5 Q110 274 125 274 L390 274 Q405 274 414.5 262.5 Q424 251 422 235 L414 178 Q412 162 399 150.5 Q386 139 371 139 L106 139 Z M280 18 Q278 4 268 -4.5 Q258 -13 244 -13 L189 -13 Q175 -13 167.5 -4.5 Q160 4 162 18 L169 71 Q171 85 181 93.5 Q191 102 205 102 L260 102 Q274 102 281.5 93.5 Q289 85 287 71 L280 18 Z M326 342 Q324 328 313.5 319.5 Q303 311 289 311 L234 311 Q220 311 213 319.5 Q206 328 208 342 L215 395 Q217 409 226.5 417.5 Q236 426 250 426 L305 426 Q319 426 327 417.5 Q335 409 333 395 L326 342 Z " />
<glyph glyph-name="oslash" unicode="&#xf8;" horiz-adv-x="538" d="M283 117 Q309 117 329.5 138.5 Q350 160 358 214 Q361 244 358 265 L283 117 Z M240 214 Q238 200 237.5 188.5 Q237 177 238 167 L309 310 Q283 308 264.5 284 Q246 260 240 214 Z M198 -51 Q194 -59 188 -65.5 Q182 -72 173 -72 L146 -72 Q137 -72 131.5 -66 Q126 -60 127 -51 L156 6 Q122 20 100 42.5 Q78 65 66.5 93 Q55 121 53 152 Q51 183 55 214 Q60 253 77.5 293.5 Q95 334 128 366.5 Q161 399 210.5 419.5 Q260 440 330 440 Q353 440 374 437 L399 486 Q403 494 409 500.5 Q415 507 424 507 L451 507 Q460 507 465.5 501 Q471 495 470 486 L437 422 Q472 408 494.5 385 Q517 362 529 334 Q541 306 544 275 Q547 244 543 214 Q537 174 519.5 133 Q502 92 469 60 Q436 28 386.5 7.5 Q337 -13 267 -13 Q242 -13 219 -10 L198 -51 Z " />
<glyph glyph-name="ugrave" unicode="&#xf9;" horiz-adv-x="567" d="M334 46 Q295 10 259.5 -1.5 Q224 -13 202 -13 Q120 -13 83.5 40 Q47 93 60 184 L88 379 Q90 399 106 412 Q122 425 142 425 L240 425 Q260 425 272 412 Q284 399 282 379 L252 166 Q249 145 261.5 131 Q274 117 294 117 Q317 117 332.5 131 Q348 145 351 166 L381 379 Q383 399 399 412 Q415 425 435 425 L533 425 Q553 425 565 412 Q577 399 575 379 L528 46 Q525 26 509.5 13 Q494 0 474 0 L376 0 Q356 0 343.5 12 Q331 24 334 46 Z M192 657 Q194 676 209 688.5 Q224 701 244 701 L340 701 Q360 701 368.5 687.5 Q377 674 384 657 L417 551 Q414 532 399.5 519.5 Q385 507 365 507 L299 507 Q285 507 276.5 514 Q268 521 262 532 L192 657 Z " />
<glyph glyph-name="uacute" unicode="&#xfa;" horiz-adv-x="567" d="M334 46 Q295 10 259.5 -1.5 Q224 -13 202 -13 Q120 -13 83.5 40 Q47 93 60 184 L88 379 Q90 399 106 412 Q122 425 142 425 L240 425 Q260 425 272 412 Q284 399 282 379 L252 166 Q249 145 261.5 131 Q274 117 294 117 Q317 117 332.5 131 Q348 145 351 166 L381 379 Q383 399 399 412 Q415 425 435 425 L533 425 Q553 425 565 412 Q577 399 575 379 L528 46 Q525 26 509.5 13 Q494 0 474 0 L376 0 Q356 0 343.5 12 Q331 24 334 46 Z M438 532 Q429 521 419 514 Q409 507 395 507 L329 507 Q309 507 297.5 519.5 Q286 532 289 551 L352 657 Q363 674 375.5 687.5 Q388 701 408 701 L504 701 Q524 701 535 688.5 Q546 676 544 657 L438 532 Z " />
<glyph glyph-name="ucircumflex" unicode="&#xfb;" horiz-adv-x="567" d="M334 46 Q295 10 259.5 -1.5 Q224 -13 202 -13 Q120 -13 83.5 40 Q47 93 60 184 L88 379 Q90 399 106 412 Q122 425 142 425 L240 425 Q260 425 272 412 Q284 399 282 379 L252 166 Q249 145 261.5 131 Q274 117 294 117 Q317 117 332.5 131 Q348 145 351 166 L381 379 Q383 399 399 412 Q415 425 435 425 L533 425 Q553 425 565 412 Q577 399 575 379 L528 46 Q525 26 509.5 13 Q494 0 474 0 L376 0 Q356 0 343.5 12 Q331 24 334 46 Z M527 540 Q525 526 514 516.5 Q503 507 489 507 L409 507 Q395 507 387 516.5 Q379 526 374 540 L359 589 L330 540 Q322 526 311.5 516.5 Q301 507 287 507 L207 507 Q193 507 184 516.5 Q175 526 177 540 L290 701 Q298 714 308 724 Q318 734 332 734 L428 734 Q442 734 448.5 724 Q455 714 460 701 L527 540 Z " />
<glyph glyph-name="udieresis" unicode="&#xfc;" horiz-adv-x="567" d="M334 46 Q295 10 259.5 -1.5 Q224 -13 202 -13 Q120 -13 83.5 40 Q47 93 60 184 L88 379 Q90 399 106 412 Q122 425 142 425 L240 425 Q260 425 272 412 Q284 399 282 379 L252 166 Q249 145 261.5 131 Q274 117 294 117 Q317 117 332.5 131 Q348 145 351 166 L381 379 Q383 399 399 412 Q415 425 435 425 L533 425 Q553 425 565 412 Q577 399 575 379 L528 46 Q525 26 509.5 13 Q494 0 474 0 L376 0 Q356 0 343.5 12 Q331 24 334 46 Z M329 550 Q326 532 311.5 519.5 Q297 507 278 507 L202 507 Q183 507 172 519.5 Q161 532 164 550 L174 626 Q177 644 191.5 656.5 Q206 669 225 669 L301 669 Q320 669 331 656.5 Q342 644 339 626 L329 550 Z M543 550 Q540 532 525.5 519.5 Q511 507 492 507 L416 507 Q397 507 386 519.5 Q375 532 378 550 L388 626 Q391 644 405.5 656.5 Q420 669 439 669 L515 669 Q534 669 545 656.5 Q556 644 553 626 L543 550 Z " />
<glyph glyph-name="yacute" unicode="&#xfd;" horiz-adv-x="499" d="M57 -40 Q91 -40 105 -29.5 Q119 -19 124 13 Q125 18 124 26.5 Q123 35 122 40 L59 379 Q61 399 77 412 Q93 425 113 425 L206 425 Q226 425 236 411.5 Q246 398 248 379 L268 129 L357 379 Q364 398 378 411.5 Q392 425 412 425 L505 425 Q525 425 537 412 Q549 399 547 379 L368 -13 Q339 -77 298.5 -111 Q258 -145 221 -161 Q177 -180 132 -183 Q93 -183 64 -180 Q35 -177 15 -173 Q-18 -165 -13 -134 L-5 -78 Q-3 -62 10 -51 Q23 -40 37 -40 L57 -40 Z M424 532 Q415 521 405 514 Q395 507 381 507 L315 507 Q295 507 283.5 519.5 Q272 532 275 551 L338 657 Q349 674 361.5 687.5 Q374 701 394 701 L490 701 Q510 701 521 688.5 Q532 676 530 657 L424 532 Z " />
<glyph glyph-name="thorn" unicode="&#xfe;" horiz-adv-x="567" d="M120 539 Q123 559 139 572 Q155 585 175 585 L273 585 Q293 585 305 572 Q317 559 314 539 L291 376 Q320 407 353 423.5 Q386 440 418 440 Q457 440 488 421.5 Q519 403 540 372 Q561 341 569.5 300 Q578 259 572 214 Q566 169 545.5 127.5 Q525 86 495.5 55 Q466 24 430 5.5 Q394 -13 355 -13 Q323 -13 298 0.5 Q273 14 245 46 L221 -123 Q219 -143 203 -156 Q187 -169 167 -169 L69 -169 Q49 -169 37 -156 Q25 -143 27 -123 L120 539 Z M384 261 Q387 282 372 296 Q357 310 337 310 Q314 310 296 296 Q278 282 275 261 L262 165 Q259 145 274.5 131 Q290 117 310 117 Q330 117 349 131 Q368 145 371 168 L384 261 Z " />
<glyph glyph-name="ydieresis" unicode="&#xff;" horiz-adv-x="499" d="M57 -40 Q91 -40 105 -29.5 Q119 -19 124 13 Q125 18 124 26.5 Q123 35 122 40 L59 379 Q61 399 77 412 Q93 425 113 425 L206 425 Q226 425 236 411.5 Q246 398 248 379 L268 129 L357 379 Q364 398 378 411.5 Q392 425 412 425 L505 425 Q525 425 537 412 Q549 399 547 379 L368 -13 Q339 -77 298.5 -111 Q258 -145 221 -161 Q177 -180 132 -183 Q93 -183 64 -180 Q35 -177 15 -173 Q-18 -165 -13 -134 L-5 -78 Q-3 -62 10 -51 Q23 -40 37 -40 L57 -40 Z M309 550 Q306 532 291.5 519.5 Q277 507 258 507 L182 507 Q163 507 152 519.5 Q141 532 144 550 L154 626 Q157 644 171.5 656.5 Q186 669 205 669 L281 669 Q300 669 311 656.5 Q322 644 319 626 L309 550 Z M523 550 Q520 532 505.5 519.5 Q491 507 472 507 L396 507 Q377 507 366 519.5 Q355 532 358 550 L368 626 Q371 644 385.5 656.5 Q400 669 419 669 L495 669 Q514 669 525 656.5 Q536 644 533 626 L523 550 Z " />
<glyph glyph-name="Amacron" unicode="&#x100;" horiz-adv-x="607" d="M469 585 Q489 585 500.5 571.5 Q512 558 515 539 L608 46 Q605 26 589.5 13 Q574 0 554 0 L450 0 Q430 0 420 13.5 Q410 27 408 46 L399 125 L243 125 L211 46 Q203 27 190 13.5 Q177 0 157 0 L53 0 Q33 0 20.5 13 Q8 26 11 46 L240 539 Q249 558 264.5 571.5 Q280 585 300 585 L469 585 Z M293 250 L385 250 L363 426 L293 250 Z M238 652 Q221 652 211 665 Q201 678 203 695 L212 757 Q214 774 228 787 Q242 800 259 800 L571 800 Q588 800 598 787 Q608 774 606 757 L597 695 Q595 678 581 665 Q567 652 550 652 L238 652 Z " />
<glyph glyph-name="amacron" unicode="&#x101;" horiz-adv-x="518" d="M226 143 Q224 126 236 121.5 Q248 117 264 117 Q273 117 286 120 Q299 123 311 128 L318 172 Q308 172 293 170.5 Q278 169 263.5 166 Q249 163 238 157.5 Q227 152 226 143 Z M237 304 Q226 289 217.5 285.5 Q209 282 195 282 L112 282 Q98 282 90 286.5 Q82 291 84 307 Q99 345 123 370.5 Q147 396 176.5 411.5 Q206 427 239.5 433.5 Q273 440 309 440 Q377 440 421 426.5 Q465 413 489.5 385.5 Q514 358 520 316 Q526 274 518 216 L494 46 Q491 26 475.5 13 Q460 0 440 0 L342 0 Q322 0 309.5 13 Q297 26 300 46 Q258 7 226.5 -3 Q195 -13 170 -13 Q146 -13 121 -4.5 Q96 4 77 21.5 Q58 39 48 66.5 Q38 94 43 133 Q50 180 79.5 205.5 Q109 231 150.5 243.5 Q192 256 240 258.5 Q288 261 330 261 Q333 291 323.5 306.5 Q314 322 286 322 Q269 322 257 319 Q245 316 237 304 Z M190 507 Q173 507 163 520 Q153 533 155 550 L164 612 Q166 629 180 642 Q194 655 211 655 L523 655 Q540 655 550 642 Q560 629 558 612 L549 550 Q547 533 533 520 Q519 507 502 507 L190 507 Z " />
<glyph glyph-name="Abreve" unicode="&#x102;" horiz-adv-x="607" d="M394 652 Q333 652 290 683 Q247 714 245 781 Q247 797 259.5 807.5 Q272 818 289 818 L338 818 Q350 818 358.5 812 Q367 806 371 797 Q376 785 388.5 780.5 Q401 776 412 776 Q423 776 436.5 780.5 Q450 785 459 797 Q464 806 474 812 Q484 818 496 818 L545 818 Q562 818 571.5 807.5 Q581 797 579 781 Q559 714 507.5 683 Q456 652 394 652 Z M469 585 Q489 585 500.5 571.5 Q512 558 515 539 L608 46 Q605 26 589.5 13 Q574 0 554 0 L450 0 Q430 0 420 13.5 Q410 27 408 46 L399 125 L243 125 L211 46 Q203 27 190 13.5 Q177 0 157 0 L53 0 Q33 0 20.5 13 Q8 26 11 46 L240 539 Q249 558 264.5 571.5 Q280 585 300 585 L469 585 Z M293 250 L385 250 L363 426 L293 250 Z " />
<glyph glyph-name="abreve" unicode="&#x103;" horiz-adv-x="518" d="M226 143 Q224 126 236 121.5 Q248 117 264 117 Q273 117 286 120 Q299 123 311 128 L318 172 Q308 172 293 170.5 Q278 169 263.5 166 Q249 163 238 157.5 Q227 152 226 143 Z M237 304 Q226 289 217.5 285.5 Q209 282 195 282 L112 282 Q98 282 90 286.5 Q82 291 84 307 Q99 345 123 370.5 Q147 396 176.5 411.5 Q206 427 239.5 433.5 Q273 440 309 440 Q377 440 421 426.5 Q465 413 489.5 385.5 Q514 358 520 316 Q526 274 518 216 L494 46 Q491 26 475.5 13 Q460 0 440 0 L342 0 Q322 0 309.5 13 Q297 26 300 46 Q258 7 226.5 -3 Q195 -13 170 -13 Q146 -13 121 -4.5 Q96 4 77 21.5 Q58 39 48 66.5 Q38 94 43 133 Q50 180 79.5 205.5 Q109 231 150.5 243.5 Q192 256 240 258.5 Q288 261 330 261 Q333 291 323.5 306.5 Q314 322 286 322 Q269 322 257 319 Q245 316 237 304 Z M350 507 Q319 507 292.5 514.5 Q266 522 245.5 538 Q225 554 213.5 578 Q202 602 201 636 Q203 652 215.5 662.5 Q228 673 245 673 L294 673 Q306 673 314.5 667 Q323 661 326 652 Q331 640 343.5 635.5 Q356 631 367 631 Q378 631 392 635.5 Q406 640 414 652 Q420 661 430 667 Q440 673 452 673 L501 673 Q518 673 527.5 662.5 Q537 652 535 636 Q514 569 463 538 Q412 507 350 507 Z " />
<glyph glyph-name="Aogonek" unicode="&#x104;" horiz-adv-x="619" d="M293 250 L385 250 L363 426 L293 250 Z M442 0 Q426 3 418 16 Q410 29 408 46 L399 125 L243 125 L211 46 Q203 27 190 13.5 Q177 0 157 0 L53 0 Q33 0 20.5 13 Q8 26 11 46 L240 539 Q249 558 264.5 571.5 Q280 585 300 585 L469 585 Q489 585 500.5 571.5 Q512 558 515 539 L608 46 Q606 29 593 16.5 Q580 4 564 0 Q544 -18 537.5 -35 Q531 -52 530 -57 Q529 -64 536 -75 Q543 -86 559 -86 L570 -86 Q581 -86 590 -95.5 Q599 -105 597 -117 L591 -162 Q589 -173 576.5 -180.5 Q564 -188 553 -188 Q545 -189 537.5 -189 Q530 -189 525 -189 Q499 -189 474 -183.5 Q449 -178 430.5 -165 Q412 -152 402.5 -132.5 Q393 -113 397 -84 Q400 -61 414 -38 Q428 -15 442 0 Z " />
<glyph glyph-name="aogonek" unicode="&#x105;" horiz-adv-x="518" d="M226 143 Q224 126 236 121.5 Q248 117 264 117 Q273 117 286 120 Q299 123 311 128 L318 172 Q308 172 293 170.5 Q278 169 263.5 166 Q249 163 238 157.5 Q227 152 226 143 Z M446 0 Q432 -10 424.5 -25 Q417 -40 416 -45 Q415 -52 420 -63 Q425 -74 446 -74 Q457 -74 466 -83.5 Q475 -93 473 -105 L466 -150 Q464 -161 452 -168.5 Q440 -176 429 -176 Q421 -177 413.5 -177 Q406 -177 401 -177 Q375 -177 351.5 -171.5 Q328 -166 311.5 -153 Q295 -140 286.5 -120.5 Q278 -101 282 -72 Q286 -49 305 -31 Q324 -13 342 0 Q322 0 309.5 13 Q297 26 300 46 Q258 7 226.5 -3 Q195 -13 170 -13 Q146 -13 121 -4.5 Q96 4 77 21.5 Q58 39 48 66.5 Q38 94 43 133 Q50 180 79.5 205.5 Q109 231 150.5 243.5 Q192 256 240 258.5 Q288 261 330 261 Q333 291 323.5 306.5 Q314 322 286 322 Q269 322 257 319 Q245 316 237 304 Q226 289 217.5 285.5 Q209 282 195 282 L112 282 Q98 282 90 286.5 Q82 291 84 307 Q99 345 123 370.5 Q147 396 176.5 411.5 Q206 427 239.5 433.5 Q273 440 309 440 Q377 440 421 426.5 Q465 413 489.5 385.5 Q514 358 520 316 Q526 274 518 216 L494 46 Q491 26 478.5 13 Q466 0 446 0 Z " />
<glyph glyph-name="Cacute" unicode="&#x106;" horiz-adv-x="630" d="M628 166 Q598 85 519 36 Q440 -13 321 -13 Q237 -13 184 16.5 Q131 46 102.5 91 Q74 136 66.5 188.5 Q59 241 65 287 Q72 336 94.5 391 Q117 446 158.5 492 Q200 538 261.5 568.5 Q323 599 407 599 Q526 599 591 547.5 Q656 496 663 415 Q660 392 646 386 Q632 380 613 380 L493 380 Q474 380 467 388 Q460 396 453 417 Q447 436 427 448.5 Q407 461 387 461 Q362 461 340.5 447 Q319 433 302.5 409 Q286 385 275 353.5 Q264 322 259 287 Q255 255 257.5 225.5 Q260 196 269.5 173.5 Q279 151 297 138 Q315 125 340 125 Q360 125 381.5 134.5 Q403 144 418 164 Q430 185 439 193 Q448 201 467 201 L587 201 Q606 201 618.5 195 Q631 189 628 166 Z M518 677 Q509 666 498.5 659 Q488 652 474 652 L408 652 Q388 652 377 664.5 Q366 677 368 696 L431 802 Q442 819 454.5 832.5 Q467 846 487 846 L583 846 Q603 846 614.5 833.5 Q626 821 623 802 L518 677 Z " />
<glyph glyph-name="cacute" unicode="&#x107;" horiz-adv-x="525" d="M526 152 Q515 121 494.5 91.5 Q474 62 442.5 38.5 Q411 15 369 1 Q327 -13 274 -13 Q204 -13 159 7.5 Q114 28 89 60 Q64 92 56.5 133 Q49 174 55 214 Q60 253 78.5 293.5 Q97 334 131.5 366.5 Q166 399 216.5 419.5 Q267 440 337 440 Q387 440 426 426 Q465 412 491 388.5 Q517 365 530.5 335.5 Q544 306 543 275 Q540 252 526 246.5 Q512 241 493 241 L402 241 Q383 241 376 248.5 Q369 256 364 278 Q359 298 347 307 Q335 316 320 316 Q285 316 265.5 289 Q246 262 240 214 Q233 166 244.5 139 Q256 112 291 112 Q327 112 345 149 Q357 171 366.5 178.5 Q376 186 395 186 L486 186 Q505 186 517 180.5 Q529 175 526 152 Z M414 532 Q405 521 395 514 Q385 507 371 507 L305 507 Q285 507 273.5 519.5 Q262 532 265 551 L328 657 Q339 674 351.5 687.5 Q364 701 384 701 L480 701 Q500 701 511 688.5 Q522 676 520 657 L414 532 Z " />
<glyph glyph-name="Ccircumflex" unicode="&#x108;" horiz-adv-x="630" d="M628 166 Q598 85 519 36 Q440 -13 321 -13 Q237 -13 184 16.5 Q131 46 102.5 91 Q74 136 66.5 188.5 Q59 241 65 287 Q72 336 94.5 391 Q117 446 158.5 492 Q200 538 261.5 568.5 Q323 599 407 599 Q526 599 591 547.5 Q656 496 663 415 Q660 392 646 386 Q632 380 613 380 L493 380 Q474 380 467 388 Q460 396 453 417 Q447 436 427 448.5 Q407 461 387 461 Q362 461 340.5 447 Q319 433 302.5 409 Q286 385 275 353.5 Q264 322 259 287 Q255 255 257.5 225.5 Q260 196 269.5 173.5 Q279 151 297 138 Q315 125 340 125 Q360 125 381.5 134.5 Q403 144 418 164 Q430 185 439 193 Q448 201 467 201 L587 201 Q606 201 618.5 195 Q631 189 628 166 Z M596 685 Q594 671 582.5 661.5 Q571 652 557 652 L477 652 Q463 652 455 661.5 Q447 671 443 685 L428 734 L399 685 Q391 671 380 661.5 Q369 652 355 652 L275 652 Q261 652 252.5 661.5 Q244 671 246 685 L358 846 Q367 859 376.5 869 Q386 879 400 879 L496 879 Q510 879 516.5 869 Q523 859 528 846 L596 685 Z " />
<glyph glyph-name="ccircumflex" unicode="&#x109;" horiz-adv-x="525" d="M526 152 Q515 121 494.5 91.5 Q474 62 442.5 38.5 Q411 15 369 1 Q327 -13 274 -13 Q204 -13 159 7.5 Q114 28 89 60 Q64 92 56.5 133 Q49 174 55 214 Q60 253 78.5 293.5 Q97 334 131.5 366.5 Q166 399 216.5 419.5 Q267 440 337 440 Q387 440 426 426 Q465 412 491 388.5 Q517 365 530.5 335.5 Q544 306 543 275 Q540 252 526 246.5 Q512 241 493 241 L402 241 Q383 241 376 248.5 Q369 256 364 278 Q359 298 347 307 Q335 316 320 316 Q285 316 265.5 289 Q246 262 240 214 Q233 166 244.5 139 Q256 112 291 112 Q327 112 345 149 Q357 171 366.5 178.5 Q376 186 395 186 L486 186 Q505 186 517 180.5 Q529 175 526 152 Z M526 540 Q524 526 513 516.5 Q502 507 488 507 L408 507 Q394 507 386 516.5 Q378 526 373 540 L358 589 L329 540 Q321 526 310.5 516.5 Q300 507 286 507 L206 507 Q192 507 183 516.5 Q174 526 176 540 L289 701 Q297 714 307 724 Q317 734 331 734 L427 734 Q441 734 447.5 724 Q454 714 459 701 L526 540 Z " />
<glyph glyph-name="Cdotaccent" unicode="&#x10a;" horiz-adv-x="630" d="M628 166 Q598 85 519 36 Q440 -13 321 -13 Q237 -13 184 16.5 Q131 46 102.5 91 Q74 136 66.5 188.5 Q59 241 65 287 Q72 336 94.5 391 Q117 446 158.5 492 Q200 538 261.5 568.5 Q323 599 407 599 Q526 599 591 547.5 Q656 496 663 415 Q660 392 646 386 Q632 380 613 380 L493 380 Q474 380 467 388 Q460 396 453 417 Q447 436 427 448.5 Q407 461 387 461 Q362 461 340.5 447 Q319 433 302.5 409 Q286 385 275 353.5 Q264 322 259 287 Q255 255 257.5 225.5 Q260 196 269.5 173.5 Q279 151 297 138 Q315 125 340 125 Q360 125 381.5 134.5 Q403 144 418 164 Q430 185 439 193 Q448 201 467 201 L587 201 Q606 201 618.5 195 Q631 189 628 166 Z M511 698 Q508 678 492 665 Q476 652 456 652 L374 652 Q354 652 342 665 Q330 678 333 698 L344 781 Q347 801 363 814 Q379 827 399 827 L481 827 Q501 827 513 814 Q525 801 522 781 L511 698 Z " />
<glyph glyph-name="cdotaccent" unicode="&#x10b;" horiz-adv-x="525" d="M526 152 Q515 121 494.5 91.5 Q474 62 442.5 38.5 Q411 15 369 1 Q327 -13 274 -13 Q204 -13 159 7.5 Q114 28 89 60 Q64 92 56.5 133 Q49 174 55 214 Q60 253 78.5 293.5 Q97 334 131.5 366.5 Q166 399 216.5 419.5 Q267 440 337 440 Q387 440 426 426 Q465 412 491 388.5 Q517 365 530.5 335.5 Q544 306 543 275 Q540 252 526 246.5 Q512 241 493 241 L402 241 Q383 241 376 248.5 Q369 256 364 278 Q359 298 347 307 Q335 316 320 316 Q285 316 265.5 289 Q246 262 240 214 Q233 166 244.5 139 Q256 112 291 112 Q327 112 345 149 Q357 171 366.5 178.5 Q376 186 395 186 L486 186 Q505 186 517 180.5 Q529 175 526 152 Z M439 550 Q436 532 421.5 519.5 Q407 507 388 507 L312 507 Q293 507 282 519.5 Q271 532 274 550 L284 626 Q287 644 301.5 656.5 Q316 669 335 669 L411 669 Q430 669 441 656.5 Q452 644 449 626 L439 550 Z " />
<glyph glyph-name="Ccaron" unicode="&#x10c;" horiz-adv-x="630" d="M628 166 Q598 85 519 36 Q440 -13 321 -13 Q237 -13 184 16.5 Q131 46 102.5 91 Q74 136 66.5 188.5 Q59 241 65 287 Q72 336 94.5 391 Q117 446 158.5 492 Q200 538 261.5 568.5 Q323 599 407 599 Q526 599 591 547.5 Q656 496 663 415 Q660 392 646 386 Q632 380 613 380 L493 380 Q474 380 467 388 Q460 396 453 417 Q447 436 427 448.5 Q407 461 387 461 Q362 461 340.5 447 Q319 433 302.5 409 Q286 385 275 353.5 Q264 322 259 287 Q255 255 257.5 225.5 Q260 196 269.5 173.5 Q279 151 297 138 Q315 125 340 125 Q360 125 381.5 134.5 Q403 144 418 164 Q430 185 439 193 Q448 201 467 201 L587 201 Q606 201 618.5 195 Q631 189 628 166 Z M506 685 Q497 672 487.5 662 Q478 652 464 652 L368 652 Q354 652 347.5 662 Q341 672 336 685 L268 846 Q270 860 281.5 869.5 Q293 879 307 879 L387 879 Q401 879 409 869.5 Q417 860 421 846 L437 797 L465 846 Q473 860 484 869.5 Q495 879 509 879 L589 879 Q603 879 611.5 869.5 Q620 860 618 846 L506 685 Z " />
<glyph glyph-name="ccaron" unicode="&#x10d;" horiz-adv-x="525" d="M526 152 Q515 121 494.5 91.5 Q474 62 442.5 38.5 Q411 15 369 1 Q327 -13 274 -13 Q204 -13 159 7.5 Q114 28 89 60 Q64 92 56.5 133 Q49 174 55 214 Q60 253 78.5 293.5 Q97 334 131.5 366.5 Q166 399 216.5 419.5 Q267 440 337 440 Q387 440 426 426 Q465 412 491 388.5 Q517 365 530.5 335.5 Q544 306 543 275 Q540 252 526 246.5 Q512 241 493 241 L402 241 Q383 241 376 248.5 Q369 256 364 278 Q359 298 347 307 Q335 316 320 316 Q285 316 265.5 289 Q246 262 240 214 Q233 166 244.5 139 Q256 112 291 112 Q327 112 345 149 Q357 171 366.5 178.5 Q376 186 395 186 L486 186 Q505 186 517 180.5 Q529 175 526 152 Z M435 540 Q427 527 417.5 517 Q408 507 394 507 L298 507 Q284 507 277 517 Q270 527 265 540 L198 701 Q200 715 211.5 724.5 Q223 734 237 734 L317 734 Q331 734 339 724.5 Q347 715 351 701 L366 652 L395 701 Q403 715 414 724.5 Q425 734 439 734 L519 734 Q533 734 541.5 724.5 Q550 715 548 701 L435 540 Z " />
<glyph glyph-name="Dcaron" unicode="&#x10e;" horiz-adv-x="604" d="M299 434 L260 151 L302 151 Q353 151 385 189.5 Q417 228 426 293 Q446 434 341 434 L299 434 Z M363 585 Q447 585 500 558 Q553 531 582 488.5 Q611 446 619 394 Q627 342 620 293 Q613 247 591 195.5 Q569 144 528 100.5 Q487 57 426 28.5 Q365 0 281 0 L93 0 Q73 0 60.5 13 Q48 26 51 46 L120 539 Q123 559 139 572 Q155 585 175 585 L363 585 Z M449 685 Q440 672 430.5 662 Q421 652 407 652 L311 652 Q297 652 290.5 662 Q284 672 279 685 L211 846 Q213 860 224.5 869.5 Q236 879 250 879 L330 879 Q344 879 352 869.5 Q360 860 364 846 L380 797 L408 846 Q416 860 427 869.5 Q438 879 452 879 L532 879 Q546 879 554.5 869.5 Q563 860 561 846 L449 685 Z " />
<glyph glyph-name="dcaron" unicode="&#x10f;" horiz-adv-x="801" d="M242 166 Q239 145 254 131 Q269 117 289 117 Q312 117 330 131 Q348 145 351 166 L364 260 Q367 280 351.5 294 Q336 308 316 308 Q296 308 277 294 Q258 280 255 257 L242 166 Z M334 49 Q306 18 272.5 1.5 Q239 -15 207 -15 Q168 -15 137 3.5 Q106 22 85.5 53 Q65 84 56.5 125 Q48 166 54 211 Q60 256 80.5 297.5 Q101 339 130.5 370.5 Q160 402 196 421 Q232 440 271 440 Q303 440 329 427 Q355 414 380 376 L403 539 Q406 559 422 572 Q438 585 458 585 L556 585 Q576 585 588 572 Q600 559 597 539 L528 46 Q525 26 509.5 13 Q494 0 474 0 L376 0 Q356 0 343.5 14 Q331 28 334 49 Z M712 548 Q718 563 729 574 Q740 585 756 585 L830 585 Q846 585 853 574.5 Q860 564 858 548 L769 413 Q762 403 752.5 397 Q743 391 732 391 L667 391 Q651 391 644.5 401.5 Q638 412 640 428 L712 548 Z " />
<glyph glyph-name="Dcroat" unicode="&#x110;" horiz-adv-x="624" d="M383 585 Q467 585 520 558 Q573 531 602 488.5 Q631 446 639 394 Q647 342 640 293 Q633 247 611 195.5 Q589 144 548 100.5 Q507 57 446 28.5 Q385 0 301 0 L113 0 Q93 0 80.5 13 Q68 26 71 46 L96 222 L72 222 Q55 222 45 235 Q35 248 37 265 L45 327 Q48 344 62 357 Q76 370 93 370 L117 370 L140 539 Q143 559 159 572 Q175 585 195 585 L383 585 Z M290 222 L280 151 L322 151 Q373 151 405 189.5 Q437 228 446 293 Q466 434 361 434 L319 434 L311 370 L342 370 Q359 370 369 357 Q379 344 376 327 L368 265 Q366 248 352 235 Q338 222 321 222 L290 222 Z " />
<glyph glyph-name="dcroat" unicode="&#x111;" horiz-adv-x="570" d="M584 444 L528 46 Q525 26 509.5 13 Q494 0 474 0 L376 0 Q356 0 343.5 14 Q331 28 334 49 Q306 18 272.5 1.5 Q239 -15 207 -15 Q168 -15 137 3.5 Q106 22 85.5 53 Q65 84 56.5 125 Q48 166 54 211 Q60 256 80.5 297.5 Q101 339 130.5 370.5 Q160 402 196 421 Q232 440 271 440 Q303 440 329 427 Q355 414 380 376 L390 444 L377 444 Q365 444 357.5 453 Q350 462 352 474 L358 518 Q360 530 370 539 Q380 548 392 548 L406 548 Q411 564 425.5 574.5 Q440 585 458 585 L556 585 Q574 585 585 574.5 Q596 564 598 548 L618 548 Q630 548 637 539 Q644 530 642 518 L636 474 Q634 462 624.5 453 Q615 444 603 444 L584 444 Z M242 166 Q239 145 254 131 Q269 117 289 117 Q312 117 330 131 Q348 145 351 166 L364 260 Q367 280 351.5 294 Q336 308 316 308 Q296 308 277 294 Q258 280 255 257 L242 166 Z " />
<glyph glyph-name="Emacron" unicode="&#x112;" horiz-adv-x="525" d="M444 359 Q459 359 468 347.5 Q477 336 475 320 L467 262 Q465 246 452.5 234.5 Q440 223 425 223 L270 223 L260 151 L475 151 Q492 151 502 138 Q512 125 510 108 L501 43 Q498 26 484.5 13 Q471 0 454 0 L93 0 Q73 0 60.5 13 Q48 26 51 46 L120 539 Q123 559 139 572 Q155 585 175 585 L536 585 Q553 585 563 572 Q573 559 571 542 L562 477 Q559 460 545 447 Q531 434 514 434 L299 434 L289 359 L444 359 Z M208 652 Q191 652 181 665 Q171 678 173 695 L182 757 Q184 774 198 787 Q212 800 229 800 L541 800 Q558 800 568 787 Q578 774 576 757 L567 695 Q565 678 551 665 Q537 652 520 652 L208 652 Z " />
<glyph glyph-name="emacron" unicode="&#x113;" horiz-adv-x="519" d="M305 320 Q285 320 267 310 Q249 300 238 265 L360 265 Q358 300 341.5 310 Q325 320 305 320 Z M530 226 Q528 206 512 193 Q496 180 476 180 L234 180 Q229 151 242 134 Q255 117 281 117 Q293 117 305.5 119 Q318 121 328 128 Q336 134 345 136 Q354 138 365 138 L458 138 Q477 138 489 132.5 Q501 127 498 104 Q468 55 411 21 Q354 -13 264 -13 Q194 -13 151 9 Q108 31 84.5 64.5 Q61 98 55.5 138 Q50 178 55 214 Q60 252 76.5 292 Q93 332 125 365 Q157 398 205.5 419 Q254 440 324 440 Q390 440 432 421.5 Q474 403 497 372.5 Q520 342 527 303.5 Q534 265 530 226 Z M179 507 Q162 507 152 520 Q142 533 144 550 L153 612 Q155 629 169 642 Q183 655 200 655 L512 655 Q529 655 539 642 Q549 629 547 612 L538 550 Q536 533 522 520 Q508 507 491 507 L179 507 Z " />
<glyph glyph-name="Edotaccent" unicode="&#x116;" horiz-adv-x="525" d="M444 359 Q459 359 468 347.5 Q477 336 475 320 L467 262 Q465 246 452.5 234.5 Q440 223 425 223 L270 223 L260 151 L475 151 Q492 151 502 138 Q512 125 510 108 L501 43 Q498 26 484.5 13 Q471 0 454 0 L93 0 Q73 0 60.5 13 Q48 26 51 46 L120 539 Q123 559 139 572 Q155 585 175 585 L536 585 Q553 585 563 572 Q573 559 571 542 L562 477 Q559 460 545 447 Q531 434 514 434 L299 434 L289 359 L444 359 Z M451 694 Q449 676 434 664 Q419 652 401 652 L325 652 Q306 652 295.5 664 Q285 676 287 694 L298 771 Q300 789 314.5 801 Q329 813 348 813 L424 813 Q442 813 453 801 Q464 789 462 771 L451 694 Z " />
<glyph glyph-name="edotaccent" unicode="&#x117;" horiz-adv-x="519" d="M305 320 Q285 320 267 310 Q249 300 238 265 L360 265 Q358 300 341.5 310 Q325 320 305 320 Z M530 226 Q528 206 512 193 Q496 180 476 180 L234 180 Q229 151 242 134 Q255 117 281 117 Q293 117 305.5 119 Q318 121 328 128 Q336 134 345 136 Q354 138 365 138 L458 138 Q477 138 489 132.5 Q501 127 498 104 Q468 55 411 21 Q354 -13 264 -13 Q194 -13 151 9 Q108 31 84.5 64.5 Q61 98 55.5 138 Q50 178 55 214 Q60 252 76.5 292 Q93 332 125 365 Q157 398 205.5 419 Q254 440 324 440 Q390 440 432 421.5 Q474 403 497 372.5 Q520 342 527 303.5 Q534 265 530 226 Z M416 549 Q413 531 398.5 519 Q384 507 366 507 L290 507 Q271 507 260 519 Q249 531 252 549 L262 626 Q265 644 279 656 Q293 668 312 668 L388 668 Q406 668 417.5 656 Q429 644 426 626 L416 549 Z " />
<glyph glyph-name="Eogonek" unicode="&#x118;" horiz-adv-x="526" d="M441 -188 Q430 -189 420 -189 Q410 -189 405 -189 Q379 -189 354 -183.5 Q329 -178 310.5 -165 Q292 -152 282.5 -132.5 Q273 -113 277 -84 Q280 -58 293.5 -35.5 Q307 -13 322 0 L93 0 Q73 0 60.5 13 Q48 26 51 46 L120 539 Q123 559 139 572 Q155 585 175 585 L536 585 Q553 585 563 572 Q573 559 571 542 L562 477 Q559 460 545 447 Q531 434 514 434 L299 434 L289 359 L444 359 Q459 359 468 347.5 Q477 336 475 320 L467 262 Q465 246 452.5 234.5 Q440 223 425 223 L270 223 L260 151 L475 151 Q492 151 502 138 Q512 125 510 108 L501 43 Q498 26 484.5 13 Q471 0 454 0 L445 0 Q427 -16 419.5 -33.5 Q412 -51 410 -57 Q409 -64 416 -75 Q423 -86 439 -86 Q442 -86 447 -86 Q452 -86 458 -85 Q469 -85 475 -94 Q481 -103 479 -115 L473 -160 Q471 -171 461.5 -179.5 Q452 -188 441 -188 Z " />
<glyph glyph-name="eogonek" unicode="&#x119;" horiz-adv-x="519" d="M318 -188 Q307 -189 297 -189 Q287 -189 282 -189 Q256 -189 231 -183.5 Q206 -178 187.5 -165 Q169 -152 159.5 -132.5 Q150 -113 154 -84 Q158 -58 169.5 -38 Q181 -18 195 -6 Q148 5 118.5 28.5 Q89 52 73.5 83 Q58 114 54.5 148.5 Q51 183 55 214 Q60 252 76.5 292 Q93 332 125 365 Q157 398 205.5 419 Q254 440 324 440 Q390 440 432.5 420.5 Q475 401 498.5 370 Q522 339 528.5 301 Q535 263 530 226 Q528 206 512 193 Q496 180 476 180 L234 180 Q229 151 242 134 Q255 117 281 117 Q293 117 305.5 119 Q318 121 328 128 Q336 134 345 136 Q354 138 365 138 L458 138 Q477 138 489 132.5 Q501 127 498 104 Q472 62 428 31.5 Q384 1 317 -9 Q298 -25 293.5 -38 Q289 -51 287 -57 Q286 -64 293 -75 Q300 -86 316 -86 Q319 -86 324 -86 Q329 -86 335 -85 Q346 -85 352 -94 Q358 -103 356 -115 L350 -160 Q348 -171 338.5 -179.5 Q329 -188 318 -188 Z M305 320 Q285 320 267 310 Q249 300 238 265 L360 265 Q358 300 341.5 310 Q325 320 305 320 Z " />
<glyph glyph-name="Ecaron" unicode="&#x11a;" horiz-adv-x="525" d="M444 359 Q459 359 468 347.5 Q477 336 475 320 L467 262 Q465 246 452.5 234.5 Q440 223 425 223 L270 223 L260 151 L475 151 Q492 151 502 138 Q512 125 510 108 L501 43 Q498 26 484.5 13 Q471 0 454 0 L93 0 Q73 0 60.5 13 Q48 26 51 46 L120 539 Q123 559 139 572 Q155 585 175 585 L536 585 Q553 585 563 572 Q573 559 571 542 L562 477 Q559 460 545 447 Q531 434 514 434 L299 434 L289 359 L444 359 Z M453 685 Q444 672 434.5 662 Q425 652 411 652 L315 652 Q301 652 294.5 662 Q288 672 283 685 L215 846 Q217 860 228.5 869.5 Q240 879 254 879 L334 879 Q348 879 356 869.5 Q364 860 368 846 L384 797 L412 846 Q420 860 431 869.5 Q442 879 456 879 L536 879 Q550 879 558.5 869.5 Q567 860 565 846 L453 685 Z " />
<glyph glyph-name="ecaron" unicode="&#x11b;" horiz-adv-x="519" d="M305 320 Q285 320 267 310 Q249 300 238 265 L360 265 Q358 300 341.5 310 Q325 320 305 320 Z M530 226 Q528 206 512 193 Q496 180 476 180 L234 180 Q229 151 242 134 Q255 117 281 117 Q293 117 305.5 119 Q318 121 328 128 Q336 134 345 136 Q354 138 365 138 L458 138 Q477 138 489 132.5 Q501 127 498 104 Q468 55 411 21 Q354 -13 264 -13 Q194 -13 151 9 Q108 31 84.5 64.5 Q61 98 55.5 138 Q50 178 55 214 Q60 252 76.5 292 Q93 332 125 365 Q157 398 205.5 419 Q254 440 324 440 Q390 440 432 421.5 Q474 403 497 372.5 Q520 342 527 303.5 Q534 265 530 226 Z M424 540 Q416 527 406.5 517 Q397 507 383 507 L287 507 Q273 507 266 517 Q259 527 254 540 L187 701 Q189 715 200.5 724.5 Q212 734 226 734 L306 734 Q320 734 328 724.5 Q336 715 340 701 L355 652 L384 701 Q392 715 403 724.5 Q414 734 428 734 L508 734 Q522 734 530.5 724.5 Q539 715 537 701 L424 540 Z " />
<glyph glyph-name="Gcircumflex" unicode="&#x11c;" horiz-adv-x="651" d="M618 325 Q635 325 644 314 Q653 303 651 286 L616 39 Q614 22 600.5 11 Q587 0 570 0 L531 0 Q514 0 503.5 11 Q493 22 495 39 L496 54 Q464 17 418.5 2 Q373 -13 323 -13 Q239 -13 186 17 Q133 47 104 92.5 Q75 138 67 192 Q59 246 66 294 Q72 340 95 393.5 Q118 447 159 492.5 Q200 538 261.5 568.5 Q323 599 407 599 Q526 599 591 547.5 Q656 496 663 415 Q660 392 646 386 Q632 380 613 380 L493 380 Q474 380 467 388 Q460 396 453 417 Q447 436 427 448.5 Q407 461 387 461 Q362 461 340.5 447 Q319 433 302.5 410 Q286 387 275.5 356.5 Q265 326 260 294 Q255 261 258.5 230.5 Q262 200 273 176.5 Q284 153 302.5 139 Q321 125 347 125 Q405 125 437.5 146.5 Q470 168 489 207 L429 207 Q413 207 404 218 Q395 229 397 246 L403 286 Q405 303 417 314 Q429 325 445 325 L618 325 Z M597 685 Q595 671 583.5 661.5 Q572 652 558 652 L478 652 Q464 652 456 661.5 Q448 671 444 685 L429 734 L400 685 Q392 671 381 661.5 Q370 652 356 652 L276 652 Q262 652 253.5 661.5 Q245 671 247 685 L359 846 Q368 859 377.5 869 Q387 879 401 879 L497 879 Q511 879 517.5 869 Q524 859 529 846 L597 685 Z " />
<glyph glyph-name="gcircumflex" unicode="&#x11d;" horiz-adv-x="567" d="M242 168 Q239 145 254 131 Q269 117 289 117 Q309 117 328.5 131 Q348 145 351 165 L364 261 Q367 282 353 296 Q339 310 316 310 Q296 310 277 296 Q258 282 255 261 L242 168 Z M217 -61 Q225 -70 236.5 -73.5 Q248 -77 261 -77 Q293 -77 307.5 -57 Q322 -37 326 -8 L334 46 Q297 14 268.5 0.5 Q240 -13 208 -13 Q169 -13 138 5.5 Q107 24 86.5 55 Q66 86 57.5 127.5 Q49 169 55 214 Q61 259 81.5 300 Q102 341 131 372 Q160 403 196 421.5 Q232 440 271 440 Q303 440 331.5 423.5 Q360 407 380 376 Q383 398 399 411.5 Q415 425 435 425 L533 425 Q553 425 565 412 Q577 399 575 379 L525 28 Q518 -25 499 -67.5 Q480 -110 446 -139.5 Q412 -169 362 -185 Q312 -201 242 -201 Q198 -201 165.5 -193 Q133 -185 109.5 -170.5 Q86 -156 70 -135 Q54 -114 42 -88 Q41 -86 41 -81 Q43 -72 52 -64 Q59 -58 68.5 -54 Q78 -50 87 -50 L185 -50 Q198 -50 205 -53 Q212 -56 217 -61 Z M539 540 Q537 526 526 516.5 Q515 507 501 507 L421 507 Q407 507 399 516.5 Q391 526 386 540 L371 589 L342 540 Q334 526 323.5 516.5 Q313 507 299 507 L219 507 Q205 507 196 516.5 Q187 526 189 540 L302 701 Q310 714 320 724 Q330 734 344 734 L440 734 Q454 734 460.5 724 Q467 714 472 701 L539 540 Z " />
<glyph glyph-name="Gbreve" unicode="&#x11e;" horiz-adv-x="651" d="M618 325 Q635 325 644 314 Q653 303 651 286 L616 39 Q614 22 600.5 11 Q587 0 570 0 L531 0 Q514 0 503.5 11 Q493 22 495 39 L496 54 Q464 17 418.5 2 Q373 -13 323 -13 Q239 -13 186 17 Q133 47 104 92.5 Q75 138 67 192 Q59 246 66 294 Q72 340 95 393.5 Q118 447 159 492.5 Q200 538 261.5 568.5 Q323 599 407 599 Q526 599 591 547.5 Q656 496 663 415 Q660 392 646 386 Q632 380 613 380 L493 380 Q474 380 467 388 Q460 396 453 417 Q447 436 427 448.5 Q407 461 387 461 Q362 461 340.5 447 Q319 433 302.5 410 Q286 387 275.5 356.5 Q265 326 260 294 Q255 261 258.5 230.5 Q262 200 273 176.5 Q284 153 302.5 139 Q321 125 347 125 Q405 125 437.5 146.5 Q470 168 489 207 L429 207 Q413 207 404 218 Q395 229 397 246 L403 286 Q405 303 417 314 Q429 325 445 325 L618 325 Z M416 652 Q355 652 312 683 Q269 714 267 781 Q269 797 281.5 807.5 Q294 818 311 818 L360 818 Q372 818 380.5 812 Q389 806 393 797 Q398 785 410.5 780.5 Q423 776 434 776 Q445 776 458.5 780.5 Q472 785 481 797 Q486 806 496 812 Q506 818 518 818 L567 818 Q584 818 593.5 807.5 Q603 797 601 781 Q581 714 529.5 683 Q478 652 416 652 Z " />
<glyph glyph-name="gbreve" unicode="&#x11f;" horiz-adv-x="567" d="M242 168 Q239 145 254 131 Q269 117 289 117 Q309 117 328.5 131 Q348 145 351 165 L364 261 Q367 282 353 296 Q339 310 316 310 Q296 310 277 296 Q258 282 255 261 L242 168 Z M217 -61 Q225 -70 236.5 -73.5 Q248 -77 261 -77 Q293 -77 307.5 -57 Q322 -37 326 -8 L334 46 Q297 14 268.5 0.5 Q240 -13 208 -13 Q169 -13 138 5.5 Q107 24 86.5 55 Q66 86 57.5 127.5 Q49 169 55 214 Q61 259 81.5 300 Q102 341 131 372 Q160 403 196 421.5 Q232 440 271 440 Q303 440 331.5 423.5 Q360 407 380 376 Q383 398 399 411.5 Q415 425 435 425 L533 425 Q553 425 565 412 Q577 399 575 379 L525 28 Q518 -25 499 -67.5 Q480 -110 446 -139.5 Q412 -169 362 -185 Q312 -201 242 -201 Q198 -201 165.5 -193 Q133 -185 109.5 -170.5 Q86 -156 70 -135 Q54 -114 42 -88 Q41 -86 41 -81 Q43 -72 52 -64 Q59 -58 68.5 -54 Q78 -50 87 -50 L185 -50 Q198 -50 205 -53 Q212 -56 217 -61 Z M368 507 Q337 507 310.5 514.5 Q284 522 263.5 538 Q243 554 231.5 578 Q220 602 219 636 Q221 652 233.5 662.5 Q246 673 263 673 L312 673 Q324 673 332.5 667 Q341 661 344 652 Q349 640 361.5 635.5 Q374 631 385 631 Q396 631 410 635.5 Q424 640 432 652 Q438 661 448 667 Q458 673 470 673 L519 673 Q536 673 545.5 662.5 Q555 652 553 636 Q532 569 481 538 Q430 507 368 507 Z " />
<glyph glyph-name="Gdotaccent" unicode="&#x120;" horiz-adv-x="651" d="M618 325 Q635 325 644 314 Q653 303 651 286 L616 39 Q614 22 600.5 11 Q587 0 570 0 L531 0 Q514 0 503.5 11 Q493 22 495 39 L496 54 Q464 17 418.5 2 Q373 -13 323 -13 Q239 -13 186 17 Q133 47 104 92.5 Q75 138 67 192 Q59 246 66 294 Q72 340 95 393.5 Q118 447 159 492.5 Q200 538 261.5 568.5 Q323 599 407 599 Q526 599 591 547.5 Q656 496 663 415 Q660 392 646 386 Q632 380 613 380 L493 380 Q474 380 467 388 Q460 396 453 417 Q447 436 427 448.5 Q407 461 387 461 Q362 461 340.5 447 Q319 433 302.5 410 Q286 387 275.5 356.5 Q265 326 260 294 Q255 261 258.5 230.5 Q262 200 273 176.5 Q284 153 302.5 139 Q321 125 347 125 Q405 125 437.5 146.5 Q470 168 489 207 L429 207 Q413 207 404 218 Q395 229 397 246 L403 286 Q405 303 417 314 Q429 325 445 325 L618 325 Z M508 695 Q506 677 491 664.5 Q476 652 457 652 L381 652 Q362 652 351.5 664.5 Q341 677 343 695 L354 771 Q356 789 370.5 801.5 Q385 814 404 814 L480 814 Q499 814 510 801.5 Q521 789 519 771 L508 695 Z " />
<glyph glyph-name="gdotaccent" unicode="&#x121;" horiz-adv-x="567" d="M242 168 Q239 145 254 131 Q269 117 289 117 Q309 117 328.5 131 Q348 145 351 165 L364 261 Q367 282 353 296 Q339 310 316 310 Q296 310 277 296 Q258 282 255 261 L242 168 Z M217 -61 Q225 -70 236.5 -73.5 Q248 -77 261 -77 Q293 -77 307.5 -57 Q322 -37 326 -8 L334 46 Q297 14 268.5 0.5 Q240 -13 208 -13 Q169 -13 138 5.5 Q107 24 86.5 55 Q66 86 57.5 127.5 Q49 169 55 214 Q61 259 81.5 300 Q102 341 131 372 Q160 403 196 421.5 Q232 440 271 440 Q303 440 331.5 423.5 Q360 407 380 376 Q383 398 399 411.5 Q415 425 435 425 L533 425 Q553 425 565 412 Q577 399 575 379 L525 28 Q518 -25 499 -67.5 Q480 -110 446 -139.5 Q412 -169 362 -185 Q312 -201 242 -201 Q198 -201 165.5 -193 Q133 -185 109.5 -170.5 Q86 -156 70 -135 Q54 -114 42 -88 Q41 -86 41 -81 Q43 -72 52 -64 Q59 -58 68.5 -54 Q78 -50 87 -50 L185 -50 Q198 -50 205 -53 Q212 -56 217 -61 Z M478 553 Q476 534 460 520.5 Q444 507 424 507 L342 507 Q322 507 310 520.5 Q298 534 300 553 L312 636 Q314 655 330 668.5 Q346 682 366 682 L448 682 Q468 682 480 668.5 Q492 655 490 636 L478 553 Z " />
<glyph glyph-name="uni0122" unicode="&#x122;" horiz-adv-x="651" d="M618 325 Q635 325 644 314 Q653 303 651 286 L616 39 Q614 22 600.5 11 Q587 0 570 0 L531 0 Q514 0 503.5 11 Q493 22 495 39 L496 54 Q464 17 418.5 2 Q373 -13 323 -13 Q239 -13 186 17 Q133 47 104 92.5 Q75 138 67 192 Q59 246 66 294 Q72 340 95 393.5 Q118 447 159 492.5 Q200 538 261.5 568.5 Q323 599 407 599 Q526 599 591 547.5 Q656 496 663 415 Q660 392 646 386 Q632 380 613 380 L493 380 Q474 380 467 388 Q460 396 453 417 Q447 436 427 448.5 Q407 461 387 461 Q362 461 340.5 447 Q319 433 302.5 410 Q286 387 275.5 356.5 Q265 326 260 294 Q255 261 258.5 230.5 Q262 200 273 176.5 Q284 153 302.5 139 Q321 125 347 125 Q405 125 437.5 146.5 Q470 168 489 207 L429 207 Q413 207 404 218 Q395 229 397 246 L403 286 Q405 303 417 314 Q429 325 445 325 L618 325 Z M320 -260 Q311 -271 300.5 -278 Q290 -285 276 -285 L227 -285 Q207 -285 196 -272.5 Q185 -260 188 -241 L218 -135 Q229 -118 243 -104.5 Q257 -91 282 -91 L349 -91 Q369 -91 380 -103.5 Q391 -116 389 -135 L320 -260 Z " />
<glyph glyph-name="uni0123" unicode="&#x123;" horiz-adv-x="567" d="M242 168 Q239 145 254 131 Q269 117 289 117 Q309 117 328.5 131 Q348 145 351 165 L364 261 Q367 282 353 296 Q339 310 316 310 Q296 310 277 296 Q258 282 255 261 L242 168 Z M217 -61 Q225 -70 236.5 -73.5 Q248 -77 261 -77 Q293 -77 307.5 -57 Q322 -37 326 -8 L334 46 Q297 14 268.5 0.5 Q240 -13 208 -13 Q169 -13 138 5.5 Q107 24 86.5 55 Q66 86 57.5 127.5 Q49 169 55 214 Q61 259 81.5 300 Q102 341 131 372 Q160 403 196 421.5 Q232 440 271 440 Q303 440 331.5 423.5 Q360 407 380 376 Q383 398 399 411.5 Q415 425 435 425 L533 425 Q553 425 565 412 Q577 399 575 379 L525 28 Q518 -25 499 -67.5 Q480 -110 446 -139.5 Q412 -169 362 -185 Q312 -201 242 -201 Q198 -201 165.5 -193 Q133 -185 109.5 -170.5 Q86 -156 70 -135 Q54 -114 42 -88 Q41 -86 41 -81 Q43 -72 52 -64 Q59 -58 68.5 -54 Q78 -50 87 -50 L185 -50 Q198 -50 205 -53 Q212 -56 217 -61 Z M374 676 Q382 687 392.5 694 Q403 701 417 701 L466 701 Q486 701 497 688.5 Q508 676 506 657 L476 551 Q465 534 451 520.5 Q437 507 412 507 L345 507 Q325 507 313.5 519.5 Q302 532 305 551 L374 676 Z " />
<glyph glyph-name="Hcircumflex" unicode="&#x124;" horiz-adv-x="619" d="M430 358 L455 539 Q458 559 474 572 Q490 585 510 585 L608 585 Q628 585 640 572 Q652 559 649 539 L580 46 Q577 26 561.5 13 Q546 0 526 0 L428 0 Q408 0 395.5 13 Q383 26 386 46 L408 206 L267 206 L245 46 Q242 26 226.5 13 Q211 0 191 0 L93 0 Q73 0 60.5 13 Q48 26 51 46 L120 539 Q123 559 139 572 Q155 585 175 585 L273 585 Q293 585 305 572 Q317 559 314 539 L289 358 L430 358 Z M512 846 Q507 859 500.5 869 Q494 879 480 879 L384 879 Q370 879 360.5 869 Q351 859 342 846 L230 685 Q228 671 236.5 661.5 Q245 652 259 652 L339 652 Q353 652 364 661.5 Q375 671 383 685 L412 734 L427 685 Q431 671 439 661.5 Q447 652 461 652 L541 652 Q555 652 566.5 661.5 Q578 671 580 685 L512 846 Z " />
<glyph glyph-name="hcircumflex" unicode="&#x125;" horiz-adv-x="577" d="M291 376 Q328 414 367 427 Q406 440 438 440 Q516 440 552 384 Q588 328 571 211 L548 46 Q545 26 529.5 13 Q514 0 494 0 L396 0 Q376 0 363.5 13 Q351 26 354 46 L384 259 Q387 282 372 296 Q357 310 337 310 Q317 310 297.5 296 Q278 282 275 262 L245 46 Q242 26 226.5 13 Q211 0 191 0 L93 0 Q73 0 60.5 13 Q48 26 51 46 L120 539 Q123 559 139 572 Q155 585 175 585 L273 585 Q293 585 305 572 Q317 559 314 539 L291 376 Z M508 685 Q506 671 494.5 661.5 Q483 652 469 652 L389 652 Q375 652 367 661.5 Q359 671 355 685 L340 734 L311 685 Q303 671 292 661.5 Q281 652 267 652 L187 652 Q173 652 164.5 661.5 Q156 671 158 685 L270 846 Q279 859 288.5 869 Q298 879 312 879 L408 879 Q422 879 428.5 869 Q435 859 440 846 L508 685 Z " />
<glyph glyph-name="Hbar" unicode="&#x126;" horiz-adv-x="701" d="M741 526 Q755 526 763.5 515.5 Q772 505 770 491 L762 441 Q760 427 749.5 416.5 Q739 406 725 406 L672 406 L621 46 Q618 26 602.5 13 Q587 0 567 0 L469 0 Q449 0 436.5 13 Q424 26 427 46 L449 206 L308 206 L286 46 Q283 26 267.5 13 Q252 0 232 0 L134 0 Q114 0 101.5 13 Q89 26 92 46 L143 406 L90 406 Q76 406 67.5 416.5 Q59 427 61 441 L69 491 Q71 505 81.5 515.5 Q92 526 106 526 L159 526 L161 539 Q164 559 180 572 Q196 585 216 585 L314 585 Q334 585 346 572 Q358 559 355 539 L353 526 L494 526 L496 539 Q499 559 515 572 Q531 585 551 585 L649 585 Q669 585 681 572 Q693 559 690 539 L688 526 L741 526 Z M478 406 L337 406 L330 358 L471 358 L478 406 Z " />
<glyph glyph-name="hbar" unicode="&#x127;" horiz-adv-x="580" d="M91 444 Q79 444 71.5 453 Q64 462 66 474 L72 518 Q74 530 84 539 Q94 548 106 548 L126 548 Q131 564 145.5 574.5 Q160 585 178 585 L276 585 Q294 585 305 574.5 Q316 564 318 548 L332 548 Q344 548 351 539 Q358 530 356 518 L350 474 Q348 462 338.5 453 Q329 444 317 444 L304 444 L294 376 Q331 414 370 427 Q409 440 441 440 Q519 440 555 384 Q591 328 574 211 L551 46 Q548 26 532.5 13 Q517 0 497 0 L399 0 Q379 0 366.5 13 Q354 26 357 46 L387 259 Q390 282 375 296 Q360 310 340 310 Q320 310 300.5 296 Q281 282 278 262 L248 46 Q245 26 229.5 13 Q214 0 194 0 L96 0 Q76 0 63.5 13 Q51 26 54 46 L110 444 L91 444 Z " />
<glyph glyph-name="Itilde" unicode="&#x128;" horiz-adv-x="284" d="M245 46 Q242 26 226.5 13 Q211 0 191 0 L93 0 Q73 0 60.5 13 Q48 26 51 46 L120 539 Q123 559 139 572 Q155 585 175 585 L273 585 Q293 585 305 572 Q317 559 314 539 L245 46 Z M299 652 Q282 652 266.5 657.5 Q251 663 235.5 669 Q220 675 204.5 680.5 Q189 686 171 686 Q165 686 154 684 Q143 682 132 679 Q126 676 120 676 Q109 676 99.5 682.5 Q90 689 87 700 L76 749 Q73 755 75 762 Q77 773 83.5 782 Q90 791 100 795 Q125 806 149.5 810 Q174 814 189 814 Q206 814 221.5 808.5 Q237 803 252.5 797 Q268 791 283.5 785.5 Q299 780 317 780 Q323 780 334 782 Q345 784 356 787 Q362 790 369 790 Q380 790 389 783.5 Q398 777 401 766 L412 717 Q415 711 413 704 Q411 693 405 684 Q399 675 388 671 Q363 660 338.5 656 Q314 652 299 652 Z " />
<glyph glyph-name="itilde" unicode="&#x129;" horiz-adv-x="284" d="M245 46 Q242 26 226.5 13 Q211 0 191 0 L93 0 Q73 0 60.5 13 Q48 26 51 46 L98 379 Q100 399 116 412 Q132 425 152 425 L250 425 Q270 425 282 412 Q294 399 292 379 L245 46 Z M279 507 Q262 507 246.5 512.5 Q231 518 215.5 524 Q200 530 184.5 535.5 Q169 541 151 541 Q145 541 134 539 Q123 537 112 534 Q105 531 99 531 Q88 531 79 537.5 Q70 544 67 555 L55 604 Q54 607 54 610.5 Q54 614 54 617 Q56 628 62.5 637 Q69 646 80 650 Q105 661 129.5 665 Q154 669 169 669 Q186 669 201.5 663.5 Q217 658 232.5 652 Q248 646 263.5 640.5 Q279 635 297 635 Q303 635 313.5 637 Q324 639 336 642 Q342 645 348 645 Q359 645 368.5 638.5 Q378 632 381 621 L392 572 Q394 564 393 559 Q391 548 384.5 539 Q378 530 367 526 Q342 515 318 511 Q294 507 279 507 Z " />
<glyph glyph-name="Imacron" unicode="&#x12a;" horiz-adv-x="284" d="M245 46 Q242 26 226.5 13 Q211 0 191 0 L93 0 Q73 0 60.5 13 Q48 26 51 46 L120 539 Q123 559 139 572 Q155 585 175 585 L273 585 Q293 585 305 572 Q317 559 314 539 L245 46 Z M92 652 Q75 652 65 665 Q55 678 57 695 L66 757 Q68 774 82 787 Q96 800 113 800 L396 800 Q413 800 423 787 Q433 774 431 757 L422 695 Q420 678 406 665 Q392 652 375 652 L92 652 Z " />
<glyph glyph-name="imacron" unicode="&#x12b;" horiz-adv-x="282" d="M244 46 Q241 26 225.5 13 Q210 0 190 0 L92 0 Q72 0 59.5 13 Q47 26 50 46 L97 379 Q99 399 115 412 Q131 425 151 425 L249 425 Q269 425 281 412 Q293 399 291 379 L244 46 Z M71 507 Q54 507 44 520 Q34 533 36 550 L45 612 Q47 629 61 642 Q75 655 92 655 L375 655 Q392 655 402 642 Q412 629 410 612 L401 550 Q399 533 385 520 Q371 507 354 507 L71 507 Z " />
<glyph glyph-name="Iogonek" unicode="&#x12e;" horiz-adv-x="284" d="M120 539 Q123 559 139 572 Q155 585 175 585 L273 585 Q293 585 305 572 Q317 559 314 539 L245 46 Q243 29 231 16.5 Q219 4 203 0 Q183 -18 176.5 -35 Q170 -52 169 -57 Q168 -64 175 -75 Q182 -86 198 -86 L209 -86 Q220 -86 229 -95.5 Q238 -105 236 -117 L230 -162 Q228 -173 215.5 -180.5 Q203 -188 192 -188 Q184 -189 176.5 -189 Q169 -189 164 -189 Q138 -189 113 -183.5 Q88 -178 69.5 -165 Q51 -152 41.5 -132.5 Q32 -113 36 -84 Q39 -61 53 -38 Q67 -15 81 0 Q66 4 57.5 16.5 Q49 29 51 46 L120 539 Z " />
<glyph glyph-name="iogonek" unicode="&#x12f;" horiz-adv-x="284" d="M245 46 Q243 29 230.5 16.5 Q218 4 202 0 Q182 -18 175.5 -35 Q169 -52 168 -57 Q167 -64 174 -75 Q181 -86 197 -86 L208 -86 Q219 -86 228 -95.5 Q237 -105 235 -117 L229 -162 Q227 -173 214.5 -180.5 Q202 -188 191 -188 Q183 -189 175.5 -189 Q168 -189 163 -189 Q137 -189 112 -183.5 Q87 -178 68.5 -165 Q50 -152 40.5 -132.5 Q31 -113 35 -84 Q38 -61 52 -38 Q66 -15 80 0 Q65 4 57 16.5 Q49 29 51 46 L98 379 Q100 399 116 412 Q132 425 152 425 L250 425 Q270 425 282 412 Q294 399 292 379 L245 46 Z M310 507 Q307 487 291 474 Q275 461 255 461 L157 461 Q137 461 125 474 Q113 487 116 507 L123 558 Q126 578 141.5 591 Q157 604 177 604 L275 604 Q295 604 307.5 591 Q320 578 317 558 L310 507 Z " />
<glyph glyph-name="Idotaccent" unicode="&#x130;" horiz-adv-x="284" d="M245 46 Q242 26 226.5 13 Q211 0 191 0 L93 0 Q73 0 60.5 13 Q48 26 51 46 L120 539 Q123 559 139 572 Q155 585 175 585 L273 585 Q293 585 305 572 Q317 559 314 539 L245 46 Z M337 698 Q334 678 318 665 Q302 652 282 652 L184 652 Q164 652 152 665 Q140 678 143 698 L150 749 Q152 769 168 782 Q184 795 204 795 L302 795 Q322 795 334 782 Q346 769 344 749 L337 698 Z " />
<glyph glyph-name="dotlessi" unicode="&#x131;" horiz-adv-x="284" d="M245 46 Q242 26 226.5 13 Q211 0 191 0 L93 0 Q73 0 60.5 13 Q48 26 51 46 L98 379 Q100 399 116 412 Q132 425 152 425 L250 425 Q270 425 282 412 Q294 399 292 379 L245 46 Z " />
<glyph glyph-name="Jcircumflex" unicode="&#x134;" horiz-adv-x="541" d="M220 182 Q223 150 236 137.5 Q249 125 269 125 Q294 125 309.5 142.5 Q325 160 333 214 L378 539 Q381 559 397 572 Q413 585 433 585 L530 585 Q550 585 562 572 Q574 559 571 539 L526 214 Q520 174 502.5 133 Q485 92 452 60 Q419 28 369.5 7.5 Q320 -13 250 -13 Q188 -13 146.5 3.5 Q105 20 79.5 47.5 Q54 75 44 110 Q34 145 35 182 Q38 202 54 215 Q70 228 90 228 L179 228 Q199 228 208.5 215 Q218 202 220 182 Z M573 685 Q571 671 559.5 661.5 Q548 652 534 652 L454 652 Q440 652 432 661.5 Q424 671 420 685 L405 734 L376 685 Q368 671 357 661.5 Q346 652 332 652 L252 652 Q238 652 229.5 661.5 Q221 671 223 685 L335 846 Q344 859 353.5 869 Q363 879 377 879 L473 879 Q487 879 493.5 869 Q500 859 505 846 L573 685 Z " />
<glyph glyph-name="jcircumflex" unicode="&#x135;" horiz-adv-x="284" d="M-37 -209 Q-51 -209 -60 -198.5 Q-69 -188 -67 -173 L-58 -109 Q-56 -93 -43 -81.5 Q-30 -70 -16 -70 L-11 -70 Q14 -70 26 -59.5 Q38 -49 40 -35 L98 379 Q100 399 116 412 Q132 425 152 425 L250 425 Q270 425 282 412 Q294 399 292 379 L236 -21 Q223 -112 174.5 -162.5 Q126 -213 44 -213 Q30 -213 7 -212.5 Q-16 -212 -37 -209 Z M392 540 Q390 526 379 516.5 Q368 507 354 507 L274 507 Q260 507 252 516.5 Q244 526 239 540 L224 589 L195 540 Q187 526 176.5 516.5 Q166 507 152 507 L72 507 Q58 507 49 516.5 Q40 526 42 540 L155 701 Q163 714 173 724 Q183 734 197 734 L293 734 Q307 734 313.5 724 Q320 714 325 701 L392 540 Z " />
<glyph glyph-name="uni0136" unicode="&#x136;" horiz-adv-x="630" d="M346 241 L261 163 L245 46 Q242 26 226.5 13 Q211 0 191 0 L93 0 Q73 0 60.5 13 Q48 26 51 46 L120 539 Q123 559 139 572 Q155 585 175 585 L273 585 Q293 585 305 572 Q317 559 314 539 L294 393 L480 565 Q500 585 525 585 L629 585 Q649 585 661 572 Q673 559 670 539 L499 381 L631 46 Q628 26 612.5 13 Q597 0 577 0 L476 0 Q451 0 436 20 L346 241 Z M320 -260 Q311 -271 300.5 -278 Q290 -285 276 -285 L227 -285 Q207 -285 196 -272.5 Q185 -260 188 -241 L218 -135 Q229 -118 243 -104.5 Q257 -91 282 -91 L349 -91 Q369 -91 380 -103.5 Q391 -116 389 -135 L320 -260 Z " />
<glyph glyph-name="uni0137" unicode="&#x137;" horiz-adv-x="518" d="M260 152 L245 46 Q242 26 226.5 13 Q211 0 191 0 L93 0 Q73 0 60.5 13 Q48 26 51 46 L120 539 Q123 559 139 572 Q155 585 175 585 L273 585 Q293 585 305 572 Q317 559 314 539 L280 295 L296 295 L389 404 Q405 425 431 425 L526 425 Q544 425 557 417.5 Q570 410 566 383 L419 212 L518 42 Q514 15 499.5 7.5 Q485 0 467 0 L372 0 Q346 0 335 21 L260 152 Z M263 -260 Q254 -271 243.5 -278 Q233 -285 219 -285 L170 -285 Q150 -285 139 -272.5 Q128 -260 131 -241 L161 -135 Q172 -118 186 -104.5 Q200 -91 225 -91 L292 -91 Q312 -91 323 -103.5 Q334 -116 332 -135 L263 -260 Z " />
<glyph glyph-name="kgreenlandic" unicode="&#x138;" horiz-adv-x="518" d="M260 152 L245 46 Q242 26 226.5 13 Q211 0 191 0 L93 0 Q73 0 60.5 13 Q48 26 51 46 L98 379 Q100 399 116 412 Q132 425 152 425 L250 425 Q270 425 282 412 Q294 399 292 379 L280 295 L296 295 L389 404 Q405 425 431 425 L526 425 Q544 425 557 417.5 Q570 410 566 383 L419 212 L518 42 Q514 15 499.5 7.5 Q485 0 467 0 L372 0 Q346 0 335 21 L260 152 Z " />
<glyph glyph-name="Lacute" unicode="&#x139;" horiz-adv-x="515" d="M475 151 Q492 151 502 138 Q512 125 510 108 L501 43 Q498 26 484.5 13 Q471 0 454 0 L93 0 Q73 0 60.5 13 Q48 26 51 46 L120 539 Q123 559 139 572 Q155 585 175 585 L273 585 Q293 585 305 572 Q317 559 314 539 L260 151 L475 151 Z M315 677 Q306 666 295.5 659 Q285 652 271 652 L205 652 Q185 652 174 664.5 Q163 677 165 696 L228 802 Q239 819 251.5 832.5 Q264 846 284 846 L380 846 Q400 846 411.5 833.5 Q423 821 420 802 L315 677 Z " />
<glyph glyph-name="lacute" unicode="&#x13a;" horiz-adv-x="284" d="M245 46 Q242 26 226.5 13 Q211 0 191 0 L93 0 Q73 0 60.5 13 Q48 26 51 46 L120 539 Q123 559 139 572 Q155 585 175 585 L273 585 Q293 585 305 572 Q317 559 314 539 L245 46 Z M334 677 Q325 666 314.5 659 Q304 652 290 652 L224 652 Q204 652 193 664.5 Q182 677 184 696 L247 802 Q258 819 270.5 832.5 Q283 846 303 846 L399 846 Q419 846 430.5 833.5 Q442 821 439 802 L334 677 Z " />
<glyph glyph-name="uni013B" unicode="&#x13b;" horiz-adv-x="515" d="M475 151 Q492 151 502 138 Q512 125 510 108 L501 43 Q498 26 484.5 13 Q471 0 454 0 L93 0 Q73 0 60.5 13 Q48 26 51 46 L120 539 Q123 559 139 572 Q155 585 175 585 L273 585 Q293 585 305 572 Q317 559 314 539 L260 151 L475 151 Z M279 -260 Q270 -271 259.5 -278 Q249 -285 235 -285 L186 -285 Q166 -285 155 -272.5 Q144 -260 147 -241 L177 -135 Q188 -118 202 -104.5 Q216 -91 241 -91 L308 -91 Q328 -91 339 -103.5 Q350 -116 348 -135 L279 -260 Z " />
<glyph glyph-name="uni013C" unicode="&#x13c;" horiz-adv-x="284" d="M245 46 Q242 26 226.5 13 Q211 0 191 0 L93 0 Q73 0 60.5 13 Q48 26 51 46 L120 539 Q123 559 139 572 Q155 585 175 585 L273 585 Q293 585 305 572 Q317 559 314 539 L245 46 Z M132 -260 Q123 -271 112.5 -278 Q102 -285 88 -285 L39 -285 Q19 -285 8.5 -272.5 Q-2 -260 0 -241 L30 -135 Q41 -118 55 -104.5 Q69 -91 94 -91 L161 -91 Q181 -91 192 -103.5 Q203 -116 201 -135 L132 -260 Z " />
<glyph glyph-name="Lcaron" unicode="&#x13d;" horiz-adv-x="515" d="M475 151 Q492 151 502 138 Q512 125 510 108 L501 43 Q498 26 484.5 13 Q471 0 454 0 L93 0 Q73 0 60.5 13 Q48 26 51 46 L120 539 Q123 559 139 572 Q155 585 175 585 L273 585 Q293 585 305 572 Q317 559 314 539 L260 151 L475 151 Z M400 548 Q406 563 417 574 Q428 585 444 585 L523 585 Q539 585 546 574.5 Q553 564 551 548 L476 434 Q470 424 460.5 418 Q451 412 440 412 L384 412 Q368 412 361.5 422.5 Q355 433 357 449 L400 548 Z " />
<glyph glyph-name="lcaron" unicode="&#x13e;" horiz-adv-x="497" d="M245 46 Q242 26 226.5 13 Q211 0 191 0 L93 0 Q73 0 60.5 13 Q48 26 51 46 L120 539 Q123 559 139 572 Q155 585 175 585 L273 585 Q293 585 305 572 Q317 559 314 539 L245 46 Z M424 548 Q432 562 443.5 573.5 Q455 585 471 585 L546 585 Q562 585 569 574.5 Q576 564 574 548 L485 413 Q478 403 468.5 397 Q459 391 448 391 L382 391 Q366 391 359.5 401.5 Q353 412 355 428 L424 548 Z " />
<glyph glyph-name="Lslash" unicode="&#x141;" horiz-adv-x="566" d="M147 365 L171 539 Q174 559 190 572 Q206 585 226 585 L324 585 Q344 585 356 572 Q368 559 365 539 L348 416 L403 430 Q419 430 428 419 Q437 408 434 391 L425 322 Q423 305 410.5 296.5 Q398 288 382 283 L327 269 L311 151 L526 151 Q543 151 553 138 Q563 125 561 108 L552 43 Q549 26 535.5 13 Q522 0 505 0 L144 0 Q124 0 111.5 13 Q99 26 102 46 L126 218 L75 206 Q59 206 50.5 217 Q42 228 44 245 L54 314 Q56 331 68 340 Q80 349 96 353 L147 365 Z " />
<glyph glyph-name="lslash" unicode="&#x142;" horiz-adv-x="390" d="M330 270 L299 46 Q296 26 279.5 13 Q263 0 243 0 L145 0 Q125 0 112.5 13 Q100 26 103 46 L127 219 L75 206 Q59 206 50.5 217 Q42 228 44 245 L54 314 Q56 331 68 340 Q80 349 96 353 L148 366 L172 539 Q175 559 191 572 Q207 585 227 585 L325 585 Q345 585 358 572 Q371 559 368 539 L351 417 L403 430 Q419 430 428 419 Q437 408 434 391 L425 322 Q423 305 410.5 296.5 Q398 288 382 283 L330 270 Z " />
<glyph glyph-name="Nacute" unicode="&#x143;" horiz-adv-x="662" d="M465 301 L498 539 Q501 559 517 572 Q533 585 553 585 L651 585 Q671 585 683 572 Q695 559 692 539 L623 46 Q620 26 604.5 13 Q589 0 569 0 L460 0 Q425 0 415 29 L278 281 L245 46 Q242 26 226.5 13 Q211 0 191 0 L93 0 Q73 0 60.5 13 Q48 26 51 46 L120 539 Q123 559 139 572 Q155 585 175 585 L284 585 Q319 585 330 556 L465 301 Z M518 677 Q509 666 498.5 659 Q488 652 474 652 L408 652 Q388 652 377 664.5 Q366 677 368 696 L431 802 Q442 819 454.5 832.5 Q467 846 487 846 L583 846 Q603 846 614.5 833.5 Q626 821 623 802 L518 677 Z " />
<glyph glyph-name="nacute" unicode="&#x144;" horiz-adv-x="577" d="M291 376 Q328 414 367 427 Q406 440 438 440 Q516 440 552 384 Q588 328 571 211 L548 46 Q545 26 529.5 13 Q514 0 494 0 L396 0 Q376 0 363.5 13 Q351 26 354 46 L384 259 Q387 282 372 296 Q357 310 337 310 Q317 310 297.5 296 Q278 282 275 262 L245 46 Q242 26 226.5 13 Q211 0 191 0 L93 0 Q73 0 60.5 13 Q48 26 51 46 L98 379 Q100 399 116 412 Q132 425 152 425 L250 425 Q270 425 282 411.5 Q294 398 291 376 Z M447 532 Q438 521 428 514 Q418 507 404 507 L338 507 Q318 507 306.5 519.5 Q295 532 298 551 L361 657 Q372 674 384.5 687.5 Q397 701 417 701 L513 701 Q533 701 544 688.5 Q555 676 553 657 L447 532 Z " />
<glyph glyph-name="uni0145" unicode="&#x145;" horiz-adv-x="662" d="M465 301 L498 539 Q501 559 517 572 Q533 585 553 585 L651 585 Q671 585 683 572 Q695 559 692 539 L623 46 Q620 26 604.5 13 Q589 0 569 0 L460 0 Q425 0 415 29 L278 281 L245 46 Q242 26 226.5 13 Q211 0 191 0 L93 0 Q73 0 60.5 13 Q48 26 51 46 L120 539 Q123 559 139 572 Q155 585 175 585 L284 585 Q319 585 330 556 L465 301 Z M328 -260 Q319 -271 308.5 -278 Q298 -285 284 -285 L235 -285 Q215 -285 204 -272.5 Q193 -260 196 -241 L226 -135 Q237 -118 251 -104.5 Q265 -91 290 -91 L357 -91 Q377 -91 388 -103.5 Q399 -116 397 -135 L328 -260 Z " />
<glyph glyph-name="uni0146" unicode="&#x146;" horiz-adv-x="577" d="M291 376 Q328 414 367 427 Q406 440 438 440 Q516 440 552 384 Q588 328 571 211 L548 46 Q545 26 529.5 13 Q514 0 494 0 L396 0 Q376 0 363.5 13 Q351 26 354 46 L384 259 Q387 282 372 296 Q357 310 337 310 Q317 310 297.5 296 Q278 282 275 262 L245 46 Q242 26 226.5 13 Q211 0 191 0 L93 0 Q73 0 60.5 13 Q48 26 51 46 L98 379 Q100 399 116 412 Q132 425 152 425 L250 425 Q270 425 282 411.5 Q294 398 291 376 Z M289 -260 Q280 -271 269.5 -278 Q259 -285 245 -285 L196 -285 Q176 -285 165 -272.5 Q154 -260 157 -241 L187 -135 Q198 -118 212 -104.5 Q226 -91 251 -91 L318 -91 Q338 -91 349 -103.5 Q360 -116 358 -135 L289 -260 Z " />
<glyph glyph-name="Ncaron" unicode="&#x147;" horiz-adv-x="662" d="M465 301 L498 539 Q501 559 517 572 Q533 585 553 585 L651 585 Q671 585 683 572 Q695 559 692 539 L623 46 Q620 26 604.5 13 Q589 0 569 0 L460 0 Q425 0 415 29 L278 281 L245 46 Q242 26 226.5 13 Q211 0 191 0 L93 0 Q73 0 60.5 13 Q48 26 51 46 L120 539 Q123 559 139 572 Q155 585 175 585 L284 585 Q319 585 330 556 L465 301 Z M514 685 Q505 672 495.5 662 Q486 652 472 652 L376 652 Q362 652 355.5 662 Q349 672 344 685 L276 846 Q278 860 289.5 869.5 Q301 879 315 879 L395 879 Q409 879 417 869.5 Q425 860 429 846 L445 797 L473 846 Q481 860 492 869.5 Q503 879 517 879 L597 879 Q611 879 619.5 869.5 Q628 860 626 846 L514 685 Z " />
<glyph glyph-name="ncaron" unicode="&#x148;" horiz-adv-x="577" d="M291 376 Q328 414 367 427 Q406 440 438 440 Q516 440 552 384 Q588 328 571 211 L548 46 Q545 26 529.5 13 Q514 0 494 0 L396 0 Q376 0 363.5 13 Q351 26 354 46 L384 259 Q387 282 372 296 Q357 310 337 310 Q317 310 297.5 296 Q278 282 275 262 L245 46 Q242 26 226.5 13 Q211 0 191 0 L93 0 Q73 0 60.5 13 Q48 26 51 46 L98 379 Q100 399 116 412 Q132 425 152 425 L250 425 Q270 425 282 411.5 Q294 398 291 376 Z M445 540 Q437 527 427.5 517 Q418 507 404 507 L308 507 Q294 507 287 517 Q280 527 275 540 L208 701 Q210 715 221.5 724.5 Q233 734 247 734 L327 734 Q341 734 349 724.5 Q357 715 361 701 L376 652 L405 701 Q413 715 424 724.5 Q435 734 449 734 L529 734 Q543 734 551.5 724.5 Q560 715 558 701 L445 540 Z " />
<glyph glyph-name="Eng" unicode="&#x14a;" horiz-adv-x="662" d="M424 13 Q422 16 418.5 21.5 Q415 27 401 52.5 Q387 78 358.5 131 Q330 184 278 281 L245 46 Q242 26 226.5 13 Q211 0 191 0 L93 0 Q73 0 60.5 13 Q48 26 51 46 L120 539 Q123 559 139 572 Q155 585 175 585 L284 585 Q319 585 330 556 L465 301 L498 539 Q501 559 517 572 Q533 585 553 585 L651 585 Q671 585 683 572 Q695 559 692 539 L614 -21 Q601 -112 552.5 -162.5 Q504 -213 422 -213 Q408 -213 384.5 -212.5 Q361 -212 340 -209 Q326 -209 317 -198.5 Q308 -188 310 -173 L319 -109 Q321 -93 334 -81.5 Q347 -70 361 -70 L366 -70 Q392 -70 404 -59.5 Q416 -49 418 -35 L424 13 Z " />
<glyph glyph-name="eng" unicode="&#x14b;" horiz-adv-x="577" d="M539 -21 Q526 -112 477.5 -162.5 Q429 -213 347 -213 Q333 -213 309.5 -212.5 Q286 -212 265 -209 Q251 -209 242 -198.5 Q233 -188 235 -173 L244 -109 Q246 -93 259 -81.5 Q272 -70 286 -70 L291 -70 Q317 -70 329 -59.5 Q341 -49 343 -35 L384 259 Q387 282 372 296 Q357 310 337 310 Q317 310 297.5 296 Q278 282 275 262 L245 46 Q242 26 226.5 13 Q211 0 191 0 L93 0 Q73 0 60.5 13 Q48 26 51 46 L98 379 Q100 399 116 412 Q132 425 152 425 L250 425 Q270 425 282 411.5 Q294 398 291 376 Q328 414 367 427 Q406 440 438 440 Q516 440 552 384 Q588 328 571 211 L539 -21 Z " />
<glyph glyph-name="Omacron" unicode="&#x14c;" horiz-adv-x="658" d="M346 125 Q373 125 395.5 138 Q418 151 435 173.5 Q452 196 463.5 225.5 Q475 255 479 287 Q484 322 481.5 353.5 Q479 385 468.5 409 Q458 433 439 447 Q420 461 393 461 Q366 461 343.5 447 Q321 433 303.5 409 Q286 385 275 353.5 Q264 322 259 287 Q255 255 257.5 225.5 Q260 196 270.5 173.5 Q281 151 300 138 Q319 125 346 125 Z M327 -14 Q243 -14 189 15.5 Q135 45 105.5 90 Q76 135 67.5 188 Q59 241 65 287 Q72 336 95.5 391 Q119 446 161.5 492 Q204 538 266.5 568.5 Q329 599 413 599 Q497 599 550.5 568.5 Q604 538 633.5 492 Q663 446 671.5 391 Q680 336 673 287 Q667 241 643.5 188 Q620 135 577.5 90 Q535 45 473 15.5 Q411 -14 327 -14 Z M264 652 Q247 652 237 665 Q227 678 229 695 L238 757 Q240 774 254 787 Q268 800 285 800 L597 800 Q614 800 624 787 Q634 774 632 757 L623 695 Q621 678 607 665 Q593 652 576 652 L264 652 Z " />
<glyph glyph-name="omacron" unicode="&#x14d;" horiz-adv-x="538" d="M285 117 Q310 117 330 138.5 Q350 160 358 214 Q364 262 351.5 286 Q339 310 312 310 Q285 310 265.5 286 Q246 262 240 214 Q232 161 246 139 Q260 117 285 117 Z M55 214 Q60 253 77.5 293.5 Q95 334 128 366.5 Q161 399 210.5 419.5 Q260 440 330 440 Q400 440 444 419.5 Q488 399 511.5 366.5 Q535 334 541.5 293.5 Q548 253 543 214 Q537 174 519.5 133 Q502 92 469 60 Q436 28 386.5 7.5 Q337 -13 267 -13 Q197 -13 153 7.5 Q109 28 85 60 Q61 92 55 133 Q49 174 55 214 Z M184 507 Q167 507 157 520 Q147 533 149 550 L158 612 Q160 629 174 642 Q188 655 205 655 L517 655 Q534 655 544 642 Q554 629 552 612 L543 550 Q541 533 527 520 Q513 507 496 507 L184 507 Z " />
<glyph glyph-name="Ohungarumlaut" unicode="&#x150;" horiz-adv-x="658" d="M346 125 Q373 125 395.5 138 Q418 151 435 173.5 Q452 196 463.5 225.5 Q475 255 479 287 Q484 322 481.5 353.5 Q479 385 468.5 409 Q458 433 439 447 Q420 461 393 461 Q366 461 343.5 447 Q321 433 303.5 409 Q286 385 275 353.5 Q264 322 259 287 Q255 255 257.5 225.5 Q260 196 270.5 173.5 Q281 151 300 138 Q319 125 346 125 Z M327 -14 Q243 -14 189 15.5 Q135 45 105.5 90 Q76 135 67.5 188 Q59 241 65 287 Q72 336 95.5 391 Q119 446 161.5 492 Q204 538 266.5 568.5 Q329 599 413 599 Q497 599 550.5 568.5 Q604 538 633.5 492 Q663 446 671.5 391 Q680 336 673 287 Q667 241 643.5 188 Q620 135 577.5 90 Q535 45 473 15.5 Q411 -14 327 -14 Z M499 809 Q503 825 514.5 835.5 Q526 846 543 846 L618 846 Q635 846 644.5 835.5 Q654 825 652 809 L609 689 Q605 673 593.5 662.5 Q582 652 565 652 L490 652 Q473 652 463.5 662.5 Q454 673 456 689 L499 809 Z M299 809 Q303 825 314.5 835.5 Q326 846 343 846 L418 846 Q435 846 444.5 835.5 Q454 825 452 809 L409 689 Q405 673 393.5 662.5 Q382 652 365 652 L290 652 Q273 652 263.5 662.5 Q254 673 256 689 L299 809 Z " />
<glyph glyph-name="ohungarumlaut" unicode="&#x151;" horiz-adv-x="538" d="M285 117 Q310 117 330 138.5 Q350 160 358 214 Q364 262 351.5 286 Q339 310 312 310 Q285 310 265.5 286 Q246 262 240 214 Q232 161 246 139 Q260 117 285 117 Z M55 214 Q60 253 77.5 293.5 Q95 334 128 366.5 Q161 399 210.5 419.5 Q260 440 330 440 Q400 440 444 419.5 Q488 399 511.5 366.5 Q535 334 541.5 293.5 Q548 253 543 214 Q537 174 519.5 133 Q502 92 469 60 Q436 28 386.5 7.5 Q337 -13 267 -13 Q197 -13 153 7.5 Q109 28 85 60 Q61 92 55 133 Q49 174 55 214 Z M424 664 Q428 680 439.5 690.5 Q451 701 468 701 L543 701 Q560 701 569.5 690.5 Q579 680 577 664 L534 544 Q530 528 518.5 517.5 Q507 507 490 507 L415 507 Q398 507 388.5 517.5 Q379 528 381 544 L424 664 Z M224 664 Q228 680 239.5 690.5 Q251 701 268 701 L343 701 Q360 701 369.5 690.5 Q379 680 377 664 L334 544 Q330 528 318.5 517.5 Q307 507 290 507 L215 507 Q198 507 188.5 517.5 Q179 528 181 544 L224 664 Z " />
<glyph glyph-name="OE" unicode="&#x152;" horiz-adv-x="886" d="M340 125 Q366 125 393 141.5 Q420 158 433 194 L460 386 Q458 423 435.5 442 Q413 461 387 461 Q362 461 340.5 447 Q319 433 302.5 409 Q286 385 275 353.5 Q264 322 259 287 Q255 255 257.5 225.5 Q260 196 269.5 173.5 Q279 151 297 138 Q315 125 340 125 Z M429 0 Q404 -6 377 -9.5 Q350 -13 321 -13 Q237 -13 184 16.5 Q131 46 102.5 91 Q74 136 66.5 188.5 Q59 241 65 287 Q72 336 94.5 391 Q117 446 158.5 492 Q200 538 261.5 568.5 Q323 599 407 599 Q437 599 463 595.5 Q489 592 512 585 L897 585 Q914 585 924 572 Q934 559 932 542 L923 477 Q920 460 906 447 Q892 434 875 434 L660 434 L650 359 L805 359 Q820 359 829 347.5 Q838 336 836 320 L828 262 Q826 246 813.5 234.5 Q801 223 786 223 L631 223 L621 151 L836 151 Q853 151 863 138 Q873 125 871 108 L862 43 Q859 26 845.5 13 Q832 0 815 0 L429 0 Z " />
<glyph glyph-name="oe" unicode="&#x153;" horiz-adv-x="827" d="M285 117 Q310 117 330 138.5 Q350 160 358 214 Q364 262 351.5 286 Q339 310 312 310 Q285 310 265.5 286 Q246 262 240 214 Q232 161 246 139 Q260 117 285 117 Z M613 320 Q593 320 575 310 Q557 300 546 265 L668 265 Q666 300 649.5 310 Q633 320 613 320 Z M542 180 Q537 151 550 134 Q563 117 589 117 Q601 117 613.5 119 Q626 121 636 128 Q644 134 653 136 Q662 138 673 138 L766 138 Q785 138 797 132.5 Q809 127 806 104 Q776 55 719 21 Q662 -13 572 -13 Q523 -13 487.5 -2 Q452 9 427 27 Q397 8 357.5 -2.5 Q318 -13 267 -13 Q197 -13 153 7.5 Q109 28 85 60 Q61 92 55 133 Q49 174 55 214 Q60 253 77.5 293.5 Q95 334 128 366.5 Q161 399 210.5 419.5 Q260 440 330 440 Q380 440 416 429.5 Q452 419 478 400 Q507 418 545 429 Q583 440 632 440 Q699 440 741.5 420 Q784 400 807.5 368.5 Q831 337 837 299.5 Q843 262 838 226 Q836 206 820 193 Q804 180 784 180 L542 180 Z " />
<glyph glyph-name="Racute" unicode="&#x154;" horiz-adv-x="588" d="M620 372 Q613 328 585 278.5 Q557 229 501 196 L551 46 Q548 26 532.5 13 Q517 0 497 0 L406 0 Q386 0 374.5 13.5 Q363 27 358 46 L320 158 L261 158 L245 47 Q242 27 226.5 13.5 Q211 0 191 0 L93 0 Q73 0 60.5 13 Q48 26 51 46 L120 539 Q123 559 139 572 Q155 585 175 585 L405 585 Q475 585 519 564.5 Q563 544 587 512.5 Q611 481 618 443.5 Q625 406 620 372 Z M362 309 Q389 309 409.5 325 Q430 341 435 371 Q439 401 422.5 417.5 Q406 434 379 434 L299 434 L282 309 L362 309 Z M455 677 Q446 666 435.5 659 Q425 652 411 652 L345 652 Q325 652 314 664.5 Q303 677 305 696 L368 802 Q379 819 391.5 832.5 Q404 846 424 846 L520 846 Q540 846 551.5 833.5 Q563 821 560 802 L455 677 Z " />
<glyph glyph-name="racute" unicode="&#x155;" horiz-adv-x="412" d="M415 436 Q432 436 446 427 Q460 418 457 397 L449 335 Q447 319 435 308.5 Q423 298 408 298 Q398 300 388.5 300 Q379 300 372 300 Q334 300 304.5 278.5 Q275 257 271 229 L245 46 Q242 26 226.5 13 Q211 0 191 0 L93 0 Q73 0 60.5 13 Q48 26 51 46 L98 379 Q100 399 116 412 Q132 425 152 425 L250 425 Q270 425 282 410.5 Q294 396 291 376 Q306 399 323 411 Q340 423 356.5 428.5 Q373 434 388.5 435 Q404 436 415 436 Z M291 532 Q282 521 272 514 Q262 507 248 507 L182 507 Q162 507 150.5 519.5 Q139 532 142 551 L205 657 Q216 674 228.5 687.5 Q241 701 261 701 L357 701 Q377 701 388 688.5 Q399 676 397 657 L291 532 Z " />
<glyph glyph-name="uni0156" unicode="&#x156;" horiz-adv-x="588" d="M620 372 Q613 328 585 278.5 Q557 229 501 196 L551 46 Q548 26 532.5 13 Q517 0 497 0 L406 0 Q386 0 374.5 13.5 Q363 27 358 46 L320 158 L261 158 L245 47 Q242 27 226.5 13.5 Q211 0 191 0 L93 0 Q73 0 60.5 13 Q48 26 51 46 L120 539 Q123 559 139 572 Q155 585 175 585 L405 585 Q475 585 519 564.5 Q563 544 587 512.5 Q611 481 618 443.5 Q625 406 620 372 Z M362 309 Q389 309 409.5 325 Q430 341 435 371 Q439 401 422.5 417.5 Q406 434 379 434 L299 434 L282 309 L362 309 Z M292 -260 Q283 -271 272.5 -278 Q262 -285 248 -285 L199 -285 Q179 -285 168 -272.5 Q157 -260 160 -241 L190 -135 Q201 -118 215 -104.5 Q229 -91 254 -91 L321 -91 Q341 -91 352 -103.5 Q363 -116 361 -135 L292 -260 Z " />
<glyph glyph-name="uni0157" unicode="&#x157;" horiz-adv-x="412" d="M415 436 Q432 436 446 427 Q460 418 457 397 L449 335 Q447 319 435 308.5 Q423 298 408 298 Q398 300 388.5 300 Q379 300 372 300 Q334 300 304.5 278.5 Q275 257 271 229 L245 46 Q242 26 226.5 13 Q211 0 191 0 L93 0 Q73 0 60.5 13 Q48 26 51 46 L98 379 Q100 399 116 412 Q132 425 152 425 L250 425 Q270 425 282 410.5 Q294 396 291 376 Q306 399 323 411 Q340 423 356.5 428.5 Q373 434 388.5 435 Q404 436 415 436 Z M149 -260 Q140 -271 129.5 -278 Q119 -285 105 -285 L56 -285 Q36 -285 25 -272.5 Q14 -260 17 -241 L47 -135 Q58 -118 72 -104.5 Q86 -91 111 -91 L178 -91 Q198 -91 209 -103.5 Q220 -116 218 -135 L149 -260 Z " />
<glyph glyph-name="Rcaron" unicode="&#x158;" horiz-adv-x="588" d="M620 372 Q613 328 585 278.5 Q557 229 501 196 L551 46 Q548 26 532.5 13 Q517 0 497 0 L406 0 Q386 0 374.5 13.5 Q363 27 358 46 L320 158 L261 158 L245 47 Q242 27 226.5 13.5 Q211 0 191 0 L93 0 Q73 0 60.5 13 Q48 26 51 46 L120 539 Q123 559 139 572 Q155 585 175 585 L405 585 Q475 585 519 564.5 Q563 544 587 512.5 Q611 481 618 443.5 Q625 406 620 372 Z M362 309 Q389 309 409.5 325 Q430 341 435 371 Q439 401 422.5 417.5 Q406 434 379 434 L299 434 L282 309 L362 309 Z M456 685 Q447 672 437.5 662 Q428 652 414 652 L318 652 Q304 652 297.5 662 Q291 672 286 685 L218 846 Q220 860 231.5 869.5 Q243 879 257 879 L337 879 Q351 879 359 869.5 Q367 860 371 846 L387 797 L415 846 Q423 860 434 869.5 Q445 879 459 879 L539 879 Q553 879 561.5 869.5 Q570 860 568 846 L456 685 Z " />
<glyph glyph-name="rcaron" unicode="&#x159;" horiz-adv-x="412" d="M415 436 Q432 436 446 427 Q460 418 457 397 L449 335 Q447 319 435 308.5 Q423 298 408 298 Q398 300 388.5 300 Q379 300 372 300 Q334 300 304.5 278.5 Q275 257 271 229 L245 46 Q242 26 226.5 13 Q211 0 191 0 L93 0 Q73 0 60.5 13 Q48 26 51 46 L98 379 Q100 399 116 412 Q132 425 152 425 L250 425 Q270 425 282 410.5 Q294 396 291 376 Q306 399 323 411 Q340 423 356.5 428.5 Q373 434 388.5 435 Q404 436 415 436 Z M375 537 Q367 526 357.5 516.5 Q348 507 335 507 L250 507 Q237 507 230 516.5 Q223 526 218 537 L156 686 Q158 699 168 708 Q178 717 191 717 L265 717 Q279 717 286 707.5 Q293 698 297 686 L311 641 L338 686 Q345 698 354.5 707.5 Q364 717 378 717 L452 717 Q465 717 473 708 Q481 699 479 686 L375 537 Z " />
<glyph glyph-name="Sacute" unicode="&#x15a;" horiz-adv-x="629" d="M56 138 Q60 167 78.5 175 Q97 183 121 183 L219 183 Q252 183 264 155 Q272 137 293.5 131 Q315 125 353 125 Q377 125 391.5 127.5 Q406 130 413.5 135.5 Q421 141 424.5 148.5 Q428 156 429 165 Q431 176 420.5 183 Q410 190 392.5 195 Q375 200 351.5 204 Q328 208 302 213 Q258 221 216.5 234 Q175 247 143.5 267 Q112 287 95 317 Q78 347 84 390 Q90 433 110 471 Q130 509 166.5 537.5 Q203 566 257.5 582.5 Q312 599 386 599 Q435 599 479 591 Q523 583 557.5 565 Q592 547 614 519 Q636 491 640 452 Q636 423 617.5 415 Q599 407 575 407 L471 407 Q438 407 426 435 Q418 446 400.5 453.5 Q383 461 357 461 Q333 461 318.5 456 Q304 451 296 444.5 Q288 438 285 431.5 Q282 425 282 421 Q280 407 304.5 395.5 Q329 384 362.5 375.5 Q396 367 429 361 Q462 355 477 352 Q513 345 543 332 Q573 319 593 299.5 Q613 280 621.5 252.5 Q630 225 625 188 Q619 145 598 108.5 Q577 72 539 45 Q501 18 445.5 2.5 Q390 -13 315 -13 Q266 -13 221.5 -4.5 Q177 4 142 22 Q107 40 84 68.5 Q61 97 56 138 Z M604 802 Q607 821 595.5 833.5 Q584 846 564 846 L468 846 Q448 846 435.5 832.5 Q423 819 412 802 L349 696 Q347 677 358 664.5 Q369 652 389 652 L455 652 Q469 652 479.5 659 Q490 666 499 677 L604 802 Z " />
<glyph glyph-name="sacute" unicode="&#x15b;" horiz-adv-x="466" d="M41 104 Q44 127 58 132.5 Q72 138 91 138 L165 138 Q179 138 186 132.5 Q193 127 199 117 Q204 109 216 104 Q228 99 245 99 Q283 99 293 107 Q303 115 304 122 Q306 133 280.5 138 Q255 143 215 151 Q187 156 158 166 Q129 176 107 192 Q85 208 73 231 Q61 254 65 285 Q70 317 84.5 345 Q99 373 125.5 394 Q152 415 192 427.5 Q232 440 287 440 Q361 440 410 413 Q459 386 471 322 Q468 299 454 293.5 Q440 288 421 288 L347 288 Q333 288 325.5 293 Q318 298 313 309 Q308 317 299.5 321.5 Q291 326 271 326 Q240 326 233.5 317 Q227 308 226 303 Q225 293 241 285.5 Q257 278 278.5 273 Q300 268 322.5 265 Q345 262 355 260 Q410 250 441.5 220 Q473 190 465 136 Q461 104 445 77 Q429 50 400.5 30 Q372 10 331 -1.5 Q290 -13 235 -13 Q198 -13 165.5 -7 Q133 -1 107.5 13 Q82 27 64.5 49.5 Q47 72 41 104 Z M492 657 Q494 676 483 688.5 Q472 701 452 701 L356 701 Q336 701 323.5 687.5 Q311 674 300 657 L237 551 Q234 532 245.5 519.5 Q257 507 277 507 L343 507 Q357 507 367 514 Q377 521 386 532 L492 657 Z " />
<glyph glyph-name="Scircumflex" unicode="&#x15c;" horiz-adv-x="629" d="M56 138 Q60 167 78.5 175 Q97 183 121 183 L219 183 Q252 183 264 155 Q272 137 293.5 131 Q315 125 353 125 Q377 125 391.5 127.5 Q406 130 413.5 135.5 Q421 141 424.5 148.5 Q428 156 429 165 Q431 176 420.5 183 Q410 190 392.5 195 Q375 200 351.5 204 Q328 208 302 213 Q258 221 216.5 234 Q175 247 143.5 267 Q112 287 95 317 Q78 347 84 390 Q90 433 110 471 Q130 509 166.5 537.5 Q203 566 257.5 582.5 Q312 599 386 599 Q435 599 479 591 Q523 583 557.5 565 Q592 547 614 519 Q636 491 640 452 Q636 423 617.5 415 Q599 407 575 407 L471 407 Q438 407 426 435 Q418 446 400.5 453.5 Q383 461 357 461 Q333 461 318.5 456 Q304 451 296 444.5 Q288 438 285 431.5 Q282 425 282 421 Q280 407 304.5 395.5 Q329 384 362.5 375.5 Q396 367 429 361 Q462 355 477 352 Q513 345 543 332 Q573 319 593 299.5 Q613 280 621.5 252.5 Q630 225 625 188 Q619 145 598 108.5 Q577 72 539 45 Q501 18 445.5 2.5 Q390 -13 315 -13 Q266 -13 221.5 -4.5 Q177 4 142 22 Q107 40 84 68.5 Q61 97 56 138 Z M503 846 Q498 859 491.5 869 Q485 879 471 879 L375 879 Q361 879 351.5 869 Q342 859 333 846 L221 685 Q219 671 227.5 661.5 Q236 652 250 652 L330 652 Q344 652 355 661.5 Q366 671 374 685 L403 734 L418 685 Q422 671 430 661.5 Q438 652 452 652 L532 652 Q546 652 557.5 661.5 Q569 671 571 685 L503 846 Z " />
<glyph glyph-name="scircumflex" unicode="&#x15d;" horiz-adv-x="466" d="M41 104 Q44 127 58 132.5 Q72 138 91 138 L165 138 Q179 138 186 132.5 Q193 127 199 117 Q204 109 216 104 Q228 99 245 99 Q283 99 293 107 Q303 115 304 122 Q306 133 280.5 138 Q255 143 215 151 Q187 156 158 166 Q129 176 107 192 Q85 208 73 231 Q61 254 65 285 Q70 317 84.5 345 Q99 373 125.5 394 Q152 415 192 427.5 Q232 440 287 440 Q361 440 410 413 Q459 386 471 322 Q468 299 454 293.5 Q440 288 421 288 L347 288 Q333 288 325.5 293 Q318 298 313 309 Q308 317 299.5 321.5 Q291 326 271 326 Q240 326 233.5 317 Q227 308 226 303 Q225 293 241 285.5 Q257 278 278.5 273 Q300 268 322.5 265 Q345 262 355 260 Q410 250 441.5 220 Q473 190 465 136 Q461 104 445 77 Q429 50 400.5 30 Q372 10 331 -1.5 Q290 -13 235 -13 Q198 -13 165.5 -7 Q133 -1 107.5 13 Q82 27 64.5 49.5 Q47 72 41 104 Z M410 701 Q405 714 398.5 724 Q392 734 378 734 L282 734 Q268 734 258 724 Q248 714 240 701 L127 540 Q125 526 134 516.5 Q143 507 157 507 L237 507 Q251 507 261.5 516.5 Q272 526 280 540 L309 589 L324 540 Q329 526 337 516.5 Q345 507 359 507 L439 507 Q453 507 464 516.5 Q475 526 477 540 L410 701 Z " />
<glyph glyph-name="Scedilla" unicode="&#x15e;" horiz-adv-x="629" d="M625 188 Q615 113 557 59 Q499 5 385 -9 L381 -37 Q405 -38 423 -48 Q440 -57 450.5 -75.5 Q461 -94 456 -128 Q452 -154 437.5 -175 Q423 -196 401 -210.5 Q379 -225 352.5 -233 Q326 -241 299 -241 Q284 -241 266.5 -239 Q249 -237 237 -235 Q226 -235 219 -226 Q212 -217 214 -206 L219 -165 Q221 -154 230.5 -145 Q240 -136 251 -136 Q255 -137 260 -137 Q265 -137 269 -137 Q277 -137 286.5 -136 Q296 -135 305 -132.5 Q314 -130 320 -125.5 Q326 -121 327 -114 Q329 -100 313.5 -93 Q298 -86 281 -86 Q272 -86 267.5 -79.5 Q263 -73 264 -65 L282 -12 Q238 -9 199 0.5 Q160 10 130 28 Q100 46 80.5 73.5 Q61 101 56 138 Q60 167 78.5 175 Q97 183 121 183 L219 183 Q252 183 264 155 Q272 137 293.5 131 Q315 125 353 125 Q377 125 391.5 127.5 Q406 130 413.5 135.5 Q421 141 424.5 148.5 Q428 156 429 165 Q431 176 420.5 183 Q410 190 392.5 195 Q375 200 351.5 204 Q328 208 302 213 Q258 221 216.5 234 Q175 247 143.5 267 Q112 287 95 317 Q78 347 84 390 Q90 433 110 471 Q130 509 166.5 537.5 Q203 566 257.5 582.5 Q312 599 386 599 Q435 599 479 591 Q523 583 557.5 565 Q592 547 614 519 Q636 491 640 452 Q636 423 617.5 415 Q599 407 575 407 L471 407 Q438 407 426 435 Q418 446 400.5 453.5 Q383 461 357 461 Q333 461 318.5 456 Q304 451 296 444.5 Q288 438 285 431.5 Q282 425 282 421 Q280 407 304.5 395.5 Q329 384 362.5 375.5 Q396 367 429 361 Q462 355 477 352 Q513 345 543 332 Q573 319 593 299.5 Q613 280 621.5 252.5 Q630 225 625 188 Z " />
<glyph glyph-name="scedilla" unicode="&#x15f;" horiz-adv-x="466" d="M465 136 Q457 80 414 40 Q371 0 286 -10 L282 -37 Q306 -38 324 -48 Q341 -57 351.5 -75.5 Q362 -94 357 -128 Q353 -154 338.5 -175 Q324 -196 302 -210.5 Q280 -225 253.5 -233 Q227 -241 200 -241 Q185 -241 167.5 -239 Q150 -237 138 -235 Q127 -235 120 -226 Q113 -217 115 -206 L120 -165 Q122 -154 131.5 -145 Q141 -136 152 -136 Q156 -137 161 -137 Q166 -137 170 -137 Q178 -137 187.5 -136 Q197 -135 206 -132.5 Q215 -130 221 -125.5 Q227 -121 228 -114 Q230 -100 214.5 -93 Q199 -86 182 -86 Q173 -86 168.5 -79.5 Q164 -73 165 -65 L184 -10 Q129 -2 90.5 24 Q52 50 41 104 Q44 127 58 132.5 Q72 138 91 138 L165 138 Q179 138 186 132.5 Q193 127 199 117 Q204 109 216 104 Q228 99 245 99 Q283 99 293 107 Q303 115 304 122 Q306 133 280.5 138 Q255 143 215 151 Q187 156 158 166 Q129 176 107 192 Q85 208 73 231 Q61 254 65 285 Q70 317 84.5 345 Q99 373 125.5 394 Q152 415 192 427.5 Q232 440 287 440 Q361 440 410 413 Q459 386 471 322 Q468 299 454 293.5 Q440 288 421 288 L347 288 Q333 288 325.5 293 Q318 298 313 309 Q308 317 299.5 321.5 Q291 326 271 326 Q240 326 233.5 317 Q227 308 226 303 Q225 293 241 285.5 Q257 278 278.5 273 Q300 268 322.5 265 Q345 262 355 260 Q410 250 441.5 220 Q473 190 465 136 Z " />
<glyph glyph-name="Scaron" unicode="&#x160;" horiz-adv-x="629" d="M56 138 Q60 167 78.5 175 Q97 183 121 183 L219 183 Q252 183 264 155 Q272 137 293.5 131 Q315 125 353 125 Q377 125 391.5 127.5 Q406 130 413.5 135.5 Q421 141 424.5 148.5 Q428 156 429 165 Q431 176 420.5 183 Q410 190 392.5 195 Q375 200 351.5 204 Q328 208 302 213 Q258 221 216.5 234 Q175 247 143.5 267 Q112 287 95 317 Q78 347 84 390 Q90 433 110 471 Q130 509 166.5 537.5 Q203 566 257.5 582.5 Q312 599 386 599 Q435 599 479 591 Q523 583 557.5 565 Q592 547 614 519 Q636 491 640 452 Q636 423 617.5 415 Q599 407 575 407 L471 407 Q438 407 426 435 Q418 446 400.5 453.5 Q383 461 357 461 Q333 461 318.5 456 Q304 451 296 444.5 Q288 438 285 431.5 Q282 425 282 421 Q280 407 304.5 395.5 Q329 384 362.5 375.5 Q396 367 429 361 Q462 355 477 352 Q513 345 543 332 Q573 319 593 299.5 Q613 280 621.5 252.5 Q630 225 625 188 Q619 145 598 108.5 Q577 72 539 45 Q501 18 445.5 2.5 Q390 -13 315 -13 Q266 -13 221.5 -4.5 Q177 4 142 22 Q107 40 84 68.5 Q61 97 56 138 Z M605 846 Q607 860 598.5 869.5 Q590 879 576 879 L496 879 Q482 879 471 869.5 Q460 860 452 846 L424 797 L408 846 Q404 860 396 869.5 Q388 879 374 879 L294 879 Q280 879 268.5 869.5 Q257 860 255 846 L323 685 Q328 672 334.5 662 Q341 652 355 652 L451 652 Q465 652 474.5 662 Q484 672 493 685 L605 846 Z " />
<glyph glyph-name="scaron" unicode="&#x161;" horiz-adv-x="466" d="M41 104 Q44 127 58 132.5 Q72 138 91 138 L165 138 Q179 138 186 132.5 Q193 127 199 117 Q204 109 216 104 Q228 99 245 99 Q283 99 293 107 Q303 115 304 122 Q306 133 280.5 138 Q255 143 215 151 Q187 156 158 166 Q129 176 107 192 Q85 208 73 231 Q61 254 65 285 Q70 317 84.5 345 Q99 373 125.5 394 Q152 415 192 427.5 Q232 440 287 440 Q361 440 410 413 Q459 386 471 322 Q468 299 454 293.5 Q440 288 421 288 L347 288 Q333 288 325.5 293 Q318 298 313 309 Q308 317 299.5 321.5 Q291 326 271 326 Q240 326 233.5 317 Q227 308 226 303 Q225 293 241 285.5 Q257 278 278.5 273 Q300 268 322.5 265 Q345 262 355 260 Q410 250 441.5 220 Q473 190 465 136 Q461 104 445 77 Q429 50 400.5 30 Q372 10 331 -1.5 Q290 -13 235 -13 Q198 -13 165.5 -7 Q133 -1 107.5 13 Q82 27 64.5 49.5 Q47 72 41 104 Z M507 701 Q509 715 500.5 724.5 Q492 734 478 734 L398 734 Q384 734 373 724.5 Q362 715 354 701 L325 652 L310 701 Q306 715 298 724.5 Q290 734 276 734 L196 734 Q182 734 170.5 724.5 Q159 715 157 701 L224 540 Q229 527 236 517 Q243 507 257 507 L353 507 Q367 507 376.5 517 Q386 527 394 540 L507 701 Z " />
<glyph glyph-name="uni0162" unicode="&#x162;" horiz-adv-x="527" d="M202 0 Q187 4 179 16.5 Q171 29 173 46 L227 434 L111 434 Q94 434 84 447 Q74 460 77 477 L86 542 Q88 559 102 572 Q116 585 133 585 L558 585 Q575 585 585 572 Q595 559 593 542 L584 477 Q581 460 567 447 Q553 434 536 434 L420 434 L366 46 Q364 29 352 16.5 Q340 4 324 0 Q304 -18 297.5 -35 Q291 -52 290 -57 Q289 -64 296 -75 Q303 -86 319 -86 L330 -86 Q341 -86 350 -95.5 Q359 -105 357 -117 L351 -162 Q349 -173 336.5 -180.5 Q324 -188 313 -188 Q305 -189 297.5 -189 Q290 -189 285 -189 Q259 -189 234 -183.5 Q209 -178 190.5 -165 Q172 -152 162.5 -132.5 Q153 -113 157 -84 Q160 -61 174 -38 Q188 -15 202 0 Z " />
<glyph glyph-name="uni0163" unicode="&#x163;" horiz-adv-x="394" d="M345 135 Q361 135 370 124 Q379 113 377 96 L369 36 Q366 19 352.5 4.5 Q339 -10 323 -10 Q305 -10 286 -11 Q267 -12 253 -13 L249 -37 Q273 -38 291 -48 Q308 -57 318.5 -75.5 Q329 -94 324 -128 Q320 -154 305.5 -175 Q291 -196 269 -210.5 Q247 -225 220.5 -233 Q194 -241 167 -241 Q152 -241 134.5 -239 Q117 -237 105 -235 Q94 -235 87 -226 Q80 -217 82 -206 L87 -165 Q89 -154 98.5 -145 Q108 -136 119 -136 Q123 -137 128 -137 Q133 -137 137 -137 Q145 -137 154.5 -136 Q164 -135 173 -132.5 Q182 -130 188 -125.5 Q194 -121 195 -114 Q197 -100 181.5 -93 Q166 -86 149 -86 Q140 -86 135.5 -79.5 Q131 -73 132 -65 L150 16 Q120 41 109.5 83.5 Q99 126 107 184 L123 297 L93 297 Q77 297 68.5 308 Q60 319 62 336 L69 386 Q71 403 83 414 Q95 425 111 425 L141 425 L153 506 Q155 526 170.5 536.5 Q186 547 207 552 L308 574 Q328 574 340 559 Q352 544 349 524 L335 425 L386 425 Q402 425 411 414 Q420 403 418 386 L411 336 Q409 319 396.5 308 Q384 297 368 297 L317 297 L299 170 Q297 150 311 142.5 Q325 135 345 135 Z " />
<glyph glyph-name="Tcaron" unicode="&#x164;" horiz-adv-x="527" d="M558 585 Q575 585 585 572 Q595 559 593 542 L584 477 Q581 460 567 447 Q553 434 536 434 L420 434 L366 46 Q363 26 347.5 13 Q332 0 312 0 L215 0 Q195 0 182.5 13 Q170 26 173 46 L227 434 L111 434 Q94 434 84 447 Q74 460 77 477 L86 542 Q88 559 102 572 Q116 585 133 585 L558 585 Z M445 685 Q436 672 426.5 662 Q417 652 403 652 L307 652 Q293 652 286.5 662 Q280 672 275 685 L207 846 Q209 860 220.5 869.5 Q232 879 246 879 L326 879 Q340 879 348 869.5 Q356 860 360 846 L376 797 L404 846 Q412 860 423 869.5 Q434 879 448 879 L528 879 Q542 879 550.5 869.5 Q559 860 557 846 L445 685 Z " />
<glyph glyph-name="tcaron" unicode="&#x165;" horiz-adv-x="500" d="M345 135 Q361 135 370 124 Q379 113 377 96 L369 36 Q366 19 352.5 4.5 Q339 -10 323 -10 Q303 -10 281 -11.5 Q259 -13 245 -13 Q163 -13 128.5 40 Q94 93 107 184 L123 297 L93 297 Q77 297 68.5 308 Q60 319 62 336 L69 386 Q71 403 83 414 Q95 425 111 425 L141 425 L153 506 Q155 526 170.5 536.5 Q186 547 207 552 L308 574 Q328 574 340 559 Q352 544 349 524 L335 425 L386 425 Q402 425 411 414 Q420 403 418 386 L411 336 Q409 319 396.5 308 Q384 297 368 297 L317 297 L299 170 Q297 150 311 142.5 Q325 135 345 135 Z M541 493 Q534 485 527 480 Q520 475 510 475 L442 475 Q428 475 421 484 Q414 493 416 506 L444 554 Q452 567 461 576 Q470 585 484 585 L551 585 Q565 585 572 576.5 Q579 568 577 554 L541 493 Z " />
<glyph glyph-name="Tbar" unicode="&#x166;" horiz-adv-x="527" d="M387 195 L366 46 Q363 26 347.5 13 Q332 0 312 0 L215 0 Q195 0 182.5 13 Q170 26 173 46 L194 195 L130 195 Q115 195 105.5 206.5 Q96 218 98 234 L106 289 Q108 305 121 316.5 Q134 328 149 328 L213 328 L227 434 L111 434 Q94 434 84 447 Q74 460 77 477 L86 542 Q88 559 102 572 Q116 585 133 585 L558 585 Q575 585 585 572 Q595 559 593 542 L584 477 Q581 460 567 447 Q553 434 536 434 L420 434 L406 328 L469 328 Q484 328 493 316.5 Q502 305 500 289 L492 234 Q490 218 477.5 206.5 Q465 195 450 195 L387 195 Z " />
<glyph glyph-name="tbar" unicode="&#x167;" horiz-adv-x="394" d="M122 286 L125 310 L95 310 Q79 310 70 321 Q61 332 64 349 L69 386 Q71 403 83 414 Q95 425 111 425 L141 425 L153 506 Q155 526 170.5 536.5 Q186 547 207 552 L308 574 Q328 574 340 559 Q352 544 349 524 L335 425 L386 425 Q402 425 411 414 Q420 403 418 386 L413 349 Q410 332 398 321 Q386 310 370 310 L319 310 L316 286 L367 286 Q383 286 391.5 275 Q400 264 398 247 L393 210 Q391 193 379 182 Q367 171 351 171 L300 171 Q297 151 311 143 Q325 135 345 135 Q361 135 370 124 Q379 113 377 96 L369 36 Q366 19 352.5 4.5 Q339 -10 323 -10 Q303 -10 281 -11.5 Q259 -13 245 -13 Q166 -13 131.5 36 Q97 85 106 171 L76 171 Q60 171 51 182 Q42 193 44 210 L49 247 Q51 264 63.5 275 Q76 286 92 286 L122 286 Z " />
<glyph glyph-name="Utilde" unicode="&#x168;" horiz-adv-x="659" d="M115 539 Q118 559 134 572 Q150 585 170 585 L268 585 Q288 585 300 572 Q312 559 309 539 L270 261 Q261 196 276 160.5 Q291 125 346 125 Q401 125 426.5 160.5 Q452 196 461 261 L500 539 Q503 559 519 572 Q535 585 555 585 L653 585 Q673 585 685 572 Q697 559 694 539 L655 261 Q649 215 628.5 166 Q608 117 569 77 Q530 37 470.5 11.5 Q411 -14 327 -14 Q243 -14 191 11.5 Q139 37 111 77 Q83 117 76.5 166 Q70 215 76 261 L115 539 Z M494 652 Q477 652 461.5 657.5 Q446 663 430.5 669 Q415 675 399.5 680.5 Q384 686 366 686 Q360 686 349 684 Q338 682 327 679 Q321 676 315 676 Q304 676 294.5 682.5 Q285 689 282 700 L271 749 Q268 755 270 762 Q272 773 278.5 782 Q285 791 295 795 Q320 806 344.5 810 Q369 814 384 814 Q401 814 416.5 808.5 Q432 803 447.5 797 Q463 791 478.5 785.5 Q494 780 512 780 Q518 780 529 782 Q540 784 551 787 Q557 790 564 790 Q575 790 584 783.5 Q593 777 596 766 L607 717 Q610 711 608 704 Q606 693 600 684 Q594 675 583 671 Q558 660 533.5 656 Q509 652 494 652 Z " />
<glyph glyph-name="utilde" unicode="&#x169;" horiz-adv-x="567" d="M334 46 Q295 10 259.5 -1.5 Q224 -13 202 -13 Q120 -13 83.5 40 Q47 93 60 184 L88 379 Q90 399 106 412 Q122 425 142 425 L240 425 Q260 425 272 412 Q284 399 282 379 L252 166 Q249 145 261.5 131 Q274 117 294 117 Q317 117 332.5 131 Q348 145 351 166 L381 379 Q383 399 399 412 Q415 425 435 425 L533 425 Q553 425 565 412 Q577 399 575 379 L528 46 Q525 26 509.5 13 Q494 0 474 0 L376 0 Q356 0 343.5 12 Q331 24 334 46 Z M404 507 Q387 507 371.5 512.5 Q356 518 340.5 524 Q325 530 309.5 535.5 Q294 541 276 541 Q270 541 259 539 Q248 537 237 534 Q230 531 224 531 Q213 531 204 537.5 Q195 544 192 555 L180 604 Q179 607 179 610.5 Q179 614 179 617 Q181 628 187.5 637 Q194 646 205 650 Q230 661 254.5 665 Q279 669 294 669 Q311 669 326.5 663.5 Q342 658 357.5 652 Q373 646 388.5 640.5 Q404 635 422 635 Q428 635 438.5 637 Q449 639 461 642 Q467 645 473 645 Q484 645 493.5 638.5 Q503 632 506 621 L517 572 Q519 564 518 559 Q516 548 509.5 539 Q503 530 492 526 Q467 515 443 511 Q419 507 404 507 Z " />
<glyph glyph-name="Umacron" unicode="&#x16a;" horiz-adv-x="659" d="M115 539 Q118 559 134 572 Q150 585 170 585 L268 585 Q288 585 300 572 Q312 559 309 539 L270 261 Q261 196 276 160.5 Q291 125 346 125 Q401 125 426.5 160.5 Q452 196 461 261 L500 539 Q503 559 519 572 Q535 585 555 585 L653 585 Q673 585 685 572 Q697 559 694 539 L655 261 Q649 215 628.5 166 Q608 117 569 77 Q530 37 470.5 11.5 Q411 -14 327 -14 Q243 -14 191 11.5 Q139 37 111 77 Q83 117 76.5 166 Q70 215 76 261 L115 539 Z M264 652 Q247 652 237 665 Q227 678 229 695 L238 757 Q240 774 254 787 Q268 800 285 800 L597 800 Q614 800 624 787 Q634 774 632 757 L623 695 Q621 678 607 665 Q593 652 576 652 L264 652 Z " />
<glyph glyph-name="umacron" unicode="&#x16b;" horiz-adv-x="567" d="M334 46 Q295 10 259.5 -1.5 Q224 -13 202 -13 Q120 -13 83.5 40 Q47 93 60 184 L88 379 Q90 399 106 412 Q122 425 142 425 L240 425 Q260 425 272 412 Q284 399 282 379 L252 166 Q249 145 261.5 131 Q274 117 294 117 Q317 117 332.5 131 Q348 145 351 166 L381 379 Q383 399 399 412 Q415 425 435 425 L533 425 Q553 425 565 412 Q577 399 575 379 L528 46 Q525 26 509.5 13 Q494 0 474 0 L376 0 Q356 0 343.5 12 Q331 24 334 46 Z M198 507 Q181 507 171 520 Q161 533 163 550 L172 612 Q174 629 188 642 Q202 655 219 655 L531 655 Q548 655 558 642 Q568 629 566 612 L557 550 Q555 533 541 520 Q527 507 510 507 L198 507 Z " />
<glyph glyph-name="Ubreve" unicode="&#x16c;" horiz-adv-x="659" d="M115 539 Q118 559 134 572 Q150 585 170 585 L268 585 Q288 585 300 572 Q312 559 309 539 L270 261 Q261 196 276 160.5 Q291 125 346 125 Q401 125 426.5 160.5 Q452 196 461 261 L500 539 Q503 559 519 572 Q535 585 555 585 L653 585 Q673 585 685 572 Q697 559 694 539 L655 261 Q649 215 628.5 166 Q608 117 569 77 Q530 37 470.5 11.5 Q411 -14 327 -14 Q243 -14 191 11.5 Q139 37 111 77 Q83 117 76.5 166 Q70 215 76 261 L115 539 Z M420 652 Q359 652 316 683 Q273 714 271 781 Q273 797 285.5 807.5 Q298 818 315 818 L364 818 Q376 818 384.5 812 Q393 806 397 797 Q402 785 414.5 780.5 Q427 776 438 776 Q449 776 462.5 780.5 Q476 785 485 797 Q490 806 500 812 Q510 818 522 818 L571 818 Q588 818 597.5 807.5 Q607 797 605 781 Q585 714 533.5 683 Q482 652 420 652 Z " />
</font>
</svg>
