<?xml version="1.0" encoding="UTF-8"?>
<svg xmlns="http://www.w3.org/2000/svg" xmlns:xlink="http://www.w3.org/1999/xlink" version="1.2" >
<font id="Breul Grotesk B Bold Italic">
<font-face  font-family="Breul Grotesk B" units-per-em="1000" ascent="750" descent="-250" font-style="italic" font-weight="700" font-stretch="normal" cap-height="585" x-height="425" underline-position="-91" underline-thickness="35" />
<missing-glyph  horiz-adv-x="567" d="" />
<glyph glyph-name="space" unicode="&#x20;" horiz-adv-x="189" d="" />
<glyph glyph-name="exclam" unicode="&#x21;" horiz-adv-x="262" d="M232 226 Q230 209 216 197 Q202 185 184 185 L129 185 Q111 185 100 197 Q89 209 91 226 L128 544 Q130 561 144.5 573 Q159 585 177 585 L249 585 Q267 585 277.5 573 Q288 561 286 544 L232 226 Z M211 35 Q209 18 195 6 Q181 -6 163 -6 L95 -6 Q77 -6 66 6 Q55 18 57 35 L64 79 Q66 96 80 108 Q94 120 112 120 L180 120 Q198 120 209 108 Q220 96 218 79 L211 35 Z " />
<glyph glyph-name="quotedbl" unicode="&#x22;" horiz-adv-x="450" d="M239 393 Q237 379 224.5 368 Q212 357 196 357 L140 357 Q124 357 114.5 368 Q105 379 107 393 L129 548 Q131 563 143.5 574 Q156 585 172 585 L228 585 Q244 585 253.5 574 Q263 563 261 548 L239 393 Z M453 393 Q451 379 438.5 368 Q426 357 410 357 L354 357 Q338 357 328.5 368 Q319 379 321 393 L343 548 Q345 563 357.5 574 Q370 585 386 585 L442 585 Q458 585 467.5 574 Q477 563 475 548 L453 393 Z " />
<glyph glyph-name="numbersign" unicode="&#x23;" horiz-adv-x="816" d="M341 231 L497 231 L557 349 L400 349 L341 231 Z M798 467 Q811 467 818.5 457.5 Q826 448 824 434 L817 382 Q815 368 805 358.5 Q795 349 782 349 L685 349 L626 231 L697 231 Q710 231 717.5 221.5 Q725 212 723 198 L716 146 Q714 132 703.5 122.5 Q693 113 680 113 L567 113 Q564 106 558.5 95 Q553 84 547 72.5 Q541 61 535 50 Q529 39 525 31 Q519 19 508 9.5 Q497 0 483 0 L427 0 Q413 0 405 9 Q397 18 399 31 L438 113 L282 113 L241 31 Q235 19 224 9.5 Q213 0 199 0 L143 0 Q129 0 121 9 Q113 18 115 31 L153 113 L98 113 Q85 113 77.5 122.5 Q70 132 72 146 L79 198 Q81 212 91.5 221.5 Q102 231 115 231 L212 231 L272 349 L200 349 Q187 349 179 358.5 Q171 368 173 382 L180 434 Q182 448 192.5 457.5 Q203 467 216 467 L329 467 L374 554 Q381 566 392 575.5 Q403 585 417 585 L473 585 Q487 585 494.5 576 Q502 567 500 554 L458 467 L614 467 Q625 490 638.5 516 Q652 542 658 554 Q665 566 676 575.5 Q687 585 701 585 L757 585 Q771 585 778.5 576 Q786 567 784 554 L743 467 L798 467 Z " />
<glyph glyph-name="dollar" unicode="&#x24;" horiz-adv-x="648" d="M477 588 Q537 576 580 547 Q623 518 637 470 Q633 448 615.5 431.5 Q598 415 575 415 L500 415 Q489 415 478 419 Q467 423 459 442 Q453 459 433.5 468.5 Q414 478 379 478 Q346 478 324.5 473 Q303 468 290.5 461 Q278 454 272.5 447 Q267 440 267 435 Q263 407 290 392 Q317 377 358.5 367.5 Q400 358 449.5 348.5 Q499 339 539.5 322 Q580 305 605 275.5 Q630 246 623 196 Q617 156 602 122 Q587 88 560 62 Q533 36 492 19.5 Q451 3 394 -3 L380 -102 Q378 -117 365 -128.5 Q352 -140 335 -140 L274 -140 Q257 -140 247 -128.5 Q237 -117 239 -102 L254 0 Q193 10 147 38 Q101 66 84 119 Q87 140 104.5 156.5 Q122 173 145 173 L218 173 Q229 173 239.5 169 Q250 165 258 146 Q267 126 292.5 119 Q318 112 350 112 Q411 112 436 125 Q461 138 466 171 Q469 193 441.5 204.5 Q414 216 372 225 Q330 234 280.5 243.5 Q231 253 190.5 271.5 Q150 290 125.5 321.5 Q101 353 108 405 Q113 442 128 474 Q143 506 170 531 Q197 556 238 572 Q279 588 337 593 L351 694 Q353 709 366 720 Q379 731 396 731 L457 731 Q474 731 484 720 Q494 709 492 694 L477 588 Z " />
<glyph glyph-name="percent" unicode="&#x25;" horiz-adv-x="841" d="M279 596 Q309 596 334 584.5 Q359 573 376 553.5 Q393 534 400.5 507.5 Q408 481 404 451 Q400 421 385 395 Q370 369 347.5 349 Q325 329 297 317.5 Q269 306 239 306 Q209 306 184.5 317.5 Q160 329 143 349 Q126 369 118.5 395 Q111 421 115 451 Q119 481 134 507.5 Q149 534 171.5 553.5 Q194 573 221.5 584.5 Q249 596 279 596 Z M252 405 Q273 405 289.5 418 Q306 431 309 451 Q312 473 299.5 487 Q287 501 266 501 Q248 501 232 487 Q216 473 213 451 Q210 431 222 418 Q234 405 252 405 Z M683 284 Q713 284 738 272.5 Q763 261 780 241.5 Q797 222 804.5 195.5 Q812 169 808 139 Q804 109 789 83 Q774 57 751.5 37 Q729 17 701 5.5 Q673 -6 643 -6 Q613 -6 588.5 5.5 Q564 17 547 37 Q530 57 522.5 83 Q515 109 519 139 Q523 169 538 195.5 Q553 222 575.5 241.5 Q598 261 625.5 272.5 Q653 284 683 284 Z M657 93 Q678 93 694 106 Q710 119 713 139 Q716 161 703.5 175 Q691 189 670 189 Q652 189 636 175 Q620 161 617 139 Q614 119 626.5 106 Q639 93 657 93 Z M349 39 Q339 24 326.5 12 Q314 0 297 0 L244 0 Q227 0 217 11.5 Q207 23 209 39 L570 546 Q580 561 593 573 Q606 585 623 585 L676 585 Q693 585 702.5 573.5 Q712 562 710 546 L349 39 Z " />
<glyph glyph-name="ampersand" unicode="&#x26;" horiz-adv-x="700" d="M212 134 Q210 114 232.5 104.5 Q255 95 284 95 Q308 95 334 102 Q360 109 389 121 L292 215 Q259 195 237 175.5 Q215 156 212 134 Z M420 436 Q425 467 411 477.5 Q397 488 374 488 Q366 488 357 487 Q348 486 339.5 481 Q331 476 324.5 465.5 Q318 455 315 437 Q312 418 318 400 Q324 382 345 356 Q375 375 396 394.5 Q417 414 420 436 Z M653 41 Q651 24 637 12 Q623 0 605 0 L532 0 Q514 0 501 13 L469 43 Q426 17 381.5 2 Q337 -13 295 -13 Q235 -13 190.5 -5.5 Q146 2 117.5 20 Q89 38 77.5 68 Q66 98 72 143 Q75 164 88 184.5 Q101 205 122 224.5 Q143 244 169.5 261.5 Q196 279 224 294 Q194 337 181.5 373 Q169 409 174 442 Q177 465 188.5 492 Q200 519 225 542 Q250 565 289.5 580.5 Q329 596 389 596 Q449 596 485 582.5 Q521 569 539.5 545.5 Q558 522 562 491.5 Q566 461 561 427 Q554 381 512.5 345.5 Q471 310 415 280 Q421 274 430.5 265 Q440 256 450.5 245.5 Q461 235 471.5 225 Q482 215 489 207 Q495 216 501 226 Q507 236 512 244 Q518 261 531.5 271 Q545 281 562 281 L617 281 Q634 281 643.5 270 Q653 259 651 244 Q639 217 618 186 Q597 155 569 126 L653 41 Z " />
<glyph glyph-name="quotesingle" unicode="&#x27;" horiz-adv-x="236" d="M239 393 Q237 379 224.5 368 Q212 357 196 357 L140 357 Q124 357 114.5 368 Q105 379 107 393 L129 548 Q131 563 143.5 574 Q156 585 172 585 L228 585 Q244 585 253.5 574 Q263 563 261 548 L239 393 Z " />
<glyph glyph-name="parenleft" unicode="&#x28;" horiz-adv-x="341" d="M117 -130 Q94 -18 86 87 Q78 192 94 304 Q110 414 148 523 Q186 632 240 741 Q246 758 259 770 Q272 782 290 782 L355 782 Q373 782 384 770 Q395 758 393 741 Q337 632 300 523 Q263 414 247 304 Q231 190 238 85.5 Q245 -19 270 -131 Q268 -148 254 -159.5 Q240 -171 222 -171 L157 -171 Q139 -171 129 -159 Q119 -147 117 -130 Z " />
<glyph glyph-name="parenright" unicode="&#x29;" horiz-adv-x="341" d="M186 -130 Q179 -147 165.5 -159 Q152 -171 134 -171 L69 -171 Q51 -171 41 -159.5 Q31 -148 33 -131 Q90 -19 126 85.5 Q162 190 178 304 Q194 414 187 523 Q180 632 156 741 Q158 758 172 770 Q186 782 204 782 L269 782 Q287 782 297 770 Q307 758 309 741 Q332 632 339.5 523 Q347 414 331 304 Q315 192 278 87 Q241 -18 186 -130 Z " />
<glyph glyph-name="asterisk" unicode="&#x2a;" horiz-adv-x="549" d="M245 168 Q233 152 213 152 Q201 152 192 158 L155 185 Q137 196 140 217 Q142 227 149 236 L235 331 L126 368 Q116 372 111 381.5 Q106 391 108 402 Q110 411 113 416 L139 462 Q155 487 178 487 Q186 487 190 485 L280 434 L286 549 Q288 564 300.5 574.5 Q313 585 329 585 L384 585 Q400 585 409.5 574.5 Q419 564 417 549 L389 434 L495 485 Q499 487 507 487 Q532 487 538 462 L552 416 Q553 412 553.5 409 Q554 406 553 402 Q551 391 543.5 381.5 Q536 372 525 368 L406 331 L466 236 Q471 227 469 217 Q466 197 446 185 L401 158 Q389 152 378 152 Q359 152 350 168 L310 263 L245 168 Z " />
<glyph glyph-name="plus" unicode="&#x2b;" horiz-adv-x="484" d="M345 245 L435 245 Q448 245 455.5 235.5 Q463 226 461 212 L454 160 Q452 146 441.5 136.5 Q431 127 418 127 L328 127 L316 36 Q314 22 301.5 11 Q289 0 273 0 L212 0 Q196 0 186.5 11 Q177 22 179 36 L191 127 L100 127 Q87 127 79.5 136.5 Q72 146 74 160 L81 212 Q83 226 93.5 235.5 Q104 245 117 245 L208 245 L222 342 Q224 357 236.5 367.5 Q249 378 265 378 L326 378 Q342 378 351.5 367.5 Q361 357 359 342 L345 245 Z " />
<glyph glyph-name="comma" unicode="&#x2c;" horiz-adv-x="275" d="M91 84 Q98 99 113.5 110 Q129 121 146 121 L201 121 Q218 121 227 110 Q236 99 234 84 L178 -66 Q170 -81 155 -92 Q140 -103 123 -103 L76 -103 Q59 -103 49.5 -92 Q40 -81 42 -66 L91 84 Z " />
<glyph glyph-name="hyphen" unicode="&#x2d;" horiz-adv-x="484" d="M100 127 Q87 127 79.5 136.5 Q72 146 74 160 L81 212 Q83 226 93.5 235.5 Q104 245 117 245 L435 245 Q448 245 455.5 235.5 Q463 226 461 212 L454 160 Q452 146 441.5 136.5 Q431 127 418 127 L100 127 Z " />
<glyph glyph-name="period" unicode="&#x2e;" horiz-adv-x="252" d="M205 41 Q203 24 189 12 Q175 0 157 0 L95 0 Q77 0 66 12 Q55 24 57 41 L66 104 Q68 121 82.5 133 Q97 145 115 145 L177 145 Q195 145 205.5 133 Q216 121 214 104 L205 41 Z " />
<glyph glyph-name="slash" unicode="&#x2f;" horiz-adv-x="473" d="M423 743 Q431 758 444.5 770 Q458 782 475 782 L542 782 Q559 782 569 770.5 Q579 759 577 743 L135 -132 Q127 -147 113 -159 Q99 -171 82 -171 L15 -171 Q-1 -171 -10.5 -159.5 Q-20 -148 -18 -132 L423 743 Z " />
<glyph glyph-name="zero" unicode="0" horiz-adv-x="628" d="M329 112 Q400 112 438.5 160.5 Q477 209 488 287 Q494 329 491 364 Q488 399 475.5 424.5 Q463 450 440 464 Q417 478 381 478 Q345 478 317.5 464 Q290 450 270.5 424.5 Q251 399 238.5 364 Q226 329 220 287 Q209 209 233.5 160.5 Q258 112 329 112 Z M313 -6 Q229 -6 177.5 22.5 Q126 51 99.5 94.5 Q73 138 67 189.5 Q61 241 67 287 Q74 336 95 390.5 Q116 445 155 490.5 Q194 536 253.5 566 Q313 596 397 596 Q481 596 532 566 Q583 536 609.5 490.5 Q636 445 642 390.5 Q648 336 641 287 Q635 241 614.5 189.5 Q594 138 555 94.5 Q516 51 456.5 22.5 Q397 -6 313 -6 Z " />
<glyph glyph-name="one" unicode="1" horiz-adv-x="418" d="M93 373 Q80 373 73.5 383 Q67 393 69 407 L79 479 Q81 493 90.5 501.5 Q100 510 114 512 Q153 521 193.5 538 Q234 555 272 578 Q282 585 298 585 L410 585 Q428 585 438.5 573 Q449 561 447 544 L376 41 Q374 24 360 12 Q346 0 328 0 L260 0 Q242 0 231 12 Q220 24 222 41 L280 453 Q226 418 179.5 399.5 Q133 381 93 373 Z " />
<glyph glyph-name="two" unicode="2" horiz-adv-x="547" d="M250 445 Q242 429 229.5 416.5 Q217 404 199 404 L131 404 Q113 404 102.5 416 Q92 428 94 445 Q120 520 184.5 558 Q249 596 341 596 Q415 596 461 582.5 Q507 569 531.5 545 Q556 521 562.5 488.5 Q569 456 563 418 Q557 376 533.5 339.5 Q510 303 468 268 Q426 233 363.5 196.5 Q301 160 217 118 L500 118 Q513 118 520.5 108.5 Q528 99 526 85 L519 33 Q517 19 507 9.5 Q497 0 484 0 L71 0 Q58 0 50 9.5 Q42 19 44 33 L56 117 Q59 140 75 159.5 Q91 179 115 197 Q139 215 169.5 231.5 Q200 248 232 265 Q308 306 356 342.5 Q404 379 409 414 Q414 451 394.5 464.5 Q375 478 335 478 Q301 478 281 470.5 Q261 463 250 445 Z " />
<glyph glyph-name="three" unicode="3" horiz-adv-x="537" d="M326 348 Q361 348 385 366.5 Q409 385 414 419 Q417 439 410 450.5 Q403 462 389.5 468 Q376 474 358 476 Q340 478 321 478 Q266 478 242 457 Q231 441 220 437.5 Q209 434 199 434 L126 434 Q106 434 96.5 448 Q87 462 89 480 Q119 541 182.5 568.5 Q246 596 335 596 Q409 596 457 584.5 Q505 573 532 551.5 Q559 530 567 498 Q575 466 569 425 Q564 392 542.5 356 Q521 320 466 293 Q490 285 504 269.5 Q518 254 525 235.5 Q532 217 533 198 Q534 179 532 163 Q526 122 509 89.5 Q492 57 459 34.5 Q426 12 375 0.5 Q324 -11 250 -11 Q162 -11 107.5 18 Q53 47 39 107 Q41 125 54 139 Q67 153 87 153 L160 153 Q170 153 180 148 Q190 143 197 127 Q208 118 225.5 115 Q243 112 269 112 Q288 112 306.5 114 Q325 116 340 122 Q355 128 365.5 138.5 Q376 149 379 167 Q382 192 375.5 206.5 Q369 221 356.5 228 Q344 235 327 236.5 Q310 238 292 238 L261 238 Q249 238 241.5 246.5 Q234 255 236 269 L243 318 Q245 331 254.5 339.5 Q264 348 276 348 L326 348 Z " />
<glyph glyph-name="four" unicode="4" horiz-adv-x="586" d="M367 243 L397 460 L210 243 L367 243 Z M60 125 Q47 125 39.5 134.5 Q32 144 34 158 L47 254 Q48 261 51 266.5 Q54 272 58 277 L287 544 Q302 564 321 574.5 Q340 585 358 585 L526 585 Q544 585 554.5 573 Q565 561 563 544 L521 243 L587 243 Q600 243 607.5 233.5 Q615 224 613 210 L606 158 Q604 144 593.5 134.5 Q583 125 570 125 L504 125 L492 41 Q490 24 476 12 Q462 0 444 0 L376 0 Q358 0 347 12 Q336 24 338 41 L350 125 L60 125 Z " />
<glyph glyph-name="five" unicode="5" horiz-adv-x="552" d="M234 132 Q243 118 262.5 115 Q282 112 299 112 Q322 112 340.5 113.5 Q359 115 372.5 121 Q386 127 394 139.5 Q402 152 405 174 Q413 225 396.5 243.5 Q380 262 332 262 L326 262 Q306 262 287.5 257.5 Q269 253 255 244 Q243 235 228 235 L111 235 Q98 235 90 244.5 Q82 254 84 268 L124 552 Q126 566 136.5 575.5 Q147 585 160 585 L553 585 Q566 585 573.5 575.5 Q581 566 579 552 L572 500 Q570 486 559.5 476.5 Q549 467 536 467 L266 467 L249 348 Q268 360 289.5 366.5 Q311 373 330 376.5 Q349 380 363.5 380.5 Q378 381 383 381 Q445 381 482 363 Q519 345 538 316 Q557 287 560.5 249.5 Q564 212 559 174 Q553 135 536 102 Q519 69 487 45 Q455 21 406 7.5 Q357 -6 288 -6 Q197 -6 144.5 26.5 Q92 59 77 107 Q79 125 93 139 Q107 153 127 153 L201 153 Q211 153 218 149.5 Q225 146 234 132 Z " />
<glyph glyph-name="six" unicode="6" horiz-adv-x="545" d="M561 467 Q559 449 545 435 Q531 421 511 421 L450 421 Q440 421 431.5 424.5 Q423 428 416 444 Q412 461 395.5 469.5 Q379 478 341 478 Q302 478 273.5 451 Q245 424 236 357 L227 293 Q248 315 269.5 326.5 Q291 338 309.5 343.5 Q328 349 341.5 350 Q355 351 359 351 Q421 351 459.5 336.5 Q498 322 517.5 297 Q537 272 541.5 238.5 Q546 205 541 167 Q535 128 519.5 96 Q504 64 474 41.5 Q444 19 396.5 6.5 Q349 -6 280 -6 Q220 -6 175.5 4.5 Q131 15 103 45 Q75 75 66.5 129.5 Q58 184 70 273 L74 300 Q85 375 102.5 430.5 Q120 486 152.5 522.5 Q185 559 234.5 577.5 Q284 596 357 596 Q453 596 501.5 562 Q550 528 561 467 Z M305 240 Q294 240 279 237 Q264 234 249.5 226 Q235 218 224 204.5 Q213 191 210 171 Q203 126 224.5 113 Q246 100 286 100 Q307 100 324.5 102 Q342 104 355 111.5 Q368 119 376.5 133 Q385 147 388 171 Q391 194 386.5 208 Q382 222 370.5 229 Q359 236 342.5 238 Q326 240 305 240 Z " />
<glyph glyph-name="seven" unicode="7" horiz-adv-x="469" d="M250 41 Q242 25 227.5 12.5 Q213 0 195 0 L122 0 Q104 0 93 12 Q82 24 84 41 L359 467 L108 467 Q95 467 87.5 476.5 Q80 486 82 500 L89 552 Q91 566 101.5 575.5 Q112 585 125 585 L498 585 Q511 585 518.5 575.5 Q526 566 524 552 L510 449 Q508 442 505 435.5 Q502 429 498 422 L250 41 Z " />
<glyph glyph-name="eight" unicode="8" horiz-adv-x="546" d="M322 349 Q338 349 353.5 351 Q369 353 382.5 360.5 Q396 368 405.5 382.5 Q415 397 419 422 Q424 456 399.5 467 Q375 478 340 478 Q305 478 277.5 467 Q250 456 245 422 Q241 397 247 382.5 Q253 368 264 360.5 Q275 353 290.5 351 Q306 349 322 349 Z M288 112 Q304 113 320 114.5 Q336 116 349 122 Q362 128 371.5 141 Q381 154 384 176 Q389 211 365 224.5 Q341 238 306 238 Q271 238 243 224.5 Q215 211 210 176 Q207 154 213 141 Q219 128 230.5 122 Q242 116 257.5 114.5 Q273 113 288 112 Z M272 -6 Q151 -6 97 37.5 Q43 81 55 165 Q57 180 63 198.5 Q69 217 80.5 235 Q92 253 109.5 268 Q127 283 151 291 Q126 305 112.5 322 Q99 339 93.5 356.5 Q88 374 88.5 391.5 Q89 409 91 424 Q104 512 169.5 554 Q235 596 356 596 Q477 596 531.5 554 Q586 512 573 424 Q571 409 566.5 391.5 Q562 374 551.5 356.5 Q541 339 523 322 Q505 305 475 291 Q497 283 510 268 Q523 253 530 235 Q537 217 538 198.5 Q539 180 537 165 Q525 81 459 37.5 Q393 -6 272 -6 Z " />
<glyph glyph-name="nine" unicode="9" horiz-adv-x="545" d="M320 336 Q329 336 344 338.5 Q359 341 374 349.5 Q389 358 401 374.5 Q413 391 417 419 Q424 464 402.5 477 Q381 490 341 490 Q320 490 302.5 488 Q285 486 272 478.5 Q259 471 250.5 457 Q242 443 239 419 Q232 370 255 353 Q278 336 320 336 Z M211 146 Q215 129 231.5 120.5 Q248 112 286 112 Q325 112 353.5 139 Q382 166 391 233 L395 263 Q376 247 355 237.5 Q334 228 315.5 223.5 Q297 219 283.5 218 Q270 217 265 217 Q203 217 165 235 Q127 253 108 282 Q89 311 85 348 Q81 385 86 423 Q92 462 107.5 494 Q123 526 153 548.5 Q183 571 230.5 583.5 Q278 596 347 596 Q407 596 451.5 585.5 Q496 575 524 545 Q552 515 560.5 460.5 Q569 406 557 317 L553 290 Q543 215 525 159.5 Q507 104 474.5 67.5 Q442 31 393 12.5 Q344 -6 270 -6 Q174 -6 125.5 28 Q77 62 66 123 Q68 141 82 155 Q96 169 116 169 L177 169 Q187 169 195.5 165.5 Q204 162 211 146 Z " />
<glyph glyph-name="colon" unicode="&#x3a;" horiz-adv-x="252" d="M205 41 Q203 24 189 12 Q175 0 157 0 L95 0 Q77 0 66 12 Q55 24 57 41 L66 104 Q68 121 82.5 133 Q97 145 115 145 L177 145 Q195 145 205.5 133 Q216 121 214 104 L205 41 Z M243 309 Q241 292 226.5 280 Q212 268 194 268 L132 268 Q114 268 103.5 280 Q93 292 95 309 L104 372 Q106 389 120.5 401 Q135 413 153 413 L215 413 Q233 413 243.5 401 Q254 389 252 372 L243 309 Z " />
<glyph glyph-name="semicolon" unicode="&#x3b;" horiz-adv-x="289" d="M280 309 Q278 292 263.5 280 Q249 268 231 268 L169 268 Q151 268 140.5 280 Q130 292 132 309 L141 372 Q143 389 157.5 401 Q172 413 190 413 L252 413 Q270 413 280.5 401 Q291 389 289 372 L280 309 Z M91 84 Q98 99 113.5 110 Q129 121 146 121 L201 121 Q218 121 227 110 Q236 99 234 84 L178 -66 Q170 -81 155 -92 Q140 -103 123 -103 L76 -103 Q59 -103 49.5 -92 Q40 -81 42 -66 L91 84 Z " />
<glyph glyph-name="less" unicode="&#x3c;" horiz-adv-x="410" d="M340 166 Q354 158 365 146 Q376 134 374 116 L368 73 Q365 55 351.5 42.5 Q338 30 321 30 L101 158 Q90 161 83 169.5 Q76 178 78 190 L88 260 Q90 272 99.5 279.5 Q109 287 120 292 L375 419 Q392 419 402.5 406.5 Q413 394 410 376 L404 333 Q402 315 387.5 303 Q373 291 356 283 L233 227 L340 166 Z " />
<glyph glyph-name="equal" unicode="&#x3d;" horiz-adv-x="398" d="M114 221 Q101 221 93 230.5 Q85 240 87 254 L95 306 Q97 320 107 329.5 Q117 339 130 339 L362 339 Q375 339 383 329.5 Q391 320 389 306 L381 254 Q379 240 369 230.5 Q359 221 346 221 L114 221 Z M87 31 Q74 31 66 40.5 Q58 50 60 64 L68 116 Q70 130 80 139.5 Q90 149 103 149 L335 149 Q348 149 356 139.5 Q364 130 362 116 L354 64 Q352 50 342 40.5 Q332 31 319 31 L87 31 Z " />
<glyph glyph-name="greater" unicode="&#x3e;" horiz-adv-x="410" d="M239 227 L132 283 Q118 291 107 303 Q96 315 98 333 L104 376 Q107 394 120.5 406.5 Q134 419 151 419 L372 292 Q381 287 388.5 279.5 Q396 272 394 260 L384 190 Q382 178 373 169.5 Q364 161 353 158 L97 30 Q80 30 69.5 42.5 Q59 55 62 73 L68 116 Q70 134 84.5 146 Q99 158 116 166 L239 227 Z " />
<glyph glyph-name="question" unicode="&#x3f;" horiz-adv-x="576" d="M263 429 Q257 417 245 409.5 Q233 402 219 402 L151 402 Q133 402 122.5 414 Q112 426 114 443 Q143 512 206 554 Q269 596 360 596 Q434 596 479 577.5 Q524 559 548 529.5 Q572 500 578 464.5 Q584 429 579 395 Q575 362 560 338.5 Q545 315 519 294 Q493 273 455 252 Q417 231 366 204 L365 199 Q363 182 349 170 Q335 158 317 158 L249 158 Q231 158 220 170 Q209 182 211 199 L217 235 Q220 263 248 273 Q264 279 292.5 291.5 Q321 304 349.5 320.5 Q378 337 400 357 Q422 377 425 398 Q430 434 408 456 Q386 478 346 478 Q311 478 291.5 463.5 Q272 449 263 429 Z M189 41 Q187 24 198 12 Q209 0 227 0 L295 0 Q313 0 327 12 Q341 24 343 41 L349 79 Q351 96 340 108 Q329 120 311 120 L243 120 Q225 120 211 108 Q197 96 195 79 L189 41 Z " />
<glyph glyph-name="at" unicode="&#x40;" horiz-adv-x="805" d="M622 181 Q627 213 607.5 233.5 Q588 254 559 254 Q530 254 506.5 233.5 Q483 213 478 178 L477 172 Q472 139 490.5 119.5 Q509 100 538 100 Q570 100 593 119.5 Q616 139 621 172 L622 181 Z M373 -115 Q386 -115 394 -124.5 Q402 -134 400 -148 L392 -202 Q390 -216 379.5 -225.5 Q369 -235 356 -235 L313 -235 Q229 -235 176.5 -208 Q124 -181 95.5 -139 Q67 -97 59.5 -45 Q52 7 59 56 L95 309 Q102 358 127.5 409 Q153 460 197.5 501.5 Q242 543 306.5 569.5 Q371 596 456 596 L516 596 Q600 596 657 569.5 Q714 543 747 501 Q780 459 791.5 407.5 Q803 356 796 306 L758 41 Q756 24 742 12 Q728 0 710 0 L642 0 Q624 0 611 11.5 Q598 23 600 40 Q578 23 559.5 13.5 Q541 4 525 -0.5 Q509 -5 494.5 -5.5 Q480 -6 465 -6 Q392 -6 351 39 Q310 84 323 172 Q329 216 347 250 Q365 284 392 307 Q419 330 452.5 342 Q486 354 523 354 Q554 354 583 348 Q612 342 644 323 Q649 360 638.5 388.5 Q628 417 607 436.5 Q586 456 557.5 466 Q529 476 500 476 L467 476 Q436 476 400.5 466 Q365 456 333.5 435 Q302 414 278.5 382.5 Q255 351 249 309 L213 56 Q201 -31 233 -73 Q265 -115 330 -115 L373 -115 Z " />
<glyph glyph-name="A" unicode="A" horiz-adv-x="628" d="M478 585 Q496 585 506.5 572.5 Q517 560 520 544 L626 41 Q624 24 610 12 Q596 0 578 0 L505 0 Q487 0 475 12.5 Q463 25 460 41 L445 119 L215 119 L178 41 Q170 25 155.5 12.5 Q141 0 123 0 L50 0 Q32 0 21 12 Q10 24 12 41 L260 544 Q268 560 282 572.5 Q296 585 314 585 L478 585 Z M272 240 L422 240 L379 466 L272 240 Z " />
<glyph glyph-name="B" unicode="B" horiz-adv-x="577" d="M249 342 L339 342 Q378 342 403 355.5 Q428 369 433 402 Q438 433 416.5 450 Q395 467 356 467 L266 467 L249 342 Z M336 118 Q375 118 400.5 132 Q426 146 431 178 Q436 211 413.5 221.5 Q391 232 352 232 L233 232 L217 118 L336 118 Z M373 585 Q441 585 485 570 Q529 555 553.5 530 Q578 505 586 473.5 Q594 442 589 410 Q588 398 582.5 382 Q577 366 568 350 Q559 334 545.5 321 Q532 308 514 302 Q538 293 553 278 Q568 263 575.5 245 Q583 227 584.5 208.5 Q586 190 584 174 Q580 142 563.5 110.5 Q547 79 515.5 54.5 Q484 30 435.5 15 Q387 0 319 0 L90 0 Q72 0 61 12 Q50 24 52 41 L123 544 Q125 561 139.5 573 Q154 585 172 585 L373 585 Z " />
<glyph glyph-name="C" unicode="C" horiz-adv-x="633" d="M482 178 Q493 194 503 197.5 Q513 201 523 201 L590 201 Q610 201 620 187 Q630 173 627 155 Q610 121 582.5 91.5 Q555 62 518 40 Q481 18 434 6 Q387 -6 330 -6 Q245 -6 191 22.5 Q137 51 107.5 94.5 Q78 138 69.5 189.5 Q61 241 67 287 Q74 336 97 390.5 Q120 445 162.5 490.5 Q205 536 267 566 Q329 596 414 596 Q470 596 513.5 583.5 Q557 571 588.5 549.5 Q620 528 639.5 498.5 Q659 469 667 435 Q664 417 650 403 Q636 389 616 389 L550 389 Q540 389 531 392.5 Q522 396 515 412 Q510 444 480 461 Q450 478 402 478 Q368 478 337.5 464 Q307 450 283 424.5 Q259 399 243 364 Q227 329 221 287 Q210 209 243.5 160.5 Q277 112 346 112 Q396 112 432 128 Q468 144 482 178 Z " />
<glyph glyph-name="D" unicode="D" horiz-adv-x="606" d="M266 467 L217 118 L308 118 Q374 118 414.5 166 Q455 214 466 293 Q490 467 357 467 L266 467 Z M361 585 Q445 585 498.5 558 Q552 531 581.5 488.5 Q611 446 619 394.5 Q627 343 620 293 Q613 247 590.5 195.5 Q568 144 527 100.5 Q486 57 424.5 28.5 Q363 0 279 0 L90 0 Q72 0 61 12 Q50 24 52 41 L123 544 Q125 561 139.5 573 Q154 585 172 585 L361 585 Z " />
<glyph glyph-name="E" unicode="E" horiz-adv-x="520" d="M437 350 Q450 350 457.5 340.5 Q465 331 463 317 L455 263 Q453 249 443 239.5 Q433 230 420 230 L233 230 L217 118 L473 118 Q486 118 493.5 108.5 Q501 99 499 85 L492 33 Q490 19 480 9.5 Q470 0 457 0 L90 0 Q72 0 61 12 Q50 24 52 41 L123 544 Q125 561 139.5 573 Q154 585 172 585 L539 585 Q552 585 559.5 575.5 Q567 566 565 552 L558 500 Q556 486 545.5 476.5 Q535 467 522 467 L266 467 L250 350 L437 350 Z " />
<glyph glyph-name="F" unicode="F" horiz-adv-x="510" d="M205 33 Q203 19 193 9.5 Q183 0 170 0 L90 0 Q72 0 61 12 Q50 24 52 41 L123 544 Q125 561 139.5 573 Q154 585 172 585 L539 585 Q552 585 559.5 575.5 Q567 566 565 552 L558 500 Q556 486 545.5 476.5 Q535 467 522 467 L266 467 L246 322 L461 322 Q474 322 481.5 312.5 Q489 303 487 289 L480 235 Q478 221 467.5 211.5 Q457 202 444 202 L229 202 L205 33 Z " />
<glyph glyph-name="G" unicode="G" horiz-adv-x="655" d="M626 316 Q639 316 646.5 306.5 Q654 297 652 283 L616 25 Q614 14 607 7 Q600 0 590 0 L531 0 Q517 0 509 9 Q501 18 503 31 L503 48 Q465 18 422.5 6 Q380 -6 331 -6 Q246 -6 192 22.5 Q138 51 108 94.5 Q78 138 69.5 189.5 Q61 241 67 287 Q74 336 97 390.5 Q120 445 162.5 490.5 Q205 536 267 566 Q329 596 414 596 Q471 596 514.5 583.5 Q558 571 589.5 549.5 Q621 528 640 498.5 Q659 469 667 435 Q664 417 649.5 403 Q635 389 615 389 L549 389 Q539 389 530 392.5 Q521 396 514 412 Q509 446 479 462 Q449 478 408 478 Q371 478 339 464 Q307 450 282.5 424.5 Q258 399 242.5 364 Q227 329 221 287 Q210 209 243.5 160.5 Q277 112 346 112 Q410 112 448 132.5 Q486 153 509 203 L434 203 Q422 203 414.5 211.5 Q407 220 409 234 L417 285 Q419 299 428.5 307.5 Q438 316 450 316 L626 316 Z " />
<glyph glyph-name="H" unicode="H" horiz-adv-x="614" d="M572 41 Q570 24 556 12 Q542 0 524 0 L456 0 Q438 0 427 12 Q416 24 418 41 L444 221 L232 221 L206 41 Q204 24 190 12 Q176 0 158 0 L90 0 Q72 0 61 12 Q50 24 52 41 L123 544 Q125 561 139.5 573 Q154 585 172 585 L240 585 Q258 585 268.5 573 Q279 561 277 544 L249 342 L461 342 L489 544 Q491 561 505.5 573 Q520 585 538 585 L606 585 Q624 585 634.5 573 Q645 561 643 544 L572 41 Z " />
<glyph glyph-name="I" unicode="I" horiz-adv-x="250" d="M207 41 Q205 24 191 12 Q177 0 159 0 L91 0 Q73 0 62 12 Q51 24 53 41 L124 544 Q126 561 140.5 573 Q155 585 173 585 L241 585 Q259 585 269.5 573 Q280 561 278 544 L207 41 Z " />
<glyph glyph-name="J" unicode="J" horiz-adv-x="531" d="M194 161 Q199 132 217.5 122 Q236 112 264 112 Q300 112 325.5 131 Q351 150 359 208 L406 544 Q408 561 422.5 573 Q437 585 455 585 L523 585 Q541 585 551.5 573 Q562 561 560 544 L513 208 Q507 169 491 130.5 Q475 92 443.5 62 Q412 32 364.5 13 Q317 -6 248 -6 Q190 -6 149.5 7.5 Q109 21 84 44 Q59 67 47.5 97.5 Q36 128 34 161 Q36 178 50.5 190 Q65 202 83 202 L157 202 Q175 202 183 190 Q191 178 194 161 Z " />
<glyph glyph-name="K" unicode="K" horiz-adv-x="619" d="M617 41 Q615 24 601 12 Q587 0 569 0 L498 0 Q480 0 464.5 12.5 Q449 25 443 41 L350 272 L223 159 L206 41 Q204 24 190 12 Q176 0 158 0 L90 0 Q72 0 61 12 Q50 24 52 41 L123 544 Q125 561 139.5 573 Q154 585 172 585 L240 585 Q258 585 268.5 573 Q279 561 277 544 L251 361 L461 550 Q487 575 504 580 Q521 585 539 585 L611 585 Q629 585 639.5 573 Q650 561 648 544 L480 389 Q495 350 513 306 Q531 262 549 216 Q567 170 584.5 125.5 Q602 81 617 41 Z " />
<glyph glyph-name="L" unicode="L" horiz-adv-x="510" d="M473 118 Q486 118 493.5 108.5 Q501 99 499 85 L492 33 Q490 19 480 9.5 Q470 0 457 0 L90 0 Q72 0 61 12 Q50 24 52 41 L123 544 Q125 561 139.5 573 Q154 585 172 585 L240 585 Q258 585 268.5 573 Q279 561 277 544 L217 118 L473 118 Z " />
<glyph glyph-name="M" unicode="M" horiz-adv-x="846" d="M388 0 Q370 0 357.5 10 Q345 20 343 41 L282 458 L197 41 Q189 20 174.5 10 Q160 0 142 0 L80 0 Q62 0 51 12 Q40 24 42 41 Q66 160 93 291.5 Q120 423 144 544 Q146 561 160.5 573 Q175 585 193 585 L366 585 Q384 585 400.5 571.5 Q417 558 419 537 L457 242 L577 537 Q585 558 605.5 571.5 Q626 585 644 585 L817 585 Q835 585 845.5 573 Q856 561 854 544 Q843 423 833 291.5 Q823 160 814 41 Q812 24 798 12 Q784 0 766 0 L704 0 Q686 0 673.5 10 Q661 20 659 41 L692 458 L513 41 Q505 20 490.5 10 Q476 0 458 0 L388 0 Z " />
<glyph glyph-name="N" unicode="N" horiz-adv-x="652" d="M484 238 L527 544 Q529 561 543.5 573 Q558 585 576 585 L644 585 Q662 585 672.5 573 Q683 561 681 544 L610 41 Q608 24 594 12 Q580 0 562 0 L478 0 Q460 0 443 11 Q426 22 415 41 L251 356 L206 41 Q204 24 190 12 Q176 0 158 0 L90 0 Q72 0 61 12 Q50 24 52 41 L123 544 Q125 561 139.5 573 Q154 585 172 585 L261 585 Q279 585 296.5 574.5 Q314 564 323 544 L484 238 Z " />
<glyph glyph-name="O" unicode="O" horiz-adv-x="656" d="M343 112 Q412 112 458 160.5 Q504 209 515 287 Q521 329 515.5 364 Q510 399 495 424.5 Q480 450 455 464 Q430 478 395 478 Q361 478 331.5 464 Q302 450 279.5 424.5 Q257 399 242 364 Q227 329 221 287 Q210 209 242 160.5 Q274 112 343 112 Z M327 -6 Q242 -6 188.5 22.5 Q135 51 106 94.5 Q77 138 69 189.5 Q61 241 67 287 Q74 336 96.5 390.5 Q119 445 161 490.5 Q203 536 264.5 566 Q326 596 411 596 Q496 596 549.5 566 Q603 536 631.5 490.5 Q660 445 668 390.5 Q676 336 669 287 Q663 241 640.5 189.5 Q618 138 576.5 94.5 Q535 51 473.5 22.5 Q412 -6 327 -6 Z " />
<glyph glyph-name="P" unicode="P" horiz-adv-x="571" d="M241 287 L352 287 Q390 287 419 311 Q448 335 453 377 Q459 419 437 443 Q415 467 377 467 L266 467 L241 287 Z M206 41 Q204 24 190 12 Q176 0 158 0 L90 0 Q72 0 61 12 Q50 24 52 41 L123 544 Q125 561 139.5 573 Q154 585 172 585 L395 585 Q463 585 506.5 565 Q550 545 574 514.5 Q598 484 605 447.5 Q612 411 607 378 Q602 345 584.5 308 Q567 271 534.5 240.5 Q502 210 453 189.5 Q404 169 336 169 L224 169 L206 41 Z " />
<glyph glyph-name="Q" unicode="Q" horiz-adv-x="661" d="M327 -6 Q242 -6 188.5 22.5 Q135 51 106 94.5 Q77 138 69 189.5 Q61 241 67 287 Q74 336 96.5 390.5 Q119 445 161 490.5 Q203 536 264.5 566 Q326 596 411 596 Q496 596 549.5 566 Q603 536 631.5 490.5 Q660 445 668 390.5 Q676 336 669 287 Q662 239 639.5 187.5 Q617 136 573 92 L637 92 Q647 92 653.5 84.5 Q660 77 658 66 L652 26 Q650 15 642.5 7.5 Q635 0 625 0 L397 0 Q364 -6 327 -6 Z M343 112 Q412 112 458 160.5 Q504 209 515 287 Q521 329 515.5 364 Q510 399 495 424.5 Q480 450 455 464 Q430 478 395 478 Q361 478 331.5 464 Q302 450 279.5 424.5 Q257 399 242 364 Q227 329 221 287 Q210 209 242 160.5 Q274 112 343 112 Z " />
<glyph glyph-name="R" unicode="R" horiz-adv-x="576" d="M528 41 Q526 24 512 12 Q498 0 480 0 L402 0 Q389 0 379.5 6.5 Q370 13 366 23 L316 169 L224 169 L206 41 Q204 24 190 12 Q176 0 158 0 L90 0 Q72 0 61 12 Q50 24 52 41 L123 544 Q125 561 139.5 573 Q154 585 172 585 L395 585 Q463 585 506.5 565 Q550 545 574 514.5 Q598 484 605 447.5 Q612 411 607 378 Q604 355 594.5 330 Q585 305 569 281 Q553 257 529.5 235.5 Q506 214 475 199 L528 41 Z M241 287 L352 287 Q390 287 419 311 Q448 335 453 377 Q459 419 437 443 Q415 467 377 467 L266 467 L241 287 Z " />
<glyph glyph-name="S" unicode="S" horiz-adv-x="609" d="M239 146 Q249 126 274 119 Q299 112 331 112 Q392 112 417 125 Q442 138 447 171 Q450 193 422.5 204.5 Q395 216 353 225 Q311 234 261.5 243.5 Q212 253 171.5 271.5 Q131 290 106.5 321.5 Q82 353 89 405 Q95 447 112.5 482 Q130 517 163.5 542.5 Q197 568 249 582 Q301 596 375 596 Q417 596 457 588 Q497 580 530 564.5 Q563 549 586 525.5 Q609 502 618 470 Q614 448 596.5 431.5 Q579 415 556 415 L481 415 Q470 415 459 419 Q448 423 440 442 Q434 459 414.5 468.5 Q395 478 360 478 Q327 478 305.5 473 Q284 468 271.5 461 Q259 454 253.5 447 Q248 440 248 435 Q244 407 271 392 Q298 377 339.5 367.5 Q381 358 430.5 348.5 Q480 339 520.5 322 Q561 305 586 275.5 Q611 246 604 196 Q598 151 579.5 114 Q561 77 527 50 Q493 23 440.5 8.5 Q388 -6 314 -6 Q271 -6 231 0.5 Q191 7 158 22 Q125 37 101 61 Q77 85 65 119 Q68 140 85.5 156.5 Q103 173 126 173 L199 173 Q210 173 220.5 169 Q231 165 239 146 Z " />
<glyph glyph-name="T" unicode="T" horiz-adv-x="516" d="M555 585 Q568 585 575.5 575.5 Q583 566 581 552 L574 500 Q572 486 561.5 476.5 Q551 467 538 467 L400 467 L340 41 Q338 24 324 12 Q310 0 292 0 L224 0 Q206 0 195 12 Q184 24 186 41 L246 467 L108 467 Q95 467 87.5 476.5 Q80 486 82 500 L89 552 Q91 566 101.5 575.5 Q112 585 125 585 L555 585 Z " />
<glyph glyph-name="U" unicode="U" horiz-adv-x="646" d="M322 -6 Q238 -6 187 20 Q136 46 110 86.5 Q84 127 78.5 176.5 Q73 226 80 272 L118 544 Q120 561 134.5 573 Q149 585 167 585 L235 585 Q253 585 263.5 573 Q274 561 272 544 L233 269 Q229 236 231 207.5 Q233 179 245 157.5 Q257 136 279.5 124 Q302 112 338 112 Q374 112 400 124 Q426 136 444 157.5 Q462 179 472.5 207.5 Q483 236 487 269 L526 544 Q528 561 542.5 573 Q557 585 575 585 L643 585 Q661 585 671.5 573 Q682 561 680 544 L642 272 Q635 226 616 176.5 Q597 127 559.5 86.5 Q522 46 464 20 Q406 -6 322 -6 Z " />
<glyph glyph-name="V" unicode="V" horiz-adv-x="628" d="M232 0 Q214 0 203 12.5 Q192 25 189 41 L83 544 Q85 561 99.5 573 Q114 585 132 585 L205 585 Q223 585 234.5 572.5 Q246 560 249 544 L330 119 L531 544 Q539 560 554 572.5 Q569 585 587 585 L660 585 Q678 585 688.5 573 Q699 561 697 544 L449 41 Q441 25 427.5 12.5 Q414 0 396 0 L232 0 Z " />
<glyph glyph-name="W" unicode="W" horiz-adv-x="820" d="M523 585 Q541 585 552 572.5 Q563 560 565 544 L606 146 L734 548 Q741 564 755.5 574.5 Q770 585 788 585 L852 585 Q870 585 880.5 573 Q891 561 889 544 L714 41 Q709 25 694 12.5 Q679 0 661 0 L528 0 Q510 0 498.5 12.5 Q487 25 485 41 L454 319 L345 41 Q339 25 324.5 12.5 Q310 0 292 0 L159 0 Q141 0 129 12.5 Q117 25 116 41 L83 544 Q85 561 99.5 573 Q114 585 132 585 L196 585 Q214 585 225 574.5 Q236 564 240 548 L254 146 L407 544 Q413 560 428 572.5 Q443 585 461 585 L523 585 Z " />
<glyph glyph-name="X" unicode="X" horiz-adv-x="582" d="M185 32 Q173 18 157.5 9 Q142 0 124 0 L60 0 Q42 0 31 12 Q20 24 22 41 L239 294 L93 544 Q95 561 109.5 573 Q124 585 142 585 L205 585 Q223 585 236 576 Q249 567 257 553 L346 394 L479 553 Q491 567 507 576 Q523 585 541 585 L604 585 Q622 585 632.5 573 Q643 561 641 544 L425 294 L570 41 Q568 24 554 12 Q540 0 522 0 L458 0 Q440 0 426.5 9 Q413 18 405 32 L318 194 L185 32 Z " />
<glyph glyph-name="Y" unicode="Y" horiz-adv-x="582" d="M475 544 Q484 560 502 572.5 Q520 585 538 585 L609 585 Q627 585 637.5 573 Q648 561 646 544 L393 182 L373 41 Q371 24 357 12 Q343 0 325 0 L257 0 Q239 0 228 12 Q217 24 219 41 L239 182 L88 544 Q90 561 104.5 573 Q119 585 137 585 L208 585 Q226 585 240 572.5 Q254 560 259 544 L339 348 L475 544 Z " />
<glyph glyph-name="Z" unicode="Z" horiz-adv-x="528" d="M481 118 Q494 118 501.5 108.5 Q509 99 507 85 L500 33 Q498 19 488 9.5 Q478 0 465 0 L63 0 Q50 0 42 9.5 Q34 19 36 33 L44 89 Q46 103 53 115 Q60 127 78 147 L367 467 L130 467 Q117 467 109.5 476.5 Q102 486 104 500 L111 552 Q113 566 123.5 575.5 Q134 585 147 585 L547 585 Q560 585 567.5 575.5 Q575 566 573 552 L565 496 Q563 482 556 470 Q549 458 531 438 L243 118 L481 118 Z " />
<glyph glyph-name="bracketleft" unicode="&#x5b;" horiz-adv-x="399" d="M308 -53 Q321 -53 328.5 -62.5 Q336 -72 334 -86 L327 -138 Q325 -152 314.5 -161.5 Q304 -171 291 -171 L70 -171 Q52 -171 41.5 -159 Q31 -147 33 -130 L156 741 Q158 758 172 770 Q186 782 204 782 L425 782 Q438 782 446 772.5 Q454 763 452 749 L444 697 Q442 683 432 673.5 Q422 664 409 664 L299 664 L198 -53 L308 -53 Z " />
<glyph glyph-name="backslash" unicode="&#x5c;" horiz-adv-x="473" d="M454 -132 Q452 -148 438.5 -159.5 Q425 -171 408 -171 L341 -171 Q324 -171 313.5 -159 Q303 -147 300 -132 L104 743 Q106 759 119 770.5 Q132 782 149 782 L216 782 Q233 782 244 770 Q255 758 258 743 L454 -132 Z " />
<glyph glyph-name="bracketright" unicode="&#x5d;" horiz-adv-x="399" d="M185 -53 L286 664 L176 664 Q163 664 155 673.5 Q147 683 149 697 L157 749 Q159 763 169 772.5 Q179 782 192 782 L413 782 Q431 782 442 770 Q453 758 451 741 L328 -130 Q326 -147 311.5 -159 Q297 -171 279 -171 L58 -171 Q45 -171 37.5 -161.5 Q30 -152 32 -138 L39 -86 Q41 -72 51.5 -62.5 Q62 -53 75 -53 L185 -53 Z " />
<glyph glyph-name="asciicircum" unicode="&#x5e;" horiz-adv-x="470" d="M360 585 Q378 585 386.5 572.5 Q395 560 402 544 L471 383 Q469 368 456 356.5 Q443 345 426 345 L373 345 Q356 345 346 356.5 Q336 368 330 383 L300 465 L246 383 Q237 368 223.5 356.5 Q210 345 193 345 L140 345 Q123 345 113 356.5 Q103 368 105 383 L220 544 Q231 560 243.5 572.5 Q256 585 274 585 L360 585 Z " />
<glyph glyph-name="underscore" unicode="&#x5f;" horiz-adv-x="398" d="M63 -139 Q50 -139 42.5 -129.5 Q35 -120 37 -106 L44 -55 Q46 -41 56 -31.5 Q66 -22 79 -22 L311 -22 Q324 -22 332 -31.5 Q340 -41 338 -55 L331 -106 Q329 -120 318.5 -129.5 Q308 -139 295 -139 L63 -139 Z " />
<glyph glyph-name="grave" unicode="&#x60;" horiz-adv-x="324" d="M328 402 Q326 385 311.5 373 Q297 361 279 361 L227 361 Q209 361 195.5 373 Q182 385 178 402 L128 544 Q130 561 144.5 573 Q159 585 177 585 L239 585 Q257 585 270.5 573 Q284 561 287 544 L328 402 Z " />
<glyph glyph-name="a" unicode="a" horiz-adv-x="509" d="M199 132 Q198 120 202.5 113.5 Q207 107 216.5 104 Q226 101 239 100.5 Q252 100 266 100 Q277 100 298 106.5 Q319 113 340 128 L347 174 Q325 174 299.5 172 Q274 170 252.5 165 Q231 160 216 152 Q201 144 199 132 Z M112 343 Q144 394 194.5 414.5 Q245 435 309 435 Q377 435 419.5 421.5 Q462 408 484 380.5 Q506 353 510 311 Q514 269 506 211 L482 41 Q480 24 466 12 Q452 0 434 0 L366 0 Q348 0 337 12 Q326 24 328 41 Q307 23 284.5 13.5 Q262 4 241.5 -0.5 Q221 -5 203 -5.5 Q185 -6 172 -6 Q149 -6 124 1 Q99 8 79.5 23.5 Q60 39 49.5 64.5 Q39 90 44 127 Q51 176 84 204 Q117 232 163 246.5 Q209 261 261.5 265 Q314 269 360 269 Q365 304 347 316.5 Q329 329 299 329 Q285 329 267.5 326.5 Q250 324 235 312 Q222 300 203 300 L147 300 Q129 300 119.5 313 Q110 326 112 343 Z " />
<glyph glyph-name="b" unicode="b" horiz-adv-x="557" d="M408 233 Q412 260 406.5 278.5 Q401 297 390 308 Q379 319 364 324 Q349 329 334 329 Q319 329 303 323.5 Q287 318 273 308.5 Q259 299 249 285.5 Q239 272 236 255 L226 178 Q223 162 228.5 147.5 Q234 133 245 122.5 Q256 112 271 106 Q286 100 302 100 Q317 100 334 107.5 Q351 115 365.5 129 Q380 143 390.5 163 Q401 183 405 209 L408 233 Z M123 544 Q125 561 139.5 573 Q154 585 172 585 L240 585 Q258 585 268.5 573 Q279 561 277 544 L256 393 Q294 425 332 430 Q370 435 401 435 Q447 435 480 419 Q513 403 533 374 Q553 345 560 305 Q567 265 560 216 Q554 170 534.5 129.5 Q515 89 486.5 59 Q458 29 421.5 11.5 Q385 -6 345 -6 Q329 -6 311 -4.5 Q293 -3 274.5 1.5 Q256 6 238.5 15.5 Q221 25 206 41 Q204 24 190 12 Q176 0 158 0 L90 0 Q72 0 61 12 Q50 24 52 41 L123 544 Z " />
<glyph glyph-name="c" unicode="c" horiz-adv-x="519" d="M372 139 Q383 155 392.5 158.5 Q402 162 412 162 L475 162 Q495 162 505 148 Q515 134 513 116 Q486 59 429 26.5 Q372 -6 276 -6 Q205 -6 159.5 13 Q114 32 89.5 63.5 Q65 95 58 134.5 Q51 174 57 214 Q62 253 80 292.5 Q98 332 132 363.5 Q166 395 216.5 415 Q267 435 338 435 Q391 435 427 425 Q463 415 486.5 398.5 Q510 382 522.5 359.5 Q535 337 540 311 Q538 293 524 279 Q510 265 490 265 L427 265 Q417 265 408 268.5 Q399 272 392 288 Q387 311 370 320 Q353 329 323 329 Q273 329 246 303 Q219 277 211 214 Q202 151 221.5 125.5 Q241 100 291 100 Q319 100 339 106.5 Q359 113 372 139 Z " />
<glyph glyph-name="d" unicode="d" horiz-adv-x="557" d="M210 209 Q206 183 211.5 163 Q217 143 227.5 129 Q238 115 253 107.5 Q268 100 283 100 Q299 100 315.5 106 Q332 112 345.5 122.5 Q359 133 368.5 147.5 Q378 162 381 178 L391 255 Q394 272 388 285.5 Q382 299 370.5 308.5 Q359 318 344.5 323.5 Q330 329 315 329 Q300 329 283.5 324 Q267 319 252.5 308 Q238 297 227.5 278.5 Q217 260 213 233 L210 209 Z M515 41 Q513 24 499 12 Q485 0 467 0 L399 0 Q381 0 370 12 Q359 24 361 41 Q322 9 282 1.5 Q242 -6 210 -6 Q170 -6 138.5 11.5 Q107 29 87 59 Q67 89 59 129.5 Q51 170 57 216 Q64 265 82 305 Q100 345 128.5 374 Q157 403 194.5 419 Q232 435 278 435 Q294 435 311.5 434.5 Q329 434 346 430 Q363 426 380 417.5 Q397 409 411 393 L432 544 Q434 561 448.5 573 Q463 585 481 585 L549 585 Q567 585 577.5 573 Q588 561 586 544 L515 41 Z " />
<glyph glyph-name="e" unicode="e" horiz-adv-x="529" d="M317 329 Q289 329 263.5 318 Q238 307 218 264 L397 264 Q394 286 386 299 Q378 312 367 318.5 Q356 325 343.5 327 Q331 329 317 329 Z M537 214 Q534 196 520 183.5 Q506 171 488 171 L205 171 Q204 130 225.5 115 Q247 100 285 100 Q298 100 314 101.5 Q330 103 341 111 Q357 125 367.5 129.5 Q378 134 388 134 L446 134 Q466 134 476 120 Q486 106 484 88 Q455 49 400.5 21.5 Q346 -6 271 -6 Q201 -6 156.5 14.5 Q112 35 88 67 Q64 99 58 138 Q52 177 57 214 Q62 252 79 291.5 Q96 331 128.5 363 Q161 395 210.5 415 Q260 435 330 435 Q400 435 443 415 Q486 395 508.5 363.5 Q531 332 536.5 292.5 Q542 253 537 214 Z " />
<glyph glyph-name="f" unicode="f" horiz-adv-x="367" d="M387 509 Q350 508 331 496.5 Q312 485 307 450 L303 425 L376 425 Q387 425 394.5 416.5 Q402 408 400 395 L394 349 Q392 336 382 327.5 Q372 319 361 319 L288 319 L249 41 Q247 24 233 12 Q219 0 201 0 L133 0 Q115 0 104 12 Q93 24 95 41 L134 319 L89 319 Q78 319 71 327.5 Q64 336 66 349 L72 395 Q74 408 83.5 416.5 Q93 425 104 425 L149 425 Q164 524 205.5 573 Q247 622 325 622 Q344 622 364 621 Q384 620 403 618 Q414 618 421.5 609.5 Q429 601 427 588 L420 539 Q418 526 408 517.5 Q398 509 387 509 Z " />
<glyph glyph-name="g" unicode="g" horiz-adv-x="557" d="M210 209 Q206 183 211.5 163 Q217 143 227.5 129 Q238 115 253 107.5 Q268 100 283 100 Q299 100 315.5 106 Q332 112 345.5 122.5 Q359 133 368.5 147.5 Q378 162 381 178 L391 255 Q394 272 388 285.5 Q382 299 370.5 308.5 Q359 318 344.5 323.5 Q330 329 315 329 Q300 329 283.5 324 Q267 319 252.5 308 Q238 297 227.5 278.5 Q217 260 213 233 L210 209 Z M203 -79 Q213 -90 227.5 -93.5 Q242 -97 261 -97 Q307 -97 327.5 -75.5 Q348 -54 354 -12 L361 41 Q322 9 282 1.5 Q242 -6 210 -6 Q170 -6 138.5 11.5 Q107 29 87 59 Q67 89 59 129.5 Q51 170 57 216 Q64 265 82 305 Q100 345 128.5 374 Q157 403 194.5 419 Q232 435 278 435 Q294 435 311.5 434.5 Q329 434 346 430 Q363 426 380 417.5 Q397 409 411 393 Q416 407 429 416 Q442 425 458 425 L526 425 Q544 425 555 413 Q566 401 563 384 L513 28 Q506 -26 488.5 -68.5 Q471 -111 439 -141 Q407 -171 358.5 -187 Q310 -203 240 -203 Q164 -203 115 -173.5 Q66 -144 46 -107 Q49 -90 63 -78 Q77 -66 95 -66 L174 -66 Q193 -66 203 -79 Z " />
<glyph glyph-name="h" unicode="h" horiz-adv-x="546" d="M514 41 Q512 24 498 12 Q484 0 466 0 L398 0 Q380 0 369 12 Q358 24 360 41 L387 230 Q395 289 377.5 309 Q360 329 330 329 Q315 329 299.5 322.5 Q284 316 270.5 305 Q257 294 247.5 279 Q238 264 235 247 L206 41 Q204 24 190 12 Q176 0 158 0 L90 0 Q72 0 61 12 Q50 24 52 41 L123 544 Q125 561 139.5 573 Q154 585 172 585 L240 585 Q258 585 268.5 573 Q279 561 277 544 L254 383 Q272 403 292 413.5 Q312 424 330.5 428.5 Q349 433 365.5 434 Q382 435 393 435 Q474 435 515 385 Q556 335 543 244 L514 41 Z " />
<glyph glyph-name="i" unicode="i" horiz-adv-x="250" d="M207 41 Q205 24 191 12 Q177 0 159 0 L91 0 Q73 0 62 12 Q51 24 53 41 L101 384 Q104 401 118 413 Q132 425 150 425 L218 425 Q236 425 247 413 Q258 401 255 384 L207 41 Z M274 517 Q272 500 257.5 488 Q243 476 225 476 L157 476 Q139 476 128.5 488 Q118 500 120 517 L126 555 Q128 572 142 584 Q156 596 174 596 L242 596 Q260 596 271 584 Q282 572 280 555 L274 517 Z " />
<glyph glyph-name="j" unicode="j" horiz-adv-x="250" d="M274 517 Q272 500 257.5 488 Q243 476 225 476 L157 476 Q139 476 128.5 488 Q118 500 120 517 L126 555 Q128 572 142 584 Q156 596 174 596 L242 596 Q260 596 271 584 Q282 572 280 555 L274 517 Z M-56 -209 Q-67 -209 -74.5 -200.5 Q-82 -192 -80 -179 L-72 -127 Q-70 -114 -59.5 -105.5 Q-49 -97 -38 -97 L-26 -97 Q9 -97 23.5 -81 Q38 -65 41 -44 L101 384 Q104 401 118 413 Q132 425 150 425 L218 425 Q236 425 247 413 Q258 401 255 384 L198 -23 Q186 -113 143.5 -163 Q101 -213 22 -213 Q8 -213 -13 -212 Q-34 -211 -56 -209 Z " />
<glyph glyph-name="k" unicode="k" horiz-adv-x="511" d="M509 41 Q507 24 492.5 12 Q478 0 460 0 L375 0 Q352 0 342 17 L227 190 L206 41 Q204 24 190 12 Q176 0 158 0 L90 0 Q72 0 61 12 Q50 24 52 41 L123 544 Q125 561 139.5 573 Q154 585 172 585 L240 585 Q258 585 268.5 573 Q279 561 277 544 L240 282 L258 282 L395 408 Q410 425 432 425 L517 425 Q535 425 546 413 Q557 401 554 384 L390 227 L509 41 Z " />
<glyph glyph-name="l" unicode="l" horiz-adv-x="276" d="M225 -10 Q215 -11 207 -11 Q199 -11 192 -11 Q114 -11 85.5 39 Q57 89 70 179 L121 544 Q123 561 137.5 573 Q152 585 170 585 L238 585 Q256 585 266.5 573 Q277 561 275 544 L219 143 Q214 112 242 100 Q254 96 260.5 89 Q267 82 265 69 L258 20 Q256 7 246 -1.5 Q236 -10 225 -10 Z " />
<glyph glyph-name="m" unicode="m" horiz-adv-x="807" d="M258 383 Q284 403 306 413.5 Q328 424 345 428.5 Q362 433 374 434 Q386 435 392 435 Q439 435 471.5 425 Q504 415 529 376 Q552 398 572.5 410 Q593 422 611 427.5 Q629 433 643.5 434 Q658 435 669 435 Q706 435 734 421.5 Q762 408 779.5 383 Q797 358 803.5 324 Q810 290 804 248 L775 41 Q773 24 759 12 Q745 0 727 0 L659 0 Q641 0 630 12 Q619 24 621 41 L651 253 Q656 286 644 307.5 Q632 329 598 329 Q579 329 565 320 Q551 311 541.5 297.5 Q532 284 526 267 Q520 250 518 233 L491 41 Q489 24 475 12 Q461 0 443 0 L375 0 Q357 0 346 12 Q335 24 337 41 L367 253 Q372 286 358.5 307.5 Q345 329 312 329 Q293 329 279.5 320 Q266 311 256 297.5 Q246 284 240.5 267 Q235 250 233 233 L206 41 Q204 24 190 12 Q176 0 158 0 L90 0 Q72 0 61 12 Q50 24 52 41 L100 384 Q103 401 117 413 Q131 425 149 425 L217 425 Q235 425 247.5 412.5 Q260 400 258 383 Z " />
<glyph glyph-name="n" unicode="n" horiz-adv-x="546" d="M100 384 Q103 401 117 413 Q131 425 149 425 L217 425 Q235 425 245.5 412.5 Q256 400 254 383 Q272 403 292 413.5 Q312 424 330.5 428.5 Q349 433 365.5 434 Q382 435 393 435 Q474 435 515 385 Q556 335 543 244 L514 41 Q512 24 498 12 Q484 0 466 0 L398 0 Q380 0 369 12 Q358 24 360 41 L387 230 Q395 289 377.5 309 Q360 329 330 329 Q315 329 299.5 322.5 Q284 316 270.5 305 Q257 294 247.5 279 Q238 264 235 247 L206 41 Q204 24 190 12 Q176 0 158 0 L90 0 Q72 0 61 12 Q50 24 52 41 L100 384 Z " />
<glyph glyph-name="o" unicode="o" horiz-adv-x="550" d="M289 100 Q308 100 325.5 104.5 Q343 109 358 122 Q373 135 383.5 157 Q394 179 399 214 Q408 278 384.5 303.5 Q361 329 321 329 Q281 329 250.5 303.5 Q220 278 211 214 Q206 179 210.5 157 Q215 135 226.5 122 Q238 109 254 104.5 Q270 100 289 100 Z M274 -6 Q204 -6 159 13 Q114 32 89 63.5 Q64 95 57.5 134.5 Q51 174 57 214 Q62 253 80 292.5 Q98 332 131.5 363.5 Q165 395 215.5 415 Q266 435 336 435 Q407 435 451.5 415 Q496 395 520.5 363.5 Q545 332 551.5 292.5 Q558 253 553 214 Q547 174 529 134.5 Q511 95 478 63.5 Q445 32 395 13 Q345 -6 274 -6 Z " />
<glyph glyph-name="p" unicode="p" horiz-adv-x="557" d="M408 233 Q412 260 406.5 278.5 Q401 297 390 308 Q379 319 364 324 Q349 329 334 329 Q319 329 303 323.5 Q287 318 273 308.5 Q259 299 249 285.5 Q239 272 236 255 L226 178 Q223 162 228.5 147.5 Q234 133 245 122.5 Q256 112 271 106 Q286 100 302 100 Q317 100 334 107.5 Q351 115 365.5 129 Q380 143 390.5 163 Q401 183 405 209 L408 233 Z M182 -131 Q180 -148 165.5 -160 Q151 -172 133 -172 L65 -172 Q47 -172 36.5 -160 Q26 -148 28 -131 L100 384 Q103 401 117 413 Q131 425 149 425 L217 425 Q233 425 243 415.5 Q253 406 255 392 Q274 408 293 417 Q312 426 331 430 Q350 434 367.5 434.5 Q385 435 401 435 Q447 435 480 419 Q513 403 533 374 Q553 345 560 305 Q567 265 560 216 Q554 170 534.5 129.5 Q515 89 486.5 59 Q458 29 421.5 11.5 Q385 -6 345 -6 Q329 -6 311 -4.5 Q293 -3 274.5 1.5 Q256 6 238.5 15.5 Q221 25 206 41 L182 -131 Z " />
<glyph glyph-name="q" unicode="q" horiz-adv-x="557" d="M210 209 Q206 183 211.5 163 Q217 143 227.5 129 Q238 115 253 107.5 Q268 100 283 100 Q299 100 315.5 106 Q332 112 345.5 122.5 Q359 133 368.5 147.5 Q378 162 381 178 L391 255 Q394 272 388 285.5 Q382 299 370.5 308.5 Q359 318 344.5 323.5 Q330 329 315 329 Q300 329 283.5 324 Q267 319 252.5 308 Q238 297 227.5 278.5 Q217 260 213 233 L210 209 Z M361 41 Q322 9 282 1.5 Q242 -6 210 -6 Q170 -6 138.5 11.5 Q107 29 87 59 Q67 89 59 129.5 Q51 170 57 216 Q64 265 82 305 Q100 345 128.5 374 Q157 403 194.5 419 Q232 435 278 435 Q294 435 311.5 434.5 Q329 434 346.5 430 Q364 426 381 417 Q398 408 412 392 Q417 406 429.5 415.5 Q442 425 458 425 L526 425 Q544 425 555 413 Q566 401 563 384 L491 -131 Q489 -148 474.5 -160 Q460 -172 442 -172 L374 -172 Q356 -172 345.5 -160 Q335 -148 337 -131 L361 41 Z " />
<glyph glyph-name="r" unicode="r" horiz-adv-x="394" d="M398 314 Q388 316 378 317 Q368 318 361 318 Q339 318 317 312 Q295 306 277 294.5 Q259 283 247.5 267.5 Q236 252 233 233 L206 41 Q204 24 190 12 Q176 0 158 0 L90 0 Q72 0 61 12 Q50 24 52 41 L100 384 Q103 401 117 413 Q131 425 149 425 L217 425 Q235 425 245.5 413 Q256 401 254 384 L253 360 Q270 384 291 398.5 Q312 413 333.5 421.5 Q355 430 373.5 432.5 Q392 435 403 435 Q417 435 429 428.5 Q441 422 438 404 L430 344 Q428 331 418.5 322.5 Q409 314 398 314 Z " />
<glyph glyph-name="s" unicode="s" horiz-adv-x="470" d="M48 92 Q51 110 65.5 124 Q80 138 100 138 L161 138 Q171 138 180 134.5 Q189 131 198 116 Q205 109 217 104.5 Q229 100 248 100 Q269 100 281.5 102.5 Q294 105 300.5 109 Q307 113 309 118 Q311 123 311 127 Q313 136 292 141.5 Q271 147 236 154 Q201 160 168.5 168 Q136 176 111.5 190 Q87 204 74 226.5 Q61 249 66 283 Q71 315 85.5 342.5 Q100 370 127 390.5 Q154 411 194 423 Q234 435 289 435 Q358 435 404.5 412.5 Q451 390 468 337 Q465 319 450.5 305 Q436 291 416 291 L353 291 Q343 291 334.5 294.5 Q326 298 319 314 Q314 321 304 325 Q294 329 274 329 Q256 329 246 326 Q236 323 231 318.5 Q226 314 224.5 309 Q223 304 223 301 Q222 291 233.5 284 Q245 277 264.5 272 Q284 267 308.5 263 Q333 259 357 254 Q383 248 405 239.5 Q427 231 442 217.5 Q457 204 464 185.5 Q471 167 467 141 Q459 78 403.5 36 Q348 -6 238 -6 Q170 -6 118 16 Q66 38 48 92 Z " />
<glyph glyph-name="t" unicode="t" horiz-adv-x="373" d="M313 0 Q294 -3 274.5 -4.5 Q255 -6 241 -6 Q160 -6 131.5 46.5 Q103 99 116 190 L134 319 L89 319 Q78 319 71 327.5 Q64 336 66 349 L72 395 Q74 408 83.5 416.5 Q93 425 104 425 L149 425 L162 516 Q164 533 179 545 Q194 557 211 562 L282 579 Q300 579 310.5 567 Q321 555 319 538 L303 425 L372 425 Q383 425 390.5 416.5 Q398 408 396 395 L390 349 Q388 336 378 327.5 Q368 319 357 319 L288 319 L268 173 Q264 147 276 132 Q288 117 320 117 L328 117 Q339 117 347 108.5 Q355 100 353 87 L345 30 Q343 17 333.5 9.5 Q324 2 313 0 Z " />
<glyph glyph-name="u" unicode="u" horiz-adv-x="546" d="M90 384 Q93 401 107 413 Q121 425 139 425 L207 425 Q225 425 236 413 Q247 401 244 384 L218 199 Q214 170 218 151 Q222 132 231 120.5 Q240 109 253 104.5 Q266 100 281 100 Q313 100 339.5 125.5 Q366 151 371 185 L398 384 Q401 401 415 413 Q429 425 447 425 L515 425 Q533 425 544 413 Q555 401 552 384 L504 41 Q502 24 488 12 Q474 0 456 0 L388 0 Q370 0 359 12 Q348 24 350 41 Q328 23 307.5 13.5 Q287 4 269.5 -0.5 Q252 -5 237 -5.5 Q222 -6 211 -6 Q130 -6 89.5 44 Q49 94 63 185 L90 384 Z " />
<glyph glyph-name="v" unicode="v" horiz-adv-x="524" d="M180 0 Q162 0 150.5 12.5 Q139 25 137 41 L60 384 Q63 401 77 413 Q91 425 109 425 L182 425 Q200 425 211.5 412.5 Q223 400 226 384 L276 106 L404 384 Q412 400 427 412.5 Q442 425 460 425 L533 425 Q551 425 562 413 Q573 401 570 384 L397 41 Q390 25 376 12.5 Q362 0 344 0 L180 0 Z " />
<glyph glyph-name="w" unicode="w" horiz-adv-x="696" d="M435 425 Q453 425 464.5 414.5 Q476 404 479 388 L502 117 L585 388 Q593 404 607 414.5 Q621 425 639 425 L705 425 Q723 425 734 413 Q745 401 742 384 L610 41 Q604 25 589.5 12.5 Q575 0 557 0 L435 0 Q417 0 405.5 12.5 Q394 25 392 41 L375 195 L314 41 Q307 25 293 12.5 Q279 0 261 0 L139 0 Q121 0 109.5 12.5 Q98 25 96 41 L60 384 Q63 401 77 413 Q91 425 109 425 L175 425 Q193 425 204.5 414.5 Q216 404 219 388 L226 117 L325 388 Q333 404 347 414.5 Q361 425 379 425 L435 425 Z " />
<glyph glyph-name="x" unicode="x" horiz-adv-x="470" d="M180 41 Q167 27 149 13.5 Q131 0 113 0 L55 0 Q37 0 26 12 Q15 24 17 41 L160 213 L65 384 Q68 401 82 413 Q96 425 114 425 L176 425 Q194 425 207 411.5 Q220 398 228 384 L276 296 L348 384 Q360 398 377 411.5 Q394 425 412 425 L474 425 Q492 425 503 413 Q514 401 511 384 L368 213 L463 41 Q461 24 447 12 Q433 0 415 0 L357 0 Q339 0 324.5 13.5 Q310 27 300 41 L253 130 L180 41 Z " />
<glyph glyph-name="y" unicode="y" horiz-adv-x="513" d="M10 -183 Q-1 -181 -7.5 -172.5 Q-14 -164 -12 -151 L-6 -107 Q-4 -94 7 -85.5 Q18 -77 29 -77 Q45 -81 61 -81 Q102 -81 122.5 -65 Q143 -49 149 -7 Q150 2 149 12.5 Q148 23 147 29 L60 384 Q63 401 77 413 Q91 425 109 425 L182 425 Q200 425 212 412.5 Q224 400 226 384 L270 96 L393 384 Q400 400 415.5 412.5 Q431 425 449 425 L522 425 Q540 425 551 413 Q562 401 559 384 L371 17 Q331 -61 293 -103 Q255 -145 222 -165 Q189 -185 162.5 -188.5 Q136 -192 118 -192 Q77 -192 50.5 -189.5 Q24 -187 10 -183 Z " />
<glyph glyph-name="z" unicode="z" horiz-adv-x="455" d="M408 116 Q421 116 428.5 106.5 Q436 97 434 83 L427 33 Q425 19 415 9.5 Q405 0 392 0 L63 0 Q50 0 42 9.5 Q34 19 36 33 L43 83 Q45 97 51.5 109.5 Q58 122 77 137 L286 309 L106 309 Q93 309 85.5 318.5 Q78 328 80 342 L87 392 Q89 406 99 415.5 Q109 425 122 425 L451 425 Q464 425 472 415.5 Q480 406 478 392 L470 341 Q468 327 462 314.5 Q456 302 437 287 L232 116 L408 116 Z " />
<glyph glyph-name="braceleft" unicode="&#x7b;" horiz-adv-x="455" d="M115 232 Q102 236 94.5 244 Q87 252 89 266 L97 325 Q99 339 109.5 348.5 Q120 358 133 362 Q155 370 171 385 Q187 400 192 428 L216 600 Q221 638 237.5 671 Q254 704 285 728.5 Q316 753 364 767.5 Q412 782 481 782 Q494 782 502 772.5 Q510 763 508 749 L500 691 Q498 677 487.5 667.5 Q477 658 464 658 Q416 658 393.5 635 Q371 612 363 548 L344 416 Q342 404 334.5 388.5 Q327 373 312 356.5 Q297 340 273 324.5 Q249 309 215 297 Q246 285 265.5 269.5 Q285 254 295.5 238 Q306 222 309.5 206.5 Q313 191 311 179 L294 61 Q285 -3 301 -25 Q317 -47 365 -47 Q378 -47 385.5 -56.5 Q393 -66 391 -80 L383 -138 Q381 -152 370.5 -161.5 Q360 -171 347 -171 Q278 -171 234 -156.5 Q190 -142 166 -117.5 Q142 -93 135 -60 Q128 -27 133 11 L155 165 Q159 193 147 208.5 Q135 224 115 232 Z " />
<glyph glyph-name="bar" unicode="&#x7c;" horiz-adv-x="258" d="M187 -130 Q185 -147 170.5 -159 Q156 -171 138 -171 L70 -171 Q52 -171 41.5 -159 Q31 -147 33 -130 L156 741 Q158 758 172 770 Q186 782 204 782 L272 782 Q290 782 301 770 Q312 758 310 741 L187 -130 Z " />
<glyph glyph-name="braceright" unicode="&#x7d;" horiz-adv-x="455" d="M404 232 Q383 224 366.5 208.5 Q350 193 346 165 L324 11 Q319 -27 302.5 -60 Q286 -93 254.5 -117.5 Q223 -142 175 -156.5 Q127 -171 58 -171 Q45 -171 37.5 -161.5 Q30 -152 32 -138 L40 -80 Q42 -66 52.5 -56.5 Q63 -47 76 -47 Q100 -47 117 -42 Q134 -37 146 -25 Q158 -13 165.5 8 Q173 29 177 61 L194 179 Q196 191 203.5 206.5 Q211 222 226 238 Q241 254 264.5 269.5 Q288 285 322 297 Q292 309 272.5 324.5 Q253 340 242.5 356.5 Q232 373 228.5 388.5 Q225 404 227 416 L246 548 Q254 612 238.5 635 Q223 658 175 658 Q162 658 154.5 667.5 Q147 677 149 691 L157 749 Q159 763 169 772.5 Q179 782 192 782 Q261 782 305 767.5 Q349 753 373.5 728.5 Q398 704 405 671 Q412 638 407 600 L383 428 Q378 400 390.5 385 Q403 370 422 362 Q435 358 442.5 348.5 Q450 339 448 325 L440 266 Q438 252 428 244 Q418 236 404 232 Z " />
<glyph glyph-name="asciitilde" unicode="&#x7e;" horiz-adv-x="426" d="M300 119 Q283 119 267 124 Q251 129 237 136 Q218 143 200.5 149 Q183 155 163 155 L117 148 Q107 148 100 154.5 Q93 161 91 172 L83 219 Q83 226 84 229 Q87 254 110 260 Q130 267 149.5 270 Q169 273 180 273 Q197 273 213 268 Q229 263 244 257 Q261 249 278.5 243 Q296 237 317 237 L363 244 Q373 244 380.5 237.5 Q388 231 389 220 L397 173 Q397 166 396 163 Q393 138 370 132 Q350 125 330.5 122 Q311 119 300 119 Z " />
<glyph glyph-name="uni00A0" unicode="&#xa0;" horiz-adv-x="189" d="" />
<glyph glyph-name="exclamdown" unicode="&#xa1;" horiz-adv-x="262" d="M215 41 Q213 24 199 12 Q185 0 167 0 L95 0 Q77 0 66 12 Q55 24 57 41 L110 359 Q112 376 126.5 388 Q141 400 159 400 L214 400 Q232 400 242.5 388 Q253 376 251 359 L215 41 Z M278 506 Q276 489 261.5 477 Q247 465 229 465 L161 465 Q143 465 132.5 477 Q122 489 124 506 L130 550 Q132 567 146.5 579 Q161 591 179 591 L247 591 Q265 591 275.5 579 Q286 567 284 550 L278 506 Z " />
<glyph glyph-name="cent" unicode="&#xa2;" horiz-adv-x="683" d="M506 590 Q587 576 632.5 534 Q678 492 692 435 Q689 417 675 403 Q661 389 641 389 L575 389 Q565 389 556 392.5 Q547 396 540 412 Q535 444 505 461 Q475 478 427 478 Q393 478 362.5 464 Q332 450 308 424.5 Q284 399 268 364 Q252 329 246 287 Q235 209 268.5 160.5 Q302 112 371 112 Q421 112 457 128 Q493 144 507 178 Q518 194 528 197.5 Q538 201 548 201 L615 201 Q635 201 645 187 Q655 173 652 155 Q623 96 566 54 Q509 12 423 -1 L410 -99 Q408 -114 394 -125.5 Q380 -137 363 -137 L305 -137 Q288 -137 278 -125.5 Q268 -114 270 -99 L284 0 Q221 12 181.5 43 Q142 74 120 114.5 Q98 155 92 200.5 Q86 246 92 287 Q98 331 117 378.5 Q136 426 169.5 468.5 Q203 511 251.5 543.5 Q300 576 366 589 L381 694 Q383 710 397 722 Q411 734 428 734 L486 734 Q503 734 513 722 Q523 710 521 694 L506 590 Z " />
<glyph glyph-name="sterling" unicode="&#xa3;" horiz-adv-x="656" d="M670 472 Q667 454 653 440 Q639 426 619 426 L556 426 Q546 426 537.5 429.5 Q529 433 522 449 Q516 475 498 482.5 Q480 490 452 490 Q402 490 375.5 464 Q349 438 340 375 L332 317 L447 317 Q459 317 466.5 308.5 Q474 300 472 286 L465 237 Q463 223 453 214.5 Q443 206 431 206 L316 206 L304 118 L560 118 Q573 118 580.5 108.5 Q588 99 586 85 L579 33 Q577 19 567 9.5 Q557 0 544 0 L83 0 Q70 0 62 9.5 Q54 19 56 33 L63 85 Q65 99 75.5 108.5 Q86 118 99 118 L150 118 L162 206 L109 206 Q97 206 90 214.5 Q83 223 85 237 L92 286 Q94 300 103.5 308.5 Q113 317 125 317 L178 317 L186 375 Q192 414 210 453.5 Q228 493 261.5 524.5 Q295 556 345.5 576 Q396 596 467 596 Q520 596 556 586 Q592 576 615.5 559.5 Q639 543 652 520.5 Q665 498 670 472 Z " />
<glyph glyph-name="currency" unicode="&#xa4;" horiz-adv-x="542" d="M298 193 Q315 193 329 205 Q343 217 345 234 Q348 251 337 263 Q326 275 309 275 Q292 275 278 263 Q264 251 261 234 Q259 217 270 205 Q281 193 298 193 Z M280 68 Q260 68 244 71.5 Q228 75 212 83 L155 33 Q144 23 127 23 Q110 23 100 34 L71 69 Q62 80 65 94 Q67 110 80 122 L140 173 Q135 187 134.5 203.5 Q134 220 136 234 Q138 248 143.5 264.5 Q149 281 157 295 L111 346 Q102 356 104 374 Q106 388 118 399 L156 434 Q170 445 186 445 Q203 445 212 435 L255 385 Q272 393 289.5 396.5 Q307 400 327 400 Q347 400 363 396.5 Q379 393 395 385 L452 435 Q463 445 480 445 Q498 445 506 434 L536 399 Q544 390 542 374 Q540 358 527 346 L467 295 Q475 265 470 234 Q468 220 463 203.5 Q458 187 450 173 L496 122 Q505 112 503 94 Q499 78 489 69 L450 34 Q438 23 421 23 Q404 23 395 33 L352 83 Q335 75 317.5 71.5 Q300 68 280 68 Z " />
<glyph glyph-name="yen" unicode="&#xa5;" horiz-adv-x="662" d="M418 73 L413 41 Q411 24 397 12 Q383 0 365 0 L297 0 Q279 0 268 12 Q257 24 259 41 L264 73 L150 73 Q139 73 133 80.5 Q127 88 129 100 L135 143 Q137 154 144.5 162 Q152 170 163 170 L277 170 L279 182 L258 232 L172 232 Q161 232 155 239.5 Q149 247 151 259 L157 302 Q159 313 167 321 Q175 329 186 329 L218 329 L128 544 Q130 561 144.5 573 Q159 585 177 585 L248 585 Q266 585 280 572.5 Q294 560 299 544 L379 348 L515 544 Q524 560 542 572.5 Q560 585 578 585 L649 585 Q667 585 677.5 573 Q688 561 686 544 L536 329 L569 329 Q580 329 586 321 Q592 313 590 302 L584 259 Q582 247 574 239.5 Q566 232 555 232 L468 232 L433 182 L431 170 L546 170 Q557 170 563.5 162 Q570 154 568 143 L562 100 Q560 88 552 80.5 Q544 73 533 73 L418 73 Z " />
<glyph glyph-name="brokenbar" unicode="&#xa6;" horiz-adv-x="258" d="M269 450 Q267 433 252.5 421 Q238 409 220 409 L152 409 Q134 409 123.5 421 Q113 433 115 450 L156 742 Q158 759 172.5 771 Q187 783 205 783 L273 783 Q291 783 301.5 771 Q312 759 310 742 L269 450 Z M187 -130 Q185 -147 170.5 -159 Q156 -171 138 -171 L70 -171 Q52 -171 41.5 -159 Q31 -147 33 -130 L74 162 Q76 179 90.5 191 Q105 203 123 203 L191 203 Q209 203 219.5 191 Q230 179 228 162 L187 -130 Z " />
<glyph glyph-name="section" unicode="&#xa7;" horiz-adv-x="532" d="M469 206 Q483 192 489 174.5 Q495 157 491 133 Q487 102 471 75 Q455 48 427 28 Q399 8 358 -3 Q317 -14 262 -14 Q194 -14 142 8 Q90 30 72 84 Q75 102 89.5 116 Q104 130 124 130 L185 130 Q195 130 203.5 126.5 Q212 123 222 108 Q235 92 271 92 Q292 92 304.5 94.5 Q317 97 323.5 101 Q330 105 332.5 110 Q335 115 335 119 Q337 128 316 133.5 Q295 139 260 146 Q225 152 192 160 Q159 168 135 182 Q111 196 98 218.5 Q85 241 90 275 Q94 303 105.5 327.5 Q117 352 139 372 Q115 399 121 444 Q126 476 140.5 503.5 Q155 531 182 551.5 Q209 572 248.5 584 Q288 596 343 596 Q412 596 458.5 573.5 Q505 551 522 497 Q520 479 505.5 465.5 Q491 452 471 452 L408 452 Q398 452 388.5 455.5 Q379 459 372 475 Q365 490 328 490 Q310 490 300.5 487 Q291 484 286 479.5 Q281 475 279.5 470 Q278 465 277 462 Q276 452 287.5 445 Q299 438 319 433 Q339 428 363.5 424 Q388 420 412 415 Q438 409 460 400.5 Q482 392 497 378.5 Q512 365 519 346.5 Q526 328 522 302 Q514 244 469 206 Z M302 261 Q323 261 335.5 263.5 Q348 266 354.5 270 Q361 274 363 279 Q365 284 366 288 Q368 297 347 302.5 Q326 308 291 315 L271 318 Q254 314 251 306 Q248 298 247 293 Q245 280 261 273 Q277 266 302 261 Z " />
<glyph glyph-name="dieresis" unicode="&#xa8;" horiz-adv-x="466" d="M267 481 Q265 464 250.5 452 Q236 440 218 440 L156 440 Q138 440 127.5 452 Q117 464 119 481 L128 544 Q130 561 144.5 573 Q159 585 177 585 L239 585 Q257 585 267.5 573 Q278 561 276 544 L267 481 Z M481 481 Q479 464 464.5 452 Q450 440 432 440 L370 440 Q352 440 341.5 452 Q331 464 333 481 L342 544 Q344 561 358.5 573 Q373 585 391 585 L453 585 Q471 585 481.5 573 Q492 561 490 544 L481 481 Z " />
<glyph glyph-name="copyright" unicode="&#xa9;" horiz-adv-x="707" d="M436 599 Q499 599 551 575.5 Q603 552 638 510.5 Q673 469 689 414 Q705 359 696 296 Q687 234 656 179.5 Q625 125 578 84 Q531 43 472.5 19 Q414 -5 351 -5 Q290 -5 238.5 19 Q187 43 152 84 Q117 125 100.5 179.5 Q84 234 93 296 Q102 359 133.5 414 Q165 469 212 510.5 Q259 552 317 575.5 Q375 599 436 599 Z M364 87 Q407 87 448 104 Q489 121 522 149.5 Q555 178 577 216 Q599 254 605 295 Q611 338 599.5 376.5 Q588 415 563 444 Q538 473 502 490 Q466 507 423 507 Q382 507 342 490 Q302 473 269 444 Q236 415 213.5 376.5 Q191 338 185 295 Q179 254 191 216 Q203 178 227.5 149.5 Q252 121 287.5 104 Q323 87 364 87 Z M532 249 Q525 231 511.5 213.5 Q498 196 478.5 182.5 Q459 169 434 160.5 Q409 152 377 152 Q334 152 305.5 165 Q277 178 261.5 198 Q246 218 241.5 243.5 Q237 269 241 294 Q244 318 256 343.5 Q268 369 289 389 Q310 409 342 422 Q374 435 417 435 Q449 435 472 426.5 Q495 418 510.5 404.5 Q526 391 534.5 373 Q543 355 545 337 Q543 326 533.5 318 Q524 310 513 310 L457 310 Q447 310 440.5 316.5 Q434 323 433 332 Q430 357 406 357 Q385 357 372.5 340 Q360 323 356 294 Q351 265 359 247.5 Q367 230 388 230 Q399 230 408 236.5 Q417 243 422 254 Q426 263 434 269.5 Q442 276 452 276 L508 276 Q519 276 526.5 268 Q534 260 532 249 Z " />
<glyph glyph-name="ordfeminine" unicode="&#xaa;" horiz-adv-x="431" d="M229 381 Q227 369 235.5 365.5 Q244 362 255 362 Q270 362 289 370 L293 401 Q286 401 275.5 400 Q265 399 255 397 Q245 395 237.5 391 Q230 387 229 381 Z M136 500 Q158 548 199 566.5 Q240 585 291 585 Q387 585 418.5 546.5 Q450 508 439 427 L422 309 Q420 295 408 284.5 Q396 274 381 274 L316 274 Q301 274 292 283.5 Q283 293 285 307 Q255 279 232 272 Q209 265 192 265 Q176 265 158.5 271 Q141 277 127.5 289 Q114 301 106.5 320.5 Q99 340 103 367 Q108 400 128.5 418.5 Q149 437 178.5 446 Q208 455 242 457 Q276 459 306 459 Q308 480 301 491 Q294 502 274 502 Q263 502 254.5 500 Q246 498 238 489 Q234 482 225.5 478 Q217 474 208 474 L161 474 Q148 474 141 481.5 Q134 489 136 500 Z " />
<glyph glyph-name="guillemotleft" unicode="&#xab;" horiz-adv-x="647" d="M252 239 Q238 224 237 207 Q234 191 242 178 L324 35 Q322 18 308 6 Q294 -6 276 -6 L226 -6 Q208 -6 193 7 Q178 20 168 35 L86 178 Q78 191 81 207 Q82 224 96 239 L217 379 Q231 394 249.5 407 Q268 420 286 420 L336 420 Q354 420 364.5 408 Q375 396 373 379 L252 239 Z M527 239 Q513 224 512 207 Q509 191 517 178 L599 35 Q597 18 583 6 Q569 -6 551 -6 L501 -6 Q483 -6 468 7 Q453 20 443 35 L361 178 Q353 191 356 207 Q357 224 371 239 L492 379 Q506 394 524.5 407 Q543 420 561 420 L611 420 Q629 420 639.5 408 Q650 396 648 379 L527 239 Z " />
<glyph glyph-name="logicalnot" unicode="&#xac;" horiz-adv-x="545" d="M110 198 Q97 198 89.5 207.5 Q82 217 84 231 L91 283 Q93 297 103.5 306.5 Q114 316 127 316 L494 316 Q512 316 522.5 304 Q533 292 531 275 L506 98 Q504 81 490 69 Q476 57 458 57 L390 57 Q372 57 361 69 Q350 81 352 98 L366 198 L110 198 Z " />
<glyph glyph-name="uni00AD" unicode="&#xad;" horiz-adv-x="189" d="" />
<glyph glyph-name="registered" unicode="&#xae;" horiz-adv-x="707" d="M436 599 Q499 599 551 575.5 Q603 552 638 510.5 Q673 469 689 414 Q705 359 696 296 Q687 234 656 179.5 Q625 125 578 84 Q531 43 472.5 19 Q414 -5 351 -5 Q290 -5 238.5 19 Q187 43 152 84 Q117 125 100.5 179.5 Q84 234 93 296 Q102 359 133.5 414 Q165 469 212 510.5 Q259 552 317 575.5 Q375 599 436 599 Z M364 87 Q407 87 448 104 Q489 121 522 149.5 Q555 178 577 216 Q599 254 605 295 Q611 338 599.5 376.5 Q588 415 563 444 Q538 473 502 490 Q466 507 423 507 Q382 507 342 490 Q302 473 269 444 Q236 415 213.5 376.5 Q191 338 185 295 Q179 254 191 216 Q203 178 227.5 149.5 Q252 121 287.5 104 Q323 87 364 87 Z M371 289 L409 289 Q423 289 433.5 297 Q444 305 446 322 Q448 337 440 345 Q432 353 418 353 L380 353 L371 289 Z M391 212 L360 212 L357 186 Q355 175 346 166.5 Q337 158 326 158 L280 158 Q269 158 262 166.5 Q255 175 257 186 L287 404 Q289 415 298 423.5 Q307 432 318 432 L435 432 Q471 432 494 421.5 Q517 411 529.5 394.5 Q542 378 545.5 358.5 Q549 339 547 322 Q544 299 529 273.5 Q514 248 484 231 L500 186 Q498 175 489 166.5 Q480 158 469 158 L431 158 Q420 158 412.5 166.5 Q405 175 400 186 L391 212 Z " />
<glyph glyph-name="macron" unicode="&#xaf;" horiz-adv-x="472" d="M148 467 Q135 467 127.5 476.5 Q120 486 122 500 L129 552 Q131 566 141.5 575.5 Q152 585 165 585 L471 585 Q484 585 491.5 575.5 Q499 566 497 552 L490 500 Q488 486 477.5 476.5 Q467 467 454 467 L148 467 Z " />
<glyph glyph-name="degree" unicode="&#xb0;" horiz-adv-x="386" d="M249 402 Q267 402 281 414 Q295 426 297 444 Q299 462 289 474 Q279 486 261 486 Q243 486 229 474 Q215 462 213 444 Q211 426 221 414 Q231 402 249 402 Z M235 303 Q206 303 182 314 Q158 325 141.5 344 Q125 363 117.5 389 Q110 415 114 444 Q118 473 133 499 Q148 525 169.5 544 Q191 563 218.5 574 Q246 585 275 585 Q304 585 328 574 Q352 563 368.5 544 Q385 525 392.5 499 Q400 473 396 444 Q392 415 377 389 Q362 363 340.5 344 Q319 325 291.5 314 Q264 303 235 303 Z " />
<glyph glyph-name="plusminus" unicode="&#xb1;" horiz-adv-x="484" d="M369 417 L459 417 Q472 417 479.5 407.5 Q487 398 485 384 L478 332 Q476 318 466 308.5 Q456 299 443 299 L353 299 L340 208 Q338 194 325.5 183 Q313 172 297 172 L236 172 Q220 172 210.5 183 Q201 194 203 208 L216 299 L125 299 Q112 299 104 308.5 Q96 318 98 332 L105 384 Q107 398 117.5 407.5 Q128 417 141 417 L232 417 L246 514 Q248 529 260.5 539.5 Q273 550 289 550 L350 550 Q366 550 375.5 539.5 Q385 529 383 514 L369 417 Z M83 0 Q70 0 62 9.5 Q54 19 56 33 L63 85 Q65 99 75.5 108.5 Q86 118 99 118 L417 118 Q430 118 437.5 108.5 Q445 99 443 85 L436 33 Q434 19 424 9.5 Q414 0 401 0 L83 0 Z " />
<glyph glyph-name="twosuperior" unicode="&#xb2;" horiz-adv-x="354" d="M221 487 Q217 479 208.5 474 Q200 469 191 469 L146 469 Q134 469 126.5 477.5 Q119 486 121 497 Q135 538 170 561.5 Q205 585 254 585 Q291 585 314.5 576 Q338 567 351 552 Q364 537 368 518 Q372 499 369 479 Q366 461 358.5 447.5 Q351 434 337 422 Q323 410 302.5 398 Q282 386 253 371 L328 371 Q337 371 342.5 364.5 Q348 358 346 348 L339 296 Q337 286 330 279.5 Q323 273 314 273 L115 273 Q106 273 100 279.5 Q94 286 96 296 Q98 308 99 317 Q100 326 101 332 Q102 339 103 345 Q107 371 130 389 Q153 407 180 421 Q207 435 229.5 448 Q252 461 255 477 Q257 491 253.5 494.5 Q250 498 241 498 Q226 498 221 487 Z " />
<glyph glyph-name="threesuperior" unicode="&#xb3;" horiz-adv-x="377" d="M249 468 Q275 468 279 491 Q280 498 273 504 Q266 510 252 510 Q227 510 220 499 Q211 487 197 487 L144 487 Q134 487 127.5 494 Q121 501 123 510 Q137 555 175 577 Q213 599 267 599 Q347 599 374 573 Q401 547 395 501 Q392 481 375.5 459.5 Q359 438 323 435 Q354 429 366.5 409 Q379 389 376 369 Q370 323 335.5 297 Q301 271 221 271 Q167 271 135.5 292.5 Q104 314 102 358 Q104 367 111.5 374 Q119 381 129 381 L182 381 Q196 381 201 369 Q204 364 210.5 361.5 Q217 359 231 359 Q245 359 253 365 Q261 371 263 379 Q266 401 240 401 L228 401 Q219 401 213 407.5 Q207 414 209 424 L212 445 Q214 455 221 461.5 Q228 468 237 468 L249 468 Z " />
<glyph glyph-name="acute" unicode="&#xb4;" horiz-adv-x="313" d="M171 546 Q180 561 195.5 573 Q211 585 228 585 L302 585 Q319 585 329 573.5 Q339 562 337 546 L253 449 Q241 435 224 422.5 Q207 410 190 410 L150 410 Q133 410 123 421.5 Q113 433 115 449 L171 546 Z " />
<glyph glyph-name="mu" unicode="&#xb5;" horiz-adv-x="546" d="M90 384 Q93 401 107 413 Q121 425 139 425 L207 425 Q225 425 236 413 Q247 401 244 384 L218 193 Q214 166 218 148 Q222 130 231 119.5 Q240 109 253 104.5 Q266 100 281 100 Q313 100 339.5 125.5 Q366 151 371 185 L398 384 Q401 401 415 413 Q429 425 447 425 L515 425 Q533 425 544 413 Q555 401 552 384 L504 41 Q502 24 488 12 Q474 0 456 0 L388 0 Q370 0 359 12 Q348 24 350 41 Q328 23 307.5 13.5 Q287 4 269.5 -0.5 Q252 -5 237 -5.5 Q222 -6 211 -6 Q206 -6 200.5 -5.5 Q195 -5 190 -5 L171 -136 Q169 -153 155 -165 Q141 -177 123 -177 L55 -177 Q37 -177 26 -165 Q15 -153 17 -136 L90 384 Z " />
<glyph glyph-name="paragraph" unicode="&#xb6;" horiz-adv-x="745" d="M732 585 Q750 585 760.5 573 Q771 561 769 544 L698 41 Q696 24 682 12 Q668 0 650 0 L582 0 Q564 0 553 12 Q542 24 544 41 L604 467 L477 467 L417 41 Q415 24 401 12 Q387 0 369 0 L301 0 Q283 0 272 12 Q261 24 263 41 L291 240 Q228 240 190 257 Q152 274 133 299.5 Q114 325 110 355.5 Q106 386 110 413 Q114 441 125.5 471 Q137 501 161 526.5 Q185 552 223 568.5 Q261 585 318 585 L732 585 Z " />
<glyph glyph-name="periodcentered" unicode="&#xb7;" horiz-adv-x="252" d="M220 143 Q218 126 203.5 114 Q189 102 171 102 L109 102 Q91 102 80.5 114 Q70 126 72 143 L80 206 Q83 223 97 235 Q111 247 129 247 L191 247 Q209 247 220 235 Q231 223 228 206 L220 143 Z " />
<glyph glyph-name="cedilla" unicode="&#xb8;" horiz-adv-x="322" d="M84 -6 L179 -6 L172 -51 Q197 -55 215 -67 Q232 -77 243 -95.5 Q254 -114 249 -146 Q246 -171 232 -190.5 Q218 -210 197 -224 Q176 -238 150.5 -245.5 Q125 -253 99 -253 Q85 -253 68.5 -251 Q52 -249 41 -247 Q31 -247 24.5 -240 Q18 -233 20 -222 L25 -191 Q27 -180 34.5 -173 Q42 -166 52 -166 L65 -166 Q75 -166 87 -164.5 Q99 -163 109.5 -159 Q120 -155 128 -148 Q136 -141 137 -130 Q137 -114 124 -107 Q111 -100 93 -97 Q82 -97 76.5 -89.5 Q71 -82 72 -72 L84 -6 Z " />
<glyph glyph-name="onesuperior" unicode="&#xb9;" horiz-adv-x="316" d="M313 585 Q327 585 335 575.5 Q343 566 341 553 L307 311 Q305 298 294.5 288.5 Q284 279 270 279 L220 279 Q206 279 197.5 288.5 Q189 298 191 311 L215 480 Q197 468 178.5 461 Q160 454 142 450 Q131 450 124 457.5 Q117 465 119 478 L125 522 Q127 535 136 542.5 Q145 550 157 552 Q174 556 190.5 563.5 Q207 571 224 581 Q232 585 237 585 L313 585 Z " />
<glyph glyph-name="ordmasculine" unicode="&#xba;" horiz-adv-x="386" d="M249 402 Q267 402 281 414 Q295 426 297 444 Q299 462 289 474 Q279 486 261 486 Q243 486 229 474 Q215 462 213 444 Q211 426 221 414 Q231 402 249 402 Z M235 303 Q206 303 182 314 Q158 325 141.5 344 Q125 363 117.5 389 Q110 415 114 444 Q118 473 133 499 Q148 525 169.5 544 Q191 563 218.5 574 Q246 585 275 585 Q304 585 328 574 Q352 563 368.5 544 Q385 525 392.5 499 Q400 473 396 444 Q392 415 377 389 Q362 363 340.5 344 Q319 325 291.5 314 Q264 303 235 303 Z " />
<glyph glyph-name="guillemotright" unicode="&#xbb;" horiz-adv-x="647" d="M380 379 Q382 396 396.5 408 Q411 420 429 420 L479 420 Q497 420 512 407 Q527 394 536 379 L617 239 Q626 226 624 207 Q621 189 611 178 L487 35 Q474 20 455.5 7 Q437 -6 419 -6 L369 -6 Q351 -6 340 6 Q329 18 331 35 L455 178 Q465 189 468 207 Q470 226 461 239 L380 379 Z M105 379 Q107 396 121.5 408 Q136 420 154 420 L204 420 Q222 420 237 407 Q252 394 261 379 L342 239 Q351 226 349 207 Q346 189 336 178 L212 35 Q199 20 180.5 7 Q162 -6 144 -6 L94 -6 Q76 -6 65 6 Q54 18 56 35 L180 178 Q190 189 193 207 Q195 226 186 239 L105 379 Z " />
<glyph glyph-name="onequarter" unicode="&#xbc;" horiz-adv-x="823" d="M643 139 L655 222 L585 139 L643 139 Z M359 31 Q353 19 342 9.5 Q331 0 317 0 L260 0 Q246 0 238 9 Q230 18 232 31 L496 554 Q503 566 514 575.5 Q525 585 539 585 L596 585 Q610 585 617.5 576 Q625 567 623 554 L359 31 Z M313 585 Q327 585 335 575.5 Q343 566 341 553 L307 311 Q305 298 294.5 288.5 Q284 279 270 279 L220 279 Q206 279 197.5 288.5 Q189 298 191 311 L215 480 Q197 468 178.5 461 Q160 454 142 450 Q131 450 124 457.5 Q117 465 119 478 L125 522 Q127 535 136 542.5 Q145 550 157 552 Q174 556 190.5 563.5 Q207 571 224 581 Q232 585 237 585 L313 585 Z M768 139 Q777 139 783 132.5 Q789 126 787 116 L779 63 Q778 53 770.5 46.5 Q763 40 754 40 L746 40 L745 32 Q743 19 732.5 9.5 Q722 0 708 0 L658 0 Q644 0 635.5 9.5 Q627 19 629 32 L630 40 L499 40 Q486 40 478 49.5 Q470 59 472 73 L480 132 Q481 142 490 152 L611 294 Q622 307 640 307 L751 307 Q765 307 773 297.5 Q781 288 779 275 L760 139 L768 139 Z " />
<glyph glyph-name="onehalf" unicode="&#xbd;" horiz-adv-x="796" d="M359 31 Q353 19 342 9.5 Q331 0 317 0 L260 0 Q246 0 238 9 Q230 18 232 31 L496 554 Q503 566 514 575.5 Q525 585 539 585 L596 585 Q610 585 617.5 576 Q625 567 623 554 L359 31 Z M313 585 Q327 585 335 575.5 Q343 566 341 553 L307 311 Q305 298 294.5 288.5 Q284 279 270 279 L220 279 Q206 279 197.5 288.5 Q189 298 191 311 L215 480 Q197 468 178.5 461 Q160 454 142 450 Q131 450 124 457.5 Q117 465 119 478 L125 522 Q127 535 136 542.5 Q145 550 157 552 Q174 556 190.5 563.5 Q207 571 224 581 Q232 585 237 585 L313 585 Z M625 214 Q620 206 612 201 Q604 196 595 196 L550 196 Q538 196 530.5 204.5 Q523 213 525 224 Q539 265 573.5 288.5 Q608 312 657 312 Q694 312 717.5 303 Q741 294 754 279 Q767 264 771 245 Q775 226 772 206 Q770 188 762.5 174.5 Q755 161 741 149 Q727 137 706 125 Q685 113 656 98 L731 98 Q740 98 746 91.5 Q752 85 750 75 L743 23 Q741 13 734 6.5 Q727 0 718 0 L519 0 Q510 0 504 6.5 Q498 13 500 23 Q502 35 503 44 Q504 53 505 59 Q506 66 507 72 Q510 98 533.5 116 Q557 134 584 148 Q611 162 633.5 175 Q656 188 658 204 Q660 218 657 221.5 Q654 225 645 225 Q630 225 625 214 Z " />
<glyph glyph-name="threequarters" unicode="&#xbe;" horiz-adv-x="854" d="M674 139 L686 222 L616 139 L674 139 Z M390 31 Q384 19 373 9.5 Q362 0 348 0 L291 0 Q277 0 269 9 Q261 18 263 31 L527 554 Q534 566 545 575.5 Q556 585 570 585 L627 585 Q641 585 648.5 576 Q656 567 654 554 L390 31 Z M799 139 Q808 139 814 132.5 Q820 126 818 116 L810 63 Q809 53 801.5 46.5 Q794 40 785 40 L777 40 L776 32 Q774 19 763.5 9.5 Q753 0 739 0 L689 0 Q675 0 666.5 9.5 Q658 19 660 32 L661 40 L530 40 Q517 40 509 49.5 Q501 59 503 73 L511 132 Q512 142 521 152 L642 294 Q653 307 671 307 L782 307 Q796 307 804 297.5 Q812 288 810 275 L791 139 L799 139 Z M249 468 Q275 468 279 491 Q280 498 273 504 Q266 510 252 510 Q227 510 220 499 Q211 487 197 487 L144 487 Q134 487 127.5 494 Q121 501 123 510 Q137 555 175 577 Q213 599 267 599 Q347 599 374 573 Q401 547 395 501 Q392 481 375.5 459.5 Q359 438 323 435 Q354 429 366.5 409 Q379 389 376 369 Q370 323 335.5 297 Q301 271 221 271 Q167 271 135.5 292.5 Q104 314 102 358 Q104 367 111.5 374 Q119 381 129 381 L182 381 Q196 381 201 369 Q204 364 210.5 361.5 Q217 359 231 359 Q245 359 253 365 Q261 371 263 379 Q266 401 240 401 L228 401 Q219 401 213 407.5 Q207 414 209 424 L212 445 Q214 455 221 461.5 Q228 468 237 468 L249 468 Z " />
<glyph glyph-name="questiondown" unicode="&#xbf;" horiz-adv-x="576" d="M396 167 Q402 179 414 186.5 Q426 194 440 194 L508 194 Q526 194 536.5 182 Q547 170 545 153 Q516 84 453 42 Q390 0 299 0 Q225 0 180 18.5 Q135 37 111 66.5 Q87 96 81 131.5 Q75 167 80 201 Q85 234 99.5 258 Q114 282 140 303 Q166 324 204 344.5 Q242 365 293 392 L293 397 Q295 414 309.5 426 Q324 438 342 438 L410 438 Q428 438 438.5 426 Q449 414 447 397 L442 361 Q439 333 411 323 Q395 317 366.5 304.5 Q338 292 309.5 275.5 Q281 259 258.5 239 Q236 219 233 198 Q228 162 250.5 140 Q273 118 313 118 Q348 118 367 132.5 Q386 147 396 167 Z M464 517 Q462 500 447.5 488 Q433 476 415 476 L347 476 Q329 476 318.5 488 Q308 500 310 517 L316 555 Q318 572 332 584 Q346 596 364 596 L432 596 Q450 596 461 584 Q472 572 470 555 L464 517 Z " />
<glyph glyph-name="Agrave" unicode="&#xc0;" horiz-adv-x="628" d="M478 585 Q496 585 506.5 572.5 Q517 560 520 544 L626 41 Q624 24 610 12 Q596 0 578 0 L505 0 Q487 0 475 12.5 Q463 25 460 41 L445 119 L215 119 L178 41 Q170 25 155.5 12.5 Q141 0 123 0 L50 0 Q32 0 21 12 Q10 24 12 41 L260 544 Q268 560 282 572.5 Q296 585 314 585 L478 585 Z M272 240 L422 240 L379 466 L272 240 Z M458 691 Q456 675 442 663.5 Q428 652 411 652 L371 652 Q354 652 341 664.5 Q328 677 320 691 L262 788 Q264 804 278 815.5 Q292 827 309 827 L383 827 Q400 827 411.5 815 Q423 803 428 788 L458 691 Z " />
<glyph glyph-name="Aacute" unicode="&#xc1;" horiz-adv-x="628" d="M478 585 Q496 585 506.5 572.5 Q517 560 520 544 L626 41 Q624 24 610 12 Q596 0 578 0 L505 0 Q487 0 475 12.5 Q463 25 460 41 L445 119 L215 119 L178 41 Q170 25 155.5 12.5 Q141 0 123 0 L50 0 Q32 0 21 12 Q10 24 12 41 L260 544 Q268 560 282 572.5 Q296 585 314 585 L478 585 Z M272 240 L422 240 L379 466 L272 240 Z M417 788 Q426 803 441.5 815 Q457 827 474 827 L548 827 Q565 827 575 815.5 Q585 804 583 788 L499 691 Q487 677 470 664.5 Q453 652 436 652 L396 652 Q379 652 369 663.5 Q359 675 361 691 L417 788 Z " />
<glyph glyph-name="Acircumflex" unicode="&#xc2;" horiz-adv-x="628" d="M478 585 Q496 585 506.5 572.5 Q517 560 520 544 L626 41 Q624 24 610 12 Q596 0 578 0 L505 0 Q487 0 475 12.5 Q463 25 460 41 L445 119 L215 119 L178 41 Q170 25 155.5 12.5 Q141 0 123 0 L50 0 Q32 0 21 12 Q10 24 12 41 L260 544 Q268 560 282 572.5 Q296 585 314 585 L478 585 Z M272 240 L422 240 L379 466 L272 240 Z M478 867 Q496 867 505 854.5 Q514 842 521 826 L580 690 Q578 675 565 663.5 Q552 652 535 652 L482 652 Q465 652 455 663.5 Q445 675 439 690 L418 747 L381 690 Q372 675 358.5 663.5 Q345 652 328 652 L275 652 Q258 652 248 663.5 Q238 675 240 690 L339 826 Q350 842 362 854.5 Q374 867 392 867 L478 867 Z " />
<glyph glyph-name="Atilde" unicode="&#xc3;" horiz-adv-x="628" d="M478 585 Q496 585 506.5 572.5 Q517 560 520 544 L626 41 Q624 24 610 12 Q596 0 578 0 L505 0 Q487 0 475 12.5 Q463 25 460 41 L445 119 L215 119 L178 41 Q170 25 155.5 12.5 Q141 0 123 0 L50 0 Q32 0 21 12 Q10 24 12 41 L260 544 Q268 560 282 572.5 Q296 585 314 585 L478 585 Z M272 240 L422 240 L379 466 L272 240 Z M475 652 Q458 652 442 657 Q426 662 412 669 Q393 676 375.5 682 Q358 688 338 688 L292 681 Q282 681 274.5 687.5 Q267 694 266 705 L258 752 Q258 759 259 762 Q262 787 285 793 Q305 800 324.5 803 Q344 806 355 806 Q372 806 388 801 Q404 796 419 790 Q436 782 453.5 776 Q471 770 492 770 L538 777 Q548 777 555 770.5 Q562 764 564 753 L572 706 Q572 699 571 696 Q568 671 545 665 Q525 658 505.5 655 Q486 652 475 652 Z " />
<glyph glyph-name="Adieresis" unicode="&#xc4;" horiz-adv-x="628" d="M478 585 Q496 585 506.5 572.5 Q517 560 520 544 L626 41 Q624 24 610 12 Q596 0 578 0 L505 0 Q487 0 475 12.5 Q463 25 460 41 L445 119 L215 119 L178 41 Q170 25 155.5 12.5 Q141 0 123 0 L50 0 Q32 0 21 12 Q10 24 12 41 L260 544 Q268 560 282 572.5 Q296 585 314 585 L478 585 Z M272 240 L422 240 L379 466 L272 240 Z M387 693 Q385 676 370.5 664 Q356 652 338 652 L276 652 Q258 652 247.5 664 Q237 676 239 693 L248 756 Q250 773 264.5 785 Q279 797 297 797 L359 797 Q377 797 387.5 785 Q398 773 396 756 L387 693 Z M586 693 Q584 676 569.5 664 Q555 652 537 652 L475 652 Q457 652 446.5 664 Q436 676 438 693 L447 756 Q449 773 463.5 785 Q478 797 496 797 L558 797 Q576 797 586.5 785 Q597 773 595 756 L586 693 Z " />
<glyph glyph-name="Aring" unicode="&#xc5;" horiz-adv-x="628" d="M420 751 Q438 751 452 763 Q466 775 468 793 Q470 811 460 823 Q450 835 432 835 Q414 835 400 823 Q386 811 384 793 Q382 775 392 763 Q402 751 420 751 Z M406 652 Q377 652 353 663 Q329 674 312.5 693 Q296 712 288.5 738 Q281 764 285 793 Q289 822 304 848 Q319 874 340.5 893 Q362 912 389.5 923 Q417 934 446 934 Q475 934 499 923 Q523 912 539.5 893 Q556 874 563.5 848 Q571 822 567 793 Q563 764 548 738 Q533 712 511.5 693 Q490 674 462.5 663 Q435 652 406 652 Z M478 585 Q496 585 506.5 572.5 Q517 560 520 544 L626 41 Q624 24 610 12 Q596 0 578 0 L505 0 Q487 0 475 12.5 Q463 25 460 41 L445 119 L215 119 L178 41 Q170 25 155.5 12.5 Q141 0 123 0 L50 0 Q32 0 21 12 Q10 24 12 41 L260 544 Q268 560 282 572.5 Q296 585 314 585 L478 585 Z M272 240 L422 240 L379 466 L272 240 Z " />
<glyph glyph-name="AE" unicode="&#xc6;" horiz-adv-x="964" d="M357 240 L524 240 L559 489 L357 240 Z M437 566 Q445 574 455 579.5 Q465 585 476 585 L983 585 Q996 585 1003.5 575.5 Q1011 566 1009 552 L1002 500 Q1000 486 989.5 476.5 Q979 467 966 467 L710 467 L694 350 L881 350 Q894 350 901.5 340.5 Q909 331 907 317 L899 263 Q897 249 887 239.5 Q877 230 864 230 L677 230 L661 118 L917 118 Q930 118 937.5 108.5 Q945 99 943 85 L936 33 Q934 19 924 9.5 Q914 0 901 0 L522 0 Q509 0 501 9.5 Q493 19 495 33 L507 119 L258 119 L193 41 Q182 27 163.5 13.5 Q145 0 127 0 L43 0 Q25 0 15 12 Q5 24 7 41 L437 566 Z " />
<glyph glyph-name="Ccedilla" unicode="&#xc7;" horiz-adv-x="633" d="M590 201 Q610 201 620 187 Q630 173 627 155 Q596 92 532 48 Q468 4 372 -4 L367 -40 Q391 -44 410 -56 Q426 -66 437 -84.5 Q448 -103 444 -135 Q440 -160 426 -179.5 Q412 -199 391 -213 Q370 -227 344.5 -234.5 Q319 -242 293 -242 Q279 -242 262.5 -240 Q246 -238 235 -236 Q225 -236 219 -229 Q213 -222 215 -211 L219 -180 Q221 -169 229 -162 Q237 -155 247 -155 L260 -155 Q270 -155 282 -153.5 Q294 -152 304.5 -148 Q315 -144 323 -137 Q331 -130 332 -119 Q332 -103 319 -96 Q306 -89 287 -86 Q276 -86 270.5 -78.5 Q265 -71 267 -61 L277 -3 Q209 6 165.5 37 Q122 68 98 109 Q74 150 67.5 197.5 Q61 245 67 287 Q74 336 97 390.5 Q120 445 162.5 490.5 Q205 536 267 566 Q329 596 414 596 Q470 596 513.5 583.5 Q557 571 588.5 549.5 Q620 528 639.5 498.5 Q659 469 667 435 Q664 417 650 403 Q636 389 616 389 L550 389 Q540 389 531 392.5 Q522 396 515 412 Q510 444 480 461 Q450 478 402 478 Q368 478 337.5 464 Q307 450 283 424.5 Q259 399 243 364 Q227 329 221 287 Q210 209 243.5 160.5 Q277 112 346 112 Q396 112 432 128 Q468 144 482 178 Q493 194 503 197.5 Q513 201 523 201 L590 201 Z " />
<glyph glyph-name="Egrave" unicode="&#xc8;" horiz-adv-x="520" d="M437 350 Q450 350 457.5 340.5 Q465 331 463 317 L455 263 Q453 249 443 239.5 Q433 230 420 230 L233 230 L217 118 L473 118 Q486 118 493.5 108.5 Q501 99 499 85 L492 33 Q490 19 480 9.5 Q470 0 457 0 L90 0 Q72 0 61 12 Q50 24 52 41 L123 544 Q125 561 139.5 573 Q154 585 172 585 L539 585 Q552 585 559.5 575.5 Q567 566 565 552 L558 500 Q556 486 545.5 476.5 Q535 467 522 467 L266 467 L250 350 L437 350 Z M431 691 Q429 675 415 663.5 Q401 652 384 652 L344 652 Q327 652 314 664.5 Q301 677 293 691 L235 788 Q237 804 251 815.5 Q265 827 282 827 L356 827 Q373 827 384.5 815 Q396 803 401 788 L431 691 Z " />
<glyph glyph-name="Eacute" unicode="&#xc9;" horiz-adv-x="520" d="M437 350 Q450 350 457.5 340.5 Q465 331 463 317 L455 263 Q453 249 443 239.5 Q433 230 420 230 L233 230 L217 118 L473 118 Q486 118 493.5 108.5 Q501 99 499 85 L492 33 Q490 19 480 9.5 Q470 0 457 0 L90 0 Q72 0 61 12 Q50 24 52 41 L123 544 Q125 561 139.5 573 Q154 585 172 585 L539 585 Q552 585 559.5 575.5 Q567 566 565 552 L558 500 Q556 486 545.5 476.5 Q535 467 522 467 L266 467 L250 350 L437 350 Z M347 788 Q356 803 371.5 815 Q387 827 404 827 L478 827 Q495 827 505 815.5 Q515 804 513 788 L429 691 Q417 677 400 664.5 Q383 652 366 652 L326 652 Q309 652 299 663.5 Q289 675 291 691 L347 788 Z " />
<glyph glyph-name="Ecircumflex" unicode="&#xca;" horiz-adv-x="520" d="M437 350 Q450 350 457.5 340.5 Q465 331 463 317 L455 263 Q453 249 443 239.5 Q433 230 420 230 L233 230 L217 118 L473 118 Q486 118 493.5 108.5 Q501 99 499 85 L492 33 Q490 19 480 9.5 Q470 0 457 0 L90 0 Q72 0 61 12 Q50 24 52 41 L123 544 Q125 561 139.5 573 Q154 585 172 585 L539 585 Q552 585 559.5 575.5 Q567 566 565 552 L558 500 Q556 486 545.5 476.5 Q535 467 522 467 L266 467 L250 350 L437 350 Z M432 867 Q450 867 459 854.5 Q468 842 475 826 L534 690 Q532 675 519 663.5 Q506 652 489 652 L436 652 Q419 652 409 663.5 Q399 675 393 690 L372 747 L335 690 Q326 675 312.5 663.5 Q299 652 282 652 L229 652 Q212 652 202 663.5 Q192 675 194 690 L293 826 Q304 842 316 854.5 Q328 867 346 867 L432 867 Z " />
<glyph glyph-name="Edieresis" unicode="&#xcb;" horiz-adv-x="520" d="M437 350 Q450 350 457.5 340.5 Q465 331 463 317 L455 263 Q453 249 443 239.5 Q433 230 420 230 L233 230 L217 118 L473 118 Q486 118 493.5 108.5 Q501 99 499 85 L492 33 Q490 19 480 9.5 Q470 0 457 0 L90 0 Q72 0 61 12 Q50 24 52 41 L123 544 Q125 561 139.5 573 Q154 585 172 585 L539 585 Q552 585 559.5 575.5 Q567 566 565 552 L558 500 Q556 486 545.5 476.5 Q535 467 522 467 L266 467 L250 350 L437 350 Z M340 693 Q338 676 323.5 664 Q309 652 291 652 L229 652 Q211 652 200.5 664 Q190 676 192 693 L201 756 Q203 773 217.5 785 Q232 797 250 797 L312 797 Q330 797 340.5 785 Q351 773 349 756 L340 693 Z M554 693 Q552 676 537.5 664 Q523 652 505 652 L443 652 Q425 652 414.5 664 Q404 676 406 693 L415 756 Q417 773 431.5 785 Q446 797 464 797 L526 797 Q544 797 554.5 785 Q565 773 563 756 L554 693 Z " />
<glyph glyph-name="Igrave" unicode="&#xcc;" horiz-adv-x="250" d="M207 41 Q205 24 191 12 Q177 0 159 0 L91 0 Q73 0 62 12 Q51 24 53 41 L124 544 Q126 561 140.5 573 Q155 585 173 585 L241 585 Q259 585 269.5 573 Q280 561 278 544 L207 41 Z M267 691 Q265 675 251 663.5 Q237 652 220 652 L180 652 Q163 652 150 664.5 Q137 677 129 691 L71 788 Q73 804 87 815.5 Q101 827 118 827 L192 827 Q209 827 220.5 815 Q232 803 237 788 L267 691 Z " />
<glyph glyph-name="Iacute" unicode="&#xcd;" horiz-adv-x="250" d="M207 41 Q205 24 191 12 Q177 0 159 0 L91 0 Q73 0 62 12 Q51 24 53 41 L124 544 Q126 561 140.5 573 Q155 585 173 585 L241 585 Q259 585 269.5 573 Q280 561 278 544 L207 41 Z M233 788 Q242 803 257.5 815 Q273 827 290 827 L364 827 Q381 827 391 815.5 Q401 804 399 788 L315 691 Q303 677 286 664.5 Q269 652 252 652 L212 652 Q195 652 185 663.5 Q175 675 177 691 L233 788 Z " />
<glyph glyph-name="Icircumflex" unicode="&#xce;" horiz-adv-x="250" d="M207 41 Q205 24 191 12 Q177 0 159 0 L91 0 Q73 0 62 12 Q51 24 53 41 L124 544 Q126 561 140.5 573 Q155 585 173 585 L241 585 Q259 585 269.5 573 Q280 561 278 544 L207 41 Z M287 867 Q305 867 314 854.5 Q323 842 330 826 L389 690 Q387 675 374 663.5 Q361 652 344 652 L291 652 Q274 652 264 663.5 Q254 675 248 690 L227 747 L190 690 Q181 675 167.5 663.5 Q154 652 137 652 L84 652 Q67 652 57 663.5 Q47 675 49 690 L148 826 Q159 842 171 854.5 Q183 867 201 867 L287 867 Z " />
<glyph glyph-name="Idieresis" unicode="&#xcf;" horiz-adv-x="250" d="M207 41 Q205 24 191 12 Q177 0 159 0 L91 0 Q73 0 62 12 Q51 24 53 41 L124 544 Q126 561 140.5 573 Q155 585 173 585 L241 585 Q259 585 269.5 573 Q280 561 278 544 L207 41 Z M198 693 Q196 676 181.5 664 Q167 652 149 652 L87 652 Q69 652 58.5 664 Q48 676 50 693 L59 756 Q61 773 75.5 785 Q90 797 108 797 L170 797 Q188 797 198.5 785 Q209 773 207 756 L198 693 Z M395 693 Q393 676 378.5 664 Q364 652 346 652 L284 652 Q266 652 255.5 664 Q245 676 247 693 L256 756 Q258 773 272.5 785 Q287 797 305 797 L367 797 Q385 797 395.5 785 Q406 773 404 756 L395 693 Z " />
<glyph glyph-name="Eth" unicode="&#xd0;" horiz-adv-x="633" d="M388 585 Q472 585 525.5 558 Q579 531 608.5 488.5 Q638 446 646 394.5 Q654 343 647 293 Q640 247 617.5 195.5 Q595 144 554 100.5 Q513 57 451.5 28.5 Q390 0 306 0 L117 0 Q99 0 88 12 Q77 24 79 41 L107 238 L65 238 Q53 238 45.5 247.5 Q38 257 40 271 L47 322 Q49 336 59 345 Q69 354 81 354 L123 354 L150 544 Q152 561 166.5 573 Q181 585 199 585 L388 585 Z M261 238 L244 118 L335 118 Q401 118 441.5 166 Q482 214 493 293 Q517 467 384 467 L293 467 L277 354 L335 354 Q347 354 355 345 Q363 336 361 322 L354 271 Q352 257 341.5 247.5 Q331 238 319 238 L261 238 Z " />
<glyph glyph-name="Ntilde" unicode="&#xd1;" horiz-adv-x="652" d="M484 238 L527 544 Q529 561 543.5 573 Q558 585 576 585 L644 585 Q662 585 672.5 573 Q683 561 681 544 L610 41 Q608 24 594 12 Q580 0 562 0 L478 0 Q460 0 443 11 Q426 22 415 41 L251 356 L206 41 Q204 24 190 12 Q176 0 158 0 L90 0 Q72 0 61 12 Q50 24 52 41 L123 544 Q125 561 139.5 573 Q154 585 172 585 L261 585 Q279 585 296.5 574.5 Q314 564 323 544 L484 238 Z M475 652 Q458 652 442 657 Q426 662 412 669 Q393 676 375.5 682 Q358 688 338 688 L292 681 Q282 681 274.5 687.5 Q267 694 266 705 L258 752 Q258 759 259 762 Q262 787 285 793 Q305 800 324.5 803 Q344 806 355 806 Q372 806 388 801 Q404 796 419 790 Q436 782 453.5 776 Q471 770 492 770 L538 777 Q548 777 555 770.5 Q562 764 564 753 L572 706 Q572 699 571 696 Q568 671 545 665 Q525 658 505.5 655 Q486 652 475 652 Z " />
<glyph glyph-name="Ograve" unicode="&#xd2;" horiz-adv-x="656" d="M343 112 Q412 112 458 160.5 Q504 209 515 287 Q521 329 515.5 364 Q510 399 495 424.5 Q480 450 455 464 Q430 478 395 478 Q361 478 331.5 464 Q302 450 279.5 424.5 Q257 399 242 364 Q227 329 221 287 Q210 209 242 160.5 Q274 112 343 112 Z M327 -6 Q242 -6 188.5 22.5 Q135 51 106 94.5 Q77 138 69 189.5 Q61 241 67 287 Q74 336 96.5 390.5 Q119 445 161 490.5 Q203 536 264.5 566 Q326 596 411 596 Q496 596 549.5 566 Q603 536 631.5 490.5 Q660 445 668 390.5 Q676 336 669 287 Q663 241 640.5 189.5 Q618 138 576.5 94.5 Q535 51 473.5 22.5 Q412 -6 327 -6 Z M473 691 Q471 675 457 663.5 Q443 652 426 652 L386 652 Q369 652 356 664.5 Q343 677 335 691 L277 788 Q279 804 293 815.5 Q307 827 324 827 L398 827 Q415 827 426.5 815 Q438 803 443 788 L473 691 Z " />
<glyph glyph-name="Oacute" unicode="&#xd3;" horiz-adv-x="656" d="M343 112 Q412 112 458 160.5 Q504 209 515 287 Q521 329 515.5 364 Q510 399 495 424.5 Q480 450 455 464 Q430 478 395 478 Q361 478 331.5 464 Q302 450 279.5 424.5 Q257 399 242 364 Q227 329 221 287 Q210 209 242 160.5 Q274 112 343 112 Z M327 -6 Q242 -6 188.5 22.5 Q135 51 106 94.5 Q77 138 69 189.5 Q61 241 67 287 Q74 336 96.5 390.5 Q119 445 161 490.5 Q203 536 264.5 566 Q326 596 411 596 Q496 596 549.5 566 Q603 536 631.5 490.5 Q660 445 668 390.5 Q676 336 669 287 Q663 241 640.5 189.5 Q618 138 576.5 94.5 Q535 51 473.5 22.5 Q412 -6 327 -6 Z M429 788 Q438 803 453.5 815 Q469 827 486 827 L560 827 Q577 827 587 815.5 Q597 804 595 788 L511 691 Q499 677 482 664.5 Q465 652 448 652 L408 652 Q391 652 381 663.5 Q371 675 373 691 L429 788 Z " />
<glyph glyph-name="Ocircumflex" unicode="&#xd4;" horiz-adv-x="656" d="M343 112 Q412 112 458 160.5 Q504 209 515 287 Q521 329 515.5 364 Q510 399 495 424.5 Q480 450 455 464 Q430 478 395 478 Q361 478 331.5 464 Q302 450 279.5 424.5 Q257 399 242 364 Q227 329 221 287 Q210 209 242 160.5 Q274 112 343 112 Z M327 -6 Q242 -6 188.5 22.5 Q135 51 106 94.5 Q77 138 69 189.5 Q61 241 67 287 Q74 336 96.5 390.5 Q119 445 161 490.5 Q203 536 264.5 566 Q326 596 411 596 Q496 596 549.5 566 Q603 536 631.5 490.5 Q660 445 668 390.5 Q676 336 669 287 Q663 241 640.5 189.5 Q618 138 576.5 94.5 Q535 51 473.5 22.5 Q412 -6 327 -6 Z M492 867 Q510 867 519 854.5 Q528 842 535 826 L594 690 Q592 675 579 663.5 Q566 652 549 652 L496 652 Q479 652 469 663.5 Q459 675 453 690 L432 747 L395 690 Q386 675 372.5 663.5 Q359 652 342 652 L289 652 Q272 652 262 663.5 Q252 675 254 690 L353 826 Q364 842 376 854.5 Q388 867 406 867 L492 867 Z " />
<glyph glyph-name="Otilde" unicode="&#xd5;" horiz-adv-x="656" d="M343 112 Q412 112 458 160.5 Q504 209 515 287 Q521 329 515.5 364 Q510 399 495 424.5 Q480 450 455 464 Q430 478 395 478 Q361 478 331.5 464 Q302 450 279.5 424.5 Q257 399 242 364 Q227 329 221 287 Q210 209 242 160.5 Q274 112 343 112 Z M327 -6 Q242 -6 188.5 22.5 Q135 51 106 94.5 Q77 138 69 189.5 Q61 241 67 287 Q74 336 96.5 390.5 Q119 445 161 490.5 Q203 536 264.5 566 Q326 596 411 596 Q496 596 549.5 566 Q603 536 631.5 490.5 Q660 445 668 390.5 Q676 336 669 287 Q663 241 640.5 189.5 Q618 138 576.5 94.5 Q535 51 473.5 22.5 Q412 -6 327 -6 Z M495 652 Q478 652 462 657 Q446 662 432 669 Q413 676 395.5 682 Q378 688 358 688 L312 681 Q302 681 294.5 687.5 Q287 694 286 705 L278 752 Q278 759 279 762 Q282 787 305 793 Q325 800 344.5 803 Q364 806 375 806 Q392 806 408 801 Q424 796 439 790 Q456 782 473.5 776 Q491 770 512 770 L558 777 Q568 777 575 770.5 Q582 764 584 753 L592 706 Q592 699 591 696 Q588 671 565 665 Q545 658 525.5 655 Q506 652 495 652 Z " />
<glyph glyph-name="Odieresis" unicode="&#xd6;" horiz-adv-x="656" d="M343 112 Q412 112 458 160.5 Q504 209 515 287 Q521 329 515.5 364 Q510 399 495 424.5 Q480 450 455 464 Q430 478 395 478 Q361 478 331.5 464 Q302 450 279.5 424.5 Q257 399 242 364 Q227 329 221 287 Q210 209 242 160.5 Q274 112 343 112 Z M327 -6 Q242 -6 188.5 22.5 Q135 51 106 94.5 Q77 138 69 189.5 Q61 241 67 287 Q74 336 96.5 390.5 Q119 445 161 490.5 Q203 536 264.5 566 Q326 596 411 596 Q496 596 549.5 566 Q603 536 631.5 490.5 Q660 445 668 390.5 Q676 336 669 287 Q663 241 640.5 189.5 Q618 138 576.5 94.5 Q535 51 473.5 22.5 Q412 -6 327 -6 Z M391 693 Q389 676 374.5 664 Q360 652 342 652 L280 652 Q262 652 251.5 664 Q241 676 243 693 L252 756 Q254 773 268.5 785 Q283 797 301 797 L363 797 Q381 797 391.5 785 Q402 773 400 756 L391 693 Z M605 693 Q603 676 588.5 664 Q574 652 556 652 L494 652 Q476 652 465.5 664 Q455 676 457 693 L466 756 Q468 773 482.5 785 Q497 797 515 797 L577 797 Q595 797 605.5 785 Q616 773 614 756 L605 693 Z " />
<glyph glyph-name="multiply" unicode="&#xd7;" horiz-adv-x="476" d="M216 72 Q205 58 190 48 Q175 38 157 38 L100 38 Q82 38 71.5 50 Q61 62 63 79 L163 208 L100 337 Q102 354 116.5 366 Q131 378 149 378 L204 378 Q222 378 234 368 Q246 358 253 344 L279 292 L319 344 Q330 358 345 368 Q360 378 378 378 L433 378 Q451 378 461.5 366 Q472 354 470 337 L371 208 L435 79 Q433 62 418.5 50 Q404 38 386 38 L329 38 Q311 38 299 48 Q287 58 280 72 L255 121 L216 72 Z " />
<glyph glyph-name="Oslash" unicode="&#xd8;" horiz-adv-x="656" d="M221 287 Q209 199 249 151 L413 476 Q403 478 395 478 Q361 478 331.5 464 Q302 450 279.5 424.5 Q257 399 242 364 Q227 329 221 287 Z M343 112 Q412 112 458 160.5 Q504 209 515 287 Q521 333 514.5 370.5 Q508 408 488 434 L326 113 Q330 112 334 112 Q338 112 343 112 Z M230 -78 Q225 -89 215 -97 Q205 -105 193 -105 L158 -105 Q147 -105 139.5 -97 Q132 -89 134 -78 L185 24 Q145 44 119.5 75 Q94 106 81 141.5 Q68 177 65 215 Q62 253 67 287 Q74 336 96.5 390.5 Q119 445 161 490.5 Q203 536 264.5 566 Q326 596 411 596 Q428 596 443 594.5 Q458 593 472 591 L506 659 Q511 670 521 678 Q531 686 543 686 L578 686 Q589 686 596.5 678 Q604 670 602 659 L554 563 Q593 542 618 509.5 Q643 477 656 440 Q669 403 671.5 363 Q674 323 669 287 Q663 241 640.5 189.5 Q618 138 576.5 94.5 Q535 51 473.5 22.5 Q412 -6 327 -6 Q311 -6 296.5 -4.5 Q282 -3 268 -1 L230 -78 Z " />
<glyph glyph-name="Ugrave" unicode="&#xd9;" horiz-adv-x="646" d="M322 -6 Q238 -6 187 20 Q136 46 110 86.5 Q84 127 78.5 176.5 Q73 226 80 272 L118 544 Q120 561 134.5 573 Q149 585 167 585 L235 585 Q253 585 263.5 573 Q274 561 272 544 L233 269 Q229 236 231 207.5 Q233 179 245 157.5 Q257 136 279.5 124 Q302 112 338 112 Q374 112 400 124 Q426 136 444 157.5 Q462 179 472.5 207.5 Q483 236 487 269 L526 544 Q528 561 542.5 573 Q557 585 575 585 L643 585 Q661 585 671.5 573 Q682 561 680 544 L642 272 Q635 226 616 176.5 Q597 127 559.5 86.5 Q522 46 464 20 Q406 -6 322 -6 Z M459 691 Q457 675 443 663.5 Q429 652 412 652 L372 652 Q355 652 342 664.5 Q329 677 321 691 L263 788 Q265 804 279 815.5 Q293 827 310 827 L384 827 Q401 827 412.5 815 Q424 803 429 788 L459 691 Z " />
<glyph glyph-name="Uacute" unicode="&#xda;" horiz-adv-x="646" d="M322 -6 Q238 -6 187 20 Q136 46 110 86.5 Q84 127 78.5 176.5 Q73 226 80 272 L118 544 Q120 561 134.5 573 Q149 585 167 585 L235 585 Q253 585 263.5 573 Q274 561 272 544 L233 269 Q229 236 231 207.5 Q233 179 245 157.5 Q257 136 279.5 124 Q302 112 338 112 Q374 112 400 124 Q426 136 444 157.5 Q462 179 472.5 207.5 Q483 236 487 269 L526 544 Q528 561 542.5 573 Q557 585 575 585 L643 585 Q661 585 671.5 573 Q682 561 680 544 L642 272 Q635 226 616 176.5 Q597 127 559.5 86.5 Q522 46 464 20 Q406 -6 322 -6 Z M436 788 Q445 803 460.5 815 Q476 827 493 827 L567 827 Q584 827 594 815.5 Q604 804 602 788 L518 691 Q506 677 489 664.5 Q472 652 455 652 L415 652 Q398 652 388 663.5 Q378 675 380 691 L436 788 Z " />
<glyph glyph-name="Ucircumflex" unicode="&#xdb;" horiz-adv-x="646" d="M322 -6 Q238 -6 187 20 Q136 46 110 86.5 Q84 127 78.5 176.5 Q73 226 80 272 L118 544 Q120 561 134.5 573 Q149 585 167 585 L235 585 Q253 585 263.5 573 Q274 561 272 544 L233 269 Q229 236 231 207.5 Q233 179 245 157.5 Q257 136 279.5 124 Q302 112 338 112 Q374 112 400 124 Q426 136 444 157.5 Q462 179 472.5 207.5 Q483 236 487 269 L526 544 Q528 561 542.5 573 Q557 585 575 585 L643 585 Q661 585 671.5 573 Q682 561 680 544 L642 272 Q635 226 616 176.5 Q597 127 559.5 86.5 Q522 46 464 20 Q406 -6 322 -6 Z M489 867 Q507 867 516 854.5 Q525 842 532 826 L591 690 Q589 675 576 663.5 Q563 652 546 652 L493 652 Q476 652 466 663.5 Q456 675 450 690 L429 747 L392 690 Q383 675 369.5 663.5 Q356 652 339 652 L286 652 Q269 652 259 663.5 Q249 675 251 690 L350 826 Q361 842 373 854.5 Q385 867 403 867 L489 867 Z " />
<glyph glyph-name="Udieresis" unicode="&#xdc;" horiz-adv-x="646" d="M322 -6 Q238 -6 187 20 Q136 46 110 86.5 Q84 127 78.5 176.5 Q73 226 80 272 L118 544 Q120 561 134.5 573 Q149 585 167 585 L235 585 Q253 585 263.5 573 Q274 561 272 544 L233 269 Q229 236 231 207.5 Q233 179 245 157.5 Q257 136 279.5 124 Q302 112 338 112 Q374 112 400 124 Q426 136 444 157.5 Q462 179 472.5 207.5 Q483 236 487 269 L526 544 Q528 561 542.5 573 Q557 585 575 585 L643 585 Q661 585 671.5 573 Q682 561 680 544 L642 272 Q635 226 616 176.5 Q597 127 559.5 86.5 Q522 46 464 20 Q406 -6 322 -6 Z M388 693 Q386 676 371.5 664 Q357 652 339 652 L277 652 Q259 652 248.5 664 Q238 676 240 693 L249 756 Q251 773 265.5 785 Q280 797 298 797 L360 797 Q378 797 388.5 785 Q399 773 397 756 L388 693 Z M602 693 Q600 676 585.5 664 Q571 652 553 652 L491 652 Q473 652 462.5 664 Q452 676 454 693 L463 756 Q465 773 479.5 785 Q494 797 512 797 L574 797 Q592 797 602.5 785 Q613 773 611 756 L602 693 Z " />
<glyph glyph-name="Yacute" unicode="&#xdd;" horiz-adv-x="582" d="M475 544 Q484 560 502 572.5 Q520 585 538 585 L609 585 Q627 585 637.5 573 Q648 561 646 544 L393 182 L373 41 Q371 24 357 12 Q343 0 325 0 L257 0 Q239 0 228 12 Q217 24 219 41 L239 182 L88 544 Q90 561 104.5 573 Q119 585 137 585 L208 585 Q226 585 240 572.5 Q254 560 259 544 L339 348 L475 544 Z M414 788 Q423 803 438.5 815 Q454 827 471 827 L545 827 Q562 827 572 815.5 Q582 804 580 788 L496 691 Q484 677 467 664.5 Q450 652 433 652 L393 652 Q376 652 366 663.5 Q356 675 358 691 L414 788 Z " />
<glyph glyph-name="Thorn" unicode="&#xde;" horiz-adv-x="571" d="M384 507 Q452 507 495.5 487 Q539 467 563 436.5 Q587 406 594 369.5 Q601 333 596 300 Q591 267 573.5 230 Q556 193 523.5 162.5 Q491 132 442 111.5 Q393 91 325 91 L213 91 L206 41 Q204 24 190 12 Q176 0 158 0 L90 0 Q72 0 61 12 Q50 24 52 41 L123 544 Q125 561 139.5 573 Q154 585 172 585 L240 585 Q258 585 268.5 573 Q279 561 277 544 L272 507 L384 507 Z M341 209 Q379 209 408 233 Q437 257 443 299 Q448 341 426 365 Q404 389 366 389 L255 389 L230 209 L341 209 Z " />
<glyph glyph-name="germandbls" unicode="&#xdf;" horiz-adv-x="568" d="M315 236 Q303 236 295 245 Q287 254 289 268 L296 317 Q298 331 308.5 340 Q319 349 331 349 Q370 349 395.5 364 Q421 379 426 412 Q431 444 409.5 461 Q388 478 349 478 Q311 478 284 458 Q257 438 253 407 L201 41 Q199 24 185 12 Q171 0 153 0 L85 0 Q67 0 56 12 Q45 24 47 41 L99 408 Q104 445 121 478.5 Q138 512 170 537.5 Q202 563 250.5 578 Q299 593 368 593 Q437 593 481 577.5 Q525 562 548.5 537 Q572 512 579 480.5 Q586 449 581 416 Q579 404 573.5 388.5 Q568 373 556.5 358 Q545 343 525.5 329 Q506 315 477 305 Q511 297 531.5 281.5 Q552 266 562.5 248 Q573 230 575 211 Q577 192 575 176 Q571 143 555.5 111.5 Q540 80 509 55.5 Q478 31 430 15.5 Q382 0 313 0 L293 0 Q281 0 273 9 Q265 18 267 32 L274 80 Q276 94 286 103 Q296 112 308 112 L325 112 Q364 112 390 127.5 Q416 143 421 175 Q426 209 404 222.5 Q382 236 343 236 L315 236 Z " />
<glyph glyph-name="agrave" unicode="&#xe0;" horiz-adv-x="509" d="M199 132 Q198 120 202.5 113.5 Q207 107 216.5 104 Q226 101 239 100.5 Q252 100 266 100 Q277 100 298 106.5 Q319 113 340 128 L347 174 Q325 174 299.5 172 Q274 170 252.5 165 Q231 160 216 152 Q201 144 199 132 Z M112 343 Q144 394 194.5 414.5 Q245 435 309 435 Q377 435 419.5 421.5 Q462 408 484 380.5 Q506 353 510 311 Q514 269 506 211 L482 41 Q480 24 466 12 Q452 0 434 0 L366 0 Q348 0 337 12 Q326 24 328 41 Q307 23 284.5 13.5 Q262 4 241.5 -0.5 Q221 -5 203 -5.5 Q185 -6 172 -6 Q149 -6 124 1 Q99 8 79.5 23.5 Q60 39 49.5 64.5 Q39 90 44 127 Q51 176 84 204 Q117 232 163 246.5 Q209 261 261.5 265 Q314 269 360 269 Q365 304 347 316.5 Q329 329 299 329 Q285 329 267.5 326.5 Q250 324 235 312 Q222 300 203 300 L147 300 Q129 300 119.5 313 Q110 326 112 343 Z M400 546 Q398 530 384.5 518.5 Q371 507 354 507 L314 507 Q297 507 283.5 519.5 Q270 532 262 546 L205 643 Q207 659 220.5 670.5 Q234 682 251 682 L325 682 Q342 682 354 670 Q366 658 371 643 L400 546 Z " />
<glyph glyph-name="aacute" unicode="&#xe1;" horiz-adv-x="509" d="M199 132 Q198 120 202.5 113.5 Q207 107 216.5 104 Q226 101 239 100.5 Q252 100 266 100 Q277 100 298 106.5 Q319 113 340 128 L347 174 Q325 174 299.5 172 Q274 170 252.5 165 Q231 160 216 152 Q201 144 199 132 Z M112 343 Q144 394 194.5 414.5 Q245 435 309 435 Q377 435 419.5 421.5 Q462 408 484 380.5 Q506 353 510 311 Q514 269 506 211 L482 41 Q480 24 466 12 Q452 0 434 0 L366 0 Q348 0 337 12 Q326 24 328 41 Q307 23 284.5 13.5 Q262 4 241.5 -0.5 Q221 -5 203 -5.5 Q185 -6 172 -6 Q149 -6 124 1 Q99 8 79.5 23.5 Q60 39 49.5 64.5 Q39 90 44 127 Q51 176 84 204 Q117 232 163 246.5 Q209 261 261.5 265 Q314 269 360 269 Q365 304 347 316.5 Q329 329 299 329 Q285 329 267.5 326.5 Q250 324 235 312 Q222 300 203 300 L147 300 Q129 300 119.5 313 Q110 326 112 343 Z M345 643 Q354 658 369 670 Q384 682 401 682 L475 682 Q492 682 502.5 670.5 Q513 659 511 643 L426 546 Q415 532 398 519.5 Q381 507 364 507 L324 507 Q307 507 296.5 518.5 Q286 530 288 546 L345 643 Z " />
<glyph glyph-name="acircumflex" unicode="&#xe2;" horiz-adv-x="509" d="M199 132 Q198 120 202.5 113.5 Q207 107 216.5 104 Q226 101 239 100.5 Q252 100 266 100 Q277 100 298 106.5 Q319 113 340 128 L347 174 Q325 174 299.5 172 Q274 170 252.5 165 Q231 160 216 152 Q201 144 199 132 Z M112 343 Q144 394 194.5 414.5 Q245 435 309 435 Q377 435 419.5 421.5 Q462 408 484 380.5 Q506 353 510 311 Q514 269 506 211 L482 41 Q480 24 466 12 Q452 0 434 0 L366 0 Q348 0 337 12 Q326 24 328 41 Q307 23 284.5 13.5 Q262 4 241.5 -0.5 Q221 -5 203 -5.5 Q185 -6 172 -6 Q149 -6 124 1 Q99 8 79.5 23.5 Q60 39 49.5 64.5 Q39 90 44 127 Q51 176 84 204 Q117 232 163 246.5 Q209 261 261.5 265 Q314 269 360 269 Q365 304 347 316.5 Q329 329 299 329 Q285 329 267.5 326.5 Q250 324 235 312 Q222 300 203 300 L147 300 Q129 300 119.5 313 Q110 326 112 343 Z M405 722 Q423 722 431.5 709.5 Q440 697 447 681 L507 545 Q505 530 492 518.5 Q479 507 462 507 L409 507 Q392 507 381.5 518.5 Q371 530 366 545 L345 602 L308 545 Q298 530 285 518.5 Q272 507 255 507 L202 507 Q185 507 175 518.5 Q165 530 167 545 L265 681 Q276 697 288.5 709.5 Q301 722 319 722 L405 722 Z " />
<glyph glyph-name="atilde" unicode="&#xe3;" horiz-adv-x="509" d="M199 132 Q198 120 202.5 113.5 Q207 107 216.5 104 Q226 101 239 100.5 Q252 100 266 100 Q277 100 298 106.5 Q319 113 340 128 L347 174 Q325 174 299.5 172 Q274 170 252.5 165 Q231 160 216 152 Q201 144 199 132 Z M112 343 Q144 394 194.5 414.5 Q245 435 309 435 Q377 435 419.5 421.5 Q462 408 484 380.5 Q506 353 510 311 Q514 269 506 211 L482 41 Q480 24 466 12 Q452 0 434 0 L366 0 Q348 0 337 12 Q326 24 328 41 Q307 23 284.5 13.5 Q262 4 241.5 -0.5 Q221 -5 203 -5.5 Q185 -6 172 -6 Q149 -6 124 1 Q99 8 79.5 23.5 Q60 39 49.5 64.5 Q39 90 44 127 Q51 176 84 204 Q117 232 163 246.5 Q209 261 261.5 265 Q314 269 360 269 Q365 304 347 316.5 Q329 329 299 329 Q285 329 267.5 326.5 Q250 324 235 312 Q222 300 203 300 L147 300 Q129 300 119.5 313 Q110 326 112 343 Z M412 507 Q395 507 379 512 Q363 517 348 524 Q329 531 312 537 Q295 543 275 543 L229 536 Q219 536 211.5 542.5 Q204 549 202 560 L195 607 Q194 609 194.5 612 Q195 615 195 617 Q197 628 204 636.5 Q211 645 222 648 Q242 655 261 658 Q280 661 291 661 Q308 661 324 656 Q340 651 355 645 Q372 637 389.5 631 Q407 625 428 625 L474 632 Q484 632 491.5 625.5 Q499 619 501 608 L508 561 Q509 559 508.5 556 Q508 553 508 551 Q506 540 499 531.5 Q492 523 482 520 Q462 513 442.5 510 Q423 507 412 507 Z " />
<glyph glyph-name="adieresis" unicode="&#xe4;" horiz-adv-x="509" d="M199 132 Q198 120 202.5 113.5 Q207 107 216.5 104 Q226 101 239 100.5 Q252 100 266 100 Q277 100 298 106.5 Q319 113 340 128 L347 174 Q325 174 299.5 172 Q274 170 252.5 165 Q231 160 216 152 Q201 144 199 132 Z M112 343 Q144 394 194.5 414.5 Q245 435 309 435 Q377 435 419.5 421.5 Q462 408 484 380.5 Q506 353 510 311 Q514 269 506 211 L482 41 Q480 24 466 12 Q452 0 434 0 L366 0 Q348 0 337 12 Q326 24 328 41 Q307 23 284.5 13.5 Q262 4 241.5 -0.5 Q221 -5 203 -5.5 Q185 -6 172 -6 Q149 -6 124 1 Q99 8 79.5 23.5 Q60 39 49.5 64.5 Q39 90 44 127 Q51 176 84 204 Q117 232 163 246.5 Q209 261 261.5 265 Q314 269 360 269 Q365 304 347 316.5 Q329 329 299 329 Q285 329 267.5 326.5 Q250 324 235 312 Q222 300 203 300 L147 300 Q129 300 119.5 313 Q110 326 112 343 Z M330 548 Q327 531 313 519 Q299 507 281 507 L219 507 Q201 507 190 519 Q179 531 182 548 L190 611 Q192 628 206.5 640 Q221 652 239 652 L301 652 Q319 652 329.5 640 Q340 628 338 611 L330 548 Z M529 548 Q526 531 512 519 Q498 507 480 507 L418 507 Q400 507 389 519 Q378 531 381 548 L389 611 Q391 628 405.5 640 Q420 652 438 652 L500 652 Q518 652 528.5 640 Q539 628 537 611 L529 548 Z " />
<glyph glyph-name="aring" unicode="&#xe5;" horiz-adv-x="509" d="M365 606 Q383 606 396.5 618 Q410 630 413 648 Q415 666 404.5 678 Q394 690 376 690 Q358 690 344.5 678 Q331 666 329 648 Q326 630 336.5 618 Q347 606 365 606 Z M351 507 Q322 507 298 518 Q274 529 257.5 548 Q241 567 233.5 593 Q226 619 230 648 Q234 677 248.5 703 Q263 729 285 748 Q307 767 334 778 Q361 789 390 789 Q419 789 443.5 778 Q468 767 484.5 748 Q501 729 508.5 703 Q516 677 512 648 Q508 619 493 593 Q478 567 456.5 548 Q435 529 407.5 518 Q380 507 351 507 Z M199 132 Q198 120 202.5 113.5 Q207 107 216.5 104 Q226 101 239 100.5 Q252 100 266 100 Q277 100 298 106.5 Q319 113 340 128 L347 174 Q325 174 299.5 172 Q274 170 252.5 165 Q231 160 216 152 Q201 144 199 132 Z M112 343 Q144 394 194.5 414.5 Q245 435 309 435 Q377 435 419.5 421.5 Q462 408 484 380.5 Q506 353 510 311 Q514 269 506 211 L482 41 Q480 24 466 12 Q452 0 434 0 L366 0 Q348 0 337 12 Q326 24 328 41 Q307 23 284.5 13.5 Q262 4 241.5 -0.5 Q221 -5 203 -5.5 Q185 -6 172 -6 Q149 -6 124 1 Q99 8 79.5 23.5 Q60 39 49.5 64.5 Q39 90 44 127 Q51 176 84 204 Q117 232 163 246.5 Q209 261 261.5 265 Q314 269 360 269 Q365 304 347 316.5 Q329 329 299 329 Q285 329 267.5 326.5 Q250 324 235 312 Q222 300 203 300 L147 300 Q129 300 119.5 313 Q110 326 112 343 Z " />
<glyph glyph-name="ae" unicode="&#xe6;" horiz-adv-x="825" d="M833 214 Q830 196 816 183.5 Q802 171 784 171 L501 171 Q500 130 521.5 115 Q543 100 581 100 Q594 100 610 101.5 Q626 103 637 111 Q653 125 663.5 129.5 Q674 134 684 134 L742 134 Q762 134 772.5 120 Q783 106 781 88 Q752 48 697.5 21 Q643 -6 567 -6 Q512 -6 477 9.5 Q442 25 419 48 Q400 28 369.5 17 Q339 6 307.5 1 Q276 -4 249 -5 Q222 -6 210 -6 Q187 -6 156 -1 Q125 4 98 18 Q71 32 54.5 58.5 Q38 85 44 127 Q51 176 84 204 Q117 232 163 246.5 Q209 261 261.5 265 Q314 269 360 269 Q365 304 347 316.5 Q329 329 299 329 Q285 329 267.5 326.5 Q250 324 235 312 Q222 300 203 300 L147 300 Q129 300 119.5 313 Q110 326 112 343 Q144 394 194.5 414.5 Q245 435 309 435 Q421 435 467 396 Q498 414 536.5 424.5 Q575 435 626 435 Q696 435 739 415 Q782 395 804.5 363.5 Q827 332 832.5 292.5 Q838 253 833 214 Z M613 329 Q585 329 559.5 318 Q534 307 514 264 L693 264 Q690 286 682 299 Q674 312 663 318.5 Q652 325 639.5 327 Q627 329 613 329 Z M199 132 Q198 120 202.5 113.5 Q207 107 216.5 104 Q226 101 239 100.5 Q252 100 266 100 Q277 100 298 106.5 Q319 113 340 128 L347 174 Q325 174 299.5 172 Q274 170 252.5 165 Q231 160 216 152 Q201 144 199 132 Z " />
<glyph glyph-name="ccedilla" unicode="&#xe7;" horiz-adv-x="519" d="M475 162 Q495 162 505 148 Q515 134 513 116 Q490 67 443.5 35.5 Q397 4 323 -4 L318 -40 Q342 -44 361 -56 Q377 -66 388 -84.5 Q399 -103 395 -135 Q391 -160 377 -179.5 Q363 -199 342 -213 Q321 -227 295.5 -234.5 Q270 -242 244 -242 Q230 -242 213.5 -240 Q197 -238 186 -236 Q176 -236 170 -229 Q164 -222 166 -211 L170 -180 Q172 -169 180 -162 Q188 -155 198 -155 L211 -155 Q221 -155 233 -153.5 Q245 -152 255.5 -148 Q266 -144 274 -137 Q282 -130 283 -119 Q283 -103 270 -96 Q257 -89 238 -86 Q227 -86 221.5 -78.5 Q216 -71 218 -61 L228 -3 Q172 3 136 24 Q100 45 81 75 Q62 105 57 141 Q52 177 57 214 Q62 253 80 292.5 Q98 332 132 363.5 Q166 395 216.5 415 Q267 435 338 435 Q391 435 427 425 Q463 415 486.5 398.5 Q510 382 522.5 359.5 Q535 337 540 311 Q538 293 524 279 Q510 265 490 265 L427 265 Q417 265 408 268.5 Q399 272 392 288 Q387 311 370 320 Q353 329 323 329 Q273 329 246 303 Q219 277 211 214 Q202 151 221.5 125.5 Q241 100 291 100 Q319 100 339 106.5 Q359 113 372 139 Q383 155 392.5 158.5 Q402 162 412 162 L475 162 Z " />
<glyph glyph-name="egrave" unicode="&#xe8;" horiz-adv-x="529" d="M317 329 Q289 329 263.5 318 Q238 307 218 264 L397 264 Q394 286 386 299 Q378 312 367 318.5 Q356 325 343.5 327 Q331 329 317 329 Z M537 214 Q534 196 520 183.5 Q506 171 488 171 L205 171 Q204 130 225.5 115 Q247 100 285 100 Q298 100 314 101.5 Q330 103 341 111 Q357 125 367.5 129.5 Q378 134 388 134 L446 134 Q466 134 476 120 Q486 106 484 88 Q455 49 400.5 21.5 Q346 -6 271 -6 Q201 -6 156.5 14.5 Q112 35 88 67 Q64 99 58 138 Q52 177 57 214 Q62 252 79 291.5 Q96 331 128.5 363 Q161 395 210.5 415 Q260 435 330 435 Q400 435 443 415 Q486 395 508.5 363.5 Q531 332 536.5 292.5 Q542 253 537 214 Z M391 546 Q389 530 375.5 518.5 Q362 507 345 507 L305 507 Q288 507 274.5 519.5 Q261 532 253 546 L196 643 Q198 659 211.5 670.5 Q225 682 242 682 L316 682 Q333 682 345 670 Q357 658 362 643 L391 546 Z " />
<glyph glyph-name="eacute" unicode="&#xe9;" horiz-adv-x="529" d="M317 329 Q289 329 263.5 318 Q238 307 218 264 L397 264 Q394 286 386 299 Q378 312 367 318.5 Q356 325 343.5 327 Q331 329 317 329 Z M537 214 Q534 196 520 183.5 Q506 171 488 171 L205 171 Q204 130 225.5 115 Q247 100 285 100 Q298 100 314 101.5 Q330 103 341 111 Q357 125 367.5 129.5 Q378 134 388 134 L446 134 Q466 134 476 120 Q486 106 484 88 Q455 49 400.5 21.5 Q346 -6 271 -6 Q201 -6 156.5 14.5 Q112 35 88 67 Q64 99 58 138 Q52 177 57 214 Q62 252 79 291.5 Q96 331 128.5 363 Q161 395 210.5 415 Q260 435 330 435 Q400 435 443 415 Q486 395 508.5 363.5 Q531 332 536.5 292.5 Q542 253 537 214 Z M356 643 Q365 658 380 670 Q395 682 412 682 L486 682 Q503 682 513.5 670.5 Q524 659 522 643 L437 546 Q426 532 409 519.5 Q392 507 375 507 L335 507 Q318 507 307.5 518.5 Q297 530 299 546 L356 643 Z " />
<glyph glyph-name="ecircumflex" unicode="&#xea;" horiz-adv-x="529" d="M317 329 Q289 329 263.5 318 Q238 307 218 264 L397 264 Q394 286 386 299 Q378 312 367 318.5 Q356 325 343.5 327 Q331 329 317 329 Z M537 214 Q534 196 520 183.5 Q506 171 488 171 L205 171 Q204 130 225.5 115 Q247 100 285 100 Q298 100 314 101.5 Q330 103 341 111 Q357 125 367.5 129.5 Q378 134 388 134 L446 134 Q466 134 476 120 Q486 106 484 88 Q455 49 400.5 21.5 Q346 -6 271 -6 Q201 -6 156.5 14.5 Q112 35 88 67 Q64 99 58 138 Q52 177 57 214 Q62 252 79 291.5 Q96 331 128.5 363 Q161 395 210.5 415 Q260 435 330 435 Q400 435 443 415 Q486 395 508.5 363.5 Q531 332 536.5 292.5 Q542 253 537 214 Z M411 722 Q429 722 437.5 709.5 Q446 697 453 681 L513 545 Q511 530 498 518.5 Q485 507 468 507 L415 507 Q398 507 387.5 518.5 Q377 530 372 545 L351 602 L314 545 Q304 530 291 518.5 Q278 507 261 507 L208 507 Q191 507 181 518.5 Q171 530 173 545 L271 681 Q282 697 294.5 709.5 Q307 722 325 722 L411 722 Z " />
<glyph glyph-name="edieresis" unicode="&#xeb;" horiz-adv-x="529" d="M317 329 Q289 329 263.5 318 Q238 307 218 264 L397 264 Q394 286 386 299 Q378 312 367 318.5 Q356 325 343.5 327 Q331 329 317 329 Z M537 214 Q534 196 520 183.5 Q506 171 488 171 L205 171 Q204 130 225.5 115 Q247 100 285 100 Q298 100 314 101.5 Q330 103 341 111 Q357 125 367.5 129.5 Q378 134 388 134 L446 134 Q466 134 476 120 Q486 106 484 88 Q455 49 400.5 21.5 Q346 -6 271 -6 Q201 -6 156.5 14.5 Q112 35 88 67 Q64 99 58 138 Q52 177 57 214 Q62 252 79 291.5 Q96 331 128.5 363 Q161 395 210.5 415 Q260 435 330 435 Q400 435 443 415 Q486 395 508.5 363.5 Q531 332 536.5 292.5 Q542 253 537 214 Z M328 548 Q325 531 311 519 Q297 507 279 507 L217 507 Q199 507 188 519 Q177 531 180 548 L188 611 Q190 628 204.5 640 Q219 652 237 652 L299 652 Q317 652 327.5 640 Q338 628 336 611 L328 548 Z M542 548 Q539 531 525 519 Q511 507 493 507 L431 507 Q413 507 402 519 Q391 531 394 548 L402 611 Q404 628 418.5 640 Q433 652 451 652 L513 652 Q531 652 541.5 640 Q552 628 550 611 L542 548 Z " />
<glyph glyph-name="igrave" unicode="&#xec;" horiz-adv-x="250" d="M207 41 Q205 24 191 12 Q177 0 159 0 L91 0 Q73 0 62 12 Q51 24 53 41 L101 384 Q104 401 118 413 Q132 425 150 425 L218 425 Q236 425 247 413 Q258 401 255 384 L207 41 Z M248 546 Q246 530 232.5 518.5 Q219 507 202 507 L162 507 Q145 507 131.5 519.5 Q118 532 110 546 L53 643 Q55 659 68.5 670.5 Q82 682 99 682 L173 682 Q190 682 202 670 Q214 658 219 643 L248 546 Z " />
<glyph glyph-name="iacute" unicode="&#xed;" horiz-adv-x="250" d="M207 41 Q205 24 191 12 Q177 0 159 0 L91 0 Q73 0 62 12 Q51 24 53 41 L101 384 Q104 401 118 413 Q132 425 150 425 L218 425 Q236 425 247 413 Q258 401 255 384 L207 41 Z M213 643 Q222 658 237 670 Q252 682 269 682 L343 682 Q360 682 370.5 670.5 Q381 659 379 643 L294 546 Q283 532 266 519.5 Q249 507 232 507 L192 507 Q175 507 164.5 518.5 Q154 530 156 546 L213 643 Z " />
<glyph glyph-name="icircumflex" unicode="&#xee;" horiz-adv-x="250" d="M207 41 Q205 24 191 12 Q177 0 159 0 L91 0 Q73 0 62 12 Q51 24 53 41 L101 384 Q104 401 118 413 Q132 425 150 425 L218 425 Q236 425 247 413 Q258 401 255 384 L207 41 Z M267 722 Q285 722 293.5 709.5 Q302 697 309 681 L369 545 Q367 530 354 518.5 Q341 507 324 507 L271 507 Q254 507 243.5 518.5 Q233 530 228 545 L207 602 L170 545 Q160 530 147 518.5 Q134 507 117 507 L64 507 Q47 507 37 518.5 Q27 530 29 545 L127 681 Q138 697 150.5 709.5 Q163 722 181 722 L267 722 Z " />
<glyph glyph-name="idieresis" unicode="&#xef;" horiz-adv-x="250" d="M207 41 Q205 24 191 12 Q177 0 159 0 L91 0 Q73 0 62 12 Q51 24 53 41 L101 384 Q104 401 118 413 Q132 425 150 425 L218 425 Q236 425 247 413 Q258 401 255 384 L207 41 Z M178 548 Q175 531 161 519 Q147 507 129 507 L67 507 Q49 507 38 519 Q27 531 30 548 L38 611 Q40 628 54.5 640 Q69 652 87 652 L149 652 Q167 652 177.5 640 Q188 628 186 611 L178 548 Z M375 548 Q372 531 358 519 Q344 507 326 507 L264 507 Q246 507 235 519 Q224 531 227 548 L235 611 Q237 628 251.5 640 Q266 652 284 652 L346 652 Q364 652 374.5 640 Q385 628 383 611 L375 548 Z " />
<glyph glyph-name="eth" unicode="&#xf0;" horiz-adv-x="555" d="M312 259 Q262 259 236.5 238 Q211 217 204 170 Q199 130 222 115 Q245 100 288 100 Q306 100 324 103 Q342 106 357.5 114.5 Q373 123 384 138 Q395 153 399 178 Q403 206 396.5 222 Q390 238 378 246.5 Q366 255 350 257 Q334 259 318 259 L312 259 Z M252 581 Q237 586 231.5 594 Q226 602 228 615 L244 660 Q249 673 257 681 Q265 689 280 691 Q312 686 344 677.5 Q376 669 408 658 L465 708 Q473 715 484 715 Q497 715 504 706 L522 686 Q528 678 527 666 Q525 655 516 647 L482 617 Q544 559 564 481 Q584 403 571 310 L564 261 Q551 170 527 117 Q503 64 467 36.5 Q431 9 383 1.5 Q335 -6 274 -6 Q203 -6 157 7 Q111 20 85.5 43.5 Q60 67 52.5 99.5 Q45 132 51 172 Q56 211 70.5 248 Q85 285 113 313.5 Q141 342 184.5 359.5 Q228 377 292 377 Q297 377 311.5 376.5 Q326 376 344.5 372 Q363 368 383 359 Q403 350 420 334 Q426 372 425.5 399.5 Q425 427 419 448 Q413 469 401 485.5 Q389 502 371 519 L302 460 Q294 453 283 453 Q272 453 263 462 L247 481 Q241 489 242 501 Q244 512 253 520 L306 565 Q292 570 278 574.5 Q264 579 252 581 Z " />
<glyph glyph-name="ntilde" unicode="&#xf1;" horiz-adv-x="546" d="M100 384 Q103 401 117 413 Q131 425 149 425 L217 425 Q235 425 245.5 412.5 Q256 400 254 383 Q272 403 292 413.5 Q312 424 330.5 428.5 Q349 433 365.5 434 Q382 435 393 435 Q474 435 515 385 Q556 335 543 244 L514 41 Q512 24 498 12 Q484 0 466 0 L398 0 Q380 0 369 12 Q358 24 360 41 L387 230 Q395 289 377.5 309 Q360 329 330 329 Q315 329 299.5 322.5 Q284 316 270.5 305 Q257 294 247.5 279 Q238 264 235 247 L206 41 Q204 24 190 12 Q176 0 158 0 L90 0 Q72 0 61 12 Q50 24 52 41 L100 384 Z M433 507 Q416 507 400 512 Q384 517 369 524 Q350 531 333 537 Q316 543 296 543 L250 536 Q240 536 232.5 542.5 Q225 549 223 560 L216 607 Q215 609 215.5 612 Q216 615 216 617 Q218 628 225 636.5 Q232 645 243 648 Q263 655 282 658 Q301 661 312 661 Q329 661 345 656 Q361 651 376 645 Q393 637 410.5 631 Q428 625 449 625 L495 632 Q505 632 512.5 625.5 Q520 619 522 608 L529 561 Q530 559 529.5 556 Q529 553 529 551 Q527 540 520 531.5 Q513 523 503 520 Q483 513 463.5 510 Q444 507 433 507 Z " />
<glyph glyph-name="ograve" unicode="&#xf2;" horiz-adv-x="550" d="M289 100 Q308 100 325.5 104.5 Q343 109 358 122 Q373 135 383.5 157 Q394 179 399 214 Q408 278 384.5 303.5 Q361 329 321 329 Q281 329 250.5 303.5 Q220 278 211 214 Q206 179 210.5 157 Q215 135 226.5 122 Q238 109 254 104.5 Q270 100 289 100 Z M274 -6 Q204 -6 159 13 Q114 32 89 63.5 Q64 95 57.5 134.5 Q51 174 57 214 Q62 253 80 292.5 Q98 332 131.5 363.5 Q165 395 215.5 415 Q266 435 336 435 Q407 435 451.5 415 Q496 395 520.5 363.5 Q545 332 551.5 292.5 Q558 253 553 214 Q547 174 529 134.5 Q511 95 478 63.5 Q445 32 395 13 Q345 -6 274 -6 Z M397 546 Q395 530 381.5 518.5 Q368 507 351 507 L311 507 Q294 507 280.5 519.5 Q267 532 259 546 L202 643 Q204 659 217.5 670.5 Q231 682 248 682 L322 682 Q339 682 351 670 Q363 658 368 643 L397 546 Z " />
<glyph glyph-name="oacute" unicode="&#xf3;" horiz-adv-x="550" d="M289 100 Q308 100 325.5 104.5 Q343 109 358 122 Q373 135 383.5 157 Q394 179 399 214 Q408 278 384.5 303.5 Q361 329 321 329 Q281 329 250.5 303.5 Q220 278 211 214 Q206 179 210.5 157 Q215 135 226.5 122 Q238 109 254 104.5 Q270 100 289 100 Z M274 -6 Q204 -6 159 13 Q114 32 89 63.5 Q64 95 57.5 134.5 Q51 174 57 214 Q62 253 80 292.5 Q98 332 131.5 363.5 Q165 395 215.5 415 Q266 435 336 435 Q407 435 451.5 415 Q496 395 520.5 363.5 Q545 332 551.5 292.5 Q558 253 553 214 Q547 174 529 134.5 Q511 95 478 63.5 Q445 32 395 13 Q345 -6 274 -6 Z M364 643 Q373 658 388 670 Q403 682 420 682 L494 682 Q511 682 521.5 670.5 Q532 659 530 643 L445 546 Q434 532 417 519.5 Q400 507 383 507 L343 507 Q326 507 315.5 518.5 Q305 530 307 546 L364 643 Z " />
<glyph glyph-name="ocircumflex" unicode="&#xf4;" horiz-adv-x="550" d="M289 100 Q308 100 325.5 104.5 Q343 109 358 122 Q373 135 383.5 157 Q394 179 399 214 Q408 278 384.5 303.5 Q361 329 321 329 Q281 329 250.5 303.5 Q220 278 211 214 Q206 179 210.5 157 Q215 135 226.5 122 Q238 109 254 104.5 Q270 100 289 100 Z M274 -6 Q204 -6 159 13 Q114 32 89 63.5 Q64 95 57.5 134.5 Q51 174 57 214 Q62 253 80 292.5 Q98 332 131.5 363.5 Q165 395 215.5 415 Q266 435 336 435 Q407 435 451.5 415 Q496 395 520.5 363.5 Q545 332 551.5 292.5 Q558 253 553 214 Q547 174 529 134.5 Q511 95 478 63.5 Q445 32 395 13 Q345 -6 274 -6 Z M418 722 Q436 722 444.5 709.5 Q453 697 460 681 L520 545 Q518 530 505 518.5 Q492 507 475 507 L422 507 Q405 507 394.5 518.5 Q384 530 379 545 L358 602 L321 545 Q311 530 298 518.5 Q285 507 268 507 L215 507 Q198 507 188 518.5 Q178 530 180 545 L278 681 Q289 697 301.5 709.5 Q314 722 332 722 L418 722 Z " />
<glyph glyph-name="otilde" unicode="&#xf5;" horiz-adv-x="550" d="M289 100 Q308 100 325.5 104.5 Q343 109 358 122 Q373 135 383.5 157 Q394 179 399 214 Q408 278 384.5 303.5 Q361 329 321 329 Q281 329 250.5 303.5 Q220 278 211 214 Q206 179 210.5 157 Q215 135 226.5 122 Q238 109 254 104.5 Q270 100 289 100 Z M274 -6 Q204 -6 159 13 Q114 32 89 63.5 Q64 95 57.5 134.5 Q51 174 57 214 Q62 253 80 292.5 Q98 332 131.5 363.5 Q165 395 215.5 415 Q266 435 336 435 Q407 435 451.5 415 Q496 395 520.5 363.5 Q545 332 551.5 292.5 Q558 253 553 214 Q547 174 529 134.5 Q511 95 478 63.5 Q445 32 395 13 Q345 -6 274 -6 Z M417 507 Q400 507 384 512 Q368 517 353 524 Q334 531 317 537 Q300 543 280 543 L234 536 Q224 536 216.5 542.5 Q209 549 207 560 L200 607 Q199 609 199.5 612 Q200 615 200 617 Q202 628 209 636.5 Q216 645 227 648 Q247 655 266 658 Q285 661 296 661 Q313 661 329 656 Q345 651 360 645 Q377 637 394.5 631 Q412 625 433 625 L479 632 Q489 632 496.5 625.5 Q504 619 506 608 L513 561 Q514 559 513.5 556 Q513 553 513 551 Q511 540 504 531.5 Q497 523 487 520 Q467 513 447.5 510 Q428 507 417 507 Z " />
<glyph glyph-name="odieresis" unicode="&#xf6;" horiz-adv-x="550" d="M289 100 Q308 100 325.5 104.5 Q343 109 358 122 Q373 135 383.5 157 Q394 179 399 214 Q408 278 384.5 303.5 Q361 329 321 329 Q281 329 250.5 303.5 Q220 278 211 214 Q206 179 210.5 157 Q215 135 226.5 122 Q238 109 254 104.5 Q270 100 289 100 Z M274 -6 Q204 -6 159 13 Q114 32 89 63.5 Q64 95 57.5 134.5 Q51 174 57 214 Q62 253 80 292.5 Q98 332 131.5 363.5 Q165 395 215.5 415 Q266 435 336 435 Q407 435 451.5 415 Q496 395 520.5 363.5 Q545 332 551.5 292.5 Q558 253 553 214 Q547 174 529 134.5 Q511 95 478 63.5 Q445 32 395 13 Q345 -6 274 -6 Z M327 548 Q324 531 310 519 Q296 507 278 507 L216 507 Q198 507 187 519 Q176 531 179 548 L187 611 Q189 628 203.5 640 Q218 652 236 652 L298 652 Q316 652 326.5 640 Q337 628 335 611 L327 548 Z M526 548 Q523 531 509 519 Q495 507 477 507 L415 507 Q397 507 386 519 Q375 531 378 548 L386 611 Q388 628 402.5 640 Q417 652 435 652 L497 652 Q515 652 525.5 640 Q536 628 534 611 L526 548 Z " />
<glyph glyph-name="divide" unicode="&#xf7;" horiz-adv-x="454" d="M103 144 Q90 144 82 153.5 Q74 163 76 177 L84 230 Q86 244 96 253.5 Q106 263 119 263 L407 263 Q420 263 428 253.5 Q436 244 434 230 L426 177 Q424 163 414 153.5 Q404 144 391 144 L103 144 Z M278 27 Q276 13 265 3.5 Q254 -6 240 -6 L190 -6 Q176 -6 167 3.5 Q158 13 160 27 L167 77 Q169 91 180.5 100.5 Q192 110 206 110 L256 110 Q270 110 278.5 100.5 Q287 91 285 77 L278 27 Z M321 330 Q319 316 307.5 306.5 Q296 297 282 297 L232 297 Q218 297 209.5 306.5 Q201 316 203 330 L210 380 Q212 394 223.5 403.5 Q235 413 249 413 L299 413 Q313 413 321.5 403.5 Q330 394 328 380 L321 330 Z " />
<glyph glyph-name="oslash" unicode="&#xf8;" horiz-adv-x="550" d="M399 214 Q402 240 399.5 259.5 Q397 279 390 293 L292 100 Q310 100 327.5 105.5 Q345 111 359 123.5 Q373 136 383.5 158 Q394 180 399 214 Z M211 214 Q207 188 208.5 170 Q210 152 215 139 L312 329 Q274 326 246.5 300 Q219 274 211 214 Z M202 -78 Q197 -89 187 -97 Q177 -105 165 -105 L130 -105 Q119 -105 111.5 -97 Q104 -89 106 -78 L153 15 Q120 29 99.5 51 Q79 73 68 99 Q57 125 55 154.5 Q53 184 57 214 Q62 253 80 292.5 Q98 332 131.5 363.5 Q165 395 215.5 415 Q266 435 336 435 Q344 435 350.5 434.5 Q357 434 364 434 L410 522 Q415 533 425 541 Q435 549 447 549 L482 549 Q493 549 500.5 541 Q508 533 506 522 L452 415 Q485 401 506.5 378.5 Q528 356 540 329.5 Q552 303 554.5 273 Q557 243 553 214 Q547 174 529 134.5 Q511 95 478 63.5 Q445 32 395 13 Q345 -6 274 -6 Q265 -6 256 -5.5 Q247 -5 239 -4 L202 -78 Z " />
<glyph glyph-name="ugrave" unicode="&#xf9;" horiz-adv-x="546" d="M90 384 Q93 401 107 413 Q121 425 139 425 L207 425 Q225 425 236 413 Q247 401 244 384 L218 199 Q214 170 218 151 Q222 132 231 120.5 Q240 109 253 104.5 Q266 100 281 100 Q313 100 339.5 125.5 Q366 151 371 185 L398 384 Q401 401 415 413 Q429 425 447 425 L515 425 Q533 425 544 413 Q555 401 552 384 L504 41 Q502 24 488 12 Q474 0 456 0 L388 0 Q370 0 359 12 Q348 24 350 41 Q328 23 307.5 13.5 Q287 4 269.5 -0.5 Q252 -5 237 -5.5 Q222 -6 211 -6 Q130 -6 89.5 44 Q49 94 63 185 L90 384 Z M384 546 Q382 530 368.5 518.5 Q355 507 338 507 L298 507 Q281 507 267.5 519.5 Q254 532 246 546 L189 643 Q191 659 204.5 670.5 Q218 682 235 682 L309 682 Q326 682 338 670 Q350 658 355 643 L384 546 Z " />
<glyph glyph-name="uacute" unicode="&#xfa;" horiz-adv-x="546" d="M90 384 Q93 401 107 413 Q121 425 139 425 L207 425 Q225 425 236 413 Q247 401 244 384 L218 199 Q214 170 218 151 Q222 132 231 120.5 Q240 109 253 104.5 Q266 100 281 100 Q313 100 339.5 125.5 Q366 151 371 185 L398 384 Q401 401 415 413 Q429 425 447 425 L515 425 Q533 425 544 413 Q555 401 552 384 L504 41 Q502 24 488 12 Q474 0 456 0 L388 0 Q370 0 359 12 Q348 24 350 41 Q328 23 307.5 13.5 Q287 4 269.5 -0.5 Q252 -5 237 -5.5 Q222 -6 211 -6 Q130 -6 89.5 44 Q49 94 63 185 L90 384 Z M351 643 Q360 658 375 670 Q390 682 407 682 L481 682 Q498 682 508.5 670.5 Q519 659 517 643 L432 546 Q421 532 404 519.5 Q387 507 370 507 L330 507 Q313 507 302.5 518.5 Q292 530 294 546 L351 643 Z " />
<glyph glyph-name="ucircumflex" unicode="&#xfb;" horiz-adv-x="546" d="M90 384 Q93 401 107 413 Q121 425 139 425 L207 425 Q225 425 236 413 Q247 401 244 384 L218 199 Q214 170 218 151 Q222 132 231 120.5 Q240 109 253 104.5 Q266 100 281 100 Q313 100 339.5 125.5 Q366 151 371 185 L398 384 Q401 401 415 413 Q429 425 447 425 L515 425 Q533 425 544 413 Q555 401 552 384 L504 41 Q502 24 488 12 Q474 0 456 0 L388 0 Q370 0 359 12 Q348 24 350 41 Q328 23 307.5 13.5 Q287 4 269.5 -0.5 Q252 -5 237 -5.5 Q222 -6 211 -6 Q130 -6 89.5 44 Q49 94 63 185 L90 384 Z M408 722 Q426 722 434.5 709.5 Q443 697 450 681 L510 545 Q508 530 495 518.5 Q482 507 465 507 L412 507 Q395 507 384.5 518.5 Q374 530 369 545 L348 602 L311 545 Q301 530 288 518.5 Q275 507 258 507 L205 507 Q188 507 178 518.5 Q168 530 170 545 L268 681 Q279 697 291.5 709.5 Q304 722 322 722 L408 722 Z " />
<glyph glyph-name="udieresis" unicode="&#xfc;" horiz-adv-x="546" d="M90 384 Q93 401 107 413 Q121 425 139 425 L207 425 Q225 425 236 413 Q247 401 244 384 L218 199 Q214 170 218 151 Q222 132 231 120.5 Q240 109 253 104.5 Q266 100 281 100 Q313 100 339.5 125.5 Q366 151 371 185 L398 384 Q401 401 415 413 Q429 425 447 425 L515 425 Q533 425 544 413 Q555 401 552 384 L504 41 Q502 24 488 12 Q474 0 456 0 L388 0 Q370 0 359 12 Q348 24 350 41 Q328 23 307.5 13.5 Q287 4 269.5 -0.5 Q252 -5 237 -5.5 Q222 -6 211 -6 Q130 -6 89.5 44 Q49 94 63 185 L90 384 Z M312 548 Q309 531 295 519 Q281 507 263 507 L201 507 Q183 507 172 519 Q161 531 164 548 L172 611 Q174 628 188.5 640 Q203 652 221 652 L283 652 Q301 652 311.5 640 Q322 628 320 611 L312 548 Z M511 548 Q508 531 494 519 Q480 507 462 507 L400 507 Q382 507 371 519 Q360 531 363 548 L371 611 Q373 628 387.5 640 Q402 652 420 652 L482 652 Q500 652 510.5 640 Q521 628 519 611 L511 548 Z " />
<glyph glyph-name="yacute" unicode="&#xfd;" horiz-adv-x="513" d="M10 -183 Q-1 -181 -7.5 -172.5 Q-14 -164 -12 -151 L-6 -107 Q-4 -94 7 -85.5 Q18 -77 29 -77 Q45 -81 61 -81 Q102 -81 122.5 -65 Q143 -49 149 -7 Q150 2 149 12.5 Q148 23 147 29 L60 384 Q63 401 77 413 Q91 425 109 425 L182 425 Q200 425 212 412.5 Q224 400 226 384 L270 96 L393 384 Q400 400 415.5 412.5 Q431 425 449 425 L522 425 Q540 425 551 413 Q562 401 559 384 L371 17 Q331 -61 293 -103 Q255 -145 222 -165 Q189 -185 162.5 -188.5 Q136 -192 118 -192 Q77 -192 50.5 -189.5 Q24 -187 10 -183 Z M340 643 Q349 658 364 670 Q379 682 396 682 L470 682 Q487 682 497.5 670.5 Q508 659 506 643 L421 546 Q410 532 393 519.5 Q376 507 359 507 L319 507 Q302 507 291.5 518.5 Q281 530 283 546 L340 643 Z " />
<glyph glyph-name="thorn" unicode="&#xfe;" horiz-adv-x="557" d="M408 233 Q412 260 406.5 278.5 Q401 297 390 308 Q379 319 364 324 Q349 329 334 329 Q319 329 303 323.5 Q287 318 273 308.5 Q259 299 249 285.5 Q239 272 236 255 L226 178 Q223 162 228.5 147.5 Q234 133 245 122.5 Q256 112 271 106 Q286 100 302 100 Q317 100 334 107.5 Q351 115 365.5 129 Q380 143 390.5 163 Q401 183 405 209 L408 233 Z M256 392 Q294 424 332 429.5 Q370 435 401 435 Q447 435 480 419 Q513 403 533 374 Q553 345 560 305 Q567 265 560 216 Q554 170 534.5 129.5 Q515 89 486.5 59 Q458 29 421.5 11.5 Q385 -6 345 -6 Q329 -6 311 -4.5 Q293 -3 274.5 1.5 Q256 6 238.5 15.5 Q221 25 206 41 L182 -131 Q180 -148 165.5 -160 Q151 -172 133 -172 L65 -172 Q47 -172 36.5 -160 Q26 -148 28 -131 L123 544 Q125 561 139.5 573 Q154 585 172 585 L241 585 Q257 585 267 575.5 Q277 566 278 552 L256 392 Z " />
<glyph glyph-name="ydieresis" unicode="&#xff;" horiz-adv-x="513" d="M10 -183 Q-1 -181 -7.5 -172.5 Q-14 -164 -12 -151 L-6 -107 Q-4 -94 7 -85.5 Q18 -77 29 -77 Q45 -81 61 -81 Q102 -81 122.5 -65 Q143 -49 149 -7 Q150 2 149 12.5 Q148 23 147 29 L60 384 Q63 401 77 413 Q91 425 109 425 L182 425 Q200 425 212 412.5 Q224 400 226 384 L270 96 L393 384 Q400 400 415.5 412.5 Q431 425 449 425 L522 425 Q540 425 551 413 Q562 401 559 384 L371 17 Q331 -61 293 -103 Q255 -145 222 -165 Q189 -185 162.5 -188.5 Q136 -192 118 -192 Q77 -192 50.5 -189.5 Q24 -187 10 -183 Z M303 548 Q300 531 286 519 Q272 507 254 507 L192 507 Q174 507 163 519 Q152 531 155 548 L163 611 Q165 628 179.5 640 Q194 652 212 652 L274 652 Q292 652 302.5 640 Q313 628 311 611 L303 548 Z M502 548 Q499 531 485 519 Q471 507 453 507 L391 507 Q373 507 362 519 Q351 531 354 548 L362 611 Q364 628 378.5 640 Q393 652 411 652 L473 652 Q491 652 501.5 640 Q512 628 510 611 L502 548 Z " />
<glyph glyph-name="Amacron" unicode="&#x100;" horiz-adv-x="628" d="M478 585 Q496 585 506.5 572.5 Q517 560 520 544 L626 41 Q624 24 610 12 Q596 0 578 0 L505 0 Q487 0 475 12.5 Q463 25 460 41 L445 119 L215 119 L178 41 Q170 25 155.5 12.5 Q141 0 123 0 L50 0 Q32 0 21 12 Q10 24 12 41 L260 544 Q268 560 282 572.5 Q296 585 314 585 L478 585 Z M272 240 L422 240 L379 466 L272 240 Z M251 652 Q238 652 230.5 661.5 Q223 671 225 685 L232 737 Q234 751 244.5 760.5 Q255 770 268 770 L574 770 Q587 770 594.5 760.5 Q602 751 600 737 L593 685 Q591 671 580.5 661.5 Q570 652 557 652 L251 652 Z " />
<glyph glyph-name="amacron" unicode="&#x101;" horiz-adv-x="509" d="M199 132 Q198 120 202.5 113.5 Q207 107 216.5 104 Q226 101 239 100.5 Q252 100 266 100 Q277 100 298 106.5 Q319 113 340 128 L347 174 Q325 174 299.5 172 Q274 170 252.5 165 Q231 160 216 152 Q201 144 199 132 Z M112 343 Q144 394 194.5 414.5 Q245 435 309 435 Q377 435 419.5 421.5 Q462 408 484 380.5 Q506 353 510 311 Q514 269 506 211 L482 41 Q480 24 466 12 Q452 0 434 0 L366 0 Q348 0 337 12 Q326 24 328 41 Q307 23 284.5 13.5 Q262 4 241.5 -0.5 Q221 -5 203 -5.5 Q185 -6 172 -6 Q149 -6 124 1 Q99 8 79.5 23.5 Q60 39 49.5 64.5 Q39 90 44 127 Q51 176 84 204 Q117 232 163 246.5 Q209 261 261.5 265 Q314 269 360 269 Q365 304 347 316.5 Q329 329 299 329 Q285 329 267.5 326.5 Q250 324 235 312 Q222 300 203 300 L147 300 Q129 300 119.5 313 Q110 326 112 343 Z M182 507 Q169 507 161 516.5 Q153 526 155 540 L163 592 Q165 606 175 615.5 Q185 625 198 625 L517 625 Q530 625 538 615.5 Q546 606 544 592 L536 540 Q534 526 524 516.5 Q514 507 501 507 L182 507 Z " />
<glyph glyph-name="Abreve" unicode="&#x102;" horiz-adv-x="628" d="M478 585 Q496 585 506.5 572.5 Q517 560 520 544 L626 41 Q624 24 610 12 Q596 0 578 0 L505 0 Q487 0 475 12.5 Q463 25 460 41 L445 119 L215 119 L178 41 Q170 25 155.5 12.5 Q141 0 123 0 L50 0 Q32 0 21 12 Q10 24 12 41 L260 544 Q268 560 282 572.5 Q296 585 314 585 L478 585 Z M272 240 L422 240 L379 466 L272 240 Z M406 652 Q349 652 310 679.5 Q271 707 265 765 Q267 776 276.5 784.5 Q286 793 298 793 L345 793 Q355 793 361.5 788 Q368 783 370 775 Q377 755 390 748.5 Q403 742 419 742 Q435 742 450 748.5 Q465 755 476 775 Q481 783 489 788 Q497 793 507 793 L554 793 Q566 793 573.5 784.5 Q581 776 579 765 Q556 707 509.5 679.5 Q463 652 406 652 Z " />
<glyph glyph-name="abreve" unicode="&#x103;" horiz-adv-x="509" d="M199 132 Q198 120 202.5 113.5 Q207 107 216.5 104 Q226 101 239 100.5 Q252 100 266 100 Q277 100 298 106.5 Q319 113 340 128 L347 174 Q325 174 299.5 172 Q274 170 252.5 165 Q231 160 216 152 Q201 144 199 132 Z M112 343 Q144 394 194.5 414.5 Q245 435 309 435 Q377 435 419.5 421.5 Q462 408 484 380.5 Q506 353 510 311 Q514 269 506 211 L482 41 Q480 24 466 12 Q452 0 434 0 L366 0 Q348 0 337 12 Q326 24 328 41 Q307 23 284.5 13.5 Q262 4 241.5 -0.5 Q221 -5 203 -5.5 Q185 -6 172 -6 Q149 -6 124 1 Q99 8 79.5 23.5 Q60 39 49.5 64.5 Q39 90 44 127 Q51 176 84 204 Q117 232 163 246.5 Q209 261 261.5 265 Q314 269 360 269 Q365 304 347 316.5 Q329 329 299 329 Q285 329 267.5 326.5 Q250 324 235 312 Q222 300 203 300 L147 300 Q129 300 119.5 313 Q110 326 112 343 Z M342 507 Q285 507 246 534.5 Q207 562 201 620 Q203 631 212.5 639.5 Q222 648 234 648 L281 648 Q291 648 297.5 643 Q304 638 306 630 Q312 610 325 603.5 Q338 597 354 597 Q370 597 385 603.5 Q400 610 412 630 Q416 638 424.5 643 Q433 648 443 648 L490 648 Q502 648 509.5 639.5 Q517 631 515 620 Q492 562 445.5 534.5 Q399 507 342 507 Z " />
<glyph glyph-name="Aogonek" unicode="&#x104;" horiz-adv-x="628" d="M272 240 L422 240 L379 466 L272 240 Z M555 -194 Q530 -194 507.5 -187.5 Q485 -181 468.5 -167.5 Q452 -154 443.5 -134.5 Q435 -115 439 -89 Q442 -66 454 -42.5 Q466 -19 490 3 Q478 8 470 18.5 Q462 29 460 41 L445 119 L215 119 L178 41 Q170 25 155.5 12.5 Q141 0 123 0 L50 0 Q32 0 21 12 Q10 24 12 41 L260 544 Q268 560 282 572.5 Q296 585 314 585 L478 585 Q496 585 506.5 572.5 Q517 560 520 544 L626 41 Q624 27 613 16 Q602 5 588 1 Q571 -13 562.5 -27.5 Q554 -42 550 -65 Q547 -96 573 -106 Q595 -112 592 -133 L587 -169 Q585 -180 577 -187 Q569 -194 559 -194 L555 -194 Z " />
<glyph glyph-name="aogonek" unicode="&#x105;" horiz-adv-x="509" d="M199 132 Q198 120 202.5 113.5 Q207 107 216.5 104 Q226 101 239 100.5 Q252 100 266 100 Q277 100 298 106.5 Q319 113 340 128 L347 174 Q325 174 299.5 172 Q274 170 252.5 165 Q231 160 216 152 Q201 144 199 132 Z M422 -176 Q397 -176 374.5 -173 Q352 -170 336.5 -161.5 Q321 -153 313 -137 Q305 -121 309 -95 Q312 -73 327.5 -44.5 Q343 -16 370 1 Q345 1 335.5 14 Q326 27 328 41 Q307 23 284.5 13.5 Q262 4 241.5 -0.5 Q221 -5 203 -5.5 Q185 -6 172 -6 Q149 -6 124 1 Q99 8 79.5 23.5 Q60 39 49.5 64.5 Q39 90 44 127 Q51 176 84 204 Q117 232 163 246.5 Q209 261 261.5 265 Q314 269 360 269 Q365 304 347 316.5 Q329 329 299 329 Q285 329 267.5 326.5 Q250 324 235 312 Q222 300 203 300 L147 300 Q129 300 119.5 313 Q110 326 112 343 Q144 394 194.5 414.5 Q245 435 309 435 Q377 435 419.5 421.5 Q462 408 484 380.5 Q506 353 510 311 Q514 269 506 211 L482 41 Q480 26 475 14.5 Q470 3 455 1 Q441 -11 433.5 -21 Q426 -31 423 -51 Q421 -67 427 -79 Q433 -91 442 -91 Q451 -91 456.5 -97.5 Q462 -104 460 -115 L455 -152 Q453 -163 446 -169.5 Q439 -176 430 -176 L422 -176 Z " />
<glyph glyph-name="Cacute" unicode="&#x106;" horiz-adv-x="633" d="M482 178 Q493 194 503 197.5 Q513 201 523 201 L590 201 Q610 201 620 187 Q630 173 627 155 Q610 121 582.5 91.5 Q555 62 518 40 Q481 18 434 6 Q387 -6 330 -6 Q245 -6 191 22.5 Q137 51 107.5 94.5 Q78 138 69.5 189.5 Q61 241 67 287 Q74 336 97 390.5 Q120 445 162.5 490.5 Q205 536 267 566 Q329 596 414 596 Q470 596 513.5 583.5 Q557 571 588.5 549.5 Q620 528 639.5 498.5 Q659 469 667 435 Q664 417 650 403 Q636 389 616 389 L550 389 Q540 389 531 392.5 Q522 396 515 412 Q510 444 480 461 Q450 478 402 478 Q368 478 337.5 464 Q307 450 283 424.5 Q259 399 243 364 Q227 329 221 287 Q210 209 243.5 160.5 Q277 112 346 112 Q396 112 432 128 Q468 144 482 178 Z M435 788 Q444 803 459.5 815 Q475 827 492 827 L566 827 Q583 827 593 815.5 Q603 804 601 788 L517 691 Q505 677 488 664.5 Q471 652 454 652 L414 652 Q397 652 387 663.5 Q377 675 379 691 L435 788 Z " />
<glyph glyph-name="cacute" unicode="&#x107;" horiz-adv-x="519" d="M372 139 Q383 155 392.5 158.5 Q402 162 412 162 L475 162 Q495 162 505 148 Q515 134 513 116 Q486 59 429 26.5 Q372 -6 276 -6 Q205 -6 159.5 13 Q114 32 89.5 63.5 Q65 95 58 134.5 Q51 174 57 214 Q62 253 80 292.5 Q98 332 132 363.5 Q166 395 216.5 415 Q267 435 338 435 Q391 435 427 425 Q463 415 486.5 398.5 Q510 382 522.5 359.5 Q535 337 540 311 Q538 293 524 279 Q510 265 490 265 L427 265 Q417 265 408 268.5 Q399 272 392 288 Q387 311 370 320 Q353 329 323 329 Q273 329 246 303 Q219 277 211 214 Q202 151 221.5 125.5 Q241 100 291 100 Q319 100 339 106.5 Q359 113 372 139 Z M346 643 Q355 658 370 670 Q385 682 402 682 L476 682 Q493 682 503.5 670.5 Q514 659 512 643 L427 546 Q416 532 399 519.5 Q382 507 365 507 L325 507 Q308 507 297.5 518.5 Q287 530 289 546 L346 643 Z " />
<glyph glyph-name="Ccircumflex" unicode="&#x108;" horiz-adv-x="633" d="M482 178 Q493 194 503 197.5 Q513 201 523 201 L590 201 Q610 201 620 187 Q630 173 627 155 Q610 121 582.5 91.5 Q555 62 518 40 Q481 18 434 6 Q387 -6 330 -6 Q245 -6 191 22.5 Q137 51 107.5 94.5 Q78 138 69.5 189.5 Q61 241 67 287 Q74 336 97 390.5 Q120 445 162.5 490.5 Q205 536 267 566 Q329 596 414 596 Q470 596 513.5 583.5 Q557 571 588.5 549.5 Q620 528 639.5 498.5 Q659 469 667 435 Q664 417 650 403 Q636 389 616 389 L550 389 Q540 389 531 392.5 Q522 396 515 412 Q510 444 480 461 Q450 478 402 478 Q368 478 337.5 464 Q307 450 283 424.5 Q259 399 243 364 Q227 329 221 287 Q210 209 243.5 160.5 Q277 112 346 112 Q396 112 432 128 Q468 144 482 178 Z M495 867 Q513 867 522 854.5 Q531 842 538 826 L597 690 Q595 675 582 663.5 Q569 652 552 652 L499 652 Q482 652 472 663.5 Q462 675 456 690 L435 747 L398 690 Q389 675 375.5 663.5 Q362 652 345 652 L292 652 Q275 652 265 663.5 Q255 675 257 690 L356 826 Q367 842 379 854.5 Q391 867 409 867 L495 867 Z " />
<glyph glyph-name="ccircumflex" unicode="&#x109;" horiz-adv-x="519" d="M372 139 Q383 155 392.5 158.5 Q402 162 412 162 L475 162 Q495 162 505 148 Q515 134 513 116 Q486 59 429 26.5 Q372 -6 276 -6 Q205 -6 159.5 13 Q114 32 89.5 63.5 Q65 95 58 134.5 Q51 174 57 214 Q62 253 80 292.5 Q98 332 132 363.5 Q166 395 216.5 415 Q267 435 338 435 Q391 435 427 425 Q463 415 486.5 398.5 Q510 382 522.5 359.5 Q535 337 540 311 Q538 293 524 279 Q510 265 490 265 L427 265 Q417 265 408 268.5 Q399 272 392 288 Q387 311 370 320 Q353 329 323 329 Q273 329 246 303 Q219 277 211 214 Q202 151 221.5 125.5 Q241 100 291 100 Q319 100 339 106.5 Q359 113 372 139 Z M430 722 Q448 722 456.5 709.5 Q465 697 472 681 L532 545 Q530 530 517 518.5 Q504 507 487 507 L434 507 Q417 507 406.5 518.5 Q396 530 391 545 L370 602 L333 545 Q323 530 310 518.5 Q297 507 280 507 L227 507 Q210 507 200 518.5 Q190 530 192 545 L290 681 Q301 697 313.5 709.5 Q326 722 344 722 L430 722 Z " />
<glyph glyph-name="Cdotaccent" unicode="&#x10a;" horiz-adv-x="633" d="M482 178 Q493 194 503 197.5 Q513 201 523 201 L590 201 Q610 201 620 187 Q630 173 627 155 Q610 121 582.5 91.5 Q555 62 518 40 Q481 18 434 6 Q387 -6 330 -6 Q245 -6 191 22.5 Q137 51 107.5 94.5 Q78 138 69.5 189.5 Q61 241 67 287 Q74 336 97 390.5 Q120 445 162.5 490.5 Q205 536 267 566 Q329 596 414 596 Q470 596 513.5 583.5 Q557 571 588.5 549.5 Q620 528 639.5 498.5 Q659 469 667 435 Q664 417 650 403 Q636 389 616 389 L550 389 Q540 389 531 392.5 Q522 396 515 412 Q510 444 480 461 Q450 478 402 478 Q368 478 337.5 464 Q307 450 283 424.5 Q259 399 243 364 Q227 329 221 287 Q210 209 243.5 160.5 Q277 112 346 112 Q396 112 432 128 Q468 144 482 178 Z M495 693 Q493 676 478.5 664 Q464 652 446 652 L384 652 Q366 652 355.5 664 Q345 676 347 693 L356 756 Q358 773 372.5 785 Q387 797 405 797 L467 797 Q485 797 495.5 785 Q506 773 504 756 L495 693 Z " />
<glyph glyph-name="cdotaccent" unicode="&#x10b;" horiz-adv-x="519" d="M372 139 Q383 155 392.5 158.5 Q402 162 412 162 L475 162 Q495 162 505 148 Q515 134 513 116 Q486 59 429 26.5 Q372 -6 276 -6 Q205 -6 159.5 13 Q114 32 89.5 63.5 Q65 95 58 134.5 Q51 174 57 214 Q62 253 80 292.5 Q98 332 132 363.5 Q166 395 216.5 415 Q267 435 338 435 Q391 435 427 425 Q463 415 486.5 398.5 Q510 382 522.5 359.5 Q535 337 540 311 Q538 293 524 279 Q510 265 490 265 L427 265 Q417 265 408 268.5 Q399 272 392 288 Q387 311 370 320 Q353 329 323 329 Q273 329 246 303 Q219 277 211 214 Q202 151 221.5 125.5 Q241 100 291 100 Q319 100 339 106.5 Q359 113 372 139 Z M433 548 Q430 531 416 519 Q402 507 384 507 L322 507 Q304 507 293 519 Q282 531 285 548 L293 611 Q295 628 309.5 640 Q324 652 342 652 L404 652 Q422 652 432.5 640 Q443 628 441 611 L433 548 Z " />
<glyph glyph-name="Ccaron" unicode="&#x10c;" horiz-adv-x="633" d="M482 178 Q493 194 503 197.5 Q513 201 523 201 L590 201 Q610 201 620 187 Q630 173 627 155 Q610 121 582.5 91.5 Q555 62 518 40 Q481 18 434 6 Q387 -6 330 -6 Q245 -6 191 22.5 Q137 51 107.5 94.5 Q78 138 69.5 189.5 Q61 241 67 287 Q74 336 97 390.5 Q120 445 162.5 490.5 Q205 536 267 566 Q329 596 414 596 Q470 596 513.5 583.5 Q557 571 588.5 549.5 Q620 528 639.5 498.5 Q659 469 667 435 Q664 417 650 403 Q636 389 616 389 L550 389 Q540 389 531 392.5 Q522 396 515 412 Q510 444 480 461 Q450 478 402 478 Q368 478 337.5 464 Q307 450 283 424.5 Q259 399 243 364 Q227 329 221 287 Q210 209 243.5 160.5 Q277 112 346 112 Q396 112 432 128 Q468 144 482 178 Z M391 652 Q373 652 364.5 664.5 Q356 677 349 693 L289 829 Q291 844 304 855.5 Q317 867 334 867 L387 867 Q404 867 414.5 855.5 Q425 844 430 829 L451 772 L488 829 Q498 844 511 855.5 Q524 867 541 867 L594 867 Q611 867 621 855.5 Q631 844 629 829 L531 693 Q520 677 507.5 664.5 Q495 652 477 652 L391 652 Z " />
<glyph glyph-name="ccaron" unicode="&#x10d;" horiz-adv-x="519" d="M372 139 Q383 155 392.5 158.5 Q402 162 412 162 L475 162 Q495 162 505 148 Q515 134 513 116 Q486 59 429 26.5 Q372 -6 276 -6 Q205 -6 159.5 13 Q114 32 89.5 63.5 Q65 95 58 134.5 Q51 174 57 214 Q62 253 80 292.5 Q98 332 132 363.5 Q166 395 216.5 415 Q267 435 338 435 Q391 435 427 425 Q463 415 486.5 398.5 Q510 382 522.5 359.5 Q535 337 540 311 Q538 293 524 279 Q510 265 490 265 L427 265 Q417 265 408 268.5 Q399 272 392 288 Q387 311 370 320 Q353 329 323 329 Q273 329 246 303 Q219 277 211 214 Q202 151 221.5 125.5 Q241 100 291 100 Q319 100 339 106.5 Q359 113 372 139 Z M303 507 Q285 507 276.5 519.5 Q268 532 261 548 L201 684 Q203 699 216 710.5 Q229 722 246 722 L299 722 Q316 722 326 710.5 Q336 699 342 684 L363 627 L400 684 Q409 699 422.5 710.5 Q436 722 453 722 L506 722 Q523 722 533 710.5 Q543 699 541 684 L443 548 Q432 532 419.5 519.5 Q407 507 389 507 L303 507 Z " />
<glyph glyph-name="Dcaron" unicode="&#x10e;" horiz-adv-x="606" d="M266 467 L217 118 L308 118 Q374 118 414.5 166 Q455 214 466 293 Q490 467 357 467 L266 467 Z M361 585 Q445 585 498.5 558 Q552 531 581.5 488.5 Q611 446 619 394.5 Q627 343 620 293 Q613 247 590.5 195.5 Q568 144 527 100.5 Q486 57 424.5 28.5 Q363 0 279 0 L90 0 Q72 0 61 12 Q50 24 52 41 L123 544 Q125 561 139.5 573 Q154 585 172 585 L361 585 Z M323 652 Q305 652 296.5 664.5 Q288 677 281 693 L221 829 Q223 844 236 855.5 Q249 867 266 867 L319 867 Q336 867 346.5 855.5 Q357 844 362 829 L383 772 L420 829 Q430 844 443 855.5 Q456 867 473 867 L526 867 Q543 867 553 855.5 Q563 844 561 829 L463 693 Q452 677 439.5 664.5 Q427 652 409 652 L323 652 Z " />
<glyph glyph-name="dcaron" unicode="&#x10f;" horiz-adv-x="750" d="M210 209 Q206 183 211.5 163 Q217 143 227.5 129 Q238 115 253 107.5 Q268 100 283 100 Q299 100 315.5 106 Q332 112 345.5 122.5 Q359 133 368.5 147.5 Q378 162 381 178 L391 255 Q394 272 388 285.5 Q382 299 370.5 308.5 Q359 318 344.5 323.5 Q330 329 315 329 Q300 329 283.5 324 Q267 319 252.5 308 Q238 297 227.5 278.5 Q217 260 213 233 L210 209 Z M515 41 Q513 24 499 12 Q485 0 467 0 L399 0 Q381 0 370 12 Q359 24 361 41 Q322 9 282 1.5 Q242 -6 210 -6 Q170 -6 138.5 11.5 Q107 29 87 59 Q67 89 59 129.5 Q51 170 57 216 Q64 265 82 305 Q100 345 128.5 374 Q157 403 194.5 419 Q232 435 278 435 Q294 435 311.5 434.5 Q329 434 346 430 Q363 426 380 417.5 Q397 409 411 393 L432 544 Q434 561 448.5 573 Q463 585 481 585 L549 585 Q567 585 577.5 573 Q588 561 586 544 L515 41 Z M678 546 Q687 561 702.5 573 Q718 585 735 585 L789 585 Q806 585 816 573.5 Q826 562 824 546 L762 451 Q750 437 737.5 424.5 Q725 412 708 412 L672 412 Q655 412 645 423.5 Q635 435 637 451 L678 546 Z " />
<glyph glyph-name="Dcroat" unicode="&#x110;" horiz-adv-x="633" d="M388 585 Q472 585 525.5 558 Q579 531 608.5 488.5 Q638 446 646 394.5 Q654 343 647 293 Q640 247 617.5 195.5 Q595 144 554 100.5 Q513 57 451.5 28.5 Q390 0 306 0 L117 0 Q99 0 88 12 Q77 24 79 41 L107 238 L65 238 Q53 238 45.5 247.5 Q38 257 40 271 L47 322 Q49 336 59 345 Q69 354 81 354 L123 354 L150 544 Q152 561 166.5 573 Q181 585 199 585 L388 585 Z M261 238 L244 118 L335 118 Q401 118 441.5 166 Q482 214 493 293 Q517 467 384 467 L293 467 L277 354 L335 354 Q347 354 355 345 Q363 336 361 322 L354 271 Q352 257 341.5 247.5 Q331 238 319 238 L261 238 Z " />
<glyph glyph-name="dcroat" unicode="&#x111;" horiz-adv-x="556" d="M575 464 L515 41 Q513 24 499 12 Q485 0 467 0 L399 0 Q381 0 370 12 Q359 24 361 41 Q322 9 282 1.5 Q242 -6 210 -6 Q170 -6 138.5 11.5 Q107 29 87 59 Q67 89 59 129.5 Q51 170 57 216 Q64 265 82 305 Q100 345 128.5 374 Q157 403 194.5 419 Q232 435 278 435 Q294 435 311.5 434.5 Q329 434 346 430 Q363 426 380 417.5 Q397 409 411 393 L421 464 L353 464 Q343 464 336.5 471 Q330 478 332 489 L338 529 Q340 540 347.5 547 Q355 554 365 554 L434 554 Q439 567 452.5 576 Q466 585 481 585 L549 585 Q564 585 574 576 Q584 567 586 554 L607 554 Q617 554 623.5 547 Q630 540 628 529 L622 489 Q620 478 612.5 471 Q605 464 595 464 L575 464 Z M210 209 Q206 183 211.5 163 Q217 143 227.5 129 Q238 115 253 107.5 Q268 100 283 100 Q299 100 315.5 106 Q332 112 345.5 122.5 Q359 133 368.5 147.5 Q378 162 381 178 L391 255 Q394 272 388 285.5 Q382 299 370.5 308.5 Q359 318 344.5 323.5 Q330 329 315 329 Q300 329 283.5 324 Q267 319 252.5 308 Q238 297 227.5 278.5 Q217 260 213 233 L210 209 Z " />
<glyph glyph-name="Emacron" unicode="&#x112;" horiz-adv-x="520" d="M437 350 Q450 350 457.5 340.5 Q465 331 463 317 L455 263 Q453 249 443 239.5 Q433 230 420 230 L233 230 L217 118 L473 118 Q486 118 493.5 108.5 Q501 99 499 85 L492 33 Q490 19 480 9.5 Q470 0 457 0 L90 0 Q72 0 61 12 Q50 24 52 41 L123 544 Q125 561 139.5 573 Q154 585 172 585 L539 585 Q552 585 559.5 575.5 Q567 566 565 552 L558 500 Q556 486 545.5 476.5 Q535 467 522 467 L266 467 L250 350 L437 350 Z M205 652 Q192 652 184.5 661.5 Q177 671 179 685 L186 737 Q188 751 198.5 760.5 Q209 770 222 770 L528 770 Q541 770 548.5 760.5 Q556 751 554 737 L547 685 Q545 671 534.5 661.5 Q524 652 511 652 L205 652 Z " />
<glyph glyph-name="emacron" unicode="&#x113;" horiz-adv-x="529" d="M317 329 Q289 329 263.5 318 Q238 307 218 264 L397 264 Q394 286 386 299 Q378 312 367 318.5 Q356 325 343.5 327 Q331 329 317 329 Z M537 214 Q534 196 520 183.5 Q506 171 488 171 L205 171 Q204 130 225.5 115 Q247 100 285 100 Q298 100 314 101.5 Q330 103 341 111 Q357 125 367.5 129.5 Q378 134 388 134 L446 134 Q466 134 476 120 Q486 106 484 88 Q455 49 400.5 21.5 Q346 -6 271 -6 Q201 -6 156.5 14.5 Q112 35 88 67 Q64 99 58 138 Q52 177 57 214 Q62 252 79 291.5 Q96 331 128.5 363 Q161 395 210.5 415 Q260 435 330 435 Q400 435 443 415 Q486 395 508.5 363.5 Q531 332 536.5 292.5 Q542 253 537 214 Z M183 507 Q170 507 162 516.5 Q154 526 156 540 L164 592 Q166 606 176 615.5 Q186 625 199 625 L517 625 Q530 625 538 615.5 Q546 606 544 592 L536 540 Q534 526 524 516.5 Q514 507 501 507 L183 507 Z " />
<glyph glyph-name="Edotaccent" unicode="&#x116;" horiz-adv-x="520" d="M437 350 Q450 350 457.5 340.5 Q465 331 463 317 L455 263 Q453 249 443 239.5 Q433 230 420 230 L233 230 L217 118 L473 118 Q486 118 493.5 108.5 Q501 99 499 85 L492 33 Q490 19 480 9.5 Q470 0 457 0 L90 0 Q72 0 61 12 Q50 24 52 41 L123 544 Q125 561 139.5 573 Q154 585 172 585 L539 585 Q552 585 559.5 575.5 Q567 566 565 552 L558 500 Q556 486 545.5 476.5 Q535 467 522 467 L266 467 L250 350 L437 350 Z M448 693 Q446 676 431.5 664 Q417 652 399 652 L337 652 Q319 652 308.5 664 Q298 676 300 693 L309 756 Q311 773 325.5 785 Q340 797 358 797 L420 797 Q438 797 448.5 785 Q459 773 457 756 L448 693 Z " />
<glyph glyph-name="edotaccent" unicode="&#x117;" horiz-adv-x="529" d="M317 329 Q289 329 263.5 318 Q238 307 218 264 L397 264 Q394 286 386 299 Q378 312 367 318.5 Q356 325 343.5 327 Q331 329 317 329 Z M537 214 Q534 196 520 183.5 Q506 171 488 171 L205 171 Q204 130 225.5 115 Q247 100 285 100 Q298 100 314 101.5 Q330 103 341 111 Q357 125 367.5 129.5 Q378 134 388 134 L446 134 Q466 134 476 120 Q486 106 484 88 Q455 49 400.5 21.5 Q346 -6 271 -6 Q201 -6 156.5 14.5 Q112 35 88 67 Q64 99 58 138 Q52 177 57 214 Q62 252 79 291.5 Q96 331 128.5 363 Q161 395 210.5 415 Q260 435 330 435 Q400 435 443 415 Q486 395 508.5 363.5 Q531 332 536.5 292.5 Q542 253 537 214 Z M426 548 Q423 531 409 519 Q395 507 377 507 L315 507 Q297 507 286 519 Q275 531 278 548 L286 611 Q288 628 302.5 640 Q317 652 335 652 L397 652 Q415 652 425.5 640 Q436 628 434 611 L426 548 Z " />
<glyph glyph-name="Eogonek" unicode="&#x118;" horiz-adv-x="520" d="M405 -196 Q380 -196 356.5 -189.5 Q333 -183 315.5 -169.5 Q298 -156 288.5 -136.5 Q279 -117 283 -91 Q286 -68 296.5 -45 Q307 -22 331 0 L90 0 Q72 0 61 12 Q50 24 52 41 L123 544 Q125 561 139.5 573 Q154 585 172 585 L539 585 Q552 585 559.5 575.5 Q567 566 565 552 L558 500 Q556 486 545.5 476.5 Q535 467 522 467 L266 467 L250 350 L437 350 Q450 350 457.5 340.5 Q465 331 463 317 L455 263 Q453 249 443 239.5 Q433 230 420 230 L233 230 L217 118 L473 118 Q486 118 493.5 108.5 Q501 99 499 85 L492 33 Q490 19 480 9.5 Q470 0 457 0 L439 0 Q420 -15 409 -29 Q398 -43 394 -67 Q392 -86 405 -99 Q418 -112 446 -112 Q456 -112 463 -119 Q470 -126 468 -137 L463 -171 Q461 -182 453.5 -189 Q446 -196 436 -196 L405 -196 Z " />
<glyph glyph-name="eogonek" unicode="&#x119;" horiz-adv-x="529" d="M281 -196 Q256 -196 232.5 -189.5 Q209 -183 191.5 -169.5 Q174 -156 164.5 -136.5 Q155 -117 159 -91 Q162 -68 172.5 -45.5 Q183 -23 207 0 Q157 9 125.5 31.5 Q94 54 77 83.5 Q60 113 56 147 Q52 181 57 214 Q62 252 79 291.5 Q96 331 128.5 363 Q161 395 210.5 415 Q260 435 330 435 Q400 435 443 415 Q486 395 508.5 363.5 Q531 332 536.5 292.5 Q542 253 537 214 Q534 196 520 183.5 Q506 171 488 171 L205 171 Q204 130 225.5 115 Q247 100 285 100 Q298 100 314 101.5 Q330 103 341 111 Q357 125 367.5 129.5 Q378 134 388 134 L446 134 Q466 134 476 120 Q486 106 484 88 Q459 54 414.5 28.5 Q370 3 310 -4 Q293 -18 283 -31 Q273 -44 270 -67 Q268 -86 281 -99 Q294 -112 322 -112 Q332 -112 339 -119 Q346 -126 344 -137 L339 -171 Q337 -182 329.5 -189 Q322 -196 312 -196 L281 -196 Z M317 329 Q289 329 263.5 318 Q238 307 218 264 L397 264 Q394 286 386 299 Q378 312 367 318.5 Q356 325 343.5 327 Q331 329 317 329 Z " />
<glyph glyph-name="Ecaron" unicode="&#x11a;" horiz-adv-x="520" d="M437 350 Q450 350 457.5 340.5 Q465 331 463 317 L455 263 Q453 249 443 239.5 Q433 230 420 230 L233 230 L217 118 L473 118 Q486 118 493.5 108.5 Q501 99 499 85 L492 33 Q490 19 480 9.5 Q470 0 457 0 L90 0 Q72 0 61 12 Q50 24 52 41 L123 544 Q125 561 139.5 573 Q154 585 172 585 L539 585 Q552 585 559.5 575.5 Q567 566 565 552 L558 500 Q556 486 545.5 476.5 Q535 467 522 467 L266 467 L250 350 L437 350 Z M323 652 Q305 652 296.5 664.5 Q288 677 281 693 L221 829 Q223 844 236 855.5 Q249 867 266 867 L319 867 Q336 867 346.5 855.5 Q357 844 362 829 L383 772 L420 829 Q430 844 443 855.5 Q456 867 473 867 L526 867 Q543 867 553 855.5 Q563 844 561 829 L463 693 Q452 677 439.5 664.5 Q427 652 409 652 L323 652 Z " />
<glyph glyph-name="ecaron" unicode="&#x11b;" horiz-adv-x="529" d="M317 329 Q289 329 263.5 318 Q238 307 218 264 L397 264 Q394 286 386 299 Q378 312 367 318.5 Q356 325 343.5 327 Q331 329 317 329 Z M537 214 Q534 196 520 183.5 Q506 171 488 171 L205 171 Q204 130 225.5 115 Q247 100 285 100 Q298 100 314 101.5 Q330 103 341 111 Q357 125 367.5 129.5 Q378 134 388 134 L446 134 Q466 134 476 120 Q486 106 484 88 Q455 49 400.5 21.5 Q346 -6 271 -6 Q201 -6 156.5 14.5 Q112 35 88 67 Q64 99 58 138 Q52 177 57 214 Q62 252 79 291.5 Q96 331 128.5 363 Q161 395 210.5 415 Q260 435 330 435 Q400 435 443 415 Q486 395 508.5 363.5 Q531 332 536.5 292.5 Q542 253 537 214 Z M298 507 Q280 507 271.5 519.5 Q263 532 256 548 L196 684 Q198 699 211 710.5 Q224 722 241 722 L294 722 Q311 722 321 710.5 Q331 699 337 684 L358 627 L395 684 Q404 699 417.5 710.5 Q431 722 448 722 L501 722 Q518 722 528 710.5 Q538 699 536 684 L438 548 Q427 532 414.5 519.5 Q402 507 384 507 L298 507 Z " />
<glyph glyph-name="Gcircumflex" unicode="&#x11c;" horiz-adv-x="655" d="M626 316 Q639 316 646.5 306.5 Q654 297 652 283 L616 25 Q614 14 607 7 Q600 0 590 0 L531 0 Q517 0 509 9 Q501 18 503 31 L503 48 Q465 18 422.5 6 Q380 -6 331 -6 Q246 -6 192 22.5 Q138 51 108 94.5 Q78 138 69.5 189.5 Q61 241 67 287 Q74 336 97 390.5 Q120 445 162.5 490.5 Q205 536 267 566 Q329 596 414 596 Q471 596 514.5 583.5 Q558 571 589.5 549.5 Q621 528 640 498.5 Q659 469 667 435 Q664 417 649.5 403 Q635 389 615 389 L549 389 Q539 389 530 392.5 Q521 396 514 412 Q509 446 479 462 Q449 478 408 478 Q371 478 339 464 Q307 450 282.5 424.5 Q258 399 242.5 364 Q227 329 221 287 Q210 209 243.5 160.5 Q277 112 346 112 Q410 112 448 132.5 Q486 153 509 203 L434 203 Q422 203 414.5 211.5 Q407 220 409 234 L417 285 Q419 299 428.5 307.5 Q438 316 450 316 L626 316 Z M493 867 Q511 867 520 854.5 Q529 842 536 826 L595 690 Q593 675 580 663.5 Q567 652 550 652 L497 652 Q480 652 470 663.5 Q460 675 454 690 L433 747 L396 690 Q387 675 373.5 663.5 Q360 652 343 652 L290 652 Q273 652 263 663.5 Q253 675 255 690 L354 826 Q365 842 377 854.5 Q389 867 407 867 L493 867 Z " />
<glyph glyph-name="gcircumflex" unicode="&#x11d;" horiz-adv-x="557" d="M210 209 Q206 183 211.5 163 Q217 143 227.5 129 Q238 115 253 107.5 Q268 100 283 100 Q299 100 315.5 106 Q332 112 345.5 122.5 Q359 133 368.5 147.5 Q378 162 381 178 L391 255 Q394 272 388 285.5 Q382 299 370.5 308.5 Q359 318 344.5 323.5 Q330 329 315 329 Q300 329 283.5 324 Q267 319 252.5 308 Q238 297 227.5 278.5 Q217 260 213 233 L210 209 Z M203 -79 Q213 -90 227.5 -93.5 Q242 -97 261 -97 Q307 -97 327.5 -75.5 Q348 -54 354 -12 L361 41 Q322 9 282 1.5 Q242 -6 210 -6 Q170 -6 138.5 11.5 Q107 29 87 59 Q67 89 59 129.5 Q51 170 57 216 Q64 265 82 305 Q100 345 128.5 374 Q157 403 194.5 419 Q232 435 278 435 Q294 435 311.5 434.5 Q329 434 346 430 Q363 426 380 417.5 Q397 409 411 393 Q416 407 429 416 Q442 425 458 425 L526 425 Q544 425 555 413 Q566 401 563 384 L513 28 Q506 -26 488.5 -68.5 Q471 -111 439 -141 Q407 -171 358.5 -187 Q310 -203 240 -203 Q164 -203 115 -173.5 Q66 -144 46 -107 Q49 -90 63 -78 Q77 -66 95 -66 L174 -66 Q193 -66 203 -79 Z M422 722 Q440 722 448.5 709.5 Q457 697 464 681 L524 545 Q522 530 509 518.5 Q496 507 479 507 L426 507 Q409 507 398.5 518.5 Q388 530 383 545 L362 602 L325 545 Q315 530 302 518.5 Q289 507 272 507 L219 507 Q202 507 192 518.5 Q182 530 184 545 L282 681 Q293 697 305.5 709.5 Q318 722 336 722 L422 722 Z " />
<glyph glyph-name="Gbreve" unicode="&#x11e;" horiz-adv-x="655" d="M626 316 Q639 316 646.5 306.5 Q654 297 652 283 L616 25 Q614 14 607 7 Q600 0 590 0 L531 0 Q517 0 509 9 Q501 18 503 31 L503 48 Q465 18 422.5 6 Q380 -6 331 -6 Q246 -6 192 22.5 Q138 51 108 94.5 Q78 138 69.5 189.5 Q61 241 67 287 Q74 336 97 390.5 Q120 445 162.5 490.5 Q205 536 267 566 Q329 596 414 596 Q471 596 514.5 583.5 Q558 571 589.5 549.5 Q621 528 640 498.5 Q659 469 667 435 Q664 417 649.5 403 Q635 389 615 389 L549 389 Q539 389 530 392.5 Q521 396 514 412 Q509 446 479 462 Q449 478 408 478 Q371 478 339 464 Q307 450 282.5 424.5 Q258 399 242.5 364 Q227 329 221 287 Q210 209 243.5 160.5 Q277 112 346 112 Q410 112 448 132.5 Q486 153 509 203 L434 203 Q422 203 414.5 211.5 Q407 220 409 234 L417 285 Q419 299 428.5 307.5 Q438 316 450 316 L626 316 Z M421 652 Q364 652 325 679.5 Q286 707 280 765 Q282 776 291.5 784.5 Q301 793 313 793 L360 793 Q370 793 376.5 788 Q383 783 385 775 Q392 755 405 748.5 Q418 742 434 742 Q450 742 465 748.5 Q480 755 491 775 Q496 783 504 788 Q512 793 522 793 L569 793 Q581 793 588.5 784.5 Q596 776 594 765 Q571 707 524.5 679.5 Q478 652 421 652 Z " />
<glyph glyph-name="gbreve" unicode="&#x11f;" horiz-adv-x="557" d="M210 209 Q206 183 211.5 163 Q217 143 227.5 129 Q238 115 253 107.5 Q268 100 283 100 Q299 100 315.5 106 Q332 112 345.5 122.5 Q359 133 368.5 147.5 Q378 162 381 178 L391 255 Q394 272 388 285.5 Q382 299 370.5 308.5 Q359 318 344.5 323.5 Q330 329 315 329 Q300 329 283.5 324 Q267 319 252.5 308 Q238 297 227.5 278.5 Q217 260 213 233 L210 209 Z M203 -79 Q213 -90 227.5 -93.5 Q242 -97 261 -97 Q307 -97 327.5 -75.5 Q348 -54 354 -12 L361 41 Q322 9 282 1.5 Q242 -6 210 -6 Q170 -6 138.5 11.5 Q107 29 87 59 Q67 89 59 129.5 Q51 170 57 216 Q64 265 82 305 Q100 345 128.5 374 Q157 403 194.5 419 Q232 435 278 435 Q294 435 311.5 434.5 Q329 434 346 430 Q363 426 380 417.5 Q397 409 411 393 Q416 407 429 416 Q442 425 458 425 L526 425 Q544 425 555 413 Q566 401 563 384 L513 28 Q506 -26 488.5 -68.5 Q471 -111 439 -141 Q407 -171 358.5 -187 Q310 -203 240 -203 Q164 -203 115 -173.5 Q66 -144 46 -107 Q49 -90 63 -78 Q77 -66 95 -66 L174 -66 Q193 -66 203 -79 Z M339 507 Q282 507 243 534.5 Q204 562 198 620 Q200 631 209.5 639.5 Q219 648 231 648 L278 648 Q288 648 294.5 643 Q301 638 303 630 Q309 610 322 603.5 Q335 597 351 597 Q367 597 382 603.5 Q397 610 409 630 Q413 638 421.5 643 Q430 648 440 648 L487 648 Q499 648 506.5 639.5 Q514 631 512 620 Q489 562 442.5 534.5 Q396 507 339 507 Z " />
<glyph glyph-name="Gdotaccent" unicode="&#x120;" horiz-adv-x="655" d="M626 316 Q639 316 646.5 306.5 Q654 297 652 283 L616 25 Q614 14 607 7 Q600 0 590 0 L531 0 Q517 0 509 9 Q501 18 503 31 L503 48 Q465 18 422.5 6 Q380 -6 331 -6 Q246 -6 192 22.5 Q138 51 108 94.5 Q78 138 69.5 189.5 Q61 241 67 287 Q74 336 97 390.5 Q120 445 162.5 490.5 Q205 536 267 566 Q329 596 414 596 Q471 596 514.5 583.5 Q558 571 589.5 549.5 Q621 528 640 498.5 Q659 469 667 435 Q664 417 649.5 403 Q635 389 615 389 L549 389 Q539 389 530 392.5 Q521 396 514 412 Q509 446 479 462 Q449 478 408 478 Q371 478 339 464 Q307 450 282.5 424.5 Q258 399 242.5 364 Q227 329 221 287 Q210 209 243.5 160.5 Q277 112 346 112 Q410 112 448 132.5 Q486 153 509 203 L434 203 Q422 203 414.5 211.5 Q407 220 409 234 L417 285 Q419 299 428.5 307.5 Q438 316 450 316 L626 316 Z M500 693 Q498 676 483.5 664 Q469 652 451 652 L389 652 Q371 652 360.5 664 Q350 676 352 693 L361 756 Q363 773 377.5 785 Q392 797 410 797 L472 797 Q490 797 500.5 785 Q511 773 509 756 L500 693 Z " />
<glyph glyph-name="gdotaccent" unicode="&#x121;" horiz-adv-x="557" d="M210 209 Q206 183 211.5 163 Q217 143 227.5 129 Q238 115 253 107.5 Q268 100 283 100 Q299 100 315.5 106 Q332 112 345.5 122.5 Q359 133 368.5 147.5 Q378 162 381 178 L391 255 Q394 272 388 285.5 Q382 299 370.5 308.5 Q359 318 344.5 323.5 Q330 329 315 329 Q300 329 283.5 324 Q267 319 252.5 308 Q238 297 227.5 278.5 Q217 260 213 233 L210 209 Z M203 -79 Q213 -90 227.5 -93.5 Q242 -97 261 -97 Q307 -97 327.5 -75.5 Q348 -54 354 -12 L361 41 Q322 9 282 1.5 Q242 -6 210 -6 Q170 -6 138.5 11.5 Q107 29 87 59 Q67 89 59 129.5 Q51 170 57 216 Q64 265 82 305 Q100 345 128.5 374 Q157 403 194.5 419 Q232 435 278 435 Q294 435 311.5 434.5 Q329 434 346 430 Q363 426 380 417.5 Q397 409 411 393 Q416 407 429 416 Q442 425 458 425 L526 425 Q544 425 555 413 Q566 401 563 384 L513 28 Q506 -26 488.5 -68.5 Q471 -111 439 -141 Q407 -171 358.5 -187 Q310 -203 240 -203 Q164 -203 115 -173.5 Q66 -144 46 -107 Q49 -90 63 -78 Q77 -66 95 -66 L174 -66 Q193 -66 203 -79 Z M413 548 Q410 531 396 519 Q382 507 364 507 L302 507 Q284 507 273 519 Q262 531 265 548 L273 611 Q275 628 289.5 640 Q304 652 322 652 L384 652 Q402 652 412.5 640 Q423 628 421 611 L413 548 Z " />
<glyph glyph-name="uni0122" unicode="&#x122;" horiz-adv-x="655" d="M626 316 Q639 316 646.5 306.5 Q654 297 652 283 L616 25 Q614 14 607 7 Q600 0 590 0 L531 0 Q517 0 509 9 Q501 18 503 31 L503 48 Q465 18 422.5 6 Q380 -6 331 -6 Q246 -6 192 22.5 Q138 51 108 94.5 Q78 138 69.5 189.5 Q61 241 67 287 Q74 336 97 390.5 Q120 445 162.5 490.5 Q205 536 267 566 Q329 596 414 596 Q471 596 514.5 583.5 Q558 571 589.5 549.5 Q621 528 640 498.5 Q659 469 667 435 Q664 417 649.5 403 Q635 389 615 389 L549 389 Q539 389 530 392.5 Q521 396 514 412 Q509 446 479 462 Q449 478 408 478 Q371 478 339 464 Q307 450 282.5 424.5 Q258 399 242.5 364 Q227 329 221 287 Q210 209 243.5 160.5 Q277 112 346 112 Q410 112 448 132.5 Q486 153 509 203 L434 203 Q422 203 414.5 211.5 Q407 220 409 234 L417 285 Q419 299 428.5 307.5 Q438 316 450 316 L626 316 Z M240 -129 Q249 -114 264 -102 Q279 -90 302 -90 L336 -90 Q353 -90 363 -101.5 Q373 -113 371 -129 L327 -218 Q315 -232 303 -244.5 Q291 -257 274 -257 L238 -257 Q221 -257 215 -245.5 Q209 -234 211 -218 L240 -129 Z " />
<glyph glyph-name="uni0123" unicode="&#x123;" horiz-adv-x="557" d="M210 209 Q206 183 211.5 163 Q217 143 227.5 129 Q238 115 253 107.5 Q268 100 283 100 Q299 100 315.5 106 Q332 112 345.5 122.5 Q359 133 368.5 147.5 Q378 162 381 178 L391 255 Q394 272 388 285.5 Q382 299 370.5 308.5 Q359 318 344.5 323.5 Q330 329 315 329 Q300 329 283.5 324 Q267 319 252.5 308 Q238 297 227.5 278.5 Q217 260 213 233 L210 209 Z M203 -79 Q213 -90 227.5 -93.5 Q242 -97 261 -97 Q307 -97 327.5 -75.5 Q348 -54 354 -12 L361 41 Q322 9 282 1.5 Q242 -6 210 -6 Q170 -6 138.5 11.5 Q107 29 87 59 Q67 89 59 129.5 Q51 170 57 216 Q64 265 82 305 Q100 345 128.5 374 Q157 403 194.5 419 Q232 435 278 435 Q294 435 311.5 434.5 Q329 434 346 430 Q363 426 380 417.5 Q397 409 411 393 Q416 407 429 416 Q442 425 458 425 L526 425 Q544 425 555 413 Q566 401 563 384 L513 28 Q506 -26 488.5 -68.5 Q471 -111 439 -141 Q407 -171 358.5 -187 Q310 -203 240 -203 Q164 -203 115 -173.5 Q66 -144 46 -107 Q49 -90 63 -78 Q77 -66 95 -66 L174 -66 Q193 -66 203 -79 Z M380 643 Q389 658 404 670 Q419 682 436 682 L493 682 Q510 682 520.5 670.5 Q531 659 529 643 L470 546 Q459 532 437.5 519.5 Q416 507 399 507 L359 507 Q342 507 331.5 518.5 Q321 530 323 546 L380 643 Z " />
<glyph glyph-name="Hcircumflex" unicode="&#x124;" horiz-adv-x="614" d="M572 41 Q570 24 556 12 Q542 0 524 0 L456 0 Q438 0 427 12 Q416 24 418 41 L444 221 L232 221 L206 41 Q204 24 190 12 Q176 0 158 0 L90 0 Q72 0 61 12 Q50 24 52 41 L123 544 Q125 561 139.5 573 Q154 585 172 585 L240 585 Q258 585 268.5 573 Q279 561 277 544 L249 342 L461 342 L489 544 Q491 561 505.5 573 Q520 585 538 585 L606 585 Q624 585 634.5 573 Q645 561 643 544 L572 41 Z M471 867 Q489 867 498 854.5 Q507 842 514 826 L573 690 Q571 675 558 663.5 Q545 652 528 652 L475 652 Q458 652 448 663.5 Q438 675 432 690 L411 747 L374 690 Q365 675 351.5 663.5 Q338 652 321 652 L268 652 Q251 652 241 663.5 Q231 675 233 690 L332 826 Q343 842 355 854.5 Q367 867 385 867 L471 867 Z " />
<glyph glyph-name="hcircumflex" unicode="&#x125;" horiz-adv-x="546" d="M514 41 Q512 24 498 12 Q484 0 466 0 L398 0 Q380 0 369 12 Q358 24 360 41 L387 230 Q395 289 377.5 309 Q360 329 330 329 Q315 329 299.5 322.5 Q284 316 270.5 305 Q257 294 247.5 279 Q238 264 235 247 L206 41 Q204 24 190 12 Q176 0 158 0 L90 0 Q72 0 61 12 Q50 24 52 41 L123 544 Q125 561 139.5 573 Q154 585 172 585 L240 585 Q258 585 268.5 573 Q279 561 277 544 L254 383 Q272 403 292 413.5 Q312 424 330.5 428.5 Q349 433 365.5 434 Q382 435 393 435 Q474 435 515 385 Q556 335 543 244 L514 41 Z M402 867 Q420 867 429 854.5 Q438 842 445 826 L504 690 Q502 675 489 663.5 Q476 652 459 652 L406 652 Q389 652 379 663.5 Q369 675 363 690 L342 747 L305 690 Q296 675 282.5 663.5 Q269 652 252 652 L199 652 Q182 652 172 663.5 Q162 675 164 690 L263 826 Q274 842 286 854.5 Q298 867 316 867 L402 867 Z " />
<glyph glyph-name="Hbar" unicode="&#x126;" horiz-adv-x="701" d="M669 420 L615 41 Q613 24 599 12 Q585 0 567 0 L499 0 Q481 0 470 12 Q459 24 461 41 L487 221 L275 221 L249 41 Q247 24 233 12 Q219 0 201 0 L133 0 Q115 0 104 12 Q93 24 95 41 L149 420 L88 420 Q77 420 70 428 Q63 436 65 449 L71 495 Q73 508 82 516 Q91 524 102 524 L163 524 L166 544 Q168 561 182.5 573 Q197 585 215 585 L283 585 Q301 585 311.5 573 Q322 561 320 544 L317 524 L529 524 L532 544 Q534 561 548.5 573 Q563 585 581 585 L649 585 Q667 585 677.5 573 Q688 561 686 544 L683 524 L745 524 Q756 524 763 516 Q770 508 768 495 L762 449 Q760 436 751 428 Q742 420 731 420 L669 420 Z M504 342 L515 420 L303 420 L292 342 L504 342 Z " />
<glyph glyph-name="hbar" unicode="&#x127;" horiz-adv-x="565" d="M273 383 Q291 403 311 413.5 Q331 424 349.5 428.5 Q368 433 384.5 434 Q401 435 412 435 Q493 435 534 385 Q575 335 562 244 L533 41 Q531 24 517 12 Q503 0 485 0 L417 0 Q399 0 388 12 Q377 24 379 41 L406 230 Q414 289 396.5 309 Q379 329 349 329 Q334 329 318.5 322.5 Q303 316 289.5 305 Q276 294 266.5 279 Q257 264 254 247 L225 41 Q223 24 209 12 Q195 0 177 0 L109 0 Q91 0 80 12 Q69 24 71 41 L131 465 L91 465 Q81 465 74.5 472 Q68 479 70 490 L76 527 Q78 538 85.5 545 Q93 552 103 552 L144 552 Q149 565 162.5 575 Q176 585 191 585 L259 585 Q274 585 284 575 Q294 565 296 552 L332 552 Q342 552 348.5 545 Q355 538 353 527 L347 490 Q345 479 337.5 472 Q330 465 320 465 L285 465 L273 383 Z " />
<glyph glyph-name="Itilde" unicode="&#x128;" horiz-adv-x="250" d="M207 41 Q205 24 191 12 Q177 0 159 0 L91 0 Q73 0 62 12 Q51 24 53 41 L124 544 Q126 561 140.5 573 Q155 585 173 585 L241 585 Q259 585 269.5 573 Q280 561 278 544 L207 41 Z M287 652 Q270 652 254 657 Q238 662 224 669 Q205 676 187.5 682 Q170 688 150 688 L104 681 Q94 681 86.5 687.5 Q79 694 78 705 L70 752 Q70 759 71 762 Q74 787 97 793 Q117 800 136.5 803 Q156 806 167 806 Q184 806 200 801 Q216 796 231 790 Q248 782 265.5 776 Q283 770 304 770 L350 777 Q360 777 367 770.5 Q374 764 376 753 L384 706 Q384 699 383 696 Q380 671 357 665 Q337 658 317.5 655 Q298 652 287 652 Z " />
<glyph glyph-name="itilde" unicode="&#x129;" horiz-adv-x="250" d="M207 41 Q205 24 191 12 Q177 0 159 0 L91 0 Q73 0 62 12 Q51 24 53 41 L101 384 Q104 401 118 413 Q132 425 150 425 L218 425 Q236 425 247 413 Q258 401 255 384 L207 41 Z M267 507 Q250 507 234 512 Q218 517 203 524 Q184 531 167 537 Q150 543 130 543 L84 536 Q74 536 66.5 542.5 Q59 549 57 560 L50 607 Q49 609 49.5 612 Q50 615 50 617 Q52 628 59 636.5 Q66 645 77 648 Q97 655 116 658 Q135 661 146 661 Q163 661 179 656 Q195 651 210 645 Q227 637 244.5 631 Q262 625 283 625 L329 632 Q339 632 346.5 625.5 Q354 619 356 608 L363 561 Q364 559 363.5 556 Q363 553 363 551 Q361 540 354 531.5 Q347 523 337 520 Q317 513 297.5 510 Q278 507 267 507 Z " />
<glyph glyph-name="Imacron" unicode="&#x12a;" horiz-adv-x="250" d="M207 41 Q205 24 191 12 Q177 0 159 0 L91 0 Q73 0 62 12 Q51 24 53 41 L124 544 Q126 561 140.5 573 Q155 585 173 585 L241 585 Q259 585 269.5 573 Q280 561 278 544 L207 41 Z M104 652 Q91 652 83.5 661.5 Q76 671 78 685 L85 737 Q87 751 97.5 760.5 Q108 770 121 770 L345 770 Q358 770 365.5 760.5 Q373 751 371 737 L364 685 Q362 671 351.5 661.5 Q341 652 328 652 L104 652 Z " />
<glyph glyph-name="imacron" unicode="&#x12b;" horiz-adv-x="250" d="M207 41 Q205 24 191 12 Q177 0 159 0 L91 0 Q73 0 62 12 Q51 24 53 41 L101 384 Q104 401 118 413 Q132 425 150 425 L218 425 Q236 425 247 413 Q258 401 255 384 L207 41 Z M84 507 Q71 507 63 516.5 Q55 526 57 540 L65 592 Q67 606 77 615.5 Q87 625 100 625 L324 625 Q337 625 345 615.5 Q353 606 351 592 L343 540 Q341 526 331 516.5 Q321 507 308 507 L84 507 Z " />
<glyph glyph-name="Iogonek" unicode="&#x12e;" horiz-adv-x="250" d="M207 41 Q205 28 196 18 Q187 8 174 3 Q157 -11 149 -26.5 Q141 -42 137 -65 Q136 -72 138 -80.5 Q140 -89 146 -96 Q152 -103 162.5 -107.5 Q173 -112 191 -112 Q202 -115 207.5 -120 Q213 -125 211 -136 L206 -172 Q204 -183 196.5 -189.5 Q189 -196 179 -196 L157 -196 Q132 -196 107 -190.5 Q82 -185 62.5 -172.5 Q43 -160 32.5 -139.5 Q22 -119 26 -89 Q29 -66 41 -42.5 Q53 -19 77 3 Q66 8 58.5 18.5 Q51 29 53 41 L124 544 Q126 561 140.5 573 Q155 585 173 585 L241 585 Q259 585 269.5 573 Q280 561 278 544 L207 41 Z " />
<glyph glyph-name="iogonek" unicode="&#x12f;" horiz-adv-x="250" d="M207 41 Q205 28 196 18 Q187 8 174 3 Q157 -11 149 -26.5 Q141 -42 137 -65 Q136 -72 138 -80.5 Q140 -89 146 -96 Q152 -103 162.5 -107.5 Q173 -112 191 -112 Q202 -115 207.5 -120 Q213 -125 211 -136 L206 -172 Q204 -183 196.5 -189.5 Q189 -196 179 -196 L157 -196 Q132 -196 107 -190.5 Q82 -185 62.5 -172.5 Q43 -160 32.5 -139.5 Q22 -119 26 -89 Q29 -66 41 -42.5 Q53 -19 77 3 Q66 8 58.5 18.5 Q51 29 53 41 L101 384 Q104 401 118 413 Q132 425 150 425 L218 425 Q236 425 247 413 Q258 401 255 384 L207 41 Z M274 517 Q272 500 257.5 488 Q243 476 225 476 L157 476 Q139 476 128.5 488 Q118 500 120 517 L126 555 Q128 572 142 584 Q156 596 174 596 L242 596 Q260 596 271 584 Q282 572 280 555 L274 517 Z " />
<glyph glyph-name="Idotaccent" unicode="&#x130;" horiz-adv-x="250" d="M207 41 Q205 24 191 12 Q177 0 159 0 L91 0 Q73 0 62 12 Q51 24 53 41 L124 544 Q126 561 140.5 573 Q155 585 173 585 L241 585 Q259 585 269.5 573 Q280 561 278 544 L207 41 Z M299 693 Q297 676 282.5 664 Q268 652 250 652 L182 652 Q164 652 153.5 664 Q143 676 145 693 L150 731 Q152 748 166.5 760 Q181 772 199 772 L267 772 Q285 772 295.5 760 Q306 748 304 731 L299 693 Z " />
<glyph glyph-name="dotlessi" unicode="&#x131;" horiz-adv-x="248" d="M206 41 Q204 24 190 12 Q176 0 158 0 L90 0 Q72 0 61 12 Q50 24 52 41 L100 384 Q103 401 117 413 Q131 425 149 425 L217 425 Q235 425 246 413 Q257 401 254 384 L206 41 Z " />
<glyph glyph-name="Jcircumflex" unicode="&#x134;" horiz-adv-x="531" d="M194 161 Q199 132 217.5 122 Q236 112 264 112 Q300 112 325.5 131 Q351 150 359 208 L406 544 Q408 561 422.5 573 Q437 585 455 585 L523 585 Q541 585 551.5 573 Q562 561 560 544 L513 208 Q507 169 491 130.5 Q475 92 443.5 62 Q412 32 364.5 13 Q317 -6 248 -6 Q190 -6 149.5 7.5 Q109 21 84 44 Q59 67 47.5 97.5 Q36 128 34 161 Q36 178 50.5 190 Q65 202 83 202 L157 202 Q175 202 183 190 Q191 178 194 161 Z M458 867 Q476 867 485 854.5 Q494 842 501 826 L560 690 Q558 675 545 663.5 Q532 652 515 652 L462 652 Q445 652 435 663.5 Q425 675 419 690 L398 747 L361 690 Q352 675 338.5 663.5 Q325 652 308 652 L255 652 Q238 652 228 663.5 Q218 675 220 690 L319 826 Q330 842 342 854.5 Q354 867 372 867 L458 867 Z " />
<glyph glyph-name="jcircumflex" unicode="&#x135;" horiz-adv-x="250" d="M-56 -209 Q-67 -209 -74.5 -200.5 Q-82 -192 -80 -179 L-72 -127 Q-70 -114 -59.5 -105.5 Q-49 -97 -38 -97 L-26 -97 Q9 -97 23.5 -81 Q38 -65 41 -44 L101 384 Q104 401 118 413 Q132 425 150 425 L218 425 Q236 425 247 413 Q258 401 255 384 L198 -23 Q186 -113 143.5 -163 Q101 -213 22 -213 Q8 -213 -13 -212 Q-34 -211 -56 -209 Z M267 722 Q285 722 293.5 709.5 Q302 697 309 681 L369 545 Q367 530 354 518.5 Q341 507 324 507 L271 507 Q254 507 243.5 518.5 Q233 530 228 545 L207 602 L170 545 Q160 530 147 518.5 Q134 507 117 507 L64 507 Q47 507 37 518.5 Q27 530 29 545 L127 681 Q138 697 150.5 709.5 Q163 722 181 722 L267 722 Z " />
<glyph glyph-name="uni0136" unicode="&#x136;" horiz-adv-x="619" d="M617 41 Q615 24 601 12 Q587 0 569 0 L498 0 Q480 0 464.5 12.5 Q449 25 443 41 L350 272 L223 159 L206 41 Q204 24 190 12 Q176 0 158 0 L90 0 Q72 0 61 12 Q50 24 52 41 L123 544 Q125 561 139.5 573 Q154 585 172 585 L240 585 Q258 585 268.5 573 Q279 561 277 544 L251 361 L461 550 Q487 575 504 580 Q521 585 539 585 L611 585 Q629 585 639.5 573 Q650 561 648 544 L480 389 Q495 350 513 306 Q531 262 549 216 Q567 170 584.5 125.5 Q602 81 617 41 Z M237 -129 Q246 -114 261 -102 Q276 -90 299 -90 L333 -90 Q350 -90 360 -101.5 Q370 -113 368 -129 L324 -218 Q312 -232 300 -244.5 Q288 -257 271 -257 L235 -257 Q218 -257 212 -245.5 Q206 -234 208 -218 L237 -129 Z " />
<glyph glyph-name="uni0137" unicode="&#x137;" horiz-adv-x="511" d="M509 41 Q507 24 492.5 12 Q478 0 460 0 L375 0 Q352 0 342 17 L227 190 L206 41 Q204 24 190 12 Q176 0 158 0 L90 0 Q72 0 61 12 Q50 24 52 41 L123 544 Q125 561 139.5 573 Q154 585 172 585 L240 585 Q258 585 268.5 573 Q279 561 277 544 L240 282 L258 282 L395 408 Q410 425 432 425 L517 425 Q535 425 546 413 Q557 401 554 384 L390 227 L509 41 Z M190 -129 Q199 -114 214 -102 Q229 -90 252 -90 L286 -90 Q303 -90 313 -101.5 Q323 -113 321 -129 L277 -218 Q265 -232 253 -244.5 Q241 -257 224 -257 L188 -257 Q171 -257 165 -245.5 Q159 -234 161 -218 L190 -129 Z " />
<glyph glyph-name="kgreenlandic" unicode="&#x138;" horiz-adv-x="511" d="M509 41 Q507 24 492.5 12 Q478 0 460 0 L375 0 Q352 0 342 17 L227 190 L206 41 Q204 24 190 12 Q176 0 158 0 L90 0 Q72 0 61 12 Q50 24 52 41 L100 384 Q103 401 117 413 Q131 425 149 425 L217 425 Q235 425 246 413 Q257 401 254 384 L240 282 L258 282 L395 408 Q410 425 432 425 L517 425 Q535 425 546 413 Q557 401 554 384 L390 227 L509 41 Z " />
<glyph glyph-name="Lacute" unicode="&#x139;" horiz-adv-x="510" d="M473 118 Q486 118 493.5 108.5 Q501 99 499 85 L492 33 Q490 19 480 9.5 Q470 0 457 0 L90 0 Q72 0 61 12 Q50 24 52 41 L123 544 Q125 561 139.5 573 Q154 585 172 585 L240 585 Q258 585 268.5 573 Q279 561 277 544 L217 118 L473 118 Z M229 788 Q238 803 253.5 815 Q269 827 286 827 L360 827 Q377 827 387 815.5 Q397 804 395 788 L311 691 Q299 677 282 664.5 Q265 652 248 652 L208 652 Q191 652 181 663.5 Q171 675 173 691 L229 788 Z " />
<glyph glyph-name="lacute" unicode="&#x13a;" horiz-adv-x="250" d="M207 41 Q205 24 191 12 Q177 0 159 0 L91 0 Q73 0 62 12 Q51 24 53 41 L124 544 Q126 561 140.5 573 Q155 585 173 585 L241 585 Q259 585 269.5 573 Q280 561 278 544 L207 41 Z M233 788 Q242 803 257.5 815 Q273 827 290 827 L364 827 Q381 827 391 815.5 Q401 804 399 788 L315 691 Q303 677 286 664.5 Q269 652 252 652 L212 652 Q195 652 185 663.5 Q175 675 177 691 L233 788 Z " />
<glyph glyph-name="uni013B" unicode="&#x13b;" horiz-adv-x="510" d="M473 118 Q486 118 493.5 108.5 Q501 99 499 85 L492 33 Q490 19 480 9.5 Q470 0 457 0 L90 0 Q72 0 61 12 Q50 24 52 41 L123 544 Q125 561 139.5 573 Q154 585 172 585 L240 585 Q258 585 268.5 573 Q279 561 277 544 L217 118 L473 118 Z M171 -129 Q180 -114 195 -102 Q210 -90 233 -90 L267 -90 Q284 -90 294 -101.5 Q304 -113 302 -129 L258 -218 Q246 -232 234 -244.5 Q222 -257 205 -257 L169 -257 Q152 -257 146 -245.5 Q140 -234 142 -218 L171 -129 Z " />
<glyph glyph-name="uni013C" unicode="&#x13c;" horiz-adv-x="250" d="M207 41 Q205 24 191 12 Q177 0 159 0 L91 0 Q73 0 62 12 Q51 24 53 41 L124 544 Q126 561 140.5 573 Q155 585 173 585 L241 585 Q259 585 269.5 573 Q280 561 278 544 L207 41 Z M35 -129 Q44 -114 59 -102 Q74 -90 97 -90 L131 -90 Q148 -90 158 -101.5 Q168 -113 166 -129 L122 -218 Q110 -232 98 -244.5 Q86 -257 69 -257 L33 -257 Q16 -257 10 -245.5 Q4 -234 6 -218 L35 -129 Z " />
<glyph glyph-name="Lcaron" unicode="&#x13d;" horiz-adv-x="510" d="M473 118 Q486 118 493.5 108.5 Q501 99 499 85 L492 33 Q490 19 480 9.5 Q470 0 457 0 L90 0 Q72 0 61 12 Q50 24 52 41 L123 544 Q125 561 139.5 573 Q154 585 172 585 L240 585 Q258 585 268.5 573 Q279 561 277 544 L217 118 L473 118 Z M396 546 Q405 561 420.5 573 Q436 585 453 585 L507 585 Q524 585 534 573.5 Q544 562 542 546 L480 451 Q468 437 455.5 424.5 Q443 412 426 412 L390 412 Q373 412 363 423.5 Q353 435 355 451 L396 546 Z " />
<glyph glyph-name="lcaron" unicode="&#x13e;" horiz-adv-x="439" d="M206 41 Q204 24 190 12 Q176 0 158 0 L90 0 Q72 0 61 12 Q50 24 52 41 L123 544 Q125 561 139.5 573 Q154 585 172 585 L240 585 Q258 585 268.5 573 Q279 561 277 544 L206 41 Z M367 546 Q376 561 391.5 573 Q407 585 424 585 L478 585 Q495 585 505 573.5 Q515 562 513 546 L451 451 Q439 437 426.5 424.5 Q414 412 397 412 L361 412 Q344 412 334 423.5 Q324 435 326 451 L367 546 Z " />
<glyph glyph-name="Lslash" unicode="&#x141;" horiz-adv-x="575" d="M162 362 L188 544 Q190 561 204.5 573 Q219 585 237 585 L305 585 Q323 585 333.5 573 Q344 561 342 544 L322 401 L397 420 Q410 420 417.5 410.5 Q425 401 423 387 L416 335 Q414 321 404 313 Q394 305 380 302 L305 283 L282 118 L538 118 Q551 118 558.5 108.5 Q566 99 564 85 L557 33 Q555 19 545 9.5 Q535 0 522 0 L155 0 Q137 0 126 12 Q115 24 117 41 L146 244 L74 226 Q61 226 53.5 235.5 Q46 245 48 259 L55 311 Q57 325 67 333 Q77 341 91 344 L162 362 Z " />
<glyph glyph-name="lslash" unicode="&#x142;" horiz-adv-x="381" d="M164 362 L190 544 Q192 561 206.5 573 Q221 585 239 585 L307 585 Q325 585 335.5 573 Q346 561 344 544 L324 402 L397 420 Q410 420 417.5 410.5 Q425 401 423 387 L416 335 Q414 321 404 313 Q394 305 380 302 L307 284 L273 41 Q271 24 257 12 Q243 0 225 0 L157 0 Q139 0 128 12 Q117 24 119 41 L148 244 L74 226 Q61 226 53.5 235.5 Q46 245 48 259 L55 311 Q57 325 67 333 Q77 341 91 344 L164 362 Z " />
<glyph glyph-name="Nacute" unicode="&#x143;" horiz-adv-x="652" d="M484 238 L527 544 Q529 561 543.5 573 Q558 585 576 585 L644 585 Q662 585 672.5 573 Q683 561 681 544 L610 41 Q608 24 594 12 Q580 0 562 0 L478 0 Q460 0 443 11 Q426 22 415 41 L251 356 L206 41 Q204 24 190 12 Q176 0 158 0 L90 0 Q72 0 61 12 Q50 24 52 41 L123 544 Q125 561 139.5 573 Q154 585 172 585 L261 585 Q279 585 296.5 574.5 Q314 564 323 544 L484 238 Z M420 788 Q429 803 444.5 815 Q460 827 477 827 L551 827 Q568 827 578 815.5 Q588 804 586 788 L502 691 Q490 677 473 664.5 Q456 652 439 652 L399 652 Q382 652 372 663.5 Q362 675 364 691 L420 788 Z " />
<glyph glyph-name="nacute" unicode="&#x144;" horiz-adv-x="546" d="M100 384 Q103 401 117 413 Q131 425 149 425 L217 425 Q235 425 245.5 412.5 Q256 400 254 383 Q272 403 292 413.5 Q312 424 330.5 428.5 Q349 433 365.5 434 Q382 435 393 435 Q474 435 515 385 Q556 335 543 244 L514 41 Q512 24 498 12 Q484 0 466 0 L398 0 Q380 0 369 12 Q358 24 360 41 L387 230 Q395 289 377.5 309 Q360 329 330 329 Q315 329 299.5 322.5 Q284 316 270.5 305 Q257 294 247.5 279 Q238 264 235 247 L206 41 Q204 24 190 12 Q176 0 158 0 L90 0 Q72 0 61 12 Q50 24 52 41 L100 384 Z M372 643 Q381 658 396 670 Q411 682 428 682 L502 682 Q519 682 529.5 670.5 Q540 659 538 643 L453 546 Q442 532 425 519.5 Q408 507 391 507 L351 507 Q334 507 323.5 518.5 Q313 530 315 546 L372 643 Z " />
<glyph glyph-name="uni0145" unicode="&#x145;" horiz-adv-x="652" d="M484 238 L527 544 Q529 561 543.5 573 Q558 585 576 585 L644 585 Q662 585 672.5 573 Q683 561 681 544 L610 41 Q608 24 594 12 Q580 0 562 0 L478 0 Q460 0 443 11 Q426 22 415 41 L251 356 L206 41 Q204 24 190 12 Q176 0 158 0 L90 0 Q72 0 61 12 Q50 24 52 41 L123 544 Q125 561 139.5 573 Q154 585 172 585 L261 585 Q279 585 296.5 574.5 Q314 564 323 544 L484 238 Z M218 -129 Q227 -114 242 -102 Q257 -90 280 -90 L314 -90 Q331 -90 341 -101.5 Q351 -113 349 -129 L305 -218 Q293 -232 281 -244.5 Q269 -257 252 -257 L216 -257 Q199 -257 193 -245.5 Q187 -234 189 -218 L218 -129 Z " />
<glyph glyph-name="uni0146" unicode="&#x146;" horiz-adv-x="546" d="M100 384 Q103 401 117 413 Q131 425 149 425 L217 425 Q235 425 245.5 412.5 Q256 400 254 383 Q272 403 292 413.5 Q312 424 330.5 428.5 Q349 433 365.5 434 Q382 435 393 435 Q474 435 515 385 Q556 335 543 244 L514 41 Q512 24 498 12 Q484 0 466 0 L398 0 Q380 0 369 12 Q358 24 360 41 L387 230 Q395 289 377.5 309 Q360 329 330 329 Q315 329 299.5 322.5 Q284 316 270.5 305 Q257 294 247.5 279 Q238 264 235 247 L206 41 Q204 24 190 12 Q176 0 158 0 L90 0 Q72 0 61 12 Q50 24 52 41 L100 384 Z M181 -129 Q190 -114 205 -102 Q220 -90 243 -90 L277 -90 Q294 -90 304 -101.5 Q314 -113 312 -129 L268 -218 Q256 -232 244 -244.5 Q232 -257 215 -257 L179 -257 Q162 -257 156 -245.5 Q150 -234 152 -218 L181 -129 Z " />
<glyph glyph-name="Ncaron" unicode="&#x147;" horiz-adv-x="652" d="M484 238 L527 544 Q529 561 543.5 573 Q558 585 576 585 L644 585 Q662 585 672.5 573 Q683 561 681 544 L610 41 Q608 24 594 12 Q580 0 562 0 L478 0 Q460 0 443 11 Q426 22 415 41 L251 356 L206 41 Q204 24 190 12 Q176 0 158 0 L90 0 Q72 0 61 12 Q50 24 52 41 L123 544 Q125 561 139.5 573 Q154 585 172 585 L261 585 Q279 585 296.5 574.5 Q314 564 323 544 L484 238 Z M374 652 Q356 652 347.5 664.5 Q339 677 332 693 L272 829 Q274 844 287 855.5 Q300 867 317 867 L370 867 Q387 867 397.5 855.5 Q408 844 413 829 L434 772 L471 829 Q481 844 494 855.5 Q507 867 524 867 L577 867 Q594 867 604 855.5 Q614 844 612 829 L514 693 Q503 677 490.5 664.5 Q478 652 460 652 L374 652 Z " />
<glyph glyph-name="ncaron" unicode="&#x148;" horiz-adv-x="546" d="M100 384 Q103 401 117 413 Q131 425 149 425 L217 425 Q235 425 245.5 412.5 Q256 400 254 383 Q272 403 292 413.5 Q312 424 330.5 428.5 Q349 433 365.5 434 Q382 435 393 435 Q474 435 515 385 Q556 335 543 244 L514 41 Q512 24 498 12 Q484 0 466 0 L398 0 Q380 0 369 12 Q358 24 360 41 L387 230 Q395 289 377.5 309 Q360 329 330 329 Q315 329 299.5 322.5 Q284 316 270.5 305 Q257 294 247.5 279 Q238 264 235 247 L206 41 Q204 24 190 12 Q176 0 158 0 L90 0 Q72 0 61 12 Q50 24 52 41 L100 384 Z M316 507 Q298 507 289.5 519.5 Q281 532 274 548 L214 684 Q216 699 229 710.5 Q242 722 259 722 L312 722 Q329 722 339 710.5 Q349 699 355 684 L376 627 L413 684 Q422 699 435.5 710.5 Q449 722 466 722 L519 722 Q536 722 546 710.5 Q556 699 554 684 L456 548 Q445 532 432.5 519.5 Q420 507 402 507 L316 507 Z " />
<glyph glyph-name="Eng" unicode="&#x14a;" horiz-adv-x="652" d="M346 -209 Q335 -209 327.5 -200.5 Q320 -192 322 -179 L330 -127 Q332 -114 341.5 -105.5 Q351 -97 362 -97 L376 -97 Q412 -97 426.5 -81 Q441 -65 444 -44 L447 -22 L251 356 L206 41 Q204 24 190 12 Q176 0 158 0 L90 0 Q72 0 61 12 Q50 24 52 41 L123 544 Q125 561 139.5 573 Q154 585 172 585 L261 585 Q279 585 295.5 574 Q312 563 323 544 L484 238 L527 544 Q529 561 543.5 573 Q558 585 576 585 L644 585 Q662 585 672.5 573 Q683 561 681 544 L601 -23 Q589 -113 546.5 -163 Q504 -213 425 -213 Q412 -213 389.5 -212 Q367 -211 346 -209 Z " />
<glyph glyph-name="eng" unicode="&#x14b;" horiz-adv-x="546" d="M505 -23 Q493 -113 450.5 -163 Q408 -213 329 -213 Q315 -213 293.5 -212 Q272 -211 250 -209 Q239 -209 231.5 -200.5 Q224 -192 226 -179 L234 -127 Q236 -114 246.5 -105.5 Q257 -97 268 -97 L280 -97 Q316 -97 330.5 -81 Q345 -65 348 -44 L387 230 Q395 289 377.5 309 Q360 329 330 329 Q315 329 299.5 322.5 Q284 316 270.5 305 Q257 294 247.5 279 Q238 264 235 247 L206 41 Q204 24 190 12 Q176 0 158 0 L90 0 Q72 0 61 12 Q50 24 52 41 L100 384 Q103 401 117 413 Q131 425 149 425 L217 425 Q235 425 245.5 412.5 Q256 400 254 383 Q272 403 292 413.5 Q312 424 330.5 428.5 Q349 433 365.5 434 Q382 435 393 435 Q474 435 515 385 Q556 335 543 244 L505 -23 Z " />
<glyph glyph-name="Omacron" unicode="&#x14c;" horiz-adv-x="656" d="M343 112 Q412 112 458 160.5 Q504 209 515 287 Q521 329 515.5 364 Q510 399 495 424.5 Q480 450 455 464 Q430 478 395 478 Q361 478 331.5 464 Q302 450 279.5 424.5 Q257 399 242 364 Q227 329 221 287 Q210 209 242 160.5 Q274 112 343 112 Z M327 -6 Q242 -6 188.5 22.5 Q135 51 106 94.5 Q77 138 69 189.5 Q61 241 67 287 Q74 336 96.5 390.5 Q119 445 161 490.5 Q203 536 264.5 566 Q326 596 411 596 Q496 596 549.5 566 Q603 536 631.5 490.5 Q660 445 668 390.5 Q676 336 669 287 Q663 241 640.5 189.5 Q618 138 576.5 94.5 Q535 51 473.5 22.5 Q412 -6 327 -6 Z M264 652 Q251 652 243.5 661.5 Q236 671 238 685 L245 737 Q247 751 257.5 760.5 Q268 770 281 770 L587 770 Q600 770 607.5 760.5 Q615 751 613 737 L606 685 Q604 671 593.5 661.5 Q583 652 570 652 L264 652 Z " />
<glyph glyph-name="omacron" unicode="&#x14d;" horiz-adv-x="550" d="M289 100 Q308 100 325.5 104.5 Q343 109 358 122 Q373 135 383.5 157 Q394 179 399 214 Q408 278 384.5 303.5 Q361 329 321 329 Q281 329 250.5 303.5 Q220 278 211 214 Q206 179 210.5 157 Q215 135 226.5 122 Q238 109 254 104.5 Q270 100 289 100 Z M274 -6 Q204 -6 159 13 Q114 32 89 63.5 Q64 95 57.5 134.5 Q51 174 57 214 Q62 253 80 292.5 Q98 332 131.5 363.5 Q165 395 215.5 415 Q266 435 336 435 Q407 435 451.5 415 Q496 395 520.5 363.5 Q545 332 551.5 292.5 Q558 253 553 214 Q547 174 529 134.5 Q511 95 478 63.5 Q445 32 395 13 Q345 -6 274 -6 Z M186 507 Q173 507 165 516.5 Q157 526 159 540 L167 592 Q169 606 179 615.5 Q189 625 202 625 L520 625 Q533 625 541 615.5 Q549 606 547 592 L539 540 Q537 526 527 516.5 Q517 507 504 507 L186 507 Z " />
<glyph glyph-name="Ohungarumlaut" unicode="&#x150;" horiz-adv-x="656" d="M343 112 Q412 112 458 160.5 Q504 209 515 287 Q521 329 515.5 364 Q510 399 495 424.5 Q480 450 455 464 Q430 478 395 478 Q361 478 331.5 464 Q302 450 279.5 424.5 Q257 399 242 364 Q227 329 221 287 Q210 209 242 160.5 Q274 112 343 112 Z M327 -6 Q242 -6 188.5 22.5 Q135 51 106 94.5 Q77 138 69 189.5 Q61 241 67 287 Q74 336 96.5 390.5 Q119 445 161 490.5 Q203 536 264.5 566 Q326 596 411 596 Q496 596 549.5 566 Q603 536 631.5 490.5 Q660 445 668 390.5 Q676 336 669 287 Q663 241 640.5 189.5 Q618 138 576.5 94.5 Q535 51 473.5 22.5 Q412 -6 327 -6 Z M387 685 Q385 672 372.5 662 Q360 652 346 652 L295 652 Q281 652 272.5 662 Q264 672 266 685 L302 785 Q307 798 317.5 808 Q328 818 342 818 L393 818 Q407 818 416 808 Q425 798 423 785 L387 685 Z M583 685 Q581 672 568.5 662 Q556 652 542 652 L491 652 Q477 652 468.5 662 Q460 672 462 685 L498 785 Q503 798 513.5 808 Q524 818 538 818 L589 818 Q603 818 612 808 Q621 798 619 785 L583 685 Z " />
<glyph glyph-name="ohungarumlaut" unicode="&#x151;" horiz-adv-x="550" d="M289 100 Q308 100 325.5 104.5 Q343 109 358 122 Q373 135 383.5 157 Q394 179 399 214 Q408 278 384.5 303.5 Q361 329 321 329 Q281 329 250.5 303.5 Q220 278 211 214 Q206 179 210.5 157 Q215 135 226.5 122 Q238 109 254 104.5 Q270 100 289 100 Z M274 -6 Q204 -6 159 13 Q114 32 89 63.5 Q64 95 57.5 134.5 Q51 174 57 214 Q62 253 80 292.5 Q98 332 131.5 363.5 Q165 395 215.5 415 Q266 435 336 435 Q407 435 451.5 415 Q496 395 520.5 363.5 Q545 332 551.5 292.5 Q558 253 553 214 Q547 174 529 134.5 Q511 95 478 63.5 Q445 32 395 13 Q345 -6 274 -6 Z M313 540 Q311 527 299 517 Q287 507 273 507 L222 507 Q208 507 199 517 Q190 527 192 540 L228 640 Q233 653 244 663 Q255 673 269 673 L320 673 Q334 673 342.5 663 Q351 653 349 640 L313 540 Z M509 540 Q507 527 495 517 Q483 507 469 507 L418 507 Q404 507 395 517 Q386 527 388 540 L424 640 Q429 653 440 663 Q451 673 465 673 L516 673 Q530 673 538.5 663 Q547 653 545 640 L509 540 Z " />
<glyph glyph-name="OE" unicode="&#x152;" horiz-adv-x="933" d="M346 112 Q404 112 442.5 133.5 Q481 155 488 201 L515 393 Q521 437 488.5 457.5 Q456 478 402 478 Q368 478 337.5 464 Q307 450 283 424.5 Q259 399 243 364 Q227 329 221 287 Q210 209 243.5 160.5 Q277 112 346 112 Z M679 467 L663 350 L850 350 Q863 350 870.5 340.5 Q878 331 876 317 L868 263 Q866 249 856 239.5 Q846 230 833 230 L646 230 L630 118 L886 118 Q899 118 906.5 108.5 Q914 99 912 85 L905 33 Q903 19 893 9.5 Q883 0 870 0 L460 0 Q408 -6 330 -6 Q245 -6 191 22.5 Q137 51 107.5 94.5 Q78 138 69.5 189.5 Q61 241 67 287 Q74 336 97 390.5 Q120 445 162.5 490.5 Q205 536 267 566 Q329 596 414 596 Q453 596 484.5 593 Q516 590 542 585 L952 585 Q965 585 972.5 575.5 Q980 566 978 552 L971 500 Q969 486 958.5 476.5 Q948 467 935 467 L679 467 Z " />
<glyph glyph-name="oe" unicode="&#x153;" horiz-adv-x="871" d="M289 100 Q307 100 324 104.5 Q341 109 355.5 121 Q370 133 381 153.5 Q392 174 398 207 L399 220 Q407 280 383 304.5 Q359 329 321 329 Q281 329 250.5 303.5 Q220 278 211 214 Q206 179 210.5 157 Q215 135 226.5 122 Q238 109 254 104.5 Q270 100 289 100 Z M659 329 Q631 329 605.5 318 Q580 307 560 264 L739 264 Q736 286 728 299 Q720 312 709 318.5 Q698 325 685.5 327 Q673 329 659 329 Z M547 171 Q546 130 567.5 115 Q589 100 627 100 Q640 100 656 101.5 Q672 103 683 111 Q699 125 709.5 129.5 Q720 134 730 134 L788 134 Q808 134 818 120 Q828 106 826 88 Q797 49 742.5 21.5 Q688 -6 613 -6 Q556 -6 516.5 7 Q477 20 452 43 Q420 20 376 7 Q332 -6 274 -6 Q204 -6 159 13 Q114 32 89 63.5 Q64 95 57.5 134.5 Q51 174 57 214 Q62 253 80 292.5 Q98 332 131.5 363.5 Q165 395 215.5 415 Q266 435 336 435 Q393 435 432.5 422 Q472 409 498 386 Q530 409 572.5 422 Q615 435 672 435 Q742 435 785 415 Q828 395 850.5 363.5 Q873 332 878.5 292.5 Q884 253 879 214 Q876 196 862 183.5 Q848 171 830 171 L547 171 Z " />
<glyph glyph-name="Racute" unicode="&#x154;" horiz-adv-x="576" d="M528 41 Q526 24 512 12 Q498 0 480 0 L402 0 Q389 0 379.5 6.5 Q370 13 366 23 L316 169 L224 169 L206 41 Q204 24 190 12 Q176 0 158 0 L90 0 Q72 0 61 12 Q50 24 52 41 L123 544 Q125 561 139.5 573 Q154 585 172 585 L395 585 Q463 585 506.5 565 Q550 545 574 514.5 Q598 484 605 447.5 Q612 411 607 378 Q604 355 594.5 330 Q585 305 569 281 Q553 257 529.5 235.5 Q506 214 475 199 L528 41 Z M241 287 L352 287 Q390 287 419 311 Q448 335 453 377 Q459 419 437 443 Q415 467 377 467 L266 467 L241 287 Z M315 691 Q313 675 323 663.5 Q333 652 350 652 L390 652 Q407 652 424 664.5 Q441 677 453 691 L537 788 Q539 804 529 815.5 Q519 827 502 827 L428 827 Q411 827 395.5 815 Q380 803 371 788 L315 691 Z " />
<glyph glyph-name="racute" unicode="&#x155;" horiz-adv-x="394" d="M398 314 Q388 316 378 317 Q368 318 361 318 Q339 318 317 312 Q295 306 277 294.5 Q259 283 247.5 267.5 Q236 252 233 233 L206 41 Q204 24 190 12 Q176 0 158 0 L90 0 Q72 0 61 12 Q50 24 52 41 L100 384 Q103 401 117 413 Q131 425 149 425 L217 425 Q235 425 245.5 413 Q256 401 254 384 L253 360 Q270 384 291 398.5 Q312 413 333.5 421.5 Q355 430 373.5 432.5 Q392 435 403 435 Q417 435 429 428.5 Q441 422 438 404 L430 344 Q428 331 418.5 322.5 Q409 314 398 314 Z M216 643 Q225 658 240 670 Q255 682 272 682 L346 682 Q363 682 373.5 670.5 Q384 659 382 643 L297 546 Q286 532 269 519.5 Q252 507 235 507 L195 507 Q178 507 167.5 518.5 Q157 530 159 546 L216 643 Z " />
<glyph glyph-name="uni0156" unicode="&#x156;" horiz-adv-x="576" d="M528 41 Q526 24 512 12 Q498 0 480 0 L402 0 Q389 0 379.5 6.5 Q370 13 366 23 L316 169 L224 169 L206 41 Q204 24 190 12 Q176 0 158 0 L90 0 Q72 0 61 12 Q50 24 52 41 L123 544 Q125 561 139.5 573 Q154 585 172 585 L395 585 Q463 585 506.5 565 Q550 545 574 514.5 Q598 484 605 447.5 Q612 411 607 378 Q604 355 594.5 330 Q585 305 569 281 Q553 257 529.5 235.5 Q506 214 475 199 L528 41 Z M241 287 L352 287 Q390 287 419 311 Q448 335 453 377 Q459 419 437 443 Q415 467 377 467 L266 467 L241 287 Z M196 -129 Q205 -114 220 -102 Q235 -90 258 -90 L292 -90 Q309 -90 319 -101.5 Q329 -113 327 -129 L283 -218 Q271 -232 259 -244.5 Q247 -257 230 -257 L194 -257 Q177 -257 171 -245.5 Q165 -234 167 -218 L196 -129 Z " />
<glyph glyph-name="uni0157" unicode="&#x157;" horiz-adv-x="394" d="M398 314 Q388 316 378 317 Q368 318 361 318 Q339 318 317 312 Q295 306 277 294.5 Q259 283 247.5 267.5 Q236 252 233 233 L206 41 Q204 24 190 12 Q176 0 158 0 L90 0 Q72 0 61 12 Q50 24 52 41 L100 384 Q103 401 117 413 Q131 425 149 425 L217 425 Q235 425 245.5 413 Q256 401 254 384 L253 360 Q270 384 291 398.5 Q312 413 333.5 421.5 Q355 430 373.5 432.5 Q392 435 403 435 Q417 435 429 428.5 Q441 422 438 404 L430 344 Q428 331 418.5 322.5 Q409 314 398 314 Z M52 -129 Q61 -114 76 -102 Q91 -90 114 -90 L148 -90 Q165 -90 175 -101.5 Q185 -113 183 -129 L139 -218 Q127 -232 115 -244.5 Q103 -257 86 -257 L50 -257 Q33 -257 27 -245.5 Q21 -234 23 -218 L52 -129 Z " />
<glyph glyph-name="Rcaron" unicode="&#x158;" horiz-adv-x="576" d="M528 41 Q526 24 512 12 Q498 0 480 0 L402 0 Q389 0 379.5 6.5 Q370 13 366 23 L316 169 L224 169 L206 41 Q204 24 190 12 Q176 0 158 0 L90 0 Q72 0 61 12 Q50 24 52 41 L123 544 Q125 561 139.5 573 Q154 585 172 585 L395 585 Q463 585 506.5 565 Q550 545 574 514.5 Q598 484 605 447.5 Q612 411 607 378 Q604 355 594.5 330 Q585 305 569 281 Q553 257 529.5 235.5 Q506 214 475 199 L528 41 Z M241 287 L352 287 Q390 287 419 311 Q448 335 453 377 Q459 419 437 443 Q415 467 377 467 L266 467 L241 287 Z M332 652 Q314 652 305.5 664.5 Q297 677 290 693 L230 829 Q232 844 245 855.5 Q258 867 275 867 L328 867 Q345 867 355.5 855.5 Q366 844 371 829 L392 772 L429 829 Q439 844 452 855.5 Q465 867 482 867 L535 867 Q552 867 562 855.5 Q572 844 570 829 L472 693 Q461 677 448.5 664.5 Q436 652 418 652 L332 652 Z " />
<glyph glyph-name="rcaron" unicode="&#x159;" horiz-adv-x="394" d="M398 314 Q388 316 378 317 Q368 318 361 318 Q339 318 317 312 Q295 306 277 294.5 Q259 283 247.5 267.5 Q236 252 233 233 L206 41 Q204 24 190 12 Q176 0 158 0 L90 0 Q72 0 61 12 Q50 24 52 41 L100 384 Q103 401 117 413 Q131 425 149 425 L217 425 Q235 425 245.5 413 Q256 401 254 384 L253 360 Q270 384 291 398.5 Q312 413 333.5 421.5 Q355 430 373.5 432.5 Q392 435 403 435 Q417 435 429 428.5 Q441 422 438 404 L430 344 Q428 331 418.5 322.5 Q409 314 398 314 Z M249 507 Q234 507 226.5 517.5 Q219 528 214 541 L163 656 Q165 669 175.5 679 Q186 689 200 689 L245 689 Q259 689 268 679 Q277 669 282 656 L299 609 L331 656 Q339 669 350.5 679 Q362 689 376 689 L421 689 Q435 689 443.5 679 Q452 669 450 656 L367 541 Q357 528 347 517.5 Q337 507 322 507 L249 507 Z " />
<glyph glyph-name="Sacute" unicode="&#x15a;" horiz-adv-x="609" d="M239 146 Q249 126 274 119 Q299 112 331 112 Q392 112 417 125 Q442 138 447 171 Q450 193 422.5 204.5 Q395 216 353 225 Q311 234 261.5 243.5 Q212 253 171.5 271.5 Q131 290 106.5 321.5 Q82 353 89 405 Q95 447 112.5 482 Q130 517 163.5 542.5 Q197 568 249 582 Q301 596 375 596 Q417 596 457 588 Q497 580 530 564.5 Q563 549 586 525.5 Q609 502 618 470 Q614 448 596.5 431.5 Q579 415 556 415 L481 415 Q470 415 459 419 Q448 423 440 442 Q434 459 414.5 468.5 Q395 478 360 478 Q327 478 305.5 473 Q284 468 271.5 461 Q259 454 253.5 447 Q248 440 248 435 Q244 407 271 392 Q298 377 339.5 367.5 Q381 358 430.5 348.5 Q480 339 520.5 322 Q561 305 586 275.5 Q611 246 604 196 Q598 151 579.5 114 Q561 77 527 50 Q493 23 440.5 8.5 Q388 -6 314 -6 Q271 -6 231 0.5 Q191 7 158 22 Q125 37 101 61 Q77 85 65 119 Q68 140 85.5 156.5 Q103 173 126 173 L199 173 Q210 173 220.5 169 Q231 165 239 146 Z M406 788 Q415 803 430.5 815 Q446 827 463 827 L537 827 Q554 827 564 815.5 Q574 804 572 788 L488 691 Q476 677 459 664.5 Q442 652 425 652 L385 652 Q368 652 358 663.5 Q348 675 350 691 L406 788 Z " />
<glyph glyph-name="sacute" unicode="&#x15b;" horiz-adv-x="470" d="M48 92 Q51 110 65.5 124 Q80 138 100 138 L161 138 Q171 138 180 134.5 Q189 131 198 116 Q205 109 217 104.5 Q229 100 248 100 Q269 100 281.5 102.5 Q294 105 300.5 109 Q307 113 309 118 Q311 123 311 127 Q313 136 292 141.5 Q271 147 236 154 Q201 160 168.5 168 Q136 176 111.5 190 Q87 204 74 226.5 Q61 249 66 283 Q71 315 85.5 342.5 Q100 370 127 390.5 Q154 411 194 423 Q234 435 289 435 Q358 435 404.5 412.5 Q451 390 468 337 Q465 319 450.5 305 Q436 291 416 291 L353 291 Q343 291 334.5 294.5 Q326 298 319 314 Q314 321 304 325 Q294 329 274 329 Q256 329 246 326 Q236 323 231 318.5 Q226 314 224.5 309 Q223 304 223 301 Q222 291 233.5 284 Q245 277 264.5 272 Q284 267 308.5 263 Q333 259 357 254 Q383 248 405 239.5 Q427 231 442 217.5 Q457 204 464 185.5 Q471 167 467 141 Q459 78 403.5 36 Q348 -6 238 -6 Q170 -6 118 16 Q66 38 48 92 Z M300 643 Q309 658 324 670 Q339 682 356 682 L430 682 Q447 682 457.5 670.5 Q468 659 466 643 L381 546 Q370 532 353 519.5 Q336 507 319 507 L279 507 Q262 507 251.5 518.5 Q241 530 243 546 L300 643 Z " />
<glyph glyph-name="Scircumflex" unicode="&#x15c;" horiz-adv-x="609" d="M239 146 Q249 126 274 119 Q299 112 331 112 Q392 112 417 125 Q442 138 447 171 Q450 193 422.5 204.5 Q395 216 353 225 Q311 234 261.5 243.5 Q212 253 171.5 271.5 Q131 290 106.5 321.5 Q82 353 89 405 Q95 447 112.5 482 Q130 517 163.5 542.5 Q197 568 249 582 Q301 596 375 596 Q417 596 457 588 Q497 580 530 564.5 Q563 549 586 525.5 Q609 502 618 470 Q614 448 596.5 431.5 Q579 415 556 415 L481 415 Q470 415 459 419 Q448 423 440 442 Q434 459 414.5 468.5 Q395 478 360 478 Q327 478 305.5 473 Q284 468 271.5 461 Q259 454 253.5 447 Q248 440 248 435 Q244 407 271 392 Q298 377 339.5 367.5 Q381 358 430.5 348.5 Q480 339 520.5 322 Q561 305 586 275.5 Q611 246 604 196 Q598 151 579.5 114 Q561 77 527 50 Q493 23 440.5 8.5 Q388 -6 314 -6 Q271 -6 231 0.5 Q191 7 158 22 Q125 37 101 61 Q77 85 65 119 Q68 140 85.5 156.5 Q103 173 126 173 L199 173 Q210 173 220.5 169 Q231 165 239 146 Z M467 867 Q485 867 494 854.5 Q503 842 510 826 L569 690 Q567 675 554 663.5 Q541 652 524 652 L471 652 Q454 652 444 663.5 Q434 675 428 690 L407 747 L370 690 Q361 675 347.5 663.5 Q334 652 317 652 L264 652 Q247 652 237 663.5 Q227 675 229 690 L328 826 Q339 842 351 854.5 Q363 867 381 867 L467 867 Z " />
<glyph glyph-name="scircumflex" unicode="&#x15d;" horiz-adv-x="470" d="M48 92 Q51 110 65.5 124 Q80 138 100 138 L161 138 Q171 138 180 134.5 Q189 131 198 116 Q205 109 217 104.5 Q229 100 248 100 Q269 100 281.5 102.5 Q294 105 300.5 109 Q307 113 309 118 Q311 123 311 127 Q313 136 292 141.5 Q271 147 236 154 Q201 160 168.5 168 Q136 176 111.5 190 Q87 204 74 226.5 Q61 249 66 283 Q71 315 85.5 342.5 Q100 370 127 390.5 Q154 411 194 423 Q234 435 289 435 Q358 435 404.5 412.5 Q451 390 468 337 Q465 319 450.5 305 Q436 291 416 291 L353 291 Q343 291 334.5 294.5 Q326 298 319 314 Q314 321 304 325 Q294 329 274 329 Q256 329 246 326 Q236 323 231 318.5 Q226 314 224.5 309 Q223 304 223 301 Q222 291 233.5 284 Q245 277 264.5 272 Q284 267 308.5 263 Q333 259 357 254 Q383 248 405 239.5 Q427 231 442 217.5 Q457 204 464 185.5 Q471 167 467 141 Q459 78 403.5 36 Q348 -6 238 -6 Q170 -6 118 16 Q66 38 48 92 Z M377 722 Q395 722 403.5 709.5 Q412 697 419 681 L479 545 Q477 530 464 518.5 Q451 507 434 507 L381 507 Q364 507 353.5 518.5 Q343 530 338 545 L317 602 L280 545 Q270 530 257 518.5 Q244 507 227 507 L174 507 Q157 507 147 518.5 Q137 530 139 545 L237 681 Q248 697 260.5 709.5 Q273 722 291 722 L377 722 Z " />
<glyph glyph-name="Scedilla" unicode="&#x15e;" horiz-adv-x="609" d="M604 196 Q598 155 582.5 120.5 Q567 86 538.5 60 Q510 34 467 17.5 Q424 1 363 -4 L358 -40 Q382 -44 401 -56 Q417 -66 428 -84.5 Q439 -103 435 -135 Q431 -160 417 -179.5 Q403 -199 382 -213 Q361 -227 335.5 -234.5 Q310 -242 284 -242 Q270 -242 253.5 -240 Q237 -238 226 -236 Q216 -236 210 -229 Q204 -222 206 -211 L210 -180 Q212 -169 220 -162 Q228 -155 238 -155 L251 -155 Q261 -155 273 -153.5 Q285 -152 295.5 -148 Q306 -144 314 -137 Q322 -130 323 -119 Q323 -103 310 -96 Q297 -89 278 -86 Q267 -86 261.5 -78.5 Q256 -71 258 -61 L268 -4 Q197 2 141 31 Q85 60 65 119 Q68 140 85.5 156.5 Q103 173 126 173 L199 173 Q210 173 221 169 Q232 165 240 146 Q249 126 274 119 Q299 112 331 112 Q392 112 417 125 Q442 138 447 171 Q450 193 422.5 204.5 Q395 216 353 225 Q311 234 261.5 243.5 Q212 253 171.5 271.5 Q131 290 106.5 321.5 Q82 353 89 405 Q95 447 112.5 482 Q130 517 163.5 542.5 Q197 568 249 582 Q301 596 375 596 Q417 596 457 588 Q497 580 530 564.5 Q563 549 586 525.5 Q609 502 618 470 Q614 448 596.5 431.5 Q579 415 556 415 L481 415 Q470 415 459 419 Q448 423 440 442 Q434 459 414.5 468.5 Q395 478 360 478 Q327 478 305.5 473 Q284 468 271.5 461 Q259 454 253.5 447 Q248 440 248 435 Q244 407 271 392 Q298 377 339.5 367.5 Q381 358 430.5 348.5 Q480 339 520.5 322 Q561 305 586 275.5 Q611 246 604 196 Z " />
<glyph glyph-name="scedilla" unicode="&#x15f;" horiz-adv-x="470" d="M467 141 Q459 83 412.5 43 Q366 3 273 -5 L268 -40 Q292 -44 311 -56 Q327 -66 338 -84.5 Q349 -103 345 -135 Q341 -160 327 -179.5 Q313 -199 292 -213 Q271 -227 245.5 -234.5 Q220 -242 194 -242 Q180 -242 163.5 -240 Q147 -238 136 -236 Q126 -236 120 -229 Q114 -222 116 -211 L120 -180 Q122 -169 130 -162 Q138 -155 148 -155 L161 -155 Q171 -155 183 -153.5 Q195 -152 205.5 -148 Q216 -144 224 -137 Q232 -130 233 -119 Q233 -103 220 -96 Q207 -89 188 -86 Q177 -86 171.5 -78.5 Q166 -71 168 -61 L178 -2 Q130 6 96 28 Q62 50 48 92 Q51 110 65.5 124 Q80 138 100 138 L161 138 Q171 138 180 134.5 Q189 131 198 116 Q205 109 217 104.5 Q229 100 248 100 Q269 100 281.5 102.5 Q294 105 300.5 109 Q307 113 309 118 Q311 123 311 127 Q313 136 292 141.5 Q271 147 236 154 Q201 160 168.5 168 Q136 176 111.5 190 Q87 204 74 226.5 Q61 249 66 283 Q71 315 85.5 342.5 Q100 370 127 390.5 Q154 411 194 423 Q234 435 289 435 Q358 435 404.5 412.5 Q451 390 468 337 Q465 319 450.5 305 Q436 291 416 291 L353 291 Q343 291 334.5 294.5 Q326 298 319 314 Q314 321 304 325 Q294 329 274 329 Q256 329 246 326 Q236 323 231 318.5 Q226 314 224.5 309 Q223 304 223 301 Q222 291 233.5 284 Q245 277 264.5 272 Q284 267 308.5 263 Q333 259 357 254 Q383 248 405 239.5 Q427 231 442 217.5 Q457 204 464 185.5 Q471 167 467 141 Z " />
<glyph glyph-name="Scaron" unicode="&#x160;" horiz-adv-x="609" d="M239 146 Q249 126 274 119 Q299 112 331 112 Q392 112 417 125 Q442 138 447 171 Q450 193 422.5 204.5 Q395 216 353 225 Q311 234 261.5 243.5 Q212 253 171.5 271.5 Q131 290 106.5 321.5 Q82 353 89 405 Q95 447 112.5 482 Q130 517 163.5 542.5 Q197 568 249 582 Q301 596 375 596 Q417 596 457 588 Q497 580 530 564.5 Q563 549 586 525.5 Q609 502 618 470 Q614 448 596.5 431.5 Q579 415 556 415 L481 415 Q470 415 459 419 Q448 423 440 442 Q434 459 414.5 468.5 Q395 478 360 478 Q327 478 305.5 473 Q284 468 271.5 461 Q259 454 253.5 447 Q248 440 248 435 Q244 407 271 392 Q298 377 339.5 367.5 Q381 358 430.5 348.5 Q480 339 520.5 322 Q561 305 586 275.5 Q611 246 604 196 Q598 151 579.5 114 Q561 77 527 50 Q493 23 440.5 8.5 Q388 -6 314 -6 Q271 -6 231 0.5 Q191 7 158 22 Q125 37 101 61 Q77 85 65 119 Q68 140 85.5 156.5 Q103 173 126 173 L199 173 Q210 173 220.5 169 Q231 165 239 146 Z M357 652 Q339 652 330.5 664.5 Q322 677 315 693 L255 829 Q257 844 270 855.5 Q283 867 300 867 L353 867 Q370 867 380.5 855.5 Q391 844 396 829 L417 772 L454 829 Q464 844 477 855.5 Q490 867 507 867 L560 867 Q577 867 587 855.5 Q597 844 595 829 L497 693 Q486 677 473.5 664.5 Q461 652 443 652 L357 652 Z " />
<glyph glyph-name="scaron" unicode="&#x161;" horiz-adv-x="470" d="M48 92 Q51 110 65.5 124 Q80 138 100 138 L161 138 Q171 138 180 134.5 Q189 131 198 116 Q205 109 217 104.5 Q229 100 248 100 Q269 100 281.5 102.5 Q294 105 300.5 109 Q307 113 309 118 Q311 123 311 127 Q313 136 292 141.5 Q271 147 236 154 Q201 160 168.5 168 Q136 176 111.5 190 Q87 204 74 226.5 Q61 249 66 283 Q71 315 85.5 342.5 Q100 370 127 390.5 Q154 411 194 423 Q234 435 289 435 Q358 435 404.5 412.5 Q451 390 468 337 Q465 319 450.5 305 Q436 291 416 291 L353 291 Q343 291 334.5 294.5 Q326 298 319 314 Q314 321 304 325 Q294 329 274 329 Q256 329 246 326 Q236 323 231 318.5 Q226 314 224.5 309 Q223 304 223 301 Q222 291 233.5 284 Q245 277 264.5 272 Q284 267 308.5 263 Q333 259 357 254 Q383 248 405 239.5 Q427 231 442 217.5 Q457 204 464 185.5 Q471 167 467 141 Q459 78 403.5 36 Q348 -6 238 -6 Q170 -6 118 16 Q66 38 48 92 Z M275 507 Q257 507 248.5 519.5 Q240 532 233 548 L173 684 Q175 699 188 710.5 Q201 722 218 722 L271 722 Q288 722 298 710.5 Q308 699 314 684 L335 627 L372 684 Q381 699 394.5 710.5 Q408 722 425 722 L478 722 Q495 722 505 710.5 Q515 699 513 684 L415 548 Q404 532 391.5 519.5 Q379 507 361 507 L275 507 Z " />
<glyph glyph-name="uni0162" unicode="&#x162;" horiz-adv-x="516" d="M210 3 Q199 8 191.5 18.5 Q184 29 186 41 L246 467 L108 467 Q95 467 87.5 476.5 Q80 486 82 500 L89 552 Q91 566 101.5 575.5 Q112 585 125 585 L555 585 Q568 585 575.5 575.5 Q583 566 581 552 L574 500 Q572 486 561.5 476.5 Q551 467 538 467 L400 467 L340 41 Q338 28 329 18 Q320 8 307 3 Q290 -11 282 -26.5 Q274 -42 270 -65 Q269 -72 271 -80.5 Q273 -89 279 -96 Q285 -103 295.5 -107.5 Q306 -112 324 -112 Q335 -115 340.5 -120 Q346 -125 344 -136 L339 -172 Q337 -183 329.5 -189.5 Q322 -196 312 -196 L290 -196 Q265 -196 240 -190.5 Q215 -185 195.5 -172.5 Q176 -160 165.5 -139.5 Q155 -119 159 -89 Q162 -66 174 -42.5 Q186 -19 210 3 Z " />
<glyph glyph-name="uni0163" unicode="&#x163;" horiz-adv-x="373" d="M288 319 L268 173 Q264 147 276 132 Q288 117 320 117 L328 117 Q339 117 347 108.5 Q355 100 353 87 L345 30 Q343 17 333.5 9.5 Q324 2 313 0 Q296 -3 277.5 -4.5 Q259 -6 245 -6 L238 -51 Q263 -55 281 -67 Q298 -77 309 -95.5 Q320 -114 315 -146 Q312 -171 298 -190.5 Q284 -210 263 -224 Q242 -238 216.5 -245.5 Q191 -253 165 -253 Q151 -253 134.5 -251 Q118 -249 107 -247 Q97 -247 90.5 -240 Q84 -233 86 -222 L91 -191 Q93 -180 100.5 -173 Q108 -166 118 -166 L131 -166 Q141 -166 153 -164.5 Q165 -163 175.5 -159 Q186 -155 194 -148 Q202 -141 203 -130 Q203 -114 190 -107 Q177 -100 159 -97 Q149 -97 143 -90 Q137 -83 139 -74 L152 21 Q124 45 116 88 Q108 131 116 190 L134 319 L89 319 Q78 319 71 327.5 Q64 336 66 349 L72 395 Q74 408 83.5 416.5 Q93 425 104 425 L149 425 L162 516 Q164 533 179 545 Q194 557 211 562 L282 579 Q300 579 310.5 567 Q321 555 319 538 L303 425 L372 425 Q383 425 390.5 416.5 Q398 408 396 395 L390 349 Q388 336 378 327.5 Q368 319 357 319 L288 319 Z " />
<glyph glyph-name="Tcaron" unicode="&#x164;" horiz-adv-x="516" d="M555 585 Q568 585 575.5 575.5 Q583 566 581 552 L574 500 Q572 486 561.5 476.5 Q551 467 538 467 L400 467 L340 41 Q338 24 324 12 Q310 0 292 0 L224 0 Q206 0 195 12 Q184 24 186 41 L246 467 L108 467 Q95 467 87.5 476.5 Q80 486 82 500 L89 552 Q91 566 101.5 575.5 Q112 585 125 585 L555 585 Z M307 652 Q289 652 280.5 664.5 Q272 677 265 693 L205 829 Q207 844 220 855.5 Q233 867 250 867 L303 867 Q320 867 330.5 855.5 Q341 844 346 829 L367 772 L404 829 Q414 844 427 855.5 Q440 867 457 867 L510 867 Q527 867 537 855.5 Q547 844 545 829 L447 693 Q436 677 423.5 664.5 Q411 652 393 652 L307 652 Z " />
<glyph glyph-name="tcaron" unicode="&#x165;" horiz-adv-x="451" d="M313 0 Q294 -3 274.5 -4.5 Q255 -6 241 -6 Q160 -6 131.5 46.5 Q103 99 116 190 L134 319 L89 319 Q78 319 71 327.5 Q64 336 66 349 L72 395 Q74 408 83.5 416.5 Q93 425 104 425 L149 425 L162 516 Q164 533 179 545 Q194 557 211 562 L282 579 Q300 579 310.5 567 Q321 555 319 538 L303 425 L372 425 Q383 425 390.5 416.5 Q398 408 396 395 L390 349 Q388 336 378 327.5 Q368 319 357 319 L288 319 L268 173 Q264 147 276 132 Q288 117 320 117 L328 117 Q339 117 347 108.5 Q355 100 353 87 L345 30 Q343 17 333.5 9.5 Q324 2 313 0 Z M394 554 Q413 585 447 585 L487 585 Q504 585 516 577.5 Q528 570 526 554 L506 513 Q498 497 481 485.5 Q464 474 447 474 L407 474 Q390 474 380 485.5 Q370 497 372 513 L394 554 Z " />
<glyph glyph-name="Tbar" unicode="&#x166;" horiz-adv-x="516" d="M364 209 L340 41 Q338 24 324 12 Q310 0 292 0 L224 0 Q206 0 195 12 Q184 24 186 41 L210 209 L130 209 Q118 209 110.5 217.5 Q103 226 105 239 L112 288 Q114 301 123.5 309.5 Q133 318 145 318 L225 318 L246 467 L108 467 Q95 467 87.5 476.5 Q80 486 82 500 L89 552 Q91 566 101.5 575.5 Q112 585 125 585 L555 585 Q568 585 575.5 575.5 Q583 566 581 552 L574 500 Q572 486 561.5 476.5 Q551 467 538 467 L400 467 L379 318 L459 318 Q471 318 478.5 309.5 Q486 301 484 288 L477 239 Q475 226 465.5 217.5 Q456 209 444 209 L364 209 Z " />
<glyph glyph-name="tbar" unicode="&#x167;" horiz-adv-x="373" d="M127 266 L134 319 L89 319 Q78 319 71 327.5 Q64 336 66 349 L72 395 Q74 408 83.5 416.5 Q93 425 104 425 L149 425 L162 516 Q164 533 179 545 Q194 557 211 562 L282 579 Q300 579 310.5 567 Q321 555 319 538 L303 425 L372 425 Q383 425 390.5 416.5 Q398 408 396 395 L390 349 Q388 336 378 327.5 Q368 319 357 319 L288 319 L281 266 L350 266 Q361 266 368.5 257.5 Q376 249 374 236 L367 190 Q365 177 355.5 168.5 Q346 160 335 160 L267 160 Q267 140 279 128.5 Q291 117 320 117 L328 117 Q339 117 347 108.5 Q355 100 353 87 L345 30 Q343 17 333.5 9.5 Q324 2 313 0 Q294 -3 274.5 -4.5 Q255 -6 241 -6 Q166 -6 136.5 38 Q107 82 113 160 L67 160 Q56 160 48.5 168.5 Q41 177 43 190 L50 236 Q52 249 61.5 257.5 Q71 266 82 266 L127 266 Z " />
</font>
</svg>
