<?xml version="1.0" encoding="UTF-8"?>
<svg xmlns="http://www.w3.org/2000/svg" xmlns:xlink="http://www.w3.org/1999/xlink" version="1.2" >
<font id="Breul Grotesk B Black">
<font-face  font-family="Breul Grotesk B" units-per-em="1000" ascent="750" descent="-250" font-style="normal" font-weight="900" font-stretch="normal" cap-height="585" x-height="425" underline-position="-91" underline-thickness="35" />
<missing-glyph  horiz-adv-x="567" d="" />
<glyph glyph-name="space" unicode="&#x20;" horiz-adv-x="189" d="" />
<glyph glyph-name="exclam" unicode="&#x21;" horiz-adv-x="294" d="M50 89 Q50 109 64 122 Q78 135 98 135 L196 135 Q216 135 230 122 Q244 109 244 89 L244 46 Q244 26 230 13 Q216 0 196 0 L98 0 Q78 0 64 13 Q50 26 50 46 L50 89 Z M52 539 Q52 559 66 572 Q80 585 100 585 L193 585 Q213 585 227 572 Q241 559 241 539 L225 240 Q225 220 211 207 Q197 194 177 194 L117 194 Q97 194 83 207 Q69 220 69 240 L52 539 Z " />
<glyph glyph-name="quotedbl" unicode="&#x22;" horiz-adv-x="467" d="M205 370 Q205 354 194 343.5 Q183 333 166 333 L89 333 Q72 333 61 343.5 Q50 354 50 370 L50 548 Q50 564 61 574.5 Q72 585 89 585 L166 585 Q183 585 194 574.5 Q205 564 205 548 L205 370 Z M417 370 Q417 354 406 343.5 Q395 333 378 333 L301 333 Q284 333 273 343.5 Q262 354 262 370 L262 548 Q262 564 273 574.5 Q284 585 301 585 L378 585 Q395 585 406 574.5 Q417 564 417 548 L417 370 Z " />
<glyph glyph-name="numbersign" unicode="&#x23;" horiz-adv-x="804" d="M329 240 L435 240 L472 342 L366 342 L329 240 Z M634 342 L597 240 L653 240 Q668 240 679 228.5 Q690 217 690 202 L690 143 Q690 128 679 116.5 Q668 105 653 105 L547 105 L523 40 Q517 24 508 12 Q499 0 481 0 L406 0 Q389 0 376.5 11.5 Q364 23 364 40 L387 105 L280 105 L256 40 Q250 24 241 12 Q232 0 214 0 L139 0 Q122 0 109.5 11.5 Q97 23 97 40 L120 105 L87 105 Q72 105 61 116.5 Q50 128 50 143 L50 202 Q50 217 61 228.5 Q72 240 87 240 L169 240 L206 342 L151 342 Q136 342 125 353.5 Q114 365 114 380 L114 439 Q114 454 125 465.5 Q136 477 151 477 L255 477 L280 545 Q286 561 295 573 Q304 585 322 585 L397 585 Q414 585 426.5 573.5 Q439 562 439 545 L415 477 L521 477 L547 545 Q553 561 562 573 Q571 585 589 585 L664 585 Q681 585 693.5 573.5 Q706 562 706 545 L683 477 L717 477 Q732 477 743 465.5 Q754 454 754 439 L754 380 Q754 365 743 353.5 Q732 342 717 342 L634 342 Z " />
<glyph glyph-name="dollar" unicode="&#x24;" horiz-adv-x="669" d="M619 188 Q619 114 570 60 Q521 6 411 -8 L411 -94 Q411 -110 400 -120.5 Q389 -131 372 -131 L295 -131 Q278 -131 267 -120.5 Q256 -110 256 -94 L256 -7 Q183 4 128.5 38.5 Q74 73 57 138 Q57 167 74.5 175 Q92 183 116 183 L214 183 Q232 183 243.5 176 Q255 169 263 155 Q274 137 296 131 Q318 125 356 125 Q380 125 394 127.5 Q408 130 415 135.5 Q422 141 424 148.5 Q426 156 426 165 Q426 176 415 183 Q404 190 385.5 195 Q367 200 343 204 Q319 208 293 213 Q248 221 204 234 Q160 247 126 267 Q92 287 71 317 Q50 347 50 390 Q50 428 61 462 Q72 496 97 523 Q122 550 161 569 Q200 588 256 595 L256 686 Q256 702 267 712.5 Q278 723 295 723 L372 723 Q389 723 400 712.5 Q411 702 411 686 L411 592 Q480 580 530.5 546 Q581 512 597 452 Q597 423 579.5 415 Q562 407 538 407 L434 407 Q416 407 404.5 414 Q393 421 385 435 Q376 446 357.5 453.5 Q339 461 313 461 Q289 461 275 456 Q261 451 254 444.5 Q247 438 245 431.5 Q243 425 243 421 Q243 407 269.5 395.5 Q296 384 330.5 375.5 Q365 367 399 361 Q433 355 448 352 Q486 345 517 332 Q548 319 571 299.5 Q594 280 606.5 252.5 Q619 225 619 188 Z " />
<glyph glyph-name="percent" unicode="&#x25;" horiz-adv-x="848" d="M196 585 Q226 585 252 574 Q278 563 297.5 543.5 Q317 524 328.5 497.5 Q340 471 340 441 Q340 411 328.5 384 Q317 357 297.5 337.5 Q278 318 252 306.5 Q226 295 196 295 Q166 295 139 306.5 Q112 318 92.5 337.5 Q73 357 61.5 384 Q50 411 50 441 Q50 471 61.5 497.5 Q73 524 92.5 543.5 Q112 563 139 574 Q166 585 196 585 Z M196 404 Q210 404 220.5 414.5 Q231 425 231 440 Q231 455 220.5 465 Q210 475 196 475 Q181 475 170.5 465 Q160 455 160 440 Q160 425 170.5 414.5 Q181 404 196 404 Z M654 290 Q684 290 710 279 Q736 268 755.5 248.5 Q775 229 786.5 202.5 Q798 176 798 146 Q798 116 786.5 89 Q775 62 755.5 42.5 Q736 23 710 11.5 Q684 0 654 0 Q624 0 597 11.5 Q570 23 550.5 42.5 Q531 62 519.5 89 Q508 116 508 146 Q508 176 519.5 202.5 Q531 229 550.5 248.5 Q570 268 597 279 Q624 290 654 290 Z M654 109 Q668 109 678.5 119.5 Q689 130 689 145 Q689 160 678.5 170 Q668 180 654 180 Q639 180 628.5 170 Q618 160 618 145 Q618 130 628.5 119.5 Q639 109 654 109 Z M487 548 Q495 563 505.5 574 Q516 585 532 585 L611 585 Q627 585 638 574.5 Q649 564 649 548 L359 37 Q351 22 340.5 11 Q330 0 314 0 L235 0 Q219 0 208 10.5 Q197 21 197 37 L487 548 Z " />
<glyph glyph-name="ampersand" unicode="&#x26;" horiz-adv-x="711" d="M209 139 Q209 125 228.5 118.5 Q248 112 273 112 Q315 112 351 129 L262 206 Q239 191 224 174.5 Q209 158 209 139 Z M348 431 Q348 458 336.5 466 Q325 474 307 474 Q301 474 293.5 473 Q286 472 280 468 Q274 464 270 455.5 Q266 447 266 432 Q266 416 272.5 401.5 Q279 387 297 367 Q320 382 334 398 Q348 414 348 431 Z M661 43 Q661 25 648 12.5 Q635 0 616 0 L530 0 Q520 0 506.5 4 Q493 8 488 14 L457 39 Q421 15 380.5 1 Q340 -13 298 -13 Q177 -13 113.5 25.5 Q50 64 50 156 Q50 179 60 198.5 Q70 218 86.5 235 Q103 252 125.5 267.5 Q148 283 172 297 Q140 335 124.5 368.5 Q109 402 109 437 Q109 461 117 489 Q125 517 147 541.5 Q169 566 207.5 582.5 Q246 599 307 599 Q367 599 406.5 584.5 Q446 570 469 545 Q492 520 501 488.5 Q510 457 510 422 Q510 398 500.5 377.5 Q491 357 474.5 339.5 Q458 322 437 307 Q416 292 392 278 Q406 267 420.5 254 Q435 241 452 226 Q457 234 461 244 Q465 254 468 262 Q471 274 482 282.5 Q493 291 507 291 L580 291 Q597 291 608 280.5 Q619 270 619 254 Q611 226 595 193.5 Q579 161 558 134 L661 43 Z " />
<glyph glyph-name="quotesingle" unicode="&#x27;" horiz-adv-x="255" d="M205 370 Q205 354 194 343.5 Q183 333 166 333 L89 333 Q72 333 61 343.5 Q50 354 50 370 L50 548 Q50 564 61 574.5 Q72 585 89 585 L166 585 Q183 585 194 574.5 Q205 564 205 548 L205 370 Z " />
<glyph glyph-name="parenleft" unicode="&#x28;" horiz-adv-x="355" d="M142 -147 Q99 -32 74.5 81.5 Q50 195 50 310 Q50 422 74.5 534 Q99 646 142 758 Q147 769 157.5 775.5 Q168 782 195 782 L257 782 Q277 782 291 769 Q305 756 305 736 Q266 630 243.5 523 Q221 416 221 310 Q221 201 243 93 Q265 -15 305 -124 Q305 -144 291 -157.5 Q277 -171 257 -171 L195 -171 Q168 -171 157.5 -164.5 Q147 -158 142 -147 Z " />
<glyph glyph-name="parenright" unicode="&#x29;" horiz-adv-x="355" d="M213 -147 Q208 -158 197.5 -164.5 Q187 -171 160 -171 L98 -171 Q78 -171 64 -157.5 Q50 -144 50 -124 Q90 -15 112 93 Q134 201 134 310 Q134 416 111.5 523 Q89 630 50 736 Q50 756 64 769 Q78 782 98 782 L160 782 Q187 782 197.5 775.5 Q208 769 213 758 Q256 646 280.5 534 Q305 422 305 310 Q305 195 280.5 81.5 Q256 -32 213 -147 Z " />
<glyph glyph-name="asterisk" unicode="&#x2a;" horiz-adv-x="562" d="M317 585 Q333 585 344 574.5 Q355 564 355 548 L345 443 L430 487 Q438 490 445 490 Q458 490 469 483 Q480 476 485 464 L509 407 Q512 398 512 389 Q512 377 506 366.5 Q500 356 489 351 L382 318 L450 232 Q457 222 457 212 Q457 193 439 180 L380 141 Q369 133 358 133 Q339 133 328 149 L281 235 L234 149 Q223 133 204 133 Q193 133 182 141 L123 180 Q105 193 105 212 Q105 222 112 232 L180 318 L73 351 Q62 356 56 366.5 Q50 377 50 389 Q50 398 53 407 L77 464 Q82 476 93 483 Q104 490 117 490 Q125 490 132 487 L217 443 L207 548 Q207 564 218 574.5 Q229 585 246 585 L317 585 Z " />
<glyph glyph-name="plus" unicode="&#x2b;" horiz-adv-x="494" d="M173 358 Q173 373 183.5 382.5 Q194 392 210 392 L284 392 Q300 392 310.5 382 Q321 372 321 357 L321 268 L404 268 Q420 268 432 255.5 Q444 243 444 226 L444 162 Q444 145 432 132.5 Q420 120 404 120 L321 120 L321 35 Q321 20 310.5 10 Q300 0 284 0 L210 0 Q194 0 183.5 10 Q173 20 173 35 L173 120 L90 120 Q74 120 62 132.5 Q50 145 50 162 L50 226 Q50 243 62 255.5 Q74 268 90 268 L173 268 L173 358 Z " />
<glyph glyph-name="comma" unicode="&#x2c;" horiz-adv-x="304" d="M217 -50 Q214 -70 201.5 -83 Q189 -96 169 -96 L96 -96 Q76 -96 63 -83 Q50 -70 50 -50 L78 106 Q82 126 94 139 Q106 152 126 152 L208 152 Q228 152 241 139 Q254 126 254 106 L217 -50 Z " />
<glyph glyph-name="hyphen" unicode="&#x2d;" horiz-adv-x="494" d="M91 120 Q74 120 62 133 Q50 146 50 163 L50 225 Q50 242 62 255 Q74 268 91 268 L403 268 Q420 268 432 255 Q444 242 444 225 L444 163 Q444 146 432 133 Q420 120 403 120 L91 120 Z " />
<glyph glyph-name="period" unicode="&#x2e;" horiz-adv-x="278" d="M228 46 Q228 26 214 13 Q200 0 180 0 L98 0 Q78 0 64 13 Q50 26 50 46 L50 129 Q50 149 64 162 Q78 175 98 175 L180 175 Q200 175 214 162 Q228 149 228 129 L228 46 Z " />
<glyph glyph-name="slash" unicode="&#x2f;" horiz-adv-x="486" d="M171 -128 Q166 -145 155.5 -158 Q145 -171 126 -171 L45 -171 Q26 -171 13 -158.5 Q0 -146 0 -128 L315 739 Q320 756 330.5 769 Q341 782 360 782 L441 782 Q460 782 473 769.5 Q486 757 486 739 L171 -128 Z " />
<glyph glyph-name="zero" unicode="0" horiz-adv-x="624" d="M312 461 Q285 461 267 447 Q249 433 238.5 409 Q228 385 223.5 353.5 Q219 322 219 287 Q219 255 223.5 225.5 Q228 196 238.5 173.5 Q249 151 267 138 Q285 125 312 125 Q339 125 357 138 Q375 151 385.5 173.5 Q396 196 400.5 225.5 Q405 255 405 287 Q405 322 400.5 353.5 Q396 385 385.5 409 Q375 433 357 447 Q339 461 312 461 Z M312 -13 Q228 -13 172.5 16.5 Q117 46 84.5 91 Q52 136 38.5 188.5 Q25 241 25 287 Q25 336 38.5 391 Q52 446 84.5 492 Q117 538 172.5 568.5 Q228 599 312 599 Q396 599 451.5 568.5 Q507 538 539.5 492 Q572 446 585.5 391 Q599 336 599 287 Q599 241 585.5 188.5 Q572 136 539.5 91 Q507 46 451.5 16.5 Q396 -13 312 -13 Z " />
<glyph glyph-name="one" unicode="1" horiz-adv-x="433" d="M340 585 Q360 585 374 572 Q388 559 388 539 L388 46 Q388 26 374 13 Q360 0 340 0 L242 0 Q222 0 208 13 Q194 26 194 46 L194 418 Q160 394 123.5 380 Q87 366 51 359 Q34 359 22 372 Q10 385 10 402 L10 474 Q10 491 21 501.5 Q32 512 51 517 Q82 524 117 540 Q152 556 184 578 Q192 585 205 585 L340 585 Z " />
<glyph glyph-name="two" unicode="2" horiz-adv-x="561" d="M212 424 Q208 410 195.5 400 Q183 390 167 390 L75 390 Q56 390 43 402.5 Q30 415 30 433 Q44 514 103 556.5 Q162 599 262 599 Q336 599 387.5 584.5 Q439 570 471 544.5 Q503 519 517 484.5 Q531 450 531 410 Q531 368 512 335.5 Q493 303 457.5 273.5 Q422 244 371.5 215 Q321 186 258 151 L481 151 Q498 151 510 138 Q522 125 522 108 L522 43 Q522 26 510 13 Q498 0 481 0 L80 0 Q63 0 51 13 Q39 26 39 43 L39 145 Q39 180 60 206.5 Q81 233 113 254.5 Q145 276 182 294 Q219 312 251 329.5 Q283 347 304 365.5 Q325 384 325 406 Q325 431 311.5 446 Q298 461 271 461 Q245 461 231 450.5 Q217 440 212 424 Z " />
<glyph glyph-name="three" unicode="3" horiz-adv-x="547" d="M228 230 Q214 230 204 241 Q194 252 194 266 L194 319 Q194 333 204 344 Q214 355 228 355 L267 355 Q292 357 304 372 Q316 387 316 411 Q316 461 262 461 Q239 461 225.5 455.5 Q212 450 206 440 Q197 420 188.5 412.5 Q180 405 162 405 L63 405 Q45 405 32.5 412.5 Q20 420 20 441 Q31 526 90.5 562.5 Q150 599 253 599 Q327 599 378.5 586.5 Q430 574 462 550.5 Q494 527 508 493 Q522 459 522 416 Q522 398 516.5 377.5 Q511 357 497.5 339.5 Q484 322 462 309 Q440 296 406 293 Q435 287 456.5 274 Q478 261 492.5 244 Q507 227 514.5 208 Q522 189 522 171 Q522 128 508 94 Q494 60 462 36.5 Q430 13 378.5 0.5 Q327 -12 253 -12 Q150 -12 90.5 24.5 Q31 61 20 146 Q20 167 32.5 174.5 Q45 182 63 182 L162 182 Q180 182 188.5 174 Q197 166 206 146 Q212 136 225.5 130.5 Q239 125 262 125 Q316 125 316 175 Q316 198 304 213 Q292 228 267 230 L228 230 Z " />
<glyph glyph-name="four" unicode="4" horiz-adv-x="582" d="M305 266 L305 425 L192 266 L305 266 Z M219 566 Q233 585 258 585 L451 585 Q471 585 485 572 Q499 559 499 539 L499 266 L541 266 Q558 266 570 253 Q582 240 582 223 L582 158 Q582 141 570 128 Q558 115 541 115 L499 115 L499 46 Q499 26 485 13 Q471 0 451 0 L353 0 Q333 0 319 13 Q305 26 305 46 L305 115 L51 115 Q34 115 22 128 Q10 141 10 158 L10 259 Q10 275 19 285 L219 566 Z " />
<glyph glyph-name="five" unicode="5" horiz-adv-x="566" d="M86 219 Q69 219 57 232 Q45 245 45 262 L45 542 Q45 559 57 572 Q69 585 86 585 L479 585 Q496 585 508 572 Q520 559 520 542 L520 477 Q520 460 508 447 Q496 434 479 434 L234 434 L234 353 Q244 364 258 371 Q272 378 286.5 382 Q301 386 313 388 Q325 390 330 390 Q394 390 436.5 372.5 Q479 355 504.5 325.5 Q530 296 540.5 258.5 Q551 221 551 182 Q551 142 536 106 Q521 70 489 44 Q457 18 407.5 2.5 Q358 -13 288 -13 Q237 -13 197.5 -2 Q158 9 129 28 Q100 47 81.5 72.5 Q63 98 55 126 Q55 144 68 156.5 Q81 169 100 169 L193 169 Q225 169 237 141 Q243 122 256 117 Q269 112 288 112 Q305 112 319.5 114 Q334 116 344.5 123.5 Q355 131 360.5 144.5 Q366 158 366 182 Q366 220 350.5 232 Q335 244 300 244 L294 244 Q276 244 261.5 240.5 Q247 237 238 228 Q232 219 220 219 L86 219 Z " />
<glyph glyph-name="six" unicode="6" horiz-adv-x="561" d="M523 449 Q523 429 509 416 Q495 403 475 403 L386 403 Q370 403 359.5 411.5 Q349 420 342 433 Q337 446 323.5 453.5 Q310 461 283 461 Q256 461 242.5 446 Q229 431 229 406 L229 344 Q239 355 252 361 Q265 367 277.5 370 Q290 373 301 374 Q312 375 317 375 Q381 375 423 358.5 Q465 342 490 314.5 Q515 287 525.5 251 Q536 215 536 176 Q536 136 523 101 Q510 66 480.5 41 Q451 16 403.5 1.5 Q356 -13 286 -13 Q226 -13 178.5 -1 Q131 11 98 43 Q65 75 47.5 131 Q30 187 30 276 L30 301 Q30 382 41.5 439 Q53 496 82 531.5 Q111 567 160 583 Q209 599 283 599 Q383 599 446 563.5 Q509 528 523 449 Z M279 235 Q257 235 237.5 221.5 Q218 208 218 169 Q218 151 224 139.5 Q230 128 240 122 Q250 116 262.5 114 Q275 112 287 112 Q316 112 333.5 123.5 Q351 135 351 174 Q351 206 335.5 220.5 Q320 235 285 235 L279 235 Z " />
<glyph glyph-name="seven" unicode="7" horiz-adv-x="505" d="M277 434 L51 434 Q34 434 22 447 Q10 460 10 477 L10 542 Q10 559 22 572 Q34 585 51 585 L444 585 Q461 585 473 572 Q485 559 485 542 L485 439 Q485 432 482.5 425.5 Q480 419 477 413 L287 34 Q274 17 262.5 8.5 Q251 0 220 0 L134 0 Q114 0 100 13 Q86 26 86 46 L277 434 Z " />
<glyph glyph-name="eight" unicode="8" horiz-adv-x="556" d="M278 112 Q303 112 321 123.5 Q339 135 341 172 Q339 209 321 220.5 Q303 232 278 232 Q253 232 235 220.5 Q217 209 215 172 Q217 135 235 123.5 Q253 112 278 112 Z M278 354 Q300 355 319.5 367 Q339 379 341 414 Q339 451 321 462.5 Q303 474 278 474 Q253 474 235 462.5 Q217 451 215 414 Q217 379 236.5 367 Q256 355 278 354 Z M278 -13 Q157 -13 93.5 36 Q30 85 30 172 Q30 189 35 207 Q40 225 49.5 241.5 Q59 258 74 271.5 Q89 285 109 293 Q67 318 48.5 349 Q30 380 30 414 Q30 507 93.5 553 Q157 599 278 599 Q399 599 462.5 553 Q526 507 526 414 Q526 380 507.5 349 Q489 318 447 293 Q467 285 482 271.5 Q497 258 506.5 241.5 Q516 225 521 207 Q526 189 526 172 Q526 85 462.5 36 Q399 -13 278 -13 Z " />
<glyph glyph-name="nine" unicode="9" horiz-adv-x="561" d="M282 351 Q304 351 323.5 364.5 Q343 378 343 417 Q343 435 337 446.5 Q331 458 321 464 Q311 470 298.5 472 Q286 474 274 474 Q245 474 227.5 462.5 Q210 451 210 412 Q210 380 225.5 365.5 Q241 351 276 351 L282 351 Z M218 153 Q225 140 238 132.5 Q251 125 278 125 Q305 125 318.5 140 Q332 155 332 180 L332 242 Q322 232 309 225.5 Q296 219 283.5 216 Q271 213 260 212 Q249 211 244 211 Q180 211 138 227.5 Q96 244 71 271.5 Q46 299 35.5 335 Q25 371 25 410 Q25 451 38 485.5 Q51 520 80.5 545 Q110 570 157.5 584.5 Q205 599 275 599 Q335 599 382.5 587 Q430 575 463 543 Q496 511 513.5 455 Q531 399 531 310 L531 285 Q531 204 519.5 147 Q508 90 479 54.5 Q450 19 401 3 Q352 -13 278 -13 Q178 -13 115 22.5 Q52 58 38 137 Q38 157 52 170 Q66 183 86 183 L175 183 Q191 183 201 174.5 Q211 166 218 153 Z " />
<glyph glyph-name="colon" unicode="&#x3a;" horiz-adv-x="278" d="M228 46 Q228 26 214 13 Q200 0 180 0 L98 0 Q78 0 64 13 Q50 26 50 46 L50 129 Q50 149 64 162 Q78 175 98 175 L180 175 Q200 175 214 162 Q228 149 228 129 L228 46 Z M228 296 Q228 276 214 263 Q200 250 180 250 L98 250 Q78 250 64 263 Q50 276 50 296 L50 379 Q50 399 64 412 Q78 425 98 425 L180 425 Q200 425 214 412 Q228 399 228 379 L228 296 Z " />
<glyph glyph-name="semicolon" unicode="&#x3b;" horiz-adv-x="314" d="M217 -50 Q214 -70 201.5 -83 Q189 -96 169 -96 L96 -96 Q76 -96 63 -83 Q50 -70 50 -50 L78 106 Q82 126 94 139 Q106 152 126 152 L208 152 Q228 152 241 139 Q254 126 254 106 L217 -50 Z M264 296 Q264 276 250 263 Q236 250 216 250 L134 250 Q114 250 100 263 Q86 276 86 296 L86 379 Q86 399 100 412 Q114 425 134 425 L216 425 Q236 425 250 412 Q264 399 264 379 L264 296 Z " />
<glyph glyph-name="less" unicode="&#x3c;" horiz-adv-x="424" d="M222 232 L333 186 Q350 179 362 170 Q374 161 374 144 L374 65 Q374 47 362 33.5 Q350 20 333 20 L78 155 Q66 162 58 173 Q50 184 50 198 L50 266 Q50 280 58 291 Q66 302 78 309 L333 444 Q350 444 362 430.5 Q374 417 374 399 L374 317 Q374 300 362 291 Q350 282 333 275 L222 232 Z " />
<glyph glyph-name="equal" unicode="&#x3d;" horiz-adv-x="413" d="M87 31 Q72 31 61 42.5 Q50 54 50 70 L50 127 Q50 143 61 154.5 Q72 166 87 166 L326 166 Q341 166 352 154.5 Q363 143 363 127 L363 70 Q363 54 352 42.5 Q341 31 326 31 L87 31 Z M87 220 Q72 220 61 231.5 Q50 243 50 259 L50 316 Q50 332 61 343.5 Q72 355 87 355 L326 355 Q341 355 352 343.5 Q363 332 363 316 L363 259 Q363 243 352 231.5 Q341 220 326 220 L87 220 Z " />
<glyph glyph-name="greater" unicode="&#x3e;" horiz-adv-x="424" d="M91 275 Q74 282 62 291 Q50 300 50 317 L50 399 Q50 417 62 430.5 Q74 444 91 444 L346 309 Q358 302 366 291 Q374 280 374 266 L374 198 Q374 184 366 173 Q358 162 346 155 L91 20 Q74 20 62 33.5 Q50 47 50 65 L50 144 Q50 161 62 170 Q74 179 91 186 L202 232 L91 275 Z " />
<glyph glyph-name="question" unicode="&#x3f;" horiz-adv-x="601" d="M169 76 Q169 96 183 109 Q197 122 217 122 L315 122 Q335 122 349 109 Q363 96 363 76 L363 33 Q363 13 349 0 Q335 -13 315 -13 L217 -13 Q197 -13 183 0 Q169 13 169 33 L169 76 Z M231 422 Q226 409 214.5 399.5 Q203 390 188 390 L95 390 Q76 390 63 402.5 Q50 415 50 433 Q63 514 122.5 556.5 Q182 599 282 599 Q356 599 407.5 584.5 Q459 570 491 544.5 Q523 519 537 484.5 Q551 450 551 410 Q551 376 538 348 Q525 320 501 295 Q477 270 442 246.5 Q407 223 363 198 Q363 175 349 161.5 Q335 148 315 148 L217 148 Q197 148 183 161 Q169 174 169 194 L169 247 Q169 260 175 270 Q181 280 191 286 Q203 292 228.5 304 Q254 316 280 332.5 Q306 349 325.5 368 Q345 387 345 406 Q345 431 331.5 446 Q318 461 291 461 Q263 461 249.5 450 Q236 439 231 422 Z " />
<glyph glyph-name="at" unicode="&#x40;" horiz-adv-x="821" d="M590 189 Q590 209 572.5 223 Q555 237 535 237 Q515 237 498 223 Q481 209 481 186 L481 166 Q481 145 498 131 Q515 117 535 117 Q558 117 574 131 Q590 145 590 166 L590 189 Z M348 -227 Q264 -227 207 -200 Q150 -173 115 -130.5 Q80 -88 65 -36 Q50 16 50 65 L50 307 Q50 356 69 408 Q88 460 127 502.5 Q166 545 227 572 Q288 599 372 599 L450 599 Q534 599 594.5 571.5 Q655 544 694.5 501.5 Q734 459 752.5 407 Q771 355 771 306 L771 46 Q771 26 757 13 Q743 0 723 0 L638 0 Q618 0 604 14.5 Q590 29 590 49 Q566 18 535 2 Q504 -14 472 -14 Q394 -14 350 37.5 Q306 89 306 180 Q306 271 350 320 Q394 369 472 369 Q504 369 531.5 356 Q559 343 590 305 Q590 340 578 366.5 Q566 393 546 411 Q526 429 501.5 438 Q477 447 451 447 L398 447 Q373 447 343.5 438 Q314 429 289.5 411.5 Q265 394 248.5 368 Q232 342 232 307 L232 65 Q232 -5 264.5 -40 Q297 -75 348 -75 L395 -75 Q412 -75 424 -88 Q436 -101 436 -118 L436 -184 Q436 -201 424 -214 Q412 -227 395 -227 L348 -227 Z " />
<glyph glyph-name="A" unicode="A" horiz-adv-x="607" d="M387 585 Q407 585 420.5 571.5 Q434 558 440 539 L602 46 Q602 26 588 13 Q574 0 554 0 L450 0 Q430 0 418.5 13.5 Q407 27 402 46 L382 125 L226 125 L205 46 Q200 27 188.5 13.5 Q177 0 157 0 L53 0 Q33 0 19 13 Q5 26 5 46 L165 539 Q171 558 184.5 571.5 Q198 585 218 585 L387 585 Z M258 250 L350 250 L304 426 L258 250 Z " />
<glyph glyph-name="B" unicode="B" horiz-adv-x="584" d="M239 347 L298 347 Q325 347 341.5 361 Q358 375 358 396 Q358 417 341.5 432 Q325 447 298 447 L239 447 L239 347 Z M324 139 Q351 139 367.5 151.5 Q384 164 384 185 Q384 206 367.5 217 Q351 228 324 228 L239 228 L239 139 L324 139 Z M298 585 Q368 585 415 569 Q462 553 490.5 527 Q519 501 531 468.5 Q543 436 543 402 Q543 375 528.5 347.5 Q514 320 473 305 Q500 299 518.5 286 Q537 273 548 256.5 Q559 240 564 221.5 Q569 203 569 186 Q569 152 557 119 Q545 86 516.5 59.5 Q488 33 441 16.5 Q394 0 324 0 L93 0 Q73 0 59 13 Q45 26 45 46 L45 539 Q45 559 59 572 Q73 585 93 585 L298 585 Z " />
<glyph glyph-name="C" unicode="C" horiz-adv-x="630" d="M605 166 Q586 85 514 36 Q442 -13 323 -13 Q239 -13 182 16.5 Q125 46 90 91 Q55 136 40 188.5 Q25 241 25 287 Q25 336 40 391 Q55 446 90 492 Q125 538 182 568.5 Q239 599 323 599 Q382 599 430 585.5 Q478 572 514 547.5 Q550 523 573 489.5 Q596 456 605 415 Q605 392 592 386 Q579 380 560 380 L440 380 Q421 380 413 388 Q405 396 395 417 Q386 436 364.5 448.5 Q343 461 323 461 Q298 461 278.5 447 Q259 433 245.5 409 Q232 385 225.5 353.5 Q219 322 219 287 Q219 255 225.5 225.5 Q232 196 245.5 173.5 Q259 151 278.5 138 Q298 125 323 125 Q343 125 363 134.5 Q383 144 395 164 Q405 185 412.5 193 Q420 201 439 201 L559 201 Q578 201 591.5 195 Q605 189 605 166 Z " />
<glyph glyph-name="D" unicode="D" horiz-adv-x="604" d="M239 434 L239 151 L281 151 Q332 151 358.5 189.5 Q385 228 385 293 Q385 434 281 434 L239 434 Z M281 585 Q365 585 422 558 Q479 531 514 488.5 Q549 446 564 394 Q579 342 579 293 Q579 247 564 195.5 Q549 144 514 100.5 Q479 57 422 28.5 Q365 0 281 0 L93 0 Q73 0 59 13 Q45 26 45 46 L45 539 Q45 559 59 572 Q73 585 93 585 L281 585 Z " />
<glyph glyph-name="E" unicode="E" horiz-adv-x="525" d="M394 359 Q409 359 420 347.5 Q431 336 431 320 L431 262 Q431 246 420 234.5 Q409 223 394 223 L239 223 L239 151 L454 151 Q471 151 483 138 Q495 125 495 108 L495 43 Q495 26 483 13 Q471 0 454 0 L93 0 Q73 0 59 13 Q45 26 45 46 L45 539 Q45 559 59 572 Q73 585 93 585 L454 585 Q471 585 483 572 Q495 559 495 542 L495 477 Q495 460 483 447 Q471 434 454 434 L239 434 L239 359 L394 359 Z " />
<glyph glyph-name="F" unicode="F" horiz-adv-x="515" d="M93 0 Q73 0 59 13 Q45 26 45 46 L45 539 Q45 559 59 572 Q73 585 93 585 L454 585 Q471 585 483 572 Q495 559 495 542 L495 477 Q495 460 483 447 Q471 434 454 434 L239 434 L239 340 L423 340 Q438 340 449 328.5 Q460 317 460 301 L460 228 Q460 212 449 200.5 Q438 189 423 189 L239 189 L239 46 Q239 26 225 13 Q211 0 191 0 L93 0 Z " />
<glyph glyph-name="G" unicode="G" horiz-adv-x="651" d="M573 325 Q590 325 600.5 314 Q611 303 611 286 L611 39 Q611 22 599 11 Q587 0 570 0 L531 0 Q514 0 502 11 Q490 22 490 39 L489 54 Q463 17 419 2 Q375 -13 325 -13 Q241 -13 183.5 17 Q126 47 91 92.5 Q56 138 40.5 192 Q25 246 25 294 Q25 340 40 393.5 Q55 447 90 492.5 Q125 538 182 568.5 Q239 599 323 599 Q382 599 430 585.5 Q478 572 514 547.5 Q550 523 573 489.5 Q596 456 605 415 Q605 392 592 386 Q579 380 560 380 L440 380 Q421 380 413 388 Q405 396 395 417 Q386 436 364.5 448.5 Q343 461 323 461 Q298 461 278.5 447 Q259 433 245.5 410 Q232 387 225.5 356.5 Q219 326 219 294 Q219 261 226.5 230.5 Q234 200 248.5 176.5 Q263 153 283.5 139 Q304 125 330 125 Q388 125 417.5 146.5 Q447 168 460 207 L400 207 Q384 207 373.5 218 Q363 229 363 246 L363 286 Q363 303 373.5 314 Q384 325 400 325 L573 325 Z " />
<glyph glyph-name="H" unicode="H" horiz-adv-x="619" d="M380 358 L380 539 Q380 559 394 572 Q408 585 428 585 L526 585 Q546 585 560 572 Q574 559 574 539 L574 46 Q574 26 560 13 Q546 0 526 0 L428 0 Q408 0 394 13 Q380 26 380 46 L380 206 L239 206 L239 46 Q239 26 225 13 Q211 0 191 0 L93 0 Q73 0 59 13 Q45 26 45 46 L45 539 Q45 559 59 572 Q73 585 93 585 L191 585 Q211 585 225 572 Q239 559 239 539 L239 358 L380 358 Z " />
<glyph glyph-name="I" unicode="I" horiz-adv-x="284" d="M239 46 Q239 26 225 13 Q211 0 191 0 L93 0 Q73 0 59 13 Q45 26 45 46 L45 539 Q45 559 59 572 Q73 585 93 585 L191 585 Q211 585 225 572 Q239 559 239 539 L239 46 Z " />
<glyph glyph-name="J" unicode="J" horiz-adv-x="541" d="M195 182 Q203 150 217.5 137.5 Q232 125 252 125 Q277 125 290 142.5 Q303 160 303 214 L303 539 Q303 559 317 572 Q331 585 351 585 L448 585 Q468 585 482 572 Q496 559 496 539 L496 214 Q496 174 484 133 Q472 92 443.5 60 Q415 28 368.5 7.5 Q322 -13 252 -13 Q190 -13 146 3.5 Q102 20 73 47.5 Q44 75 29 110 Q14 145 10 182 Q10 202 24 215 Q38 228 58 228 L147 228 Q167 228 178.5 215 Q190 202 195 182 Z " />
<glyph glyph-name="K" unicode="K" horiz-adv-x="630" d="M313 241 L239 163 L239 46 Q239 26 225 13 Q211 0 191 0 L93 0 Q73 0 59 13 Q45 26 45 46 L45 539 Q45 559 59 572 Q73 585 93 585 L191 585 Q211 585 225 572 Q239 559 239 539 L239 393 L401 565 Q418 585 443 585 L547 585 Q567 585 581 572 Q595 559 595 539 L446 381 L625 46 Q625 26 611 13 Q597 0 577 0 L476 0 Q451 0 434 20 L313 241 Z " />
<glyph glyph-name="L" unicode="L" horiz-adv-x="515" d="M454 151 Q471 151 483 138 Q495 125 495 108 L495 43 Q495 26 483 13 Q471 0 454 0 L93 0 Q73 0 59 13 Q45 26 45 46 L45 539 Q45 559 59 572 Q73 585 93 585 L191 585 Q211 585 225 572 Q239 559 239 539 L239 151 L454 151 Z " />
<glyph glyph-name="M" unicode="M" horiz-adv-x="834" d="M368 0 Q348 0 336.5 13.5 Q325 27 320 46 L231 350 L213 46 Q208 27 196.5 13.5 Q185 0 165 0 L83 0 Q63 0 49 13 Q35 26 35 46 L66 539 Q66 559 80 572 Q94 585 114 585 L290 585 Q328 585 340 539 L417 256 L494 539 Q506 585 544 585 L720 585 Q740 585 754 572 Q768 559 768 539 L799 46 Q799 26 785 13 Q771 0 751 0 L669 0 Q649 0 637.5 13.5 Q626 27 621 46 L603 350 L514 46 Q509 27 497.5 13.5 Q486 0 466 0 L368 0 Z " />
<glyph glyph-name="N" unicode="N" horiz-adv-x="662" d="M423 301 L423 539 Q423 559 437 572 Q451 585 471 585 L569 585 Q589 585 603 572 Q617 559 617 539 L617 46 Q617 26 603 13 Q589 0 569 0 L460 0 Q426 0 411 29 L239 281 L239 46 Q239 26 225 13 Q211 0 191 0 L93 0 Q73 0 59 13 Q45 26 45 46 L45 539 Q45 559 59 572 Q73 585 93 585 L202 585 Q238 585 252 556 L423 301 Z " />
<glyph glyph-name="O" unicode="O" horiz-adv-x="658" d="M329 125 Q356 125 377 138 Q398 151 411.5 173.5 Q425 196 432 225.5 Q439 255 439 287 Q439 322 432 353.5 Q425 385 411.5 409 Q398 433 377 447 Q356 461 329 461 Q302 461 281 447 Q260 433 246.5 409 Q233 385 226 353.5 Q219 322 219 287 Q219 255 226 225.5 Q233 196 246.5 173.5 Q260 151 281 138 Q302 125 329 125 Z M329 -14 Q245 -14 187 15.5 Q129 45 93 90 Q57 135 41 188 Q25 241 25 287 Q25 336 41 391 Q57 446 93 492 Q129 538 187 568.5 Q245 599 329 599 Q413 599 471 568.5 Q529 538 565 492 Q601 446 617 391 Q633 336 633 287 Q633 241 617 188 Q601 135 565 90 Q529 45 471 15.5 Q413 -14 329 -14 Z " />
<glyph glyph-name="P" unicode="P" horiz-adv-x="574" d="M239 309 L310 309 Q337 309 355.5 325 Q374 341 374 371 Q374 401 355.5 417.5 Q337 434 310 434 L239 434 L239 309 Z M314 585 Q384 585 431 564.5 Q478 544 506.5 512.5 Q535 481 547 443.5 Q559 406 559 372 Q559 338 547 300.5 Q535 263 506.5 231.5 Q478 200 431 179 Q384 158 314 158 L239 158 L239 46 Q239 26 225 13 Q211 0 191 0 L93 0 Q73 0 59 13 Q45 26 45 46 L45 539 Q45 559 59 572 Q73 585 93 585 L314 585 Z " />
<glyph glyph-name="Q" unicode="Q" horiz-adv-x="669" d="M622 125 Q637 125 648 113.5 Q659 102 659 86 L659 39 Q659 23 648 11.5 Q637 0 622 0 L440 0 Q416 -8 388.5 -11 Q361 -14 329 -14 Q245 -14 187 15.5 Q129 45 93 90 Q57 135 41 188 Q25 241 25 287 Q25 336 41 391 Q57 446 93 492 Q129 538 187 568.5 Q245 599 329 599 Q413 599 471 568.5 Q529 538 565 492 Q601 446 617 391 Q633 336 633 287 Q633 249 622.5 207 Q612 165 589 125 L622 125 Z M329 125 Q356 125 377 138 Q398 151 411.5 173.5 Q425 196 432 225.5 Q439 255 439 287 Q439 322 432 353.5 Q425 385 411.5 409 Q398 433 377 447 Q356 461 329 461 Q302 461 281 447 Q260 433 246.5 409 Q233 385 226 353.5 Q219 322 219 287 Q219 255 226 225.5 Q233 196 246.5 173.5 Q260 151 281 138 Q302 125 329 125 Z " />
<glyph glyph-name="R" unicode="R" horiz-adv-x="588" d="M568 372 Q568 350 563 326 Q558 302 547 278.5 Q536 255 518 234 Q500 213 474 196 L545 46 Q545 26 531 13 Q517 0 497 0 L406 0 Q386 0 373 13.5 Q360 27 352 46 L298 158 L239 158 L239 47 Q239 27 225 13.5 Q211 0 191 0 L93 0 Q73 0 59 13 Q45 26 45 46 L45 539 Q45 559 59 572 Q73 585 93 585 L323 585 Q393 585 440 564.5 Q487 544 515.5 512.5 Q544 481 556 443.5 Q568 406 568 372 Z M319 309 Q346 309 364.5 325 Q383 341 383 371 Q383 401 364.5 417.5 Q346 434 319 434 L239 434 L239 309 L319 309 Z " />
<glyph glyph-name="S" unicode="S" horiz-adv-x="629" d="M37 138 Q37 167 54.5 175 Q72 183 96 183 L194 183 Q212 183 223.5 176 Q235 169 243 155 Q254 137 276 131 Q298 125 336 125 Q360 125 374 127.5 Q388 130 395 135.5 Q402 141 404 148.5 Q406 156 406 165 Q406 176 395 183 Q384 190 365.5 195 Q347 200 323 204 Q299 208 273 213 Q228 221 184 234 Q140 247 106 267 Q72 287 51 317 Q30 347 30 390 Q30 433 44.5 471 Q59 509 91.5 537.5 Q124 566 176 582.5 Q228 599 302 599 Q351 599 396.5 591 Q442 583 478.5 565 Q515 547 541 519 Q567 491 577 452 Q577 423 559.5 415 Q542 407 518 407 L414 407 Q396 407 384.5 414 Q373 421 365 435 Q356 446 337.5 453.5 Q319 461 293 461 Q269 461 255 456 Q241 451 234 444.5 Q227 438 225 431.5 Q223 425 223 421 Q223 407 249.5 395.5 Q276 384 310.5 375.5 Q345 367 379 361 Q413 355 428 352 Q466 345 497 332 Q528 319 551 299.5 Q574 280 586.5 252.5 Q599 225 599 188 Q599 145 583 108.5 Q567 72 532.5 45 Q498 18 445 2.5 Q392 -13 317 -13 Q268 -13 222 -4.5 Q176 4 138.5 22 Q101 40 74.5 68.5 Q48 97 37 138 Z " />
<glyph glyph-name="T" unicode="T" horiz-adv-x="527" d="M476 585 Q493 585 505 572 Q517 559 517 542 L517 477 Q517 460 505 447 Q493 434 476 434 L360 434 L360 46 Q360 26 346 13 Q332 0 312 0 L215 0 Q195 0 181 13 Q167 26 167 46 L167 434 L51 434 Q34 434 22 447 Q10 460 10 477 L10 542 Q10 559 22 572 Q34 585 51 585 L476 585 Z " />
<glyph glyph-name="U" unicode="U" horiz-adv-x="659" d="M40 539 Q40 559 54 572 Q68 585 88 585 L186 585 Q206 585 220 572 Q234 559 234 539 L234 261 Q234 196 254 160.5 Q274 125 329 125 Q384 125 404.5 160.5 Q425 196 425 261 L425 539 Q425 559 439 572 Q453 585 473 585 L571 585 Q591 585 605 572 Q619 559 619 539 L619 261 Q619 215 605 166 Q591 117 558 77 Q525 37 469 11.5 Q413 -14 329 -14 Q245 -14 189.5 11.5 Q134 37 100.5 77 Q67 117 53.5 166 Q40 215 40 261 L40 539 Z " />
<glyph glyph-name="V" unicode="V" horiz-adv-x="607" d="M218 0 Q198 0 184.5 13.5 Q171 27 165 46 L5 539 Q5 559 19 572 Q33 585 53 585 L157 585 Q177 585 188.5 571.5 Q200 558 205 539 L304 159 L402 539 Q407 558 418.5 571.5 Q430 585 450 585 L554 585 Q574 585 588 572 Q602 559 602 539 L440 46 Q434 27 420.5 13.5 Q407 0 387 0 L218 0 Z " />
<glyph glyph-name="W" unicode="W" horiz-adv-x="792" d="M439 585 Q459 585 470.5 571.5 Q482 558 487 539 L564 246 L611 539 Q616 558 627.5 571.5 Q639 585 659 585 L739 585 Q759 585 773 572 Q787 559 787 539 L686 46 Q686 26 672 13 Q658 0 638 0 L518 0 Q498 0 486.5 11.5 Q475 23 468 46 L396 306 L324 46 Q317 23 305.5 11.5 Q294 0 274 0 L154 0 Q134 0 120 13 Q106 26 106 46 L5 539 Q5 559 19 572 Q33 585 53 585 L133 585 Q153 585 164.5 571.5 Q176 558 181 539 L228 246 L305 539 Q310 558 321.5 571.5 Q333 585 353 585 L439 585 Z " />
<glyph glyph-name="X" unicode="X" horiz-adv-x="602" d="M203 24 Q195 14 185.5 7 Q176 0 149 0 L63 0 Q43 0 29 13 Q15 26 15 46 L201 294 L15 539 Q15 559 29 572 Q43 585 63 585 L149 585 Q176 585 185.5 578 Q195 571 203 561 L301 440 L399 561 Q407 571 416.5 578 Q426 585 453 585 L539 585 Q559 585 573 572 Q587 559 587 539 L401 294 L587 46 Q587 26 573 13 Q559 0 539 0 L453 0 Q426 0 416.5 7 Q407 14 399 24 L301 147 L203 24 Z " />
<glyph glyph-name="Y" unicode="Y" horiz-adv-x="612" d="M403 46 Q403 26 389 13 Q375 0 355 0 L257 0 Q237 0 223 13 Q209 26 209 46 L209 188 L10 539 Q10 559 24 572 Q38 585 58 585 L157 585 Q177 585 188.5 571 Q200 557 209 539 L306 350 L403 539 Q412 557 423.5 571 Q435 585 455 585 L554 585 Q574 585 588 572 Q602 559 602 539 L403 189 L403 46 Z " />
<glyph glyph-name="Z" unicode="Z" horiz-adv-x="508" d="M437 151 Q454 151 466 138 Q478 125 478 108 L478 43 Q478 26 466 13 Q454 0 437 0 L71 0 Q54 0 42 13 Q30 26 30 43 L30 113 Q30 134 43 150 L239 434 L71 434 Q54 434 42 447 Q30 460 30 477 L30 542 Q30 559 42 572 Q54 585 71 585 L437 585 Q454 585 466 572 Q478 559 478 542 L478 472 Q478 452 465 436 L270 151 L437 151 Z " />
<glyph glyph-name="bracketleft" unicode="&#x5b;" horiz-adv-x="403" d="M50 736 Q50 756 64 769 Q78 782 98 782 L312 782 Q329 782 341 769 Q353 756 353 739 L353 679 Q353 662 341 649 Q329 636 312 636 L222 636 L222 -25 L312 -25 Q329 -25 341 -38 Q353 -51 353 -68 L353 -128 Q353 -145 341 -158 Q329 -171 312 -171 L98 -171 Q78 -171 64 -158 Q50 -145 50 -125 L50 736 Z " />
<glyph glyph-name="backslash" unicode="&#x5c;" horiz-adv-x="487" d="M487 -125 Q487 -145 473 -158 Q459 -171 439 -171 L377 -171 Q350 -171 338 -161 Q326 -151 318 -137 L0 736 Q0 756 14 769 Q28 782 48 782 L110 782 Q137 782 149 772 Q161 762 169 748 L487 -125 Z " />
<glyph glyph-name="bracketright" unicode="&#x5d;" horiz-adv-x="403" d="M353 -125 Q353 -145 339 -158 Q325 -171 305 -171 L91 -171 Q74 -171 62 -158 Q50 -145 50 -128 L50 -68 Q50 -51 62 -38 Q74 -25 91 -25 L181 -25 L181 636 L91 636 Q74 636 62 649 Q50 662 50 679 L50 739 Q50 756 62 769 Q74 782 91 782 L305 782 Q325 782 339 769 Q353 756 353 736 L353 -125 Z " />
<glyph glyph-name="asciicircum" unicode="&#x5e;" horiz-adv-x="500" d="M450 347 Q450 327 436 314 Q422 301 402 301 L327 301 Q307 301 295.5 315 Q284 329 275 347 L250 406 L225 347 Q216 329 204.5 315 Q193 301 173 301 L98 301 Q78 301 64 314 Q50 327 50 347 L162 559 Q168 570 177.5 577.5 Q187 585 199 585 L301 585 Q313 585 322.5 577.5 Q332 570 338 559 L450 347 Z " />
<glyph glyph-name="underscore" unicode="&#x5f;" horiz-adv-x="413" d="M87 -148 Q72 -148 61 -136.5 Q50 -125 50 -109 L50 -52 Q50 -36 61 -24.5 Q72 -13 87 -13 L326 -13 Q341 -13 352 -24.5 Q363 -36 363 -52 L363 -109 Q363 -125 352 -136.5 Q341 -148 326 -148 L87 -148 Z " />
<glyph glyph-name="grave" unicode="&#x60;" horiz-adv-x="359" d="M309 381 Q309 362 296 349.5 Q283 337 263 337 L177 337 Q157 337 146 350.5 Q135 364 127 381 L50 541 Q50 560 63 572.5 Q76 585 96 585 L192 585 Q212 585 222.5 571.5 Q233 558 242 541 L309 381 Z " />
<glyph glyph-name="a" unicode="a" horiz-adv-x="518" d="M206 143 Q206 126 219 121.5 Q232 117 248 117 Q257 117 269.5 120 Q282 123 294 128 L294 172 Q284 172 269 170.5 Q254 169 240 166 Q226 163 216 157.5 Q206 152 206 143 Z M195 304 Q187 289 178.5 285.5 Q170 282 156 282 L73 282 Q59 282 50 286.5 Q41 291 41 307 Q51 345 71.5 370.5 Q92 396 119 411.5 Q146 427 179 433.5 Q212 440 248 440 Q316 440 362 426.5 Q408 413 436 385.5 Q464 358 476 316 Q488 274 488 216 L488 46 Q488 26 474 13 Q460 0 440 0 L342 0 Q322 0 308 13 Q294 26 294 46 Q258 7 227.5 -3 Q197 -13 172 -13 Q148 -13 122 -4.5 Q96 4 74.5 21.5 Q53 39 39 66.5 Q25 94 25 133 Q25 180 51 205.5 Q77 231 117 243.5 Q157 256 204.5 258.5 Q252 261 294 261 Q292 291 280.5 306.5 Q269 322 241 322 Q224 322 213 319 Q202 316 195 304 Z " />
<glyph glyph-name="b" unicode="b" horiz-adv-x="567" d="M348 257 Q348 280 331 294 Q314 308 294 308 Q274 308 256.5 294 Q239 280 239 260 L239 166 Q239 145 255 131 Q271 117 294 117 Q314 117 331 131 Q348 145 348 166 L348 257 Z M239 49 Q239 28 225 14 Q211 0 191 0 L93 0 Q73 0 59 13 Q45 26 45 46 L45 539 Q45 559 59 572 Q73 585 93 585 L191 585 Q211 585 225 572 Q239 559 239 539 L239 376 Q270 414 297.5 427 Q325 440 357 440 Q396 440 429.5 421 Q463 402 488 370.5 Q513 339 527.5 297.5 Q542 256 542 211 Q542 166 527.5 125 Q513 84 488 53 Q463 22 429.5 3.5 Q396 -15 357 -15 Q325 -15 294 1.5 Q263 18 239 49 Z " />
<glyph glyph-name="c" unicode="c" horiz-adv-x="525" d="M505 152 Q499 121 482 91.5 Q465 62 437 38.5 Q409 15 369 1 Q329 -13 276 -13 Q206 -13 158 7.5 Q110 28 80.5 60 Q51 92 38 133 Q25 174 25 214 Q25 253 38 293.5 Q51 334 80.5 366.5 Q110 399 158 419.5 Q206 440 276 440 Q326 440 367 426 Q408 412 437 388.5 Q466 365 483.5 335.5 Q501 306 505 275 Q505 252 492 246.5 Q479 241 460 241 L369 241 Q350 241 341.5 248.5 Q333 256 325 278 Q317 298 304 307 Q291 316 276 316 Q241 316 225.5 289 Q210 262 210 214 Q210 166 225.5 139 Q241 112 276 112 Q312 112 325 149 Q333 171 341.5 178.5 Q350 186 369 186 L460 186 Q479 186 492 180.5 Q505 175 505 152 Z " />
<glyph glyph-name="d" unicode="d" horiz-adv-x="567" d="M219 166 Q219 145 236 131 Q253 117 273 117 Q296 117 312 131 Q328 145 328 166 L328 260 Q328 280 310.5 294 Q293 308 273 308 Q253 308 236 294 Q219 280 219 257 L219 166 Z M328 49 Q304 18 273 1.5 Q242 -15 210 -15 Q171 -15 137.5 3.5 Q104 22 79 53 Q54 84 39.5 125 Q25 166 25 211 Q25 256 39.5 297.5 Q54 339 79 370.5 Q104 402 137.5 421 Q171 440 210 440 Q242 440 269.5 427 Q297 414 328 376 L328 539 Q328 559 342 572 Q356 585 376 585 L474 585 Q494 585 508 572 Q522 559 522 539 L522 46 Q522 26 508 13 Q494 0 474 0 L376 0 Q356 0 342 14 Q328 28 328 49 Z " />
<glyph glyph-name="e" unicode="e" horiz-adv-x="519" d="M261 320 Q241 320 224.5 310 Q208 300 201 265 L323 265 Q316 300 298.5 310 Q281 320 261 320 Z M499 226 Q499 206 485 193 Q471 180 451 180 L209 180 Q209 151 224 134 Q239 117 265 117 Q277 117 289.5 119 Q302 121 311 128 Q318 134 326.5 136 Q335 138 346 138 L439 138 Q458 138 471 132.5 Q484 127 484 104 Q461 55 408.5 21 Q356 -13 266 -13 Q196 -13 150 9 Q104 31 76 64.5 Q48 98 36.5 138 Q25 178 25 214 Q25 252 36 292 Q47 332 74 365 Q101 398 147 419 Q193 440 263 440 Q329 440 373.5 421.5 Q418 403 445.5 372.5 Q473 342 485 303.5 Q497 265 499 226 Z " />
<glyph glyph-name="f" unicode="f" horiz-adv-x="384" d="M327 482 Q299 482 287.5 471.5 Q276 461 276 447 L276 425 L327 425 Q343 425 353.5 414 Q364 403 364 386 L364 336 Q364 319 353.5 308 Q343 297 327 297 L276 297 L276 46 Q276 26 262 13 Q248 0 228 0 L130 0 Q110 0 96 13 Q82 26 82 46 L82 297 L52 297 Q36 297 25.5 308 Q15 319 15 336 L15 386 Q15 403 25.5 414 Q36 425 52 425 L82 425 Q83 515 124.5 569 Q166 623 247 623 Q261 623 283 622.5 Q305 622 326 619 Q342 619 353 607.5 Q364 596 364 579 L364 521 Q364 504 353.5 493 Q343 482 327 482 Z " />
<glyph glyph-name="g" unicode="g" horiz-adv-x="567" d="M219 168 Q219 145 236 131 Q253 117 273 117 Q293 117 310.5 131 Q328 145 328 165 L328 261 Q328 282 312 296 Q296 310 273 310 Q253 310 236 296 Q219 282 219 261 L219 168 Z M226 -61 Q236 -70 247.5 -73.5 Q259 -77 272 -77 Q304 -77 316 -57 Q328 -37 328 -8 L328 46 Q296 14 269 0.5 Q242 -13 210 -13 Q171 -13 137.5 5.5 Q104 24 79 55 Q54 86 39.5 127.5 Q25 169 25 214 Q25 259 39.5 300 Q54 341 79 372 Q104 403 137.5 421.5 Q171 440 210 440 Q242 440 273 423.5 Q304 407 328 376 Q328 398 342 411.5 Q356 425 376 425 L474 425 Q494 425 508 412 Q522 399 522 379 L522 28 Q522 -25 509 -67.5 Q496 -110 466.5 -139.5 Q437 -169 389 -185 Q341 -201 271 -201 Q227 -201 193.5 -193 Q160 -185 134.5 -170.5 Q109 -156 89.5 -135 Q70 -114 55 -88 Q53 -84 53 -81 Q53 -72 61 -64 Q75 -50 95 -50 L193 -50 Q206 -50 213.5 -53 Q221 -56 226 -61 Z " />
<glyph glyph-name="h" unicode="h" horiz-adv-x="577" d="M239 376 Q270 414 307.5 427 Q345 440 377 440 Q455 440 498.5 384 Q542 328 542 211 L542 46 Q542 26 528 13 Q514 0 494 0 L396 0 Q376 0 362 13 Q348 26 348 46 L348 259 Q348 282 331 296 Q314 310 294 310 Q274 310 256.5 296 Q239 282 239 262 L239 46 Q239 26 225 13 Q211 0 191 0 L93 0 Q73 0 59 13 Q45 26 45 46 L45 539 Q45 559 59 572 Q73 585 93 585 L191 585 Q211 585 225 572 Q239 559 239 539 L239 376 Z " />
<glyph glyph-name="i" unicode="i" horiz-adv-x="294" d="M244 46 Q244 26 230 13 Q216 0 196 0 L98 0 Q78 0 64 13 Q50 26 50 46 L50 379 Q50 399 64 412 Q78 425 98 425 L196 425 Q216 425 230 412 Q244 399 244 379 L244 46 Z M244 507 Q244 487 230 474 Q216 461 196 461 L98 461 Q78 461 64 474 Q50 487 50 507 L50 558 Q50 578 64 591 Q78 604 98 604 L196 604 Q216 604 230 591 Q244 578 244 558 L244 507 Z " />
<glyph glyph-name="j" unicode="j" horiz-adv-x="292" d="M0 -209 Q-14 -209 -24.5 -198.5 Q-35 -188 -35 -173 L-35 -109 Q-35 -93 -24 -81.5 Q-13 -70 1 -70 L6 -70 Q32 -70 42.5 -59.5 Q53 -49 53 -35 L53 379 Q53 399 67 412 Q81 425 101 425 L199 425 Q219 425 233 412 Q247 399 247 379 L247 -21 Q247 -112 205.5 -162.5 Q164 -213 82 -213 Q68 -213 44.5 -212.5 Q21 -212 0 -209 Z M247 507 Q247 487 233 474 Q219 461 199 461 L101 461 Q81 461 67 474 Q53 487 53 507 L53 558 Q53 578 67 591 Q81 604 101 604 L199 604 Q219 604 233 591 Q247 578 247 558 L247 507 Z " />
<glyph glyph-name="k" unicode="k" horiz-adv-x="518" d="M239 152 L239 46 Q239 26 225 13 Q211 0 191 0 L93 0 Q73 0 59 13 Q45 26 45 46 L45 539 Q45 559 59 572 Q73 585 93 585 L191 585 Q211 585 225 572 Q239 559 239 539 L239 295 L255 295 L333 404 Q346 425 372 425 L467 425 Q485 425 499 417.5 Q513 410 513 383 L390 212 L513 42 Q513 15 499 7.5 Q485 0 467 0 L372 0 Q346 0 333 21 L239 152 Z " />
<glyph glyph-name="l" unicode="l" horiz-adv-x="314" d="M253 -11 Q239 -13 226 -13 Q213 -13 205 -13 Q123 -13 81.5 40 Q40 93 40 184 L40 539 Q40 559 54 572 Q68 585 88 585 L186 585 Q206 585 220 572 Q234 559 234 539 L234 165 Q234 149 252 141 Q267 141 278 129.5 Q289 118 289 101 L289 26 Q289 10 278.5 -0.5 Q268 -11 253 -11 Z " />
<glyph glyph-name="m" unicode="m" horiz-adv-x="806" d="M239 376 Q252 399 267.5 411.5 Q283 424 298.5 430.5 Q314 437 328 438.5 Q342 440 353 440 Q402 440 427 425.5 Q452 411 472 376 Q490 399 511 412 Q532 425 551.5 431 Q571 437 588 438.5 Q605 440 616 440 Q698 440 734.5 386 Q771 332 771 241 L771 46 Q771 26 757 13 Q743 0 723 0 L625 0 Q605 0 591 13 Q577 26 577 46 L577 261 Q577 282 567.5 296 Q558 310 538 310 Q515 310 507 296 Q499 282 499 261 L499 46 Q499 26 485 13 Q471 0 451 0 L365 0 Q345 0 331 13 Q317 26 317 46 L317 261 Q317 282 307.5 296 Q298 310 278 310 Q255 310 247 296 Q239 282 239 261 L239 46 Q239 26 225 13 Q211 0 191 0 L93 0 Q73 0 59 13 Q45 26 45 46 L45 379 Q45 399 59 412 Q73 425 93 425 L191 425 Q211 425 225 411.5 Q239 398 239 376 Z " />
<glyph glyph-name="n" unicode="n" horiz-adv-x="577" d="M239 376 Q270 414 307.5 427 Q345 440 377 440 Q455 440 498.5 384 Q542 328 542 211 L542 46 Q542 26 528 13 Q514 0 494 0 L396 0 Q376 0 362 13 Q348 26 348 46 L348 259 Q348 282 331 296 Q314 310 294 310 Q274 310 256.5 296 Q239 282 239 262 L239 46 Q239 26 225 13 Q211 0 191 0 L93 0 Q73 0 59 13 Q45 26 45 46 L45 379 Q45 399 59 412 Q73 425 93 425 L191 425 Q211 425 225 411.5 Q239 398 239 376 Z " />
<glyph glyph-name="o" unicode="o" horiz-adv-x="538" d="M269 117 Q294 117 311 138.5 Q328 160 328 214 Q328 262 312 286 Q296 310 269 310 Q242 310 226 286 Q210 262 210 214 Q210 161 227 139 Q244 117 269 117 Z M25 214 Q25 253 37 293.5 Q49 334 77.5 366.5 Q106 399 152.5 419.5 Q199 440 269 440 Q339 440 385.5 419.5 Q432 399 460.5 366.5 Q489 334 501 293.5 Q513 253 513 214 Q513 174 501 133 Q489 92 460.5 60 Q432 28 385.5 7.5 Q339 -13 269 -13 Q199 -13 152.5 7.5 Q106 28 77.5 60 Q49 92 37 133 Q25 174 25 214 Z " />
<glyph glyph-name="p" unicode="p" horiz-adv-x="567" d="M348 261 Q348 282 331 296 Q314 310 294 310 Q271 310 255 296 Q239 282 239 261 L239 165 Q239 145 256.5 131 Q274 117 294 117 Q314 117 331 131 Q348 145 348 168 L348 261 Z M239 -123 Q239 -143 225 -156 Q211 -169 191 -169 L93 -169 Q73 -169 59 -156 Q45 -143 45 -123 L45 379 Q45 399 59 412 Q73 425 93 425 L191 425 Q211 425 225 411 Q239 397 239 376 Q263 407 294 423.5 Q325 440 357 440 Q396 440 429.5 421.5 Q463 403 488 372 Q513 341 527.5 300 Q542 259 542 214 Q542 169 527.5 127.5 Q513 86 488 55 Q463 24 429.5 5.5 Q396 -13 357 -13 Q325 -13 298 0.5 Q271 14 239 46 L239 -123 Z " />
<glyph glyph-name="q" unicode="q" horiz-adv-x="567" d="M219 168 Q219 145 236 131 Q253 117 273 117 Q293 117 310.5 131 Q328 145 328 165 L328 261 Q328 282 312 296 Q296 310 273 310 Q253 310 236 296 Q219 282 219 261 L219 168 Z M328 46 Q296 14 269 0.5 Q242 -13 210 -13 Q171 -13 137.5 5.5 Q104 24 79 55 Q54 86 39.5 127.5 Q25 169 25 214 Q25 259 39.5 300 Q54 341 79 372 Q104 403 137.5 421.5 Q171 440 210 440 Q242 440 273 423.5 Q304 407 328 376 Q328 397 342 411 Q356 425 376 425 L474 425 Q494 425 508 412 Q522 399 522 379 L522 -123 Q522 -143 508 -156 Q494 -169 474 -169 L376 -169 Q356 -169 342 -156 Q328 -143 328 -123 L328 46 Z " />
<glyph glyph-name="r" unicode="r" horiz-adv-x="412" d="M354 436 Q371 436 386.5 427 Q402 418 402 397 L402 335 Q402 319 392 308.5 Q382 298 367 298 Q356 300 346.5 300 Q337 300 330 300 Q292 300 265.5 278.5 Q239 257 239 229 L239 46 Q239 26 225 13 Q211 0 191 0 L93 0 Q73 0 59 13 Q45 26 45 46 L45 379 Q45 399 59 412 Q73 425 93 425 L191 425 Q211 425 225 410.5 Q239 396 239 376 Q251 399 266 411 Q281 423 297 428.5 Q313 434 328 435 Q343 436 354 436 Z " />
<glyph glyph-name="s" unicode="s" horiz-adv-x="466" d="M27 104 Q27 127 40 132.5 Q53 138 72 138 L146 138 Q160 138 167.5 132.5 Q175 127 183 117 Q189 109 202 104 Q215 99 232 99 Q270 99 278.5 107 Q287 115 287 122 Q287 133 261.5 138 Q236 143 194 151 Q165 156 135 166 Q105 176 80.5 192 Q56 208 40.5 231 Q25 254 25 285 Q25 317 35.5 345 Q46 373 70 394 Q94 415 132.5 427.5 Q171 440 226 440 Q300 440 352.5 413 Q405 386 426 322 Q426 299 413 293.5 Q400 288 381 288 L307 288 Q293 288 284.5 293 Q276 298 270 309 Q265 317 255.5 321.5 Q246 326 226 326 Q211 326 202.5 323.5 Q194 321 190 317 Q186 313 185 309.5 Q184 306 184 303 Q184 293 201 285.5 Q218 278 240.5 273 Q263 268 285.5 265 Q308 262 319 260 Q376 250 411 220 Q446 190 446 136 Q446 104 434 77 Q422 50 396.5 30 Q371 10 331.5 -1.5 Q292 -13 237 -13 Q200 -13 167 -7 Q134 -1 106.5 13 Q79 27 58.5 49.5 Q38 72 27 104 Z " />
<glyph glyph-name="t" unicode="t" horiz-adv-x="394" d="M327 135 Q343 135 353.5 124 Q364 113 364 96 L364 36 Q364 19 352.5 4.5 Q341 -10 325 -10 Q305 -10 283 -11.5 Q261 -13 247 -13 Q165 -13 123.5 40 Q82 93 82 184 L82 297 L52 297 Q36 297 25.5 308 Q15 319 15 336 L15 386 Q15 403 25.5 414 Q36 425 52 425 L82 425 L82 506 Q82 526 96 536.5 Q110 547 130 552 L228 574 Q248 574 262 559 Q276 544 276 524 L276 425 L327 425 Q343 425 353.5 414 Q364 403 364 386 L364 336 Q364 319 353.5 308 Q343 297 327 297 L276 297 L276 170 Q276 150 291.5 142.5 Q307 135 327 135 Z " />
<glyph glyph-name="u" unicode="u" horiz-adv-x="567" d="M328 46 Q294 10 260 -1.5 Q226 -13 204 -13 Q122 -13 78.5 40 Q35 93 35 184 L35 379 Q35 399 49 412 Q63 425 83 425 L181 425 Q201 425 215 412 Q229 399 229 379 L229 166 Q229 145 243.5 131 Q258 117 278 117 Q301 117 314.5 131 Q328 145 328 166 L328 379 Q328 399 342 412 Q356 425 376 425 L474 425 Q494 425 508 412 Q522 399 522 379 L522 46 Q522 26 508 13 Q494 0 474 0 L376 0 Q356 0 342 12 Q328 24 328 46 Z " />
<glyph glyph-name="v" unicode="v" horiz-adv-x="506" d="M172 0 Q152 0 139 13.5 Q126 27 119 46 L5 379 Q5 399 19 412 Q33 425 53 425 L146 425 Q166 425 177.5 411.5 Q189 398 194 379 L253 143 L312 379 Q317 398 328.5 411.5 Q340 425 360 425 L453 425 Q473 425 487 412 Q501 399 501 379 L387 46 Q380 27 367 13.5 Q354 0 334 0 L172 0 Z " />
<glyph glyph-name="w" unicode="w" horiz-adv-x="702" d="M351 188 L311 32 Q306 18 294 9 Q282 0 265 0 L133 0 Q113 0 101.5 13.5 Q90 27 85 46 L5 379 Q5 399 19 412 Q33 425 53 425 L129 425 Q149 425 161 411.5 Q173 398 177 379 L220 156 L281 386 Q283 403 294 414 Q305 425 322 425 L380 425 Q397 425 408 414 Q419 403 421 386 L482 156 L525 379 Q529 398 541 411.5 Q553 425 573 425 L649 425 Q669 425 683 412 Q697 399 697 379 L617 46 Q612 27 600.5 13.5 Q589 0 569 0 L437 0 Q420 0 408 9 Q396 18 391 32 L351 188 Z " />
<glyph glyph-name="x" unicode="x" horiz-adv-x="484" d="M191 28 Q182 17 169.5 8.5 Q157 0 126 0 L58 0 Q38 0 24 13 Q10 26 10 46 L140 212 L11 379 Q11 399 25 412 Q39 425 59 425 L135 425 Q162 425 171.5 418 Q181 411 189 401 L242 331 L295 401 Q303 411 312.5 418 Q322 425 349 425 L425 425 Q445 425 459 412 Q473 399 473 379 L344 212 L474 46 Q474 26 460 13 Q446 0 426 0 L358 0 Q327 0 314.5 8.5 Q302 17 293 28 L242 95 L191 28 Z " />
<glyph glyph-name="y" unicode="y" horiz-adv-x="499" d="M63 -40 Q97 -40 110 -29.5 Q123 -19 123 13 Q123 18 121 26.5 Q119 35 117 40 L6 379 Q6 399 20 412 Q34 425 54 425 L147 425 Q167 425 178.5 411.5 Q190 398 195 379 L250 129 L304 379 Q309 398 321 411.5 Q333 425 353 425 L446 425 Q466 425 480 412 Q494 399 494 379 L370 -13 Q350 -77 314.5 -111 Q279 -145 244 -161 Q203 -180 158 -183 Q119 -183 89.5 -180 Q60 -177 40 -173 Q5 -165 5 -134 L5 -78 Q5 -62 17 -51 Q29 -40 43 -40 L63 -40 Z " />
<glyph glyph-name="z" unicode="z" horiz-adv-x="453" d="M243 130 L386 130 Q402 130 412.5 119 Q423 108 423 91 L423 39 Q423 22 412.5 11 Q402 0 386 0 L67 0 Q51 0 40.5 11 Q30 22 30 39 L30 112 Q30 132 44 143 L210 295 L67 295 Q51 295 40.5 306 Q30 317 30 334 L30 386 Q30 403 40.5 414 Q51 425 67 425 L386 425 Q402 425 412.5 414 Q423 403 423 386 L423 313 Q423 293 409 282 L243 130 Z " />
<glyph glyph-name="braceleft" unicode="&#x7b;" horiz-adv-x="462" d="M83 239 Q68 240 59 249.5 Q50 259 50 273 L50 322 Q50 336 59.5 345.5 Q69 355 83 357 Q100 362 112 372 Q124 382 124 402 L124 592 Q124 631 135 666 Q146 701 173 726.5 Q200 752 246 767 Q292 782 362 782 L371 782 Q388 782 400 769 Q412 756 412 739 L412 679 Q412 662 400 649 Q388 636 371 636 L362 636 Q327 636 311.5 619 Q296 602 296 554 L296 408 Q296 395 292.5 378.5 Q289 362 281 346.5 Q273 331 259.5 318 Q246 305 226 297 Q246 290 259.5 276.5 Q273 263 281 248 Q289 233 292.5 217 Q296 201 296 187 L296 56 Q296 8 311.5 -9 Q327 -26 362 -26 L371 -26 Q388 -26 400 -39 Q412 -52 412 -69 L412 -129 Q412 -146 400 -159 Q388 -172 371 -172 L362 -172 Q292 -172 246 -157 Q200 -142 173 -116.5 Q146 -91 135 -56 Q124 -21 124 18 L124 193 Q124 213 112 223.5 Q100 234 83 239 Z " />
<glyph glyph-name="bar" unicode="&#x7c;" horiz-adv-x="272" d="M50 741 Q50 758 62.5 770 Q75 782 93 782 L179 782 Q197 782 209.5 770 Q222 758 222 741 L222 -130 Q222 -147 209.5 -159 Q197 -171 179 -171 L93 -171 Q75 -171 62.5 -159 Q50 -147 50 -130 L50 741 Z " />
<glyph glyph-name="braceright" unicode="&#x7d;" horiz-adv-x="462" d="M379 239 Q362 234 350 223.5 Q338 213 338 193 L338 18 Q338 -21 327 -56 Q316 -91 289 -116.5 Q262 -142 216 -157 Q170 -172 100 -172 L91 -172 Q74 -172 62 -159 Q50 -146 50 -129 L50 -69 Q50 -52 62 -39 Q74 -26 91 -26 L100 -26 Q135 -26 150.5 -9 Q166 8 166 56 L166 187 Q166 201 169.5 217 Q173 233 181 248 Q189 263 202.5 276.5 Q216 290 236 297 Q216 305 202.5 318 Q189 331 181 346.5 Q173 362 169.5 378.5 Q166 395 166 408 L166 554 Q166 602 150.5 619 Q135 636 100 636 L91 636 Q74 636 62 649 Q50 662 50 679 L50 739 Q50 756 62 769 Q74 782 91 782 L100 782 Q170 782 216 767 Q262 752 289 726.5 Q316 701 327 666 Q338 631 338 592 L338 402 Q338 382 350 372 Q362 362 379 357 Q393 355 402.5 345.5 Q412 336 412 322 L412 273 Q412 259 403 249.5 Q394 240 379 239 Z " />
<glyph glyph-name="asciitilde" unicode="&#x7e;" horiz-adv-x="447" d="M290 120 Q273 120 256.5 125.5 Q240 131 224 137 Q208 143 191.5 148.5 Q175 154 157 154 Q151 154 140.5 152 Q130 150 119 147 Q113 144 107 144 Q96 144 86 150.5 Q76 157 71 168 L53 217 Q50 223 50 230 Q50 241 55.5 250 Q61 259 71 263 Q94 274 118 278 Q142 282 157 282 Q174 282 190.5 276.5 Q207 271 223 265 Q239 259 255.5 253.5 Q272 248 290 248 Q296 248 306.5 250 Q317 252 328 255 Q334 258 340 258 Q351 258 361 251.5 Q371 245 376 234 L394 185 Q397 179 397 172 Q397 161 391.5 152 Q386 143 376 139 Q353 128 329 124 Q305 120 290 120 Z " />
<glyph glyph-name="uni00A0" unicode="&#xa0;" horiz-adv-x="189" d="" />
<glyph glyph-name="exclamdown" unicode="&#xa1;" horiz-adv-x="294" d="M50 539 Q50 559 64 572 Q78 585 98 585 L196 585 Q216 585 230 572 Q244 559 244 539 L244 496 Q244 476 230 463 Q216 450 196 450 L98 450 Q78 450 64 463 Q50 476 50 496 L50 539 Z M69 345 Q69 365 83 378 Q97 391 117 391 L177 391 Q197 391 211 378 Q225 365 225 345 L241 46 Q241 26 227 13 Q213 0 193 0 L100 0 Q80 0 66 13 Q52 26 52 46 L69 345 Z " />
<glyph glyph-name="cent" unicode="&#xa2;" horiz-adv-x="680" d="M427 592 Q512 576 563 528.5 Q614 481 630 415 Q630 392 617 386 Q604 380 585 380 L465 380 Q446 380 438 388 Q430 396 420 417 Q411 436 389.5 448.5 Q368 461 348 461 Q323 461 303.5 447 Q284 433 270.5 409 Q257 385 250.5 353.5 Q244 322 244 287 Q244 255 250.5 225.5 Q257 196 270.5 173.5 Q284 151 303.5 138 Q323 125 348 125 Q368 125 388 134.5 Q408 144 420 164 Q430 185 437.5 193 Q445 201 464 201 L584 201 Q603 201 616.5 195 Q630 189 630 166 Q614 100 563 54.5 Q512 9 427 -6 L427 -94 Q427 -110 416 -120.5 Q405 -131 388 -131 L311 -131 Q294 -131 283 -120.5 Q272 -110 272 -94 L272 -5 Q210 8 167.5 40 Q125 72 99 113.5 Q73 155 61.5 201 Q50 247 50 287 Q50 330 61.5 378 Q73 426 99 468.5 Q125 511 167.5 544.5 Q210 578 272 591 L272 686 Q272 702 283 712.5 Q294 723 311 723 L388 723 Q405 723 416 712.5 Q427 702 427 686 L427 592 Z " />
<glyph glyph-name="sterling" unicode="&#xa3;" horiz-adv-x="656" d="M118 151 L118 216 L89 216 Q74 216 62.5 227.5 Q51 239 51 255 L51 304 Q51 321 62.5 332.5 Q74 344 89 344 L118 344 L118 372 Q118 413 130 453.5 Q142 494 170.5 526 Q199 558 246 578.5 Q293 599 363 599 Q427 599 472 581.5 Q517 564 546 535 Q575 506 589 469 Q603 432 606 393 Q606 370 593 364 Q580 358 561 358 L466 358 Q447 358 438 365 Q429 372 421 395 Q416 435 399.5 448 Q383 461 363 461 Q338 461 325 443.5 Q312 426 312 372 L312 344 L362 344 Q377 344 388.5 332.5 Q400 321 400 304 L400 255 Q400 239 388.5 227.5 Q377 216 362 216 L312 216 L312 151 L527 151 Q544 151 556 138 Q568 125 568 108 L568 43 Q568 26 556 13 Q544 0 527 0 L91 0 Q74 0 62 13 Q50 26 50 43 L50 108 Q50 125 62 138 Q74 151 91 151 L118 151 Z " />
<glyph glyph-name="currency" unicode="&#xa4;" horiz-adv-x="538" d="M269 193 Q286 193 298.5 205 Q311 217 311 234 Q311 251 298.5 263 Q286 275 269 275 Q252 275 239.5 263 Q227 251 227 234 Q227 217 239.5 205 Q252 193 269 193 Z M269 400 Q289 400 305.5 396.5 Q322 393 339 385 L390 436 Q400 446 416 446 Q432 446 442 436 L476 400 Q488 390 488 373 Q488 357 477 348 L424 295 Q430 281 433 264.5 Q436 248 436 234 Q436 220 433 203.5 Q430 187 424 173 L477 120 Q488 111 488 95 Q488 79 476 68 L442 32 Q432 22 416 22 Q400 22 390 32 L339 83 Q322 75 305.5 71.5 Q289 68 269 68 Q249 68 232.5 71.5 Q216 75 199 83 L148 32 Q138 22 122 22 Q106 22 96 32 L62 68 Q50 79 50 95 Q50 111 61 120 L114 173 Q108 187 105 203.5 Q102 220 102 234 Q102 248 105 264.5 Q108 281 114 295 L61 348 Q50 357 50 373 Q50 390 62 400 L96 436 Q106 446 122 446 Q138 446 148 436 L199 385 Q216 393 232.5 396.5 Q249 400 269 400 Z " />
<glyph glyph-name="yen" unicode="&#xa5;" horiz-adv-x="692" d="M443 45 Q442 25 428.5 12.5 Q415 0 395 0 L297 0 Q277 0 263 12.5 Q249 25 249 45 L161 45 Q147 45 136.5 56 Q126 67 126 82 L126 136 Q126 151 136.5 162 Q147 173 161 173 L249 173 L249 188 L241 202 L161 202 Q147 202 136.5 213 Q126 224 126 239 L126 293 Q126 308 136.5 319 Q147 330 161 330 L168 330 L50 539 Q50 559 64 572 Q78 585 98 585 L197 585 Q217 585 228.5 571 Q240 557 249 539 L346 350 L443 539 Q452 557 463.5 571 Q475 585 495 585 L594 585 Q614 585 628 572 Q642 559 642 539 L523 330 L531 330 Q545 330 556 319 Q567 308 567 293 L567 239 Q567 224 556 213 Q545 202 531 202 L450 202 L443 189 L443 173 L531 173 Q545 173 556 162 Q567 151 567 136 L567 82 Q567 67 556 56 Q545 45 531 45 L443 45 Z " />
<glyph glyph-name="brokenbar" unicode="&#xa6;" horiz-adv-x="272" d="M50 741 Q50 758 62.5 770 Q75 782 93 782 L179 782 Q197 782 209.5 770 Q222 758 222 741 L222 435 Q222 418 209.5 406 Q197 394 179 394 L93 394 Q75 394 62.5 406 Q50 418 50 435 L50 741 Z M50 177 Q50 194 62.5 206 Q75 218 93 218 L179 218 Q197 218 209.5 206 Q222 194 222 177 L222 -129 Q222 -146 209.5 -158 Q197 -170 179 -170 L93 -170 Q75 -170 62.5 -158 Q50 -146 50 -129 L50 177 Z " />
<glyph glyph-name="section" unicode="&#xa7;" horiz-adv-x="532" d="M209 284 Q209 276 218 270.5 Q227 265 241 260 Q247 258 253.5 258 Q260 258 268 258 Q306 258 314.5 266 Q323 274 323 281 Q323 290 302 295.5 Q281 301 246 307 Q219 306 214 297.5 Q209 289 209 284 Z M306 467 Q301 475 291.5 480 Q282 485 262 485 Q247 485 238.5 482.5 Q230 480 226 476 Q222 472 221 468.5 Q220 465 220 462 Q220 452 237 444.5 Q254 437 276.5 432 Q299 427 321.5 424 Q344 421 355 419 Q412 409 447 379 Q482 349 482 295 Q482 234 441 196 Q471 164 471 117 Q471 85 459 58 Q447 31 421.5 11 Q396 -9 356.5 -20.5 Q317 -32 262 -32 Q225 -32 191.5 -26 Q158 -20 130.5 -6.5 Q103 7 83 29.5 Q63 52 52 84 Q52 107 65.5 113 Q79 119 98 119 L172 119 Q186 119 193.5 113.5 Q201 108 209 98 Q224 80 257 80 Q295 80 303.5 88 Q312 96 312 103 Q312 114 286.5 119 Q261 124 219 132 Q190 137 160 147 Q130 157 105.5 173 Q81 189 65.5 212 Q50 235 50 266 Q50 296 59.5 323 Q69 350 91 371 Q61 401 61 444 Q61 476 71.5 504 Q82 532 106 553 Q130 574 168.5 586.5 Q207 599 262 599 Q336 599 389 571.5 Q442 544 462 481 Q462 458 449 452.5 Q436 447 417 447 L343 447 Q329 447 320.5 451.5 Q312 456 306 467 Z " />
<glyph glyph-name="dieresis" unicode="&#xa8;" horiz-adv-x="477" d="M215 466 Q215 448 202 435.5 Q189 423 170 423 L94 423 Q75 423 62.5 435.5 Q50 448 50 466 L50 542 Q50 560 62.5 572.5 Q75 585 94 585 L170 585 Q189 585 202 572.5 Q215 560 215 542 L215 466 Z M427 466 Q427 448 414 435.5 Q401 423 382 423 L306 423 Q287 423 274.5 435.5 Q262 448 262 466 L262 542 Q262 560 274.5 572.5 Q287 585 306 585 L382 585 Q401 585 414 572.5 Q427 560 427 542 L427 466 Z " />
<glyph glyph-name="copyright" unicode="&#xa9;" horiz-adv-x="703" d="M350 599 Q413 599 468 575.5 Q523 552 564.5 510.5 Q606 469 629.5 414 Q653 359 653 296 Q653 234 629.5 179.5 Q606 125 564.5 84 Q523 43 468 19 Q413 -5 350 -5 Q289 -5 234 19 Q179 43 138.5 84 Q98 125 74 179.5 Q50 234 50 296 Q50 359 74 414 Q98 469 138.5 510.5 Q179 552 234 575.5 Q289 599 350 599 Z M350 87 Q393 87 431.5 104 Q470 121 499 149.5 Q528 178 545 216 Q562 254 562 295 Q562 338 545 376.5 Q528 415 499 444 Q470 473 431.5 490 Q393 507 350 507 Q309 507 271 490 Q233 473 204.5 444 Q176 415 159 376.5 Q142 338 142 295 Q142 254 159 216 Q176 178 204.5 149.5 Q233 121 271 104 Q309 87 350 87 Z M496 249 Q491 231 480 213.5 Q469 196 451.5 182.5 Q434 169 410 160.5 Q386 152 354 152 Q311 152 281 165 Q251 178 232.5 198 Q214 218 206 243.5 Q198 269 198 294 Q198 318 206 343.5 Q214 369 232.5 389 Q251 409 281 422 Q311 435 354 435 Q386 435 410.5 426.5 Q435 418 452 404.5 Q469 391 480 373 Q491 355 496 337 Q496 326 487.5 318 Q479 310 468 310 L412 310 Q402 310 394.5 316.5 Q387 323 385 332 Q378 357 354 357 Q333 357 323 340 Q313 323 313 294 Q313 265 323 247.5 Q333 230 354 230 Q365 230 373 236.5 Q381 243 385 254 Q387 263 394.5 269.5 Q402 276 412 276 L468 276 Q479 276 487.5 268 Q496 260 496 249 Z " />
<glyph glyph-name="ordfeminine" unicode="&#xaa;" horiz-adv-x="435" d="M172 488 Q165 471 147 471 L91 471 Q80 471 72 478.5 Q64 486 64 497 Q79 546 119 565.5 Q159 585 211 585 Q260 585 293.5 575.5 Q327 566 347 546 Q367 526 376 495.5 Q385 465 385 423 L385 300 Q385 285 374 275.5 Q363 266 347 266 L284 266 Q268 266 256.5 275.5 Q245 285 245 300 Q219 271 196 264 Q173 257 156 257 Q139 257 120 263 Q101 269 85.5 282 Q70 295 60 314.5 Q50 334 50 362 Q50 396 69 415 Q88 434 116.5 443 Q145 452 179.5 454 Q214 456 245 456 Q243 478 234.5 489 Q226 500 206 500 Q195 500 185.5 497.5 Q176 495 172 488 Z M177 376 Q177 364 186.5 360.5 Q196 357 207 357 Q221 357 240 365 L240 396 Q233 396 222 395 Q211 394 201 392 Q191 390 184 386 Q177 382 177 376 Z " />
<glyph glyph-name="guillemotleft" unicode="&#xab;" horiz-adv-x="707" d="M160 378 Q176 400 195.5 412 Q215 424 235 424 L306 424 Q326 424 340 411 Q354 398 354 378 L234 212 L354 46 Q354 26 340 13 Q326 0 306 0 L235 0 Q215 0 195.5 12 Q176 24 160 46 L55 192 Q50 202 50 212 Q50 225 58 236 L160 378 Z M463 378 Q479 400 498.5 412 Q518 424 538 424 L609 424 Q629 424 643 411 Q657 398 657 378 L537 212 L657 46 Q657 26 643 13 Q629 0 609 0 L538 0 Q518 0 498.5 12 Q479 24 463 46 L358 192 Q353 202 353 212 Q353 225 361 236 L463 378 Z " />
<glyph glyph-name="logicalnot" unicode="&#xac;" horiz-adv-x="550" d="M91 185 Q74 185 62 198 Q50 211 50 228 L50 293 Q50 310 62 323 Q74 336 91 336 L452 336 Q472 336 486 323 Q500 310 500 290 L500 87 Q500 67 486 54 Q472 41 452 41 L354 41 Q334 41 320 54 Q306 67 306 87 L306 185 L91 185 Z " />
<glyph glyph-name="uni00AD" unicode="&#xad;" horiz-adv-x="189" d="" />
<glyph glyph-name="registered" unicode="&#xae;" horiz-adv-x="703" d="M350 599 Q413 599 468 575.5 Q523 552 564.5 510.5 Q606 469 629.5 414 Q653 359 653 296 Q653 234 629.5 179.5 Q606 125 564.5 84 Q523 43 468 19 Q413 -5 350 -5 Q289 -5 234 19 Q179 43 138.5 84 Q98 125 74 179.5 Q50 234 50 296 Q50 359 74 414 Q98 469 138.5 510.5 Q179 552 234 575.5 Q289 599 350 599 Z M350 87 Q393 87 431.5 104 Q470 121 499 149.5 Q528 178 545 216 Q562 254 562 295 Q562 338 545 376.5 Q528 415 499 444 Q470 473 431.5 490 Q393 507 350 507 Q309 507 271 490 Q233 473 204.5 444 Q176 415 159 376.5 Q142 338 142 295 Q142 254 159 216 Q176 178 204.5 149.5 Q233 121 271 104 Q309 87 350 87 Z M329 289 L367 289 Q381 289 390 297 Q399 305 399 322 Q399 337 390 345 Q381 353 367 353 L329 353 L329 289 Z M360 212 L329 212 L329 186 Q329 175 321 166.5 Q313 158 302 158 L256 158 Q245 158 237 166.5 Q229 175 229 186 L229 404 Q229 415 237 423.5 Q245 432 256 432 L373 432 Q409 432 433.5 421.5 Q458 411 472.5 394.5 Q487 378 493.5 358.5 Q500 339 500 322 Q500 299 489 273.5 Q478 248 450 231 L472 186 Q472 175 464 166.5 Q456 158 445 158 L407 158 Q396 158 387 166.5 Q378 175 372 186 L360 212 Z " />
<glyph glyph-name="macron" unicode="&#xaf;" horiz-adv-x="494" d="M91 437 Q74 437 62 450 Q50 463 50 480 L50 542 Q50 559 62 572 Q74 585 91 585 L403 585 Q420 585 432 572 Q444 559 444 542 L444 480 Q444 463 432 450 Q420 437 403 437 L91 437 Z " />
<glyph glyph-name="degree" unicode="&#xb0;" horiz-adv-x="390" d="M196 585 Q226 585 252 574 Q278 563 297.5 543.5 Q317 524 328.5 497.5 Q340 471 340 441 Q340 411 328.5 384 Q317 357 297.5 337.5 Q278 318 252 306.5 Q226 295 196 295 Q166 295 139 306.5 Q112 318 92.5 337.5 Q73 357 61.5 384 Q50 411 50 441 Q50 471 61.5 497.5 Q73 524 92.5 543.5 Q112 563 139 574 Q166 585 196 585 Z M196 404 Q210 404 220.5 414.5 Q231 425 231 440 Q231 455 220.5 465 Q210 475 196 475 Q181 475 170.5 465 Q160 455 160 440 Q160 425 170.5 414.5 Q181 404 196 404 Z " />
<glyph glyph-name="plusminus" unicode="&#xb1;" horiz-adv-x="494" d="M173 547 Q173 562 183.5 571.5 Q194 581 210 581 L284 581 Q300 581 310.5 571 Q321 561 321 546 L321 457 L404 457 Q420 457 432 444.5 Q444 432 444 415 L444 351 Q444 334 432 321.5 Q420 309 404 309 L321 309 L321 224 Q321 209 310.5 199 Q300 189 284 189 L210 189 Q194 189 183.5 199 Q173 209 173 224 L173 309 L90 309 Q74 309 62 321.5 Q50 334 50 351 L50 415 Q50 432 62 444.5 Q74 457 90 457 L173 457 L173 547 Z M91 0 Q74 0 62 13 Q50 26 50 43 L50 105 Q50 122 62 135 Q74 148 91 148 L403 148 Q420 148 432 135 Q444 122 444 105 L444 43 Q444 26 432 13 Q420 0 403 0 L91 0 Z " />
<glyph glyph-name="twosuperior" unicode="&#xb2;" horiz-adv-x="367" d="M157 493 Q150 476 132 476 L77 476 Q66 476 58 483.5 Q50 491 50 502 Q58 547 89 573 Q120 599 174 599 Q213 599 240.5 589.5 Q268 580 285 564.5 Q302 549 309.5 528.5 Q317 508 317 487 Q317 466 308.5 449.5 Q300 433 285 419.5 Q270 406 250.5 394.5 Q231 383 210 371 L281 371 Q294 371 303 362 Q312 353 312 340 L312 299 Q312 286 303 277 Q294 268 281 268 L85 268 Q72 268 63 277 Q54 286 54 299 L54 337 L54 345 Q54 373 76 391.5 Q98 410 125 425 Q152 440 174 453.5 Q196 467 196 485 Q196 499 192 502.5 Q188 506 178 506 Q160 506 157 493 Z " />
<glyph glyph-name="threesuperior" unicode="&#xb3;" horiz-adv-x="386" d="M188 461 Q202 461 208.5 466 Q215 471 215 485 Q215 493 207.5 499 Q200 505 185 505 Q171 505 163 501.5 Q155 498 152 493 Q143 481 128 481 L79 481 Q67 481 58.5 491 Q50 501 50 512 Q60 556 96 577.5 Q132 599 187 599 Q270 599 303 571.5 Q336 544 336 496 Q336 486 333 474 Q330 462 322.5 452 Q315 442 302 435 Q289 428 270 426 Q303 420 319.5 398.5 Q336 377 336 357 Q336 309 303 281.5 Q270 254 187 254 Q135 254 98 274 Q61 294 50 339 Q50 350 58.5 360 Q67 370 79 370 L128 370 Q143 370 152 358 Q160 347 185 347 Q200 347 207.5 353 Q215 359 215 368 Q215 391 188 391 L171 391 Q163 391 157.5 397 Q152 403 152 411 L152 441 Q152 449 157.5 455 Q163 461 171 461 L188 461 Z " />
<glyph glyph-name="acute" unicode="&#xb4;" horiz-adv-x="340" d="M202 416 Q194 405 185 398 Q176 391 162 391 L96 391 Q76 391 63 403.5 Q50 416 50 435 L98 541 Q107 558 117.5 571.5 Q128 585 148 585 L244 585 Q264 585 277 572.5 Q290 560 290 541 L202 416 Z " />
<glyph glyph-name="mu" unicode="&#xb5;" horiz-adv-x="567" d="M328 46 Q302 19 276 6.5 Q250 -6 229 -10 L229 -126 Q229 -146 215 -159 Q201 -172 181 -172 L83 -172 Q63 -172 49 -159 Q35 -146 35 -126 L35 379 Q35 399 49 412 Q63 425 83 425 L181 425 Q201 425 215 412 Q229 399 229 379 L229 162 Q231 142 244.5 129.5 Q258 117 278 117 Q301 117 314.5 131 Q328 145 328 166 L328 379 Q328 399 342 412 Q356 425 376 425 L474 425 Q494 425 508 412 Q522 399 522 379 L522 46 Q522 26 508 13 Q494 0 474 0 L376 0 Q356 0 342 12 Q328 24 328 46 Z " />
<glyph glyph-name="paragraph" unicode="&#xb6;" horiz-adv-x="773" d="M675 585 Q695 585 709 572 Q723 559 723 539 L723 46 Q723 26 709 13 Q695 0 675 0 L578 0 Q558 0 544 13 Q530 26 530 46 L530 434 L451 434 L451 46 Q451 26 437 13 Q423 0 403 0 L305 0 Q285 0 271 13 Q257 26 257 46 L257 224 Q198 224 158.5 241.5 Q119 259 95 286 Q71 313 60.5 345 Q50 377 50 405 Q50 434 60.5 465.5 Q71 497 95 523.5 Q119 550 158.5 567.5 Q198 585 257 585 L675 585 Z " />
<glyph glyph-name="periodcentered" unicode="&#xb7;" horiz-adv-x="278" d="M228 142 Q228 122 214 109 Q200 96 180 96 L98 96 Q78 96 64 109 Q50 122 50 142 L50 225 Q50 245 64 258 Q78 271 98 271 L180 271 Q200 271 214 258 Q228 245 228 225 L228 142 Z " />
<glyph glyph-name="cedilla" unicode="&#xb8;" horiz-adv-x="331" d="M194 -13 L194 -37 Q218 -38 238 -48 Q255 -57 268 -75.5 Q281 -94 281 -128 Q281 -154 269 -175 Q257 -196 237.5 -210.5 Q218 -225 192.5 -233 Q167 -241 140 -241 Q125 -241 107.5 -239 Q90 -237 78 -235 Q67 -235 58.5 -226 Q50 -217 50 -206 L50 -165 Q50 -154 58.5 -145 Q67 -136 78 -136 Q82 -137 87 -137 Q92 -137 96 -137 Q104 -137 113.5 -136 Q123 -135 131.5 -132.5 Q140 -130 145.5 -125.5 Q151 -121 151 -114 Q151 -100 134.5 -93 Q118 -86 101 -86 Q92 -86 86.5 -79.5 Q81 -73 81 -65 L90 -13 L194 -13 Z " />
<glyph glyph-name="onesuperior" unicode="&#xb9;" horiz-adv-x="321" d="M76 549 Q93 554 109 561 Q125 568 140 578 Q147 585 160 585 L233 585 Q249 585 260 574.5 Q271 564 271 549 L271 302 Q271 287 260 276.5 Q249 266 233 266 L188 266 Q172 266 161 276.5 Q150 287 150 302 L150 476 Q133 463 113.5 455.5 Q94 448 75 444 Q64 444 57 451.5 Q50 459 50 470 L50 521 Q50 532 58 539 Q66 546 76 549 Z " />
<glyph glyph-name="ordmasculine" unicode="&#xba;" horiz-adv-x="390" d="M196 585 Q226 585 252 574 Q278 563 297.5 543.5 Q317 524 328.5 497.5 Q340 471 340 441 Q340 411 328.5 384 Q317 357 297.5 337.5 Q278 318 252 306.5 Q226 295 196 295 Q166 295 139 306.5 Q112 318 92.5 337.5 Q73 357 61.5 384 Q50 411 50 441 Q50 471 61.5 497.5 Q73 524 92.5 543.5 Q112 563 139 574 Q166 585 196 585 Z M196 404 Q210 404 220.5 414.5 Q231 425 231 440 Q231 455 220.5 465 Q210 475 196 475 Q181 475 170.5 465 Q160 455 160 440 Q160 425 170.5 414.5 Q181 404 196 404 Z " />
<glyph glyph-name="guillemotright" unicode="&#xbb;" horiz-adv-x="707" d="M649 236 Q657 225 657 212 Q657 202 652 192 L547 46 Q531 24 511.5 12 Q492 0 472 0 L401 0 Q381 0 367 13 Q353 26 353 46 L473 212 L353 378 Q353 398 367 411 Q381 424 401 424 L472 424 Q492 424 511.5 412 Q531 400 547 378 L649 236 Z M346 236 Q354 225 354 212 Q354 202 349 192 L244 46 Q228 24 208.5 12 Q189 0 169 0 L98 0 Q78 0 64 13 Q50 26 50 46 L170 212 L50 378 Q50 398 64 411 Q78 424 98 424 L169 424 Q189 424 208.5 412 Q228 400 244 378 L346 236 Z " />
<glyph glyph-name="onequarter" unicode="&#xbc;" horiz-adv-x="854" d="M394 38 Q390 23 380.5 11.5 Q371 0 354 0 L293 0 Q276 0 264 11 Q252 22 252 38 L437 547 Q441 562 450.5 573.5 Q460 585 477 585 L538 585 Q555 585 567 574 Q579 563 579 547 L394 38 Z M652 144 L652 230 L591 144 L652 144 Z M76 549 Q93 554 109 561 Q125 568 140 578 Q147 585 160 585 L233 585 Q249 585 260 574.5 Q271 564 271 549 L271 302 Q271 287 260 276.5 Q249 266 233 266 L188 266 Q172 266 161 276.5 Q150 287 150 302 L150 476 Q133 463 113.5 455.5 Q94 448 75 444 Q64 444 57 451.5 Q50 459 50 470 L50 521 Q50 532 58 539 Q66 546 76 549 Z M484 134 Q484 150 493 160 L595 303 Q600 309 607.5 313.5 Q615 318 623 318 L735 318 Q751 318 762 307.5 Q773 297 773 282 L773 144 Q786 144 795 135 Q804 126 804 113 L804 72 Q804 59 795 50 Q786 41 773 41 L773 36 Q773 21 762 10.5 Q751 0 735 0 L690 0 Q674 0 663 10.5 Q652 21 652 36 L652 41 L515 41 Q502 41 493 50 Q484 59 484 72 L484 134 Z " />
<glyph glyph-name="onehalf" unicode="&#xbd;" horiz-adv-x="840" d="M394 38 Q390 23 380.5 11.5 Q371 0 354 0 L293 0 Q276 0 264 11 Q252 22 252 38 L437 547 Q441 562 450.5 573.5 Q460 585 477 585 L538 585 Q555 585 567 574 Q579 563 579 547 L394 38 Z M76 549 Q93 554 109 561 Q125 568 140 578 Q147 585 160 585 L233 585 Q249 585 260 574.5 Q271 564 271 549 L271 302 Q271 287 260 276.5 Q249 266 233 266 L188 266 Q172 266 161 276.5 Q150 287 150 302 L150 476 Q133 463 113.5 455.5 Q94 448 75 444 Q64 444 57 451.5 Q50 459 50 470 L50 521 Q50 532 58 539 Q66 546 76 549 Z M630 225 Q623 208 605 208 L550 208 Q539 208 531 215.5 Q523 223 523 234 Q531 279 562 305 Q593 331 647 331 Q686 331 713.5 321.5 Q741 312 758 296.5 Q775 281 782.5 260.5 Q790 240 790 219 Q790 198 781.5 181.5 Q773 165 758 151.5 Q743 138 723.5 126.5 Q704 115 683 103 L754 103 Q767 103 776 94 Q785 85 785 72 L785 31 Q785 18 776 9 Q767 0 754 0 L558 0 Q545 0 536 9 Q527 18 527 31 L527 69 L527 77 Q527 105 549 123.5 Q571 142 598 157 Q625 172 647 185.5 Q669 199 669 217 Q669 231 665 234.5 Q661 238 651 238 Q633 238 630 225 Z " />
<glyph glyph-name="threequarters" unicode="&#xbe;" horiz-adv-x="883" d="M423 38 Q419 23 409.5 11.5 Q400 0 383 0 L322 0 Q305 0 293 11 Q281 22 281 38 L466 547 Q470 562 479.5 573.5 Q489 585 506 585 L567 585 Q584 585 596 574 Q608 563 608 547 L423 38 Z M681 144 L681 230 L620 144 L681 144 Z M513 134 Q513 150 522 160 L624 303 Q629 309 636.5 313.5 Q644 318 652 318 L764 318 Q780 318 791 307.5 Q802 297 802 282 L802 144 Q815 144 824 135 Q833 126 833 113 L833 72 Q833 59 824 50 Q815 41 802 41 L802 36 Q802 21 791 10.5 Q780 0 764 0 L719 0 Q703 0 692 10.5 Q681 21 681 36 L681 41 L544 41 Q531 41 522 50 Q513 59 513 72 L513 134 Z M188 461 Q202 461 208.5 466 Q215 471 215 485 Q215 493 207.5 499 Q200 505 185 505 Q171 505 163 501.5 Q155 498 152 493 Q143 481 128 481 L79 481 Q67 481 58.5 491 Q50 501 50 512 Q60 556 96 577.5 Q132 599 187 599 Q270 599 303 571.5 Q336 544 336 496 Q336 486 333 474 Q330 462 322.5 452 Q315 442 302 435 Q289 428 270 426 Q303 420 319.5 398.5 Q336 377 336 357 Q336 309 303 281.5 Q270 254 187 254 Q135 254 98 274 Q61 294 50 339 Q50 350 58.5 360 Q67 370 79 370 L128 370 Q143 370 152 358 Q160 347 185 347 Q200 347 207.5 353 Q215 359 215 368 Q215 391 188 391 L171 391 Q163 391 157.5 397 Q152 403 152 411 L152 441 Q152 449 157.5 455 Q163 461 171 461 L188 461 Z " />
<glyph glyph-name="questiondown" unicode="&#xbf;" horiz-adv-x="601" d="M432 510 Q432 490 418 477 Q404 464 384 464 L286 464 Q266 464 252 477 Q238 490 238 510 L238 553 Q238 573 252 586 Q266 599 286 599 L384 599 Q404 599 418 586 Q432 573 432 553 L432 510 Z M370 164 Q375 177 386.5 186.5 Q398 196 413 196 L506 196 Q525 196 538 183.5 Q551 171 551 153 Q538 72 478.5 29.5 Q419 -13 319 -13 Q245 -13 193.5 1.5 Q142 16 110 41.5 Q78 67 64 101.5 Q50 136 50 176 Q50 210 63 238 Q76 266 100 291 Q124 316 159 339.5 Q194 363 238 388 Q238 411 252 424.5 Q266 438 286 438 L384 438 Q404 438 418 425 Q432 412 432 392 L432 339 Q432 326 426 316 Q420 306 410 300 Q398 294 372.5 282 Q347 270 321 253.5 Q295 237 275.5 218.5 Q256 200 256 180 Q256 155 269.5 140 Q283 125 310 125 Q338 125 351.5 136 Q365 147 370 164 Z " />
<glyph glyph-name="Agrave" unicode="&#xc0;" horiz-adv-x="607" d="M116 802 Q116 821 129 833.5 Q142 846 162 846 L258 846 Q278 846 288.5 832.5 Q299 819 308 802 L356 696 Q356 677 343 664.5 Q330 652 310 652 L244 652 Q230 652 221 659 Q212 666 204 677 L116 802 Z M387 585 Q407 585 420.5 571.5 Q434 558 440 539 L602 46 Q602 26 588 13 Q574 0 554 0 L450 0 Q430 0 418.5 13.5 Q407 27 402 46 L382 125 L226 125 L205 46 Q200 27 188.5 13.5 Q177 0 157 0 L53 0 Q33 0 19 13 Q5 26 5 46 L165 539 Q171 558 184.5 571.5 Q198 585 218 585 L387 585 Z M258 250 L350 250 L304 426 L258 250 Z " />
<glyph glyph-name="Aacute" unicode="&#xc1;" horiz-adv-x="607" d="M403 677 Q395 666 386 659 Q377 652 363 652 L297 652 Q277 652 264 664.5 Q251 677 251 696 L299 802 Q308 819 318.5 832.5 Q329 846 349 846 L445 846 Q465 846 478 833.5 Q491 821 491 802 L403 677 Z M387 585 Q407 585 420.5 571.5 Q434 558 440 539 L602 46 Q602 26 588 13 Q574 0 554 0 L450 0 Q430 0 418.5 13.5 Q407 27 402 46 L382 125 L226 125 L205 46 Q200 27 188.5 13.5 Q177 0 157 0 L53 0 Q33 0 19 13 Q5 26 5 46 L165 539 Q171 558 184.5 571.5 Q198 585 218 585 L387 585 Z M258 250 L350 250 L304 426 L258 250 Z " />
<glyph glyph-name="Acircumflex" unicode="&#xc2;" horiz-adv-x="607" d="M387 585 Q407 585 420.5 571.5 Q434 558 440 539 L602 46 Q602 26 588 13 Q574 0 554 0 L450 0 Q430 0 418.5 13.5 Q407 27 402 46 L382 125 L226 125 L205 46 Q200 27 188.5 13.5 Q177 0 157 0 L53 0 Q33 0 19 13 Q5 26 5 46 L165 539 Q171 558 184.5 571.5 Q198 585 218 585 L387 585 Z M258 250 L350 250 L304 426 L258 250 Z M479 685 Q479 671 469 661.5 Q459 652 445 652 L365 652 Q351 652 341.5 661.5 Q332 671 326 685 L304 734 L282 685 Q276 671 266.5 661.5 Q257 652 243 652 L163 652 Q149 652 139 661.5 Q129 671 129 685 L219 846 Q226 859 234 869 Q242 879 256 879 L352 879 Q366 879 374 869 Q382 859 389 846 L479 685 Z " />
<glyph glyph-name="Atilde" unicode="&#xc3;" horiz-adv-x="607" d="M387 585 Q407 585 420.5 571.5 Q434 558 440 539 L602 46 Q602 26 588 13 Q574 0 554 0 L450 0 Q430 0 418.5 13.5 Q407 27 402 46 L382 125 L226 125 L205 46 Q200 27 188.5 13.5 Q177 0 157 0 L53 0 Q33 0 19 13 Q5 26 5 46 L165 539 Q171 558 184.5 571.5 Q198 585 218 585 L387 585 Z M258 250 L350 250 L304 426 L258 250 Z M366 652 Q349 652 332.5 657.5 Q316 663 300 669 Q284 675 267.5 680.5 Q251 686 233 686 Q227 686 216.5 684 Q206 682 195 679 Q189 676 183 676 Q172 676 162 682.5 Q152 689 147 700 L129 749 Q126 755 126 762 Q126 773 131.5 782 Q137 791 147 795 Q170 806 194 810 Q218 814 233 814 Q250 814 266.5 808.5 Q283 803 299 797 Q315 791 331.5 785.5 Q348 780 366 780 Q372 780 382.5 782 Q393 784 404 787 Q410 790 416 790 Q427 790 437 783.5 Q447 777 452 766 L470 717 Q473 711 473 704 Q473 693 467.5 684 Q462 675 452 671 Q429 660 405 656 Q381 652 366 652 Z " />
<glyph glyph-name="Adieresis" unicode="&#xc4;" horiz-adv-x="607" d="M387 585 Q407 585 420.5 571.5 Q434 558 440 539 L602 46 Q602 26 588 13 Q574 0 554 0 L450 0 Q430 0 418.5 13.5 Q407 27 402 46 L382 125 L226 125 L205 46 Q200 27 188.5 13.5 Q177 0 157 0 L53 0 Q33 0 19 13 Q5 26 5 46 L165 539 Q171 558 184.5 571.5 Q198 585 218 585 L387 585 Z M258 250 L350 250 L304 426 L258 250 Z M280 695 Q280 677 267 664.5 Q254 652 235 652 L159 652 Q140 652 127.5 664.5 Q115 677 115 695 L115 771 Q115 789 127.5 801.5 Q140 814 159 814 L235 814 Q254 814 267 801.5 Q280 789 280 771 L280 695 Z M492 695 Q492 677 479 664.5 Q466 652 447 652 L371 652 Q352 652 339.5 664.5 Q327 677 327 695 L327 771 Q327 789 339.5 801.5 Q352 814 371 814 L447 814 Q466 814 479 801.5 Q492 789 492 771 L492 695 Z " />
<glyph glyph-name="Aring" unicode="&#xc5;" horiz-adv-x="607" d="M303 942 Q333 942 359 931 Q385 920 404.5 900.5 Q424 881 435.5 854.5 Q447 828 447 798 Q447 768 435.5 741 Q424 714 404.5 694.5 Q385 675 359 663.5 Q333 652 303 652 Q273 652 246 663.5 Q219 675 199.5 694.5 Q180 714 168.5 741 Q157 768 157 798 Q157 828 168.5 854.5 Q180 881 199.5 900.5 Q219 920 246 931 Q273 942 303 942 Z M303 761 Q317 761 327.5 771.5 Q338 782 338 797 Q338 812 327.5 822 Q317 832 303 832 Q288 832 277.5 822 Q267 812 267 797 Q267 782 277.5 771.5 Q288 761 303 761 Z M387 585 Q407 585 420.5 571.5 Q434 558 440 539 L602 46 Q602 26 588 13 Q574 0 554 0 L450 0 Q430 0 418.5 13.5 Q407 27 402 46 L382 125 L226 125 L205 46 Q200 27 188.5 13.5 Q177 0 157 0 L53 0 Q33 0 19 13 Q5 26 5 46 L165 539 Q171 558 184.5 571.5 Q198 585 218 585 L387 585 Z M258 250 L350 250 L304 426 L258 250 Z " />
<glyph glyph-name="AE" unicode="&#xc6;" horiz-adv-x="943" d="M463 261 L463 434 L349 261 L463 261 Z M190 22 Q184 12 175 6 Q166 0 152 0 L48 0 Q28 0 14 13 Q0 26 0 46 L327 559 Q332 570 342.5 577.5 Q353 585 365 585 L872 585 Q889 585 901 572 Q913 559 913 542 L913 477 Q913 460 901 447 Q889 434 872 434 L657 434 L657 359 L812 359 Q827 359 838 347.5 Q849 336 849 320 L849 262 Q849 246 838 234.5 Q827 223 812 223 L657 223 L657 151 L872 151 Q889 151 901 138 Q913 125 913 108 L913 43 Q913 26 901 13 Q889 0 872 0 L504 0 Q487 0 475 13 Q463 26 463 43 L463 134 L265 134 L190 22 Z " />
<glyph glyph-name="Ccedilla" unicode="&#xc7;" horiz-adv-x="630" d="M605 166 Q588 94 529 47 Q470 0 373 -10 L373 -37 Q397 -38 417 -48 Q434 -57 447 -75.5 Q460 -94 460 -128 Q460 -154 448 -175 Q436 -196 416.5 -210.5 Q397 -225 371.5 -233 Q346 -241 319 -241 Q304 -241 286.5 -239 Q269 -237 257 -235 Q246 -235 237.5 -226 Q229 -217 229 -206 L229 -165 Q229 -154 237.5 -145 Q246 -136 257 -136 Q261 -137 266 -137 Q271 -137 275 -137 Q283 -137 292.5 -136 Q302 -135 310.5 -132.5 Q319 -130 324.5 -125.5 Q330 -121 330 -114 Q330 -100 313.5 -93 Q297 -86 280 -86 Q271 -86 265.5 -79.5 Q260 -73 260 -65 L270 -9 Q201 0 154.5 31.5 Q108 63 79 106 Q50 149 37.5 197 Q25 245 25 287 Q25 336 40 391 Q55 446 90 492 Q125 538 182 568.5 Q239 599 323 599 Q382 599 430 585.5 Q478 572 514 547.5 Q550 523 573 489.5 Q596 456 605 415 Q605 392 592 386 Q579 380 560 380 L440 380 Q421 380 413 388 Q405 396 395 417 Q386 436 364.5 448.5 Q343 461 323 461 Q298 461 278.5 447 Q259 433 245.5 409 Q232 385 225.5 353.5 Q219 322 219 287 Q219 255 225.5 225.5 Q232 196 245.5 173.5 Q259 151 278.5 138 Q298 125 323 125 Q343 125 363 134.5 Q383 144 395 164 Q405 185 412.5 193 Q420 201 439 201 L559 201 Q578 201 591.5 195 Q605 189 605 166 Z " />
<glyph glyph-name="Egrave" unicode="&#xc8;" horiz-adv-x="525" d="M394 359 Q409 359 420 347.5 Q431 336 431 320 L431 262 Q431 246 420 234.5 Q409 223 394 223 L239 223 L239 151 L454 151 Q471 151 483 138 Q495 125 495 108 L495 43 Q495 26 483 13 Q471 0 454 0 L93 0 Q73 0 59 13 Q45 26 45 46 L45 539 Q45 559 59 572 Q73 585 93 585 L454 585 Q471 585 483 572 Q495 559 495 542 L495 477 Q495 460 483 447 Q471 434 454 434 L239 434 L239 359 L394 359 Z M126 802 Q126 821 139 833.5 Q152 846 172 846 L268 846 Q288 846 298.5 832.5 Q309 819 318 802 L366 696 Q366 677 353 664.5 Q340 652 320 652 L254 652 Q240 652 231 659 Q222 666 214 677 L126 802 Z " />
<glyph glyph-name="Eacute" unicode="&#xc9;" horiz-adv-x="525" d="M394 359 Q409 359 420 347.5 Q431 336 431 320 L431 262 Q431 246 420 234.5 Q409 223 394 223 L239 223 L239 151 L454 151 Q471 151 483 138 Q495 125 495 108 L495 43 Q495 26 483 13 Q471 0 454 0 L93 0 Q73 0 59 13 Q45 26 45 46 L45 539 Q45 559 59 572 Q73 585 93 585 L454 585 Q471 585 483 572 Q495 559 495 542 L495 477 Q495 460 483 447 Q471 434 454 434 L239 434 L239 359 L394 359 Z M342 677 Q334 666 325 659 Q316 652 302 652 L236 652 Q216 652 203 664.5 Q190 677 190 696 L238 802 Q247 819 257.5 832.5 Q268 846 288 846 L384 846 Q404 846 417 833.5 Q430 821 430 802 L342 677 Z " />
<glyph glyph-name="Ecircumflex" unicode="&#xca;" horiz-adv-x="525" d="M394 359 Q409 359 420 347.5 Q431 336 431 320 L431 262 Q431 246 420 234.5 Q409 223 394 223 L239 223 L239 151 L454 151 Q471 151 483 138 Q495 125 495 108 L495 43 Q495 26 483 13 Q471 0 454 0 L93 0 Q73 0 59 13 Q45 26 45 46 L45 539 Q45 559 59 572 Q73 585 93 585 L454 585 Q471 585 483 572 Q495 559 495 542 L495 477 Q495 460 483 447 Q471 434 454 434 L239 434 L239 359 L394 359 Z M448 685 Q448 671 438 661.5 Q428 652 414 652 L334 652 Q320 652 310.5 661.5 Q301 671 295 685 L273 734 L251 685 Q245 671 235.5 661.5 Q226 652 212 652 L132 652 Q118 652 108 661.5 Q98 671 98 685 L188 846 Q195 859 203 869 Q211 879 225 879 L321 879 Q335 879 343 869 Q351 859 358 846 L448 685 Z " />
<glyph glyph-name="Edieresis" unicode="&#xcb;" horiz-adv-x="525" d="M394 359 Q409 359 420 347.5 Q431 336 431 320 L431 262 Q431 246 420 234.5 Q409 223 394 223 L239 223 L239 151 L454 151 Q471 151 483 138 Q495 125 495 108 L495 43 Q495 26 483 13 Q471 0 454 0 L93 0 Q73 0 59 13 Q45 26 45 46 L45 539 Q45 559 59 572 Q73 585 93 585 L454 585 Q471 585 483 572 Q495 559 495 542 L495 477 Q495 460 483 447 Q471 434 454 434 L239 434 L239 359 L394 359 Z M252 695 Q252 677 239 664.5 Q226 652 207 652 L131 652 Q112 652 99.5 664.5 Q87 677 87 695 L87 771 Q87 789 99.5 801.5 Q112 814 131 814 L207 814 Q226 814 239 801.5 Q252 789 252 771 L252 695 Z M466 695 Q466 677 453 664.5 Q440 652 421 652 L345 652 Q326 652 313.5 664.5 Q301 677 301 695 L301 771 Q301 789 313.5 801.5 Q326 814 345 814 L421 814 Q440 814 453 801.5 Q466 789 466 771 L466 695 Z " />
<glyph glyph-name="Igrave" unicode="&#xcc;" horiz-adv-x="284" d="M239 46 Q239 26 225 13 Q211 0 191 0 L93 0 Q73 0 59 13 Q45 26 45 46 L45 539 Q45 559 59 572 Q73 585 93 585 L191 585 Q211 585 225 572 Q239 559 239 539 L239 46 Z M-41 802 Q-41 821 -28 833.5 Q-15 846 5 846 L101 846 Q121 846 131.5 832.5 Q142 819 151 802 L199 696 Q199 677 186 664.5 Q173 652 153 652 L87 652 Q73 652 64 659 Q55 666 47 677 L-41 802 Z " />
<glyph glyph-name="Iacute" unicode="&#xcd;" horiz-adv-x="284" d="M239 46 Q239 26 225 13 Q211 0 191 0 L93 0 Q73 0 59 13 Q45 26 45 46 L45 539 Q45 559 59 572 Q73 585 93 585 L191 585 Q211 585 225 572 Q239 559 239 539 L239 46 Z M239 677 Q231 666 222 659 Q213 652 199 652 L133 652 Q113 652 100 664.5 Q87 677 87 696 L135 802 Q144 819 154.5 832.5 Q165 846 185 846 L281 846 Q301 846 314 833.5 Q327 821 327 802 L239 677 Z " />
<glyph glyph-name="Icircumflex" unicode="&#xce;" horiz-adv-x="284" d="M239 46 Q239 26 225 13 Q211 0 191 0 L93 0 Q73 0 59 13 Q45 26 45 46 L45 539 Q45 559 59 572 Q73 585 93 585 L191 585 Q211 585 225 572 Q239 559 239 539 L239 46 Z M318 685 Q318 671 308 661.5 Q298 652 284 652 L204 652 Q190 652 180.5 661.5 Q171 671 165 685 L143 734 L121 685 Q115 671 105.5 661.5 Q96 652 82 652 L2 652 Q-12 652 -22 661.5 Q-32 671 -32 685 L58 846 Q65 859 73 869 Q81 879 95 879 L191 879 Q205 879 213 869 Q221 859 228 846 L318 685 Z " />
<glyph glyph-name="Idieresis" unicode="&#xcf;" horiz-adv-x="284" d="M239 46 Q239 26 225 13 Q211 0 191 0 L93 0 Q73 0 59 13 Q45 26 45 46 L45 539 Q45 559 59 572 Q73 585 93 585 L191 585 Q211 585 225 572 Q239 559 239 539 L239 46 Z M119 695 Q119 677 106 664.5 Q93 652 74 652 L-2 652 Q-21 652 -33.5 664.5 Q-46 677 -46 695 L-46 771 Q-46 789 -33.5 801.5 Q-21 814 -2 814 L74 814 Q93 814 106 801.5 Q119 789 119 771 L119 695 Z M331 695 Q331 677 318 664.5 Q305 652 286 652 L210 652 Q191 652 178.5 664.5 Q166 677 166 695 L166 771 Q166 789 178.5 801.5 Q191 814 210 814 L286 814 Q305 814 318 801.5 Q331 789 331 771 L331 695 Z " />
<glyph glyph-name="Eth" unicode="&#xd0;" horiz-adv-x="624" d="M301 585 Q385 585 442 558 Q499 531 534 488.5 Q569 446 584 394 Q599 342 599 293 Q599 247 584 195.5 Q569 144 534 100.5 Q499 57 442 28.5 Q385 0 301 0 L113 0 Q93 0 79 13 Q65 26 65 46 L65 222 L41 222 Q24 222 12 235 Q0 248 0 265 L0 327 Q0 344 12 357 Q24 370 41 370 L65 370 L65 539 Q65 559 79 572 Q93 585 113 585 L301 585 Z M259 222 L259 151 L301 151 Q352 151 378.5 189.5 Q405 228 405 293 Q405 434 301 434 L259 434 L259 370 L290 370 Q307 370 319 357 Q331 344 331 327 L331 265 Q331 248 319 235 Q307 222 290 222 L259 222 Z " />
<glyph glyph-name="Ntilde" unicode="&#xd1;" horiz-adv-x="662" d="M423 301 L423 539 Q423 559 437 572 Q451 585 471 585 L569 585 Q589 585 603 572 Q617 559 617 539 L617 46 Q617 26 603 13 Q589 0 569 0 L460 0 Q426 0 411 29 L239 281 L239 46 Q239 26 225 13 Q211 0 191 0 L93 0 Q73 0 59 13 Q45 26 45 46 L45 539 Q45 559 59 572 Q73 585 93 585 L202 585 Q238 585 252 556 L423 301 Z M398 652 Q381 652 364.5 657.5 Q348 663 332 669 Q316 675 299.5 680.5 Q283 686 265 686 Q259 686 248.5 684 Q238 682 227 679 Q221 676 215 676 Q204 676 194 682.5 Q184 689 179 700 L161 749 Q158 755 158 762 Q158 773 163.5 782 Q169 791 179 795 Q202 806 226 810 Q250 814 265 814 Q282 814 298.5 808.5 Q315 803 331 797 Q347 791 363.5 785.5 Q380 780 398 780 Q404 780 414.5 782 Q425 784 436 787 Q442 790 448 790 Q459 790 469 783.5 Q479 777 484 766 L502 717 Q505 711 505 704 Q505 693 499.5 684 Q494 675 484 671 Q461 660 437 656 Q413 652 398 652 Z " />
<glyph glyph-name="Ograve" unicode="&#xd2;" horiz-adv-x="658" d="M329 125 Q356 125 377 138 Q398 151 411.5 173.5 Q425 196 432 225.5 Q439 255 439 287 Q439 322 432 353.5 Q425 385 411.5 409 Q398 433 377 447 Q356 461 329 461 Q302 461 281 447 Q260 433 246.5 409 Q233 385 226 353.5 Q219 322 219 287 Q219 255 226 225.5 Q233 196 246.5 173.5 Q260 151 281 138 Q302 125 329 125 Z M329 -14 Q245 -14 187 15.5 Q129 45 93 90 Q57 135 41 188 Q25 241 25 287 Q25 336 41 391 Q57 446 93 492 Q129 538 187 568.5 Q245 599 329 599 Q413 599 471 568.5 Q529 538 565 492 Q601 446 617 391 Q633 336 633 287 Q633 241 617 188 Q601 135 565 90 Q529 45 471 15.5 Q413 -14 329 -14 Z M149 802 Q149 821 162 833.5 Q175 846 195 846 L291 846 Q311 846 321.5 832.5 Q332 819 341 802 L389 696 Q389 677 376 664.5 Q363 652 343 652 L277 652 Q263 652 254 659 Q245 666 237 677 L149 802 Z " />
<glyph glyph-name="Oacute" unicode="&#xd3;" horiz-adv-x="658" d="M329 125 Q356 125 377 138 Q398 151 411.5 173.5 Q425 196 432 225.5 Q439 255 439 287 Q439 322 432 353.5 Q425 385 411.5 409 Q398 433 377 447 Q356 461 329 461 Q302 461 281 447 Q260 433 246.5 409 Q233 385 226 353.5 Q219 322 219 287 Q219 255 226 225.5 Q233 196 246.5 173.5 Q260 151 281 138 Q302 125 329 125 Z M329 -14 Q245 -14 187 15.5 Q129 45 93 90 Q57 135 41 188 Q25 241 25 287 Q25 336 41 391 Q57 446 93 492 Q129 538 187 568.5 Q245 599 329 599 Q413 599 471 568.5 Q529 538 565 492 Q601 446 617 391 Q633 336 633 287 Q633 241 617 188 Q601 135 565 90 Q529 45 471 15.5 Q413 -14 329 -14 Z M420 677 Q412 666 403 659 Q394 652 380 652 L314 652 Q294 652 281 664.5 Q268 677 268 696 L316 802 Q325 819 335.5 832.5 Q346 846 366 846 L462 846 Q482 846 495 833.5 Q508 821 508 802 L420 677 Z " />
<glyph glyph-name="Ocircumflex" unicode="&#xd4;" horiz-adv-x="658" d="M329 125 Q356 125 377 138 Q398 151 411.5 173.5 Q425 196 432 225.5 Q439 255 439 287 Q439 322 432 353.5 Q425 385 411.5 409 Q398 433 377 447 Q356 461 329 461 Q302 461 281 447 Q260 433 246.5 409 Q233 385 226 353.5 Q219 322 219 287 Q219 255 226 225.5 Q233 196 246.5 173.5 Q260 151 281 138 Q302 125 329 125 Z M329 -14 Q245 -14 187 15.5 Q129 45 93 90 Q57 135 41 188 Q25 241 25 287 Q25 336 41 391 Q57 446 93 492 Q129 538 187 568.5 Q245 599 329 599 Q413 599 471 568.5 Q529 538 565 492 Q601 446 617 391 Q633 336 633 287 Q633 241 617 188 Q601 135 565 90 Q529 45 471 15.5 Q413 -14 329 -14 Z M503 685 Q503 671 493 661.5 Q483 652 469 652 L389 652 Q375 652 365.5 661.5 Q356 671 350 685 L328 734 L306 685 Q300 671 290.5 661.5 Q281 652 267 652 L187 652 Q173 652 163 661.5 Q153 671 153 685 L243 846 Q250 859 258 869 Q266 879 280 879 L376 879 Q390 879 398 869 Q406 859 413 846 L503 685 Z " />
<glyph glyph-name="Otilde" unicode="&#xd5;" horiz-adv-x="658" d="M329 125 Q356 125 377 138 Q398 151 411.5 173.5 Q425 196 432 225.5 Q439 255 439 287 Q439 322 432 353.5 Q425 385 411.5 409 Q398 433 377 447 Q356 461 329 461 Q302 461 281 447 Q260 433 246.5 409 Q233 385 226 353.5 Q219 322 219 287 Q219 255 226 225.5 Q233 196 246.5 173.5 Q260 151 281 138 Q302 125 329 125 Z M329 -14 Q245 -14 187 15.5 Q129 45 93 90 Q57 135 41 188 Q25 241 25 287 Q25 336 41 391 Q57 446 93 492 Q129 538 187 568.5 Q245 599 329 599 Q413 599 471 568.5 Q529 538 565 492 Q601 446 617 391 Q633 336 633 287 Q633 241 617 188 Q601 135 565 90 Q529 45 471 15.5 Q413 -14 329 -14 Z M394 652 Q377 652 360.5 657.5 Q344 663 328 669 Q312 675 295.5 680.5 Q279 686 261 686 Q255 686 244.5 684 Q234 682 223 679 Q217 676 211 676 Q200 676 190 682.5 Q180 689 175 700 L157 749 Q154 755 154 762 Q154 773 159.5 782 Q165 791 175 795 Q198 806 222 810 Q246 814 261 814 Q278 814 294.5 808.5 Q311 803 327 797 Q343 791 359.5 785.5 Q376 780 394 780 Q400 780 410.5 782 Q421 784 432 787 Q438 790 444 790 Q455 790 465 783.5 Q475 777 480 766 L498 717 Q501 711 501 704 Q501 693 495.5 684 Q490 675 480 671 Q457 660 433 656 Q409 652 394 652 Z " />
<glyph glyph-name="Odieresis" unicode="&#xd6;" horiz-adv-x="658" d="M329 125 Q356 125 377 138 Q398 151 411.5 173.5 Q425 196 432 225.5 Q439 255 439 287 Q439 322 432 353.5 Q425 385 411.5 409 Q398 433 377 447 Q356 461 329 461 Q302 461 281 447 Q260 433 246.5 409 Q233 385 226 353.5 Q219 322 219 287 Q219 255 226 225.5 Q233 196 246.5 173.5 Q260 151 281 138 Q302 125 329 125 Z M329 -14 Q245 -14 187 15.5 Q129 45 93 90 Q57 135 41 188 Q25 241 25 287 Q25 336 41 391 Q57 446 93 492 Q129 538 187 568.5 Q245 599 329 599 Q413 599 471 568.5 Q529 538 565 492 Q601 446 617 391 Q633 336 633 287 Q633 241 617 188 Q601 135 565 90 Q529 45 471 15.5 Q413 -14 329 -14 Z M306 695 Q306 677 293 664.5 Q280 652 261 652 L185 652 Q166 652 153.5 664.5 Q141 677 141 695 L141 771 Q141 789 153.5 801.5 Q166 814 185 814 L261 814 Q280 814 293 801.5 Q306 789 306 771 L306 695 Z M518 695 Q518 677 505 664.5 Q492 652 473 652 L397 652 Q378 652 365.5 664.5 Q353 677 353 695 L353 771 Q353 789 365.5 801.5 Q378 814 397 814 L473 814 Q492 814 505 801.5 Q518 789 518 771 L518 695 Z " />
<glyph glyph-name="multiply" unicode="&#xd7;" horiz-adv-x="488" d="M212 59 Q201 42 186.5 39.5 Q172 37 164 37 L94 37 Q75 37 62.5 49 Q50 61 50 79 L142 211 L50 343 Q50 361 62.5 373 Q75 385 94 385 L164 385 Q172 385 186.5 382.5 Q201 380 212 363 L244 318 L276 363 Q287 380 301.5 382.5 Q316 385 324 385 L394 385 Q413 385 425.5 373 Q438 361 438 343 L346 211 L438 79 Q438 61 425.5 49 Q413 37 394 37 L324 37 Q316 37 301.5 39.5 Q287 42 276 59 L244 104 L212 59 Z " />
<glyph glyph-name="Oslash" unicode="&#xd8;" horiz-adv-x="658" d="M219 287 Q219 233 237 192 L335 461 L329 461 Q302 461 281 447 Q260 433 246.5 409 Q233 385 226 353.5 Q219 322 219 287 Z M329 125 Q356 125 377 138 Q398 151 411.5 173.5 Q425 196 432 225.5 Q439 255 439 287 Q439 345 421 388 L325 125 L329 125 Z M175 22 Q135 44 106.5 75.5 Q78 107 60 143 Q42 179 33.5 216.5 Q25 254 25 287 Q25 336 41 391 Q57 446 93 492 Q129 538 187 568.5 Q245 599 329 599 Q343 599 356.5 598 Q370 597 384 595 L405 651 Q410 663 417 673 Q424 683 438 683 L484 683 Q498 683 507.5 674 Q517 665 517 651 L484 561 Q524 539 552.5 506.5 Q581 474 599 437 Q617 400 625 361 Q633 322 633 287 Q633 241 617 188 Q601 135 565 90 Q529 45 471 15.5 Q413 -14 329 -14 Q315 -14 301.5 -13 Q288 -12 276 -10 L255 -69 Q250 -81 242.5 -91 Q235 -101 221 -101 L175 -101 Q161 -101 151.5 -92 Q142 -83 142 -69 L175 22 Z " />
<glyph glyph-name="Ugrave" unicode="&#xd9;" horiz-adv-x="659" d="M40 539 Q40 559 54 572 Q68 585 88 585 L186 585 Q206 585 220 572 Q234 559 234 539 L234 261 Q234 196 254 160.5 Q274 125 329 125 Q384 125 404.5 160.5 Q425 196 425 261 L425 539 Q425 559 439 572 Q453 585 473 585 L571 585 Q591 585 605 572 Q619 559 619 539 L619 261 Q619 215 605 166 Q591 117 558 77 Q525 37 469 11.5 Q413 -14 329 -14 Q245 -14 189.5 11.5 Q134 37 100.5 77 Q67 117 53.5 166 Q40 215 40 261 L40 539 Z M147 802 Q147 821 160 833.5 Q173 846 193 846 L289 846 Q309 846 319.5 832.5 Q330 819 339 802 L387 696 Q387 677 374 664.5 Q361 652 341 652 L275 652 Q261 652 252 659 Q243 666 235 677 L147 802 Z " />
<glyph glyph-name="Uacute" unicode="&#xda;" horiz-adv-x="659" d="M40 539 Q40 559 54 572 Q68 585 88 585 L186 585 Q206 585 220 572 Q234 559 234 539 L234 261 Q234 196 254 160.5 Q274 125 329 125 Q384 125 404.5 160.5 Q425 196 425 261 L425 539 Q425 559 439 572 Q453 585 473 585 L571 585 Q591 585 605 572 Q619 559 619 539 L619 261 Q619 215 605 166 Q591 117 558 77 Q525 37 469 11.5 Q413 -14 329 -14 Q245 -14 189.5 11.5 Q134 37 100.5 77 Q67 117 53.5 166 Q40 215 40 261 L40 539 Z M426 677 Q418 666 409 659 Q400 652 386 652 L320 652 Q300 652 287 664.5 Q274 677 274 696 L322 802 Q331 819 341.5 832.5 Q352 846 372 846 L468 846 Q488 846 501 833.5 Q514 821 514 802 L426 677 Z " />
<glyph glyph-name="Ucircumflex" unicode="&#xdb;" horiz-adv-x="659" d="M40 539 Q40 559 54 572 Q68 585 88 585 L186 585 Q206 585 220 572 Q234 559 234 539 L234 261 Q234 196 254 160.5 Q274 125 329 125 Q384 125 404.5 160.5 Q425 196 425 261 L425 539 Q425 559 439 572 Q453 585 473 585 L571 585 Q591 585 605 572 Q619 559 619 539 L619 261 Q619 215 605 166 Q591 117 558 77 Q525 37 469 11.5 Q413 -14 329 -14 Q245 -14 189.5 11.5 Q134 37 100.5 77 Q67 117 53.5 166 Q40 215 40 261 L40 539 Z M503 685 Q503 671 493 661.5 Q483 652 469 652 L389 652 Q375 652 365.5 661.5 Q356 671 350 685 L328 734 L306 685 Q300 671 290.5 661.5 Q281 652 267 652 L187 652 Q173 652 163 661.5 Q153 671 153 685 L243 846 Q250 859 258 869 Q266 879 280 879 L376 879 Q390 879 398 869 Q406 859 413 846 L503 685 Z " />
<glyph glyph-name="Udieresis" unicode="&#xdc;" horiz-adv-x="659" d="M40 539 Q40 559 54 572 Q68 585 88 585 L186 585 Q206 585 220 572 Q234 559 234 539 L234 261 Q234 196 254 160.5 Q274 125 329 125 Q384 125 404.5 160.5 Q425 196 425 261 L425 539 Q425 559 439 572 Q453 585 473 585 L571 585 Q591 585 605 572 Q619 559 619 539 L619 261 Q619 215 605 166 Q591 117 558 77 Q525 37 469 11.5 Q413 -14 329 -14 Q245 -14 189.5 11.5 Q134 37 100.5 77 Q67 117 53.5 166 Q40 215 40 261 L40 539 Z M304 695 Q304 677 291 664.5 Q278 652 259 652 L183 652 Q164 652 151.5 664.5 Q139 677 139 695 L139 771 Q139 789 151.5 801.5 Q164 814 183 814 L259 814 Q278 814 291 801.5 Q304 789 304 771 L304 695 Z M518 695 Q518 677 505 664.5 Q492 652 473 652 L397 652 Q378 652 365.5 664.5 Q353 677 353 695 L353 771 Q353 789 365.5 801.5 Q378 814 397 814 L473 814 Q492 814 505 801.5 Q518 789 518 771 L518 695 Z " />
<glyph glyph-name="Yacute" unicode="&#xdd;" horiz-adv-x="612" d="M403 46 Q403 26 389 13 Q375 0 355 0 L257 0 Q237 0 223 13 Q209 26 209 46 L209 188 L10 539 Q10 559 24 572 Q38 585 58 585 L157 585 Q177 585 188.5 571 Q200 557 209 539 L306 350 L403 539 Q412 557 423.5 571 Q435 585 455 585 L554 585 Q574 585 588 572 Q602 559 602 539 L403 189 L403 46 Z M399 677 Q391 666 382 659 Q373 652 359 652 L293 652 Q273 652 260 664.5 Q247 677 247 696 L295 802 Q304 819 314.5 832.5 Q325 846 345 846 L441 846 Q461 846 474 833.5 Q487 821 487 802 L399 677 Z " />
<glyph glyph-name="Thorn" unicode="&#xde;" horiz-adv-x="574" d="M310 236 Q337 236 355.5 252 Q374 268 374 298 Q374 328 355.5 344.5 Q337 361 310 361 L239 361 L239 236 L310 236 Z M45 539 Q45 559 59 572 Q73 585 93 585 L191 585 Q211 585 225 572 Q239 559 239 539 L239 512 L314 512 Q384 512 431 491.5 Q478 471 506.5 439.5 Q535 408 547 370.5 Q559 333 559 299 Q559 265 547 227.5 Q535 190 506.5 158.5 Q478 127 431 106 Q384 85 314 85 L239 85 L239 46 Q239 26 225 13 Q211 0 191 0 L93 0 Q73 0 59 13 Q45 26 45 46 L45 539 Z " />
<glyph glyph-name="germandbls" unicode="&#xdf;" horiz-adv-x="586" d="M315 228 Q301 228 291.5 238 Q282 248 282 263 L282 314 Q282 328 291.5 338 Q301 348 315 348 Q336 352 348 365 Q360 378 360 396 Q360 417 343.5 432 Q327 447 300 447 L292 447 Q265 447 249 432 Q233 417 233 396 L233 46 Q233 26 219 13 Q205 0 185 0 L88 0 Q68 0 54 13 Q40 26 40 46 L40 402 Q40 436 53 468.5 Q66 501 96 527 Q126 553 174 569 Q222 585 292 585 L300 585 Q370 585 417 569 Q464 553 492.5 527 Q521 501 533 468.5 Q545 436 545 402 Q545 375 530.5 347.5 Q516 320 475 305 Q502 299 520.5 286 Q539 273 550 256.5 Q561 240 566 221.5 Q571 203 571 186 Q571 152 559 119 Q547 86 518.5 59.5 Q490 33 443 16.5 Q396 0 326 0 L309 0 Q293 0 282 11.5 Q271 23 271 40 L271 99 Q271 116 282 127.5 Q293 139 309 139 L326 139 Q353 139 369.5 151.5 Q386 164 386 185 Q386 206 369.5 217 Q353 228 326 228 L315 228 Z " />
<glyph glyph-name="agrave" unicode="&#xe0;" horiz-adv-x="518" d="M206 143 Q206 126 219 121.5 Q232 117 248 117 Q257 117 269.5 120 Q282 123 294 128 L294 172 Q284 172 269 170.5 Q254 169 240 166 Q226 163 216 157.5 Q206 152 206 143 Z M195 304 Q187 289 178.5 285.5 Q170 282 156 282 L73 282 Q59 282 50 286.5 Q41 291 41 307 Q51 345 71.5 370.5 Q92 396 119 411.5 Q146 427 179 433.5 Q212 440 248 440 Q316 440 362 426.5 Q408 413 436 385.5 Q464 358 476 316 Q488 274 488 216 L488 46 Q488 26 474 13 Q460 0 440 0 L342 0 Q322 0 308 13 Q294 26 294 46 Q258 7 227.5 -3 Q197 -13 172 -13 Q148 -13 122 -4.5 Q96 4 74.5 21.5 Q53 39 39 66.5 Q25 94 25 133 Q25 180 51 205.5 Q77 231 117 243.5 Q157 256 204.5 258.5 Q252 261 294 261 Q292 291 280.5 306.5 Q269 322 241 322 Q224 322 213 319 Q202 316 195 304 Z M119 657 Q119 676 132 688.5 Q145 701 165 701 L261 701 Q281 701 291.5 687.5 Q302 674 311 657 L359 551 Q359 532 346 519.5 Q333 507 313 507 L247 507 Q233 507 224 514 Q215 521 207 532 L119 657 Z " />
<glyph glyph-name="aacute" unicode="&#xe1;" horiz-adv-x="518" d="M206 143 Q206 126 219 121.5 Q232 117 248 117 Q257 117 269.5 120 Q282 123 294 128 L294 172 Q284 172 269 170.5 Q254 169 240 166 Q226 163 216 157.5 Q206 152 206 143 Z M195 304 Q187 289 178.5 285.5 Q170 282 156 282 L73 282 Q59 282 50 286.5 Q41 291 41 307 Q51 345 71.5 370.5 Q92 396 119 411.5 Q146 427 179 433.5 Q212 440 248 440 Q316 440 362 426.5 Q408 413 436 385.5 Q464 358 476 316 Q488 274 488 216 L488 46 Q488 26 474 13 Q460 0 440 0 L342 0 Q322 0 308 13 Q294 26 294 46 Q258 7 227.5 -3 Q197 -13 172 -13 Q148 -13 122 -4.5 Q96 4 74.5 21.5 Q53 39 39 66.5 Q25 94 25 133 Q25 180 51 205.5 Q77 231 117 243.5 Q157 256 204.5 258.5 Q252 261 294 261 Q292 291 280.5 306.5 Q269 322 241 322 Q224 322 213 319 Q202 316 195 304 Z M354 532 Q346 521 337 514 Q328 507 314 507 L248 507 Q228 507 215 519.5 Q202 532 202 551 L250 657 Q259 674 269.5 687.5 Q280 701 300 701 L396 701 Q416 701 429 688.5 Q442 676 442 657 L354 532 Z " />
<glyph glyph-name="acircumflex" unicode="&#xe2;" horiz-adv-x="518" d="M206 143 Q206 126 219 121.5 Q232 117 248 117 Q257 117 269.5 120 Q282 123 294 128 L294 172 Q284 172 269 170.5 Q254 169 240 166 Q226 163 216 157.5 Q206 152 206 143 Z M195 304 Q187 289 178.5 285.5 Q170 282 156 282 L73 282 Q59 282 50 286.5 Q41 291 41 307 Q51 345 71.5 370.5 Q92 396 119 411.5 Q146 427 179 433.5 Q212 440 248 440 Q316 440 362 426.5 Q408 413 436 385.5 Q464 358 476 316 Q488 274 488 216 L488 46 Q488 26 474 13 Q460 0 440 0 L342 0 Q322 0 308 13 Q294 26 294 46 Q258 7 227.5 -3 Q197 -13 172 -13 Q148 -13 122 -4.5 Q96 4 74.5 21.5 Q53 39 39 66.5 Q25 94 25 133 Q25 180 51 205.5 Q77 231 117 243.5 Q157 256 204.5 258.5 Q252 261 294 261 Q292 291 280.5 306.5 Q269 322 241 322 Q224 322 213 319 Q202 316 195 304 Z M431 540 Q431 526 421 516.5 Q411 507 397 507 L317 507 Q303 507 293.5 516.5 Q284 526 278 540 L256 589 L234 540 Q228 526 218.5 516.5 Q209 507 195 507 L115 507 Q101 507 91 516.5 Q81 526 81 540 L171 701 Q178 714 186 724 Q194 734 208 734 L304 734 Q318 734 326 724 Q334 714 341 701 L431 540 Z " />
<glyph glyph-name="atilde" unicode="&#xe3;" horiz-adv-x="518" d="M206 143 Q206 126 219 121.5 Q232 117 248 117 Q257 117 269.5 120 Q282 123 294 128 L294 172 Q284 172 269 170.5 Q254 169 240 166 Q226 163 216 157.5 Q206 152 206 143 Z M195 304 Q187 289 178.5 285.5 Q170 282 156 282 L73 282 Q59 282 50 286.5 Q41 291 41 307 Q51 345 71.5 370.5 Q92 396 119 411.5 Q146 427 179 433.5 Q212 440 248 440 Q316 440 362 426.5 Q408 413 436 385.5 Q464 358 476 316 Q488 274 488 216 L488 46 Q488 26 474 13 Q460 0 440 0 L342 0 Q322 0 308 13 Q294 26 294 46 Q258 7 227.5 -3 Q197 -13 172 -13 Q148 -13 122 -4.5 Q96 4 74.5 21.5 Q53 39 39 66.5 Q25 94 25 133 Q25 180 51 205.5 Q77 231 117 243.5 Q157 256 204.5 258.5 Q252 261 294 261 Q292 291 280.5 306.5 Q269 322 241 322 Q224 322 213 319 Q202 316 195 304 Z M334 507 Q317 507 300.5 512.5 Q284 518 268 524 Q252 530 235.5 535.5 Q219 541 201 541 Q195 541 184.5 539 Q174 537 163 534 Q157 531 151 531 Q140 531 130 537.5 Q120 544 115 555 L97 604 Q94 610 94 617 Q94 628 99.5 637 Q105 646 115 650 Q138 661 162 665 Q186 669 201 669 Q218 669 234.5 663.5 Q251 658 267 652 Q283 646 299.5 640.5 Q316 635 334 635 Q340 635 350.5 637 Q361 639 372 642 Q378 645 384 645 Q395 645 405 638.5 Q415 632 420 621 L438 572 Q441 566 441 559 Q441 548 435.5 539 Q430 530 420 526 Q397 515 373 511 Q349 507 334 507 Z " />
<glyph glyph-name="adieresis" unicode="&#xe4;" horiz-adv-x="518" d="M206 143 Q206 126 219 121.5 Q232 117 248 117 Q257 117 269.5 120 Q282 123 294 128 L294 172 Q284 172 269 170.5 Q254 169 240 166 Q226 163 216 157.5 Q206 152 206 143 Z M195 304 Q187 289 178.5 285.5 Q170 282 156 282 L73 282 Q59 282 50 286.5 Q41 291 41 307 Q51 345 71.5 370.5 Q92 396 119 411.5 Q146 427 179 433.5 Q212 440 248 440 Q316 440 362 426.5 Q408 413 436 385.5 Q464 358 476 316 Q488 274 488 216 L488 46 Q488 26 474 13 Q460 0 440 0 L342 0 Q322 0 308 13 Q294 26 294 46 Q258 7 227.5 -3 Q197 -13 172 -13 Q148 -13 122 -4.5 Q96 4 74.5 21.5 Q53 39 39 66.5 Q25 94 25 133 Q25 180 51 205.5 Q77 231 117 243.5 Q157 256 204.5 258.5 Q252 261 294 261 Q292 291 280.5 306.5 Q269 322 241 322 Q224 322 213 319 Q202 316 195 304 Z M238 550 Q238 532 225 519.5 Q212 507 193 507 L117 507 Q98 507 85.5 519.5 Q73 532 73 550 L73 626 Q73 644 85.5 656.5 Q98 669 117 669 L193 669 Q212 669 225 656.5 Q238 644 238 626 L238 550 Z M452 550 Q452 532 439 519.5 Q426 507 407 507 L331 507 Q312 507 299.5 519.5 Q287 532 287 550 L287 626 Q287 644 299.5 656.5 Q312 669 331 669 L407 669 Q426 669 439 656.5 Q452 644 452 626 L452 550 Z " />
<glyph glyph-name="aring" unicode="&#xe5;" horiz-adv-x="518" d="M263 797 Q293 797 319 786 Q345 775 364.5 755.5 Q384 736 395.5 709.5 Q407 683 407 653 Q407 623 395.5 596 Q384 569 364.5 549.5 Q345 530 319 518.5 Q293 507 263 507 Q233 507 206 518.5 Q179 530 159.5 549.5 Q140 569 128.5 596 Q117 623 117 653 Q117 683 128.5 709.5 Q140 736 159.5 755.5 Q179 775 206 786 Q233 797 263 797 Z M263 616 Q277 616 287.5 626.5 Q298 637 298 652 Q298 667 287.5 677 Q277 687 263 687 Q248 687 237.5 677 Q227 667 227 652 Q227 637 237.5 626.5 Q248 616 263 616 Z M206 143 Q206 126 219 121.5 Q232 117 248 117 Q257 117 269.5 120 Q282 123 294 128 L294 172 Q284 172 269 170.5 Q254 169 240 166 Q226 163 216 157.5 Q206 152 206 143 Z M195 304 Q187 289 178.5 285.5 Q170 282 156 282 L73 282 Q59 282 50 286.5 Q41 291 41 307 Q51 345 71.5 370.5 Q92 396 119 411.5 Q146 427 179 433.5 Q212 440 248 440 Q316 440 362 426.5 Q408 413 436 385.5 Q464 358 476 316 Q488 274 488 216 L488 46 Q488 26 474 13 Q460 0 440 0 L342 0 Q322 0 308 13 Q294 26 294 46 Q258 7 227.5 -3 Q197 -13 172 -13 Q148 -13 122 -4.5 Q96 4 74.5 21.5 Q53 39 39 66.5 Q25 94 25 133 Q25 180 51 205.5 Q77 231 117 243.5 Q157 256 204.5 258.5 Q252 261 294 261 Q292 291 280.5 306.5 Q269 322 241 322 Q224 322 213 319 Q202 316 195 304 Z " />
<glyph glyph-name="ae" unicode="&#xe6;" horiz-adv-x="804" d="M546 320 Q526 320 509.5 310 Q493 300 486 265 L608 265 Q601 300 583.5 310 Q566 320 546 320 Z M206 143 Q206 126 219 121.5 Q232 117 248 117 Q257 117 269.5 120 Q282 123 294 128 L294 172 Q284 172 269 170.5 Q254 169 240 166 Q226 163 216 157.5 Q206 152 206 143 Z M494 180 Q494 151 509 134 Q524 117 550 117 Q562 117 574.5 119 Q587 121 596 128 Q603 134 611.5 136 Q620 138 631 138 L724 138 Q743 138 756 132.5 Q769 127 769 104 Q757 80 739 58.5 Q721 37 694.5 21 Q668 5 632.5 -4 Q597 -13 551 -13 Q504 -13 470 -1 Q436 11 406 44 Q388 24 363.5 12.5 Q339 1 315 -4.5 Q291 -10 271.5 -11.5 Q252 -13 244 -13 Q193 -13 152.5 -6.5 Q112 0 83.5 16.5 Q55 33 40 61.5 Q25 90 25 133 Q25 180 51 205.5 Q77 231 117 243.5 Q157 256 204.5 258.5 Q252 261 294 261 Q292 291 280.5 306.5 Q269 322 241 322 Q224 322 213 318.5 Q202 315 194 304 Q186 289 177.5 285.5 Q169 282 155 282 L72 282 Q58 282 49.5 287 Q41 292 41 308 Q61 382 116.5 411 Q172 440 248 440 Q353 440 408 406 Q434 422 468.5 431 Q503 440 548 440 Q615 440 660.5 420 Q706 400 733.5 368.5 Q761 337 772.5 299.5 Q784 262 784 226 Q784 206 769 193 Q754 180 734 180 L494 180 Z " />
<glyph glyph-name="ccedilla" unicode="&#xe7;" horiz-adv-x="525" d="M505 152 Q499 124 484.5 96.5 Q470 69 446.5 47 Q423 25 390 9.5 Q357 -6 313 -11 L313 -37 Q337 -38 357 -48 Q374 -57 387 -75.5 Q400 -94 400 -128 Q400 -154 388 -175 Q376 -196 356.5 -210.5 Q337 -225 311.5 -233 Q286 -241 259 -241 Q244 -241 226.5 -239 Q209 -237 197 -235 Q186 -235 177.5 -226 Q169 -217 169 -206 L169 -165 Q169 -154 177.5 -145 Q186 -136 197 -136 Q201 -137 206 -137 Q211 -137 215 -137 Q223 -137 232.5 -136 Q242 -135 250.5 -132.5 Q259 -130 264.5 -125.5 Q270 -121 270 -114 Q270 -100 253.5 -93 Q237 -86 220 -86 Q211 -86 205.5 -79.5 Q200 -73 200 -65 L211 -7 Q160 2 124.5 24.5 Q89 47 67 77 Q45 107 35 142.5 Q25 178 25 214 Q25 253 38 293.5 Q51 334 80.5 366.5 Q110 399 158 419.5 Q206 440 276 440 Q326 440 367 426 Q408 412 437 388.5 Q466 365 483.5 335.5 Q501 306 505 275 Q505 252 492 246.5 Q479 241 460 241 L369 241 Q350 241 341.5 248.5 Q333 256 325 278 Q317 298 304 307 Q291 316 276 316 Q241 316 225.5 289 Q210 262 210 214 Q210 166 225.5 139 Q241 112 276 112 Q312 112 325 149 Q333 171 341.5 178.5 Q350 186 369 186 L460 186 Q479 186 492 180.5 Q505 175 505 152 Z " />
<glyph glyph-name="egrave" unicode="&#xe8;" horiz-adv-x="519" d="M261 320 Q241 320 224.5 310 Q208 300 201 265 L323 265 Q316 300 298.5 310 Q281 320 261 320 Z M499 226 Q499 206 485 193 Q471 180 451 180 L209 180 Q209 151 224 134 Q239 117 265 117 Q277 117 289.5 119 Q302 121 311 128 Q318 134 326.5 136 Q335 138 346 138 L439 138 Q458 138 471 132.5 Q484 127 484 104 Q461 55 408.5 21 Q356 -13 266 -13 Q196 -13 150 9 Q104 31 76 64.5 Q48 98 36.5 138 Q25 178 25 214 Q25 252 36 292 Q47 332 74 365 Q101 398 147 419 Q193 440 263 440 Q329 440 373.5 421.5 Q418 403 445.5 372.5 Q473 342 485 303.5 Q497 265 499 226 Z M89 657 Q89 676 102 688.5 Q115 701 135 701 L231 701 Q251 701 261.5 687.5 Q272 674 281 657 L329 551 Q329 532 316 519.5 Q303 507 283 507 L217 507 Q203 507 194 514 Q185 521 177 532 L89 657 Z " />
<glyph glyph-name="eacute" unicode="&#xe9;" horiz-adv-x="519" d="M261 320 Q241 320 224.5 310 Q208 300 201 265 L323 265 Q316 300 298.5 310 Q281 320 261 320 Z M499 226 Q499 206 485 193 Q471 180 451 180 L209 180 Q209 151 224 134 Q239 117 265 117 Q277 117 289.5 119 Q302 121 311 128 Q318 134 326.5 136 Q335 138 346 138 L439 138 Q458 138 471 132.5 Q484 127 484 104 Q461 55 408.5 21 Q356 -13 266 -13 Q196 -13 150 9 Q104 31 76 64.5 Q48 98 36.5 138 Q25 178 25 214 Q25 252 36 292 Q47 332 74 365 Q101 398 147 419 Q193 440 263 440 Q329 440 373.5 421.5 Q418 403 445.5 372.5 Q473 342 485 303.5 Q497 265 499 226 Z M349 532 Q341 521 332 514 Q323 507 309 507 L243 507 Q223 507 210 519.5 Q197 532 197 551 L245 657 Q254 674 264.5 687.5 Q275 701 295 701 L391 701 Q411 701 424 688.5 Q437 676 437 657 L349 532 Z " />
<glyph glyph-name="ecircumflex" unicode="&#xea;" horiz-adv-x="519" d="M261 320 Q241 320 224.5 310 Q208 300 201 265 L323 265 Q316 300 298.5 310 Q281 320 261 320 Z M499 226 Q499 206 485 193 Q471 180 451 180 L209 180 Q209 151 224 134 Q239 117 265 117 Q277 117 289.5 119 Q302 121 311 128 Q318 134 326.5 136 Q335 138 346 138 L439 138 Q458 138 471 132.5 Q484 127 484 104 Q461 55 408.5 21 Q356 -13 266 -13 Q196 -13 150 9 Q104 31 76 64.5 Q48 98 36.5 138 Q25 178 25 214 Q25 252 36 292 Q47 332 74 365 Q101 398 147 419 Q193 440 263 440 Q329 440 373.5 421.5 Q418 403 445.5 372.5 Q473 342 485 303.5 Q497 265 499 226 Z M444 540 Q444 526 434 516.5 Q424 507 410 507 L330 507 Q316 507 306.5 516.5 Q297 526 291 540 L269 589 L247 540 Q241 526 231.5 516.5 Q222 507 208 507 L128 507 Q114 507 104 516.5 Q94 526 94 540 L184 701 Q191 714 199 724 Q207 734 221 734 L317 734 Q331 734 339 724 Q347 714 354 701 L444 540 Z " />
<glyph glyph-name="edieresis" unicode="&#xeb;" horiz-adv-x="519" d="M261 320 Q241 320 224.5 310 Q208 300 201 265 L323 265 Q316 300 298.5 310 Q281 320 261 320 Z M499 226 Q499 206 485 193 Q471 180 451 180 L209 180 Q209 151 224 134 Q239 117 265 117 Q277 117 289.5 119 Q302 121 311 128 Q318 134 326.5 136 Q335 138 346 138 L439 138 Q458 138 471 132.5 Q484 127 484 104 Q461 55 408.5 21 Q356 -13 266 -13 Q196 -13 150 9 Q104 31 76 64.5 Q48 98 36.5 138 Q25 178 25 214 Q25 252 36 292 Q47 332 74 365 Q101 398 147 419 Q193 440 263 440 Q329 440 373.5 421.5 Q418 403 445.5 372.5 Q473 342 485 303.5 Q497 265 499 226 Z M249 550 Q249 532 236 519.5 Q223 507 204 507 L128 507 Q109 507 96.5 519.5 Q84 532 84 550 L84 626 Q84 644 96.5 656.5 Q109 669 128 669 L204 669 Q223 669 236 656.5 Q249 644 249 626 L249 550 Z M463 550 Q463 532 450 519.5 Q437 507 418 507 L342 507 Q323 507 310.5 519.5 Q298 532 298 550 L298 626 Q298 644 310.5 656.5 Q323 669 342 669 L418 669 Q437 669 450 656.5 Q463 644 463 626 L463 550 Z " />
<glyph glyph-name="igrave" unicode="&#xec;" horiz-adv-x="284" d="M239 46 Q239 26 225 13 Q211 0 191 0 L93 0 Q73 0 59 13 Q45 26 45 46 L45 379 Q45 399 59 412 Q73 425 93 425 L191 425 Q211 425 225 412 Q239 399 239 379 L239 46 Z M-41 657 Q-41 676 -28 688.5 Q-15 701 5 701 L101 701 Q121 701 131.5 687.5 Q142 674 151 657 L199 551 Q199 532 186 519.5 Q173 507 153 507 L87 507 Q73 507 64 514 Q55 521 47 532 L-41 657 Z " />
<glyph glyph-name="iacute" unicode="&#xed;" horiz-adv-x="284" d="M239 46 Q239 26 225 13 Q211 0 191 0 L93 0 Q73 0 59 13 Q45 26 45 46 L45 379 Q45 399 59 412 Q73 425 93 425 L191 425 Q211 425 225 412 Q239 399 239 379 L239 46 Z M237 532 Q229 521 220 514 Q211 507 197 507 L131 507 Q111 507 98 519.5 Q85 532 85 551 L133 657 Q142 674 152.5 687.5 Q163 701 183 701 L279 701 Q299 701 312 688.5 Q325 676 325 657 L237 532 Z " />
<glyph glyph-name="icircumflex" unicode="&#xee;" horiz-adv-x="284" d="M239 46 Q239 26 225 13 Q211 0 191 0 L93 0 Q73 0 59 13 Q45 26 45 46 L45 379 Q45 399 59 412 Q73 425 93 425 L191 425 Q211 425 225 412 Q239 399 239 379 L239 46 Z M318 540 Q318 526 308 516.5 Q298 507 284 507 L204 507 Q190 507 180.5 516.5 Q171 526 165 540 L143 589 L121 540 Q115 526 105.5 516.5 Q96 507 82 507 L2 507 Q-12 507 -22 516.5 Q-32 526 -32 540 L58 701 Q65 714 73 724 Q81 734 95 734 L191 734 Q205 734 213 724 Q221 714 228 701 L318 540 Z " />
<glyph glyph-name="idieresis" unicode="&#xef;" horiz-adv-x="284" d="M239 46 Q239 26 225 13 Q211 0 191 0 L93 0 Q73 0 59 13 Q45 26 45 46 L45 379 Q45 399 59 412 Q73 425 93 425 L191 425 Q211 425 225 412 Q239 399 239 379 L239 46 Z M118 550 Q118 532 105 519.5 Q92 507 73 507 L-3 507 Q-22 507 -34.5 519.5 Q-47 532 -47 550 L-47 626 Q-47 644 -34.5 656.5 Q-22 669 -3 669 L73 669 Q92 669 105 656.5 Q118 644 118 626 L118 550 Z M332 550 Q332 532 319 519.5 Q306 507 287 507 L211 507 Q192 507 179.5 519.5 Q167 532 167 550 L167 626 Q167 644 179.5 656.5 Q192 669 211 669 L287 669 Q306 669 319 656.5 Q332 644 332 626 L332 550 Z " />
<glyph glyph-name="eth" unicode="&#xf0;" horiz-adv-x="556" d="M276 235 Q241 235 225.5 220.5 Q210 206 210 174 Q210 135 227.5 123.5 Q245 112 274 112 Q286 112 298.5 114 Q311 116 321 122 Q331 128 337 139.5 Q343 151 343 169 Q343 208 323.5 221.5 Q304 235 282 235 L276 235 Z M415 582 Q474 534 502.5 462 Q531 390 531 301 L531 276 Q531 187 513.5 131 Q496 75 463 43 Q430 11 382.5 -1 Q335 -13 275 -13 Q205 -13 157.5 1.5 Q110 16 80.5 41 Q51 66 38 101 Q25 136 25 176 Q25 215 35.5 251 Q46 287 71 314.5 Q96 342 138 358.5 Q180 375 244 375 Q249 375 265 373 Q281 371 300.5 366 Q320 361 338 354 Q356 347 366 336 Q366 377 349 411.5 Q332 446 305 472 L248 415 Q239 406 226 406 Q219 406 212.5 408.5 Q206 411 201 416 L167 450 Q157 459 157 474 Q157 487 166 496 L203 533 Q190 537 174.5 539 Q159 541 147 541 Q132 541 121.5 551.5 Q111 562 111 578 L111 627 Q111 643 121.5 653.5 Q132 664 147 664 Q194 664 234 657.5 Q274 651 309 640 L352 683 Q361 692 374 692 Q390 692 399 681 L433 648 Q443 636 443 623 Q443 610 434 601 L415 582 Z " />
<glyph glyph-name="ntilde" unicode="&#xf1;" horiz-adv-x="577" d="M239 376 Q270 414 307.5 427 Q345 440 377 440 Q455 440 498.5 384 Q542 328 542 211 L542 46 Q542 26 528 13 Q514 0 494 0 L396 0 Q376 0 362 13 Q348 26 348 46 L348 259 Q348 282 331 296 Q314 310 294 310 Q274 310 256.5 296 Q239 282 239 262 L239 46 Q239 26 225 13 Q211 0 191 0 L93 0 Q73 0 59 13 Q45 26 45 46 L45 379 Q45 399 59 412 Q73 425 93 425 L191 425 Q211 425 225 411.5 Q239 398 239 376 Z M353 507 Q336 507 319.5 512.5 Q303 518 287 524 Q271 530 254.5 535.5 Q238 541 220 541 Q214 541 203.5 539 Q193 537 182 534 Q176 531 170 531 Q159 531 149 537.5 Q139 544 134 555 L116 604 Q113 610 113 617 Q113 628 118.5 637 Q124 646 134 650 Q157 661 181 665 Q205 669 220 669 Q237 669 253.5 663.5 Q270 658 286 652 Q302 646 318.5 640.5 Q335 635 353 635 Q359 635 369.5 637 Q380 639 391 642 Q397 645 403 645 Q414 645 424 638.5 Q434 632 439 621 L457 572 Q460 566 460 559 Q460 548 454.5 539 Q449 530 439 526 Q416 515 392 511 Q368 507 353 507 Z " />
<glyph glyph-name="ograve" unicode="&#xf2;" horiz-adv-x="538" d="M269 117 Q294 117 311 138.5 Q328 160 328 214 Q328 262 312 286 Q296 310 269 310 Q242 310 226 286 Q210 262 210 214 Q210 161 227 139 Q244 117 269 117 Z M25 214 Q25 253 37 293.5 Q49 334 77.5 366.5 Q106 399 152.5 419.5 Q199 440 269 440 Q339 440 385.5 419.5 Q432 399 460.5 366.5 Q489 334 501 293.5 Q513 253 513 214 Q513 174 501 133 Q489 92 460.5 60 Q432 28 385.5 7.5 Q339 -13 269 -13 Q199 -13 152.5 7.5 Q106 28 77.5 60 Q49 92 37 133 Q25 174 25 214 Z M98 657 Q98 676 111 688.5 Q124 701 144 701 L240 701 Q260 701 270.5 687.5 Q281 674 290 657 L338 551 Q338 532 325 519.5 Q312 507 292 507 L226 507 Q212 507 203 514 Q194 521 186 532 L98 657 Z " />
<glyph glyph-name="oacute" unicode="&#xf3;" horiz-adv-x="538" d="M269 117 Q294 117 311 138.5 Q328 160 328 214 Q328 262 312 286 Q296 310 269 310 Q242 310 226 286 Q210 262 210 214 Q210 161 227 139 Q244 117 269 117 Z M25 214 Q25 253 37 293.5 Q49 334 77.5 366.5 Q106 399 152.5 419.5 Q199 440 269 440 Q339 440 385.5 419.5 Q432 399 460.5 366.5 Q489 334 501 293.5 Q513 253 513 214 Q513 174 501 133 Q489 92 460.5 60 Q432 28 385.5 7.5 Q339 -13 269 -13 Q199 -13 152.5 7.5 Q106 28 77.5 60 Q49 92 37 133 Q25 174 25 214 Z M385 532 Q377 521 368 514 Q359 507 345 507 L279 507 Q259 507 246 519.5 Q233 532 233 551 L281 657 Q290 674 300.5 687.5 Q311 701 331 701 L427 701 Q447 701 460 688.5 Q473 676 473 657 L385 532 Z " />
<glyph glyph-name="ocircumflex" unicode="&#xf4;" horiz-adv-x="538" d="M269 117 Q294 117 311 138.5 Q328 160 328 214 Q328 262 312 286 Q296 310 269 310 Q242 310 226 286 Q210 262 210 214 Q210 161 227 139 Q244 117 269 117 Z M25 214 Q25 253 37 293.5 Q49 334 77.5 366.5 Q106 399 152.5 419.5 Q199 440 269 440 Q339 440 385.5 419.5 Q432 399 460.5 366.5 Q489 334 501 293.5 Q513 253 513 214 Q513 174 501 133 Q489 92 460.5 60 Q432 28 385.5 7.5 Q339 -13 269 -13 Q199 -13 152.5 7.5 Q106 28 77.5 60 Q49 92 37 133 Q25 174 25 214 Z M444 540 Q444 526 434 516.5 Q424 507 410 507 L330 507 Q316 507 306.5 516.5 Q297 526 291 540 L269 589 L247 540 Q241 526 231.5 516.5 Q222 507 208 507 L128 507 Q114 507 104 516.5 Q94 526 94 540 L184 701 Q191 714 199 724 Q207 734 221 734 L317 734 Q331 734 339 724 Q347 714 354 701 L444 540 Z " />
<glyph glyph-name="otilde" unicode="&#xf5;" horiz-adv-x="538" d="M269 117 Q294 117 311 138.5 Q328 160 328 214 Q328 262 312 286 Q296 310 269 310 Q242 310 226 286 Q210 262 210 214 Q210 161 227 139 Q244 117 269 117 Z M25 214 Q25 253 37 293.5 Q49 334 77.5 366.5 Q106 399 152.5 419.5 Q199 440 269 440 Q339 440 385.5 419.5 Q432 399 460.5 366.5 Q489 334 501 293.5 Q513 253 513 214 Q513 174 501 133 Q489 92 460.5 60 Q432 28 385.5 7.5 Q339 -13 269 -13 Q199 -13 152.5 7.5 Q106 28 77.5 60 Q49 92 37 133 Q25 174 25 214 Z M334 507 Q317 507 300.5 512.5 Q284 518 268 524 Q252 530 235.5 535.5 Q219 541 201 541 Q195 541 184.5 539 Q174 537 163 534 Q157 531 151 531 Q140 531 130 537.5 Q120 544 115 555 L97 604 Q94 610 94 617 Q94 628 99.5 637 Q105 646 115 650 Q138 661 162 665 Q186 669 201 669 Q218 669 234.5 663.5 Q251 658 267 652 Q283 646 299.5 640.5 Q316 635 334 635 Q340 635 350.5 637 Q361 639 372 642 Q378 645 384 645 Q395 645 405 638.5 Q415 632 420 621 L438 572 Q441 566 441 559 Q441 548 435.5 539 Q430 530 420 526 Q397 515 373 511 Q349 507 334 507 Z " />
<glyph glyph-name="odieresis" unicode="&#xf6;" horiz-adv-x="538" d="M269 117 Q294 117 311 138.5 Q328 160 328 214 Q328 262 312 286 Q296 310 269 310 Q242 310 226 286 Q210 262 210 214 Q210 161 227 139 Q244 117 269 117 Z M25 214 Q25 253 37 293.5 Q49 334 77.5 366.5 Q106 399 152.5 419.5 Q199 440 269 440 Q339 440 385.5 419.5 Q432 399 460.5 366.5 Q489 334 501 293.5 Q513 253 513 214 Q513 174 501 133 Q489 92 460.5 60 Q432 28 385.5 7.5 Q339 -13 269 -13 Q199 -13 152.5 7.5 Q106 28 77.5 60 Q49 92 37 133 Q25 174 25 214 Z M245 550 Q245 532 232 519.5 Q219 507 200 507 L124 507 Q105 507 92.5 519.5 Q80 532 80 550 L80 626 Q80 644 92.5 656.5 Q105 669 124 669 L200 669 Q219 669 232 656.5 Q245 644 245 626 L245 550 Z M459 550 Q459 532 446 519.5 Q433 507 414 507 L338 507 Q319 507 306.5 519.5 Q294 532 294 550 L294 626 Q294 644 306.5 656.5 Q319 669 338 669 L414 669 Q433 669 446 656.5 Q459 644 459 626 L459 550 Z " />
<glyph glyph-name="divide" unicode="&#xf7;" horiz-adv-x="439" d="M87 139 Q72 139 61 150.5 Q50 162 50 178 L50 235 Q50 251 61 262.5 Q72 274 87 274 L352 274 Q367 274 378 262.5 Q389 251 389 235 L389 178 Q389 162 378 150.5 Q367 139 352 139 L87 139 Z M278 18 Q278 4 269 -4.5 Q260 -13 246 -13 L191 -13 Q177 -13 168.5 -4.5 Q160 4 160 18 L160 71 Q160 85 168.5 93.5 Q177 102 191 102 L246 102 Q260 102 269 93.5 Q278 85 278 71 L278 18 Z M278 342 Q278 328 269 319.5 Q260 311 246 311 L191 311 Q177 311 168.5 319.5 Q160 328 160 342 L160 395 Q160 409 168.5 417.5 Q177 426 191 426 L246 426 Q260 426 269 417.5 Q278 409 278 395 L278 342 Z " />
<glyph glyph-name="oslash" unicode="&#xf8;" horiz-adv-x="538" d="M267 117 Q293 117 310.5 138.5 Q328 160 328 214 Q328 229 326 241.5 Q324 254 321 265 L267 117 Z M210 214 Q210 200 211.5 188.5 Q213 177 215 167 L266 310 Q240 308 225 284 Q210 260 210 214 Z M206 -51 Q203 -59 198 -65.5 Q193 -72 184 -72 L157 -72 Q148 -72 141.5 -66 Q135 -60 135 -51 L156 6 Q119 20 94 42.5 Q69 65 53.5 93 Q38 121 31.5 152 Q25 183 25 214 Q25 253 37 293.5 Q49 334 77.5 366.5 Q106 399 152.5 419.5 Q199 440 269 440 Q292 440 313 437 L331 486 Q334 494 339 500.5 Q344 507 353 507 L380 507 Q389 507 395.5 501 Q402 495 402 486 L378 422 Q416 408 441.5 385 Q467 362 483 334 Q499 306 506 275 Q513 244 513 214 Q513 174 501 133 Q489 92 460.5 60 Q432 28 385.5 7.5 Q339 -13 269 -13 Q244 -13 221 -10 L206 -51 Z " />
<glyph glyph-name="ugrave" unicode="&#xf9;" horiz-adv-x="567" d="M328 46 Q294 10 260 -1.5 Q226 -13 204 -13 Q122 -13 78.5 40 Q35 93 35 184 L35 379 Q35 399 49 412 Q63 425 83 425 L181 425 Q201 425 215 412 Q229 399 229 379 L229 166 Q229 145 243.5 131 Q258 117 278 117 Q301 117 314.5 131 Q328 145 328 166 L328 379 Q328 399 342 412 Q356 425 376 425 L474 425 Q494 425 508 412 Q522 399 522 379 L522 46 Q522 26 508 13 Q494 0 474 0 L376 0 Q356 0 342 12 Q328 24 328 46 Z M100 657 Q100 676 113 688.5 Q126 701 146 701 L242 701 Q262 701 272.5 687.5 Q283 674 292 657 L340 551 Q340 532 327 519.5 Q314 507 294 507 L228 507 Q214 507 205 514 Q196 521 188 532 L100 657 Z " />
<glyph glyph-name="uacute" unicode="&#xfa;" horiz-adv-x="567" d="M328 46 Q294 10 260 -1.5 Q226 -13 204 -13 Q122 -13 78.5 40 Q35 93 35 184 L35 379 Q35 399 49 412 Q63 425 83 425 L181 425 Q201 425 215 412 Q229 399 229 379 L229 166 Q229 145 243.5 131 Q258 117 278 117 Q301 117 314.5 131 Q328 145 328 166 L328 379 Q328 399 342 412 Q356 425 376 425 L474 425 Q494 425 508 412 Q522 399 522 379 L522 46 Q522 26 508 13 Q494 0 474 0 L376 0 Q356 0 342 12 Q328 24 328 46 Z M364 532 Q356 521 347 514 Q338 507 324 507 L258 507 Q238 507 225 519.5 Q212 532 212 551 L260 657 Q269 674 279.5 687.5 Q290 701 310 701 L406 701 Q426 701 439 688.5 Q452 676 452 657 L364 532 Z " />
<glyph glyph-name="ucircumflex" unicode="&#xfb;" horiz-adv-x="567" d="M328 46 Q294 10 260 -1.5 Q226 -13 204 -13 Q122 -13 78.5 40 Q35 93 35 184 L35 379 Q35 399 49 412 Q63 425 83 425 L181 425 Q201 425 215 412 Q229 399 229 379 L229 166 Q229 145 243.5 131 Q258 117 278 117 Q301 117 314.5 131 Q328 145 328 166 L328 379 Q328 399 342 412 Q356 425 376 425 L474 425 Q494 425 508 412 Q522 399 522 379 L522 46 Q522 26 508 13 Q494 0 474 0 L376 0 Q356 0 342 12 Q328 24 328 46 Z M452 540 Q452 526 442 516.5 Q432 507 418 507 L338 507 Q324 507 314.5 516.5 Q305 526 299 540 L277 589 L255 540 Q249 526 239.5 516.5 Q230 507 216 507 L136 507 Q122 507 112 516.5 Q102 526 102 540 L192 701 Q199 714 207 724 Q215 734 229 734 L325 734 Q339 734 347 724 Q355 714 362 701 L452 540 Z " />
<glyph glyph-name="udieresis" unicode="&#xfc;" horiz-adv-x="567" d="M328 46 Q294 10 260 -1.5 Q226 -13 204 -13 Q122 -13 78.5 40 Q35 93 35 184 L35 379 Q35 399 49 412 Q63 425 83 425 L181 425 Q201 425 215 412 Q229 399 229 379 L229 166 Q229 145 243.5 131 Q258 117 278 117 Q301 117 314.5 131 Q328 145 328 166 L328 379 Q328 399 342 412 Q356 425 376 425 L474 425 Q494 425 508 412 Q522 399 522 379 L522 46 Q522 26 508 13 Q494 0 474 0 L376 0 Q356 0 342 12 Q328 24 328 46 Z M252 550 Q252 532 239 519.5 Q226 507 207 507 L131 507 Q112 507 99.5 519.5 Q87 532 87 550 L87 626 Q87 644 99.5 656.5 Q112 669 131 669 L207 669 Q226 669 239 656.5 Q252 644 252 626 L252 550 Z M466 550 Q466 532 453 519.5 Q440 507 421 507 L345 507 Q326 507 313.5 519.5 Q301 532 301 550 L301 626 Q301 644 313.5 656.5 Q326 669 345 669 L421 669 Q440 669 453 656.5 Q466 644 466 626 L466 550 Z " />
<glyph glyph-name="yacute" unicode="&#xfd;" horiz-adv-x="499" d="M63 -40 Q97 -40 110 -29.5 Q123 -19 123 13 Q123 18 121 26.5 Q119 35 117 40 L6 379 Q6 399 20 412 Q34 425 54 425 L147 425 Q167 425 178.5 411.5 Q190 398 195 379 L250 129 L304 379 Q309 398 321 411.5 Q333 425 353 425 L446 425 Q466 425 480 412 Q494 399 494 379 L370 -13 Q350 -77 314.5 -111 Q279 -145 244 -161 Q203 -180 158 -183 Q119 -183 89.5 -180 Q60 -177 40 -173 Q5 -165 5 -134 L5 -78 Q5 -62 17 -51 Q29 -40 43 -40 L63 -40 Z M350 532 Q342 521 333 514 Q324 507 310 507 L244 507 Q224 507 211 519.5 Q198 532 198 551 L246 657 Q255 674 265.5 687.5 Q276 701 296 701 L392 701 Q412 701 425 688.5 Q438 676 438 657 L350 532 Z " />
<glyph glyph-name="thorn" unicode="&#xfe;" horiz-adv-x="567" d="M45 539 Q45 559 59 572 Q73 585 93 585 L191 585 Q211 585 225 572 Q239 559 239 539 L239 376 Q263 407 294 423.5 Q325 440 357 440 Q396 440 429.5 421.5 Q463 403 488 372 Q513 341 527.5 300 Q542 259 542 214 Q542 169 527.5 127.5 Q513 86 488 55 Q463 24 429.5 5.5 Q396 -13 357 -13 Q325 -13 298 0.5 Q271 14 239 46 L239 -123 Q239 -143 225 -156 Q211 -169 191 -169 L93 -169 Q73 -169 59 -156 Q45 -143 45 -123 L45 539 Z M348 261 Q348 282 331 296 Q314 310 294 310 Q271 310 255 296 Q239 282 239 261 L239 165 Q239 145 256.5 131 Q274 117 294 117 Q314 117 331 131 Q348 145 348 168 L348 261 Z " />
<glyph glyph-name="ydieresis" unicode="&#xff;" horiz-adv-x="499" d="M63 -40 Q97 -40 110 -29.5 Q123 -19 123 13 Q123 18 121 26.5 Q119 35 117 40 L6 379 Q6 399 20 412 Q34 425 54 425 L147 425 Q167 425 178.5 411.5 Q190 398 195 379 L250 129 L304 379 Q309 398 321 411.5 Q333 425 353 425 L446 425 Q466 425 480 412 Q494 399 494 379 L370 -13 Q350 -77 314.5 -111 Q279 -145 244 -161 Q203 -180 158 -183 Q119 -183 89.5 -180 Q60 -177 40 -173 Q5 -165 5 -134 L5 -78 Q5 -62 17 -51 Q29 -40 43 -40 L63 -40 Z M232 550 Q232 532 219 519.5 Q206 507 187 507 L111 507 Q92 507 79.5 519.5 Q67 532 67 550 L67 626 Q67 644 79.5 656.5 Q92 669 111 669 L187 669 Q206 669 219 656.5 Q232 644 232 626 L232 550 Z M446 550 Q446 532 433 519.5 Q420 507 401 507 L325 507 Q306 507 293.5 519.5 Q281 532 281 550 L281 626 Q281 644 293.5 656.5 Q306 669 325 669 L401 669 Q420 669 433 656.5 Q446 644 446 626 L446 550 Z " />
<glyph glyph-name="Amacron" unicode="&#x100;" horiz-adv-x="607" d="M387 585 Q407 585 420.5 571.5 Q434 558 440 539 L602 46 Q602 26 588 13 Q574 0 554 0 L450 0 Q430 0 418.5 13.5 Q407 27 402 46 L382 125 L226 125 L205 46 Q200 27 188.5 13.5 Q177 0 157 0 L53 0 Q33 0 19 13 Q5 26 5 46 L165 539 Q171 558 184.5 571.5 Q198 585 218 585 L387 585 Z M258 250 L350 250 L304 426 L258 250 Z M147 652 Q130 652 118 665 Q106 678 106 695 L106 757 Q106 774 118 787 Q130 800 147 800 L459 800 Q476 800 488 787 Q500 774 500 757 L500 695 Q500 678 488 665 Q476 652 459 652 L147 652 Z " />
<glyph glyph-name="amacron" unicode="&#x101;" horiz-adv-x="518" d="M206 143 Q206 126 219 121.5 Q232 117 248 117 Q257 117 269.5 120 Q282 123 294 128 L294 172 Q284 172 269 170.5 Q254 169 240 166 Q226 163 216 157.5 Q206 152 206 143 Z M195 304 Q187 289 178.5 285.5 Q170 282 156 282 L73 282 Q59 282 50 286.5 Q41 291 41 307 Q51 345 71.5 370.5 Q92 396 119 411.5 Q146 427 179 433.5 Q212 440 248 440 Q316 440 362 426.5 Q408 413 436 385.5 Q464 358 476 316 Q488 274 488 216 L488 46 Q488 26 474 13 Q460 0 440 0 L342 0 Q322 0 308 13 Q294 26 294 46 Q258 7 227.5 -3 Q197 -13 172 -13 Q148 -13 122 -4.5 Q96 4 74.5 21.5 Q53 39 39 66.5 Q25 94 25 133 Q25 180 51 205.5 Q77 231 117 243.5 Q157 256 204.5 258.5 Q252 261 294 261 Q292 291 280.5 306.5 Q269 322 241 322 Q224 322 213 319 Q202 316 195 304 Z M119 507 Q102 507 90 520 Q78 533 78 550 L78 612 Q78 629 90 642 Q102 655 119 655 L431 655 Q448 655 460 642 Q472 629 472 612 L472 550 Q472 533 460 520 Q448 507 431 507 L119 507 Z " />
<glyph glyph-name="Abreve" unicode="&#x102;" horiz-adv-x="607" d="M303 652 Q242 652 194.5 683 Q147 714 136 781 Q136 797 147 807.5 Q158 818 175 818 L224 818 Q236 818 245 812 Q254 806 259 797 Q266 785 279 780.5 Q292 776 303 776 Q314 776 327 780.5 Q340 785 347 797 Q352 806 361 812 Q370 818 382 818 L431 818 Q448 818 459 807.5 Q470 797 470 781 Q459 714 412 683 Q365 652 303 652 Z M387 585 Q407 585 420.5 571.5 Q434 558 440 539 L602 46 Q602 26 588 13 Q574 0 554 0 L450 0 Q430 0 418.5 13.5 Q407 27 402 46 L382 125 L226 125 L205 46 Q200 27 188.5 13.5 Q177 0 157 0 L53 0 Q33 0 19 13 Q5 26 5 46 L165 539 Q171 558 184.5 571.5 Q198 585 218 585 L387 585 Z M258 250 L350 250 L304 426 L258 250 Z " />
<glyph glyph-name="abreve" unicode="&#x103;" horiz-adv-x="518" d="M206 143 Q206 126 219 121.5 Q232 117 248 117 Q257 117 269.5 120 Q282 123 294 128 L294 172 Q284 172 269 170.5 Q254 169 240 166 Q226 163 216 157.5 Q206 152 206 143 Z M195 304 Q187 289 178.5 285.5 Q170 282 156 282 L73 282 Q59 282 50 286.5 Q41 291 41 307 Q51 345 71.5 370.5 Q92 396 119 411.5 Q146 427 179 433.5 Q212 440 248 440 Q316 440 362 426.5 Q408 413 436 385.5 Q464 358 476 316 Q488 274 488 216 L488 46 Q488 26 474 13 Q460 0 440 0 L342 0 Q322 0 308 13 Q294 26 294 46 Q258 7 227.5 -3 Q197 -13 172 -13 Q148 -13 122 -4.5 Q96 4 74.5 21.5 Q53 39 39 66.5 Q25 94 25 133 Q25 180 51 205.5 Q77 231 117 243.5 Q157 256 204.5 258.5 Q252 261 294 261 Q292 291 280.5 306.5 Q269 322 241 322 Q224 322 213 319 Q202 316 195 304 Z M279 507 Q218 507 170.5 538 Q123 569 112 636 Q112 652 123 662.5 Q134 673 151 673 L200 673 Q212 673 221 667 Q230 661 235 652 Q242 640 255 635.5 Q268 631 279 631 Q290 631 303 635.5 Q316 640 323 652 Q328 661 337 667 Q346 673 358 673 L407 673 Q424 673 435 662.5 Q446 652 446 636 Q435 569 388 538 Q341 507 279 507 Z " />
<glyph glyph-name="Aogonek" unicode="&#x104;" horiz-adv-x="619" d="M258 250 L350 250 L304 426 L258 250 Z M442 0 Q426 3 416 16 Q406 29 402 46 L382 125 L226 125 L205 46 Q200 27 188.5 13.5 Q177 0 157 0 L53 0 Q33 0 19 13 Q5 26 5 46 L165 539 Q171 558 184.5 571.5 Q198 585 218 585 L387 585 Q407 585 420.5 571.5 Q434 558 440 539 L602 46 Q602 29 591 16.5 Q580 4 564 0 Q547 -18 543 -35 Q539 -52 539 -57 Q539 -64 547.5 -75 Q556 -86 572 -86 L583 -86 Q594 -86 604 -95.5 Q614 -105 614 -117 L614 -162 Q614 -173 602.5 -180.5 Q591 -188 580 -188 Q572 -189 564.5 -189 Q557 -189 552 -189 Q526 -189 500.5 -183.5 Q475 -178 454.5 -165 Q434 -152 421.5 -132.5 Q409 -113 409 -84 Q409 -61 419.5 -38 Q430 -15 442 0 Z " />
<glyph glyph-name="aogonek" unicode="&#x105;" horiz-adv-x="518" d="M206 143 Q206 126 219 121.5 Q232 117 248 117 Q257 117 269.5 120 Q282 123 294 128 L294 172 Q284 172 269 170.5 Q254 169 240 166 Q226 163 216 157.5 Q206 152 206 143 Z M446 0 Q434 -10 428.5 -25 Q423 -40 423 -45 Q423 -52 429.5 -63 Q436 -74 457 -74 Q468 -74 478 -83.5 Q488 -93 488 -105 L488 -150 Q488 -161 476.5 -168.5 Q465 -176 454 -176 Q446 -177 438.5 -177 Q431 -177 426 -177 Q400 -177 376 -171.5 Q352 -166 333.5 -153 Q315 -140 304 -120.5 Q293 -101 293 -72 Q293 -49 309.5 -31 Q326 -13 342 0 Q322 0 308 13 Q294 26 294 46 Q258 7 227.5 -3 Q197 -13 172 -13 Q148 -13 122 -4.5 Q96 4 74.5 21.5 Q53 39 39 66.5 Q25 94 25 133 Q25 180 51 205.5 Q77 231 117 243.5 Q157 256 204.5 258.5 Q252 261 294 261 Q292 291 280.5 306.5 Q269 322 241 322 Q224 322 213 319 Q202 316 195 304 Q187 289 178.5 285.5 Q170 282 156 282 L73 282 Q59 282 50 286.5 Q41 291 41 307 Q51 345 71.5 370.5 Q92 396 119 411.5 Q146 427 179 433.5 Q212 440 248 440 Q316 440 362 426.5 Q408 413 436 385.5 Q464 358 476 316 Q488 274 488 216 L488 46 Q488 26 477 13 Q466 0 446 0 Z " />
<glyph glyph-name="Cacute" unicode="&#x106;" horiz-adv-x="630" d="M605 166 Q586 85 514 36 Q442 -13 323 -13 Q239 -13 182 16.5 Q125 46 90 91 Q55 136 40 188.5 Q25 241 25 287 Q25 336 40 391 Q55 446 90 492 Q125 538 182 568.5 Q239 599 323 599 Q382 599 430 585.5 Q478 572 514 547.5 Q550 523 573 489.5 Q596 456 605 415 Q605 392 592 386 Q579 380 560 380 L440 380 Q421 380 413 388 Q405 396 395 417 Q386 436 364.5 448.5 Q343 461 323 461 Q298 461 278.5 447 Q259 433 245.5 409 Q232 385 225.5 353.5 Q219 322 219 287 Q219 255 225.5 225.5 Q232 196 245.5 173.5 Q259 151 278.5 138 Q298 125 323 125 Q343 125 363 134.5 Q383 144 395 164 Q405 185 412.5 193 Q420 201 439 201 L559 201 Q578 201 591.5 195 Q605 189 605 166 Z M423 677 Q415 666 406 659 Q397 652 383 652 L317 652 Q297 652 284 664.5 Q271 677 271 696 L319 802 Q328 819 338.5 832.5 Q349 846 369 846 L465 846 Q485 846 498 833.5 Q511 821 511 802 L423 677 Z " />
<glyph glyph-name="cacute" unicode="&#x107;" horiz-adv-x="525" d="M505 152 Q499 121 482 91.5 Q465 62 437 38.5 Q409 15 369 1 Q329 -13 276 -13 Q206 -13 158 7.5 Q110 28 80.5 60 Q51 92 38 133 Q25 174 25 214 Q25 253 38 293.5 Q51 334 80.5 366.5 Q110 399 158 419.5 Q206 440 276 440 Q326 440 367 426 Q408 412 437 388.5 Q466 365 483.5 335.5 Q501 306 505 275 Q505 252 492 246.5 Q479 241 460 241 L369 241 Q350 241 341.5 248.5 Q333 256 325 278 Q317 298 304 307 Q291 316 276 316 Q241 316 225.5 289 Q210 262 210 214 Q210 166 225.5 139 Q241 112 276 112 Q312 112 325 149 Q333 171 341.5 178.5 Q350 186 369 186 L460 186 Q479 186 492 180.5 Q505 175 505 152 Z M340 532 Q332 521 323 514 Q314 507 300 507 L234 507 Q214 507 201 519.5 Q188 532 188 551 L236 657 Q245 674 255.5 687.5 Q266 701 286 701 L382 701 Q402 701 415 688.5 Q428 676 428 657 L340 532 Z " />
<glyph glyph-name="Ccircumflex" unicode="&#x108;" horiz-adv-x="630" d="M605 166 Q586 85 514 36 Q442 -13 323 -13 Q239 -13 182 16.5 Q125 46 90 91 Q55 136 40 188.5 Q25 241 25 287 Q25 336 40 391 Q55 446 90 492 Q125 538 182 568.5 Q239 599 323 599 Q382 599 430 585.5 Q478 572 514 547.5 Q550 523 573 489.5 Q596 456 605 415 Q605 392 592 386 Q579 380 560 380 L440 380 Q421 380 413 388 Q405 396 395 417 Q386 436 364.5 448.5 Q343 461 323 461 Q298 461 278.5 447 Q259 433 245.5 409 Q232 385 225.5 353.5 Q219 322 219 287 Q219 255 225.5 225.5 Q232 196 245.5 173.5 Q259 151 278.5 138 Q298 125 323 125 Q343 125 363 134.5 Q383 144 395 164 Q405 185 412.5 193 Q420 201 439 201 L559 201 Q578 201 591.5 195 Q605 189 605 166 Z M500 685 Q500 671 490 661.5 Q480 652 466 652 L386 652 Q372 652 362.5 661.5 Q353 671 347 685 L325 734 L303 685 Q297 671 287.5 661.5 Q278 652 264 652 L184 652 Q170 652 160 661.5 Q150 671 150 685 L240 846 Q247 859 255 869 Q263 879 277 879 L373 879 Q387 879 395 869 Q403 859 410 846 L500 685 Z " />
<glyph glyph-name="ccircumflex" unicode="&#x109;" horiz-adv-x="525" d="M505 152 Q499 121 482 91.5 Q465 62 437 38.5 Q409 15 369 1 Q329 -13 276 -13 Q206 -13 158 7.5 Q110 28 80.5 60 Q51 92 38 133 Q25 174 25 214 Q25 253 38 293.5 Q51 334 80.5 366.5 Q110 399 158 419.5 Q206 440 276 440 Q326 440 367 426 Q408 412 437 388.5 Q466 365 483.5 335.5 Q501 306 505 275 Q505 252 492 246.5 Q479 241 460 241 L369 241 Q350 241 341.5 248.5 Q333 256 325 278 Q317 298 304 307 Q291 316 276 316 Q241 316 225.5 289 Q210 262 210 214 Q210 166 225.5 139 Q241 112 276 112 Q312 112 325 149 Q333 171 341.5 178.5 Q350 186 369 186 L460 186 Q479 186 492 180.5 Q505 175 505 152 Z M451 540 Q451 526 441 516.5 Q431 507 417 507 L337 507 Q323 507 313.5 516.5 Q304 526 298 540 L276 589 L254 540 Q248 526 238.5 516.5 Q229 507 215 507 L135 507 Q121 507 111 516.5 Q101 526 101 540 L191 701 Q198 714 206 724 Q214 734 228 734 L324 734 Q338 734 346 724 Q354 714 361 701 L451 540 Z " />
<glyph glyph-name="Cdotaccent" unicode="&#x10a;" horiz-adv-x="630" d="M605 166 Q586 85 514 36 Q442 -13 323 -13 Q239 -13 182 16.5 Q125 46 90 91 Q55 136 40 188.5 Q25 241 25 287 Q25 336 40 391 Q55 446 90 492 Q125 538 182 568.5 Q239 599 323 599 Q382 599 430 585.5 Q478 572 514 547.5 Q550 523 573 489.5 Q596 456 605 415 Q605 392 592 386 Q579 380 560 380 L440 380 Q421 380 413 388 Q405 396 395 417 Q386 436 364.5 448.5 Q343 461 323 461 Q298 461 278.5 447 Q259 433 245.5 409 Q232 385 225.5 353.5 Q219 322 219 287 Q219 255 225.5 225.5 Q232 196 245.5 173.5 Q259 151 278.5 138 Q298 125 323 125 Q343 125 363 134.5 Q383 144 395 164 Q405 185 412.5 193 Q420 201 439 201 L559 201 Q578 201 591.5 195 Q605 189 605 166 Z M413 698 Q413 678 399 665 Q385 652 365 652 L283 652 Q263 652 249 665 Q235 678 235 698 L235 781 Q235 801 249 814 Q263 827 283 827 L365 827 Q385 827 399 814 Q413 801 413 781 L413 698 Z " />
<glyph glyph-name="cdotaccent" unicode="&#x10b;" horiz-adv-x="525" d="M505 152 Q499 121 482 91.5 Q465 62 437 38.5 Q409 15 369 1 Q329 -13 276 -13 Q206 -13 158 7.5 Q110 28 80.5 60 Q51 92 38 133 Q25 174 25 214 Q25 253 38 293.5 Q51 334 80.5 366.5 Q110 399 158 419.5 Q206 440 276 440 Q326 440 367 426 Q408 412 437 388.5 Q466 365 483.5 335.5 Q501 306 505 275 Q505 252 492 246.5 Q479 241 460 241 L369 241 Q350 241 341.5 248.5 Q333 256 325 278 Q317 298 304 307 Q291 316 276 316 Q241 316 225.5 289 Q210 262 210 214 Q210 166 225.5 139 Q241 112 276 112 Q312 112 325 149 Q333 171 341.5 178.5 Q350 186 369 186 L460 186 Q479 186 492 180.5 Q505 175 505 152 Z M362 550 Q362 532 349 519.5 Q336 507 317 507 L241 507 Q222 507 209.5 519.5 Q197 532 197 550 L197 626 Q197 644 209.5 656.5 Q222 669 241 669 L317 669 Q336 669 349 656.5 Q362 644 362 626 L362 550 Z " />
<glyph glyph-name="Ccaron" unicode="&#x10c;" horiz-adv-x="630" d="M605 166 Q586 85 514 36 Q442 -13 323 -13 Q239 -13 182 16.5 Q125 46 90 91 Q55 136 40 188.5 Q25 241 25 287 Q25 336 40 391 Q55 446 90 492 Q125 538 182 568.5 Q239 599 323 599 Q382 599 430 585.5 Q478 572 514 547.5 Q550 523 573 489.5 Q596 456 605 415 Q605 392 592 386 Q579 380 560 380 L440 380 Q421 380 413 388 Q405 396 395 417 Q386 436 364.5 448.5 Q343 461 323 461 Q298 461 278.5 447 Q259 433 245.5 409 Q232 385 225.5 353.5 Q219 322 219 287 Q219 255 225.5 225.5 Q232 196 245.5 173.5 Q259 151 278.5 138 Q298 125 323 125 Q343 125 363 134.5 Q383 144 395 164 Q405 185 412.5 193 Q420 201 439 201 L559 201 Q578 201 591.5 195 Q605 189 605 166 Z M410 685 Q403 672 395 662 Q387 652 373 652 L277 652 Q263 652 255 662 Q247 672 240 685 L150 846 Q150 860 160 869.5 Q170 879 184 879 L264 879 Q278 879 287.5 869.5 Q297 860 303 846 L325 797 L347 846 Q353 860 362.5 869.5 Q372 879 386 879 L466 879 Q480 879 490 869.5 Q500 860 500 846 L410 685 Z " />
<glyph glyph-name="ccaron" unicode="&#x10d;" horiz-adv-x="525" d="M505 152 Q499 121 482 91.5 Q465 62 437 38.5 Q409 15 369 1 Q329 -13 276 -13 Q206 -13 158 7.5 Q110 28 80.5 60 Q51 92 38 133 Q25 174 25 214 Q25 253 38 293.5 Q51 334 80.5 366.5 Q110 399 158 419.5 Q206 440 276 440 Q326 440 367 426 Q408 412 437 388.5 Q466 365 483.5 335.5 Q501 306 505 275 Q505 252 492 246.5 Q479 241 460 241 L369 241 Q350 241 341.5 248.5 Q333 256 325 278 Q317 298 304 307 Q291 316 276 316 Q241 316 225.5 289 Q210 262 210 214 Q210 166 225.5 139 Q241 112 276 112 Q312 112 325 149 Q333 171 341.5 178.5 Q350 186 369 186 L460 186 Q479 186 492 180.5 Q505 175 505 152 Z M360 540 Q353 527 345 517 Q337 507 323 507 L227 507 Q213 507 205 517 Q197 527 190 540 L100 701 Q100 715 110 724.5 Q120 734 134 734 L214 734 Q228 734 237.5 724.5 Q247 715 253 701 L275 652 L297 701 Q303 715 312.5 724.5 Q322 734 336 734 L416 734 Q430 734 440 724.5 Q450 715 450 701 L360 540 Z " />
<glyph glyph-name="Dcaron" unicode="&#x10e;" horiz-adv-x="604" d="M239 434 L239 151 L281 151 Q332 151 358.5 189.5 Q385 228 385 293 Q385 434 281 434 L239 434 Z M281 585 Q365 585 422 558 Q479 531 514 488.5 Q549 446 564 394 Q579 342 579 293 Q579 247 564 195.5 Q549 144 514 100.5 Q479 57 422 28.5 Q365 0 281 0 L93 0 Q73 0 59 13 Q45 26 45 46 L45 539 Q45 559 59 572 Q73 585 93 585 L281 585 Z M353 685 Q346 672 338 662 Q330 652 316 652 L220 652 Q206 652 198 662 Q190 672 183 685 L93 846 Q93 860 103 869.5 Q113 879 127 879 L207 879 Q221 879 230.5 869.5 Q240 860 246 846 L268 797 L290 846 Q296 860 305.5 869.5 Q315 879 329 879 L409 879 Q423 879 433 869.5 Q443 860 443 846 L353 685 Z " />
<glyph glyph-name="dcaron" unicode="&#x10f;" horiz-adv-x="801" d="M219 166 Q219 145 236 131 Q253 117 273 117 Q296 117 312 131 Q328 145 328 166 L328 260 Q328 280 310.5 294 Q293 308 273 308 Q253 308 236 294 Q219 280 219 257 L219 166 Z M328 49 Q304 18 273 1.5 Q242 -15 210 -15 Q171 -15 137.5 3.5 Q104 22 79 53 Q54 84 39.5 125 Q25 166 25 211 Q25 256 39.5 297.5 Q54 339 79 370.5 Q104 402 137.5 421 Q171 440 210 440 Q242 440 269.5 427 Q297 414 328 376 L328 539 Q328 559 342 572 Q356 585 376 585 L474 585 Q494 585 508 572 Q522 559 522 539 L522 46 Q522 26 508 13 Q494 0 474 0 L376 0 Q356 0 342 14 Q328 28 328 49 Z M635 548 Q640 563 649 574 Q658 585 674 585 L748 585 Q764 585 772.5 574.5 Q781 564 781 548 L711 413 Q706 403 697.5 397 Q689 391 678 391 L613 391 Q597 391 588.5 401.5 Q580 412 580 428 L635 548 Z " />
<glyph glyph-name="Dcroat" unicode="&#x110;" horiz-adv-x="624" d="M301 585 Q385 585 442 558 Q499 531 534 488.5 Q569 446 584 394 Q599 342 599 293 Q599 247 584 195.5 Q569 144 534 100.5 Q499 57 442 28.5 Q385 0 301 0 L113 0 Q93 0 79 13 Q65 26 65 46 L65 222 L41 222 Q24 222 12 235 Q0 248 0 265 L0 327 Q0 344 12 357 Q24 370 41 370 L65 370 L65 539 Q65 559 79 572 Q93 585 113 585 L301 585 Z M259 222 L259 151 L301 151 Q352 151 378.5 189.5 Q405 228 405 293 Q405 434 301 434 L259 434 L259 370 L290 370 Q307 370 319 357 Q331 344 331 327 L331 265 Q331 248 319 235 Q307 222 290 222 L259 222 Z " />
<glyph glyph-name="dcroat" unicode="&#x111;" horiz-adv-x="570" d="M522 444 L522 46 Q522 26 508 13 Q494 0 474 0 L376 0 Q356 0 342 14 Q328 28 328 49 Q304 18 273 1.5 Q242 -15 210 -15 Q171 -15 137.5 3.5 Q104 22 79 53 Q54 84 39.5 125 Q25 166 25 211 Q25 256 39.5 297.5 Q54 339 79 370.5 Q104 402 137.5 421 Q171 440 210 440 Q242 440 269.5 427 Q297 414 328 376 L328 444 L315 444 Q303 444 294.5 453 Q286 462 286 474 L286 518 Q286 530 294.5 539 Q303 548 315 548 L329 548 Q332 564 345 574.5 Q358 585 376 585 L474 585 Q492 585 505 574.5 Q518 564 521 548 L541 548 Q553 548 561.5 539 Q570 530 570 518 L570 474 Q570 462 561.5 453 Q553 444 541 444 L522 444 Z M219 166 Q219 145 236 131 Q253 117 273 117 Q296 117 312 131 Q328 145 328 166 L328 260 Q328 280 310.5 294 Q293 308 273 308 Q253 308 236 294 Q219 280 219 257 L219 166 Z " />
<glyph glyph-name="Emacron" unicode="&#x112;" horiz-adv-x="525" d="M394 359 Q409 359 420 347.5 Q431 336 431 320 L431 262 Q431 246 420 234.5 Q409 223 394 223 L239 223 L239 151 L454 151 Q471 151 483 138 Q495 125 495 108 L495 43 Q495 26 483 13 Q471 0 454 0 L93 0 Q73 0 59 13 Q45 26 45 46 L45 539 Q45 559 59 572 Q73 585 93 585 L454 585 Q471 585 483 572 Q495 559 495 542 L495 477 Q495 460 483 447 Q471 434 454 434 L239 434 L239 359 L394 359 Z M117 652 Q100 652 88 665 Q76 678 76 695 L76 757 Q76 774 88 787 Q100 800 117 800 L429 800 Q446 800 458 787 Q470 774 470 757 L470 695 Q470 678 458 665 Q446 652 429 652 L117 652 Z " />
<glyph glyph-name="emacron" unicode="&#x113;" horiz-adv-x="519" d="M261 320 Q241 320 224.5 310 Q208 300 201 265 L323 265 Q316 300 298.5 310 Q281 320 261 320 Z M499 226 Q499 206 485 193 Q471 180 451 180 L209 180 Q209 151 224 134 Q239 117 265 117 Q277 117 289.5 119 Q302 121 311 128 Q318 134 326.5 136 Q335 138 346 138 L439 138 Q458 138 471 132.5 Q484 127 484 104 Q461 55 408.5 21 Q356 -13 266 -13 Q196 -13 150 9 Q104 31 76 64.5 Q48 98 36.5 138 Q25 178 25 214 Q25 252 36 292 Q47 332 74 365 Q101 398 147 419 Q193 440 263 440 Q329 440 373.5 421.5 Q418 403 445.5 372.5 Q473 342 485 303.5 Q497 265 499 226 Z M108 507 Q91 507 79 520 Q67 533 67 550 L67 612 Q67 629 79 642 Q91 655 108 655 L420 655 Q437 655 449 642 Q461 629 461 612 L461 550 Q461 533 449 520 Q437 507 420 507 L108 507 Z " />
<glyph glyph-name="Edotaccent" unicode="&#x116;" horiz-adv-x="525" d="M394 359 Q409 359 420 347.5 Q431 336 431 320 L431 262 Q431 246 420 234.5 Q409 223 394 223 L239 223 L239 151 L454 151 Q471 151 483 138 Q495 125 495 108 L495 43 Q495 26 483 13 Q471 0 454 0 L93 0 Q73 0 59 13 Q45 26 45 46 L45 539 Q45 559 59 572 Q73 585 93 585 L454 585 Q471 585 483 572 Q495 559 495 542 L495 477 Q495 460 483 447 Q471 434 454 434 L239 434 L239 359 L394 359 Z M354 694 Q354 676 341 664 Q328 652 310 652 L234 652 Q215 652 202.5 664 Q190 676 190 694 L190 771 Q190 789 202.5 801 Q215 813 234 813 L310 813 Q328 813 341 801 Q354 789 354 771 L354 694 Z " />
<glyph glyph-name="edotaccent" unicode="&#x117;" horiz-adv-x="519" d="M261 320 Q241 320 224.5 310 Q208 300 201 265 L323 265 Q316 300 298.5 310 Q281 320 261 320 Z M499 226 Q499 206 485 193 Q471 180 451 180 L209 180 Q209 151 224 134 Q239 117 265 117 Q277 117 289.5 119 Q302 121 311 128 Q318 134 326.5 136 Q335 138 346 138 L439 138 Q458 138 471 132.5 Q484 127 484 104 Q461 55 408.5 21 Q356 -13 266 -13 Q196 -13 150 9 Q104 31 76 64.5 Q48 98 36.5 138 Q25 178 25 214 Q25 252 36 292 Q47 332 74 365 Q101 398 147 419 Q193 440 263 440 Q329 440 373.5 421.5 Q418 403 445.5 372.5 Q473 342 485 303.5 Q497 265 499 226 Z M339 549 Q339 531 326 519 Q313 507 295 507 L219 507 Q200 507 187.5 519 Q175 531 175 549 L175 626 Q175 644 187.5 656 Q200 668 219 668 L295 668 Q313 668 326 656 Q339 644 339 626 L339 549 Z " />
<glyph glyph-name="Eogonek" unicode="&#x118;" horiz-adv-x="526" d="M468 -188 Q457 -189 447 -189 Q437 -189 432 -189 Q406 -189 380.5 -183.5 Q355 -178 334.5 -165 Q314 -152 301.5 -132.5 Q289 -113 289 -84 Q289 -58 299 -35.5 Q309 -13 322 0 L93 0 Q73 0 59 13 Q45 26 45 46 L45 539 Q45 559 59 572 Q73 585 93 585 L454 585 Q471 585 483 572 Q495 559 495 542 L495 477 Q495 460 483 447 Q471 434 454 434 L239 434 L239 359 L394 359 Q409 359 420 347.5 Q431 336 431 320 L431 262 Q431 246 420 234.5 Q409 223 394 223 L239 223 L239 151 L454 151 Q471 151 483 138 Q495 125 495 108 L495 43 Q495 26 483 13 Q471 0 454 0 L445 0 Q429 -16 424 -33.5 Q419 -51 419 -57 Q419 -64 427.5 -75 Q436 -86 452 -86 Q455 -86 460 -86 Q465 -86 470 -85 Q481 -85 488.5 -94 Q496 -103 496 -115 L496 -160 Q496 -171 487.5 -179.5 Q479 -188 468 -188 Z " />
<glyph glyph-name="eogonek" unicode="&#x119;" horiz-adv-x="519" d="M345 -188 Q334 -189 324 -189 Q314 -189 309 -189 Q283 -189 257.5 -183.5 Q232 -178 211.5 -165 Q191 -152 178.5 -132.5 Q166 -113 166 -84 Q166 -58 175 -38 Q184 -18 196 -6 Q147 5 114.5 28.5 Q82 52 62 83 Q42 114 33.5 148.5 Q25 183 25 214 Q25 252 36 292 Q47 332 74 365 Q101 398 147 419 Q193 440 263 440 Q329 440 374.5 420.5 Q420 401 447.5 370 Q475 339 487 301 Q499 263 499 226 Q499 206 485 193 Q471 180 451 180 L209 180 Q209 151 224 134 Q239 117 265 117 Q277 117 289.5 119 Q302 121 311 128 Q318 134 326.5 136 Q335 138 346 138 L439 138 Q458 138 471 132.5 Q484 127 484 104 Q464 62 424.5 31.5 Q385 1 319 -9 Q302 -25 299 -38 Q296 -51 296 -57 Q296 -64 304.5 -75 Q313 -86 329 -86 Q332 -86 337 -86 Q342 -86 347 -85 Q358 -85 365.5 -94 Q373 -103 373 -115 L373 -160 Q373 -171 364.5 -179.5 Q356 -188 345 -188 Z M261 320 Q241 320 224.5 310 Q208 300 201 265 L323 265 Q316 300 298.5 310 Q281 320 261 320 Z " />
<glyph glyph-name="Ecaron" unicode="&#x11a;" horiz-adv-x="525" d="M394 359 Q409 359 420 347.5 Q431 336 431 320 L431 262 Q431 246 420 234.5 Q409 223 394 223 L239 223 L239 151 L454 151 Q471 151 483 138 Q495 125 495 108 L495 43 Q495 26 483 13 Q471 0 454 0 L93 0 Q73 0 59 13 Q45 26 45 46 L45 539 Q45 559 59 572 Q73 585 93 585 L454 585 Q471 585 483 572 Q495 559 495 542 L495 477 Q495 460 483 447 Q471 434 454 434 L239 434 L239 359 L394 359 Z M357 685 Q350 672 342 662 Q334 652 320 652 L224 652 Q210 652 202 662 Q194 672 187 685 L97 846 Q97 860 107 869.5 Q117 879 131 879 L211 879 Q225 879 234.5 869.5 Q244 860 250 846 L272 797 L294 846 Q300 860 309.5 869.5 Q319 879 333 879 L413 879 Q427 879 437 869.5 Q447 860 447 846 L357 685 Z " />
<glyph glyph-name="ecaron" unicode="&#x11b;" horiz-adv-x="519" d="M261 320 Q241 320 224.5 310 Q208 300 201 265 L323 265 Q316 300 298.5 310 Q281 320 261 320 Z M499 226 Q499 206 485 193 Q471 180 451 180 L209 180 Q209 151 224 134 Q239 117 265 117 Q277 117 289.5 119 Q302 121 311 128 Q318 134 326.5 136 Q335 138 346 138 L439 138 Q458 138 471 132.5 Q484 127 484 104 Q461 55 408.5 21 Q356 -13 266 -13 Q196 -13 150 9 Q104 31 76 64.5 Q48 98 36.5 138 Q25 178 25 214 Q25 252 36 292 Q47 332 74 365 Q101 398 147 419 Q193 440 263 440 Q329 440 373.5 421.5 Q418 403 445.5 372.5 Q473 342 485 303.5 Q497 265 499 226 Z M349 540 Q342 527 334 517 Q326 507 312 507 L216 507 Q202 507 194 517 Q186 527 179 540 L89 701 Q89 715 99 724.5 Q109 734 123 734 L203 734 Q217 734 226.5 724.5 Q236 715 242 701 L264 652 L286 701 Q292 715 301.5 724.5 Q311 734 325 734 L405 734 Q419 734 429 724.5 Q439 715 439 701 L349 540 Z " />
<glyph glyph-name="Gcircumflex" unicode="&#x11c;" horiz-adv-x="651" d="M573 325 Q590 325 600.5 314 Q611 303 611 286 L611 39 Q611 22 599 11 Q587 0 570 0 L531 0 Q514 0 502 11 Q490 22 490 39 L489 54 Q463 17 419 2 Q375 -13 325 -13 Q241 -13 183.5 17 Q126 47 91 92.5 Q56 138 40.5 192 Q25 246 25 294 Q25 340 40 393.5 Q55 447 90 492.5 Q125 538 182 568.5 Q239 599 323 599 Q382 599 430 585.5 Q478 572 514 547.5 Q550 523 573 489.5 Q596 456 605 415 Q605 392 592 386 Q579 380 560 380 L440 380 Q421 380 413 388 Q405 396 395 417 Q386 436 364.5 448.5 Q343 461 323 461 Q298 461 278.5 447 Q259 433 245.5 410 Q232 387 225.5 356.5 Q219 326 219 294 Q219 261 226.5 230.5 Q234 200 248.5 176.5 Q263 153 283.5 139 Q304 125 330 125 Q388 125 417.5 146.5 Q447 168 460 207 L400 207 Q384 207 373.5 218 Q363 229 363 246 L363 286 Q363 303 373.5 314 Q384 325 400 325 L573 325 Z M501 685 Q501 671 491 661.5 Q481 652 467 652 L387 652 Q373 652 363.5 661.5 Q354 671 348 685 L326 734 L304 685 Q298 671 288.5 661.5 Q279 652 265 652 L185 652 Q171 652 161 661.5 Q151 671 151 685 L241 846 Q248 859 256 869 Q264 879 278 879 L374 879 Q388 879 396 869 Q404 859 411 846 L501 685 Z " />
<glyph glyph-name="gcircumflex" unicode="&#x11d;" horiz-adv-x="567" d="M219 168 Q219 145 236 131 Q253 117 273 117 Q293 117 310.5 131 Q328 145 328 165 L328 261 Q328 282 312 296 Q296 310 273 310 Q253 310 236 296 Q219 282 219 261 L219 168 Z M226 -61 Q236 -70 247.5 -73.5 Q259 -77 272 -77 Q304 -77 316 -57 Q328 -37 328 -8 L328 46 Q296 14 269 0.5 Q242 -13 210 -13 Q171 -13 137.5 5.5 Q104 24 79 55 Q54 86 39.5 127.5 Q25 169 25 214 Q25 259 39.5 300 Q54 341 79 372 Q104 403 137.5 421.5 Q171 440 210 440 Q242 440 273 423.5 Q304 407 328 376 Q328 398 342 411.5 Q356 425 376 425 L474 425 Q494 425 508 412 Q522 399 522 379 L522 28 Q522 -25 509 -67.5 Q496 -110 466.5 -139.5 Q437 -169 389 -185 Q341 -201 271 -201 Q227 -201 193.5 -193 Q160 -185 134.5 -170.5 Q109 -156 89.5 -135 Q70 -114 55 -88 Q53 -84 53 -81 Q53 -72 61 -64 Q75 -50 95 -50 L193 -50 Q206 -50 213.5 -53 Q221 -56 226 -61 Z M464 540 Q464 526 454 516.5 Q444 507 430 507 L350 507 Q336 507 326.5 516.5 Q317 526 311 540 L289 589 L267 540 Q261 526 251.5 516.5 Q242 507 228 507 L148 507 Q134 507 124 516.5 Q114 526 114 540 L204 701 Q211 714 219 724 Q227 734 241 734 L337 734 Q351 734 359 724 Q367 714 374 701 L464 540 Z " />
<glyph glyph-name="Gbreve" unicode="&#x11e;" horiz-adv-x="651" d="M573 325 Q590 325 600.5 314 Q611 303 611 286 L611 39 Q611 22 599 11 Q587 0 570 0 L531 0 Q514 0 502 11 Q490 22 490 39 L489 54 Q463 17 419 2 Q375 -13 325 -13 Q241 -13 183.5 17 Q126 47 91 92.5 Q56 138 40.5 192 Q25 246 25 294 Q25 340 40 393.5 Q55 447 90 492.5 Q125 538 182 568.5 Q239 599 323 599 Q382 599 430 585.5 Q478 572 514 547.5 Q550 523 573 489.5 Q596 456 605 415 Q605 392 592 386 Q579 380 560 380 L440 380 Q421 380 413 388 Q405 396 395 417 Q386 436 364.5 448.5 Q343 461 323 461 Q298 461 278.5 447 Q259 433 245.5 410 Q232 387 225.5 356.5 Q219 326 219 294 Q219 261 226.5 230.5 Q234 200 248.5 176.5 Q263 153 283.5 139 Q304 125 330 125 Q388 125 417.5 146.5 Q447 168 460 207 L400 207 Q384 207 373.5 218 Q363 229 363 246 L363 286 Q363 303 373.5 314 Q384 325 400 325 L573 325 Z M325 652 Q264 652 216.5 683 Q169 714 158 781 Q158 797 169 807.5 Q180 818 197 818 L246 818 Q258 818 267 812 Q276 806 281 797 Q288 785 301 780.5 Q314 776 325 776 Q336 776 349 780.5 Q362 785 369 797 Q374 806 383 812 Q392 818 404 818 L453 818 Q470 818 481 807.5 Q492 797 492 781 Q481 714 434 683 Q387 652 325 652 Z " />
<glyph glyph-name="gbreve" unicode="&#x11f;" horiz-adv-x="567" d="M219 168 Q219 145 236 131 Q253 117 273 117 Q293 117 310.5 131 Q328 145 328 165 L328 261 Q328 282 312 296 Q296 310 273 310 Q253 310 236 296 Q219 282 219 261 L219 168 Z M226 -61 Q236 -70 247.5 -73.5 Q259 -77 272 -77 Q304 -77 316 -57 Q328 -37 328 -8 L328 46 Q296 14 269 0.5 Q242 -13 210 -13 Q171 -13 137.5 5.5 Q104 24 79 55 Q54 86 39.5 127.5 Q25 169 25 214 Q25 259 39.5 300 Q54 341 79 372 Q104 403 137.5 421.5 Q171 440 210 440 Q242 440 273 423.5 Q304 407 328 376 Q328 398 342 411.5 Q356 425 376 425 L474 425 Q494 425 508 412 Q522 399 522 379 L522 28 Q522 -25 509 -67.5 Q496 -110 466.5 -139.5 Q437 -169 389 -185 Q341 -201 271 -201 Q227 -201 193.5 -193 Q160 -185 134.5 -170.5 Q109 -156 89.5 -135 Q70 -114 55 -88 Q53 -84 53 -81 Q53 -72 61 -64 Q75 -50 95 -50 L193 -50 Q206 -50 213.5 -53 Q221 -56 226 -61 Z M297 507 Q236 507 188.5 538 Q141 569 130 636 Q130 652 141 662.5 Q152 673 169 673 L218 673 Q230 673 239 667 Q248 661 253 652 Q260 640 273 635.5 Q286 631 297 631 Q308 631 321 635.5 Q334 640 341 652 Q346 661 355 667 Q364 673 376 673 L425 673 Q442 673 453 662.5 Q464 652 464 636 Q453 569 406 538 Q359 507 297 507 Z " />
<glyph glyph-name="Gdotaccent" unicode="&#x120;" horiz-adv-x="651" d="M573 325 Q590 325 600.5 314 Q611 303 611 286 L611 39 Q611 22 599 11 Q587 0 570 0 L531 0 Q514 0 502 11 Q490 22 490 39 L489 54 Q463 17 419 2 Q375 -13 325 -13 Q241 -13 183.5 17 Q126 47 91 92.5 Q56 138 40.5 192 Q25 246 25 294 Q25 340 40 393.5 Q55 447 90 492.5 Q125 538 182 568.5 Q239 599 323 599 Q382 599 430 585.5 Q478 572 514 547.5 Q550 523 573 489.5 Q596 456 605 415 Q605 392 592 386 Q579 380 560 380 L440 380 Q421 380 413 388 Q405 396 395 417 Q386 436 364.5 448.5 Q343 461 323 461 Q298 461 278.5 447 Q259 433 245.5 410 Q232 387 225.5 356.5 Q219 326 219 294 Q219 261 226.5 230.5 Q234 200 248.5 176.5 Q263 153 283.5 139 Q304 125 330 125 Q388 125 417.5 146.5 Q447 168 460 207 L400 207 Q384 207 373.5 218 Q363 229 363 246 L363 286 Q363 303 373.5 314 Q384 325 400 325 L573 325 Z M411 695 Q411 677 398 664.5 Q385 652 366 652 L290 652 Q271 652 258.5 664.5 Q246 677 246 695 L246 771 Q246 789 258.5 801.5 Q271 814 290 814 L366 814 Q385 814 398 801.5 Q411 789 411 771 L411 695 Z " />
<glyph glyph-name="gdotaccent" unicode="&#x121;" horiz-adv-x="567" d="M219 168 Q219 145 236 131 Q253 117 273 117 Q293 117 310.5 131 Q328 145 328 165 L328 261 Q328 282 312 296 Q296 310 273 310 Q253 310 236 296 Q219 282 219 261 L219 168 Z M226 -61 Q236 -70 247.5 -73.5 Q259 -77 272 -77 Q304 -77 316 -57 Q328 -37 328 -8 L328 46 Q296 14 269 0.5 Q242 -13 210 -13 Q171 -13 137.5 5.5 Q104 24 79 55 Q54 86 39.5 127.5 Q25 169 25 214 Q25 259 39.5 300 Q54 341 79 372 Q104 403 137.5 421.5 Q171 440 210 440 Q242 440 273 423.5 Q304 407 328 376 Q328 398 342 411.5 Q356 425 376 425 L474 425 Q494 425 508 412 Q522 399 522 379 L522 28 Q522 -25 509 -67.5 Q496 -110 466.5 -139.5 Q437 -169 389 -185 Q341 -201 271 -201 Q227 -201 193.5 -193 Q160 -185 134.5 -170.5 Q109 -156 89.5 -135 Q70 -114 55 -88 Q53 -84 53 -81 Q53 -72 61 -64 Q75 -50 95 -50 L193 -50 Q206 -50 213.5 -53 Q221 -56 226 -61 Z M401 553 Q401 534 387 520.5 Q373 507 353 507 L271 507 Q251 507 237 520.5 Q223 534 223 553 L223 636 Q223 655 237 668.5 Q251 682 271 682 L353 682 Q373 682 387 668.5 Q401 655 401 636 L401 553 Z " />
<glyph glyph-name="uni0122" unicode="&#x122;" horiz-adv-x="651" d="M573 325 Q590 325 600.5 314 Q611 303 611 286 L611 39 Q611 22 599 11 Q587 0 570 0 L531 0 Q514 0 502 11 Q490 22 490 39 L489 54 Q463 17 419 2 Q375 -13 325 -13 Q241 -13 183.5 17 Q126 47 91 92.5 Q56 138 40.5 192 Q25 246 25 294 Q25 340 40 393.5 Q55 447 90 492.5 Q125 538 182 568.5 Q239 599 323 599 Q382 599 430 585.5 Q478 572 514 547.5 Q550 523 573 489.5 Q596 456 605 415 Q605 392 592 386 Q579 380 560 380 L440 380 Q421 380 413 388 Q405 396 395 417 Q386 436 364.5 448.5 Q343 461 323 461 Q298 461 278.5 447 Q259 433 245.5 410 Q232 387 225.5 356.5 Q219 326 219 294 Q219 261 226.5 230.5 Q234 200 248.5 176.5 Q263 153 283.5 139 Q304 125 330 125 Q388 125 417.5 146.5 Q447 168 460 207 L400 207 Q384 207 373.5 218 Q363 229 363 246 L363 286 Q363 303 373.5 314 Q384 325 400 325 L573 325 Z M357 -260 Q349 -271 340 -278 Q331 -285 317 -285 L268 -285 Q248 -285 235 -272.5 Q222 -260 222 -241 L237 -135 Q246 -118 258 -104.5 Q270 -91 295 -91 L362 -91 Q382 -91 395 -103.5 Q408 -116 408 -135 L357 -260 Z " />
<glyph glyph-name="uni0123" unicode="&#x123;" horiz-adv-x="567" d="M219 168 Q219 145 236 131 Q253 117 273 117 Q293 117 310.5 131 Q328 145 328 165 L328 261 Q328 282 312 296 Q296 310 273 310 Q253 310 236 296 Q219 282 219 261 L219 168 Z M226 -61 Q236 -70 247.5 -73.5 Q259 -77 272 -77 Q304 -77 316 -57 Q328 -37 328 -8 L328 46 Q296 14 269 0.5 Q242 -13 210 -13 Q171 -13 137.5 5.5 Q104 24 79 55 Q54 86 39.5 127.5 Q25 169 25 214 Q25 259 39.5 300 Q54 341 79 372 Q104 403 137.5 421.5 Q171 440 210 440 Q242 440 273 423.5 Q304 407 328 376 Q328 398 342 411.5 Q356 425 376 425 L474 425 Q494 425 508 412 Q522 399 522 379 L522 28 Q522 -25 509 -67.5 Q496 -110 466.5 -139.5 Q437 -169 389 -185 Q341 -201 271 -201 Q227 -201 193.5 -193 Q160 -185 134.5 -170.5 Q109 -156 89.5 -135 Q70 -114 55 -88 Q53 -84 53 -81 Q53 -72 61 -64 Q75 -50 95 -50 L193 -50 Q206 -50 213.5 -53 Q221 -56 226 -61 Z M279 676 Q287 687 296 694 Q305 701 319 701 L368 701 Q388 701 401 688.5 Q414 676 414 657 L399 551 Q390 534 378 520.5 Q366 507 341 507 L274 507 Q254 507 241 519.5 Q228 532 228 551 L279 676 Z " />
<glyph glyph-name="Hcircumflex" unicode="&#x124;" horiz-adv-x="619" d="M380 358 L380 539 Q380 559 394 572 Q408 585 428 585 L526 585 Q546 585 560 572 Q574 559 574 539 L574 46 Q574 26 560 13 Q546 0 526 0 L428 0 Q408 0 394 13 Q380 26 380 46 L380 206 L239 206 L239 46 Q239 26 225 13 Q211 0 191 0 L93 0 Q73 0 59 13 Q45 26 45 46 L45 539 Q45 559 59 572 Q73 585 93 585 L191 585 Q211 585 225 572 Q239 559 239 539 L239 358 L380 358 Z M394 846 Q387 859 379 869 Q371 879 357 879 L261 879 Q247 879 239 869 Q231 859 224 846 L134 685 Q134 671 144 661.5 Q154 652 168 652 L248 652 Q262 652 271.5 661.5 Q281 671 287 685 L309 734 L331 685 Q337 671 346.5 661.5 Q356 652 370 652 L450 652 Q464 652 474 661.5 Q484 671 484 685 L394 846 Z " />
<glyph glyph-name="hcircumflex" unicode="&#x125;" horiz-adv-x="577" d="M239 376 Q270 414 307.5 427 Q345 440 377 440 Q455 440 498.5 384 Q542 328 542 211 L542 46 Q542 26 528 13 Q514 0 494 0 L396 0 Q376 0 362 13 Q348 26 348 46 L348 259 Q348 282 331 296 Q314 310 294 310 Q274 310 256.5 296 Q239 282 239 262 L239 46 Q239 26 225 13 Q211 0 191 0 L93 0 Q73 0 59 13 Q45 26 45 46 L45 539 Q45 559 59 572 Q73 585 93 585 L191 585 Q211 585 225 572 Q239 559 239 539 L239 376 Z M412 685 Q412 671 402 661.5 Q392 652 378 652 L298 652 Q284 652 274.5 661.5 Q265 671 259 685 L237 734 L215 685 Q209 671 199.5 661.5 Q190 652 176 652 L96 652 Q82 652 72 661.5 Q62 671 62 685 L152 846 Q159 859 167 869 Q175 879 189 879 L285 879 Q299 879 307 869 Q315 859 322 846 L412 685 Z " />
<glyph glyph-name="Hbar" unicode="&#x126;" horiz-adv-x="701" d="M668 526 Q682 526 691.5 515.5 Q701 505 701 491 L701 441 Q701 427 691.5 416.5 Q682 406 668 406 L615 406 L615 46 Q615 26 601 13 Q587 0 567 0 L469 0 Q449 0 435 13 Q421 26 421 46 L421 206 L280 206 L280 46 Q280 26 266 13 Q252 0 232 0 L134 0 Q114 0 100 13 Q86 26 86 46 L86 406 L33 406 Q19 406 9.5 416.5 Q0 427 0 441 L0 491 Q0 505 9.5 515.5 Q19 526 33 526 L86 526 L86 539 Q86 559 100 572 Q114 585 134 585 L232 585 Q252 585 266 572 Q280 559 280 539 L280 526 L421 526 L421 539 Q421 559 435 572 Q449 585 469 585 L567 585 Q587 585 601 572 Q615 559 615 539 L615 526 L668 526 Z M421 406 L280 406 L280 358 L421 358 L421 406 Z " />
<glyph glyph-name="hbar" unicode="&#x127;" horiz-adv-x="580" d="M29 444 Q17 444 8.5 453 Q0 462 0 474 L0 518 Q0 530 8.5 539 Q17 548 29 548 L49 548 Q52 564 65 574.5 Q78 585 96 585 L194 585 Q212 585 225 574.5 Q238 564 241 548 L255 548 Q267 548 275.5 539 Q284 530 284 518 L284 474 Q284 462 275.5 453 Q267 444 255 444 L242 444 L242 376 Q273 414 310.5 427 Q348 440 380 440 Q458 440 501.5 384 Q545 328 545 211 L545 46 Q545 26 531 13 Q517 0 497 0 L399 0 Q379 0 365 13 Q351 26 351 46 L351 259 Q351 282 334 296 Q317 310 297 310 Q277 310 259.5 296 Q242 282 242 262 L242 46 Q242 26 228 13 Q214 0 194 0 L96 0 Q76 0 62 13 Q48 26 48 46 L48 444 L29 444 Z " />
<glyph glyph-name="Itilde" unicode="&#x128;" horiz-adv-x="284" d="M239 46 Q239 26 225 13 Q211 0 191 0 L93 0 Q73 0 59 13 Q45 26 45 46 L45 539 Q45 559 59 572 Q73 585 93 585 L191 585 Q211 585 225 572 Q239 559 239 539 L239 46 Z M208 652 Q191 652 174.5 657.5 Q158 663 142 669 Q126 675 109.5 680.5 Q93 686 75 686 Q69 686 58.5 684 Q48 682 37 679 Q31 676 25 676 Q14 676 4 682.5 Q-6 689 -11 700 L-29 749 Q-32 755 -32 762 Q-32 773 -26.5 782 Q-21 791 -11 795 Q12 806 36 810 Q60 814 75 814 Q92 814 108.5 808.5 Q125 803 141 797 Q157 791 173.5 785.5 Q190 780 208 780 Q214 780 224.5 782 Q235 784 246 787 Q252 790 258 790 Q269 790 279 783.5 Q289 777 294 766 L312 717 Q315 711 315 704 Q315 693 309.5 684 Q304 675 294 671 Q271 660 247 656 Q223 652 208 652 Z " />
<glyph glyph-name="itilde" unicode="&#x129;" horiz-adv-x="284" d="M239 46 Q239 26 225 13 Q211 0 191 0 L93 0 Q73 0 59 13 Q45 26 45 46 L45 379 Q45 399 59 412 Q73 425 93 425 L191 425 Q211 425 225 412 Q239 399 239 379 L239 46 Z M208 507 Q191 507 174.5 512.5 Q158 518 142 524 Q126 530 109.5 535.5 Q93 541 75 541 Q69 541 58.5 539 Q48 537 37 534 Q31 531 25 531 Q14 531 4 537.5 Q-6 544 -11 555 L-29 604 Q-32 610 -32 617 Q-32 628 -26.5 637 Q-21 646 -11 650 Q12 661 36 665 Q60 669 75 669 Q92 669 108.5 663.5 Q125 658 141 652 Q157 646 173.5 640.5 Q190 635 208 635 Q214 635 224.5 637 Q235 639 246 642 Q252 645 258 645 Q269 645 279 638.5 Q289 632 294 621 L312 572 Q315 566 315 559 Q315 548 309.5 539 Q304 530 294 526 Q271 515 247 511 Q223 507 208 507 Z " />
<glyph glyph-name="Imacron" unicode="&#x12a;" horiz-adv-x="284" d="M239 46 Q239 26 225 13 Q211 0 191 0 L93 0 Q73 0 59 13 Q45 26 45 46 L45 539 Q45 559 59 572 Q73 585 93 585 L191 585 Q211 585 225 572 Q239 559 239 539 L239 46 Z M1 652 Q-16 652 -28 665 Q-40 678 -40 695 L-40 757 Q-40 774 -28 787 Q-16 800 1 800 L284 800 Q301 800 313 787 Q325 774 325 757 L325 695 Q325 678 313 665 Q301 652 284 652 L1 652 Z " />
<glyph glyph-name="imacron" unicode="&#x12b;" horiz-adv-x="282" d="M238 46 Q238 26 224 13 Q210 0 190 0 L92 0 Q72 0 58 13 Q44 26 44 46 L44 379 Q44 399 58 412 Q72 425 92 425 L190 425 Q210 425 224 412 Q238 399 238 379 L238 46 Z M0 507 Q-17 507 -29 520 Q-41 533 -41 550 L-41 612 Q-41 629 -29 642 Q-17 655 0 655 L283 655 Q300 655 312 642 Q324 629 324 612 L324 550 Q324 533 312 520 Q300 507 283 507 L0 507 Z " />
<glyph glyph-name="Iogonek" unicode="&#x12e;" horiz-adv-x="284" d="M45 539 Q45 559 59 572 Q73 585 93 585 L191 585 Q211 585 225 572 Q239 559 239 539 L239 46 Q239 29 229 16.5 Q219 4 203 0 Q186 -18 182 -35 Q178 -52 178 -57 Q178 -64 186.5 -75 Q195 -86 211 -86 L222 -86 Q233 -86 243 -95.5 Q253 -105 253 -117 L253 -162 Q253 -173 241.5 -180.5 Q230 -188 219 -188 Q211 -189 203.5 -189 Q196 -189 191 -189 Q165 -189 139.5 -183.5 Q114 -178 93.5 -165 Q73 -152 60.5 -132.5 Q48 -113 48 -84 Q48 -61 58.5 -38 Q69 -15 81 0 Q66 4 55.5 16.5 Q45 29 45 46 L45 539 Z " />
<glyph glyph-name="iogonek" unicode="&#x12f;" horiz-adv-x="284" d="M239 46 Q239 29 228.5 16.5 Q218 4 202 0 Q185 -18 181 -35 Q177 -52 177 -57 Q177 -64 185.5 -75 Q194 -86 210 -86 L221 -86 Q232 -86 242 -95.5 Q252 -105 252 -117 L252 -162 Q252 -173 240.5 -180.5 Q229 -188 218 -188 Q210 -189 202.5 -189 Q195 -189 190 -189 Q164 -189 138.5 -183.5 Q113 -178 92.5 -165 Q72 -152 59.5 -132.5 Q47 -113 47 -84 Q47 -61 57.5 -38 Q68 -15 80 0 Q65 4 55 16.5 Q45 29 45 46 L45 379 Q45 399 59 412 Q73 425 93 425 L191 425 Q211 425 225 412 Q239 399 239 379 L239 46 Z M239 507 Q239 487 225 474 Q211 461 191 461 L93 461 Q73 461 59 474 Q45 487 45 507 L45 558 Q45 578 59 591 Q73 604 93 604 L191 604 Q211 604 225 591 Q239 578 239 558 L239 507 Z " />
<glyph glyph-name="Idotaccent" unicode="&#x130;" horiz-adv-x="284" d="M239 46 Q239 26 225 13 Q211 0 191 0 L93 0 Q73 0 59 13 Q45 26 45 46 L45 539 Q45 559 59 572 Q73 585 93 585 L191 585 Q211 585 225 572 Q239 559 239 539 L239 46 Z M239 698 Q239 678 225 665 Q211 652 191 652 L93 652 Q73 652 59 665 Q45 678 45 698 L45 749 Q45 769 59 782 Q73 795 93 795 L191 795 Q211 795 225 782 Q239 769 239 749 L239 698 Z " />
<glyph glyph-name="dotlessi" unicode="&#x131;" horiz-adv-x="284" d="M239 46 Q239 26 225 13 Q211 0 191 0 L93 0 Q73 0 59 13 Q45 26 45 46 L45 379 Q45 399 59 412 Q73 425 93 425 L191 425 Q211 425 225 412 Q239 399 239 379 L239 46 Z " />
<glyph glyph-name="Jcircumflex" unicode="&#x134;" horiz-adv-x="541" d="M195 182 Q203 150 217.5 137.5 Q232 125 252 125 Q277 125 290 142.5 Q303 160 303 214 L303 539 Q303 559 317 572 Q331 585 351 585 L448 585 Q468 585 482 572 Q496 559 496 539 L496 214 Q496 174 484 133 Q472 92 443.5 60 Q415 28 368.5 7.5 Q322 -13 252 -13 Q190 -13 146 3.5 Q102 20 73 47.5 Q44 75 29 110 Q14 145 10 182 Q10 202 24 215 Q38 228 58 228 L147 228 Q167 228 178.5 215 Q190 202 195 182 Z M477 685 Q477 671 467 661.5 Q457 652 443 652 L363 652 Q349 652 339.5 661.5 Q330 671 324 685 L302 734 L280 685 Q274 671 264.5 661.5 Q255 652 241 652 L161 652 Q147 652 137 661.5 Q127 671 127 685 L217 846 Q224 859 232 869 Q240 879 254 879 L350 879 Q364 879 372 869 Q380 859 387 846 L477 685 Z " />
<glyph glyph-name="jcircumflex" unicode="&#x135;" horiz-adv-x="284" d="M-8 -209 Q-22 -209 -32.5 -198.5 Q-43 -188 -43 -173 L-43 -109 Q-43 -93 -32 -81.5 Q-21 -70 -7 -70 L-2 -70 Q24 -70 34.5 -59.5 Q45 -49 45 -35 L45 379 Q45 399 59 412 Q73 425 93 425 L191 425 Q211 425 225 412 Q239 399 239 379 L239 -21 Q239 -112 197.5 -162.5 Q156 -213 74 -213 Q60 -213 36.5 -212.5 Q13 -212 -8 -209 Z M317 540 Q317 526 307 516.5 Q297 507 283 507 L203 507 Q189 507 179.5 516.5 Q170 526 164 540 L142 589 L120 540 Q114 526 104.5 516.5 Q95 507 81 507 L1 507 Q-13 507 -23 516.5 Q-33 526 -33 540 L57 701 Q64 714 72 724 Q80 734 94 734 L190 734 Q204 734 212 724 Q220 714 227 701 L317 540 Z " />
<glyph glyph-name="uni0136" unicode="&#x136;" horiz-adv-x="630" d="M313 241 L239 163 L239 46 Q239 26 225 13 Q211 0 191 0 L93 0 Q73 0 59 13 Q45 26 45 46 L45 539 Q45 559 59 572 Q73 585 93 585 L191 585 Q211 585 225 572 Q239 559 239 539 L239 393 L401 565 Q418 585 443 585 L547 585 Q567 585 581 572 Q595 559 595 539 L446 381 L625 46 Q625 26 611 13 Q597 0 577 0 L476 0 Q451 0 434 20 L313 241 Z M357 -260 Q349 -271 340 -278 Q331 -285 317 -285 L268 -285 Q248 -285 235 -272.5 Q222 -260 222 -241 L237 -135 Q246 -118 258 -104.5 Q270 -91 295 -91 L362 -91 Q382 -91 395 -103.5 Q408 -116 408 -135 L357 -260 Z " />
<glyph glyph-name="uni0137" unicode="&#x137;" horiz-adv-x="518" d="M239 152 L239 46 Q239 26 225 13 Q211 0 191 0 L93 0 Q73 0 59 13 Q45 26 45 46 L45 539 Q45 559 59 572 Q73 585 93 585 L191 585 Q211 585 225 572 Q239 559 239 539 L239 295 L255 295 L333 404 Q346 425 372 425 L467 425 Q485 425 499 417.5 Q513 410 513 383 L390 212 L513 42 Q513 15 499 7.5 Q485 0 467 0 L372 0 Q346 0 333 21 L239 152 Z M300 -260 Q292 -271 283 -278 Q274 -285 260 -285 L211 -285 Q191 -285 178 -272.5 Q165 -260 165 -241 L180 -135 Q189 -118 201 -104.5 Q213 -91 238 -91 L305 -91 Q325 -91 338 -103.5 Q351 -116 351 -135 L300 -260 Z " />
<glyph glyph-name="kgreenlandic" unicode="&#x138;" horiz-adv-x="518" d="M239 152 L239 46 Q239 26 225 13 Q211 0 191 0 L93 0 Q73 0 59 13 Q45 26 45 46 L45 379 Q45 399 59 412 Q73 425 93 425 L191 425 Q211 425 225 412 Q239 399 239 379 L239 295 L255 295 L333 404 Q346 425 372 425 L467 425 Q485 425 499 417.5 Q513 410 513 383 L390 212 L513 42 Q513 15 499 7.5 Q485 0 467 0 L372 0 Q346 0 333 21 L239 152 Z " />
<glyph glyph-name="Lacute" unicode="&#x139;" horiz-adv-x="515" d="M454 151 Q471 151 483 138 Q495 125 495 108 L495 43 Q495 26 483 13 Q471 0 454 0 L93 0 Q73 0 59 13 Q45 26 45 46 L45 539 Q45 559 59 572 Q73 585 93 585 L191 585 Q211 585 225 572 Q239 559 239 539 L239 151 L454 151 Z M220 677 Q212 666 203 659 Q194 652 180 652 L114 652 Q94 652 81 664.5 Q68 677 68 696 L116 802 Q125 819 135.5 832.5 Q146 846 166 846 L262 846 Q282 846 295 833.5 Q308 821 308 802 L220 677 Z " />
<glyph glyph-name="lacute" unicode="&#x13a;" horiz-adv-x="284" d="M239 46 Q239 26 225 13 Q211 0 191 0 L93 0 Q73 0 59 13 Q45 26 45 46 L45 539 Q45 559 59 572 Q73 585 93 585 L191 585 Q211 585 225 572 Q239 559 239 539 L239 46 Z M239 677 Q231 666 222 659 Q213 652 199 652 L133 652 Q113 652 100 664.5 Q87 677 87 696 L135 802 Q144 819 154.5 832.5 Q165 846 185 846 L281 846 Q301 846 314 833.5 Q327 821 327 802 L239 677 Z " />
<glyph glyph-name="uni013B" unicode="&#x13b;" horiz-adv-x="515" d="M454 151 Q471 151 483 138 Q495 125 495 108 L495 43 Q495 26 483 13 Q471 0 454 0 L93 0 Q73 0 59 13 Q45 26 45 46 L45 539 Q45 559 59 572 Q73 585 93 585 L191 585 Q211 585 225 572 Q239 559 239 539 L239 151 L454 151 Z M316 -260 Q308 -271 299 -278 Q290 -285 276 -285 L227 -285 Q207 -285 194 -272.5 Q181 -260 181 -241 L196 -135 Q205 -118 217 -104.5 Q229 -91 254 -91 L321 -91 Q341 -91 354 -103.5 Q367 -116 367 -135 L316 -260 Z " />
<glyph glyph-name="uni013C" unicode="&#x13c;" horiz-adv-x="284" d="M239 46 Q239 26 225 13 Q211 0 191 0 L93 0 Q73 0 59 13 Q45 26 45 46 L45 539 Q45 559 59 572 Q73 585 93 585 L191 585 Q211 585 225 572 Q239 559 239 539 L239 46 Z M169 -260 Q161 -271 152 -278 Q143 -285 129 -285 L80 -285 Q60 -285 47 -272.5 Q34 -260 34 -241 L49 -135 Q58 -118 70 -104.5 Q82 -91 107 -91 L174 -91 Q194 -91 207 -103.5 Q220 -116 220 -135 L169 -260 Z " />
<glyph glyph-name="Lcaron" unicode="&#x13d;" horiz-adv-x="515" d="M454 151 Q471 151 483 138 Q495 125 495 108 L495 43 Q495 26 483 13 Q471 0 454 0 L93 0 Q73 0 59 13 Q45 26 45 46 L45 539 Q45 559 59 572 Q73 585 93 585 L191 585 Q211 585 225 572 Q239 559 239 539 L239 151 L454 151 Z M323 548 Q328 563 337 574 Q346 585 362 585 L441 585 Q457 585 465.5 574.5 Q474 564 474 548 L416 434 Q411 424 402.5 418 Q394 412 383 412 L327 412 Q311 412 302.5 422.5 Q294 433 294 449 L323 548 Z " />
<glyph glyph-name="lcaron" unicode="&#x13e;" horiz-adv-x="497" d="M239 46 Q239 26 225 13 Q211 0 191 0 L93 0 Q73 0 59 13 Q45 26 45 46 L45 539 Q45 559 59 572 Q73 585 93 585 L191 585 Q211 585 225 572 Q239 559 239 539 L239 46 Z M347 548 Q353 562 363 573.5 Q373 585 389 585 L464 585 Q480 585 488.5 574.5 Q497 564 497 548 L427 413 Q422 403 413.5 397 Q405 391 394 391 L328 391 Q312 391 303.5 401.5 Q295 412 295 428 L347 548 Z " />
<glyph glyph-name="Lslash" unicode="&#x141;" horiz-adv-x="566" d="M96 365 L96 539 Q96 559 110 572 Q124 585 144 585 L242 585 Q262 585 276 572 Q290 559 290 539 L290 416 L343 430 Q359 430 369.5 419 Q380 408 380 391 L380 322 Q380 305 369 296.5 Q358 288 343 283 L290 269 L290 151 L505 151 Q522 151 534 138 Q546 125 546 108 L546 43 Q546 26 534 13 Q522 0 505 0 L144 0 Q124 0 110 13 Q96 26 96 46 L96 218 L47 206 Q31 206 20.5 217 Q10 228 10 245 L10 314 Q10 331 21 340 Q32 349 47 353 L96 365 Z " />
<glyph glyph-name="lslash" unicode="&#x142;" horiz-adv-x="390" d="M293 270 L293 46 Q293 26 278 13 Q263 0 243 0 L145 0 Q125 0 111 13 Q97 26 97 46 L97 219 L47 206 Q31 206 20.5 217 Q10 228 10 245 L10 314 Q10 331 21 340 Q32 349 47 353 L97 366 L97 539 Q97 559 111 572 Q125 585 145 585 L243 585 Q263 585 278 572 Q293 559 293 539 L293 417 L343 430 Q359 430 369.5 419 Q380 408 380 391 L380 322 Q380 305 369 296.5 Q358 288 343 283 L293 270 Z " />
<glyph glyph-name="Nacute" unicode="&#x143;" horiz-adv-x="662" d="M423 301 L423 539 Q423 559 437 572 Q451 585 471 585 L569 585 Q589 585 603 572 Q617 559 617 539 L617 46 Q617 26 603 13 Q589 0 569 0 L460 0 Q426 0 411 29 L239 281 L239 46 Q239 26 225 13 Q211 0 191 0 L93 0 Q73 0 59 13 Q45 26 45 46 L45 539 Q45 559 59 572 Q73 585 93 585 L202 585 Q238 585 252 556 L423 301 Z M423 677 Q415 666 406 659 Q397 652 383 652 L317 652 Q297 652 284 664.5 Q271 677 271 696 L319 802 Q328 819 338.5 832.5 Q349 846 369 846 L465 846 Q485 846 498 833.5 Q511 821 511 802 L423 677 Z " />
<glyph glyph-name="nacute" unicode="&#x144;" horiz-adv-x="577" d="M239 376 Q270 414 307.5 427 Q345 440 377 440 Q455 440 498.5 384 Q542 328 542 211 L542 46 Q542 26 528 13 Q514 0 494 0 L396 0 Q376 0 362 13 Q348 26 348 46 L348 259 Q348 282 331 296 Q314 310 294 310 Q274 310 256.5 296 Q239 282 239 262 L239 46 Q239 26 225 13 Q211 0 191 0 L93 0 Q73 0 59 13 Q45 26 45 46 L45 379 Q45 399 59 412 Q73 425 93 425 L191 425 Q211 425 225 411.5 Q239 398 239 376 Z M373 532 Q365 521 356 514 Q347 507 333 507 L267 507 Q247 507 234 519.5 Q221 532 221 551 L269 657 Q278 674 288.5 687.5 Q299 701 319 701 L415 701 Q435 701 448 688.5 Q461 676 461 657 L373 532 Z " />
<glyph glyph-name="uni0145" unicode="&#x145;" horiz-adv-x="662" d="M423 301 L423 539 Q423 559 437 572 Q451 585 471 585 L569 585 Q589 585 603 572 Q617 559 617 539 L617 46 Q617 26 603 13 Q589 0 569 0 L460 0 Q426 0 411 29 L239 281 L239 46 Q239 26 225 13 Q211 0 191 0 L93 0 Q73 0 59 13 Q45 26 45 46 L45 539 Q45 559 59 572 Q73 585 93 585 L202 585 Q238 585 252 556 L423 301 Z M365 -260 Q357 -271 348 -278 Q339 -285 325 -285 L276 -285 Q256 -285 243 -272.5 Q230 -260 230 -241 L245 -135 Q254 -118 266 -104.5 Q278 -91 303 -91 L370 -91 Q390 -91 403 -103.5 Q416 -116 416 -135 L365 -260 Z " />
<glyph glyph-name="uni0146" unicode="&#x146;" horiz-adv-x="577" d="M239 376 Q270 414 307.5 427 Q345 440 377 440 Q455 440 498.5 384 Q542 328 542 211 L542 46 Q542 26 528 13 Q514 0 494 0 L396 0 Q376 0 362 13 Q348 26 348 46 L348 259 Q348 282 331 296 Q314 310 294 310 Q274 310 256.5 296 Q239 282 239 262 L239 46 Q239 26 225 13 Q211 0 191 0 L93 0 Q73 0 59 13 Q45 26 45 46 L45 379 Q45 399 59 412 Q73 425 93 425 L191 425 Q211 425 225 411.5 Q239 398 239 376 Z M326 -260 Q318 -271 309 -278 Q300 -285 286 -285 L237 -285 Q217 -285 204 -272.5 Q191 -260 191 -241 L206 -135 Q215 -118 227 -104.5 Q239 -91 264 -91 L331 -91 Q351 -91 364 -103.5 Q377 -116 377 -135 L326 -260 Z " />
<glyph glyph-name="Ncaron" unicode="&#x147;" horiz-adv-x="662" d="M423 301 L423 539 Q423 559 437 572 Q451 585 471 585 L569 585 Q589 585 603 572 Q617 559 617 539 L617 46 Q617 26 603 13 Q589 0 569 0 L460 0 Q426 0 411 29 L239 281 L239 46 Q239 26 225 13 Q211 0 191 0 L93 0 Q73 0 59 13 Q45 26 45 46 L45 539 Q45 559 59 572 Q73 585 93 585 L202 585 Q238 585 252 556 L423 301 Z M418 685 Q411 672 403 662 Q395 652 381 652 L285 652 Q271 652 263 662 Q255 672 248 685 L158 846 Q158 860 168 869.5 Q178 879 192 879 L272 879 Q286 879 295.5 869.5 Q305 860 311 846 L333 797 L355 846 Q361 860 370.5 869.5 Q380 879 394 879 L474 879 Q488 879 498 869.5 Q508 860 508 846 L418 685 Z " />
<glyph glyph-name="ncaron" unicode="&#x148;" horiz-adv-x="577" d="M239 376 Q270 414 307.5 427 Q345 440 377 440 Q455 440 498.5 384 Q542 328 542 211 L542 46 Q542 26 528 13 Q514 0 494 0 L396 0 Q376 0 362 13 Q348 26 348 46 L348 259 Q348 282 331 296 Q314 310 294 310 Q274 310 256.5 296 Q239 282 239 262 L239 46 Q239 26 225 13 Q211 0 191 0 L93 0 Q73 0 59 13 Q45 26 45 46 L45 379 Q45 399 59 412 Q73 425 93 425 L191 425 Q211 425 225 411.5 Q239 398 239 376 Z M370 540 Q363 527 355 517 Q347 507 333 507 L237 507 Q223 507 215 517 Q207 527 200 540 L110 701 Q110 715 120 724.5 Q130 734 144 734 L224 734 Q238 734 247.5 724.5 Q257 715 263 701 L285 652 L307 701 Q313 715 322.5 724.5 Q332 734 346 734 L426 734 Q440 734 450 724.5 Q460 715 460 701 L370 540 Z " />
<glyph glyph-name="Eng" unicode="&#x14a;" horiz-adv-x="662" d="M423 13 Q420 16 416 21.5 Q412 27 394.5 52.5 Q377 78 341 131 Q305 184 239 281 L239 46 Q239 26 225 13 Q211 0 191 0 L93 0 Q73 0 59 13 Q45 26 45 46 L45 539 Q45 559 59 572 Q73 585 93 585 L202 585 Q238 585 252 556 L423 301 L423 539 Q423 559 437 572 Q451 585 471 585 L569 585 Q589 585 603 572 Q617 559 617 539 L617 -21 Q617 -112 575.5 -162.5 Q534 -213 452 -213 Q438 -213 414.5 -212.5 Q391 -212 370 -209 Q356 -209 345.5 -198.5 Q335 -188 335 -173 L335 -109 Q335 -93 346 -81.5 Q357 -70 371 -70 L376 -70 Q402 -70 412.5 -59.5 Q423 -49 423 -35 L423 13 Z " />
<glyph glyph-name="eng" unicode="&#x14b;" horiz-adv-x="577" d="M542 -21 Q542 -112 500.5 -162.5 Q459 -213 377 -213 Q363 -213 339.5 -212.5 Q316 -212 295 -209 Q281 -209 270.5 -198.5 Q260 -188 260 -173 L260 -109 Q260 -93 271 -81.5 Q282 -70 296 -70 L301 -70 Q327 -70 337.5 -59.5 Q348 -49 348 -35 L348 259 Q348 282 331 296 Q314 310 294 310 Q274 310 256.5 296 Q239 282 239 262 L239 46 Q239 26 225 13 Q211 0 191 0 L93 0 Q73 0 59 13 Q45 26 45 46 L45 379 Q45 399 59 412 Q73 425 93 425 L191 425 Q211 425 225 411.5 Q239 398 239 376 Q270 414 307.5 427 Q345 440 377 440 Q455 440 498.5 384 Q542 328 542 211 L542 -21 Z " />
<glyph glyph-name="Omacron" unicode="&#x14c;" horiz-adv-x="658" d="M329 125 Q356 125 377 138 Q398 151 411.5 173.5 Q425 196 432 225.5 Q439 255 439 287 Q439 322 432 353.5 Q425 385 411.5 409 Q398 433 377 447 Q356 461 329 461 Q302 461 281 447 Q260 433 246.5 409 Q233 385 226 353.5 Q219 322 219 287 Q219 255 226 225.5 Q233 196 246.5 173.5 Q260 151 281 138 Q302 125 329 125 Z M329 -14 Q245 -14 187 15.5 Q129 45 93 90 Q57 135 41 188 Q25 241 25 287 Q25 336 41 391 Q57 446 93 492 Q129 538 187 568.5 Q245 599 329 599 Q413 599 471 568.5 Q529 538 565 492 Q601 446 617 391 Q633 336 633 287 Q633 241 617 188 Q601 135 565 90 Q529 45 471 15.5 Q413 -14 329 -14 Z M173 652 Q156 652 144 665 Q132 678 132 695 L132 757 Q132 774 144 787 Q156 800 173 800 L485 800 Q502 800 514 787 Q526 774 526 757 L526 695 Q526 678 514 665 Q502 652 485 652 L173 652 Z " />
<glyph glyph-name="omacron" unicode="&#x14d;" horiz-adv-x="538" d="M269 117 Q294 117 311 138.5 Q328 160 328 214 Q328 262 312 286 Q296 310 269 310 Q242 310 226 286 Q210 262 210 214 Q210 161 227 139 Q244 117 269 117 Z M25 214 Q25 253 37 293.5 Q49 334 77.5 366.5 Q106 399 152.5 419.5 Q199 440 269 440 Q339 440 385.5 419.5 Q432 399 460.5 366.5 Q489 334 501 293.5 Q513 253 513 214 Q513 174 501 133 Q489 92 460.5 60 Q432 28 385.5 7.5 Q339 -13 269 -13 Q199 -13 152.5 7.5 Q106 28 77.5 60 Q49 92 37 133 Q25 174 25 214 Z M113 507 Q96 507 84 520 Q72 533 72 550 L72 612 Q72 629 84 642 Q96 655 113 655 L425 655 Q442 655 454 642 Q466 629 466 612 L466 550 Q466 533 454 520 Q442 507 425 507 L113 507 Z " />
<glyph glyph-name="Ohungarumlaut" unicode="&#x150;" horiz-adv-x="658" d="M329 125 Q356 125 377 138 Q398 151 411.5 173.5 Q425 196 432 225.5 Q439 255 439 287 Q439 322 432 353.5 Q425 385 411.5 409 Q398 433 377 447 Q356 461 329 461 Q302 461 281 447 Q260 433 246.5 409 Q233 385 226 353.5 Q219 322 219 287 Q219 255 226 225.5 Q233 196 246.5 173.5 Q260 151 281 138 Q302 125 329 125 Z M329 -14 Q245 -14 187 15.5 Q129 45 93 90 Q57 135 41 188 Q25 241 25 287 Q25 336 41 391 Q57 446 93 492 Q129 538 187 568.5 Q245 599 329 599 Q413 599 471 568.5 Q529 538 565 492 Q601 446 617 391 Q633 336 633 287 Q633 241 617 188 Q601 135 565 90 Q529 45 471 15.5 Q413 -14 329 -14 Z M386 809 Q388 825 398 835.5 Q408 846 425 846 L500 846 Q517 846 528 835.5 Q539 825 539 809 L513 689 Q511 673 501 662.5 Q491 652 474 652 L399 652 Q382 652 371 662.5 Q360 673 360 689 L386 809 Z M186 809 Q188 825 198 835.5 Q208 846 225 846 L300 846 Q317 846 328 835.5 Q339 825 339 809 L313 689 Q311 673 301 662.5 Q291 652 274 652 L199 652 Q182 652 171 662.5 Q160 673 160 689 L186 809 Z " />
<glyph glyph-name="ohungarumlaut" unicode="&#x151;" horiz-adv-x="538" d="M269 117 Q294 117 311 138.5 Q328 160 328 214 Q328 262 312 286 Q296 310 269 310 Q242 310 226 286 Q210 262 210 214 Q210 161 227 139 Q244 117 269 117 Z M25 214 Q25 253 37 293.5 Q49 334 77.5 366.5 Q106 399 152.5 419.5 Q199 440 269 440 Q339 440 385.5 419.5 Q432 399 460.5 366.5 Q489 334 501 293.5 Q513 253 513 214 Q513 174 501 133 Q489 92 460.5 60 Q432 28 385.5 7.5 Q339 -13 269 -13 Q199 -13 152.5 7.5 Q106 28 77.5 60 Q49 92 37 133 Q25 174 25 214 Z M331 664 Q333 680 343 690.5 Q353 701 370 701 L445 701 Q462 701 473 690.5 Q484 680 484 664 L458 544 Q456 528 446 517.5 Q436 507 419 507 L344 507 Q327 507 316 517.5 Q305 528 305 544 L331 664 Z M131 664 Q133 680 143 690.5 Q153 701 170 701 L245 701 Q262 701 273 690.5 Q284 680 284 664 L258 544 Q256 528 246 517.5 Q236 507 219 507 L144 507 Q127 507 116 517.5 Q105 528 105 544 L131 664 Z " />
<glyph glyph-name="OE" unicode="&#x152;" horiz-adv-x="886" d="M323 125 Q349 125 373.5 141.5 Q398 158 406 194 L406 386 Q398 423 373.5 442 Q349 461 323 461 Q298 461 278.5 447 Q259 433 245.5 409 Q232 385 225.5 353.5 Q219 322 219 287 Q219 255 225.5 225.5 Q232 196 245.5 173.5 Q259 151 278.5 138 Q298 125 323 125 Z M429 0 Q406 -6 379 -9.5 Q352 -13 323 -13 Q239 -13 182 16.5 Q125 46 90 91 Q55 136 40 188.5 Q25 241 25 287 Q25 336 40 391 Q55 446 90 492 Q125 538 182 568.5 Q239 599 323 599 Q380 599 430 585 L815 585 Q832 585 844 572 Q856 559 856 542 L856 477 Q856 460 844 447 Q832 434 815 434 L600 434 L600 359 L755 359 Q770 359 781 347.5 Q792 336 792 320 L792 262 Q792 246 781 234.5 Q770 223 755 223 L600 223 L600 151 L815 151 Q832 151 844 138 Q856 125 856 108 L856 43 Q856 26 844 13 Q832 0 815 0 L429 0 Z " />
<glyph glyph-name="oe" unicode="&#x153;" horiz-adv-x="827" d="M269 117 Q294 117 311 138.5 Q328 160 328 214 Q328 262 312 286 Q296 310 269 310 Q242 310 226 286 Q210 262 210 214 Q210 161 227 139 Q244 117 269 117 Z M569 320 Q549 320 532.5 310 Q516 300 509 265 L631 265 Q624 300 606.5 310 Q589 320 569 320 Z M517 180 Q517 151 532 134 Q547 117 573 117 Q585 117 597.5 119 Q610 121 619 128 Q626 134 634.5 136 Q643 138 654 138 L747 138 Q766 138 779 132.5 Q792 127 792 104 Q769 55 716.5 21 Q664 -13 574 -13 Q525 -13 488 -2 Q451 9 424 27 Q396 8 358 -2.5 Q320 -13 269 -13 Q199 -13 152.5 7.5 Q106 28 77.5 60 Q49 92 37 133 Q25 174 25 214 Q25 253 37 293.5 Q49 334 77.5 366.5 Q106 399 152.5 419.5 Q199 440 269 440 Q319 440 356.5 429.5 Q394 419 422 400 Q449 418 485.5 429 Q522 440 571 440 Q638 440 683.5 420 Q729 400 756.5 368.5 Q784 337 795.5 299.5 Q807 262 807 226 Q807 206 793 193 Q779 180 759 180 L517 180 Z " />
<glyph glyph-name="Racute" unicode="&#x154;" horiz-adv-x="588" d="M568 372 Q568 350 563 326 Q558 302 547 278.5 Q536 255 518 234 Q500 213 474 196 L545 46 Q545 26 531 13 Q517 0 497 0 L406 0 Q386 0 373 13.5 Q360 27 352 46 L298 158 L239 158 L239 47 Q239 27 225 13.5 Q211 0 191 0 L93 0 Q73 0 59 13 Q45 26 45 46 L45 539 Q45 559 59 572 Q73 585 93 585 L323 585 Q393 585 440 564.5 Q487 544 515.5 512.5 Q544 481 556 443.5 Q568 406 568 372 Z M319 309 Q346 309 364.5 325 Q383 341 383 371 Q383 401 364.5 417.5 Q346 434 319 434 L239 434 L239 309 L319 309 Z M360 677 Q352 666 343 659 Q334 652 320 652 L254 652 Q234 652 221 664.5 Q208 677 208 696 L256 802 Q265 819 275.5 832.5 Q286 846 306 846 L402 846 Q422 846 435 833.5 Q448 821 448 802 L360 677 Z " />
<glyph glyph-name="racute" unicode="&#x155;" horiz-adv-x="412" d="M354 436 Q371 436 386.5 427 Q402 418 402 397 L402 335 Q402 319 392 308.5 Q382 298 367 298 Q356 300 346.5 300 Q337 300 330 300 Q292 300 265.5 278.5 Q239 257 239 229 L239 46 Q239 26 225 13 Q211 0 191 0 L93 0 Q73 0 59 13 Q45 26 45 46 L45 379 Q45 399 59 412 Q73 425 93 425 L191 425 Q211 425 225 410.5 Q239 396 239 376 Q251 399 266 411 Q281 423 297 428.5 Q313 434 328 435 Q343 436 354 436 Z M217 532 Q209 521 200 514 Q191 507 177 507 L111 507 Q91 507 78 519.5 Q65 532 65 551 L113 657 Q122 674 132.5 687.5 Q143 701 163 701 L259 701 Q279 701 292 688.5 Q305 676 305 657 L217 532 Z " />
<glyph glyph-name="uni0156" unicode="&#x156;" horiz-adv-x="588" d="M568 372 Q568 350 563 326 Q558 302 547 278.5 Q536 255 518 234 Q500 213 474 196 L545 46 Q545 26 531 13 Q517 0 497 0 L406 0 Q386 0 373 13.5 Q360 27 352 46 L298 158 L239 158 L239 47 Q239 27 225 13.5 Q211 0 191 0 L93 0 Q73 0 59 13 Q45 26 45 46 L45 539 Q45 559 59 572 Q73 585 93 585 L323 585 Q393 585 440 564.5 Q487 544 515.5 512.5 Q544 481 556 443.5 Q568 406 568 372 Z M319 309 Q346 309 364.5 325 Q383 341 383 371 Q383 401 364.5 417.5 Q346 434 319 434 L239 434 L239 309 L319 309 Z M329 -260 Q321 -271 312 -278 Q303 -285 289 -285 L240 -285 Q220 -285 207 -272.5 Q194 -260 194 -241 L209 -135 Q218 -118 230 -104.5 Q242 -91 267 -91 L334 -91 Q354 -91 367 -103.5 Q380 -116 380 -135 L329 -260 Z " />
<glyph glyph-name="uni0157" unicode="&#x157;" horiz-adv-x="412" d="M354 436 Q371 436 386.5 427 Q402 418 402 397 L402 335 Q402 319 392 308.5 Q382 298 367 298 Q356 300 346.5 300 Q337 300 330 300 Q292 300 265.5 278.5 Q239 257 239 229 L239 46 Q239 26 225 13 Q211 0 191 0 L93 0 Q73 0 59 13 Q45 26 45 46 L45 379 Q45 399 59 412 Q73 425 93 425 L191 425 Q211 425 225 410.5 Q239 396 239 376 Q251 399 266 411 Q281 423 297 428.5 Q313 434 328 435 Q343 436 354 436 Z M186 -260 Q178 -271 169 -278 Q160 -285 146 -285 L97 -285 Q77 -285 64 -272.5 Q51 -260 51 -241 L66 -135 Q75 -118 87 -104.5 Q99 -91 124 -91 L191 -91 Q211 -91 224 -103.5 Q237 -116 237 -135 L186 -260 Z " />
<glyph glyph-name="Rcaron" unicode="&#x158;" horiz-adv-x="588" d="M568 372 Q568 350 563 326 Q558 302 547 278.5 Q536 255 518 234 Q500 213 474 196 L545 46 Q545 26 531 13 Q517 0 497 0 L406 0 Q386 0 373 13.5 Q360 27 352 46 L298 158 L239 158 L239 47 Q239 27 225 13.5 Q211 0 191 0 L93 0 Q73 0 59 13 Q45 26 45 46 L45 539 Q45 559 59 572 Q73 585 93 585 L323 585 Q393 585 440 564.5 Q487 544 515.5 512.5 Q544 481 556 443.5 Q568 406 568 372 Z M319 309 Q346 309 364.5 325 Q383 341 383 371 Q383 401 364.5 417.5 Q346 434 319 434 L239 434 L239 309 L319 309 Z M360 685 Q353 672 345 662 Q337 652 323 652 L227 652 Q213 652 205 662 Q197 672 190 685 L100 846 Q100 860 110 869.5 Q120 879 134 879 L214 879 Q228 879 237.5 869.5 Q247 860 253 846 L275 797 L297 846 Q303 860 312.5 869.5 Q322 879 336 879 L416 879 Q430 879 440 869.5 Q450 860 450 846 L360 685 Z " />
<glyph glyph-name="rcaron" unicode="&#x159;" horiz-adv-x="412" d="M354 436 Q371 436 386.5 427 Q402 418 402 397 L402 335 Q402 319 392 308.5 Q382 298 367 298 Q356 300 346.5 300 Q337 300 330 300 Q292 300 265.5 278.5 Q239 257 239 229 L239 46 Q239 26 225 13 Q211 0 191 0 L93 0 Q73 0 59 13 Q45 26 45 46 L45 379 Q45 399 59 412 Q73 425 93 425 L191 425 Q211 425 225 410.5 Q239 396 239 376 Q251 399 266 411 Q281 423 297 428.5 Q313 434 328 435 Q343 436 354 436 Z M300 537 Q293 526 285 516.5 Q277 507 264 507 L179 507 Q166 507 158 516.5 Q150 526 143 537 L60 686 Q60 699 69 708 Q78 717 91 717 L165 717 Q179 717 187.5 707.5 Q196 698 201 686 L221 641 L242 686 Q247 698 255.5 707.5 Q264 717 278 717 L352 717 Q365 717 374 708 Q383 699 383 686 L300 537 Z " />
<glyph glyph-name="Sacute" unicode="&#x15a;" horiz-adv-x="629" d="M37 138 Q37 167 54.5 175 Q72 183 96 183 L194 183 Q212 183 223.5 176 Q235 169 243 155 Q254 137 276 131 Q298 125 336 125 Q360 125 374 127.5 Q388 130 395 135.5 Q402 141 404 148.5 Q406 156 406 165 Q406 176 395 183 Q384 190 365.5 195 Q347 200 323 204 Q299 208 273 213 Q228 221 184 234 Q140 247 106 267 Q72 287 51 317 Q30 347 30 390 Q30 433 44.5 471 Q59 509 91.5 537.5 Q124 566 176 582.5 Q228 599 302 599 Q351 599 396.5 591 Q442 583 478.5 565 Q515 547 541 519 Q567 491 577 452 Q577 423 559.5 415 Q542 407 518 407 L414 407 Q396 407 384.5 414 Q373 421 365 435 Q356 446 337.5 453.5 Q319 461 293 461 Q269 461 255 456 Q241 451 234 444.5 Q227 438 225 431.5 Q223 425 223 421 Q223 407 249.5 395.5 Q276 384 310.5 375.5 Q345 367 379 361 Q413 355 428 352 Q466 345 497 332 Q528 319 551 299.5 Q574 280 586.5 252.5 Q599 225 599 188 Q599 145 583 108.5 Q567 72 532.5 45 Q498 18 445 2.5 Q392 -13 317 -13 Q268 -13 222 -4.5 Q176 4 138.5 22 Q101 40 74.5 68.5 Q48 97 37 138 Z M492 802 Q492 821 479 833.5 Q466 846 446 846 L350 846 Q330 846 319.5 832.5 Q309 819 300 802 L252 696 Q252 677 265 664.5 Q278 652 298 652 L364 652 Q378 652 387 659 Q396 666 404 677 L492 802 Z " />
<glyph glyph-name="sacute" unicode="&#x15b;" horiz-adv-x="466" d="M27 104 Q27 127 40 132.5 Q53 138 72 138 L146 138 Q160 138 167.5 132.5 Q175 127 183 117 Q189 109 202 104 Q215 99 232 99 Q270 99 278.5 107 Q287 115 287 122 Q287 133 261.5 138 Q236 143 194 151 Q165 156 135 166 Q105 176 80.5 192 Q56 208 40.5 231 Q25 254 25 285 Q25 317 35.5 345 Q46 373 70 394 Q94 415 132.5 427.5 Q171 440 226 440 Q300 440 352.5 413 Q405 386 426 322 Q426 299 413 293.5 Q400 288 381 288 L307 288 Q293 288 284.5 293 Q276 298 270 309 Q265 317 255.5 321.5 Q246 326 226 326 Q211 326 202.5 323.5 Q194 321 190 317 Q186 313 185 309.5 Q184 306 184 303 Q184 293 201 285.5 Q218 278 240.5 273 Q263 268 285.5 265 Q308 262 319 260 Q376 250 411 220 Q446 190 446 136 Q446 104 434 77 Q422 50 396.5 30 Q371 10 331.5 -1.5 Q292 -13 237 -13 Q200 -13 167 -7 Q134 -1 106.5 13 Q79 27 58.5 49.5 Q38 72 27 104 Z M400 657 Q400 676 387 688.5 Q374 701 354 701 L258 701 Q238 701 227.5 687.5 Q217 674 208 657 L160 551 Q160 532 173 519.5 Q186 507 206 507 L272 507 Q286 507 295 514 Q304 521 312 532 L400 657 Z " />
<glyph glyph-name="Scircumflex" unicode="&#x15c;" horiz-adv-x="629" d="M37 138 Q37 167 54.5 175 Q72 183 96 183 L194 183 Q212 183 223.5 176 Q235 169 243 155 Q254 137 276 131 Q298 125 336 125 Q360 125 374 127.5 Q388 130 395 135.5 Q402 141 404 148.5 Q406 156 406 165 Q406 176 395 183 Q384 190 365.5 195 Q347 200 323 204 Q299 208 273 213 Q228 221 184 234 Q140 247 106 267 Q72 287 51 317 Q30 347 30 390 Q30 433 44.5 471 Q59 509 91.5 537.5 Q124 566 176 582.5 Q228 599 302 599 Q351 599 396.5 591 Q442 583 478.5 565 Q515 547 541 519 Q567 491 577 452 Q577 423 559.5 415 Q542 407 518 407 L414 407 Q396 407 384.5 414 Q373 421 365 435 Q356 446 337.5 453.5 Q319 461 293 461 Q269 461 255 456 Q241 451 234 444.5 Q227 438 225 431.5 Q223 425 223 421 Q223 407 249.5 395.5 Q276 384 310.5 375.5 Q345 367 379 361 Q413 355 428 352 Q466 345 497 332 Q528 319 551 299.5 Q574 280 586.5 252.5 Q599 225 599 188 Q599 145 583 108.5 Q567 72 532.5 45 Q498 18 445 2.5 Q392 -13 317 -13 Q268 -13 222 -4.5 Q176 4 138.5 22 Q101 40 74.5 68.5 Q48 97 37 138 Z M385 846 Q378 859 370 869 Q362 879 348 879 L252 879 Q238 879 230 869 Q222 859 215 846 L125 685 Q125 671 135 661.5 Q145 652 159 652 L239 652 Q253 652 262.5 661.5 Q272 671 278 685 L300 734 L322 685 Q328 671 337.5 661.5 Q347 652 361 652 L441 652 Q455 652 465 661.5 Q475 671 475 685 L385 846 Z " />
<glyph glyph-name="scircumflex" unicode="&#x15d;" horiz-adv-x="466" d="M27 104 Q27 127 40 132.5 Q53 138 72 138 L146 138 Q160 138 167.5 132.5 Q175 127 183 117 Q189 109 202 104 Q215 99 232 99 Q270 99 278.5 107 Q287 115 287 122 Q287 133 261.5 138 Q236 143 194 151 Q165 156 135 166 Q105 176 80.5 192 Q56 208 40.5 231 Q25 254 25 285 Q25 317 35.5 345 Q46 373 70 394 Q94 415 132.5 427.5 Q171 440 226 440 Q300 440 352.5 413 Q405 386 426 322 Q426 299 413 293.5 Q400 288 381 288 L307 288 Q293 288 284.5 293 Q276 298 270 309 Q265 317 255.5 321.5 Q246 326 226 326 Q211 326 202.5 323.5 Q194 321 190 317 Q186 313 185 309.5 Q184 306 184 303 Q184 293 201 285.5 Q218 278 240.5 273 Q263 268 285.5 265 Q308 262 319 260 Q376 250 411 220 Q446 190 446 136 Q446 104 434 77 Q422 50 396.5 30 Q371 10 331.5 -1.5 Q292 -13 237 -13 Q200 -13 167 -7 Q134 -1 106.5 13 Q79 27 58.5 49.5 Q38 72 27 104 Z M312 701 Q305 714 297 724 Q289 734 275 734 L179 734 Q165 734 157 724 Q149 714 142 701 L52 540 Q52 526 62 516.5 Q72 507 86 507 L166 507 Q180 507 189.5 516.5 Q199 526 205 540 L227 589 L249 540 Q255 526 264.5 516.5 Q274 507 288 507 L368 507 Q382 507 392 516.5 Q402 526 402 540 L312 701 Z " />
<glyph glyph-name="Scedilla" unicode="&#x15e;" horiz-adv-x="629" d="M599 188 Q599 151 587 118 Q575 85 549 59 Q523 33 483 15.5 Q443 -2 387 -9 L387 -37 Q411 -38 431 -48 Q448 -57 461 -75.5 Q474 -94 474 -128 Q474 -154 462 -175 Q450 -196 430.5 -210.5 Q411 -225 385.5 -233 Q360 -241 333 -241 Q318 -241 300.5 -239 Q283 -237 271 -235 Q260 -235 251.5 -226 Q243 -217 243 -206 L243 -165 Q243 -154 251.5 -145 Q260 -136 271 -136 Q275 -137 280 -137 Q285 -137 289 -137 Q297 -137 306.5 -136 Q316 -135 324.5 -132.5 Q333 -130 338.5 -125.5 Q344 -121 344 -114 Q344 -100 327.5 -93 Q311 -86 294 -86 Q285 -86 279.5 -79.5 Q274 -73 274 -65 L284 -12 Q240 -9 199.5 0.5 Q159 10 126.5 28 Q94 46 70.5 73.5 Q47 101 37 138 Q37 167 54.5 175 Q72 183 96 183 L194 183 Q212 183 223.5 176 Q235 169 243 155 Q254 137 276 131 Q298 125 336 125 Q360 125 374 127.5 Q388 130 395 135.5 Q402 141 404 148.5 Q406 156 406 165 Q406 176 395 183 Q384 190 365.5 195 Q347 200 323 204 Q299 208 273 213 Q228 221 184 234 Q140 247 106 267 Q72 287 51 317 Q30 347 30 390 Q30 433 44.5 471 Q59 509 91.5 537.5 Q124 566 176 582.5 Q228 599 302 599 Q351 599 396.5 591 Q442 583 478.5 565 Q515 547 541 519 Q567 491 577 452 Q577 423 559.5 415 Q542 407 518 407 L414 407 Q396 407 384.5 414 Q373 421 365 435 Q356 446 337.5 453.5 Q319 461 293 461 Q269 461 255 456 Q241 451 234 444.5 Q227 438 225 431.5 Q223 425 223 421 Q223 407 249.5 395.5 Q276 384 310.5 375.5 Q345 367 379 361 Q413 355 428 352 Q466 345 497 332 Q528 319 551 299.5 Q574 280 586.5 252.5 Q599 225 599 188 Z " />
<glyph glyph-name="scedilla" unicode="&#x15f;" horiz-adv-x="466" d="M446 136 Q446 80 408.5 40 Q371 0 288 -10 L288 -37 Q312 -38 332 -48 Q349 -57 362 -75.5 Q375 -94 375 -128 Q375 -154 363 -175 Q351 -196 331.5 -210.5 Q312 -225 286.5 -233 Q261 -241 234 -241 Q219 -241 201.5 -239 Q184 -237 172 -235 Q161 -235 152.5 -226 Q144 -217 144 -206 L144 -165 Q144 -154 152.5 -145 Q161 -136 172 -136 Q176 -137 181 -137 Q186 -137 190 -137 Q198 -137 207.5 -136 Q217 -135 225.5 -132.5 Q234 -130 239.5 -125.5 Q245 -121 245 -114 Q245 -100 228.5 -93 Q212 -86 195 -86 Q186 -86 180.5 -79.5 Q175 -73 175 -65 L186 -10 Q129 -2 87 24 Q45 50 27 104 Q27 127 40 132.5 Q53 138 72 138 L146 138 Q160 138 167.5 132.5 Q175 127 183 117 Q189 109 202 104 Q215 99 232 99 Q270 99 278.5 107 Q287 115 287 122 Q287 133 261.5 138 Q236 143 194 151 Q165 156 135 166 Q105 176 80.5 192 Q56 208 40.5 231 Q25 254 25 285 Q25 317 35.5 345 Q46 373 70 394 Q94 415 132.5 427.5 Q171 440 226 440 Q300 440 352.5 413 Q405 386 426 322 Q426 299 413 293.5 Q400 288 381 288 L307 288 Q293 288 284.5 293 Q276 298 270 309 Q265 317 255.5 321.5 Q246 326 226 326 Q211 326 202.5 323.5 Q194 321 190 317 Q186 313 185 309.5 Q184 306 184 303 Q184 293 201 285.5 Q218 278 240.5 273 Q263 268 285.5 265 Q308 262 319 260 Q376 250 411 220 Q446 190 446 136 Z " />
<glyph glyph-name="Scaron" unicode="&#x160;" horiz-adv-x="629" d="M37 138 Q37 167 54.5 175 Q72 183 96 183 L194 183 Q212 183 223.5 176 Q235 169 243 155 Q254 137 276 131 Q298 125 336 125 Q360 125 374 127.5 Q388 130 395 135.5 Q402 141 404 148.5 Q406 156 406 165 Q406 176 395 183 Q384 190 365.5 195 Q347 200 323 204 Q299 208 273 213 Q228 221 184 234 Q140 247 106 267 Q72 287 51 317 Q30 347 30 390 Q30 433 44.5 471 Q59 509 91.5 537.5 Q124 566 176 582.5 Q228 599 302 599 Q351 599 396.5 591 Q442 583 478.5 565 Q515 547 541 519 Q567 491 577 452 Q577 423 559.5 415 Q542 407 518 407 L414 407 Q396 407 384.5 414 Q373 421 365 435 Q356 446 337.5 453.5 Q319 461 293 461 Q269 461 255 456 Q241 451 234 444.5 Q227 438 225 431.5 Q223 425 223 421 Q223 407 249.5 395.5 Q276 384 310.5 375.5 Q345 367 379 361 Q413 355 428 352 Q466 345 497 332 Q528 319 551 299.5 Q574 280 586.5 252.5 Q599 225 599 188 Q599 145 583 108.5 Q567 72 532.5 45 Q498 18 445 2.5 Q392 -13 317 -13 Q268 -13 222 -4.5 Q176 4 138.5 22 Q101 40 74.5 68.5 Q48 97 37 138 Z M487 846 Q487 860 477 869.5 Q467 879 453 879 L373 879 Q359 879 349.5 869.5 Q340 860 334 846 L312 797 L290 846 Q284 860 274.5 869.5 Q265 879 251 879 L171 879 Q157 879 147 869.5 Q137 860 137 846 L227 685 Q234 672 242 662 Q250 652 264 652 L360 652 Q374 652 382 662 Q390 672 397 685 L487 846 Z " />
<glyph glyph-name="scaron" unicode="&#x161;" horiz-adv-x="466" d="M27 104 Q27 127 40 132.5 Q53 138 72 138 L146 138 Q160 138 167.5 132.5 Q175 127 183 117 Q189 109 202 104 Q215 99 232 99 Q270 99 278.5 107 Q287 115 287 122 Q287 133 261.5 138 Q236 143 194 151 Q165 156 135 166 Q105 176 80.5 192 Q56 208 40.5 231 Q25 254 25 285 Q25 317 35.5 345 Q46 373 70 394 Q94 415 132.5 427.5 Q171 440 226 440 Q300 440 352.5 413 Q405 386 426 322 Q426 299 413 293.5 Q400 288 381 288 L307 288 Q293 288 284.5 293 Q276 298 270 309 Q265 317 255.5 321.5 Q246 326 226 326 Q211 326 202.5 323.5 Q194 321 190 317 Q186 313 185 309.5 Q184 306 184 303 Q184 293 201 285.5 Q218 278 240.5 273 Q263 268 285.5 265 Q308 262 319 260 Q376 250 411 220 Q446 190 446 136 Q446 104 434 77 Q422 50 396.5 30 Q371 10 331.5 -1.5 Q292 -13 237 -13 Q200 -13 167 -7 Q134 -1 106.5 13 Q79 27 58.5 49.5 Q38 72 27 104 Z M409 701 Q409 715 399 724.5 Q389 734 375 734 L295 734 Q281 734 271.5 724.5 Q262 715 256 701 L234 652 L212 701 Q206 715 196.5 724.5 Q187 734 173 734 L93 734 Q79 734 69 724.5 Q59 715 59 701 L149 540 Q156 527 164 517 Q172 507 186 507 L282 507 Q296 507 304 517 Q312 527 319 540 L409 701 Z " />
<glyph glyph-name="uni0162" unicode="&#x162;" horiz-adv-x="527" d="M202 0 Q187 4 177 16.5 Q167 29 167 46 L167 434 L51 434 Q34 434 22 447 Q10 460 10 477 L10 542 Q10 559 22 572 Q34 585 51 585 L476 585 Q493 585 505 572 Q517 559 517 542 L517 477 Q517 460 505 447 Q493 434 476 434 L360 434 L360 46 Q360 29 350 16.5 Q340 4 324 0 Q307 -18 303 -35 Q299 -52 299 -57 Q299 -64 307.5 -75 Q316 -86 332 -86 L343 -86 Q354 -86 364 -95.5 Q374 -105 374 -117 L374 -162 Q374 -173 362.5 -180.5 Q351 -188 340 -188 Q332 -189 324.5 -189 Q317 -189 312 -189 Q286 -189 260.5 -183.5 Q235 -178 214.5 -165 Q194 -152 181.5 -132.5 Q169 -113 169 -84 Q169 -61 179.5 -38 Q190 -15 202 0 Z " />
<glyph glyph-name="uni0163" unicode="&#x163;" horiz-adv-x="394" d="M327 135 Q343 135 353.5 124 Q364 113 364 96 L364 36 Q364 19 352.5 4.5 Q341 -10 325 -10 Q307 -10 288 -11 Q269 -12 255 -13 L255 -37 Q279 -38 299 -48 Q316 -57 329 -75.5 Q342 -94 342 -128 Q342 -154 330 -175 Q318 -196 298.5 -210.5 Q279 -225 253.5 -233 Q228 -241 201 -241 Q186 -241 168.5 -239 Q151 -237 139 -235 Q128 -235 119.5 -226 Q111 -217 111 -206 L111 -165 Q111 -154 119.5 -145 Q128 -136 139 -136 Q143 -137 148 -137 Q153 -137 157 -137 Q165 -137 174.5 -136 Q184 -135 192.5 -132.5 Q201 -130 206.5 -125.5 Q212 -121 212 -114 Q212 -100 195.5 -93 Q179 -86 162 -86 Q153 -86 147.5 -79.5 Q142 -73 142 -65 L148 16 Q115 41 98.5 83.5 Q82 126 82 184 L82 297 L52 297 Q36 297 25.5 308 Q15 319 15 336 L15 386 Q15 403 25.5 414 Q36 425 52 425 L82 425 L82 506 Q82 526 96 536.5 Q110 547 130 552 L228 574 Q248 574 262 559 Q276 544 276 524 L276 425 L327 425 Q343 425 353.5 414 Q364 403 364 386 L364 336 Q364 319 353.5 308 Q343 297 327 297 L276 297 L276 170 Q276 150 291.5 142.5 Q307 135 327 135 Z " />
<glyph glyph-name="Tcaron" unicode="&#x164;" horiz-adv-x="527" d="M476 585 Q493 585 505 572 Q517 559 517 542 L517 477 Q517 460 505 447 Q493 434 476 434 L360 434 L360 46 Q360 26 346 13 Q332 0 312 0 L215 0 Q195 0 181 13 Q167 26 167 46 L167 434 L51 434 Q34 434 22 447 Q10 460 10 477 L10 542 Q10 559 22 572 Q34 585 51 585 L476 585 Z M349 685 Q342 672 334 662 Q326 652 312 652 L216 652 Q202 652 194 662 Q186 672 179 685 L89 846 Q89 860 99 869.5 Q109 879 123 879 L203 879 Q217 879 226.5 869.5 Q236 860 242 846 L264 797 L286 846 Q292 860 301.5 869.5 Q311 879 325 879 L405 879 Q419 879 429 869.5 Q439 860 439 846 L349 685 Z " />
<glyph glyph-name="tcaron" unicode="&#x165;" horiz-adv-x="500" d="M327 135 Q343 135 353.5 124 Q364 113 364 96 L364 36 Q364 19 352.5 4.5 Q341 -10 325 -10 Q305 -10 283 -11.5 Q261 -13 247 -13 Q165 -13 123.5 40 Q82 93 82 184 L82 297 L52 297 Q36 297 25.5 308 Q15 319 15 336 L15 386 Q15 403 25.5 414 Q36 425 52 425 L82 425 L82 506 Q82 526 96 536.5 Q110 547 130 552 L228 574 Q248 574 262 559 Q276 544 276 524 L276 425 L327 425 Q343 425 353.5 414 Q364 403 364 386 L364 336 Q364 319 353.5 308 Q343 297 327 297 L276 297 L276 170 Q276 150 291.5 142.5 Q307 135 327 135 Z M472 493 Q467 485 460.5 480 Q454 475 444 475 L376 475 Q362 475 353.5 484 Q345 493 345 506 L367 554 Q373 567 380.5 576 Q388 585 402 585 L469 585 Q483 585 491.5 576.5 Q500 568 500 554 L472 493 Z " />
<glyph glyph-name="Tbar" unicode="&#x166;" horiz-adv-x="527" d="M360 195 L360 46 Q360 26 346 13 Q332 0 312 0 L215 0 Q195 0 181 13 Q167 26 167 46 L167 195 L103 195 Q88 195 77 206.5 Q66 218 66 234 L66 289 Q66 305 77 316.5 Q88 328 103 328 L167 328 L167 434 L51 434 Q34 434 22 447 Q10 460 10 477 L10 542 Q10 559 22 572 Q34 585 51 585 L476 585 Q493 585 505 572 Q517 559 517 542 L517 477 Q517 460 505 447 Q493 434 476 434 L360 434 L360 328 L423 328 Q438 328 449 316.5 Q460 305 460 289 L460 234 Q460 218 449 206.5 Q438 195 423 195 L360 195 Z " />
<glyph glyph-name="tbar" unicode="&#x167;" horiz-adv-x="394" d="M82 286 L82 310 L52 310 Q36 310 25.5 321 Q15 332 15 349 L15 386 Q15 403 25.5 414 Q36 425 52 425 L82 425 L82 506 Q82 526 96 536.5 Q110 547 130 552 L228 574 Q248 574 262 559 Q276 544 276 524 L276 425 L327 425 Q343 425 353.5 414 Q364 403 364 386 L364 349 Q364 332 353.5 321 Q343 310 327 310 L276 310 L276 286 L327 286 Q343 286 353.5 275 Q364 264 364 247 L364 210 Q364 193 353.5 182 Q343 171 327 171 L276 171 Q276 151 291.5 143 Q307 135 327 135 Q343 135 353.5 124 Q364 113 364 96 L364 36 Q364 19 352.5 4.5 Q341 -10 325 -10 Q305 -10 283 -11.5 Q261 -13 247 -13 Q168 -13 126.5 36 Q85 85 82 171 L52 171 Q36 171 25.5 182 Q15 193 15 210 L15 247 Q15 264 25.5 275 Q36 286 52 286 L82 286 Z " />
<glyph glyph-name="Utilde" unicode="&#x168;" horiz-adv-x="659" d="M40 539 Q40 559 54 572 Q68 585 88 585 L186 585 Q206 585 220 572 Q234 559 234 539 L234 261 Q234 196 254 160.5 Q274 125 329 125 Q384 125 404.5 160.5 Q425 196 425 261 L425 539 Q425 559 439 572 Q453 585 473 585 L571 585 Q591 585 605 572 Q619 559 619 539 L619 261 Q619 215 605 166 Q591 117 558 77 Q525 37 469 11.5 Q413 -14 329 -14 Q245 -14 189.5 11.5 Q134 37 100.5 77 Q67 117 53.5 166 Q40 215 40 261 L40 539 Z M403 652 Q386 652 369.5 657.5 Q353 663 337 669 Q321 675 304.5 680.5 Q288 686 270 686 Q264 686 253.5 684 Q243 682 232 679 Q226 676 220 676 Q209 676 199 682.5 Q189 689 184 700 L166 749 Q163 755 163 762 Q163 773 168.5 782 Q174 791 184 795 Q207 806 231 810 Q255 814 270 814 Q287 814 303.5 808.5 Q320 803 336 797 Q352 791 368.5 785.5 Q385 780 403 780 Q409 780 419.5 782 Q430 784 441 787 Q447 790 453 790 Q464 790 474 783.5 Q484 777 489 766 L507 717 Q510 711 510 704 Q510 693 504.5 684 Q499 675 489 671 Q466 660 442 656 Q418 652 403 652 Z " />
<glyph glyph-name="utilde" unicode="&#x169;" horiz-adv-x="567" d="M328 46 Q294 10 260 -1.5 Q226 -13 204 -13 Q122 -13 78.5 40 Q35 93 35 184 L35 379 Q35 399 49 412 Q63 425 83 425 L181 425 Q201 425 215 412 Q229 399 229 379 L229 166 Q229 145 243.5 131 Q258 117 278 117 Q301 117 314.5 131 Q328 145 328 166 L328 379 Q328 399 342 412 Q356 425 376 425 L474 425 Q494 425 508 412 Q522 399 522 379 L522 46 Q522 26 508 13 Q494 0 474 0 L376 0 Q356 0 342 12 Q328 24 328 46 Z M333 507 Q316 507 299.5 512.5 Q283 518 267 524 Q251 530 234.5 535.5 Q218 541 200 541 Q194 541 183.5 539 Q173 537 162 534 Q156 531 150 531 Q139 531 129 537.5 Q119 544 114 555 L96 604 Q93 610 93 617 Q93 628 98.5 637 Q104 646 114 650 Q137 661 161 665 Q185 669 200 669 Q217 669 233.5 663.5 Q250 658 266 652 Q282 646 298.5 640.5 Q315 635 333 635 Q339 635 349.5 637 Q360 639 371 642 Q377 645 383 645 Q394 645 404 638.5 Q414 632 419 621 L437 572 Q440 566 440 559 Q440 548 434.5 539 Q429 530 419 526 Q396 515 372 511 Q348 507 333 507 Z " />
<glyph glyph-name="Umacron" unicode="&#x16a;" horiz-adv-x="659" d="M40 539 Q40 559 54 572 Q68 585 88 585 L186 585 Q206 585 220 572 Q234 559 234 539 L234 261 Q234 196 254 160.5 Q274 125 329 125 Q384 125 404.5 160.5 Q425 196 425 261 L425 539 Q425 559 439 572 Q453 585 473 585 L571 585 Q591 585 605 572 Q619 559 619 539 L619 261 Q619 215 605 166 Q591 117 558 77 Q525 37 469 11.5 Q413 -14 329 -14 Q245 -14 189.5 11.5 Q134 37 100.5 77 Q67 117 53.5 166 Q40 215 40 261 L40 539 Z M173 652 Q156 652 144 665 Q132 678 132 695 L132 757 Q132 774 144 787 Q156 800 173 800 L485 800 Q502 800 514 787 Q526 774 526 757 L526 695 Q526 678 514 665 Q502 652 485 652 L173 652 Z " />
<glyph glyph-name="umacron" unicode="&#x16b;" horiz-adv-x="567" d="M328 46 Q294 10 260 -1.5 Q226 -13 204 -13 Q122 -13 78.5 40 Q35 93 35 184 L35 379 Q35 399 49 412 Q63 425 83 425 L181 425 Q201 425 215 412 Q229 399 229 379 L229 166 Q229 145 243.5 131 Q258 117 278 117 Q301 117 314.5 131 Q328 145 328 166 L328 379 Q328 399 342 412 Q356 425 376 425 L474 425 Q494 425 508 412 Q522 399 522 379 L522 46 Q522 26 508 13 Q494 0 474 0 L376 0 Q356 0 342 12 Q328 24 328 46 Z M127 507 Q110 507 98 520 Q86 533 86 550 L86 612 Q86 629 98 642 Q110 655 127 655 L439 655 Q456 655 468 642 Q480 629 480 612 L480 550 Q480 533 468 520 Q456 507 439 507 L127 507 Z " />
<glyph glyph-name="Ubreve" unicode="&#x16c;" horiz-adv-x="659" d="M40 539 Q40 559 54 572 Q68 585 88 585 L186 585 Q206 585 220 572 Q234 559 234 539 L234 261 Q234 196 254 160.5 Q274 125 329 125 Q384 125 404.5 160.5 Q425 196 425 261 L425 539 Q425 559 439 572 Q453 585 473 585 L571 585 Q591 585 605 572 Q619 559 619 539 L619 261 Q619 215 605 166 Q591 117 558 77 Q525 37 469 11.5 Q413 -14 329 -14 Q245 -14 189.5 11.5 Q134 37 100.5 77 Q67 117 53.5 166 Q40 215 40 261 L40 539 Z M329 652 Q268 652 220.5 683 Q173 714 162 781 Q162 797 173 807.5 Q184 818 201 818 L250 818 Q262 818 271 812 Q280 806 285 797 Q292 785 305 780.5 Q318 776 329 776 Q340 776 353 780.5 Q366 785 373 797 Q378 806 387 812 Q396 818 408 818 L457 818 Q474 818 485 807.5 Q496 797 496 781 Q485 714 438 683 Q391 652 329 652 Z " />
<glyph glyph-name="ubreve" unicode="&#x16d;" horiz-adv-x="567" d="M328 46 Q294 10 260 -1.5 Q226 -13 204 -13 Q122 -13 78.5 40 Q35 93 35 184 L35 379 Q35 399 49 412 Q63 425 83 425 L181 425 Q201 425 215 412 Q229 399 229 379 L229 166 Q229 145 243.5 131 Q258 117 278 117 Q301 117 314.5 131 Q328 145 328 166 L328 379 Q328 399 342 412 Q356 425 376 425 L474 425 Q494 425 508 412 Q522 399 522 379 L522 46 Q522 26 508 13 Q494 0 474 0 L376 0 Q356 0 342 12 Q328 24 328 46 Z M281 507 Q220 507 172.5 538 Q125 569 114 636 Q114 652 125 662.5 Q136 673 153 673 L202 673 Q214 673 223 667 Q232 661 237 652 Q244 640 257 635.5 Q270 631 281 631 Q292 631 305 635.5 Q318 640 325 652 Q330 661 339 667 Q348 673 360 673 L409 673 Q426 673 437 662.5 Q448 652 448 636 Q437 569 390 538 Q343 507 281 507 Z " />
<glyph glyph-name="Uring" unicode="&#x16e;" horiz-adv-x="659" d="M329 942 Q359 942 385 931 Q411 920 430.5 900.5 Q450 881 461.5 854.5 Q473 828 473 798 Q473 768 461.5 741 Q450 714 430.5 694.5 Q411 675 385 663.5 Q359 652 329 652 Q299 652 272 663.5 Q245 675 225.5 694.5 Q206 714 194.5 741 Q183 768 183 798 Q183 828 194.5 854.5 Q206 881 225.5 900.5 Q245 920 272 931 Q299 942 329 942 Z M329 761 Q343 761 353.5 771.5 Q364 782 364 797 Q364 812 353.5 822 Q343 832 329 832 Q314 832 303.5 822 Q293 812 293 797 Q293 782 303.5 771.5 Q314 761 329 761 Z M40 539 Q40 559 54 572 Q68 585 88 585 L186 585 Q206 585 220 572 Q234 559 234 539 L234 261 Q234 196 254 160.5 Q274 125 329 125 Q384 125 404.5 160.5 Q425 196 425 261 L425 539 Q425 559 439 572 Q453 585 473 585 L571 585 Q591 585 605 572 Q619 559 619 539 L619 261 Q619 215 605 166 Q591 117 558 77 Q525 37 469 11.5 Q413 -14 329 -14 Q245 -14 189.5 11.5 Q134 37 100.5 77 Q67 117 53.5 166 Q40 215 40 261 L40 539 Z " />
<glyph glyph-name="uring" unicode="&#x16f;" horiz-adv-x="567" d="M328 46 Q294 10 260 -1.5 Q226 -13 204 -13 Q122 -13 78.5 40 Q35 93 35 184 L35 379 Q35 399 49 412 Q63 425 83 425 L181 425 Q201 425 215 412 Q229 399 229 379 L229 166 Q229 145 243.5 131 Q258 117 278 117 Q301 117 314.5 131 Q328 145 328 166 L328 379 Q328 399 342 412 Q356 425 376 425 L474 425 Q494 425 508 412 Q522 399 522 379 L522 46 Q522 26 508 13 Q494 0 474 0 L376 0 Q356 0 342 12 Q328 24 328 46 Z M278 797 Q308 797 334 786 Q360 775 379.5 755.5 Q399 736 410.5 709.5 Q422 683 422 653 Q422 623 410.5 596 Q399 569 379.5 549.5 Q360 530 334 518.5 Q308 507 278 507 Q248 507 221 518.5 Q194 530 174.5 549.5 Q155 569 143.5 596 Q132 623 132 653 Q132 683 143.5 709.5 Q155 736 174.5 755.5 Q194 775 221 786 Q248 797 278 797 Z M278 616 Q292 616 302.5 626.5 Q313 637 313 652 Q313 667 302.5 677 Q292 687 278 687 Q263 687 252.5 677 Q242 667 242 652 Q242 637 252.5 626.5 Q263 616 278 616 Z " />
</font>
</svg>
