<svg width="0" height="0" style="position:absolute"><symbol viewBox="0 0 145.76 103.68" id="email" xmlns="http://www.w3.org/2000/svg"><defs><style>.ac{fill:#231f20}</style></defs><g id="ab"><path class="ac" d="m73.04 54.05 72.7-44.88c-.25-5.1-4.47-9.17-9.63-9.17H9.65C4.56 0 .38 3.97.03 8.98l73.01 45.07Z"/><path class="ac" d="m73.04 59.93-13.15-8.12-55.13 50.52c1.44.85 3.1 1.34 4.89 1.34h126.46c1.87 0 3.6-.54 5.08-1.46l-55-50.4-13.15 8.12ZM0 14.83v79.19c0 1.72.46 3.34 1.25 4.74l54.22-49.68L0 14.83ZM144.62 98.57c.73-1.36 1.14-2.9 1.14-4.55V15.03L90.61 49.08l54.01 49.49Z"/></g></symbol><symbol viewBox="0 0 477.1 511.04" id="github" xmlns="http://www.w3.org/2000/svg"><path d="M177.53 511.04c-12.25 0-22.19-9.93-22.19-22.19v-38.77c-66.96 10.19-95.32-25.74-114.82-50.54-8.62-10.94-16.08-20.41-23.71-22.32C4.92 374.25-2.3 362.2.67 350.33c2.99-11.92 15.04-19.09 26.91-16.14 22.34 5.57 35.86 22.75 47.81 37.9 18.56 23.58 33.6 42.65 79.95 33v-2.12c-1-13.76 1.32-27.85 6.59-41C99.4 347.71 33.29 309.4 33.29 190.38c-.17-32.52 10.61-63.69 30.59-89.02-7.63-28.92-5.44-59.44 6.49-87.26 2.6-6.06 7.76-10.65 14.09-12.53 8.08-2.44 38.34-6.95 97.04 30.21 48.43-11.51 98.99-11.49 147.4 0 58.68-37.14 88.91-32.63 97.04-30.2a22.178 22.178 0 0 1 14.09 12.53c11.92 27.81 14.13 58.34 6.5 87.26 19.81 25.12 30.58 56.02 30.58 88.35 0 125.95-76.54 160.82-128.46 172.13a96.778 96.778 0 0 1 6.35 42.89l.07 84.12c0 12.27-9.93 22.19-22.19 22.19" style="fill:inherit"/></symbol><symbol viewBox="0 0 255.06 256.31" id="linkedin" xmlns="http://www.w3.org/2000/svg"><path d="M5 86.27h50.64v170.04H5V86.27ZM30.01 0c16.88 0 30.63 13.75 30.63 30.63S46.89 61.26 30.01 61.26 0 47.51 0 30.63 13.13 0 30.01 0Zm55.64 86.27h50.01v23.76C146.29 94.4 163.79 84.4 183.8 84.4h13.75c31.88 0 57.51 26.26 57.51 57.51v114.4h-50.01V164.41c-.63-19.38-13.75-34.38-33.13-34.38-19.38 0-35.63 15-36.26 34.38v91.9H85.65V86.27Z" style="fill:#231f20"/></symbol><symbol viewBox="0 0 574.83 615.26" id="mastodon" xmlns="http://www.w3.org/2000/svg"><path d="M574.81 202.01c0-133.49-87.59-172.61-87.59-172.61C443.04 9.16 367.24.66 288.43 0h-1.94C207.72.66 131.95 9.16 87.8 29.4c0 0-87.62 39.12-87.62 172.61 0 30.56-.59 67.12.38 105.86 3.19 130.52 23.97 259.16 144.86 291.1 55.71 14.75 103.55 17.81 142.11 15.69 69.87-3.84 109.11-24.87 109.11-24.87l-2.31-50.65s-49.93 15.75-106.02 13.81c-55.56-1.91-114.24-5.97-123.24-74.09-.81-6-1.22-12.37-1.22-19.09 0 0 54.53 13.31 123.68 16.47 42.28 1.94 81.9-2.47 122.18-7.28 77.21-9.19 144.42-56.68 152.89-100.12 13.31-68.37 12.22-166.83 12.22-166.83ZM471.49 373.96h-64.12V217.1c0-33.06-13.94-49.84-41.81-49.84-30.81 0-46.28 19.9-46.28 59.28v85.87h-63.74v-85.87c0-39.37-15.44-59.28-46.28-59.28-27.87 0-41.81 16.78-41.81 49.84v156.86h-64.11V212.35c0-33.03 8.44-59.28 25.34-78.68 17.47-19.44 40.31-29.37 68.68-29.37 32.81 0 57.65 12.59 74.09 37.78l15.97 26.72 15.97-26.72c16.44-25.18 41.28-37.78 74.12-37.78 28.34 0 51.21 9.94 68.65 29.37 16.94 19.4 25.34 45.65 25.34 78.68v161.61Z" style="fill:#231f20"/></symbol><symbol viewBox="0 0 278.44 226.15" id="twitter" xmlns="http://www.w3.org/2000/svg"><path d="M137.37 69.55c-11.08-58.35 59.09-93.06 100.44-50.96 0 0 18.46-5.17 34.71-15.51 0 0-5.91 19.94-25.85 32.5 0 0 22.16-2.95 31.76-8.86 0 0-9.6 19.94-27.33 27.33C260.71 187.72 116.69 268.97 0 202.49c0 0 57.61 2.95 81.98-25.11 0 0-35.45 2.95-53.18-39.88 0 0 13.29 5.17 26.59-1.48 0 0-41.36-6.65-45.05-56.13 0 0 13.29 10.34 28.07 6.65 0 0-45.79-27.33-19.94-76.81 0 0 48.75 62.04 118.91 59.82Z" style="fill:#231f20"/></symbol><symbol viewBox="0 0 278.44 226.15" id="twtiter" xmlns="http://www.w3.org/2000/svg"><path d="M137.37 69.55c-11.08-58.35 59.09-93.06 100.44-50.96 0 0 18.46-5.17 34.71-15.51 0 0-5.91 19.94-25.85 32.5 0 0 22.16-2.95 31.76-8.86 0 0-9.6 19.94-27.33 27.33C260.71 187.72 116.69 268.97 0 202.49c0 0 57.61 2.95 81.98-25.11 0 0-35.45 2.95-53.18-39.88 0 0 13.29 5.17 26.59-1.48 0 0-41.36-6.65-45.05-56.13 0 0 13.29 10.34 28.07 6.65 0 0-45.79-27.33-19.94-76.81 0 0 48.75 62.04 118.91 59.82Z" style="fill:none;fill-rule:evenodd"/></symbol></svg>