<?xml version="1.0" encoding="UTF-8"?><svg xmlns="http://www.w3.org/2000/svg" viewBox="0 0 145.76 103.68"><defs><style>.c{fill:#231f20;}</style></defs><g id="a"/><g id="b"><g><path class="c" d="M73.04,54.05L145.74,9.17c-.25-5.1-4.47-9.17-9.63-9.17H9.65C4.56,0,.38,3.97,.03,8.98L73.04,54.05Z"/><path class="c" d="M73.04,59.93l-13.15-8.12L4.76,102.33c1.44,.85,3.1,1.34,4.89,1.34h126.46c1.87,0,3.6-.54,5.08-1.46l-55-50.4-13.15,8.12Z"/><path class="c" d="M0,14.83V94.02c0,1.72,.46,3.34,1.25,4.74L55.47,49.08,0,14.83Z"/><path class="c" d="M144.62,98.57c.73-1.36,1.14-2.9,1.14-4.55V15.03l-55.15,34.05,54.01,49.49Z"/></g></g></svg>