<?xml version="1.0" encoding="UTF-8"?><svg xmlns="http://www.w3.org/2000/svg" viewBox="0 0 477.1 511.04"><defs><style>.c{fill:#231f20;}</style></defs><g id="a"/><g id="b"><path class="c" d="M332.86,511.04c-12.27,0-22.19-9.93-22.19-22.19v-85.88c1.26-16.77-4.1-31.64-14.61-42.47-5.89-6.09-7.82-15-4.96-22.95,2.88-7.97,10.01-13.61,18.44-14.56,63.97-7.11,123.18-28.19,123.18-133.27,0-25.4-9.64-49.52-27.17-67.92-5.85-6.14-7.67-15.1-4.7-23.06,6.41-17.22,7.43-35.67,3.08-53.2-10.45,2.41-29.75,9.19-58.71,28.58-5.33,3.61-11.98,4.65-18.16,2.99-47-12.76-96.7-12.76-143.72,0-6.2,1.64-12.84,.59-18.16-2.99-28.67-19.22-47.88-26.05-58.75-28.43-4.31,17.49-3.28,35.89,3.13,53.05,2.97,7.95,1.14,16.9-4.71,23.06-17.66,18.55-27.3,42.86-27.17,68.47,0,103.81,59.33,125.48,123.45,133.44,8.35,1.04,15.4,6.7,18.19,14.63,2.81,7.95,.88,16.77-4.98,22.82-10.36,10.71-15.7,25.4-14.66,40.26v19.42c.08,.98,.08,1.93,.01,2.88l.04,65.14c0,12.27-9.94,22.19-22.19,22.19s-22.19-9.93-22.19-22.19v-38.77c-66.96,10.19-95.32-25.74-114.82-50.54-8.62-10.94-16.08-20.41-23.71-22.32-11.89-2.97-19.11-15.02-16.14-26.89,2.99-11.92,15.04-19.09,26.91-16.14,22.34,5.57,35.86,22.75,47.81,37.9,18.56,23.58,33.6,42.65,79.95,33v-2.12c-1-13.76,1.32-27.85,6.59-41-62.53-14.26-128.64-52.57-128.64-171.59-.17-32.52,10.61-63.69,30.59-89.02-7.63-28.92-5.44-59.44,6.49-87.26,2.6-6.06,7.76-10.65,14.09-12.53,8.08-2.44,38.34-6.95,97.04,30.21,48.43-11.51,98.99-11.49,147.4,0C387.58-5.36,417.81-.85,425.94,1.58c6.33,1.87,11.49,6.47,14.09,12.53,11.92,27.81,14.13,58.34,6.5,87.26,19.81,25.12,30.58,56.02,30.58,88.35,0,125.95-76.54,160.82-128.46,172.13,5.27,13.48,7.52,28.13,6.35,42.89l.07,84.12c0,12.27-9.93,22.19-22.19,22.19Z"/></g></svg>