<?xml version="1.0" encoding="UTF-8"?><svg xmlns="http://www.w3.org/2000/svg" viewBox="0 0 255.06 256.31"><defs><style>.c{fill:#231f20;}</style></defs><g id="a"/><g id="b"><path class="c" d="M5,86.27H55.64v170.04H5V86.27ZM30.01,0c16.88,0,30.63,13.75,30.63,30.63s-13.75,30.63-30.63,30.63S0,47.51,0,30.63,13.13,0,30.01,0h0Zm55.64,86.27h50.01v23.76c10.63-15.63,28.13-25.63,48.14-25.63h13.75c31.88,0,57.51,26.26,57.51,57.51v114.4h-50.01v-15.63h0v-76.27h0c-.63-19.38-13.75-34.38-33.13-34.38h0c-19.38,0-35.63,15-36.26,34.38h0v91.9h-50.01V86.27Z"/></g></svg>