<?xml version="1.0" encoding="UTF-8"?><svg xmlns="http://www.w3.org/2000/svg" viewBox="0 0 574.83 615.26"><defs><style>.c{fill:#231f20;}</style></defs><g id="a"/><g id="b"><path class="c" d="M574.81,202.01c0-133.49-87.59-172.61-87.59-172.61C443.04,9.16,367.24,.66,288.43,0h-1.94C207.72,.66,131.95,9.16,87.8,29.4,87.8,29.4,.18,68.52,.18,202.01c0,30.56-.59,67.12,.38,105.86,3.19,130.52,23.97,259.16,144.86,291.1,55.71,14.75,103.55,17.81,142.11,15.69,69.87-3.84,109.11-24.87,109.11-24.87l-2.31-50.65s-49.93,15.75-106.02,13.81c-55.56-1.91-114.24-5.97-123.24-74.09-.81-6-1.22-12.37-1.22-19.09,0,0,54.53,13.31,123.68,16.47,42.28,1.94,81.9-2.47,122.18-7.28,77.21-9.19,144.42-56.68,152.89-100.12h0c13.31-68.37,12.22-166.83,12.22-166.83Zm-103.32,171.95h-64.12V217.1c0-33.06-13.94-49.84-41.81-49.84-30.81,0-46.28,19.9-46.28,59.28v85.87h-63.74v-85.87c0-39.37-15.44-59.28-46.28-59.28-27.87,0-41.81,16.78-41.81,49.84v156.86H103.34V212.35c0-33.03,8.44-59.28,25.34-78.68,17.47-19.44,40.31-29.37,68.68-29.37,32.81,0,57.65,12.59,74.09,37.78l15.97,26.72,15.97-26.72c16.44-25.18,41.28-37.78,74.12-37.78,28.34,0,51.21,9.94,68.65,29.37,16.94,19.4,25.34,45.65,25.34,78.68v161.61Z"/></g></svg>