<?xml version="1.0" encoding="UTF-8"?><svg id="a" xmlns="http://www.w3.org/2000/svg" viewBox="0 0 1200 1200"><path d="M1180.7,525.38c-8.62-1.12-17.06,4.31-19.88,12.56-54,160.5-204,268.31-373.31,268.31-217.12,0-393.75-176.62-393.75-393.75,0-169.31,107.81-319.31,268.31-373.31,8.44-2.81,13.69-11.06,12.56-19.88s-8.06-15.75-16.88-16.5C638.82,.94,619.32,0,600.01,0,269.26,0,.01,269.25,.01,600s269.25,600,600,600,600-269.25,600-600c0-18.94-.94-38.25-2.81-57.75-.75-8.81-7.69-15.94-16.5-16.88h0Z"/><path d="M712.5,262.5c41.44,0,75,33.56,75,75,0,10.31,8.44,18.75,18.75,18.75s18.75-8.44,18.75-18.75c0-41.44,33.56-75,75-75,10.31,0,18.75-8.44,18.75-18.75s-8.44-18.75-18.75-18.75c-41.44,0-75-33.56-75-75,0-10.31-8.44-18.75-18.75-18.75s-18.75,8.44-18.75,18.75c0,41.44-33.56,75-75,75-10.31,0-18.75,8.44-18.75,18.75s8.44,18.75,18.75,18.75Z"/><path d="M956.25,150c51.75,0,93.75,42,93.75,93.75,0,10.31,8.44,18.75,18.75,18.75s18.75-8.44,18.75-18.75c0-51.75,42-93.75,93.75-93.75,10.31,0,18.75-8.44,18.75-18.75s-8.44-18.75-18.75-18.75c-51.75,0-93.75-42-93.75-93.75,0-10.31-8.44-18.75-18.75-18.75s-18.75,8.44-18.75,18.75c0,51.75-42,93.75-93.75,93.75-10.31,0-18.75,8.44-18.75,18.75s8.44,18.75,18.75,18.75Z"/></svg>