<?xml version="1.0" encoding="UTF-8"?><svg id="a" xmlns="http://www.w3.org/2000/svg" viewBox="0 0 1075 1075"><path d="M825,537.5c.16-68.3-24.02-134.43-68.19-186.52-44.18-52.09-105.46-86.75-172.87-97.75s-136.54,2.37-194.98,37.71c-58.45,35.34-102.39,90.35-123.96,155.16-.73,1.62-1.37,3.3-1.9,5-17.67,56.14-17.67,116.36,0,172.5,.53,1.7,1.17,3.37,1.9,5,21.56,64.78,65.48,119.77,123.89,155.12,58.41,35.34,127.5,48.73,194.89,37.77,67.39-10.97,128.68-45.56,172.88-97.6,44.2-52.04,68.43-118.11,68.34-186.39h0Z"/><path d="M575,137.5V37.5c0-13.4-7.15-25.78-18.75-32.48-11.6-6.7-25.9-6.7-37.5,0-11.6,6.7-18.75,19.08-18.75,32.48v100c0,13.4,7.15,25.78,18.75,32.48,11.6,6.7,25.9,6.7,37.5,0s18.75-19.08,18.75-32.48Z"/><path d="M917.5,157.5c-7.04-7.04-16.57-10.99-26.52-10.99s-19.49,3.95-26.53,10.99l-70.6,70.65c-9.48,9.48-13.18,23.29-9.71,36.23,3.47,12.95,13.58,23.06,26.53,26.53,12.94,3.47,26.75-.23,36.23-9.71l70.6-70.75c7.01-7.03,10.94-16.55,10.94-26.47s-3.93-19.45-10.94-26.48h0Z"/><path d="M1037.5,500h-100c-13.4,0-25.78,7.15-32.48,18.75-6.7,11.6-6.7,25.9,0,37.5s19.08,18.75,32.48,18.75h100c13.4,0,25.78-7.15,32.48-18.75,6.7-11.6,6.7-25.9,0-37.5s-19.08-18.75-32.48-18.75Z"/><path d="M864.55,917.5c9.62,8.6,22.98,11.65,35.37,8.08s22.09-13.26,25.66-25.66,.52-25.75-8.08-35.37l-70.7-70.75c-9.48-9.48-23.29-13.18-36.23-9.71-12.95,3.47-23.05,13.58-26.52,26.53-3.47,12.95,.23,26.76,9.71,36.23l70.8,70.65Z"/><path d="M500,937.5v100c0,13.4,7.15,25.78,18.75,32.48,11.6,6.7,25.9,6.7,37.5,0s18.75-19.08,18.75-32.48v-100c0-13.4-7.15-25.78-18.75-32.48-11.6-6.7-25.9-6.7-37.5,0s-18.75,19.08-18.75,32.48Z"/><path d="M157.5,917.5c7.05,7.01,16.58,10.95,26.52,10.95s19.48-3.94,26.53-10.95l70.7-70.75c9.2-9.52,12.7-23.19,9.21-35.96-3.5-12.77-13.47-22.76-26.24-26.27-12.77-3.51-26.44-.02-35.97,9.18l-70.75,70.85c-7.01,7.03-10.94,16.55-10.94,26.47s3.93,19.45,10.94,26.48h0Z"/><path d="M0,537.5c0,9.95,3.95,19.48,10.98,26.52,7.03,7.04,16.57,10.98,26.52,10.98h100c13.4,0,25.78-7.15,32.48-18.75,6.7-11.6,6.7-25.9,0-37.5s-19.08-18.75-32.48-18.75H37.5c-9.95,0-19.48,3.95-26.52,10.98-7.04,7.03-10.98,16.57-10.98,26.52Z"/><path d="M281.15,281.2c7.04-7.03,10.99-16.57,10.99-26.52s-3.95-19.49-10.99-26.53l-70.7-70.65c-9.62-8.6-22.98-11.65-35.37-8.08s-22.09,13.26-25.66,25.66-.52,25.75,8.08,35.37l70.65,70.75c7.04,7.01,16.57,10.95,26.5,10.95s19.46-3.93,26.5-10.95h0Z"/></svg>