<?xml version="1.0" encoding="UTF-8"?><svg xmlns="http://www.w3.org/2000/svg" viewBox="0 0 278.44 226.15"><defs><style>.c{fill:#231f20;}</style></defs><g id="a"/><g id="b"><path class="c" d="M137.37,69.55c-11.08-58.35,59.09-93.06,100.44-50.96,0,0,18.46-5.17,34.71-15.51,0,0-5.91,19.94-25.85,32.5,0,0,22.16-2.95,31.76-8.86,0,0-9.6,19.94-27.33,27.33C260.71,187.72,116.69,268.97,0,202.49c0,0,57.61,2.95,81.98-25.11,0,0-35.45,2.95-53.18-39.88,0,0,13.29,5.17,26.59-1.48,0,0-41.36-6.65-45.05-56.13,0,0,13.29,10.34,28.07,6.65,0,0-45.79-27.33-19.94-76.81,0,0,48.75,62.04,118.91,59.82h0Z"/></g></svg>